  0
SECTION
  2
HEADER
  9
$ANGBASE
  50
0.0
  9
$ANGDIR
  70
1
  9
$MEASUREMENT
  70
1
  0
ENDSEC
  0
SECTION
  2
TABLES
  0
TABLE
  2
LTYPE
  70
4
  0
LTYPE
  5
40F
  2
CONTINUOUS
  70
0
  3
Solid line
  72
65
  73
0
  40
0.0
  0
LTYPE
  5
410
  2
DASHDOT
 70
0
  3
Dash Dot ____ _ ____ _
 72
65
 73
4
 40
2.0
 49
1.25
 49
-0.25
 49
0.25
 49
-0.25
  0
LTYPE
  5
411
  2
DASHED
 70
0
  3
Dashed __ __ __ __ __
 72
65
 73
2
 40
0.75
 49
0.5
 49
-0.25
  0
LTYPE
  5
43B
  2
DOTTED
 70
0
  3
Dotted .  .  .  .
 72
65
 73
2
 40
0.2
 49
0.0
 49
-0.2
  0
ENDTAB
  0
TABLE
  2
STYLE
  70
4
  0
STYLE
  2
KICAD
  70
0
  40
0
  41
1
  42
1
  50
0
  71
0
  3
isocp.shx
  0
STYLE
  2
KICADB
  70
0
  40
0
  41
1
  42
1
  50
0
  71
0
  3
isocp.shx
  0
STYLE
  2
KICADI
  70
0
  40
0
  41
1
  42
1
  50
15
  71
0
  3
isocp.shx
  0
STYLE
  2
KICADBI
  70
0
  40
0
  41
1
  42
1
  50
15
  71
0
  3
isocp.shx
  0
ENDTAB
  0
TABLE
  2
LAYER
  70
1
  0
LAYER
  2
BLACK
  70
0
  62
7
  6
CONTINUOUS
  0
ENDTAB
  0
ENDSEC
  0
SECTION
  2
ENTITIES
0
LINE
8
BLACK
6
CONTINUOUS
10
119.0349999999999966
20
-124.1749999999999972
11
171.1049999999999898
21
-124.1749999999999972
0
LINE
8
BLACK
6
CONTINUOUS
10
171.1049999999999898
20
-124.1749999999999972
11
171.1049999999999898
21
-132.4300000000000068
0
LINE
8
BLACK
6
CONTINUOUS
10
171.1049999999999898
20
-132.4300000000000068
11
119.0349999999999966
21
-132.4300000000000068
0
LINE
8
BLACK
6
CONTINUOUS
10
119.0349999999999966
20
-132.4300000000000068
11
119.0349999999999966
21
-124.1749999999999972
0
LINE
8
BLACK
6
CONTINUOUS
10
115.0000009999999975
20
-72.999927999999997
11
115.0000009999999975
21
-88.999927999999997
0
ARC
8
BLACK
10
189.
20
-116.9998999999999967
40
2.0000280000002499
50
-270.00002865
51
-89.99997135
0
LINE
8
BLACK
6
CONTINUOUS
10
157.0000009999999975
20
-66.999927999999997
11
173.0000009999999975
21
-66.999927999999997
0
LINE
8
BLACK
6
CONTINUOUS
10
85.0000009999999975
20
-66.999927999999997
11
101.0000009999999975
21
-66.999927999999997
0
ARC
8
BLACK
10
153.0000009999999975
20
-112.999927999999997
40
2.
50
-180.00000000
51
-0.00000000
0
ARC
8
BLACK
10
101.
20
-68.9998999999999967
40
1.9999720000002499
50
-89.99997135
51
89.99997135
0
LINE
8
BLACK
6
CONTINUOUS
10
211.0000009999999975
20
-96.999927999999997
11
211.0000009999999975
21
-112.999927999999997
0
ARC
8
BLACK
10
137.0000009999999975
20
-72.999927999999997
40
2.
50
0.00000000
51
180.00000000
0
ARC
8
BLACK
10
230.
20
-127.999929999999992
40
15.0000730500242891
50
-90.00000000
51
0.17758578
0
ARC
8
BLACK
10
137.0000009999999975
20
-112.999927999999997
40
2.
50
-180.00000000
51
-0.00000000
0
ARC
8
BLACK
10
85.
20
-116.9998999999999967
40
2.0000280000002499
50
-270.00002865
51
-89.99997135
0
ARC
8
BLACK
10
153.0000009999999975
20
-96.999927999999997
40
2.
50
0.00000000
51
180.00000000
0
LINE
8
BLACK
6
CONTINUOUS
10
103.0000009999999975
20
-72.999927999999997
11
103.0000009999999975
21
-88.999927999999997
0
LINE
8
BLACK
6
CONTINUOUS
10
117.0000009999999975
20
-70.999927999999997
11
133.0000009999999975
21
-70.999927999999997
0
LINE
8
BLACK
6
CONTINUOUS
10
189.0000009999999975
20
-90.999927999999997
11
205.0000009999999975
21
-90.999927999999997
0
ARC
8
BLACK
10
173.
20
-116.9998999999999967
40
1.9999720000002499
50
-89.99997135
51
89.99997135
0
ARC
8
BLACK
10
133.
20
-68.9998999999999967
40
1.9999720000002499
50
-89.99997135
51
89.99997135
0
LINE
8
BLACK
6
CONTINUOUS
10
175.0000009999999975
20
-96.999927999999997
11
175.0000009999999975
21
-112.999927999999997
0
ARC
8
BLACK
10
157.
20
-116.9998999999999967
40
2.0000280000002499
50
-270.00002865
51
-89.99997135
0
LINE
8
BLACK
6
CONTINUOUS
10
85.0000009999999975
20
-114.999927999999997
11
101.0000009999999975
21
-114.999927999999997
0
ARC
8
BLACK
10
189.
20
-92.9998999999999967
40
2.0000280000002499
50
-270.00002865
51
-89.99997135
0
LINE
8
BLACK
6
CONTINUOUS
10
85.0000009999999975
20
-90.999927999999997
11
101.0000009999999975
21
-90.999927999999997
0
LINE
8
BLACK
6
CONTINUOUS
10
117.0000009999999975
20
-118.999927999999997
11
133.0000009999999975
21
-118.999927999999997
0
ARC
8
BLACK
10
189.
20
-68.9998999999999967
40
2.0000280000002499
50
-270.00002865
51
-89.99997135
0
ARC
8
BLACK
10
185.0000009999999975
20
-88.999927999999997
40
2.
50
-180.00000000
51
-0.00000000
0
LINE
8
BLACK
6
CONTINUOUS
10
107.0000009999999975
20
-96.999927999999997
11
107.0000009999999975
21
-112.999927999999997
0
ARC
8
BLACK
10
209.0000009999999975
20
-72.999927999999997
40
2.
50
0.00000000
51
180.00000000
0
LINE
8
BLACK
6
CONTINUOUS
10
189.0000009999999975
20
-118.999927999999997
11
205.0000009999999975
21
-118.999927999999997
0
ARC
8
BLACK
10
177.0000009999999975
20
-88.999927999999997
40
2.
50
-180.00000000
51
-0.00000000
0
ARC
8
BLACK
10
60.
20
-57.9999299999999991
40
15.0000710376366211
50
-270.00000764
51
-179.82242948
0
LINE
8
BLACK
6
CONTINUOUS
10
151.0000009999999975
20
-72.999927999999997
11
151.0000009999999975
21
-88.999927999999997
0
ARC
8
BLACK
10
101.
20
-92.9998999999999967
40
1.9999720000002499
50
-89.99997135
51
89.99997135
0
LINE
8
BLACK
6
CONTINUOUS
10
135.0000009999999975
20
-72.999927999999997
11
135.0000009999999975
21
-88.999927999999997
0
LINE
8
BLACK
6
CONTINUOUS
10
245.0000009999999975
20
-127.9534749999999974
11
245.0001019999999983
21
-57.9999289999999945
0
LINE
8
BLACK
6
CONTINUOUS
10
60.0464909999999961
20
-142.9999279999999828
11
230.
21
-143.0000320000000045
0
LINE
8
BLACK
6
CONTINUOUS
10
157.0000009999999975
20
-114.999927999999997
11
173.0000009999999975
21
-114.999927999999997
0
LINE
8
BLACK
6
CONTINUOUS
10
179.0000009999999975
20
-96.999927999999997
11
179.0000009999999975
21
-112.999927999999997
0
LINE
8
BLACK
6
CONTINUOUS
10
139.0000009999999975
20
-96.999927999999997
11
139.0000009999999975
21
-112.999927999999997
0
LINE
8
BLACK
6
CONTINUOUS
10
229.9535109999999918
20
-42.999927999999997
11
60.000001999999995
21
-42.9998569999999987
0
ARC
8
BLACK
10
81.0000009999999975
20
-88.999927999999997
40
2.
50
-180.00000000
51
-0.00000000
0
ARC
8
BLACK
10
85.
20
-92.9998999999999967
40
2.0000280000002499
50
-270.00002865
51
-89.99997135
0
LINE
8
BLACK
6
CONTINUOUS
10
211.0000009999999975
20
-72.999927999999997
11
211.0000009999999975
21
-88.999927999999997
0
ARC
8
BLACK
10
105.0000009999999975
20
-112.999927999999997
40
2.
50
-180.00000000
51
-0.00000000
0
ARC
8
BLACK
10
157.
20
-68.9998999999999967
40
2.0000280000002499
50
-270.00002865
51
-89.99997135
0
ARC
8
BLACK
10
113.0000009999999975
20
-112.999927999999997
40
2.
50
-180.00000000
51
-0.00000000
0
LINE
8
BLACK
6
CONTINUOUS
10
117.0000009999999975
20
-90.999927999999997
11
133.0000009999999975
21
-90.999927999999997
0
LINE
8
BLACK
6
CONTINUOUS
10
157.0000009999999975
20
-90.999927999999997
11
173.0000009999999975
21
-90.999927999999997
0
LINE
8
BLACK
6
CONTINUOUS
10
155.0000009999999975
20
-72.999927999999997
11
155.0000009999999975
21
-88.999927999999997
0
ARC
8
BLACK
10
113.0000009999999975
20
-88.999927999999997
40
2.
50
-180.00000000
51
-0.00000000
0
ARC
8
BLACK
10
133.
20
-92.9998999999999967
40
1.9999720000002499
50
-89.99997135
51
89.99997135
0
LINE
8
BLACK
6
CONTINUOUS
10
187.0000009999999975
20
-72.999927999999997
11
187.0000009999999975
21
-88.999927999999997
0
LINE
8
BLACK
6
CONTINUOUS
10
175.0000009999999975
20
-72.999927999999997
11
175.0000009999999975
21
-88.999927999999997
0
LINE
8
BLACK
6
CONTINUOUS
10
139.0000009999999975
20
-72.999927999999997
11
139.0000009999999975
21
-88.999927999999997
0
LINE
8
BLACK
6
CONTINUOUS
10
183.0000009999999975
20
-96.999927999999997
11
183.0000009999999975
21
-112.999927999999997
0
LINE
8
BLACK
6
CONTINUOUS
10
207.0000009999999975
20
-96.999927999999997
11
207.0000009999999975
21
-112.999927999999997
0
ARC
8
BLACK
10
117.
20
-92.9998999999999967
40
2.0000280000002499
50
-270.00002865
51
-89.99997135
0
ARC
8
BLACK
10
177.0000009999999975
20
-72.999927999999997
40
2.
50
0.00000000
51
180.00000000
0
LINE
8
BLACK
6
CONTINUOUS
10
207.0000009999999975
20
-72.999927999999997
11
207.0000009999999975
21
-88.999927999999997
0
ARC
8
BLACK
10
81.0000009999999975
20
-72.999927999999997
40
2.
50
0.00000000
51
180.00000000
0
ARC
8
BLACK
10
133.
20
-116.9998999999999967
40
1.9999720000002499
50
-89.99997135
51
89.99997135
0
ARC
8
BLACK
10
81.0000009999999975
20
-112.999927999999997
40
2.
50
-180.00000000
51
-0.00000000
0
ARC
8
BLACK
10
157.
20
-92.9998999999999967
40
2.0000280000002499
50
-270.00002865
51
-89.99997135
0
ARC
8
BLACK
10
173.
20
-92.9998999999999967
40
1.9999720000002499
50
-89.99997135
51
89.99997135
0
LINE
8
BLACK
6
CONTINUOUS
10
115.0000009999999975
20
-96.999927999999997
11
115.0000009999999975
21
-112.999927999999997
0
ARC
8
BLACK
10
113.0000009999999975
20
-96.999927999999997
40
2.
50
0.00000000
51
180.00000000
0
LINE
8
BLACK
6
CONTINUOUS
10
157.0000009999999975
20
-118.999927999999997
11
173.0000009999999975
21
-118.999927999999997
0
ARC
8
BLACK
10
153.0000009999999975
20
-88.999927999999997
40
2.
50
-180.00000000
51
-0.00000000
0
LINE
8
BLACK
6
CONTINUOUS
10
85.0000009999999975
20
-70.999927999999997
11
101.0000009999999975
21
-70.999927999999997
0
LINE
8
BLACK
6
CONTINUOUS
10
111.0000009999999975
20
-96.999927999999997
11
111.0000009999999975
21
-112.999927999999997
0
ARC
8
BLACK
10
101.
20
-116.9998999999999967
40
1.9999720000002499
50
-89.99997135
51
89.99997135
0
LINE
8
BLACK
6
CONTINUOUS
10
79.0000009999999975
20
-96.999927999999997
11
79.0000009999999975
21
-112.999927999999997
0
ARC
8
BLACK
10
85.
20
-68.9998999999999967
40
2.0000280000002499
50
-270.00002865
51
-89.99997135
0
LINE
8
BLACK
6
CONTINUOUS
10
107.0000009999999975
20
-72.999927999999997
11
107.0000009999999975
21
-88.999927999999997
0
LINE
8
BLACK
6
CONTINUOUS
10
155.0000009999999975
20
-96.999927999999997
11
155.0000009999999975
21
-112.999927999999997
0
LINE
8
BLACK
6
CONTINUOUS
10
189.0000009999999975
20
-114.999927999999997
11
205.0000009999999975
21
-114.999927999999997
0
LINE
8
BLACK
6
CONTINUOUS
10
157.0000009999999975
20
-94.999927999999997
11
173.0000009999999975
21
-94.999927999999997
0
LINE
8
BLACK
6
CONTINUOUS
10
189.0000009999999975
20
-66.999927999999997
11
205.0000009999999975
21
-66.999927999999997
0
ARC
8
BLACK
10
137.0000009999999975
20
-88.999927999999997
40
2.
50
-180.00000000
51
-0.00000000
0
ARC
8
BLACK
10
81.0000009999999975
20
-96.999927999999997
40
2.
50
0.00000000
51
180.00000000
0
LINE
8
BLACK
6
CONTINUOUS
10
45.0000009999999975
20
-58.0464179999999956
11
44.9999289999999945
21
-127.999927999999997
0
CIRCLE
8
BLACK
10
145.0000009999999975
20
-88.999927999999997
40
2.
0
ARC
8
BLACK
10
185.0000009999999975
20
-96.999927999999997
40
2.
50
0.00000000
51
180.00000000
0
LINE
8
BLACK
6
CONTINUOUS
10
151.0000009999999975
20
-96.999927999999997
11
151.0000009999999975
21
-112.999927999999997
0
LINE
8
BLACK
6
CONTINUOUS
10
85.0000009999999975
20
-118.999927999999997
11
101.0000009999999975
21
-118.999927999999997
0
ARC
8
BLACK
10
153.0000009999999975
20
-72.999927999999997
40
2.
50
0.00000000
51
180.00000000
0
LINE
8
BLACK
6
CONTINUOUS
10
157.0000009999999975
20
-70.999927999999997
11
173.0000009999999975
21
-70.999927999999997
0
ARC
8
BLACK
10
117.
20
-68.9998999999999967
40
2.0000280000002499
50
-270.00002865
51
-89.99997135
0
LINE
8
BLACK
6
CONTINUOUS
10
187.0000009999999975
20
-96.999927999999997
11
187.0000009999999975
21
-112.999927999999997
0
ARC
8
BLACK
10
205.
20
-92.9998999999999967
40
1.9999720000002499
50
-89.99997135
51
89.99997135
0
ARC
8
BLACK
10
185.0000009999999975
20
-112.999927999999997
40
2.
50
-180.00000000
51
-0.00000000
0
ARC
8
BLACK
10
177.0000009999999975
20
-96.999927999999997
40
2.
50
0.00000000
51
180.00000000
0
LINE
8
BLACK
6
CONTINUOUS
10
117.0000009999999975
20
-94.999927999999997
11
133.0000009999999975
21
-94.999927999999997
0
LINE
8
BLACK
6
CONTINUOUS
10
83.0000009999999975
20
-96.999927999999997
11
83.0000009999999975
21
-112.999927999999997
0
ARC
8
BLACK
10
60.
20
-127.9998999999999967
40
15.0001000467951862
50
-179.99989687
51
-89.82241836
0
LINE
8
BLACK
6
CONTINUOUS
10
83.0000009999999975
20
-72.999927999999997
11
83.0000009999999975
21
-88.999927999999997
0
ARC
8
BLACK
10
230.
20
-57.9998999999999967
40
15.0000440408655127
50
-0.00011077
51
90.17757466
0
LINE
8
BLACK
6
CONTINUOUS
10
135.0000009999999975
20
-96.999927999999997
11
135.0000009999999975
21
-112.999927999999997
0
LINE
8
BLACK
6
CONTINUOUS
10
179.0000009999999975
20
-72.999927999999997
11
179.0000009999999975
21
-88.999927999999997
0
ARC
8
BLACK
10
205.
20
-68.9998999999999967
40
1.9999720000002499
50
-89.99997135
51
89.99997135
0
ARC
8
BLACK
10
117.
20
-116.9998999999999967
40
2.0000280000002499
50
-270.00002865
51
-89.99997135
0
ARC
8
BLACK
10
209.0000009999999975
20
-96.999927999999997
40
2.
50
0.00000000
51
180.00000000
0
CIRCLE
8
BLACK
10
145.0000009999999975
20
-96.999927999999997
40
2.
0
LINE
8
BLACK
6
CONTINUOUS
10
85.0000009999999975
20
-94.999927999999997
11
101.0000009999999975
21
-94.999927999999997
0
ARC
8
BLACK
10
185.0000009999999975
20
-72.999927999999997
40
2.
50
0.00000000
51
180.00000000
0
ARC
8
BLACK
10
113.0000009999999975
20
-72.999927999999997
40
2.
50
0.00000000
51
180.00000000
0
ARC
8
BLACK
10
173.
20
-68.9998999999999967
40
1.9999720000002499
50
-89.99997135
51
89.99997135
0
LINE
8
BLACK
6
CONTINUOUS
10
111.0000009999999975
20
-72.999927999999997
11
111.0000009999999975
21
-88.999927999999997
0
ARC
8
BLACK
10
209.0000009999999975
20
-88.999927999999997
40
2.
50
-180.00000000
51
-0.00000000
0
LINE
8
BLACK
6
CONTINUOUS
10
117.0000009999999975
20
-66.999927999999997
11
133.0000009999999975
21
-66.999927999999997
0
LINE
8
BLACK
6
CONTINUOUS
10
189.0000009999999975
20
-70.999927999999997
11
205.0000009999999975
21
-70.999927999999997
0
ARC
8
BLACK
10
105.0000009999999975
20
-72.999927999999997
40
2.
50
0.00000000
51
180.00000000
0
ARC
8
BLACK
10
209.0000009999999975
20
-112.999927999999997
40
2.
50
-180.00000000
51
-0.00000000
0
ARC
8
BLACK
10
205.
20
-116.9998999999999967
40
1.9999720000002499
50
-89.99997135
51
89.99997135
0
LINE
8
BLACK
6
CONTINUOUS
10
103.0000009999999975
20
-96.999927999999997
11
103.0000009999999975
21
-112.999927999999997
0
ARC
8
BLACK
10
105.0000009999999975
20
-96.999927999999997
40
2.
50
0.00000000
51
180.00000000
0
ARC
8
BLACK
10
137.0000009999999975
20
-96.999927999999997
40
2.
50
0.00000000
51
180.00000000
0
LINE
8
BLACK
6
CONTINUOUS
10
189.0000009999999975
20
-94.999927999999997
11
205.0000009999999975
21
-94.999927999999997
0
LINE
8
BLACK
6
CONTINUOUS
10
183.0000009999999975
20
-72.999927999999997
11
183.0000009999999975
21
-88.999927999999997
0
LINE
8
BLACK
6
CONTINUOUS
10
79.0000009999999975
20
-72.999927999999997
11
79.0000009999999975
21
-88.999927999999997
0
ARC
8
BLACK
10
105.0000009999999975
20
-88.999927999999997
40
2.
50
-180.00000000
51
-0.00000000
0
LINE
8
BLACK
6
CONTINUOUS
10
117.0000009999999975
20
-114.999927999999997
11
133.0000009999999975
21
-114.999927999999997
0
ARC
8
BLACK
10
177.0000009999999975
20
-112.999927999999997
40
2.
50
-180.00000000
51
-0.00000000
  0
ENDSEC
  0
EOF
