  0
SECTION
  2
HEADER
  9
$ANGBASE
  50
0.0
  9
$ANGDIR
  70
1
  9
$MEASUREMENT
  70
1
  0
ENDSEC
  0
SECTION
  2
TABLES
  0
TABLE
  2
LTYPE
  70
4
  0
LTYPE
  5
40F
  2
CONTINUOUS
  70
0
  3
Solid line
  72
65
  73
0
  40
0.0
  0
LTYPE
  5
410
  2
DASHDOT
 70
0
  3
Dash Dot ____ _ ____ _
 72
65
 73
4
 40
2.0
 49
1.25
 49
-0.25
 49
0.25
 49
-0.25
  0
LTYPE
  5
411
  2
DASHED
 70
0
  3
Dashed __ __ __ __ __
 72
65
 73
2
 40
0.75
 49
0.5
 49
-0.25
  0
LTYPE
  5
43B
  2
DOTTED
 70
0
  3
Dotted .  .  .  .
 72
65
 73
2
 40
0.2
 49
0.0
 49
-0.2
  0
ENDTAB
  0
TABLE
  2
STYLE
  70
4
  0
STYLE
  2
KICAD
  70
0
  40
0
  41
1
  42
1
  50
0
  71
0
  3
isocp.shx
  0
STYLE
  2
KICADB
  70
0
  40
0
  41
1
  42
1
  50
0
  71
0
  3
isocp.shx
  0
STYLE
  2
KICADI
  70
0
  40
0
  41
1
  42
1
  50
15
  71
0
  3
isocp.shx
  0
STYLE
  2
KICADBI
  70
0
  40
0
  41
1
  42
1
  50
15
  71
0
  3
isocp.shx
  0
ENDTAB
  0
TABLE
  2
LAYER
  70
1
  0
LAYER
  2
BLACK
  70
0
  62
7
  6
CONTINUOUS
  0
ENDTAB
  0
ENDSEC
  0
SECTION
  2
ENTITIES
0
LINE
8
BLACK
6
CONTINUOUS
10
204.8328989999999976
20
-127.4804469999999981
11
204.8328989999999976
21
-128.0904789999999878
0
LINE
8
BLACK
6
CONTINUOUS
10
204.8328989999999976
20
-128.0904789999999878
11
204.8841649999999959
21
-128.0188870000000065
0
LINE
8
BLACK
6
CONTINUOUS
10
204.8841649999999959
20
-128.0188870000000065
11
204.9411539999999832
21
-127.9529809999999941
0
LINE
8
BLACK
6
CONTINUOUS
10
204.9411539999999832
20
-127.9529809999999941
11
205.0110179999999787
21
-127.8980559999999969
0
LINE
8
BLACK
6
CONTINUOUS
10
205.0110179999999787
20
-127.8980559999999969
11
205.0964620000000025
21
-127.8527330000000006
0
LINE
8
BLACK
6
CONTINUOUS
10
205.0964620000000025
20
-127.8527330000000006
11
205.2001949999999795
21
-127.8156350000000003
0
LINE
8
BLACK
6
CONTINUOUS
10
205.2001949999999795
20
-127.8156350000000003
11
205.3249219999999866
21
-127.7853849999999909
0
LINE
8
BLACK
6
CONTINUOUS
10
205.3249219999999866
20
-127.7853849999999909
11
205.3540519999999958
21
-127.7797709999999967
0
LINE
8
BLACK
6
CONTINUOUS
10
205.3540519999999958
20
-127.7797709999999967
11
205.407291999999984
21
-127.7726979999999912
0
LINE
8
BLACK
6
CONTINUOUS
10
205.407291999999984
20
-127.7726979999999912
11
205.4814819999999997
21
-127.7668589999999966
0
LINE
8
BLACK
6
CONTINUOUS
10
205.4814819999999997
20
-127.7668589999999966
11
205.5727839999999844
21
-127.7622519999999895
0
LINE
8
BLACK
6
CONTINUOUS
10
205.5727839999999844
20
-127.7622519999999895
11
205.6773629999999855
21
-127.7588789999999932
0
LINE
8
BLACK
6
CONTINUOUS
10
205.6773629999999855
20
-127.7588789999999932
11
205.7913800000000037
21
-127.7567359999999894
0
LINE
8
BLACK
6
CONTINUOUS
10
205.7913800000000037
20
-127.7567359999999894
11
205.9110000000000014
21
-127.7558249999999873
0
LINE
8
BLACK
6
CONTINUOUS
10
205.9110000000000014
20
-127.7558249999999873
11
206.0323849999999766
21
-127.7561439999999919
0
LINE
8
BLACK
6
CONTINUOUS
10
206.0323849999999766
20
-127.7561439999999919
11
206.1516989999999794
21
-127.7576919999999916
0
LINE
8
BLACK
6
CONTINUOUS
10
206.1516989999999794
20
-127.7576919999999916
11
206.2651049999999771
21
-127.760469999999998
0
LINE
8
BLACK
6
CONTINUOUS
10
206.2651049999999771
20
-127.760469999999998
11
206.3687659999999937
21
-127.7644749999999902
0
LINE
8
BLACK
6
CONTINUOUS
10
206.3687659999999937
20
-127.7644749999999902
11
206.4588459999999941
21
-127.7697089999999918
0
LINE
8
BLACK
6
CONTINUOUS
10
206.4588459999999941
20
-127.7697089999999918
11
206.5315080000000023
21
-127.7761689999999959
0
LINE
8
BLACK
6
CONTINUOUS
10
206.5315080000000023
20
-127.7761689999999959
11
206.5609209999999791
21
-127.7799809999999923
0
LINE
8
BLACK
6
CONTINUOUS
10
206.5609209999999791
20
-127.7799809999999923
11
206.7111759999999947
21
-127.8084329999999937
0
LINE
8
BLACK
6
CONTINUOUS
10
206.7111759999999947
20
-127.8084329999999937
11
206.8398870000000045
21
-127.845877999999999
0
LINE
8
BLACK
6
CONTINUOUS
10
206.8398870000000045
20
-127.845877999999999
11
206.9490519999999947
21
-127.8934599999999904
0
LINE
8
BLACK
6
CONTINUOUS
10
206.9490519999999947
20
-127.8934599999999904
11
207.0406689999999799
21
-127.9523200000000003
0
LINE
8
BLACK
6
CONTINUOUS
10
207.0406689999999799
20
-127.9523200000000003
11
207.1167370000000005
21
-128.0236009999999851
0
LINE
8
BLACK
6
CONTINUOUS
10
207.1167370000000005
20
-128.0236009999999851
11
207.179253999999986
21
-128.1084459999999865
0
LINE
8
BLACK
6
CONTINUOUS
10
207.179253999999986
20
-128.1084459999999865
11
207.2005049999999926
21
-128.1456670000000031
0
LINE
8
BLACK
6
CONTINUOUS
10
207.2005049999999926
20
-128.1456670000000031
11
207.2410959999999989
21
-128.2404259999999852
0
LINE
8
BLACK
6
CONTINUOUS
10
207.2410959999999989
20
-128.2404259999999852
11
207.273904999999985
21
-128.3546279999999911
0
LINE
8
BLACK
6
CONTINUOUS
10
207.273904999999985
20
-128.3546279999999911
11
207.2989329999999768
21
-128.4841499999999996
0
LINE
8
BLACK
6
CONTINUOUS
10
207.2989329999999768
20
-128.4841499999999996
11
207.3161789999999769
21
-128.6248699999999872
0
LINE
8
BLACK
6
CONTINUOUS
10
207.3161789999999769
20
-128.6248699999999872
11
207.3256429999999852
21
-128.7726649999999893
0
LINE
8
BLACK
6
CONTINUOUS
10
207.3256429999999852
20
-128.7726649999999893
11
207.3273259999999993
21
-128.9234119999999848
0
LINE
8
BLACK
6
CONTINUOUS
10
207.3273259999999993
20
-128.9234119999999848
11
207.3212269999999933
21
-129.0729900000000043
0
LINE
8
BLACK
6
CONTINUOUS
10
207.3212269999999933
20
-129.0729900000000043
11
207.3073459999999955
21
-129.2172759999999982
0
LINE
8
BLACK
6
CONTINUOUS
10
207.3073459999999955
20
-129.2172759999999982
11
207.2856840000000034
21
-129.3521470000000022
0
LINE
8
BLACK
6
CONTINUOUS
10
207.2856840000000034
20
-129.3521470000000022
11
207.2562399999999911
21
-129.473479999999995
0
LINE
8
BLACK
6
CONTINUOUS
10
207.2562399999999911
20
-129.473479999999995
11
207.2190149999999846
21
-129.5771540000000073
0
LINE
8
BLACK
6
CONTINUOUS
10
207.2190149999999846
20
-129.5771540000000073
11
207.2005049999999926
21
-129.6154870000000017
0
LINE
8
BLACK
6
CONTINUOUS
10
207.2005049999999926
20
-129.6154870000000017
11
207.1411090000000002
21
-129.707808
0
LINE
8
BLACK
6
CONTINUOUS
10
207.1411090000000002
20
-129.707808
11
207.0678869999999847
21
-129.7857889999999941
0
LINE
8
BLACK
6
CONTINUOUS
10
207.0678869999999847
20
-129.7857889999999941
11
206.9790459999999825
21
-129.8504649999999856
0
LINE
8
BLACK
6
CONTINUOUS
10
206.9790459999999825
20
-129.8504649999999856
11
206.8727899999999806
21
-129.9028749999999945
0
LINE
8
BLACK
6
CONTINUOUS
10
206.8727899999999806
20
-129.9028749999999945
11
206.7473229999999944
21
-129.9440559999999891
0
LINE
8
BLACK
6
CONTINUOUS
10
206.7473229999999944
20
-129.9440559999999891
11
206.6008520000000033
21
-129.9750459999999919
0
LINE
8
BLACK
6
CONTINUOUS
10
206.6008520000000033
20
-129.9750459999999919
11
206.5700750000000028
21
-129.9799319999999909
0
LINE
8
BLACK
6
CONTINUOUS
10
206.5700750000000028
20
-129.9799319999999909
11
206.5211510000000033
21
-129.9853279999999813
0
LINE
8
BLACK
6
CONTINUOUS
10
206.5211510000000033
20
-129.9853279999999813
11
206.4514299999999878
21
-129.9902289999999994
0
LINE
8
BLACK
6
CONTINUOUS
10
206.4514299999999878
20
-129.9902289999999994
11
206.3649289999999894
21
-129.9945710000000076
0
LINE
8
BLACK
6
CONTINUOUS
10
206.3649289999999894
20
-129.9945710000000076
11
206.2656669999999792
21
-129.9982909999999947
0
LINE
8
BLACK
6
CONTINUOUS
10
206.2656669999999792
20
-129.9982909999999947
11
206.1576579999999979
21
-130.00132499999998
0
LINE
8
BLACK
6
CONTINUOUS
10
206.1576579999999979
20
-130.00132499999998
11
206.0449199999999905
21
-130.0036099999999806
0
LINE
8
BLACK
6
CONTINUOUS
10
206.0449199999999905
20
-130.0036099999999806
11
205.9314699999999903
21
-130.0050819999999874
0
LINE
8
BLACK
6
CONTINUOUS
10
205.9314699999999903
20
-130.0050819999999874
11
205.8213250000000016
21
-130.005677999999989
0
LINE
8
BLACK
6
CONTINUOUS
10
205.8213250000000016
20
-130.005677999999989
11
205.7185010000000034
21
-130.0053350000000023
0
LINE
8
BLACK
6
CONTINUOUS
10
205.7185010000000034
20
-130.0053350000000023
11
205.6270150000000001
21
-130.00398899999999
0
LINE
8
BLACK
6
CONTINUOUS
10
205.6270150000000001
20
-130.00398899999999
11
205.5508839999999964
21
-130.0015769999999975
0
LINE
8
BLACK
6
CONTINUOUS
10
205.5508839999999964
20
-130.0015769999999975
11
205.4941259999999943
21
-129.9980359999999848
0
LINE
8
BLACK
6
CONTINUOUS
10
205.4941259999999943
20
-129.9980359999999848
11
205.4843400000000031
21
-129.9970659999999896
0
LINE
8
BLACK
6
CONTINUOUS
10
205.4843400000000031
20
-129.9970659999999896
11
205.3375149999999962
21
-129.9764909999999816
0
LINE
8
BLACK
6
CONTINUOUS
10
205.3375149999999962
20
-129.9764909999999816
11
205.2125499999999931
21
-129.9487469999999973
0
LINE
8
BLACK
6
CONTINUOUS
10
205.2125499999999931
20
-129.9487469999999973
11
205.1072859999999878
21
-129.9129120000000057
0
LINE
8
BLACK
6
CONTINUOUS
10
205.1072859999999878
20
-129.9129120000000057
11
205.0195650000000001
21
-129.8680630000000065
0
LINE
8
BLACK
6
CONTINUOUS
10
205.0195650000000001
20
-129.8680630000000065
11
204.9472299999999905
21
-129.8132779999999968
0
LINE
8
BLACK
6
CONTINUOUS
10
204.9472299999999905
20
-129.8132779999999968
11
204.8881219999999814
21
-129.747634000000005
0
LINE
8
BLACK
6
CONTINUOUS
10
204.8881219999999814
20
-129.747634000000005
11
204.8824319999999943
21
-129.7398469999999975
0
LINE
8
BLACK
6
CONTINUOUS
10
204.8824319999999943
20
-129.7398469999999975
11
204.8328989999999976
21
-129.6706749999999886
0
LINE
8
BLACK
6
CONTINUOUS
10
204.8328989999999976
20
-129.6706749999999886
11
204.8328989999999976
21
-129.8215950000000021
0
LINE
8
BLACK
6
CONTINUOUS
10
204.8328989999999976
20
-129.8215950000000021
11
204.8328989999999976
21
-129.9725159999999846
0
LINE
8
BLACK
6
CONTINUOUS
10
204.8328989999999976
20
-129.9725159999999846
11
204.6715899999999806
21
-129.9725159999999846
0
LINE
8
BLACK
6
CONTINUOUS
10
204.6715899999999806
20
-129.9725159999999846
11
204.5102799999999945
21
-129.9725159999999846
0
LINE
8
BLACK
6
CONTINUOUS
10
204.5102799999999945
20
-129.9725159999999846
11
204.5102799999999945
21
-128.915930000000003
0
LINE
8
BLACK
6
CONTINUOUS
10
204.5102799999999945
20
-128.915930000000003
11
204.5102799999999945
21
-128.421465999999981
0
LINE
8
BLACK
6
CONTINUOUS
10
204.5102799999999945
20
-128.421465999999981
11
204.5102799999999945
21
-126.8704159999999916
0
LINE
8
BLACK
6
CONTINUOUS
10
204.5102799999999945
20
-126.8704159999999916
11
204.6715899999999806
21
-126.8704159999999916
0
LINE
8
BLACK
6
CONTINUOUS
10
204.6715899999999806
20
-126.8704159999999916
11
204.8328989999999976
21
-126.8704159999999916
0
LINE
8
BLACK
6
CONTINUOUS
10
204.8328989999999976
20
-126.8704159999999916
11
204.8328989999999976
21
-127.4804469999999981
0
LINE
8
BLACK
6
CONTINUOUS
10
204.8389719999999841
20
-129.0173869999999852
11
204.8427250000000015
21
-129.1126889999999889
0
LINE
8
BLACK
6
CONTINUOUS
10
204.8427250000000015
20
-129.1126889999999889
11
204.8485139999999944
21
-129.1967190000000016
0
LINE
8
BLACK
6
CONTINUOUS
10
204.8485139999999944
20
-129.1967190000000016
11
204.8563230000000033
21
-129.2643569999999897
0
LINE
8
BLACK
6
CONTINUOUS
10
204.8563230000000033
20
-129.2643569999999897
11
204.8622749999999826
21
-129.2962579999999946
0
LINE
8
BLACK
6
CONTINUOUS
10
204.8622749999999826
20
-129.2962579999999946
11
204.8923690000000022
21
-129.3987160000000074
0
LINE
8
BLACK
6
CONTINUOUS
10
204.8923690000000022
20
-129.3987160000000074
11
204.9319009999999821
21
-129.4828509999999824
0
LINE
8
BLACK
6
CONTINUOUS
10
204.9319009999999821
20
-129.4828509999999824
11
204.983429000000001
21
-129.5508800000000065
0
LINE
8
BLACK
6
CONTINUOUS
10
204.983429000000001
20
-129.5508800000000065
11
205.0495119999999929
21
-129.6050199999999961
0
LINE
8
BLACK
6
CONTINUOUS
10
205.0495119999999929
20
-129.6050199999999961
11
205.1327089999999771
21
-129.6474859999999865
0
LINE
8
BLACK
6
CONTINUOUS
10
205.1327089999999771
20
-129.6474859999999865
11
205.2355780000000038
21
-129.6804960000000051
0
LINE
8
BLACK
6
CONTINUOUS
10
205.2355780000000038
20
-129.6804960000000051
11
205.3292349999999828
21
-129.700759000000005
0
LINE
8
BLACK
6
CONTINUOUS
10
205.3292349999999828
20
-129.700759000000005
11
205.3692939999999965
21
-129.7060449999999889
0
LINE
8
BLACK
6
CONTINUOUS
10
205.3692939999999965
20
-129.7060449999999889
11
205.4290450000000021
21
-129.7112829999999803
0
LINE
8
BLACK
6
CONTINUOUS
10
205.4290450000000021
20
-129.7112829999999803
11
205.5033640000000048
21
-129.7162500000000023
0
LINE
8
BLACK
6
CONTINUOUS
10
205.5033640000000048
20
-129.7162500000000023
11
205.5871259999999836
21
-129.7207249999999874
0
LINE
8
BLACK
6
CONTINUOUS
10
205.5871259999999836
20
-129.7207249999999874
11
205.6752089999999953
21
-129.7244839999999897
0
LINE
8
BLACK
6
CONTINUOUS
10
205.6752089999999953
20
-129.7244839999999897
11
205.7624859999999956
21
-129.7273059999999987
0
LINE
8
BLACK
6
CONTINUOUS
10
205.7624859999999956
20
-129.7273059999999987
11
205.8438349999999843
21
-129.7289679999999805
0
LINE
8
BLACK
6
CONTINUOUS
10
205.8438349999999843
20
-129.7289679999999805
11
205.9141309999999976
21
-129.7292489999999816
0
LINE
8
BLACK
6
CONTINUOUS
10
205.9141309999999976
20
-129.7292489999999816
11
205.962063999999998
21
-129.7282060000000001
0
LINE
8
BLACK
6
CONTINUOUS
10
205.962063999999998
20
-129.7282060000000001
11
206.0038529999999923
21
-129.7265720000000044
0
LINE
8
BLACK
6
CONTINUOUS
10
206.0038529999999923
20
-129.7265720000000044
11
206.0635149999999953
21
-129.7243689999999958
0
LINE
8
BLACK
6
CONTINUOUS
10
206.0635149999999953
20
-129.7243689999999958
11
206.1341209999999933
21
-129.7218459999999993
0
LINE
8
BLACK
6
CONTINUOUS
10
206.1341209999999933
20
-129.7218459999999993
11
206.2087399999999775
21
-129.7192540000000065
0
LINE
8
BLACK
6
CONTINUOUS
10
206.2087399999999775
20
-129.7192540000000065
11
206.2350479999999777
21
-129.7183579999999949
0
LINE
8
BLACK
6
CONTINUOUS
10
206.2350479999999777
20
-129.7183579999999949
11
206.3837589999999977
21
-129.7094579999999837
0
LINE
8
BLACK
6
CONTINUOUS
10
206.3837589999999977
20
-129.7094579999999837
11
206.5104289999999878
21
-129.6931500000000028
0
LINE
8
BLACK
6
CONTINUOUS
10
206.5104289999999878
20
-129.6931500000000028
11
206.6168999999999869
21
-129.6687599999999918
0
LINE
8
BLACK
6
CONTINUOUS
10
206.6168999999999869
20
-129.6687599999999918
11
206.7050179999999955
21
-129.6356109999999831
0
LINE
8
BLACK
6
CONTINUOUS
10
206.7050179999999955
20
-129.6356109999999831
11
206.7766279999999881
21
-129.5930280000000039
0
LINE
8
BLACK
6
CONTINUOUS
10
206.7766279999999881
20
-129.5930280000000039
11
206.8335739999999987
21
-129.5403340000000014
0
LINE
8
BLACK
6
CONTINUOUS
10
206.8335739999999987
20
-129.5403340000000014
11
206.8733829999999898
21
-129.4844449999999938
0
LINE
8
BLACK
6
CONTINUOUS
10
206.8733829999999898
20
-129.4844449999999938
11
206.9057909999999936
21
-129.4129560000000083
0
LINE
8
BLACK
6
CONTINUOUS
10
206.9057909999999936
20
-129.4129560000000083
11
206.9327699999999766
21
-129.32077799999999
0
LINE
8
BLACK
6
CONTINUOUS
10
206.9327699999999766
20
-129.32077799999999
11
206.9538119999999992
21
-129.211545000000001
0
LINE
8
BLACK
6
CONTINUOUS
10
206.9538119999999992
20
-129.211545000000001
11
206.9684089999999799
21
-129.088893999999982
0
LINE
8
BLACK
6
CONTINUOUS
10
206.9684089999999799
20
-129.088893999999982
11
206.976052999999979
21
-128.9564570000000003
0
LINE
8
BLACK
6
CONTINUOUS
10
206.976052999999979
20
-128.9564570000000003
11
206.9762350000000026
21
-128.8178709999999967
0
LINE
8
BLACK
6
CONTINUOUS
10
206.9762350000000026
20
-128.8178709999999967
11
206.9741970000000038
21
-128.7634219999999914
0
LINE
8
BLACK
6
CONTINUOUS
10
206.9741970000000038
20
-128.7634219999999914
11
206.9634479999999996
21
-128.6159150000000011
0
LINE
8
BLACK
6
CONTINUOUS
10
206.9634479999999996
20
-128.6159150000000011
11
206.9458039999999812
21
-128.4906009999999981
0
LINE
8
BLACK
6
CONTINUOUS
10
206.9458039999999812
20
-128.4906009999999981
11
206.9200270000000046
21
-128.3855079999999873
0
LINE
8
BLACK
6
CONTINUOUS
10
206.9200270000000046
20
-128.3855079999999873
11
206.8848769999999888
21
-128.2986640000000023
0
LINE
8
BLACK
6
CONTINUOUS
10
206.8848769999999888
20
-128.2986640000000023
11
206.8391149999999925
21
-128.2280999999999835
0
LINE
8
BLACK
6
CONTINUOUS
10
206.8391149999999925
20
-128.2280999999999835
11
206.7815009999999916
21
-128.1718419999999981
0
LINE
8
BLACK
6
CONTINUOUS
10
206.7815009999999916
20
-128.1718419999999981
11
206.7107959999999878
21
-128.1279209999999864
0
LINE
8
BLACK
6
CONTINUOUS
10
206.7107959999999878
20
-128.1279209999999864
11
206.6257619999999804
21
-128.0943639999999846
0
LINE
8
BLACK
6
CONTINUOUS
10
206.6257619999999804
20
-128.0943639999999846
11
206.5396409999999889
21
-128.0721680000000049
0
LINE
8
BLACK
6
CONTINUOUS
10
206.5396409999999889
20
-128.0721680000000049
11
206.4734069999999804
21
-128.0615259999999864
0
LINE
8
BLACK
6
CONTINUOUS
10
206.4734069999999804
20
-128.0615259999999864
11
206.386542999999989
21
-128.0526549999999872
0
LINE
8
BLACK
6
CONTINUOUS
10
206.386542999999989
20
-128.0526549999999872
11
206.283175
21
-128.0455749999999853
0
LINE
8
BLACK
6
CONTINUOUS
10
206.283175
20
-128.0455749999999853
11
206.1674270000000035
21
-128.0403090000000077
0
LINE
8
BLACK
6
CONTINUOUS
10
206.1674270000000035
20
-128.0403090000000077
11
206.0434239999999875
21
-128.036877000000004
0
LINE
8
BLACK
6
CONTINUOUS
10
206.0434239999999875
20
-128.036877000000004
11
205.9152929999999913
21
-128.035301000000004
0
LINE
8
BLACK
6
CONTINUOUS
10
205.9152929999999913
20
-128.035301000000004
11
205.7871579999999767
21
-128.0356009999999856
0
LINE
8
BLACK
6
CONTINUOUS
10
205.7871579999999767
20
-128.0356009999999856
11
205.6631439999999884
21
-128.0378000000000043
0
LINE
8
BLACK
6
CONTINUOUS
10
205.6631439999999884
20
-128.0378000000000043
11
205.5473769999999831
21
-128.0419169999999838
0
LINE
8
BLACK
6
CONTINUOUS
10
205.5473769999999831
20
-128.0419169999999838
11
205.4439809999999795
21
-128.0479760000000056
0
LINE
8
BLACK
6
CONTINUOUS
10
205.4439809999999795
20
-128.0479760000000056
11
205.3570819999999912
21
-128.0559949999999958
0
LINE
8
BLACK
6
CONTINUOUS
10
205.3570819999999912
20
-128.0559949999999958
11
205.2920100000000048
21
-128.0657569999999907
0
LINE
8
BLACK
6
CONTINUOUS
10
205.2920100000000048
20
-128.0657569999999907
11
205.1824309999999798
21
-128.0924179999999808
0
LINE
8
BLACK
6
CONTINUOUS
10
205.1824309999999798
20
-128.0924179999999808
11
205.0936179999999922
21
-128.1262889999999857
0
LINE
8
BLACK
6
CONTINUOUS
10
205.0936179999999922
20
-128.1262889999999857
11
205.0226129999999785
21
-128.1703129999999931
0
LINE
8
BLACK
6
CONTINUOUS
10
205.0226129999999785
20
-128.1703129999999931
11
204.9664579999999887
21
-128.2274319999999932
0
LINE
8
BLACK
6
CONTINUOUS
10
204.9664579999999887
20
-128.2274319999999932
11
204.9221959999999854
21
-128.3005880000000047
0
LINE
8
BLACK
6
CONTINUOUS
10
204.9221959999999854
20
-128.3005880000000047
11
204.8868689999999901
21
-128.3927229999999895
0
LINE
8
BLACK
6
CONTINUOUS
10
204.8868689999999901
20
-128.3927229999999895
11
204.8600019999999802
21
-128.4954950000000053
0
LINE
8
BLACK
6
CONTINUOUS
10
204.8600019999999802
20
-128.4954950000000053
11
204.85123999999999
21
-128.5509399999999971
0
LINE
8
BLACK
6
CONTINUOUS
10
204.85123999999999
20
-128.5509399999999971
11
204.8445999999999856
21
-128.6258249999999919
0
LINE
8
BLACK
6
CONTINUOUS
10
204.8445999999999856
20
-128.6258249999999919
11
204.8400680000000023
21
-128.7150299999999845
0
LINE
8
BLACK
6
CONTINUOUS
10
204.8400680000000023
20
-128.7150299999999845
11
204.8376289999999926
21
-128.8134389999999883
0
LINE
8
BLACK
6
CONTINUOUS
10
204.8376289999999926
20
-128.8134389999999883
11
204.8372679999999946
21
-128.915930000000003
0
LINE
8
BLACK
6
CONTINUOUS
10
204.8372679999999946
20
-128.915930000000003
11
204.8389719999999841
21
-129.0173869999999852
0
LINE
8
BLACK
6
CONTINUOUS
10
215.4897949999999867
20
-127.783063999999996
11
215.6025839999999789
21
-127.7838239999999956
0
LINE
8
BLACK
6
CONTINUOUS
10
215.6025839999999789
20
-127.7838239999999956
11
215.6966189999999983
21
-127.7851479999999924
0
LINE
8
BLACK
6
CONTINUOUS
10
215.6966189999999983
20
-127.7851479999999924
11
215.7749340000000018
21
-127.7871389999999963
0
LINE
8
BLACK
6
CONTINUOUS
10
215.7749340000000018
20
-127.7871389999999963
11
215.8405589999999847
21
-127.7898989999999912
0
LINE
8
BLACK
6
CONTINUOUS
10
215.8405589999999847
20
-127.7898989999999912
11
215.8965249999999969
21
-127.793531999999999
0
LINE
8
BLACK
6
CONTINUOUS
10
215.8965249999999969
20
-127.793531999999999
11
215.9458619999999769
21
-127.7981379999999945
0
LINE
8
BLACK
6
CONTINUOUS
10
215.9458619999999769
20
-127.7981379999999945
11
215.9916029999999978
21
-127.8038209999999992
0
LINE
8
BLACK
6
CONTINUOUS
10
215.9916029999999978
20
-127.8038209999999992
11
215.9956479999999885
21
-127.8043890000000005
0
LINE
8
BLACK
6
CONTINUOUS
10
215.9956479999999885
20
-127.8043890000000005
11
216.1460149999999771
21
-127.8303219999999953
0
LINE
8
BLACK
6
CONTINUOUS
10
216.1460149999999771
20
-127.8303219999999953
11
216.2748119999999972
21
-127.8629159999999985
0
LINE
8
BLACK
6
CONTINUOUS
10
216.2748119999999972
20
-127.8629159999999985
11
216.3846389999999928
21
-127.9032089999999897
0
LINE
8
BLACK
6
CONTINUOUS
10
216.3846389999999928
20
-127.9032089999999897
11
216.4780979999999886
21
-127.9522369999999967
0
LINE
8
BLACK
6
CONTINUOUS
10
216.4780979999999886
20
-127.9522369999999967
11
216.5577899999999829
21
-128.0110369999999875
0
LINE
8
BLACK
6
CONTINUOUS
10
216.5577899999999829
20
-128.0110369999999875
11
216.5903299999999945
21
-128.0414389999999969
0
LINE
8
BLACK
6
CONTINUOUS
10
216.5903299999999945
20
-128.0414389999999969
11
216.6435299999999984
21
-128.1016989999999964
0
LINE
8
BLACK
6
CONTINUOUS
10
216.6435299999999984
20
-128.1016989999999964
11
216.6862600000000043
21
-128.1668379999999843
0
LINE
8
BLACK
6
CONTINUOUS
10
216.6862600000000043
20
-128.1668379999999843
11
216.7199019999999905
21
-128.2406909999999982
0
LINE
8
BLACK
6
CONTINUOUS
10
216.7199019999999905
20
-128.2406909999999982
11
216.7458419999999819
21
-128.3270919999999933
0
LINE
8
BLACK
6
CONTINUOUS
10
216.7458419999999819
20
-128.3270919999999933
11
216.7654639999999802
21
-128.4298749999999814
0
LINE
8
BLACK
6
CONTINUOUS
10
216.7654639999999802
20
-128.4298749999999814
11
216.7801529999999843
21
-128.5528730000000053
0
LINE
8
BLACK
6
CONTINUOUS
10
216.7801529999999843
20
-128.5528730000000053
11
216.7819020000000023
21
-128.5720149999999933
0
LINE
8
BLACK
6
CONTINUOUS
10
216.7819020000000023
20
-128.5720149999999933
11
216.7919949999999858
21
-128.7309190000000001
0
LINE
8
BLACK
6
CONTINUOUS
10
216.7919949999999858
20
-128.7309190000000001
11
216.7947849999999903
21
-128.8916789999999821
0
LINE
8
BLACK
6
CONTINUOUS
10
216.7947849999999903
20
-128.8916789999999821
11
216.7905309999999872
21
-129.0490819999999985
0
LINE
8
BLACK
6
CONTINUOUS
10
216.7905309999999872
20
-129.0490819999999985
11
216.7794899999999814
21
-129.1979120000000023
0
LINE
8
BLACK
6
CONTINUOUS
10
216.7794899999999814
20
-129.1979120000000023
11
216.7619179999999801
21
-129.3329549999999983
0
LINE
8
BLACK
6
CONTINUOUS
10
216.7619179999999801
20
-129.3329549999999983
11
216.7388049999999851
21
-129.4461259999999925
0
LINE
8
BLACK
6
CONTINUOUS
10
216.7388049999999851
20
-129.4461259999999925
11
216.7039139999999975
21
-129.5594580000000065
0
LINE
8
BLACK
6
CONTINUOUS
10
216.7039139999999975
20
-129.5594580000000065
11
216.6604409999999916
21
-129.6526690000000031
0
LINE
8
BLACK
6
CONTINUOUS
10
216.6604409999999916
20
-129.6526690000000031
11
216.6053269999999884
21
-129.7298339999999826
0
LINE
8
BLACK
6
CONTINUOUS
10
216.6053269999999884
20
-129.7298339999999826
11
216.5355089999999905
21
-129.7950280000000021
0
LINE
8
BLACK
6
CONTINUOUS
10
216.5355089999999905
20
-129.7950280000000021
11
216.4479279999999903
21
-129.852326000000005
0
LINE
8
BLACK
6
CONTINUOUS
10
216.4479279999999903
20
-129.852326000000005
11
216.4238579999999956
21
-129.8653909999999883
0
LINE
8
BLACK
6
CONTINUOUS
10
216.4238579999999956
20
-129.8653909999999883
11
216.3655809999999917
21
-129.893383
0
LINE
8
BLACK
6
CONTINUOUS
10
216.3655809999999917
20
-129.893383
11
216.3035799999999824
21
-129.9174799999999834
0
LINE
8
BLACK
6
CONTINUOUS
10
216.3035799999999824
20
-129.9174799999999834
11
216.2356409999999869
21
-129.9379569999999831
0
LINE
8
BLACK
6
CONTINUOUS
10
216.2356409999999869
20
-129.9379569999999831
11
216.1595459999999775
21
-129.9550899999999842
0
LINE
8
BLACK
6
CONTINUOUS
10
216.1595459999999775
20
-129.9550899999999842
11
216.0730829999999969
21
-129.9691550000000007
0
LINE
8
BLACK
6
CONTINUOUS
10
216.0730829999999969
20
-129.9691550000000007
11
215.974033999999989
21
-129.9804289999999867
0
LINE
8
BLACK
6
CONTINUOUS
10
215.974033999999989
20
-129.9804289999999867
11
215.8601850000000013
21
-129.9891869999999869
0
LINE
8
BLACK
6
CONTINUOUS
10
215.8601850000000013
20
-129.9891869999999869
11
215.7293209999999988
21
-129.9957059999999842
0
LINE
8
BLACK
6
CONTINUOUS
10
215.7293209999999988
20
-129.9957059999999842
11
215.579227000000003
21
-130.0002619999999922
0
LINE
8
BLACK
6
CONTINUOUS
10
215.579227000000003
20
-130.0002619999999922
11
215.4076869999999815
21
-130.0031309999999962
0
LINE
8
BLACK
6
CONTINUOUS
10
215.4076869999999815
20
-130.0031309999999962
11
215.3117949999999894
21
-130.0040300000000002
0
LINE
8
BLACK
6
CONTINUOUS
10
215.3117949999999894
20
-130.0040300000000002
11
215.1967159999999808
21
-130.0045829999999967
0
LINE
8
BLACK
6
CONTINUOUS
10
215.1967159999999808
20
-130.0045829999999967
11
215.0851179999999943
21
-130.0045639999999878
0
LINE
8
BLACK
6
CONTINUOUS
10
215.0851179999999943
20
-130.0045639999999878
11
214.9804110000000037
21
-130.0040139999999838
0
LINE
8
BLACK
6
CONTINUOUS
10
214.9804110000000037
20
-130.0040139999999838
11
214.8860049999999831
21
-130.0029739999999947
0
LINE
8
BLACK
6
CONTINUOUS
10
214.8860049999999831
20
-130.0029739999999947
11
214.8053089999999941
21
-130.0014830000000075
0
LINE
8
BLACK
6
CONTINUOUS
10
214.8053089999999941
20
-130.0014830000000075
11
214.7417339999999797
21
-129.9995830000000012
0
LINE
8
BLACK
6
CONTINUOUS
10
214.7417339999999797
20
-129.9995830000000012
11
214.6986899999999991
21
-129.9973129999999912
0
LINE
8
BLACK
6
CONTINUOUS
10
214.6986899999999991
20
-129.9973129999999912
11
214.6913749999999936
21
-129.9966770000000054
0
LINE
8
BLACK
6
CONTINUOUS
10
214.6913749999999936
20
-129.9966770000000054
11
214.6271519999999953
21
-129.988915999999989
0
LINE
8
BLACK
6
CONTINUOUS
10
214.6271519999999953
20
-129.988915999999989
11
214.5515690000000006
21
-129.9777259999999899
0
LINE
8
BLACK
6
CONTINUOUS
10
214.5515690000000006
20
-129.9777259999999899
11
214.4774909999999863
21
-129.9650680000000023
0
LINE
8
BLACK
6
CONTINUOUS
10
214.4774909999999863
20
-129.9650680000000023
11
214.4513929999999959
21
-129.9600800000000049
0
LINE
8
BLACK
6
CONTINUOUS
10
214.4513929999999959
20
-129.9600800000000049
11
214.3121539999999925
21
-129.9254029999999887
0
LINE
8
BLACK
6
CONTINUOUS
10
214.3121539999999925
20
-129.9254029999999887
11
214.1942129999999906
21
-129.8800319999999999
0
LINE
8
BLACK
6
CONTINUOUS
10
214.1942129999999906
20
-129.8800319999999999
11
214.0957209999999975
21
-129.8222219999999822
0
LINE
8
BLACK
6
CONTINUOUS
10
214.0957209999999975
20
-129.8222219999999822
11
214.0148299999999892
21
-129.7502299999999877
0
LINE
8
BLACK
6
CONTINUOUS
10
214.0148299999999892
20
-129.7502299999999877
11
213.9496900000000039
21
-129.6623129999999833
0
LINE
8
BLACK
6
CONTINUOUS
10
213.9496900000000039
20
-129.6623129999999833
11
213.8984549999999842
21
-129.5567279999999926
0
LINE
8
BLACK
6
CONTINUOUS
10
213.8984549999999842
20
-129.5567279999999926
11
213.8592739999999992
21
-129.4317299999999875
0
LINE
8
BLACK
6
CONTINUOUS
10
213.8592739999999992
20
-129.4317299999999875
11
213.850231999999977
21
-129.3931029999999964
0
LINE
8
BLACK
6
CONTINUOUS
10
213.850231999999977
20
-129.3931029999999964
11
213.8425199999999791
21
-129.3559249999999849
0
LINE
8
BLACK
6
CONTINUOUS
10
213.8425199999999791
20
-129.3559249999999849
11
213.8364399999999819
21
-129.3203330000000051
0
LINE
8
BLACK
6
CONTINUOUS
10
213.8364399999999819
20
-129.3203330000000051
11
213.8318009999999845
21
-129.2827619999999911
0
LINE
8
BLACK
6
CONTINUOUS
10
213.8318009999999845
20
-129.2827619999999911
11
213.8284129999999834
21
-129.2396469999999908
0
LINE
8
BLACK
6
CONTINUOUS
10
213.8284129999999834
20
-129.2396469999999908
11
213.8260849999999778
21
-129.1874229999999955
0
LINE
8
BLACK
6
CONTINUOUS
10
213.8260849999999778
20
-129.1874229999999955
11
213.8246279999999899
21
-129.1225259999999935
0
LINE
8
BLACK
6
CONTINUOUS
10
213.8246279999999899
20
-129.1225259999999935
11
213.8238499999999931
21
-129.0413900000000069
0
LINE
8
BLACK
6
CONTINUOUS
10
213.8238499999999931
20
-129.0413900000000069
11
213.8235629999999787
21
-128.9404509999999959
0
LINE
8
BLACK
6
CONTINUOUS
10
213.8235629999999787
20
-128.9404509999999959
11
213.8235449999999958
21
-128.8991890000000069
0
LINE
8
BLACK
6
CONTINUOUS
10
213.8235449999999958
20
-128.8991890000000069
11
213.8235420000000033
21
-128.8929849999999817
0
LINE
8
BLACK
6
CONTINUOUS
10
213.8235420000000033
20
-128.8929849999999817
11
213.823679999999996
21
-128.7831939999999804
0
LINE
8
BLACK
6
CONTINUOUS
10
213.823679999999996
20
-128.7831939999999804
11
213.8242219999999918
21
-128.6946389999999951
0
LINE
8
BLACK
6
CONTINUOUS
10
213.8242219999999918
20
-128.6946389999999951
11
213.8253609999999867
21
-128.6237370000000055
0
LINE
8
BLACK
6
CONTINUOUS
10
213.8253609999999867
20
-128.6237370000000055
11
213.8272919999999999
21
-128.5669100000000071
0
LINE
8
BLACK
6
CONTINUOUS
10
213.8272919999999999
20
-128.5669100000000071
11
213.8302079999999989
21
-128.520575000000008
0
LINE
8
BLACK
6
CONTINUOUS
10
213.8302079999999989
20
-128.520575000000008
11
213.834304000000003
21
-128.4811519999999803
0
LINE
8
BLACK
6
CONTINUOUS
10
213.834304000000003
20
-128.4811519999999803
11
213.8397709999999847
21
-128.4450599999999838
0
LINE
8
BLACK
6
CONTINUOUS
10
213.8397709999999847
20
-128.4450599999999838
11
213.8468049999999891
21
-128.4087179999999933
0
LINE
8
BLACK
6
CONTINUOUS
10
213.8468049999999891
20
-128.4087179999999933
11
213.8507249999999829
21
-128.3904550000000029
0
LINE
8
BLACK
6
CONTINUOUS
10
213.8507249999999829
20
-128.3904550000000029
11
213.8863739999999893
21
-128.2634239999999863
0
LINE
8
BLACK
6
CONTINUOUS
10
213.8863739999999893
20
-128.2634239999999863
11
213.9340729999999837
21
-128.156534999999991
0
LINE
8
BLACK
6
CONTINUOUS
10
213.9340729999999837
20
-128.156534999999991
11
213.9955980000000011
21
-128.0673439999999914
0
LINE
8
BLACK
6
CONTINUOUS
10
213.9955980000000011
20
-128.0673439999999914
11
214.0727219999999988
21
-127.9934030000000007
0
LINE
8
BLACK
6
CONTINUOUS
10
214.0727219999999988
20
-127.9934030000000007
11
214.1672209999999836
21
-127.932265000000001
0
LINE
8
BLACK
6
CONTINUOUS
10
214.1672209999999836
20
-127.932265000000001
11
214.192498999999998
21
-127.9193159999999949
0
LINE
8
BLACK
6
CONTINUOUS
10
214.192498999999998
20
-127.9193159999999949
11
214.259381999999988
21
-127.8897240000000011
0
LINE
8
BLACK
6
CONTINUOUS
10
214.259381999999988
20
-127.8897240000000011
11
214.3318319999999915
21
-127.8643459999999976
0
LINE
8
BLACK
6
CONTINUOUS
10
214.3318319999999915
20
-127.8643459999999976
11
214.4119959999999878
21
-127.8429299999999955
0
LINE
8
BLACK
6
CONTINUOUS
10
214.4119959999999878
20
-127.8429299999999955
11
214.502020999999985
21
-127.8252239999999915
0
LINE
8
BLACK
6
CONTINUOUS
10
214.502020999999985
20
-127.8252239999999915
11
214.6040529999999933
21
-127.8109759999999966
0
LINE
8
BLACK
6
CONTINUOUS
10
214.6040529999999933
20
-127.8109759999999966
11
214.7202389999999923
21
-127.7999339999999933
0
LINE
8
BLACK
6
CONTINUOUS
10
214.7202389999999923
20
-127.7999339999999933
11
214.8527259999999899
21
-127.791844999999995
0
LINE
8
BLACK
6
CONTINUOUS
10
214.8527259999999899
20
-127.791844999999995
11
215.0036599999999964
21
-127.7864589999999936
0
LINE
8
BLACK
6
CONTINUOUS
10
215.0036599999999964
20
-127.7864589999999936
11
215.1751889999999889
21
-127.7835219999999907
0
LINE
8
BLACK
6
CONTINUOUS
10
215.1751889999999889
20
-127.7835219999999907
11
215.3552239999999927
21
-127.7827669999999927
0
LINE
8
BLACK
6
CONTINUOUS
10
215.3552239999999927
20
-127.7827669999999927
11
215.4897949999999867
21
-127.783063999999996
0
LINE
8
BLACK
6
CONTINUOUS
10
214.441158999999999
20
-129.0395849999999882
11
214.4531589999999994
21
-129.1580359999999814
0
LINE
8
BLACK
6
CONTINUOUS
10
214.4531589999999994
20
-129.1580359999999814
11
214.4750039999999842
21
-129.2564569999999833
0
LINE
8
BLACK
6
CONTINUOUS
10
214.4750039999999842
20
-129.2564569999999833
11
214.5082050000000038
21
-129.3367639999999881
0
LINE
8
BLACK
6
CONTINUOUS
10
214.5082050000000038
20
-129.3367639999999881
11
214.5542700000000025
21
-129.4008709999999951
0
LINE
8
BLACK
6
CONTINUOUS
10
214.5542700000000025
20
-129.4008709999999951
11
214.6147100000000023
21
-129.4506930000000011
0
LINE
8
BLACK
6
CONTINUOUS
10
214.6147100000000023
20
-129.4506930000000011
11
214.6910340000000019
21
-129.4881450000000029
0
LINE
8
BLACK
6
CONTINUOUS
10
214.6910340000000019
20
-129.4881450000000029
11
214.7847519999999975
21
-129.5151419999999973
0
LINE
8
BLACK
6
CONTINUOUS
10
214.7847519999999975
20
-129.5151419999999973
11
214.8973729999999875
21
-129.533600000000007
0
LINE
8
BLACK
6
CONTINUOUS
10
214.8973729999999875
20
-129.533600000000007
11
214.9414199999999937
21
-129.5383850000000052
0
LINE
8
BLACK
6
CONTINUOUS
10
214.9414199999999937
20
-129.5383850000000052
11
214.9917829999999981
21
-129.5416040000000066
0
LINE
8
BLACK
6
CONTINUOUS
10
214.9917829999999981
20
-129.5416040000000066
11
215.0612909999999829
21
-129.5436750000000075
0
LINE
8
BLACK
6
CONTINUOUS
10
215.0612909999999829
20
-129.5436750000000075
11
215.1452539999999942
21
-129.544668999999999
0
LINE
8
BLACK
6
CONTINUOUS
10
215.1452539999999942
20
-129.544668999999999
11
215.2389859999999828
21
-129.5446609999999907
0
LINE
8
BLACK
6
CONTINUOUS
10
215.2389859999999828
20
-129.5446609999999907
11
215.3377969999999948
21
-129.543721000000005
0
LINE
8
BLACK
6
CONTINUOUS
10
215.3377969999999948
20
-129.543721000000005
11
215.4369989999999859
21
-129.541922999999997
0
LINE
8
BLACK
6
CONTINUOUS
10
215.4369989999999859
20
-129.541922999999997
11
215.5319039999999973
21
-129.539338999999984
0
LINE
8
BLACK
6
CONTINUOUS
10
215.5319039999999973
20
-129.539338999999984
11
215.6178239999999846
21
-129.5360409999999831
0
LINE
8
BLACK
6
CONTINUOUS
10
215.6178239999999846
20
-129.5360409999999831
11
215.6900699999999915
21
-129.5321019999999805
0
LINE
8
BLACK
6
CONTINUOUS
10
215.6900699999999915
20
-129.5321019999999805
11
215.7439529999999763
21
-129.527592999999996
0
LINE
8
BLACK
6
CONTINUOUS
10
215.7439529999999763
20
-129.527592999999996
11
215.7584969999999771
21
-129.5257670000000019
0
LINE
8
BLACK
6
CONTINUOUS
10
215.7584969999999771
20
-129.5257670000000019
11
215.8683559999999773
21
-129.5038239999999803
0
LINE
8
BLACK
6
CONTINUOUS
10
215.8683559999999773
20
-129.5038239999999803
11
215.9571369999999888
21
-129.4718000000000018
0
LINE
8
BLACK
6
CONTINUOUS
10
215.9571369999999888
20
-129.4718000000000018
11
216.0272259999999847
21
-129.4276940000000025
0
LINE
8
BLACK
6
CONTINUOUS
10
216.0272259999999847
20
-129.4276940000000025
11
216.0810079999999971
21
-129.3695040000000063
0
LINE
8
BLACK
6
CONTINUOUS
10
216.0810079999999971
20
-129.3695040000000063
11
216.1208719999999914
21
-129.2952290000000062
0
LINE
8
BLACK
6
CONTINUOUS
10
216.1208719999999914
20
-129.2952290000000062
11
216.1492020000000025
21
-129.2028689999999926
0
LINE
8
BLACK
6
CONTINUOUS
10
216.1492020000000025
20
-129.2028689999999926
11
216.1505249999999876
21
-129.196990999999997
0
LINE
8
BLACK
6
CONTINUOUS
10
216.1505249999999876
20
-129.196990999999997
11
216.1575039999999888
21
-129.149817999999982
0
LINE
8
BLACK
6
CONTINUOUS
10
216.1575039999999888
20
-129.149817999999982
11
216.162604999999985
21
-129.0837599999999838
0
LINE
8
BLACK
6
CONTINUOUS
10
216.162604999999985
20
-129.0837599999999838
11
216.1658199999999965
21
-129.0046800000000076
0
LINE
8
BLACK
6
CONTINUOUS
10
216.1658199999999965
20
-129.0046800000000076
11
216.1671439999999791
21
-128.9184410000000014
0
LINE
8
BLACK
6
CONTINUOUS
10
216.1671439999999791
20
-128.9184410000000014
11
216.1665709999999763
21
-128.8309030000000064
0
LINE
8
BLACK
6
CONTINUOUS
10
216.1665709999999763
20
-128.8309030000000064
11
216.1640929999999798
21
-128.7479280000000017
0
LINE
8
BLACK
6
CONTINUOUS
10
216.1640929999999798
20
-128.7479280000000017
11
216.1597059999999999
21
-128.6753799999999899
0
LINE
8
BLACK
6
CONTINUOUS
10
216.1597059999999999
20
-128.6753799999999899
11
216.1534010000000023
21
-128.6191189999999835
0
LINE
8
BLACK
6
CONTINUOUS
10
216.1534010000000023
20
-128.6191189999999835
11
216.1511679999999842
21
-128.6064599999999984
0
LINE
8
BLACK
6
CONTINUOUS
10
216.1511679999999842
20
-128.6064599999999984
11
216.1229149999999777
21
-128.505344000000008
0
LINE
8
BLACK
6
CONTINUOUS
10
216.1229149999999777
20
-128.505344000000008
11
216.0817299999999932
21
-128.4243889999999908
0
LINE
8
BLACK
6
CONTINUOUS
10
216.0817299999999932
20
-128.4243889999999908
11
216.0262019999999836
21
-128.3617779999999868
0
LINE
8
BLACK
6
CONTINUOUS
10
216.0262019999999836
20
-128.3617779999999868
11
215.9549229999999795
21
-128.3156940000000077
0
LINE
8
BLACK
6
CONTINUOUS
10
215.9549229999999795
20
-128.3156940000000077
11
215.9118959999999845
21
-128.297914999999989
0
LINE
8
BLACK
6
CONTINUOUS
10
215.9118959999999845
20
-128.297914999999989
11
215.8621629999999811
21
-128.2820219999999836
0
LINE
8
BLACK
6
CONTINUOUS
10
215.8621629999999811
20
-128.2820219999999836
11
215.8110810000000015
21
-128.2694469999999853
0
LINE
8
BLACK
6
CONTINUOUS
10
215.8110810000000015
20
-128.2694469999999853
11
215.7550229999999942
21
-128.2598429999999894
0
LINE
8
BLACK
6
CONTINUOUS
10
215.7550229999999942
20
-128.2598429999999894
11
215.6903590000000008
21
-128.2528629999999907
0
LINE
8
BLACK
6
CONTINUOUS
10
215.6903590000000008
20
-128.2528629999999907
11
215.6134629999999959
21
-128.2481609999999819
0
LINE
8
BLACK
6
CONTINUOUS
10
215.6134629999999959
20
-128.2481609999999819
11
215.5207059999999899
21
-128.2453879999999913
0
LINE
8
BLACK
6
CONTINUOUS
10
215.5207059999999899
20
-128.2453879999999913
11
215.4084589999999935
21
-128.2442000000000064
0
LINE
8
BLACK
6
CONTINUOUS
10
215.4084589999999935
20
-128.2442000000000064
11
215.3490199999999959
21
-128.2440890000000024
0
LINE
8
BLACK
6
CONTINUOUS
10
215.3490199999999959
20
-128.2440890000000024
11
215.1931149999999775
21
-128.2453830000000039
0
LINE
8
BLACK
6
CONTINUOUS
10
215.1931149999999775
20
-128.2453830000000039
11
215.0596709999999803
21
-128.2494779999999821
0
LINE
8
BLACK
6
CONTINUOUS
10
215.0596709999999803
20
-128.2494779999999821
11
214.9464449999999829
21
-128.2567709999999863
0
LINE
8
BLACK
6
CONTINUOUS
10
214.9464449999999829
20
-128.2567709999999863
11
214.8511989999999798
21
-128.2676610000000039
0
LINE
8
BLACK
6
CONTINUOUS
10
214.8511989999999798
20
-128.2676610000000039
11
214.7716910000000041
21
-128.2825469999999939
0
LINE
8
BLACK
6
CONTINUOUS
10
214.7716910000000041
20
-128.2825469999999939
11
214.7056819999999959
21
-128.301827000000003
0
LINE
8
BLACK
6
CONTINUOUS
10
214.7056819999999959
20
-128.301827000000003
11
214.6509309999999857
21
-128.3258989999999926
0
LINE
8
BLACK
6
CONTINUOUS
10
214.6509309999999857
20
-128.3258989999999926
11
214.605197000000004
21
-128.3551630000000046
0
LINE
8
BLACK
6
CONTINUOUS
10
214.605197000000004
20
-128.3551630000000046
11
214.5742999999999938
21
-128.381890999999996
0
LINE
8
BLACK
6
CONTINUOUS
10
214.5742999999999938
20
-128.381890999999996
11
214.5288159999999777
21
-128.4357129999999927
0
LINE
8
BLACK
6
CONTINUOUS
10
214.5288159999999777
20
-128.4357129999999927
11
214.4933889999999792
21
-128.4999139999999898
0
LINE
8
BLACK
6
CONTINUOUS
10
214.4933889999999792
20
-128.4999139999999898
11
214.4672829999999806
21
-128.5772739999999885
0
LINE
8
BLACK
6
CONTINUOUS
10
214.4672829999999806
20
-128.5772739999999885
11
214.4497629999999901
21
-128.6705769999999802
0
LINE
8
BLACK
6
CONTINUOUS
10
214.4497629999999901
20
-128.6705769999999802
11
214.4400939999999878
21
-128.7826029999999946
0
LINE
8
BLACK
6
CONTINUOUS
10
214.4400939999999878
20
-128.7826029999999946
11
214.4374939999999867
21
-128.8991890000000069
0
LINE
8
BLACK
6
CONTINUOUS
10
214.4374939999999867
20
-128.8991890000000069
11
214.441158999999999
21
-129.0395849999999882
0
LINE
8
BLACK
6
CONTINUOUS
10
210.2775000000000034
20
-126.8711079999999924
11
210.4503959999999836
21
-126.8725029999999947
0
LINE
8
BLACK
6
CONTINUOUS
10
210.4503959999999836
20
-126.8725029999999947
11
210.6021909999999764
21
-126.8749069999999932
0
LINE
8
BLACK
6
CONTINUOUS
10
210.6021909999999764
20
-126.8749069999999932
11
210.7347369999999955
21
-126.8783859999999919
0
LINE
8
BLACK
6
CONTINUOUS
10
210.7347369999999955
20
-126.8783859999999919
11
210.8498850000000004
21
-126.8830059999999946
0
LINE
8
BLACK
6
CONTINUOUS
10
210.8498850000000004
20
-126.8830059999999946
11
210.9494829999999865
21
-126.8888329999999911
0
LINE
8
BLACK
6
CONTINUOUS
10
210.9494829999999865
20
-126.8888329999999911
11
211.0353839999999934
21
-126.8959329999999994
0
LINE
8
BLACK
6
CONTINUOUS
10
211.0353839999999934
20
-126.8959329999999994
11
211.109437999999983
21
-126.9043700000000001
0
LINE
8
BLACK
6
CONTINUOUS
10
211.109437999999983
20
-126.9043700000000001
11
211.1363669999999786
21
-126.9081669999999917
0
LINE
8
BLACK
6
CONTINUOUS
10
211.1363669999999786
20
-126.9081669999999917
11
211.2917619999999772
21
-126.9381699999999995
0
LINE
8
BLACK
6
CONTINUOUS
10
211.2917619999999772
20
-126.9381699999999995
11
211.4263259999999889
21
-126.9793489999999991
0
LINE
8
BLACK
6
CONTINUOUS
10
211.4263259999999889
20
-126.9793489999999991
11
211.5412289999999871
21
-127.0330239999999975
0
LINE
8
BLACK
6
CONTINUOUS
10
211.5412289999999871
20
-127.0330239999999975
11
211.6376429999999971
21
-127.1005149999999873
0
LINE
8
BLACK
6
CONTINUOUS
10
211.6376429999999971
20
-127.1005149999999873
11
211.7167369999999949
21
-127.183140999999992
0
LINE
8
BLACK
6
CONTINUOUS
10
211.7167369999999949
20
-127.183140999999992
11
211.7796829999999773
21
-127.2822229999999877
0
LINE
8
BLACK
6
CONTINUOUS
10
211.7796829999999773
20
-127.2822229999999877
11
211.8276489999999797
21
-127.3990790000000004
0
LINE
8
BLACK
6
CONTINUOUS
10
211.8276489999999797
20
-127.3990790000000004
11
211.8618079999999964
21
-127.5350309999999894
0
LINE
8
BLACK
6
CONTINUOUS
10
211.8618079999999964
20
-127.5350309999999894
11
211.8833279999999775
21
-127.6913959999999975
0
LINE
8
BLACK
6
CONTINUOUS
10
211.8833279999999775
20
-127.6913959999999975
11
211.8884180000000015
21
-127.7561739999999872
0
LINE
8
BLACK
6
CONTINUOUS
10
211.8884180000000015
20
-127.7561739999999872
11
211.8969349999999849
21
-127.8879049999999893
0
LINE
8
BLACK
6
CONTINUOUS
10
211.8969349999999849
20
-127.8879049999999893
11
211.5430999999999813
21
-127.8879049999999893
0
LINE
8
BLACK
6
CONTINUOUS
10
211.5430999999999813
20
-127.8879049999999893
11
211.1892649999999776
21
-127.8879049999999893
0
LINE
8
BLACK
6
CONTINUOUS
10
211.1892649999999776
20
-127.8879049999999893
11
211.1833759999999813
21
-127.7961509999999947
0
LINE
8
BLACK
6
CONTINUOUS
10
211.1833759999999813
20
-127.7961509999999947
11
211.1672549999999831
21
-127.6996520000000004
0
LINE
8
BLACK
6
CONTINUOUS
10
211.1672549999999831
20
-127.6996520000000004
11
211.1323749999999961
21
-127.6193329999999975
0
LINE
8
BLACK
6
CONTINUOUS
10
211.1323749999999961
20
-127.6193329999999975
11
211.078834999999998
21
-127.5553239999999988
0
LINE
8
BLACK
6
CONTINUOUS
10
211.078834999999998
20
-127.5553239999999988
11
211.0067349999999919
21
-127.5077549999999889
0
LINE
8
BLACK
6
CONTINUOUS
10
211.0067349999999919
20
-127.5077549999999889
11
210.9466079999999977
21
-127.4847019999999986
0
LINE
8
BLACK
6
CONTINUOUS
10
210.9466079999999977
20
-127.4847019999999986
11
210.9126119999999958
21
-127.4754369999999994
0
LINE
8
BLACK
6
CONTINUOUS
10
210.9126119999999958
20
-127.4754369999999994
11
210.8763529999999946
21
-127.4675069999999977
0
LINE
8
BLACK
6
CONTINUOUS
10
210.8763529999999946
20
-127.4675069999999977
11
210.8358130000000017
21
-127.4608360000000005
0
LINE
8
BLACK
6
CONTINUOUS
10
210.8358130000000017
20
-127.4608360000000005
11
210.7889739999999961
21
-127.4553449999999941
0
LINE
8
BLACK
6
CONTINUOUS
10
210.7889739999999961
20
-127.4553449999999941
11
210.7338199999999802
21
-127.4509559999999908
0
LINE
8
BLACK
6
CONTINUOUS
10
210.7338199999999802
20
-127.4509559999999908
11
210.6683319999999924
21
-127.4475920000000002
0
LINE
8
BLACK
6
CONTINUOUS
10
210.6683319999999924
20
-127.4475920000000002
11
210.5904929999999808
21
-127.4451749999999919
0
LINE
8
BLACK
6
CONTINUOUS
10
210.5904929999999808
20
-127.4451749999999919
11
210.4982869999999764
21
-127.4436269999999922
0
LINE
8
BLACK
6
CONTINUOUS
10
210.4982869999999764
20
-127.4436269999999922
11
210.3896939999999915
21
-127.4428689999999875
0
LINE
8
BLACK
6
CONTINUOUS
10
210.3896939999999915
20
-127.4428689999999875
11
210.2626980000000003
21
-127.4428249999999991
0
LINE
8
BLACK
6
CONTINUOUS
10
210.2626980000000003
20
-127.4428249999999991
11
210.1152819999999792
21
-127.4434169999999966
0
LINE
8
BLACK
6
CONTINUOUS
10
210.1152819999999792
20
-127.4434169999999966
11
209.9454269999999951
21
-127.4445659999999947
0
LINE
8
BLACK
6
CONTINUOUS
10
209.9454269999999951
20
-127.4445659999999947
11
209.9129069999999899
21
-127.4448209999999904
0
LINE
8
BLACK
6
CONTINUOUS
10
209.9129069999999899
20
-127.4448209999999904
11
209.7519949999999938
21
-127.4461989999999929
0
LINE
8
BLACK
6
CONTINUOUS
10
209.7519949999999938
20
-127.4461989999999929
11
209.6138650000000041
21
-127.4476119999999923
0
LINE
8
BLACK
6
CONTINUOUS
10
209.6138650000000041
20
-127.4476119999999923
11
209.4964819999999861
21
-127.4491230000000002
0
LINE
8
BLACK
6
CONTINUOUS
10
209.4964819999999861
20
-127.4491230000000002
11
209.3978099999999927
21
-127.4507959999999969
0
LINE
8
BLACK
6
CONTINUOUS
10
209.3978099999999927
20
-127.4507959999999969
11
209.3158159999999839
21
-127.452691999999999
0
LINE
8
BLACK
6
CONTINUOUS
10
209.3158159999999839
20
-127.452691999999999
11
209.2484639999999843
21
-127.4548739999999896
0
LINE
8
BLACK
6
CONTINUOUS
10
209.2484639999999843
20
-127.4548739999999896
11
209.1937189999999873
21
-127.4574059999999918
0
LINE
8
BLACK
6
CONTINUOUS
10
209.1937189999999873
20
-127.4574059999999918
11
209.1495469999999841
21
-127.4603489999999937
0
LINE
8
BLACK
6
CONTINUOUS
10
209.1495469999999841
20
-127.4603489999999937
11
209.1139119999999991
21
-127.4637659999999926
0
LINE
8
BLACK
6
CONTINUOUS
10
209.1139119999999991
20
-127.4637659999999926
11
209.0847789999999975
21
-127.4677209999999974
0
LINE
8
BLACK
6
CONTINUOUS
10
209.0847789999999975
20
-127.4677209999999974
11
209.0669340000000034
21
-127.470887999999988
0
LINE
8
BLACK
6
CONTINUOUS
10
209.0669340000000034
20
-127.470887999999988
11
208.9662069999999972
21
-127.4964489999999984
0
LINE
8
BLACK
6
CONTINUOUS
10
208.9662069999999972
20
-127.4964489999999984
11
208.8859479999999849
21
-127.5312129999999939
0
LINE
8
BLACK
6
CONTINUOUS
10
208.8859479999999849
20
-127.5312129999999939
11
208.8231979999999908
21
-127.578140999999988
0
LINE
8
BLACK
6
CONTINUOUS
10
208.8231979999999908
20
-127.578140999999988
11
208.7749959999999874
21
-127.6401949999999914
0
LINE
8
BLACK
6
CONTINUOUS
10
208.7749959999999874
20
-127.6401949999999914
11
208.738381000000004
21
-127.7203349999999915
0
LINE
8
BLACK
6
CONTINUOUS
10
208.738381000000004
20
-127.7203349999999915
11
208.7103929999999821
21
-127.8215229999999991
0
LINE
8
BLACK
6
CONTINUOUS
10
208.7103929999999821
20
-127.8215229999999991
11
208.708753999999999
21
-127.8291239999999931
0
LINE
8
BLACK
6
CONTINUOUS
10
208.708753999999999
20
-127.8291239999999931
11
208.7024909999999807
21
-127.871816999999993
0
LINE
8
BLACK
6
CONTINUOUS
10
208.7024909999999807
20
-127.871816999999993
11
208.6968939999999861
21
-127.9354419999999948
0
LINE
8
BLACK
6
CONTINUOUS
10
208.6968939999999861
20
-127.9354419999999948
11
208.6920289999999909
21
-128.0161239999999907
0
LINE
8
BLACK
6
CONTINUOUS
10
208.6920289999999909
20
-128.0161239999999907
11
208.6879649999999913
21
-128.1099879999999871
0
LINE
8
BLACK
6
CONTINUOUS
10
208.6879649999999913
20
-128.1099879999999871
11
208.6847679999999912
21
-128.2131550000000004
0
LINE
8
BLACK
6
CONTINUOUS
10
208.6847679999999912
20
-128.2131550000000004
11
208.6825069999999869
21
-128.3217510000000061
0
LINE
8
BLACK
6
CONTINUOUS
10
208.6825069999999869
20
-128.3217510000000061
11
208.6812479999999823
21
-128.4318979999999897
0
LINE
8
BLACK
6
CONTINUOUS
10
208.6812479999999823
20
-128.4318979999999897
11
208.6810600000000022
21
-128.5397209999999859
0
LINE
8
BLACK
6
CONTINUOUS
10
208.6810600000000022
20
-128.5397209999999859
11
208.6820099999999911
21
-128.6413430000000062
0
LINE
8
BLACK
6
CONTINUOUS
10
208.6820099999999911
20
-128.6413430000000062
11
208.6841660000000047
21
-128.7328880000000026
0
LINE
8
BLACK
6
CONTINUOUS
10
208.6841660000000047
20
-128.7328880000000026
11
208.68759399999999
21
-128.8104799999999841
0
LINE
8
BLACK
6
CONTINUOUS
10
208.68759399999999
20
-128.8104799999999841
11
208.6908770000000004
21
-128.8554129999999986
0
LINE
8
BLACK
6
CONTINUOUS
10
208.6908770000000004
20
-128.8554129999999986
11
208.7061379999999815
21
-128.9827669999999955
0
LINE
8
BLACK
6
CONTINUOUS
10
208.7061379999999815
20
-128.9827669999999955
11
208.7273349999999823
21
-129.0882229999999993
0
LINE
8
BLACK
6
CONTINUOUS
10
208.7273349999999823
20
-129.0882229999999993
11
208.7556840000000022
21
-129.1742459999999824
0
LINE
8
BLACK
6
CONTINUOUS
10
208.7556840000000022
20
-129.1742459999999824
11
208.7923959999999965
21
-129.2433019999999999
0
LINE
8
BLACK
6
CONTINUOUS
10
208.7923959999999965
20
-129.2433019999999999
11
208.8386859999999956
21
-129.2978559999999959
0
LINE
8
BLACK
6
CONTINUOUS
10
208.8386859999999956
20
-129.2978559999999959
11
208.8957659999999805
21
-129.3403729999999996
0
LINE
8
BLACK
6
CONTINUOUS
10
208.8957659999999805
20
-129.3403729999999996
11
208.940891999999991
21
-129.3634600000000034
0
LINE
8
BLACK
6
CONTINUOUS
10
208.940891999999991
20
-129.3634600000000034
11
208.9731379999999774
21
-129.3768419999999821
0
LINE
8
BLACK
6
CONTINUOUS
10
208.9731379999999774
20
-129.3768419999999821
11
209.0060739999999839
21
-129.3883069999999975
0
LINE
8
BLACK
6
CONTINUOUS
10
209.0060739999999839
20
-129.3883069999999975
11
209.0418909999999926
21
-129.3980259999999873
0
LINE
8
BLACK
6
CONTINUOUS
10
209.0418909999999926
20
-129.3980259999999873
11
209.082776999999993
21
-129.4061690000000056
0
LINE
8
BLACK
6
CONTINUOUS
10
209.082776999999993
20
-129.4061690000000056
11
209.1309219999999982
21
-129.4129079999999874
0
LINE
8
BLACK
6
CONTINUOUS
10
209.1309219999999982
20
-129.4129079999999874
11
209.1885159999999928
21
-129.4184149999999818
0
LINE
8
BLACK
6
CONTINUOUS
10
209.1885159999999928
20
-129.4184149999999818
11
209.2577489999999898
21
-129.4228589999999883
0
LINE
8
BLACK
6
CONTINUOUS
10
209.2577489999999898
20
-129.4228589999999883
11
209.3408089999999788
21
-129.4264129999999966
0
LINE
8
BLACK
6
CONTINUOUS
10
209.3408089999999788
20
-129.4264129999999966
11
209.4398879999999963
21
-129.4292480000000012
0
LINE
8
BLACK
6
CONTINUOUS
10
209.4398879999999963
20
-129.4292480000000012
11
209.5571740000000034
21
-129.4315339999999992
0
LINE
8
BLACK
6
CONTINUOUS
10
209.5571740000000034
20
-129.4315339999999992
11
209.6948579999999822
21
-129.4334429999999827
0
LINE
8
BLACK
6
CONTINUOUS
10
209.6948579999999822
20
-129.4334429999999827
11
209.8551279999999792
21
-129.4351470000000006
0
LINE
8
BLACK
6
CONTINUOUS
10
209.8551279999999792
20
-129.4351470000000006
11
209.8583019999999806
21
-129.4351769999999817
0
LINE
8
BLACK
6
CONTINUOUS
10
209.8583019999999806
20
-129.4351769999999817
11
210.0439219999999807
21
-129.4366589999999917
0
LINE
8
BLACK
6
CONTINUOUS
10
210.0439219999999807
20
-129.4366589999999917
11
210.2065889999999797
21
-129.437217000000004
0
LINE
8
BLACK
6
CONTINUOUS
10
210.2065889999999797
20
-129.437217000000004
11
210.3481539999999939
21
-129.4367110000000025
0
LINE
8
BLACK
6
CONTINUOUS
10
210.3481539999999939
20
-129.4367110000000025
11
210.4704679999999826
21
-129.4350000000000023
0
LINE
8
BLACK
6
CONTINUOUS
10
210.4704679999999826
20
-129.4350000000000023
11
210.575382999999988
21
-129.4319419999999923
0
LINE
8
BLACK
6
CONTINUOUS
10
210.575382999999988
20
-129.4319419999999923
11
210.6647490000000005
21
-129.4273969999999849
0
LINE
8
BLACK
6
CONTINUOUS
10
210.6647490000000005
20
-129.4273969999999849
11
210.7404179999999769
21
-129.4212249999999926
0
LINE
8
BLACK
6
CONTINUOUS
10
210.7404179999999769
20
-129.4212249999999926
11
210.8042409999999904
21
-129.413283000000007
0
LINE
8
BLACK
6
CONTINUOUS
10
210.8042409999999904
20
-129.413283000000007
11
210.8580690000000004
21
-129.4034319999999809
0
LINE
8
BLACK
6
CONTINUOUS
10
210.8580690000000004
20
-129.4034319999999809
11
210.9037539999999922
21
-129.3915299999999888
0
LINE
8
BLACK
6
CONTINUOUS
10
210.9037539999999922
20
-129.3915299999999888
11
210.943146999999982
21
-129.3774369999999863
0
LINE
8
BLACK
6
CONTINUOUS
10
210.943146999999982
20
-129.3774369999999863
11
210.9780979999999886
21
-129.3610119999999881
0
LINE
8
BLACK
6
CONTINUOUS
10
210.9780979999999886
20
-129.3610119999999881
11
211.0005939999999782
21
-129.348243999999994
0
LINE
8
BLACK
6
CONTINUOUS
10
211.0005939999999782
20
-129.348243999999994
11
211.0653810000000021
21
-129.296416999999991
0
LINE
8
BLACK
6
CONTINUOUS
10
211.0653810000000021
20
-129.296416999999991
11
211.121342999999996
21
-129.227579999999989
0
LINE
8
BLACK
6
CONTINUOUS
10
211.121342999999996
20
-129.227579999999989
11
211.1629789999999787
21
-129.1493150000000014
0
LINE
8
BLACK
6
CONTINUOUS
10
211.1629789999999787
20
-129.1493150000000014
11
211.1781879999999774
21
-129.1034080000000017
0
LINE
8
BLACK
6
CONTINUOUS
10
211.1781879999999774
20
-129.1034080000000017
11
211.1870940000000019
21
-129.0592010000000016
0
LINE
8
BLACK
6
CONTINUOUS
10
211.1870940000000019
20
-129.0592010000000016
11
211.1957719999999767
21
-129.0004529999999932
0
LINE
8
BLACK
6
CONTINUOUS
10
211.1957719999999767
20
-129.0004529999999932
11
211.2027860000000032
21
-128.9374129999999923
0
LINE
8
BLACK
6
CONTINUOUS
10
211.2027860000000032
20
-128.9374129999999923
11
211.2047379999999919
21
-128.9141799999999876
0
LINE
8
BLACK
6
CONTINUOUS
10
211.2047379999999919
20
-128.9141799999999876
11
211.213768999999985
21
-128.7937179999999842
0
LINE
8
BLACK
6
CONTINUOUS
10
211.213768999999985
20
-128.7937179999999842
11
210.5298310000000015
21
-128.7937179999999842
0
LINE
8
BLACK
6
CONTINUOUS
10
210.5298310000000015
20
-128.7937179999999842
11
209.845893999999987
21
-128.7937179999999842
0
LINE
8
BLACK
6
CONTINUOUS
10
209.845893999999987
20
-128.7937179999999842
11
209.845893999999987
21
-128.5579579999999851
0
LINE
8
BLACK
6
CONTINUOUS
10
209.845893999999987
20
-128.5579579999999851
11
209.845893999999987
21
-128.3221989999999835
0
LINE
8
BLACK
6
CONTINUOUS
10
209.845893999999987
20
-128.3221989999999835
11
210.8774049999999818
21
-128.3221989999999835
0
LINE
8
BLACK
6
CONTINUOUS
10
210.8774049999999818
20
-128.3221989999999835
11
211.9089159999999765
21
-128.3221989999999835
0
LINE
8
BLACK
6
CONTINUOUS
10
211.9089159999999765
20
-128.3221989999999835
11
211.9022099999999966
21
-128.7347780000000057
0
LINE
8
BLACK
6
CONTINUOUS
10
211.9022099999999966
20
-128.7347780000000057
11
211.8993189999999913
21
-128.8789679999999862
0
LINE
8
BLACK
6
CONTINUOUS
10
211.8993189999999913
20
-128.8789679999999862
11
211.895514999999989
21
-129.001371000000006
0
LINE
8
BLACK
6
CONTINUOUS
10
211.895514999999989
20
-129.001371000000006
11
211.8904879999999764
21
-129.1050099999999929
0
LINE
8
BLACK
6
CONTINUOUS
10
211.8904879999999764
20
-129.1050099999999929
11
211.8839319999999873
21
-129.1929059999999936
0
LINE
8
BLACK
6
CONTINUOUS
10
211.8839319999999873
20
-129.1929059999999936
11
211.87553699999998
21
-129.2680819999999926
0
LINE
8
BLACK
6
CONTINUOUS
10
211.87553699999998
20
-129.2680819999999926
11
211.8649959999999908
21
-129.3335600000000056
0
LINE
8
BLACK
6
CONTINUOUS
10
211.8649959999999908
20
-129.3335600000000056
11
211.8520010000000013
21
-129.3923639999999864
0
LINE
8
BLACK
6
CONTINUOUS
10
211.8520010000000013
20
-129.3923639999999864
11
211.8362429999999961
21
-129.447513999999984
0
LINE
8
BLACK
6
CONTINUOUS
10
211.8362429999999961
20
-129.447513999999984
11
211.8265789999999811
21
-129.4765449999999873
0
LINE
8
BLACK
6
CONTINUOUS
10
211.8265789999999811
20
-129.4765449999999873
11
211.773270999999994
21
-129.5993339999999989
0
LINE
8
BLACK
6
CONTINUOUS
10
211.773270999999994
20
-129.5993339999999989
11
211.7048079999999857
21
-129.7030430000000081
0
LINE
8
BLACK
6
CONTINUOUS
10
211.7048079999999857
20
-129.7030430000000081
11
211.619891999999993
21
-129.7889299999999935
0
LINE
8
BLACK
6
CONTINUOUS
10
211.619891999999993
20
-129.7889299999999935
11
211.5172209999999779
21
-129.8582509999999957
0
LINE
8
BLACK
6
CONTINUOUS
10
211.5172209999999779
20
-129.8582509999999957
11
211.3954949999999826
21
-129.9122649999999908
0
LINE
8
BLACK
6
CONTINUOUS
10
211.3954949999999826
20
-129.9122649999999908
11
211.3654259999999852
21
-129.92241199999998
0
LINE
8
BLACK
6
CONTINUOUS
10
211.3654259999999852
20
-129.92241199999998
11
211.3277420000000006
21
-129.9342269999999928
0
LINE
8
BLACK
6
CONTINUOUS
10
211.3277420000000006
20
-129.9342269999999928
11
211.2921199999999828
21
-129.9445279999999912
0
LINE
8
BLACK
6
CONTINUOUS
10
211.2921199999999828
20
-129.9445279999999912
11
211.2566190000000006
21
-129.9534260000000074
0
LINE
8
BLACK
6
CONTINUOUS
10
211.2566190000000006
20
-129.9534260000000074
11
211.2192989999999782
21
-129.9610309999999913
0
LINE
8
BLACK
6
CONTINUOUS
10
211.2192989999999782
20
-129.9610309999999913
11
211.1782209999999793
21
-129.9674540000000036
0
LINE
8
BLACK
6
CONTINUOUS
10
211.1782209999999793
20
-129.9674540000000036
11
211.1314449999999852
21
-129.9728039999999964
0
LINE
8
BLACK
6
CONTINUOUS
10
211.1314449999999852
20
-129.9728039999999964
11
211.0770299999999793
21
-129.9771910000000048
0
LINE
8
BLACK
6
CONTINUOUS
10
211.0770299999999793
20
-129.9771910000000048
11
211.0130359999999996
21
-129.9807270000000017
0
LINE
8
BLACK
6
CONTINUOUS
10
211.0130359999999996
20
-129.9807270000000017
11
210.9375249999999937
21
-129.9835209999999961
0
LINE
8
BLACK
6
CONTINUOUS
10
210.9375249999999937
20
-129.9835209999999961
11
210.8485550000000046
21
-129.9856829999999945
0
LINE
8
BLACK
6
CONTINUOUS
10
210.8485550000000046
20
-129.9856829999999945
11
210.7441859999999849
21
-129.987324000000001
0
LINE
8
BLACK
6
CONTINUOUS
10
210.7441859999999849
20
-129.987324000000001
11
210.6224799999999959
21
-129.9885539999999935
0
LINE
8
BLACK
6
CONTINUOUS
10
210.6224799999999959
20
-129.9885539999999935
11
210.4814949999999953
21
-129.989483000000007
0
LINE
8
BLACK
6
CONTINUOUS
10
210.4814949999999953
20
-129.989483000000007
11
210.3192929999999876
21
-129.9902219999999886
0
LINE
8
BLACK
6
CONTINUOUS
10
210.3192929999999876
20
-129.9902219999999886
11
210.1623079999999959
21
-129.9907859999999857
0
LINE
8
BLACK
6
CONTINUOUS
10
210.1623079999999959
20
-129.9907859999999857
11
210.0135039999999833
21
-129.9912249999999858
0
LINE
8
BLACK
6
CONTINUOUS
10
210.0135039999999833
20
-129.9912249999999858
11
209.8703929999999787
21
-129.9915299999999831
0
LINE
8
BLACK
6
CONTINUOUS
10
209.8703929999999787
20
-129.9915299999999831
11
209.7351569999999867
21
-129.9917020000000036
0
LINE
8
BLACK
6
CONTINUOUS
10
209.7351569999999867
20
-129.9917020000000036
11
209.609975999999989
21
-129.9917460000000062
0
LINE
8
BLACK
6
CONTINUOUS
10
209.609975999999989
20
-129.9917460000000062
11
209.4970309999999927
21
-129.9916629999999884
0
LINE
8
BLACK
6
CONTINUOUS
10
209.4970309999999927
20
-129.9916629999999884
11
209.3985050000000001
21
-129.9914559999999994
0
LINE
8
BLACK
6
CONTINUOUS
10
209.3985050000000001
20
-129.9914559999999994
11
209.3165769999999952
21
-129.9911280000000033
0
LINE
8
BLACK
6
CONTINUOUS
10
209.3165769999999952
20
-129.9911280000000033
11
209.2534299999999803
21
-129.990680999999995
0
LINE
8
BLACK
6
CONTINUOUS
10
209.2534299999999803
20
-129.990680999999995
11
209.211244999999991
21
-129.9901189999999929
0
LINE
8
BLACK
6
CONTINUOUS
10
209.211244999999991
20
-129.9901189999999929
11
209.1944519999999841
21
-129.989609999999999
0
LINE
8
BLACK
6
CONTINUOUS
10
209.1944519999999841
20
-129.989609999999999
11
209.0468529999999987
21
-129.98048
0
LINE
8
BLACK
6
CONTINUOUS
10
209.0468529999999987
20
-129.98048
11
208.9209529999999972
21
-129.9706270000000075
0
LINE
8
BLACK
6
CONTINUOUS
10
208.9209529999999972
20
-129.9706270000000075
11
208.8136369999999999
21
-129.9595060000000046
0
LINE
8
BLACK
6
CONTINUOUS
10
208.8136369999999999
20
-129.9595060000000046
11
208.7217880000000036
21
-129.9465710000000058
0
LINE
8
BLACK
6
CONTINUOUS
10
208.7217880000000036
20
-129.9465710000000058
11
208.6422900000000027
21
-129.9312759999999969
0
LINE
8
BLACK
6
CONTINUOUS
10
208.6422900000000027
20
-129.9312759999999969
11
208.5720259999999939
21
-129.9130749999999921
0
LINE
8
BLACK
6
CONTINUOUS
10
208.5720259999999939
20
-129.9130749999999921
11
208.5078800000000001
21
-129.8914230000000032
0
LINE
8
BLACK
6
CONTINUOUS
10
208.5078800000000001
20
-129.8914230000000032
11
208.4467349999999897
21
-129.8657729999999901
0
LINE
8
BLACK
6
CONTINUOUS
10
208.4467349999999897
20
-129.8657729999999901
11
208.4228279999999813
21
-129.8544699999999921
0
LINE
8
BLACK
6
CONTINUOUS
10
208.4228279999999813
20
-129.8544699999999921
11
208.3052399999999977
21
-129.7850190000000055
0
LINE
8
BLACK
6
CONTINUOUS
10
208.3052399999999977
20
-129.7850190000000055
11
208.2069170000000042
21
-129.7001559999999927
0
LINE
8
BLACK
6
CONTINUOUS
10
208.2069170000000042
20
-129.7001559999999927
11
208.1272339999999872
21
-129.5991459999999904
0
LINE
8
BLACK
6
CONTINUOUS
10
208.1272339999999872
20
-129.5991459999999904
11
208.0655669999999873
21
-129.4812509999999861
0
LINE
8
BLACK
6
CONTINUOUS
10
208.0655669999999873
20
-129.4812509999999861
11
208.0359299999999791
21
-129.3987799999999879
0
LINE
8
BLACK
6
CONTINUOUS
10
208.0359299999999791
20
-129.3987799999999879
11
208.0205269999999871
21
-129.3457420000000013
0
LINE
8
BLACK
6
CONTINUOUS
10
208.0205269999999871
20
-129.3457420000000013
11
208.0075159999999812
21
-129.2938210000000083
0
LINE
8
BLACK
6
CONTINUOUS
10
208.0075159999999812
20
-129.2938210000000083
11
207.996703999999994
21
-129.2404029999999864
0
LINE
8
BLACK
6
CONTINUOUS
10
207.996703999999994
20
-129.2404029999999864
11
207.9878949999999804
21
-129.1828759999999932
0
LINE
8
BLACK
6
CONTINUOUS
10
207.9878949999999804
20
-129.1828759999999932
11
207.9808960000000013
21
-129.1186260000000061
0
LINE
8
BLACK
6
CONTINUOUS
10
207.9808960000000013
20
-129.1186260000000061
11
207.9755129999999781
21
-129.0450419999999951
0
LINE
8
BLACK
6
CONTINUOUS
10
207.9755129999999781
20
-129.0450419999999951
11
207.9715499999999793
21
-128.9595099999999945
0
LINE
8
BLACK
6
CONTINUOUS
10
207.9715499999999793
20
-128.9595099999999945
11
207.9688139999999805
21
-128.8594170000000076
0
LINE
8
BLACK
6
CONTINUOUS
10
207.9688139999999805
20
-128.8594170000000076
11
207.967109999999991
21
-128.742149999999981
0
LINE
8
BLACK
6
CONTINUOUS
10
207.967109999999991
20
-128.742149999999981
11
207.966243999999989
21
-128.6050970000000007
0
LINE
8
BLACK
6
CONTINUOUS
10
207.966243999999989
20
-128.6050970000000007
11
207.9660209999999836
21
-128.4586909999999875
0
LINE
8
BLACK
6
CONTINUOUS
10
207.9660209999999836
20
-128.4586909999999875
11
207.9662659999999903
21
-128.3007110000000068
0
LINE
8
BLACK
6
CONTINUOUS
10
207.9662659999999903
20
-128.3007110000000068
11
207.9671079999999961
21
-128.1649249999999824
0
LINE
8
BLACK
6
CONTINUOUS
10
207.9671079999999961
20
-128.1649249999999824
11
207.9687059999999974
21
-128.0487139999999897
0
LINE
8
BLACK
6
CONTINUOUS
10
207.9687059999999974
20
-128.0487139999999897
11
207.9712219999999832
21
-127.9494609999999994
0
LINE
8
BLACK
6
CONTINUOUS
10
207.9712219999999832
20
-127.9494609999999994
11
207.9748139999999808
21
-127.86454599999999
0
LINE
8
BLACK
6
CONTINUOUS
10
207.9748139999999808
20
-127.86454599999999
11
207.9796409999999867
21
-127.7913499999999942
0
LINE
8
BLACK
6
CONTINUOUS
10
207.9796409999999867
20
-127.7913499999999942
11
207.9858649999999898
21
-127.727255999999997
0
LINE
8
BLACK
6
CONTINUOUS
10
207.9858649999999898
20
-127.727255999999997
11
207.9936449999999866
21
-127.6696449999999885
0
LINE
8
BLACK
6
CONTINUOUS
10
207.9936449999999866
20
-127.6696449999999885
11
208.0031409999999994
21
-127.6158969999999897
0
LINE
8
BLACK
6
CONTINUOUS
10
208.0031409999999994
20
-127.6158969999999897
11
208.0145119999999963
21
-127.5633939999999882
0
LINE
8
BLACK
6
CONTINUOUS
10
208.0145119999999963
20
-127.5633939999999882
11
208.0227229999999849
21
-127.5297309999999982
0
LINE
8
BLACK
6
CONTINUOUS
10
208.0227229999999849
20
-127.5297309999999982
11
208.0688909999999794
21
-127.3938429999999897
0
LINE
8
BLACK
6
CONTINUOUS
10
208.0688909999999794
20
-127.3938429999999897
11
208.1344049999999868
21
-127.2731659999999891
0
LINE
8
BLACK
6
CONTINUOUS
10
208.1344049999999868
20
-127.2731659999999891
11
208.2183009999999967
21
-127.1686519999999945
0
LINE
8
BLACK
6
CONTINUOUS
10
208.2183009999999967
20
-127.1686519999999945
11
208.319611999999978
21
-127.0812549999999987
0
LINE
8
BLACK
6
CONTINUOUS
10
208.319611999999978
20
-127.0812549999999987
11
208.4373709999999846
21
-127.011928999999995
0
LINE
8
BLACK
6
CONTINUOUS
10
208.4373709999999846
20
-127.011928999999995
11
208.5706129999999803
21
-126.9616279999999904
0
LINE
8
BLACK
6
CONTINUOUS
10
208.5706129999999803
20
-126.9616279999999904
11
208.6084209999999928
21
-126.9516019999999941
0
LINE
8
BLACK
6
CONTINUOUS
10
208.6084209999999928
20
-126.9516019999999941
11
208.686238000000003
21
-126.9350819999999942
0
LINE
8
BLACK
6
CONTINUOUS
10
208.686238000000003
20
-126.9350819999999942
11
208.776016999999996
21
-126.9206439999999958
0
LINE
8
BLACK
6
CONTINUOUS
10
208.776016999999996
20
-126.9206439999999958
11
208.879193999999984
21
-126.9082099999999969
0
LINE
8
BLACK
6
CONTINUOUS
10
208.879193999999984
20
-126.9082099999999969
11
208.9972009999999898
21
-126.8977009999999979
0
LINE
8
BLACK
6
CONTINUOUS
10
208.9972009999999898
20
-126.8977009999999979
11
209.1314720000000023
21
-126.8890379999999993
0
LINE
8
BLACK
6
CONTINUOUS
10
209.1314720000000023
20
-126.8890379999999993
11
209.2834419999999795
21
-126.8821429999999992
0
LINE
8
BLACK
6
CONTINUOUS
10
209.2834419999999795
20
-126.8821429999999992
11
209.454543000000001
21
-126.8769360000000006
0
LINE
8
BLACK
6
CONTINUOUS
10
209.454543000000001
20
-126.8769360000000006
11
209.6462099999999964
21
-126.8733389999999872
0
LINE
8
BLACK
6
CONTINUOUS
10
209.6462099999999964
20
-126.8733389999999872
11
209.8598769999999831
21
-126.871272999999988
0
LINE
8
BLACK
6
CONTINUOUS
10
209.8598769999999831
20
-126.871272999999988
11
210.0816529999999887
21
-126.8706569999999942
0
LINE
8
BLACK
6
CONTINUOUS
10
210.0816529999999887
20
-126.8706569999999942
11
210.2775000000000034
21
-126.8711079999999924
0
LINE
8
BLACK
6
CONTINUOUS
10
197.6236169999999959
20
-127.050336999999999
11
197.6236169999999959
21
-127.2054429999999883
0
LINE
8
BLACK
6
CONTINUOUS
10
197.6236169999999959
20
-127.2054429999999883
11
196.8418879999999831
21
-127.2054429999999883
0
LINE
8
BLACK
6
CONTINUOUS
10
196.8418879999999831
20
-127.2054429999999883
11
196.0601580000000013
21
-127.2054429999999883
0
LINE
8
BLACK
6
CONTINUOUS
10
196.0601580000000013
20
-127.2054429999999883
11
196.0601580000000013
21
-128.5889789999999948
0
LINE
8
BLACK
6
CONTINUOUS
10
196.0601580000000013
20
-128.5889789999999948
11
196.0601580000000013
21
-129.9725159999999846
0
LINE
8
BLACK
6
CONTINUOUS
10
196.0601580000000013
20
-129.9725159999999846
11
195.8740319999999997
21
-129.9725159999999846
0
LINE
8
BLACK
6
CONTINUOUS
10
195.8740319999999997
20
-129.9725159999999846
11
195.6879059999999981
21
-129.9725159999999846
0
LINE
8
BLACK
6
CONTINUOUS
10
195.6879059999999981
20
-129.9725159999999846
11
195.6879059999999981
21
-128.5889789999999948
0
LINE
8
BLACK
6
CONTINUOUS
10
195.6879059999999981
20
-128.5889789999999948
11
195.6879059999999981
21
-127.2054429999999883
0
LINE
8
BLACK
6
CONTINUOUS
10
195.6879059999999981
20
-127.2054429999999883
11
194.9061769999999854
21
-127.2054429999999883
0
LINE
8
BLACK
6
CONTINUOUS
10
194.9061769999999854
20
-127.2054429999999883
11
194.124448000000001
21
-127.2054429999999883
0
LINE
8
BLACK
6
CONTINUOUS
10
194.124448000000001
20
-127.2054429999999883
11
194.124448000000001
21
-127.050336999999999
0
LINE
8
BLACK
6
CONTINUOUS
10
194.124448000000001
20
-127.050336999999999
11
194.124448000000001
21
-126.8952319999999929
0
LINE
8
BLACK
6
CONTINUOUS
10
194.124448000000001
20
-126.8952319999999929
11
195.8740319999999997
21
-126.8952319999999929
0
LINE
8
BLACK
6
CONTINUOUS
10
195.8740319999999997
20
-126.8952319999999929
11
197.6236169999999959
21
-126.8952319999999929
0
LINE
8
BLACK
6
CONTINUOUS
10
197.6236169999999959
20
-126.8952319999999929
11
197.6236169999999959
21
-127.050336999999999
0
LINE
8
BLACK
6
CONTINUOUS
10
198.4301629999999932
20
-128.8805769999999882
11
198.4301629999999932
21
-129.9725159999999846
0
LINE
8
BLACK
6
CONTINUOUS
10
198.4301629999999932
20
-129.9725159999999846
11
198.2688540000000046
21
-129.9725159999999846
0
LINE
8
BLACK
6
CONTINUOUS
10
198.2688540000000046
20
-129.9725159999999846
11
198.1075449999999876
21
-129.9725159999999846
0
LINE
8
BLACK
6
CONTINUOUS
10
198.1075449999999876
20
-129.9725159999999846
11
198.1075449999999876
21
-128.8805769999999882
0
LINE
8
BLACK
6
CONTINUOUS
10
198.1075449999999876
20
-128.8805769999999882
11
198.1075449999999876
21
-127.7886369999999943
0
LINE
8
BLACK
6
CONTINUOUS
10
198.1075449999999876
20
-127.7886369999999943
11
198.2688540000000046
21
-127.7886369999999943
0
LINE
8
BLACK
6
CONTINUOUS
10
198.2688540000000046
20
-127.7886369999999943
11
198.4301629999999932
21
-127.7886369999999943
0
LINE
8
BLACK
6
CONTINUOUS
10
198.4301629999999932
20
-127.7886369999999943
11
198.4301629999999932
21
-128.8805769999999882
0
LINE
8
BLACK
6
CONTINUOUS
10
200.6218409999999892
20
-127.7521349999999956
11
200.7203059999999937
21
-127.7537179999999921
0
LINE
8
BLACK
6
CONTINUOUS
10
200.7203059999999937
20
-127.7537179999999921
11
200.8081099999999992
21
-127.7567009999999925
0
LINE
8
BLACK
6
CONTINUOUS
10
200.8081099999999992
20
-127.7567009999999925
11
200.8797979999999939
21
-127.7610859999999917
0
LINE
8
BLACK
6
CONTINUOUS
10
200.8797979999999939
20
-127.7610859999999917
11
200.9121689999999774
21
-127.7643139999999988
0
LINE
8
BLACK
6
CONTINUOUS
10
200.9121689999999774
20
-127.7643139999999988
11
201.0532460000000015
21
-127.7876830000000012
0
LINE
8
BLACK
6
CONTINUOUS
10
201.0532460000000015
20
-127.7876830000000012
11
201.173214999999999
21
-127.8212059999999894
0
LINE
8
BLACK
6
CONTINUOUS
10
201.173214999999999
20
-127.8212059999999894
11
201.2741120000000024
21
-127.8660840000000007
0
LINE
8
BLACK
6
CONTINUOUS
10
201.2741120000000024
20
-127.8660840000000007
11
201.357972999999987
21
-127.9235129999999998
0
LINE
8
BLACK
6
CONTINUOUS
10
201.357972999999987
20
-127.9235129999999998
11
201.4268349999999828
21
-127.9946929999999981
0
LINE
8
BLACK
6
CONTINUOUS
10
201.4268349999999828
20
-127.9946929999999981
11
201.4827339999999936
21
-128.0808199999999886
0
LINE
8
BLACK
6
CONTINUOUS
10
201.4827339999999936
20
-128.0808199999999886
11
201.4965279999999836
21
-128.1081719999999962
0
LINE
8
BLACK
6
CONTINUOUS
10
201.4965279999999836
20
-128.1081719999999962
11
201.5352139999999963
21
-128.1892320000000041
0
LINE
8
BLACK
6
CONTINUOUS
10
201.5352139999999963
20
-128.1892320000000041
11
201.571819000000005
21
-128.1210130000000049
0
LINE
8
BLACK
6
CONTINUOUS
10
201.571819000000005
20
-128.1210130000000049
11
201.6292279999999835
21
-128.0318450000000041
0
LINE
8
BLACK
6
CONTINUOUS
10
201.6292279999999835
20
-128.0318450000000041
11
201.6988989999999831
21
-127.9573839999999905
0
LINE
8
BLACK
6
CONTINUOUS
10
201.6988989999999831
20
-127.9573839999999905
11
201.7831259999999816
21
-127.8962439999999958
0
LINE
8
BLACK
6
CONTINUOUS
10
201.7831259999999816
20
-127.8962439999999958
11
201.8841979999999978
21
-127.8470359999999886
0
LINE
8
BLACK
6
CONTINUOUS
10
201.8841979999999978
20
-127.8470359999999886
11
202.0044099999999787
21
-127.8083740000000006
0
LINE
8
BLACK
6
CONTINUOUS
10
202.0044099999999787
20
-127.8083740000000006
11
202.1333569999999895
21
-127.781013999999999
0
LINE
8
BLACK
6
CONTINUOUS
10
202.1333569999999895
20
-127.781013999999999
11
202.1906869999999969
21
-127.7735979999999927
0
LINE
8
BLACK
6
CONTINUOUS
10
202.1906869999999969
20
-127.7735979999999927
11
202.2680989999999781
21
-127.7671670000000006
0
LINE
8
BLACK
6
CONTINUOUS
10
202.2680989999999781
20
-127.7671670000000006
11
202.3608739999999955
21
-127.7618149999999986
0
LINE
8
BLACK
6
CONTINUOUS
10
202.3608739999999955
20
-127.7618149999999986
11
202.4642920000000004
21
-127.7576349999999934
0
LINE
8
BLACK
6
CONTINUOUS
10
202.4642920000000004
20
-127.7576349999999934
11
202.5736339999999984
21
-127.7547209999999893
0
LINE
8
BLACK
6
CONTINUOUS
10
202.5736339999999984
20
-127.7547209999999893
11
202.6841819999999927
21
-127.7531669999999906
0
LINE
8
BLACK
6
CONTINUOUS
10
202.6841819999999927
20
-127.7531669999999906
11
202.791214999999994
21
-127.7530669999999873
0
LINE
8
BLACK
6
CONTINUOUS
10
202.791214999999994
20
-127.7530669999999873
11
202.8900149999999769
21
-127.7545149999999978
0
LINE
8
BLACK
6
CONTINUOUS
10
202.8900149999999769
20
-127.7545149999999978
11
202.9758630000000039
21
-127.7576040000000006
0
LINE
8
BLACK
6
CONTINUOUS
10
202.9758630000000039
20
-127.7576040000000006
11
203.0440399999999954
21
-127.7624289999999974
0
LINE
8
BLACK
6
CONTINUOUS
10
203.0440399999999954
20
-127.7624289999999974
11
203.0479509999999834
21
-127.7628259999999898
0
LINE
8
BLACK
6
CONTINUOUS
10
203.0479509999999834
20
-127.7628259999999898
11
203.1981499999999983
21
-127.7837579999999917
0
LINE
8
BLACK
6
CONTINUOUS
10
203.1981499999999983
20
-127.7837579999999917
11
203.3266229999999837
21
-127.8137359999999916
0
LINE
8
BLACK
6
CONTINUOUS
10
203.3266229999999837
20
-127.8137359999999916
11
203.4352020000000039
21
-127.8539999999999992
0
LINE
8
BLACK
6
CONTINUOUS
10
203.4352020000000039
20
-127.8539999999999992
11
203.5257179999999835
21
-127.9057880000000011
0
LINE
8
BLACK
6
CONTINUOUS
10
203.5257179999999835
20
-127.9057880000000011
11
203.6000029999999867
21
-127.9703389999999956
0
LINE
8
BLACK
6
CONTINUOUS
10
203.6000029999999867
20
-127.9703389999999956
11
203.6598860000000002
21
-128.0488929999999925
0
LINE
8
BLACK
6
CONTINUOUS
10
203.6598860000000002
20
-128.0488929999999925
11
203.7072000000000003
21
-128.1426879999999926
0
LINE
8
BLACK
6
CONTINUOUS
10
203.7072000000000003
20
-128.1426879999999926
11
203.7371169999999836
21
-128.2291359999999827
0
LINE
8
BLACK
6
CONTINUOUS
10
203.7371169999999836
20
-128.2291359999999827
11
203.7414499999999862
21
-128.2458139999999958
0
LINE
8
BLACK
6
CONTINUOUS
10
203.7414499999999862
20
-128.2458139999999958
11
203.7451989999999853
21
-128.2652870000000007
0
LINE
8
BLACK
6
CONTINUOUS
10
203.7451989999999853
20
-128.2652870000000007
11
203.7484159999999918
21
-128.2894469999999956
0
LINE
8
BLACK
6
CONTINUOUS
10
203.7484159999999918
20
-128.2894469999999956
11
203.7511549999999829
21
-128.3201889999999992
0
LINE
8
BLACK
6
CONTINUOUS
10
203.7511549999999829
20
-128.3201889999999992
11
203.7534689999999955
21
-128.3594049999999811
0
LINE
8
BLACK
6
CONTINUOUS
10
203.7534689999999955
20
-128.3594049999999811
11
203.7554119999999784
21
-128.4089889999999912
0
LINE
8
BLACK
6
CONTINUOUS
10
203.7554119999999784
20
-128.4089889999999912
11
203.7570379999999943
21
-128.4708329999999989
0
LINE
8
BLACK
6
CONTINUOUS
10
203.7570379999999943
20
-128.4708329999999989
11
203.7583999999999946
21
-128.5468319999999949
0
LINE
8
BLACK
6
CONTINUOUS
10
203.7583999999999946
20
-128.5468319999999949
11
203.7595509999999877
21
-128.6388780000000054
0
LINE
8
BLACK
6
CONTINUOUS
10
203.7595509999999877
20
-128.6388780000000054
11
203.7605439999999817
21
-128.748864999999995
0
LINE
8
BLACK
6
CONTINUOUS
10
203.7605439999999817
20
-128.748864999999995
11
203.7614349999999774
21
-128.8786859999999876
0
LINE
8
BLACK
6
CONTINUOUS
10
203.7614349999999774
20
-128.8786859999999876
11
203.7622749999999883
21
-129.0302340000000072
0
LINE
8
BLACK
6
CONTINUOUS
10
203.7622749999999883
20
-129.0302340000000072
11
203.7628039999999885
21
-129.1380509999999902
0
LINE
8
BLACK
6
CONTINUOUS
10
203.7628039999999885
20
-129.1380509999999902
11
203.7667619999999999
21
-129.9725159999999846
0
LINE
8
BLACK
6
CONTINUOUS
10
203.7667619999999999
20
-129.9725159999999846
11
203.6049599999999771
21
-129.9725159999999846
0
LINE
8
BLACK
6
CONTINUOUS
10
203.6049599999999771
20
-129.9725159999999846
11
203.4431579999999826
21
-129.9725159999999846
0
LINE
8
BLACK
6
CONTINUOUS
10
203.4431579999999826
20
-129.9725159999999846
11
203.4427749999999833
21
-129.2559310000000039
0
LINE
8
BLACK
6
CONTINUOUS
10
203.4427749999999833
20
-129.2559310000000039
11
203.442498999999998
21
-129.1217340000000036
0
LINE
8
BLACK
6
CONTINUOUS
10
203.442498999999998
20
-129.1217340000000036
11
203.4418450000000007
21
-128.9925399999999911
0
LINE
8
BLACK
6
CONTINUOUS
10
203.4418450000000007
20
-128.9925399999999911
11
203.4408489999999858
21
-128.8709189999999865
0
LINE
8
BLACK
6
CONTINUOUS
10
203.4408489999999858
20
-128.8709189999999865
11
203.4395519999999919
21
-128.759444000000002
0
LINE
8
BLACK
6
CONTINUOUS
10
203.4395519999999919
20
-128.759444000000002
11
203.43799199999998
21
-128.6606859999999983
0
LINE
8
BLACK
6
CONTINUOUS
10
203.43799199999998
20
-128.6606859999999983
11
203.4362079999999935
21
-128.5772189999999853
0
LINE
8
BLACK
6
CONTINUOUS
10
203.4362079999999935
20
-128.5772189999999853
11
203.4342399999999884
21
-128.5116129999999828
0
LINE
8
BLACK
6
CONTINUOUS
10
203.4342399999999884
20
-128.5116129999999828
11
203.4321239999999875
21
-128.4664410000000032
0
LINE
8
BLACK
6
CONTINUOUS
10
203.4321239999999875
20
-128.4664410000000032
11
203.4305679999999938
21
-128.4482849999999985
0
LINE
8
BLACK
6
CONTINUOUS
10
203.4305679999999938
20
-128.4482849999999985
11
203.4135299999999802
21
-128.3578249999999912
0
LINE
8
BLACK
6
CONTINUOUS
10
203.4135299999999802
20
-128.3578249999999912
11
203.3866149999999777
21
-128.2805740000000014
0
LINE
8
BLACK
6
CONTINUOUS
10
203.3866149999999777
20
-128.2805740000000014
11
203.3482109999999921
21
-128.2156799999999919
0
LINE
8
BLACK
6
CONTINUOUS
10
203.3482109999999921
20
-128.2156799999999919
11
203.296701999999982
21
-128.1622899999999845
0
LINE
8
BLACK
6
CONTINUOUS
10
203.296701999999982
20
-128.1622899999999845
11
203.2304729999999893
21
-128.1195529999999962
0
LINE
8
BLACK
6
CONTINUOUS
10
203.2304729999999893
20
-128.1195529999999962
11
203.1479089999999985
21
-128.0866159999999923
0
LINE
8
BLACK
6
CONTINUOUS
10
203.1479089999999985
20
-128.0866159999999923
11
203.0473949999999945
21
-128.062626999999992
0
LINE
8
BLACK
6
CONTINUOUS
10
203.0473949999999945
20
-128.062626999999992
11
202.927316999999988
21
-128.046734999999984
0
LINE
8
BLACK
6
CONTINUOUS
10
202.927316999999988
20
-128.046734999999984
11
202.7860589999999945
21
-128.0380849999999953
0
LINE
8
BLACK
6
CONTINUOUS
10
202.7860589999999945
20
-128.0380849999999953
11
202.6488619999999798
21
-128.0357939999999815
0
LINE
8
BLACK
6
CONTINUOUS
10
202.6488619999999798
20
-128.0357939999999815
11
202.462773999999996
21
-128.0397869999999898
0
LINE
8
BLACK
6
CONTINUOUS
10
202.462773999999996
20
-128.0397869999999898
11
202.2989000000000033
21
-128.0526009999999815
0
LINE
8
BLACK
6
CONTINUOUS
10
202.2989000000000033
20
-128.0526009999999815
11
202.1560659999999814
21
-128.0747590000000002
0
LINE
8
BLACK
6
CONTINUOUS
10
202.1560659999999814
20
-128.0747590000000002
11
202.0330969999999979
21
-128.1067869999999971
0
LINE
8
BLACK
6
CONTINUOUS
10
202.0330969999999979
20
-128.1067869999999971
11
201.9288169999999809
21
-128.1492099999999823
0
LINE
8
BLACK
6
CONTINUOUS
10
201.9288169999999809
20
-128.1492099999999823
11
201.8420519999999954
21
-128.2025529999999947
0
LINE
8
BLACK
6
CONTINUOUS
10
201.8420519999999954
20
-128.2025529999999947
11
201.7716269999999952
21
-128.2673419999999851
0
LINE
8
BLACK
6
CONTINUOUS
10
201.7716269999999952
20
-128.2673419999999851
11
201.7163659999999936
21
-128.3440999999999974
0
LINE
8
BLACK
6
CONTINUOUS
10
201.7163659999999936
20
-128.3440999999999974
11
201.6750949999999989
21
-128.43335399999998
0
LINE
8
BLACK
6
CONTINUOUS
10
201.6750949999999989
20
-128.43335399999998
11
201.6608980000000031
21
-128.4773040000000037
0
LINE
8
BLACK
6
CONTINUOUS
10
201.6608980000000031
20
-128.4773040000000037
11
201.6562820000000045
21
-128.4956909999999937
0
LINE
8
BLACK
6
CONTINUOUS
10
201.6562820000000045
20
-128.4956909999999937
11
201.652325999999988
21
-128.5175299999999936
0
LINE
8
BLACK
6
CONTINUOUS
10
201.652325999999988
20
-128.5175299999999936
11
201.6489609999999857
21
-128.5448910000000069
0
LINE
8
BLACK
6
CONTINUOUS
10
201.6489609999999857
20
-128.5448910000000069
11
201.6461159999999779
21
-128.5798460000000034
0
LINE
8
BLACK
6
CONTINUOUS
10
201.6461159999999779
20
-128.5798460000000034
11
201.6437219999999968
21
-128.624465999999984
0
LINE
8
BLACK
6
CONTINUOUS
10
201.6437219999999968
20
-128.624465999999984
11
201.6417099999999891
21
-128.6808220000000063
0
LINE
8
BLACK
6
CONTINUOUS
10
201.6417099999999891
20
-128.6808220000000063
11
201.640010999999987
21
-128.7509859999999833
0
LINE
8
BLACK
6
CONTINUOUS
10
201.640010999999987
20
-128.7509859999999833
11
201.6385539999999992
21
-128.8370290000000011
0
LINE
8
BLACK
6
CONTINUOUS
10
201.6385539999999992
20
-128.8370290000000011
11
201.6372709999999984
21
-128.9410210000000063
0
LINE
8
BLACK
6
CONTINUOUS
10
201.6372709999999984
20
-128.9410210000000063
11
201.6360919999999908
21
-129.0650339999999971
0
LINE
8
BLACK
6
CONTINUOUS
10
201.6360919999999908
20
-129.0650339999999971
11
201.6349479999999801
21
-129.2111400000000003
0
LINE
8
BLACK
6
CONTINUOUS
10
201.6349479999999801
20
-129.2111400000000003
11
201.6345829999999921
21
-129.2621350000000007
0
LINE
8
BLACK
6
CONTINUOUS
10
201.6345829999999921
20
-129.2621350000000007
11
201.6295849999999916
21
-129.9725159999999846
0
LINE
8
BLACK
6
CONTINUOUS
10
201.6295849999999916
20
-129.9725159999999846
11
201.4692489999999907
21
-129.9725159999999846
0
LINE
8
BLACK
6
CONTINUOUS
10
201.4692489999999907
20
-129.9725159999999846
11
201.3089129999999898
21
-129.9725159999999846
0
LINE
8
BLACK
6
CONTINUOUS
10
201.3089129999999898
20
-129.9725159999999846
11
201.3085289999999929
21
-129.2559310000000039
0
LINE
8
BLACK
6
CONTINUOUS
10
201.3085289999999929
20
-129.2559310000000039
11
201.3082539999999767
21
-129.1217340000000036
0
LINE
8
BLACK
6
CONTINUOUS
10
201.3082539999999767
20
-129.1217340000000036
11
201.307598999999982
21
-128.9925399999999911
0
LINE
8
BLACK
6
CONTINUOUS
10
201.307598999999982
20
-128.9925399999999911
11
201.306603999999993
21
-128.8709189999999865
0
LINE
8
BLACK
6
CONTINUOUS
10
201.306603999999993
20
-128.8709189999999865
11
201.3053069999999991
21
-128.759444000000002
0
LINE
8
BLACK
6
CONTINUOUS
10
201.3053069999999991
20
-128.759444000000002
11
201.3037469999999871
21
-128.6606859999999983
0
LINE
8
BLACK
6
CONTINUOUS
10
201.3037469999999871
20
-128.6606859999999983
11
201.3019630000000006
21
-128.5772189999999853
0
LINE
8
BLACK
6
CONTINUOUS
10
201.3019630000000006
20
-128.5772189999999853
11
201.2999939999999981
21
-128.5116129999999828
0
LINE
8
BLACK
6
CONTINUOUS
10
201.2999939999999981
20
-128.5116129999999828
11
201.2978789999999947
21
-128.4664410000000032
0
LINE
8
BLACK
6
CONTINUOUS
10
201.2978789999999947
20
-128.4664410000000032
11
201.296323000000001
21
-128.4482849999999985
0
LINE
8
BLACK
6
CONTINUOUS
10
201.296323000000001
20
-128.4482849999999985
11
201.2795380000000023
21
-128.3585039999999822
0
LINE
8
BLACK
6
CONTINUOUS
10
201.2795380000000023
20
-128.3585039999999822
11
201.2531799999999862
21
-128.2817679999999996
0
LINE
8
BLACK
6
CONTINUOUS
10
201.2531799999999862
20
-128.2817679999999996
11
201.2156229999999937
21
-128.2172329999999931
0
LINE
8
BLACK
6
CONTINUOUS
10
201.2156229999999937
20
-128.2172329999999931
11
201.1652389999999855
21
-128.1640549999999905
0
LINE
8
BLACK
6
CONTINUOUS
10
201.1652389999999855
20
-128.1640549999999905
11
201.1004039999999975
21
-128.121389999999991
0
LINE
8
BLACK
6
CONTINUOUS
10
201.1004039999999975
20
-128.121389999999991
11
201.0194899999999905
21
-128.0883939999999939
0
LINE
8
BLACK
6
CONTINUOUS
10
201.0194899999999905
20
-128.0883939999999939
11
200.9208720000000028
21
-128.0642229999999984
0
LINE
8
BLACK
6
CONTINUOUS
10
200.9208720000000028
20
-128.0642229999999984
11
200.8029219999999953
21
-128.0480320000000063
0
LINE
8
BLACK
6
CONTINUOUS
10
200.8029219999999953
20
-128.0480320000000063
11
200.6640149999999778
21
-128.038977999999986
0
LINE
8
BLACK
6
CONTINUOUS
10
200.6640149999999778
20
-128.038977999999986
11
200.502523999999994
21
-128.0362169999999935
0
LINE
8
BLACK
6
CONTINUOUS
10
200.502523999999994
20
-128.0362169999999935
11
200.502365999999995
21
-128.0362169999999935
0
LINE
8
BLACK
6
CONTINUOUS
10
200.502365999999995
20
-128.0362169999999935
11
200.3632039999999961
21
-128.0378869999999836
0
LINE
8
BLACK
6
CONTINUOUS
10
200.3632039999999961
20
-128.0378869999999836
11
200.2445050000000037
21
-128.0430299999999875
0
LINE
8
BLACK
6
CONTINUOUS
10
200.2445050000000037
20
-128.0430299999999875
11
200.1420980000000043
21
-128.0521219999999971
0
LINE
8
BLACK
6
CONTINUOUS
10
200.1420980000000043
20
-128.0521219999999971
11
200.0518089999999916
21
-128.0656449999999893
0
LINE
8
BLACK
6
CONTINUOUS
10
200.0518089999999916
20
-128.0656449999999893
11
199.9694669999999803
21
-128.0840770000000077
0
LINE
8
BLACK
6
CONTINUOUS
10
199.9694669999999803
20
-128.0840770000000077
11
199.897437999999994
21
-128.1056829999999991
0
LINE
8
BLACK
6
CONTINUOUS
10
199.897437999999994
20
-128.1056829999999991
11
199.7881909999999834
21
-128.150195999999994
0
LINE
8
BLACK
6
CONTINUOUS
10
199.7881909999999834
20
-128.150195999999994
11
199.699735000000004
21
-128.204654000000005
0
LINE
8
BLACK
6
CONTINUOUS
10
199.699735000000004
20
-128.204654000000005
11
199.6291009999999915
21
-128.2718429999999898
0
LINE
8
BLACK
6
CONTINUOUS
10
199.6291009999999915
20
-128.2718429999999898
11
199.573317000000003
21
-128.3545489999999916
0
LINE
8
BLACK
6
CONTINUOUS
10
199.573317000000003
20
-128.3545489999999916
11
199.5319549999999822
21
-128.4484080000000006
0
LINE
8
BLACK
6
CONTINUOUS
10
199.5319549999999822
20
-128.4484080000000006
11
199.526001999999977
21
-128.4653500000000008
0
LINE
8
BLACK
6
CONTINUOUS
10
199.526001999999977
20
-128.4653500000000008
11
199.5209359999999776
21
-128.4819049999999834
0
LINE
8
BLACK
6
CONTINUOUS
10
199.5209359999999776
20
-128.4819049999999834
11
199.5166739999999947
21
-128.5001550000000066
0
LINE
8
BLACK
6
CONTINUOUS
10
199.5166739999999947
20
-128.5001550000000066
11
199.5131319999999846
21
-128.5221850000000074
0
LINE
8
BLACK
6
CONTINUOUS
10
199.5131319999999846
20
-128.5221850000000074
11
199.5102269999999862
21
-128.5500789999999824
0
LINE
8
BLACK
6
CONTINUOUS
10
199.5102269999999862
20
-128.5500789999999824
11
199.5078729999999894
21
-128.5859209999999848
0
LINE
8
BLACK
6
CONTINUOUS
10
199.5078729999999894
20
-128.5859209999999848
11
199.5059880000000021
21
-128.63179599999998
0
LINE
8
BLACK
6
CONTINUOUS
10
199.5059880000000021
20
-128.63179599999998
11
199.5044879999999807
21
-128.6897869999999955
0
LINE
8
BLACK
6
CONTINUOUS
10
199.5044879999999807
20
-128.6897869999999955
11
199.5032889999999952
21
-128.7619789999999966
0
LINE
8
BLACK
6
CONTINUOUS
10
199.5032889999999952
20
-128.7619789999999966
11
199.5023079999999993
21
-128.8504549999999824
0
LINE
8
BLACK
6
CONTINUOUS
10
199.5023079999999993
20
-128.8504549999999824
11
199.5014599999999803
21
-128.9573000000000036
0
LINE
8
BLACK
6
CONTINUOUS
10
199.5014599999999803
20
-128.9573000000000036
11
199.5006609999999796
21
-129.0845979999999997
0
LINE
8
BLACK
6
CONTINUOUS
10
199.5006609999999796
20
-129.0845979999999997
11
199.499828999999977
21
-129.2344319999999982
0
LINE
8
BLACK
6
CONTINUOUS
10
199.499828999999977
20
-129.2344319999999982
11
199.4997459999999876
21
-129.2497270000000071
0
LINE
8
BLACK
6
CONTINUOUS
10
199.4997459999999876
20
-129.2497270000000071
11
199.4958319999999787
21
-129.9725159999999846
0
LINE
8
BLACK
6
CONTINUOUS
10
199.4958319999999787
20
-129.9725159999999846
11
199.335250000000002
21
-129.9725159999999846
0
LINE
8
BLACK
6
CONTINUOUS
10
199.335250000000002
20
-129.9725159999999846
11
199.1746669999999995
21
-129.9725159999999846
0
LINE
8
BLACK
6
CONTINUOUS
10
199.1746669999999995
20
-129.9725159999999846
11
199.1746669999999995
21
-128.8805769999999882
0
LINE
8
BLACK
6
CONTINUOUS
10
199.1746669999999995
20
-128.8805769999999882
11
199.1746669999999995
21
-127.7886369999999943
0
LINE
8
BLACK
6
CONTINUOUS
10
199.1746669999999995
20
-127.7886369999999943
11
199.3359769999999855
21
-127.7886369999999943
0
LINE
8
BLACK
6
CONTINUOUS
10
199.3359769999999855
20
-127.7886369999999943
11
199.4972860000000026
21
-127.7886369999999943
0
LINE
8
BLACK
6
CONTINUOUS
10
199.4972860000000026
20
-127.7886369999999943
11
199.4972860000000026
21
-127.9888389999999987
0
LINE
8
BLACK
6
CONTINUOUS
10
199.4972860000000026
20
-127.9888389999999987
11
199.4972860000000026
21
-128.1890410000000031
0
LINE
8
BLACK
6
CONTINUOUS
10
199.4972860000000026
20
-128.1890410000000031
11
199.5406579999999792
21
-128.102343999999988
0
LINE
8
BLACK
6
CONTINUOUS
10
199.5406579999999792
20
-128.102343999999988
11
199.5932789999999954
21
-128.0150629999999978
0
LINE
8
BLACK
6
CONTINUOUS
10
199.5932789999999954
20
-128.0150629999999978
11
199.6574959999999805
21
-127.9424539999999979
0
LINE
8
BLACK
6
CONTINUOUS
10
199.6574959999999805
20
-127.9424539999999979
11
199.7354219999999998
21
-127.8833669999999927
0
LINE
8
BLACK
6
CONTINUOUS
10
199.7354219999999998
20
-127.8833669999999927
11
199.829168999999979
21
-127.8366549999999933
0
LINE
8
BLACK
6
CONTINUOUS
10
199.829168999999979
20
-127.8366549999999933
11
199.9408499999999833
21
-127.8011659999999949
0
LINE
8
BLACK
6
CONTINUOUS
10
199.9408499999999833
20
-127.8011659999999949
11
200.0725779999999929
21
-127.7757519999999971
0
LINE
8
BLACK
6
CONTINUOUS
10
200.0725779999999929
20
-127.7757519999999971
11
200.1606239999999843
21
-127.7650099999999895
0
LINE
8
BLACK
6
CONTINUOUS
10
200.1606239999999843
20
-127.7650099999999895
11
200.23052899999999
21
-127.7596789999999913
0
LINE
8
BLACK
6
CONTINUOUS
10
200.23052899999999
20
-127.7596789999999913
11
200.3170609999999954
21
-127.7557209999999941
0
LINE
8
BLACK
6
CONTINUOUS
10
200.3170609999999954
20
-127.7557209999999941
11
200.4147609999999986
21
-127.7531409999999994
0
LINE
8
BLACK
6
CONTINUOUS
10
200.4147609999999986
20
-127.7531409999999994
11
200.5181739999999877
21
-127.7519439999999946
0
LINE
8
BLACK
6
CONTINUOUS
10
200.5181739999999877
20
-127.7519439999999946
11
200.6218409999999892
21
-127.7521349999999956
0
LINE
8
BLACK
6
CONTINUOUS
10
213.1961619999999868
20
-128.4276700000000062
11
213.1961619999999868
21
-129.9725159999999846
0
LINE
8
BLACK
6
CONTINUOUS
10
213.1961619999999868
20
-129.9725159999999846
11
212.8921559999999999
21
-129.9725159999999846
0
LINE
8
BLACK
6
CONTINUOUS
10
212.8921559999999999
20
-129.9725159999999846
11
212.5881499999999846
21
-129.9725159999999846
0
LINE
8
BLACK
6
CONTINUOUS
10
212.5881499999999846
20
-129.9725159999999846
11
212.5881499999999846
21
-128.4276700000000062
0
LINE
8
BLACK
6
CONTINUOUS
10
212.5881499999999846
20
-128.4276700000000062
11
212.5881499999999846
21
-126.8828239999999994
0
LINE
8
BLACK
6
CONTINUOUS
10
212.5881499999999846
20
-126.8828239999999994
11
212.8921559999999999
21
-126.8828239999999994
0
LINE
8
BLACK
6
CONTINUOUS
10
212.8921559999999999
20
-126.8828239999999994
11
213.1961619999999868
21
-126.8828239999999994
0
LINE
8
BLACK
6
CONTINUOUS
10
213.1961619999999868
20
-126.8828239999999994
11
213.1961619999999868
21
-128.4276700000000062
0
LINE
8
BLACK
6
CONTINUOUS
10
217.4600059999999928
20
-127.8163529999999923
11
217.7908879999999954
21
-127.8196579999999898
0
LINE
8
BLACK
6
CONTINUOUS
10
217.7908879999999954
20
-127.8196579999999898
11
218.1048959999999965
21
-128.6680010000000038
0
LINE
8
BLACK
6
CONTINUOUS
10
218.1048959999999965
20
-128.6680010000000038
11
218.1561480000000017
21
-128.806365999999997
0
LINE
8
BLACK
6
CONTINUOUS
10
218.1561480000000017
20
-128.806365999999997
11
218.2049219999999821
21
-128.9378379999999993
0
LINE
8
BLACK
6
CONTINUOUS
10
218.2049219999999821
20
-128.9378379999999993
11
218.2505290000000002
21
-129.0605779999999925
0
LINE
8
BLACK
6
CONTINUOUS
10
218.2505290000000002
20
-129.0605779999999925
11
218.2922839999999951
21
-129.1727479999999844
0
LINE
8
BLACK
6
CONTINUOUS
10
218.2922839999999951
20
-129.1727479999999844
11
218.3294999999999959
21
-129.2725089999999852
0
LINE
8
BLACK
6
CONTINUOUS
10
218.3294999999999959
20
-129.2725089999999852
11
218.3614910000000009
21
-129.3580240000000003
0
LINE
8
BLACK
6
CONTINUOUS
10
218.3614910000000009
20
-129.3580240000000003
11
218.387568999999985
21
-129.4274539999999831
0
LINE
8
BLACK
6
CONTINUOUS
10
218.387568999999985
20
-129.4274539999999831
11
218.4070480000000032
21
-129.4789609999999982
0
LINE
8
BLACK
6
CONTINUOUS
10
218.4070480000000032
20
-129.4789609999999982
11
218.419241999999997
21
-129.510705999999999
0
LINE
8
BLACK
6
CONTINUOUS
10
218.419241999999997
20
-129.510705999999999
11
218.4234309999999937
21
-129.5208729999999946
0
LINE
8
BLACK
6
CONTINUOUS
10
218.4234309999999937
20
-129.5208729999999946
11
218.4283789999999783
21
-129.5102890000000002
0
LINE
8
BLACK
6
CONTINUOUS
10
218.4283789999999783
20
-129.5102890000000002
11
218.4412659999999846
21
-129.4782419999999945
0
LINE
8
BLACK
6
CONTINUOUS
10
218.4412659999999846
20
-129.4782419999999945
11
218.461404999999985
21
-129.4265379999999936
0
LINE
8
BLACK
6
CONTINUOUS
10
218.461404999999985
20
-129.4265379999999936
11
218.488112000000001
21
-129.3569839999999829
0
LINE
8
BLACK
6
CONTINUOUS
10
218.488112000000001
20
-129.3569839999999829
11
218.5206999999999766
21
-129.2713860000000068
0
LINE
8
BLACK
6
CONTINUOUS
10
218.5206999999999766
20
-129.2713860000000068
11
218.5584839999999929
21
-129.1715499999999963
0
LINE
8
BLACK
6
CONTINUOUS
10
218.5584839999999929
20
-129.1715499999999963
11
218.6007779999999912
21
-129.0592829999999935
0
LINE
8
BLACK
6
CONTINUOUS
10
218.6007779999999912
20
-129.0592829999999935
11
218.6468959999999981
21
-128.9363919999999837
0
LINE
8
BLACK
6
CONTINUOUS
10
218.6468959999999981
20
-128.9363919999999837
11
218.6961519999999837
21
-128.8046839999999804
0
LINE
8
BLACK
6
CONTINUOUS
10
218.6961519999999837
20
-128.8046839999999804
11
218.7454189999999983
21
-128.6725299999999947
0
LINE
8
BLACK
6
CONTINUOUS
10
218.7454189999999983
20
-128.6725299999999947
11
219.0628779999999836
21
-127.8196579999999898
0
LINE
8
BLACK
6
CONTINUOUS
10
219.0628779999999836
20
-127.8196579999999898
11
219.3960319999999911
21
-127.8165069999999872
0
LINE
8
BLACK
6
CONTINUOUS
10
219.3960319999999911
20
-127.8165069999999872
11
219.7291859999999986
21
-127.8133549999999872
0
LINE
8
BLACK
6
CONTINUOUS
10
219.7291859999999986
20
-127.8133549999999872
11
220.0451070000000016
21
-128.6690439999999853
0
LINE
8
BLACK
6
CONTINUOUS
10
220.0451070000000016
20
-128.6690439999999853
11
220.096414999999979
21
-128.8077679999999816
0
LINE
8
BLACK
6
CONTINUOUS
10
220.096414999999979
20
-128.8077679999999816
11
220.1452699999999822
21
-128.9393799999999999
0
LINE
8
BLACK
6
CONTINUOUS
10
220.1452699999999822
20
-128.9393799999999999
11
220.1909909999999968
21
-129.062074999999993
0
LINE
8
BLACK
6
CONTINUOUS
10
220.1909909999999968
20
-129.062074999999993
11
220.2328969999999799
21
-129.1740489999999966
0
LINE
8
BLACK
6
CONTINUOUS
10
220.2328969999999799
20
-129.1740489999999966
11
220.2703059999999766
21
-129.2734969999999919
0
LINE
8
BLACK
6
CONTINUOUS
10
220.2703059999999766
20
-129.2734969999999919
11
220.3025389999999959
21
-129.3586129999999912
0
LINE
8
BLACK
6
CONTINUOUS
10
220.3025389999999959
20
-129.3586129999999912
11
220.3289139999999975
21
-129.4275920000000042
0
LINE
8
BLACK
6
CONTINUOUS
10
220.3289139999999975
20
-129.4275920000000042
11
220.3487499999999955
21
-129.4786299999999812
0
LINE
8
BLACK
6
CONTINUOUS
10
220.3487499999999955
20
-129.4786299999999812
11
220.3613660000000039
21
-129.5099209999999914
0
LINE
8
BLACK
6
CONTINUOUS
10
220.3613660000000039
20
-129.5099209999999914
11
220.3660569999999836
21
-129.5197039999999902
0
LINE
8
BLACK
6
CONTINUOUS
10
220.3660569999999836
20
-129.5197039999999902
11
220.37115399999999
21
-129.5075620000000072
0
LINE
8
BLACK
6
CONTINUOUS
10
220.37115399999999
20
-129.5075620000000072
11
220.3843069999999784
21
-129.4740329999999915
0
LINE
8
BLACK
6
CONTINUOUS
10
220.3843069999999784
20
-129.4740329999999915
11
220.404814999999985
21
-129.4209510000000023
0
LINE
8
BLACK
6
CONTINUOUS
10
220.404814999999985
20
-129.4209510000000023
11
220.4319789999999841
21
-129.3501489999999876
0
LINE
8
BLACK
6
CONTINUOUS
10
220.4319789999999841
20
-129.3501489999999876
11
220.4650999999999783
21
-129.2634610000000066
0
LINE
8
BLACK
6
CONTINUOUS
10
220.4650999999999783
20
-129.2634610000000066
11
220.5034780000000012
21
-129.1627200000000073
0
LINE
8
BLACK
6
CONTINUOUS
10
220.5034780000000012
20
-129.1627200000000073
11
220.5464120000000037
21
-129.049761999999987
0
LINE
8
BLACK
6
CONTINUOUS
10
220.5464120000000037
20
-129.049761999999987
11
220.5932039999999859
21
-128.9264189999999815
0
LINE
8
BLACK
6
CONTINUOUS
10
220.5932039999999859
20
-128.9264189999999815
11
220.6431539999999814
21
-128.7945259999999905
0
LINE
8
BLACK
6
CONTINUOUS
10
220.6431539999999814
20
-128.7945259999999905
11
220.6913119999999822
21
-128.6671659999999804
0
LINE
8
BLACK
6
CONTINUOUS
10
220.6913119999999822
20
-128.6671659999999804
11
221.0115370000000041
21
-127.8196579999999898
0
LINE
8
BLACK
6
CONTINUOUS
10
221.0115370000000041
20
-127.8196579999999898
11
221.3395109999999875
21
-127.8163569999999964
0
LINE
8
BLACK
6
CONTINUOUS
10
221.3395109999999875
20
-127.8163569999999964
11
221.6674859999999967
21
-127.8130559999999889
0
LINE
8
BLACK
6
CONTINUOUS
10
221.6674859999999967
20
-127.8130559999999889
11
221.2322679999999764
21
-128.892786000000001
0
LINE
8
BLACK
6
CONTINUOUS
10
221.2322679999999764
20
-128.892786000000001
11
220.797050999999982
21
-129.9725159999999846
0
LINE
8
BLACK
6
CONTINUOUS
10
220.797050999999982
20
-129.9725159999999846
11
220.3685899999999833
21
-129.9724420000000009
0
LINE
8
BLACK
6
CONTINUOUS
10
220.3685899999999833
20
-129.9724420000000009
11
219.9401289999999847
21
-129.9723679999999888
0
LINE
8
BLACK
6
CONTINUOUS
10
219.9401289999999847
20
-129.9723679999999888
11
219.680657999999994
21
-129.2415309999999806
0
LINE
8
BLACK
6
CONTINUOUS
10
219.680657999999994
20
-129.2415309999999806
11
219.6346549999999809
21
-129.1120530000000031
0
LINE
8
BLACK
6
CONTINUOUS
10
219.6346549999999809
20
-129.1120530000000031
11
219.5908299999999826
21
-128.9888890000000004
0
LINE
8
BLACK
6
CONTINUOUS
10
219.5908299999999826
20
-128.9888890000000004
11
219.5499329999999816
21
-128.8741369999999904
0
LINE
8
BLACK
6
CONTINUOUS
10
219.5499329999999816
20
-128.8741369999999904
11
219.5127159999999833
21
-128.7698959999999886
0
LINE
8
BLACK
6
CONTINUOUS
10
219.5127159999999833
20
-128.7698959999999886
11
219.479928000000001
21
-128.6782619999999895
0
LINE
8
BLACK
6
CONTINUOUS
10
219.479928000000001
20
-128.6782619999999895
11
219.4523209999999835
21
-128.6013339999999801
0
LINE
8
BLACK
6
CONTINUOUS
10
219.4523209999999835
20
-128.6013339999999801
11
219.4306469999999933
21
-128.5412100000000066
0
LINE
8
BLACK
6
CONTINUOUS
10
219.4306469999999933
20
-128.5412100000000066
11
219.4156539999999893
21
-128.4999889999999994
0
LINE
8
BLACK
6
CONTINUOUS
10
219.4156539999999893
20
-128.4999889999999994
11
219.408095000000003
21
-128.4797669999999812
0
LINE
8
BLACK
6
CONTINUOUS
10
219.408095000000003
20
-128.4797669999999812
11
219.4076729999999884
21
-128.4787320000000079
0
LINE
8
BLACK
6
CONTINUOUS
10
219.4076729999999884
20
-128.4787320000000079
11
219.4042829999999924
21
-128.4741829999999823
0
LINE
8
BLACK
6
CONTINUOUS
10
219.4042829999999924
20
-128.4741829999999823
11
219.3995379999999784
21
-128.4753649999999823
0
LINE
8
BLACK
6
CONTINUOUS
10
219.3995379999999784
20
-128.4753649999999823
11
219.3928259999999852
21
-128.483824999999996
0
LINE
8
BLACK
6
CONTINUOUS
10
219.3928259999999852
20
-128.483824999999996
11
219.3835349999999949
21
-128.5011109999999803
0
LINE
8
BLACK
6
CONTINUOUS
10
219.3835349999999949
20
-128.5011109999999803
11
219.3710529999999892
21
-128.5287710000000061
0
LINE
8
BLACK
6
CONTINUOUS
10
219.3710529999999892
20
-128.5287710000000061
11
219.3547679999999787
21
-128.5683539999999994
0
LINE
8
BLACK
6
CONTINUOUS
10
219.3547679999999787
20
-128.5683539999999994
11
219.3340689999999995
21
-128.6214070000000049
0
LINE
8
BLACK
6
CONTINUOUS
10
219.3340689999999995
20
-128.6214070000000049
11
219.3083419999999819
21
-128.6894780000000083
0
LINE
8
BLACK
6
CONTINUOUS
10
219.3083419999999819
20
-128.6894780000000083
11
219.2769759999999906
21
-128.7741149999999948
0
LINE
8
BLACK
6
CONTINUOUS
10
219.2769759999999906
20
-128.7741149999999948
11
219.239358999999979
21
-128.8768660000000068
0
LINE
8
BLACK
6
CONTINUOUS
10
219.239358999999979
20
-128.8768660000000068
11
219.1948799999999835
21
-128.9992799999999988
0
LINE
8
BLACK
6
CONTINUOUS
10
219.1948799999999835
20
-128.9992799999999988
11
219.1429249999999911
21
-129.1429039999999873
0
LINE
8
BLACK
6
CONTINUOUS
10
219.1429249999999911
20
-129.1429039999999873
11
219.1199489999999912
21
-129.2065409999999872
0
LINE
8
BLACK
6
CONTINUOUS
10
219.1199489999999912
20
-129.2065409999999872
11
218.8457389999999805
21
-129.9663119999999878
0
LINE
8
BLACK
6
CONTINUOUS
10
218.8457389999999805
20
-129.9663119999999878
11
218.4228090000000009
21
-129.9695759999999893
0
LINE
8
BLACK
6
CONTINUOUS
10
218.4228090000000009
20
-129.9695759999999893
11
218.3228629999999839
21
-129.9700780000000009
0
LINE
8
BLACK
6
CONTINUOUS
10
218.3228629999999839
20
-129.9700780000000009
11
218.2310080000000028
21
-129.9700220000000002
0
LINE
8
BLACK
6
CONTINUOUS
10
218.2310080000000028
20
-129.9700220000000002
11
218.1501409999999908
21
-129.9694509999999923
0
LINE
8
BLACK
6
CONTINUOUS
10
218.1501409999999908
20
-129.9694509999999923
11
218.0831589999999949
21
-129.96840499999999
0
LINE
8
BLACK
6
CONTINUOUS
10
218.0831589999999949
20
-129.96840499999999
11
218.0329569999999819
21
-129.9669260000000008
0
LINE
8
BLACK
6
CONTINUOUS
10
218.0329569999999819
20
-129.9669260000000008
11
218.0024339999999938
21
-129.9650579999999991
0
LINE
8
BLACK
6
CONTINUOUS
10
218.0024339999999938
20
-129.9650579999999991
11
217.9941579999999988
21
-129.9633719999999926
0
LINE
8
BLACK
6
CONTINUOUS
10
217.9941579999999988
20
-129.9633719999999926
11
217.9887959999999794
21
-129.9506999999999834
0
LINE
8
BLACK
6
CONTINUOUS
10
217.9887959999999794
20
-129.9506999999999834
11
217.9748819999999796
21
-129.9166429999999934
0
LINE
8
BLACK
6
CONTINUOUS
10
217.9748819999999796
20
-129.9166429999999934
11
217.9530819999999949
21
-129.8628589999999861
0
LINE
8
BLACK
6
CONTINUOUS
10
217.9530819999999949
20
-129.8628589999999861
11
217.9240619999999922
21
-129.7910029999999892
0
LINE
8
BLACK
6
CONTINUOUS
10
217.9240619999999922
20
-129.7910029999999892
11
217.8884889999999928
21
-129.7027319999999975
0
LINE
8
BLACK
6
CONTINUOUS
10
217.8884889999999928
20
-129.7027319999999975
11
217.847028999999992
21
-129.5997020000000077
0
LINE
8
BLACK
6
CONTINUOUS
10
217.847028999999992
20
-129.5997020000000077
11
217.8003499999999804
21
-129.4835709999999835
0
LINE
8
BLACK
6
CONTINUOUS
10
217.8003499999999804
20
-129.4835709999999835
11
217.749116999999984
21
-129.3559929999999838
0
LINE
8
BLACK
6
CONTINUOUS
10
217.749116999999984
20
-129.3559929999999838
11
217.693996999999996
21
-129.2186260000000004
0
LINE
8
BLACK
6
CONTINUOUS
10
217.693996999999996
20
-129.2186260000000004
11
217.6356579999999781
21
-129.0731269999999995
0
LINE
8
BLACK
6
CONTINUOUS
10
217.6356579999999781
20
-129.0731269999999995
11
217.5783929999999771
21
-128.9302099999999882
0
LINE
8
BLACK
6
CONTINUOUS
10
217.5783929999999771
20
-128.9302099999999882
11
217.5172369999999944
21
-128.7775539999999808
0
LINE
8
BLACK
6
CONTINUOUS
10
217.5172369999999944
20
-128.7775539999999808
11
217.4584030000000041
21
-128.6307449999999903
0
LINE
8
BLACK
6
CONTINUOUS
10
217.4584030000000041
20
-128.6307449999999903
11
217.4025900000000036
21
-128.4915189999999825
0
LINE
8
BLACK
6
CONTINUOUS
10
217.4025900000000036
20
-128.4915189999999825
11
217.3504939999999976
21
-128.3616150000000005
0
LINE
8
BLACK
6
CONTINUOUS
10
217.3504939999999976
20
-128.3616150000000005
11
217.3028129999999862
21
-128.2427679999999839
0
LINE
8
BLACK
6
CONTINUOUS
10
217.3028129999999862
20
-128.2427679999999839
11
217.2602440000000001
21
-128.1367160000000069
0
LINE
8
BLACK
6
CONTINUOUS
10
217.2602440000000001
20
-128.1367160000000069
11
217.2234839999999849
21
-128.0451960000000042
0
LINE
8
BLACK
6
CONTINUOUS
10
217.2234839999999849
20
-128.0451960000000042
11
217.1932299999999998
21
-127.9699449999999956
0
LINE
8
BLACK
6
CONTINUOUS
10
217.1932299999999998
20
-127.9699449999999956
11
217.1701799999999878
21
-127.9127009999999984
0
LINE
8
BLACK
6
CONTINUOUS
10
217.1701799999999878
20
-127.9127009999999984
11
217.1550309999999797
21
-127.875198999999995
0
LINE
8
BLACK
6
CONTINUOUS
10
217.1550309999999797
20
-127.875198999999995
11
217.1487369999999828
21
-127.8597829999999931
0
LINE
8
BLACK
6
CONTINUOUS
10
217.1487369999999828
20
-127.8597829999999931
11
217.1291229999999928
21
-127.8130479999999949
0
LINE
8
BLACK
6
CONTINUOUS
10
217.1291229999999928
20
-127.8130479999999949
11
217.4600059999999928
21
-127.8163529999999923
0
LINE
8
BLACK
6
CONTINUOUS
10
198.4301629999999932
20
-127.0751539999999977
11
198.4301629999999932
21
-127.2798930000000013
0
LINE
8
BLACK
6
CONTINUOUS
10
198.4301629999999932
20
-127.2798930000000013
11
198.2688540000000046
21
-127.2798930000000013
0
LINE
8
BLACK
6
CONTINUOUS
10
198.2688540000000046
20
-127.2798930000000013
11
198.1075449999999876
21
-127.2798930000000013
0
LINE
8
BLACK
6
CONTINUOUS
10
198.1075449999999876
20
-127.2798930000000013
11
198.1075449999999876
21
-127.0751539999999977
0
LINE
8
BLACK
6
CONTINUOUS
10
198.1075449999999876
20
-127.0751539999999977
11
198.1075449999999876
21
-126.8704159999999916
0
LINE
8
BLACK
6
CONTINUOUS
10
198.1075449999999876
20
-126.8704159999999916
11
198.2688540000000046
21
-126.8704159999999916
0
LINE
8
BLACK
6
CONTINUOUS
10
198.2688540000000046
20
-126.8704159999999916
11
198.4301629999999932
21
-126.8704159999999916
0
LINE
8
BLACK
6
CONTINUOUS
10
198.4301629999999932
20
-126.8704159999999916
11
198.4301629999999932
21
-127.0751539999999977
0
LINE
8
BLACK
6
CONTINUOUS
10
108.019133999999994
20
-120.9538060000000002
11
108.0461939999999998
21
-120.9808659999999918
0
LINE
8
BLACK
6
CONTINUOUS
10
108.0461939999999998
20
-120.9808659999999918
11
108.0461939999999998
21
-121.019133999999994
0
LINE
8
BLACK
6
CONTINUOUS
10
108.0461939999999998
20
-121.019133999999994
11
108.019133999999994
21
-121.0461939999999998
0
LINE
8
BLACK
6
CONTINUOUS
10
108.019133999999994
20
-121.0461939999999998
11
108.
21
-121.0499999999999972
0
LINE
8
BLACK
6
CONTINUOUS
10
108.
20
-121.0499999999999972
11
78.
21
-121.0499999999999972
0
LINE
8
BLACK
6
CONTINUOUS
10
78.
20
-121.0499999999999972
11
77.9808659999999918
21
-121.0461939999999998
0
LINE
8
BLACK
6
CONTINUOUS
10
77.9808659999999918
20
-121.0461939999999998
11
77.9538060000000002
21
-121.019133999999994
0
LINE
8
BLACK
6
CONTINUOUS
10
77.9538060000000002
20
-121.019133999999994
11
77.9538060000000002
21
-120.9808659999999918
0
LINE
8
BLACK
6
CONTINUOUS
10
77.9538060000000002
20
-120.9808659999999918
11
77.9808659999999918
21
-120.9538060000000002
0
LINE
8
BLACK
6
CONTINUOUS
10
77.9808659999999918
20
-120.9538060000000002
11
78.
21
-120.9499999999999886
0
LINE
8
BLACK
6
CONTINUOUS
10
78.
20
-120.9499999999999886
11
108.
21
-120.9499999999999886
0
LINE
8
BLACK
6
CONTINUOUS
10
108.
20
-120.9499999999999886
11
108.019133999999994
21
-120.9538060000000002
  0
ENDSEC
  0
EOF
