%TF.GenerationSoftware,KiCad,Pcbnew,9.0.6-9.0.6~ubuntu24.04.1*%
%TF.CreationDate,2025-12-08T22:33:50+01:00*%
%TF.ProjectId,7_seg_led_tht_3mm,375f7365-675f-46c6-9564-5f7468745f33,rev?*%
%TF.SameCoordinates,Original*%
%TF.FileFunction,Soldermask,Bot*%
%TF.FilePolarity,Negative*%
%FSLAX46Y46*%
G04 Gerber Fmt 4.6, Leading zero omitted, Abs format (unit mm)*
G04 Created by KiCad (PCBNEW 9.0.6-9.0.6~ubuntu24.04.1) date 2025-12-08 22:33:50*
%MOMM*%
%LPD*%
G01*
G04 APERTURE LIST*
G04 Aperture macros list*
%AMRoundRect*
0 Rectangle with rounded corners*
0 $1 Rounding radius*
0 $2 $3 $4 $5 $6 $7 $8 $9 X,Y pos of 4 corners*
0 Add a 4 corners polygon primitive as box body*
4,1,4,$2,$3,$4,$5,$6,$7,$8,$9,$2,$3,0*
0 Add four circle primitives for the rounded corners*
1,1,$1+$1,$2,$3*
1,1,$1+$1,$4,$5*
1,1,$1+$1,$6,$7*
1,1,$1+$1,$8,$9*
0 Add four rect primitives between the rounded corners*
20,1,$1+$1,$2,$3,$4,$5,0*
20,1,$1+$1,$4,$5,$6,$7,0*
20,1,$1+$1,$6,$7,$8,$9,0*
20,1,$1+$1,$8,$9,$2,$3,0*%
%AMFreePoly0*
4,1,23,0.500000,-0.750000,0.000000,-0.750000,0.000000,-0.745722,-0.065263,-0.745722,-0.191342,-0.711940,-0.304381,-0.646677,-0.396677,-0.554381,-0.461940,-0.441342,-0.495722,-0.315263,-0.495722,-0.250000,-0.500000,-0.250000,-0.500000,0.250000,-0.495722,0.250000,-0.495722,0.315263,-0.461940,0.441342,-0.396677,0.554381,-0.304381,0.646677,-0.191342,0.711940,-0.065263,0.745722,0.000000,0.745722,
0.000000,0.750000,0.500000,0.750000,0.500000,-0.750000,0.500000,-0.750000,$1*%
%AMFreePoly1*
4,1,23,0.000000,0.745722,0.065263,0.745722,0.191342,0.711940,0.304381,0.646677,0.396677,0.554381,0.461940,0.441342,0.495722,0.315263,0.495722,0.250000,0.500000,0.250000,0.500000,-0.250000,0.495722,-0.250000,0.495722,-0.315263,0.461940,-0.441342,0.396677,-0.554381,0.304381,-0.646677,0.191342,-0.711940,0.065263,-0.745722,0.000000,-0.745722,0.000000,-0.750000,-0.500000,-0.750000,
-0.500000,0.750000,0.000000,0.750000,0.000000,0.745722,0.000000,0.745722,$1*%
G04 Aperture macros list end*
%ADD10RoundRect,0.250000X0.262500X0.450000X-0.262500X0.450000X-0.262500X-0.450000X0.262500X-0.450000X0*%
%ADD11R,1.800000X1.800000*%
%ADD12C,1.800000*%
%ADD13FreePoly0,90.000000*%
%ADD14FreePoly1,90.000000*%
%ADD15RoundRect,0.250000X-0.262500X-0.450000X0.262500X-0.450000X0.262500X0.450000X-0.262500X0.450000X0*%
%ADD16FreePoly1,270.000000*%
%ADD17FreePoly0,270.000000*%
%ADD18RoundRect,0.250000X-0.450000X0.262500X-0.450000X-0.262500X0.450000X-0.262500X0.450000X0.262500X0*%
%ADD19RoundRect,0.200000X0.200000X0.275000X-0.200000X0.275000X-0.200000X-0.275000X0.200000X-0.275000X0*%
%ADD20RoundRect,0.150000X0.150000X-0.587500X0.150000X0.587500X-0.150000X0.587500X-0.150000X-0.587500X0*%
%ADD21RoundRect,0.150000X-0.587500X-0.150000X0.587500X-0.150000X0.587500X0.150000X-0.587500X0.150000X0*%
%ADD22RoundRect,0.150000X0.150000X-0.725000X0.150000X0.725000X-0.150000X0.725000X-0.150000X-0.725000X0*%
%ADD23RoundRect,0.250000X0.450000X-0.262500X0.450000X0.262500X-0.450000X0.262500X-0.450000X-0.262500X0*%
%ADD24FreePoly1,0.000000*%
%ADD25FreePoly0,0.000000*%
%ADD26RoundRect,0.200000X-0.200000X-0.275000X0.200000X-0.275000X0.200000X0.275000X-0.200000X0.275000X0*%
%ADD27FreePoly1,180.000000*%
%ADD28FreePoly0,180.000000*%
%ADD29RoundRect,0.200000X0.275000X-0.200000X0.275000X0.200000X-0.275000X0.200000X-0.275000X-0.200000X0*%
%ADD30RoundRect,0.225000X0.225000X0.250000X-0.225000X0.250000X-0.225000X-0.250000X0.225000X-0.250000X0*%
%ADD31RoundRect,0.150000X0.587500X0.150000X-0.587500X0.150000X-0.587500X-0.150000X0.587500X-0.150000X0*%
%ADD32RoundRect,0.150000X-0.150000X0.587500X-0.150000X-0.587500X0.150000X-0.587500X0.150000X0.587500X0*%
%ADD33RoundRect,0.200000X-0.275000X0.200000X-0.275000X-0.200000X0.275000X-0.200000X0.275000X0.200000X0*%
G04 APERTURE END LIST*
%TO.C,JP4*%
G36*
X197750000Y-112900000D02*
G01*
X196250000Y-112900000D01*
X196250000Y-112600000D01*
X197750000Y-112600000D01*
X197750000Y-112900000D01*
G37*
%TO.C,JP7*%
G36*
X196250000Y-97100000D02*
G01*
X197750000Y-97100000D01*
X197750000Y-97400000D01*
X196250000Y-97400000D01*
X196250000Y-97100000D01*
G37*
%TO.C,JP6*%
G36*
X189100000Y-81750000D02*
G01*
X189400000Y-81750000D01*
X189400000Y-80250000D01*
X189100000Y-80250000D01*
X189100000Y-81750000D01*
G37*
%TO.C,JP3*%
G36*
X204900000Y-104250000D02*
G01*
X204600000Y-104250000D01*
X204600000Y-105750000D01*
X204900000Y-105750000D01*
X204900000Y-104250000D01*
G37*
%TO.C,JP5*%
G36*
X189100000Y-105750000D02*
G01*
X189400000Y-105750000D01*
X189400000Y-104250000D01*
X189100000Y-104250000D01*
X189100000Y-105750000D01*
G37*
%TO.C,JP8*%
G36*
X189250000Y-70150000D02*
G01*
X187750000Y-70150000D01*
X187750000Y-69850000D01*
X189250000Y-69850000D01*
X189250000Y-70150000D01*
G37*
%TO.C,JP2*%
G36*
X204900000Y-80250000D02*
G01*
X204600000Y-80250000D01*
X204600000Y-81750000D01*
X204900000Y-81750000D01*
X204900000Y-80250000D01*
G37*
%TO.C,JP1*%
G36*
X198500000Y-73400000D02*
G01*
X197000000Y-73400000D01*
X197000000Y-73100000D01*
X198500000Y-73100000D01*
X198500000Y-73400000D01*
G37*
%TD*%
D10*
%TO.C,R24*%
X223087500Y-82250000D03*
X224912500Y-82250000D03*
%TD*%
%TO.C,R23*%
X223087500Y-79300000D03*
X224912500Y-79300000D03*
%TD*%
D11*
%TO.C,D16*%
X217580000Y-86030000D03*
D12*
X220120000Y-86030000D03*
%TD*%
D11*
%TO.C,D15*%
X217580000Y-80560000D03*
D12*
X220120000Y-80560000D03*
%TD*%
%TO.C,D11*%
X210270000Y-77000000D03*
D11*
X207730000Y-77000000D03*
%TD*%
D13*
%TO.C,JP4*%
X197000000Y-113400000D03*
D14*
X197000000Y-112100000D03*
%TD*%
D15*
%TO.C,R20*%
X205662500Y-100750000D03*
X203837500Y-100750000D03*
%TD*%
D10*
%TO.C,R12*%
X188337500Y-103250000D03*
X190162500Y-103250000D03*
%TD*%
D16*
%TO.C,JP7*%
X197000000Y-97900000D03*
D17*
X197000000Y-96600000D03*
%TD*%
D18*
%TO.C,R18*%
X201250000Y-111837500D03*
X201250000Y-113662500D03*
%TD*%
D10*
%TO.C,R11*%
X188337500Y-85250000D03*
X190162500Y-85250000D03*
%TD*%
D19*
%TO.C,R5*%
X187425000Y-111250000D03*
X189075000Y-111250000D03*
%TD*%
D20*
%TO.C,Q8*%
X185250000Y-69062500D03*
X184300000Y-70937500D03*
X186200000Y-70937500D03*
%TD*%
D12*
%TO.C,D2*%
X183730000Y-101000000D03*
D11*
X186270000Y-101000000D03*
%TD*%
D12*
%TO.C,D8*%
X201000000Y-91730000D03*
D11*
X201000000Y-94270000D03*
%TD*%
D21*
%TO.C,Q4*%
X192812500Y-113700000D03*
X192812500Y-111800000D03*
X194687500Y-112750000D03*
%TD*%
D15*
%TO.C,R22*%
X205662500Y-102750000D03*
X203837500Y-102750000D03*
%TD*%
D12*
%TO.C,D4*%
X183730000Y-109000000D03*
D11*
X186270000Y-109000000D03*
%TD*%
D12*
%TO.C,D14*%
X210270000Y-109000000D03*
D11*
X207730000Y-109000000D03*
%TD*%
D22*
%TO.C,U1*%
X201445000Y-78425000D03*
X200175000Y-78425000D03*
X198905000Y-78425000D03*
X197635000Y-78425000D03*
X196365000Y-78425000D03*
X195095000Y-78425000D03*
X193825000Y-78425000D03*
X192555000Y-78425000D03*
X192555000Y-83575000D03*
X193825000Y-83575000D03*
X195095000Y-83575000D03*
X196365000Y-83575000D03*
X197635000Y-83575000D03*
X198905000Y-83575000D03*
X200175000Y-83575000D03*
X201445000Y-83575000D03*
%TD*%
D23*
%TO.C,R15*%
X192750000Y-96337500D03*
X192750000Y-98162500D03*
%TD*%
D18*
%TO.C,R17*%
X199250000Y-111837500D03*
X199250000Y-113662500D03*
%TD*%
D20*
%TO.C,Q5*%
X189250000Y-107312500D03*
X188300000Y-109187500D03*
X190200000Y-109187500D03*
%TD*%
D24*
%TO.C,JP6*%
X189900000Y-81000000D03*
D25*
X188600000Y-81000000D03*
%TD*%
D26*
%TO.C,R6*%
X190075000Y-74750000D03*
X188425000Y-74750000D03*
%TD*%
D23*
%TO.C,R16*%
X194750000Y-96337500D03*
X194750000Y-98162500D03*
%TD*%
D19*
%TO.C,R2*%
X203925000Y-87250000D03*
X205575000Y-87250000D03*
%TD*%
D12*
%TO.C,D7*%
X193000000Y-91730000D03*
D11*
X193000000Y-94270000D03*
%TD*%
D12*
%TO.C,D6*%
X201000000Y-67730000D03*
D11*
X201000000Y-70270000D03*
%TD*%
D27*
%TO.C,JP3*%
X204100000Y-105000000D03*
D28*
X205400000Y-105000000D03*
%TD*%
D29*
%TO.C,R4*%
X190750000Y-113575000D03*
X190750000Y-111925000D03*
%TD*%
D12*
%TO.C,D1*%
X183730000Y-77000000D03*
D11*
X186270000Y-77000000D03*
%TD*%
D19*
%TO.C,R3*%
X203925000Y-111250000D03*
X205575000Y-111250000D03*
%TD*%
D20*
%TO.C,Q2*%
X204750000Y-83312500D03*
X203800000Y-85187500D03*
X205700000Y-85187500D03*
%TD*%
D12*
%TO.C,D13*%
X210270000Y-85000000D03*
D11*
X207730000Y-85000000D03*
%TD*%
D12*
%TO.C,D5*%
X193000000Y-67730000D03*
D11*
X193000000Y-70270000D03*
%TD*%
D12*
%TO.C,D10*%
X201000000Y-118270000D03*
D11*
X201000000Y-115730000D03*
%TD*%
D10*
%TO.C,R10*%
X190162500Y-101000000D03*
X188337500Y-101000000D03*
%TD*%
D24*
%TO.C,JP5*%
X189900000Y-105000000D03*
D25*
X188600000Y-105000000D03*
%TD*%
D14*
%TO.C,JP8*%
X188500000Y-69350000D03*
D13*
X188500000Y-70650000D03*
%TD*%
D30*
%TO.C,C1*%
X199975000Y-126750000D03*
X201525000Y-126750000D03*
%TD*%
D12*
%TO.C,D3*%
X183730000Y-85000000D03*
D11*
X186270000Y-85000000D03*
%TD*%
D12*
%TO.C,D12*%
X210270000Y-101000000D03*
D11*
X207730000Y-101000000D03*
%TD*%
D20*
%TO.C,Q3*%
X204750000Y-107312500D03*
X203800000Y-109187500D03*
X205700000Y-109187500D03*
%TD*%
D31*
%TO.C,Q7*%
X199312500Y-97250000D03*
X201187500Y-98200000D03*
X201187500Y-96300000D03*
%TD*%
D27*
%TO.C,JP2*%
X204100000Y-81000000D03*
D28*
X205400000Y-81000000D03*
%TD*%
D32*
%TO.C,Q6*%
X189250000Y-78687500D03*
X190200000Y-76812500D03*
X188300000Y-76812500D03*
%TD*%
D12*
%TO.C,D9*%
X193000000Y-118270000D03*
D11*
X193000000Y-115730000D03*
%TD*%
D10*
%TO.C,R9*%
X188337500Y-83250000D03*
X190162500Y-83250000D03*
%TD*%
D15*
%TO.C,R19*%
X203837500Y-76750000D03*
X205662500Y-76750000D03*
%TD*%
D33*
%TO.C,R7*%
X203250000Y-98075000D03*
X203250000Y-96425000D03*
%TD*%
D15*
%TO.C,R21*%
X203837500Y-78750000D03*
X205662500Y-78750000D03*
%TD*%
D19*
%TO.C,R8*%
X184475000Y-72937500D03*
X186125000Y-72937500D03*
%TD*%
D29*
%TO.C,R1*%
X191750000Y-72425000D03*
X191750000Y-74075000D03*
%TD*%
D14*
%TO.C,JP1*%
X197750000Y-72600000D03*
D13*
X197750000Y-73900000D03*
%TD*%
D21*
%TO.C,Q1*%
X193562500Y-74200000D03*
X193562500Y-72300000D03*
X195437500Y-73250000D03*
%TD*%
D23*
%TO.C,R13*%
X200000000Y-72337500D03*
X200000000Y-74162500D03*
%TD*%
%TO.C,R14*%
X202000000Y-72337500D03*
X202000000Y-74162500D03*
%TD*%
M02*
