%TF.GenerationSoftware,KiCad,Pcbnew,9.0.6-9.0.6~ubuntu24.04.1*%
%TF.CreationDate,2025-12-08T22:33:50+01:00*%
%TF.ProjectId,7_seg_led_tht_3mm,375f7365-675f-46c6-9564-5f7468745f33,rev?*%
%TF.SameCoordinates,Original*%
%TF.FileFunction,Copper,L2,Bot*%
%TF.FilePolarity,Positive*%
%FSLAX46Y46*%
G04 Gerber Fmt 4.6, Leading zero omitted, Abs format (unit mm)*
G04 Created by KiCad (PCBNEW 9.0.6-9.0.6~ubuntu24.04.1) date 2025-12-08 22:33:50*
%MOMM*%
%LPD*%
G01*
G04 APERTURE LIST*
G04 Aperture macros list*
%AMRoundRect*
0 Rectangle with rounded corners*
0 $1 Rounding radius*
0 $2 $3 $4 $5 $6 $7 $8 $9 X,Y pos of 4 corners*
0 Add a 4 corners polygon primitive as box body*
4,1,4,$2,$3,$4,$5,$6,$7,$8,$9,$2,$3,0*
0 Add four circle primitives for the rounded corners*
1,1,$1+$1,$2,$3*
1,1,$1+$1,$4,$5*
1,1,$1+$1,$6,$7*
1,1,$1+$1,$8,$9*
0 Add four rect primitives between the rounded corners*
20,1,$1+$1,$2,$3,$4,$5,0*
20,1,$1+$1,$4,$5,$6,$7,0*
20,1,$1+$1,$6,$7,$8,$9,0*
20,1,$1+$1,$8,$9,$2,$3,0*%
%AMFreePoly0*
4,1,23,0.500000,-0.750000,0.000000,-0.750000,0.000000,-0.745722,-0.065263,-0.745722,-0.191342,-0.711940,-0.304381,-0.646677,-0.396677,-0.554381,-0.461940,-0.441342,-0.495722,-0.315263,-0.495722,-0.250000,-0.500000,-0.250000,-0.500000,0.250000,-0.495722,0.250000,-0.495722,0.315263,-0.461940,0.441342,-0.396677,0.554381,-0.304381,0.646677,-0.191342,0.711940,-0.065263,0.745722,0.000000,0.745722,
0.000000,0.750000,0.500000,0.750000,0.500000,-0.750000,0.500000,-0.750000,$1*%
%AMFreePoly1*
4,1,23,0.000000,0.745722,0.065263,0.745722,0.191342,0.711940,0.304381,0.646677,0.396677,0.554381,0.461940,0.441342,0.495722,0.315263,0.495722,0.250000,0.500000,0.250000,0.500000,-0.250000,0.495722,-0.250000,0.495722,-0.315263,0.461940,-0.441342,0.396677,-0.554381,0.304381,-0.646677,0.191342,-0.711940,0.065263,-0.745722,0.000000,-0.745722,0.000000,-0.750000,-0.500000,-0.750000,
-0.500000,0.750000,0.000000,0.750000,0.000000,0.745722,0.000000,0.745722,$1*%
G04 Aperture macros list end*
%TA.AperFunction,SMDPad,CuDef*%
%ADD10RoundRect,0.250000X0.262500X0.450000X-0.262500X0.450000X-0.262500X-0.450000X0.262500X-0.450000X0*%
%TD*%
%TA.AperFunction,ComponentPad*%
%ADD11R,1.800000X1.800000*%
%TD*%
%TA.AperFunction,ComponentPad*%
%ADD12C,1.800000*%
%TD*%
%TA.AperFunction,SMDPad,CuDef*%
%ADD13FreePoly0,90.000000*%
%TD*%
%TA.AperFunction,SMDPad,CuDef*%
%ADD14FreePoly1,90.000000*%
%TD*%
%TA.AperFunction,SMDPad,CuDef*%
%ADD15RoundRect,0.250000X-0.262500X-0.450000X0.262500X-0.450000X0.262500X0.450000X-0.262500X0.450000X0*%
%TD*%
%TA.AperFunction,SMDPad,CuDef*%
%ADD16FreePoly1,270.000000*%
%TD*%
%TA.AperFunction,SMDPad,CuDef*%
%ADD17FreePoly0,270.000000*%
%TD*%
%TA.AperFunction,SMDPad,CuDef*%
%ADD18RoundRect,0.250000X-0.450000X0.262500X-0.450000X-0.262500X0.450000X-0.262500X0.450000X0.262500X0*%
%TD*%
%TA.AperFunction,SMDPad,CuDef*%
%ADD19RoundRect,0.200000X0.200000X0.275000X-0.200000X0.275000X-0.200000X-0.275000X0.200000X-0.275000X0*%
%TD*%
%TA.AperFunction,SMDPad,CuDef*%
%ADD20RoundRect,0.150000X0.150000X-0.587500X0.150000X0.587500X-0.150000X0.587500X-0.150000X-0.587500X0*%
%TD*%
%TA.AperFunction,SMDPad,CuDef*%
%ADD21RoundRect,0.150000X-0.587500X-0.150000X0.587500X-0.150000X0.587500X0.150000X-0.587500X0.150000X0*%
%TD*%
%TA.AperFunction,SMDPad,CuDef*%
%ADD22RoundRect,0.150000X0.150000X-0.725000X0.150000X0.725000X-0.150000X0.725000X-0.150000X-0.725000X0*%
%TD*%
%TA.AperFunction,SMDPad,CuDef*%
%ADD23RoundRect,0.250000X0.450000X-0.262500X0.450000X0.262500X-0.450000X0.262500X-0.450000X-0.262500X0*%
%TD*%
%TA.AperFunction,SMDPad,CuDef*%
%ADD24FreePoly1,0.000000*%
%TD*%
%TA.AperFunction,SMDPad,CuDef*%
%ADD25FreePoly0,0.000000*%
%TD*%
%TA.AperFunction,SMDPad,CuDef*%
%ADD26RoundRect,0.200000X-0.200000X-0.275000X0.200000X-0.275000X0.200000X0.275000X-0.200000X0.275000X0*%
%TD*%
%TA.AperFunction,SMDPad,CuDef*%
%ADD27FreePoly1,180.000000*%
%TD*%
%TA.AperFunction,SMDPad,CuDef*%
%ADD28FreePoly0,180.000000*%
%TD*%
%TA.AperFunction,SMDPad,CuDef*%
%ADD29RoundRect,0.200000X0.275000X-0.200000X0.275000X0.200000X-0.275000X0.200000X-0.275000X-0.200000X0*%
%TD*%
%TA.AperFunction,SMDPad,CuDef*%
%ADD30RoundRect,0.225000X0.225000X0.250000X-0.225000X0.250000X-0.225000X-0.250000X0.225000X-0.250000X0*%
%TD*%
%TA.AperFunction,SMDPad,CuDef*%
%ADD31RoundRect,0.150000X0.587500X0.150000X-0.587500X0.150000X-0.587500X-0.150000X0.587500X-0.150000X0*%
%TD*%
%TA.AperFunction,SMDPad,CuDef*%
%ADD32RoundRect,0.150000X-0.150000X0.587500X-0.150000X-0.587500X0.150000X-0.587500X0.150000X0.587500X0*%
%TD*%
%TA.AperFunction,SMDPad,CuDef*%
%ADD33RoundRect,0.200000X-0.275000X0.200000X-0.275000X-0.200000X0.275000X-0.200000X0.275000X0.200000X0*%
%TD*%
%TA.AperFunction,Conductor*%
%ADD34C,0.500000*%
%TD*%
G04 APERTURE END LIST*
D10*
%TO.P,R24,2*%
%TO.N,Net-(D16-K)*%
X223087500Y-82250000D03*
%TO.P,R24,1*%
%TO.N,/7_SEG_1/H*%
X224912500Y-82250000D03*
%TD*%
%TO.P,R23,2*%
%TO.N,Net-(D15-K)*%
X223087500Y-79300000D03*
%TO.P,R23,1*%
%TO.N,/7_SEG_1/H*%
X224912500Y-79300000D03*
%TD*%
D11*
%TO.P,D16,1,K*%
%TO.N,Net-(D16-K)*%
X217580000Y-86030000D03*
D12*
%TO.P,D16,2,A*%
%TO.N,/7_SEG_1/COM*%
X220120000Y-86030000D03*
%TD*%
D11*
%TO.P,D15,1,K*%
%TO.N,Net-(D15-K)*%
X217580000Y-80560000D03*
D12*
%TO.P,D15,2,A*%
%TO.N,/7_SEG_1/COM*%
X220120000Y-80560000D03*
%TD*%
%TO.P,D11,2,A*%
%TO.N,/7_SEG_1/COM*%
X210270000Y-77000000D03*
D11*
%TO.P,D11,1,K*%
%TO.N,Net-(D11-K)*%
X207730000Y-77000000D03*
%TD*%
D13*
%TO.P,JP4,1,A*%
%TO.N,/7_SEG_1/QD*%
X197000000Y-113400000D03*
D14*
%TO.P,JP4,2,B*%
%TO.N,/7_SEG_1/D*%
X197000000Y-112100000D03*
%TD*%
D15*
%TO.P,R20,2*%
%TO.N,Net-(D12-K)*%
X205662500Y-100750000D03*
%TO.P,R20,1*%
%TO.N,/7_SEG_1/C*%
X203837500Y-100750000D03*
%TD*%
D10*
%TO.P,R12,2*%
%TO.N,Net-(D4-K)*%
X188337500Y-103250000D03*
%TO.P,R12,1*%
%TO.N,/7_SEG_1/E*%
X190162500Y-103250000D03*
%TD*%
D16*
%TO.P,JP7,2,B*%
%TO.N,/7_SEG_1/G*%
X197000000Y-97900000D03*
D17*
%TO.P,JP7,1,A*%
%TO.N,/7_SEG_1/QG*%
X197000000Y-96600000D03*
%TD*%
D18*
%TO.P,R18,1*%
%TO.N,/7_SEG_1/D*%
X201250000Y-111837500D03*
%TO.P,R18,2*%
%TO.N,Net-(D10-K)*%
X201250000Y-113662500D03*
%TD*%
D10*
%TO.P,R11,2*%
%TO.N,Net-(D3-K)*%
X188337500Y-85250000D03*
%TO.P,R11,1*%
%TO.N,/7_SEG_1/F*%
X190162500Y-85250000D03*
%TD*%
D19*
%TO.P,R5,2*%
%TO.N,GND*%
X187425000Y-111250000D03*
%TO.P,R5,1*%
%TO.N,/7_SEG_1/QE*%
X189075000Y-111250000D03*
%TD*%
D20*
%TO.P,Q8,3,D*%
%TO.N,/7_SEG_1/H*%
X185250000Y-69062500D03*
%TO.P,Q8,2,S*%
%TO.N,GND*%
X184300000Y-70937500D03*
%TO.P,Q8,1,G*%
%TO.N,/7_SEG_1/QH*%
X186200000Y-70937500D03*
%TD*%
D12*
%TO.P,D2,2,A*%
%TO.N,/7_SEG_1/COM*%
X183730000Y-101000000D03*
D11*
%TO.P,D2,1,K*%
%TO.N,Net-(D2-K)*%
X186270000Y-101000000D03*
%TD*%
D12*
%TO.P,D8,2,A*%
%TO.N,/7_SEG_1/COM*%
X201000000Y-91730000D03*
D11*
%TO.P,D8,1,K*%
%TO.N,Net-(D8-K)*%
X201000000Y-94270000D03*
%TD*%
D21*
%TO.P,Q4,1,G*%
%TO.N,/7_SEG_1/QD*%
X192812500Y-113700000D03*
%TO.P,Q4,2,S*%
%TO.N,GND*%
X192812500Y-111800000D03*
%TO.P,Q4,3,D*%
%TO.N,/7_SEG_1/D*%
X194687500Y-112750000D03*
%TD*%
D15*
%TO.P,R22,2*%
%TO.N,Net-(D14-K)*%
X205662500Y-102750000D03*
%TO.P,R22,1*%
%TO.N,/7_SEG_1/C*%
X203837500Y-102750000D03*
%TD*%
D12*
%TO.P,D4,2,A*%
%TO.N,/7_SEG_1/COM*%
X183730000Y-109000000D03*
D11*
%TO.P,D4,1,K*%
%TO.N,Net-(D4-K)*%
X186270000Y-109000000D03*
%TD*%
D12*
%TO.P,D14,2,A*%
%TO.N,/7_SEG_1/COM*%
X210270000Y-109000000D03*
D11*
%TO.P,D14,1,K*%
%TO.N,Net-(D14-K)*%
X207730000Y-109000000D03*
%TD*%
D22*
%TO.P,U1,16,VCC*%
%TO.N,+3V3*%
X201445000Y-78425000D03*
%TO.P,U1,15,QA*%
%TO.N,/7_SEG_1/QA*%
X200175000Y-78425000D03*
%TO.P,U1,14,SER*%
%TO.N,unconnected-(U1-SER-Pad14)*%
X198905000Y-78425000D03*
%TO.P,U1,13,~{OE}*%
%TO.N,unconnected-(U1-~{OE}-Pad13)*%
X197635000Y-78425000D03*
%TO.P,U1,12,RCLK*%
%TO.N,unconnected-(U1-RCLK-Pad12)*%
X196365000Y-78425000D03*
%TO.P,U1,11,SRCLK*%
%TO.N,unconnected-(U1-SRCLK-Pad11)*%
X195095000Y-78425000D03*
%TO.P,U1,10,~{SRCLR}*%
%TO.N,unconnected-(U1-~{SRCLR}-Pad10)*%
X193825000Y-78425000D03*
%TO.P,U1,9,QH'*%
%TO.N,/SR1_OUT*%
X192555000Y-78425000D03*
%TO.P,U1,8,GND*%
%TO.N,GND*%
X192555000Y-83575000D03*
%TO.P,U1,7,QH*%
%TO.N,unconnected-(U1-QH-Pad7)*%
X193825000Y-83575000D03*
%TO.P,U1,6,QG*%
%TO.N,/7_SEG_1/QG*%
X195095000Y-83575000D03*
%TO.P,U1,5,QF*%
%TO.N,/7_SEG_1/QF*%
X196365000Y-83575000D03*
%TO.P,U1,4,QE*%
%TO.N,/7_SEG_1/QE*%
X197635000Y-83575000D03*
%TO.P,U1,3,QD*%
%TO.N,/7_SEG_1/QD*%
X198905000Y-83575000D03*
%TO.P,U1,2,QC*%
%TO.N,/7_SEG_1/QC*%
X200175000Y-83575000D03*
%TO.P,U1,1,QB*%
%TO.N,/7_SEG_1/QB*%
X201445000Y-83575000D03*
%TD*%
D23*
%TO.P,R15,2*%
%TO.N,Net-(D7-K)*%
X192750000Y-96337500D03*
%TO.P,R15,1*%
%TO.N,/7_SEG_1/G*%
X192750000Y-98162500D03*
%TD*%
D18*
%TO.P,R17,1*%
%TO.N,/7_SEG_1/D*%
X199250000Y-111837500D03*
%TO.P,R17,2*%
%TO.N,Net-(D9-K)*%
X199250000Y-113662500D03*
%TD*%
D20*
%TO.P,Q5,3,D*%
%TO.N,/7_SEG_1/E*%
X189250000Y-107312500D03*
%TO.P,Q5,2,S*%
%TO.N,GND*%
X188300000Y-109187500D03*
%TO.P,Q5,1,G*%
%TO.N,/7_SEG_1/QE*%
X190200000Y-109187500D03*
%TD*%
D24*
%TO.P,JP6,2,B*%
%TO.N,/7_SEG_1/F*%
X189900000Y-81000000D03*
D25*
%TO.P,JP6,1,A*%
%TO.N,/7_SEG_1/QF*%
X188600000Y-81000000D03*
%TD*%
D26*
%TO.P,R6,2*%
%TO.N,GND*%
X190075000Y-74750000D03*
%TO.P,R6,1*%
%TO.N,/7_SEG_1/QF*%
X188425000Y-74750000D03*
%TD*%
D23*
%TO.P,R16,2*%
%TO.N,Net-(D8-K)*%
X194750000Y-96337500D03*
%TO.P,R16,1*%
%TO.N,/7_SEG_1/G*%
X194750000Y-98162500D03*
%TD*%
D19*
%TO.P,R2,2*%
%TO.N,GND*%
X203925000Y-87250000D03*
%TO.P,R2,1*%
%TO.N,/7_SEG_1/QB*%
X205575000Y-87250000D03*
%TD*%
D12*
%TO.P,D7,2,A*%
%TO.N,/7_SEG_1/COM*%
X193000000Y-91730000D03*
D11*
%TO.P,D7,1,K*%
%TO.N,Net-(D7-K)*%
X193000000Y-94270000D03*
%TD*%
D12*
%TO.P,D6,2,A*%
%TO.N,/7_SEG_1/COM*%
X201000000Y-67730000D03*
D11*
%TO.P,D6,1,K*%
%TO.N,Net-(D6-K)*%
X201000000Y-70270000D03*
%TD*%
D27*
%TO.P,JP3,2,B*%
%TO.N,/7_SEG_1/C*%
X204100000Y-105000000D03*
D28*
%TO.P,JP3,1,A*%
%TO.N,/7_SEG_1/QC*%
X205400000Y-105000000D03*
%TD*%
D29*
%TO.P,R4,1*%
%TO.N,/7_SEG_1/QD*%
X190750000Y-113575000D03*
%TO.P,R4,2*%
%TO.N,GND*%
X190750000Y-111925000D03*
%TD*%
D12*
%TO.P,D1,2,A*%
%TO.N,/7_SEG_1/COM*%
X183730000Y-77000000D03*
D11*
%TO.P,D1,1,K*%
%TO.N,Net-(D1-K)*%
X186270000Y-77000000D03*
%TD*%
D19*
%TO.P,R3,2*%
%TO.N,GND*%
X203925000Y-111250000D03*
%TO.P,R3,1*%
%TO.N,/7_SEG_1/QC*%
X205575000Y-111250000D03*
%TD*%
D20*
%TO.P,Q2,3,D*%
%TO.N,/7_SEG_1/B*%
X204750000Y-83312500D03*
%TO.P,Q2,2,S*%
%TO.N,GND*%
X203800000Y-85187500D03*
%TO.P,Q2,1,G*%
%TO.N,/7_SEG_1/QB*%
X205700000Y-85187500D03*
%TD*%
D12*
%TO.P,D13,2,A*%
%TO.N,/7_SEG_1/COM*%
X210270000Y-85000000D03*
D11*
%TO.P,D13,1,K*%
%TO.N,Net-(D13-K)*%
X207730000Y-85000000D03*
%TD*%
D12*
%TO.P,D5,2,A*%
%TO.N,/7_SEG_1/COM*%
X193000000Y-67730000D03*
D11*
%TO.P,D5,1,K*%
%TO.N,Net-(D5-K)*%
X193000000Y-70270000D03*
%TD*%
D12*
%TO.P,D10,2,A*%
%TO.N,/7_SEG_1/COM*%
X201000000Y-118270000D03*
D11*
%TO.P,D10,1,K*%
%TO.N,Net-(D10-K)*%
X201000000Y-115730000D03*
%TD*%
D10*
%TO.P,R10,1*%
%TO.N,/7_SEG_1/E*%
X190162500Y-101000000D03*
%TO.P,R10,2*%
%TO.N,Net-(D2-K)*%
X188337500Y-101000000D03*
%TD*%
D24*
%TO.P,JP5,2,B*%
%TO.N,/7_SEG_1/E*%
X189900000Y-105000000D03*
D25*
%TO.P,JP5,1,A*%
%TO.N,/7_SEG_1/QE*%
X188600000Y-105000000D03*
%TD*%
D14*
%TO.P,JP8,2,B*%
%TO.N,/7_SEG_1/H*%
X188500000Y-69350000D03*
D13*
%TO.P,JP8,1,A*%
%TO.N,/7_SEG_1/QH*%
X188500000Y-70650000D03*
%TD*%
D30*
%TO.P,C1,2*%
%TO.N,+3V3*%
X199975000Y-126750000D03*
%TO.P,C1,1*%
%TO.N,GND*%
X201525000Y-126750000D03*
%TD*%
D12*
%TO.P,D3,2,A*%
%TO.N,/7_SEG_1/COM*%
X183730000Y-85000000D03*
D11*
%TO.P,D3,1,K*%
%TO.N,Net-(D3-K)*%
X186270000Y-85000000D03*
%TD*%
D12*
%TO.P,D12,2,A*%
%TO.N,/7_SEG_1/COM*%
X210270000Y-101000000D03*
D11*
%TO.P,D12,1,K*%
%TO.N,Net-(D12-K)*%
X207730000Y-101000000D03*
%TD*%
D20*
%TO.P,Q3,3,D*%
%TO.N,/7_SEG_1/C*%
X204750000Y-107312500D03*
%TO.P,Q3,2,S*%
%TO.N,GND*%
X203800000Y-109187500D03*
%TO.P,Q3,1,G*%
%TO.N,/7_SEG_1/QC*%
X205700000Y-109187500D03*
%TD*%
D31*
%TO.P,Q7,3,D*%
%TO.N,/7_SEG_1/G*%
X199312500Y-97250000D03*
%TO.P,Q7,2,S*%
%TO.N,GND*%
X201187500Y-98200000D03*
%TO.P,Q7,1,G*%
%TO.N,/7_SEG_1/QG*%
X201187500Y-96300000D03*
%TD*%
D27*
%TO.P,JP2,2,B*%
%TO.N,/7_SEG_1/B*%
X204100000Y-81000000D03*
D28*
%TO.P,JP2,1,A*%
%TO.N,/7_SEG_1/QB*%
X205400000Y-81000000D03*
%TD*%
D32*
%TO.P,Q6,3,D*%
%TO.N,/7_SEG_1/F*%
X189250000Y-78687500D03*
%TO.P,Q6,2,S*%
%TO.N,GND*%
X190200000Y-76812500D03*
%TO.P,Q6,1,G*%
%TO.N,/7_SEG_1/QF*%
X188300000Y-76812500D03*
%TD*%
D12*
%TO.P,D9,2,A*%
%TO.N,/7_SEG_1/COM*%
X193000000Y-118270000D03*
D11*
%TO.P,D9,1,K*%
%TO.N,Net-(D9-K)*%
X193000000Y-115730000D03*
%TD*%
D10*
%TO.P,R9,2*%
%TO.N,Net-(D1-K)*%
X188337500Y-83250000D03*
%TO.P,R9,1*%
%TO.N,/7_SEG_1/F*%
X190162500Y-83250000D03*
%TD*%
D15*
%TO.P,R19,1*%
%TO.N,/7_SEG_1/B*%
X203837500Y-76750000D03*
%TO.P,R19,2*%
%TO.N,Net-(D11-K)*%
X205662500Y-76750000D03*
%TD*%
D33*
%TO.P,R7,2*%
%TO.N,GND*%
X203250000Y-98075000D03*
%TO.P,R7,1*%
%TO.N,/7_SEG_1/QG*%
X203250000Y-96425000D03*
%TD*%
D15*
%TO.P,R21,1*%
%TO.N,/7_SEG_1/B*%
X203837500Y-78750000D03*
%TO.P,R21,2*%
%TO.N,Net-(D13-K)*%
X205662500Y-78750000D03*
%TD*%
D19*
%TO.P,R8,2*%
%TO.N,GND*%
X184475000Y-72937500D03*
%TO.P,R8,1*%
%TO.N,/7_SEG_1/QH*%
X186125000Y-72937500D03*
%TD*%
D29*
%TO.P,R1,2*%
%TO.N,GND*%
X191750000Y-72425000D03*
%TO.P,R1,1*%
%TO.N,/7_SEG_1/QA*%
X191750000Y-74075000D03*
%TD*%
D14*
%TO.P,JP1,2,B*%
%TO.N,/7_SEG_1/A*%
X197750000Y-72600000D03*
D13*
%TO.P,JP1,1,A*%
%TO.N,/7_SEG_1/QA*%
X197750000Y-73900000D03*
%TD*%
D21*
%TO.P,Q1,1,G*%
%TO.N,/7_SEG_1/QA*%
X193562500Y-74200000D03*
%TO.P,Q1,2,S*%
%TO.N,GND*%
X193562500Y-72300000D03*
%TO.P,Q1,3,D*%
%TO.N,/7_SEG_1/A*%
X195437500Y-73250000D03*
%TD*%
D23*
%TO.P,R13,2*%
%TO.N,Net-(D5-K)*%
X200000000Y-72337500D03*
%TO.P,R13,1*%
%TO.N,/7_SEG_1/A*%
X200000000Y-74162500D03*
%TD*%
%TO.P,R14,2*%
%TO.N,Net-(D6-K)*%
X202000000Y-72337500D03*
%TO.P,R14,1*%
%TO.N,/7_SEG_1/A*%
X202000000Y-74162500D03*
%TD*%
D34*
%TO.N,Net-(D5-K)*%
X200000000Y-72337500D02*
X198912500Y-71250000D01*
X198912500Y-71250000D02*
X193980000Y-71250000D01*
X193980000Y-71250000D02*
X193000000Y-70270000D01*
%TO.N,/7_SEG_1/QA*%
X191750000Y-74075000D02*
X192475000Y-74075000D01*
X192475000Y-74075000D02*
X192600000Y-74200000D01*
X192600000Y-74200000D02*
X193562500Y-74200000D01*
X199750000Y-75500000D02*
X197750000Y-75500000D01*
X197750000Y-73900000D02*
X197750000Y-75500000D01*
X200175000Y-78425000D02*
X200175000Y-75925000D01*
X196500000Y-75500000D02*
X195200000Y-74200000D01*
X200175000Y-75925000D02*
X199750000Y-75500000D01*
X195200000Y-74200000D02*
X193562500Y-74200000D01*
X197750000Y-75500000D02*
X196500000Y-75500000D01*
%TO.N,/7_SEG_1/A*%
X197750000Y-72600000D02*
X196900000Y-72600000D01*
X196900000Y-72600000D02*
X196250000Y-73250000D01*
X196250000Y-73250000D02*
X195437500Y-73250000D01*
%TO.N,Net-(D6-K)*%
X201000000Y-70270000D02*
X201000000Y-70750000D01*
X201000000Y-70750000D02*
X202000000Y-71750000D01*
X202000000Y-71750000D02*
X202000000Y-72337500D01*
%TO.N,/7_SEG_1/A*%
X197750000Y-72600000D02*
X198437500Y-72600000D01*
X198437500Y-72600000D02*
X200000000Y-74162500D01*
X202000000Y-74162500D02*
X200000000Y-74162500D01*
%TD*%
M02*
