%TF.GenerationSoftware,KiCad,Pcbnew,9.0.6-9.0.6~ubuntu24.04.1*%
%TF.CreationDate,2025-12-08T22:33:50+01:00*%
%TF.ProjectId,7_seg_led_tht_3mm,375f7365-675f-46c6-9564-5f7468745f33,rev?*%
%TF.SameCoordinates,Original*%
%TF.FileFunction,Profile,NP*%
%FSLAX46Y46*%
G04 Gerber Fmt 4.6, Leading zero omitted, Abs format (unit mm)*
G04 Created by KiCad (PCBNEW 9.0.6-9.0.6~ubuntu24.04.1) date 2025-12-08 22:33:50*
%MOMM*%
%LPD*%
G01*
G04 APERTURE LIST*
%TA.AperFunction,Profile*%
%ADD10C,0.050000*%
%TD*%
G04 APERTURE END LIST*
D10*
X94500000Y-70500000D02*
X91500000Y-70500000D01*
X104500000Y-90000000D02*
X104500000Y-87000000D01*
X91500000Y-91500000D02*
X94500000Y-91500000D01*
X79500000Y-106500000D02*
X79500000Y-103500000D01*
X91500000Y-93500000D02*
X94500000Y-93500000D01*
X94500000Y-69500000D02*
X91500000Y-69500000D01*
X104500000Y-87000000D02*
G75*
G02*
X105500000Y-87000000I500000J0D01*
G01*
X94500000Y-93500000D02*
G75*
G02*
X94500000Y-94500000I0J-500000D01*
G01*
X106500000Y-82500000D02*
X106500000Y-79500000D01*
X105500000Y-103500000D02*
G75*
G02*
X106500000Y-103500000I500000J0D01*
G01*
X105500000Y-90000000D02*
X105500000Y-87000000D01*
X102000000Y-116500000D02*
G75*
G02*
X102000000Y-117500000I0J-500000D01*
G01*
X104500000Y-106500000D02*
G75*
G02*
X103500000Y-106500000I-500000J0D01*
G01*
X103500000Y-103500000D02*
G75*
G02*
X104500000Y-103500000I500000J0D01*
G01*
X94500000Y-117500000D02*
G75*
G02*
X94500000Y-118500000I0J-500000D01*
G01*
X84000000Y-93500000D02*
G75*
G02*
X84000000Y-92500000I0J500000D01*
G01*
X102000000Y-92500000D02*
G75*
G02*
X102000000Y-93500000I0J-500000D01*
G01*
X82500000Y-82500000D02*
G75*
G02*
X81500000Y-82500000I-500000J0D01*
G01*
X84000000Y-116500000D02*
X87000000Y-116500000D01*
X79500000Y-82500000D02*
X79500000Y-79500000D01*
X81500000Y-75000000D02*
X81500000Y-72000000D01*
X104500000Y-106500000D02*
X104500000Y-103500000D01*
X80500000Y-114000000D02*
X80500000Y-111000000D01*
X105500000Y-79500000D02*
G75*
G02*
X106500000Y-79500000I500000J0D01*
G01*
X104500000Y-114000000D02*
X104500000Y-111000000D01*
X80500000Y-99000000D02*
X80500000Y-96000000D01*
X94500000Y-69500000D02*
G75*
G02*
X94500000Y-70500000I0J-500000D01*
G01*
X80500000Y-96000000D02*
G75*
G02*
X81500000Y-96000000I500000J0D01*
G01*
X91500000Y-116500000D02*
G75*
G02*
X91500000Y-115500000I0J500000D01*
G01*
X104500000Y-75000000D02*
X104500000Y-72000000D01*
X81500000Y-75000000D02*
G75*
G02*
X80500000Y-75000000I-500000J0D01*
G01*
X104500000Y-72000000D02*
G75*
G02*
X105500000Y-72000000I500000J0D01*
G01*
X91500000Y-68500000D02*
G75*
G02*
X91500000Y-67500000I0J500000D01*
G01*
X104500000Y-82500000D02*
G75*
G02*
X103500000Y-82500000I-500000J0D01*
G01*
X81500000Y-79500000D02*
G75*
G02*
X82500000Y-79500000I500000J0D01*
G01*
X81500000Y-103500000D02*
G75*
G02*
X82500000Y-103500000I500000J0D01*
G01*
X80500000Y-106500000D02*
G75*
G02*
X79500000Y-106500000I-500000J0D01*
G01*
X80500000Y-111000000D02*
G75*
G02*
X81500000Y-111000000I500000J0D01*
G01*
X87000000Y-116500000D02*
G75*
G02*
X87000000Y-117500000I0J-500000D01*
G01*
X80500000Y-82500000D02*
X80500000Y-79500000D01*
X84000000Y-117500000D02*
G75*
G02*
X84000000Y-116500000I0J500000D01*
G01*
X87000000Y-68500000D02*
G75*
G02*
X87000000Y-69500000I0J-500000D01*
G01*
X84000000Y-92500000D02*
X87000000Y-92500000D01*
X103500000Y-79500000D02*
G75*
G02*
X104500000Y-79500000I500000J0D01*
G01*
X94500000Y-115500000D02*
G75*
G02*
X94500000Y-116500000I0J-500000D01*
G01*
X91500000Y-92500000D02*
G75*
G02*
X91500000Y-91500000I0J500000D01*
G01*
X106500000Y-82500000D02*
G75*
G02*
X105500000Y-82500000I-500000J0D01*
G01*
X105500000Y-114000000D02*
X105500000Y-111000000D01*
X99000000Y-69500000D02*
G75*
G02*
X99000000Y-68500000I0J500000D01*
G01*
X105500000Y-99000000D02*
X105500000Y-96000000D01*
X99000000Y-117500000D02*
X102000000Y-117500000D01*
X80500000Y-87000000D02*
G75*
G02*
X81500000Y-87000000I500000J0D01*
G01*
X82500000Y-106500000D02*
G75*
G02*
X81500000Y-106500000I-500000J0D01*
G01*
X91500000Y-115500000D02*
X94500000Y-115500000D01*
X99000000Y-93500000D02*
X102000000Y-93500000D01*
X105500000Y-75000000D02*
G75*
G02*
X104500000Y-75000000I-500000J0D01*
G01*
X99000000Y-116500000D02*
X102000000Y-116500000D01*
X79500000Y-103500000D02*
G75*
G02*
X80500000Y-103500000I500000J0D01*
G01*
X103500000Y-106500000D02*
X103500000Y-103500000D01*
X81500000Y-114000000D02*
X81500000Y-111000000D01*
X106500000Y-106500000D02*
X106500000Y-103500000D01*
X103500000Y-82500000D02*
X103500000Y-79500000D01*
X82500000Y-106500000D02*
X82500000Y-103500000D01*
X106500000Y-106500000D02*
G75*
G02*
X105500000Y-106500000I-500000J0D01*
G01*
X99000000Y-93500000D02*
G75*
G02*
X99000000Y-92500000I0J500000D01*
G01*
X91500000Y-118500000D02*
X94500000Y-118500000D01*
X104500000Y-111000000D02*
G75*
G02*
X105500000Y-111000000I500000J0D01*
G01*
X104500000Y-82500000D02*
X104500000Y-79500000D01*
X81500000Y-90000000D02*
X81500000Y-87000000D01*
X91500000Y-70500000D02*
G75*
G02*
X91500000Y-69500000I0J500000D01*
G01*
X91500000Y-116500000D02*
X94500000Y-116500000D01*
X104500000Y-99000000D02*
X104500000Y-96000000D01*
X81500000Y-106500000D02*
X81500000Y-103500000D01*
X104500000Y-96000000D02*
G75*
G02*
X105500000Y-96000000I500000J0D01*
G01*
X102000000Y-68500000D02*
G75*
G02*
X102000000Y-69500000I0J-500000D01*
G01*
X102000000Y-68500000D02*
X99000000Y-68500000D01*
X84000000Y-93500000D02*
X87000000Y-93500000D01*
X105500000Y-75000000D02*
X105500000Y-72000000D01*
X84000000Y-117500000D02*
X87000000Y-117500000D01*
X99000000Y-117500000D02*
G75*
G02*
X99000000Y-116500000I0J500000D01*
G01*
X91500000Y-94500000D02*
G75*
G02*
X91500000Y-93500000I0J500000D01*
G01*
X82500000Y-82500000D02*
X82500000Y-79500000D01*
X81500000Y-99000000D02*
G75*
G02*
X80500000Y-99000000I-500000J0D01*
G01*
X102000000Y-69500000D02*
X99000000Y-69500000D01*
X81500000Y-90000000D02*
G75*
G02*
X80500000Y-90000000I-500000J0D01*
G01*
X105500000Y-106500000D02*
X105500000Y-103500000D01*
X99000000Y-92500000D02*
X102000000Y-92500000D01*
X91500000Y-117500000D02*
X94500000Y-117500000D01*
X105500000Y-114000000D02*
G75*
G02*
X104500000Y-114000000I-500000J0D01*
G01*
X91500000Y-94500000D02*
X94500000Y-94500000D01*
X87000000Y-92500000D02*
G75*
G02*
X87000000Y-93500000I0J-500000D01*
G01*
X94500000Y-67500000D02*
X91500000Y-67500000D01*
X105500000Y-90000000D02*
G75*
G02*
X104500000Y-90000000I-500000J0D01*
G01*
X84000000Y-69500000D02*
G75*
G02*
X84000000Y-68500000I0J500000D01*
G01*
X81500000Y-114000000D02*
G75*
G02*
X80500000Y-114000000I-500000J0D01*
G01*
X105500000Y-82500000D02*
X105500000Y-79500000D01*
X80500000Y-106500000D02*
X80500000Y-103500000D01*
X94500000Y-68500000D02*
X91500000Y-68500000D01*
X79500000Y-79500000D02*
G75*
G02*
X80500000Y-79500000I500000J0D01*
G01*
X81500000Y-82500000D02*
X81500000Y-79500000D01*
X81500000Y-99000000D02*
X81500000Y-96000000D01*
X87000000Y-68500000D02*
X84000000Y-68500000D01*
X87000000Y-69500000D02*
X84000000Y-69500000D01*
X80500000Y-75000000D02*
X80500000Y-72000000D01*
X80500000Y-72000000D02*
G75*
G02*
X81500000Y-72000000I500000J0D01*
G01*
X80500000Y-90000000D02*
X80500000Y-87000000D01*
X94500000Y-67500000D02*
G75*
G02*
X94500000Y-68500000I0J-500000D01*
G01*
X94500000Y-91500000D02*
G75*
G02*
X94500000Y-92500000I0J-500000D01*
G01*
X91500000Y-92500000D02*
X94500000Y-92500000D01*
X105500000Y-99000000D02*
G75*
G02*
X104500000Y-99000000I-500000J0D01*
G01*
X80500000Y-82500000D02*
G75*
G02*
X79500000Y-82500000I-500000J0D01*
G01*
X91500000Y-118500000D02*
G75*
G02*
X91500000Y-117500000I0J500000D01*
G01*
X126500000Y-70500000D02*
X123500000Y-70500000D01*
X136500000Y-90000000D02*
X136500000Y-87000000D01*
X123500000Y-91500000D02*
X126500000Y-91500000D01*
X111500000Y-106500000D02*
X111500000Y-103500000D01*
X123500000Y-93500000D02*
X126500000Y-93500000D01*
X126500000Y-69500000D02*
X123500000Y-69500000D01*
X136500000Y-87000000D02*
G75*
G02*
X137500000Y-87000000I500000J0D01*
G01*
X126500000Y-93500000D02*
G75*
G02*
X126500000Y-94500000I0J-500000D01*
G01*
X138500000Y-82500000D02*
X138500000Y-79500000D01*
X137500000Y-103500000D02*
G75*
G02*
X138500000Y-103500000I500000J0D01*
G01*
X137500000Y-90000000D02*
X137500000Y-87000000D01*
X134000000Y-116500000D02*
G75*
G02*
X134000000Y-117500000I0J-500000D01*
G01*
X136500000Y-106500000D02*
G75*
G02*
X135500000Y-106500000I-500000J0D01*
G01*
X135500000Y-103500000D02*
G75*
G02*
X136500000Y-103500000I500000J0D01*
G01*
X126500000Y-117500000D02*
G75*
G02*
X126500000Y-118500000I0J-500000D01*
G01*
X116000000Y-93500000D02*
G75*
G02*
X116000000Y-92500000I0J500000D01*
G01*
X134000000Y-92500000D02*
G75*
G02*
X134000000Y-93500000I0J-500000D01*
G01*
X114500000Y-82500000D02*
G75*
G02*
X113500000Y-82500000I-500000J0D01*
G01*
X116000000Y-116500000D02*
X119000000Y-116500000D01*
X111500000Y-82500000D02*
X111500000Y-79500000D01*
X113500000Y-75000000D02*
X113500000Y-72000000D01*
X136500000Y-106500000D02*
X136500000Y-103500000D01*
X112500000Y-114000000D02*
X112500000Y-111000000D01*
X137500000Y-79500000D02*
G75*
G02*
X138500000Y-79500000I500000J0D01*
G01*
X136500000Y-114000000D02*
X136500000Y-111000000D01*
X112500000Y-99000000D02*
X112500000Y-96000000D01*
X126500000Y-69500000D02*
G75*
G02*
X126500000Y-70500000I0J-500000D01*
G01*
X112500000Y-96000000D02*
G75*
G02*
X113500000Y-96000000I500000J0D01*
G01*
X123500000Y-116500000D02*
G75*
G02*
X123500000Y-115500000I0J500000D01*
G01*
X136500000Y-75000000D02*
X136500000Y-72000000D01*
X113500000Y-75000000D02*
G75*
G02*
X112500000Y-75000000I-500000J0D01*
G01*
X136500000Y-72000000D02*
G75*
G02*
X137500000Y-72000000I500000J0D01*
G01*
X123500000Y-68500000D02*
G75*
G02*
X123500000Y-67500000I0J500000D01*
G01*
X136500000Y-82500000D02*
G75*
G02*
X135500000Y-82500000I-500000J0D01*
G01*
X113500000Y-79500000D02*
G75*
G02*
X114500000Y-79500000I500000J0D01*
G01*
X113500000Y-103500000D02*
G75*
G02*
X114500000Y-103500000I500000J0D01*
G01*
X112500000Y-106500000D02*
G75*
G02*
X111500000Y-106500000I-500000J0D01*
G01*
X112500000Y-111000000D02*
G75*
G02*
X113500000Y-111000000I500000J0D01*
G01*
X119000000Y-116500000D02*
G75*
G02*
X119000000Y-117500000I0J-500000D01*
G01*
X112500000Y-82500000D02*
X112500000Y-79500000D01*
X116000000Y-117500000D02*
G75*
G02*
X116000000Y-116500000I0J500000D01*
G01*
X119000000Y-68500000D02*
G75*
G02*
X119000000Y-69500000I0J-500000D01*
G01*
X116000000Y-92500000D02*
X119000000Y-92500000D01*
X135500000Y-79500000D02*
G75*
G02*
X136500000Y-79500000I500000J0D01*
G01*
X126500000Y-115500000D02*
G75*
G02*
X126500000Y-116500000I0J-500000D01*
G01*
X123500000Y-92500000D02*
G75*
G02*
X123500000Y-91500000I0J500000D01*
G01*
X138500000Y-82500000D02*
G75*
G02*
X137500000Y-82500000I-500000J0D01*
G01*
X137500000Y-114000000D02*
X137500000Y-111000000D01*
X131000000Y-69500000D02*
G75*
G02*
X131000000Y-68500000I0J500000D01*
G01*
X137500000Y-99000000D02*
X137500000Y-96000000D01*
X131000000Y-117500000D02*
X134000000Y-117500000D01*
X112500000Y-87000000D02*
G75*
G02*
X113500000Y-87000000I500000J0D01*
G01*
X114500000Y-106500000D02*
G75*
G02*
X113500000Y-106500000I-500000J0D01*
G01*
X123500000Y-115500000D02*
X126500000Y-115500000D01*
X131000000Y-93500000D02*
X134000000Y-93500000D01*
X137500000Y-75000000D02*
G75*
G02*
X136500000Y-75000000I-500000J0D01*
G01*
X131000000Y-116500000D02*
X134000000Y-116500000D01*
X111500000Y-103500000D02*
G75*
G02*
X112500000Y-103500000I500000J0D01*
G01*
X135500000Y-106500000D02*
X135500000Y-103500000D01*
X113500000Y-114000000D02*
X113500000Y-111000000D01*
X138500000Y-106500000D02*
X138500000Y-103500000D01*
X135500000Y-82500000D02*
X135500000Y-79500000D01*
X114500000Y-106500000D02*
X114500000Y-103500000D01*
X138500000Y-106500000D02*
G75*
G02*
X137500000Y-106500000I-500000J0D01*
G01*
X131000000Y-93500000D02*
G75*
G02*
X131000000Y-92500000I0J500000D01*
G01*
X123500000Y-118500000D02*
X126500000Y-118500000D01*
X136500000Y-111000000D02*
G75*
G02*
X137500000Y-111000000I500000J0D01*
G01*
X136500000Y-82500000D02*
X136500000Y-79500000D01*
X113500000Y-90000000D02*
X113500000Y-87000000D01*
X123500000Y-70500000D02*
G75*
G02*
X123500000Y-69500000I0J500000D01*
G01*
X123500000Y-116500000D02*
X126500000Y-116500000D01*
X136500000Y-99000000D02*
X136500000Y-96000000D01*
X113500000Y-106500000D02*
X113500000Y-103500000D01*
X136500000Y-96000000D02*
G75*
G02*
X137500000Y-96000000I500000J0D01*
G01*
X134000000Y-68500000D02*
G75*
G02*
X134000000Y-69500000I0J-500000D01*
G01*
X134000000Y-68500000D02*
X131000000Y-68500000D01*
X116000000Y-93500000D02*
X119000000Y-93500000D01*
X137500000Y-75000000D02*
X137500000Y-72000000D01*
X116000000Y-117500000D02*
X119000000Y-117500000D01*
X131000000Y-117500000D02*
G75*
G02*
X131000000Y-116500000I0J500000D01*
G01*
X123500000Y-94500000D02*
G75*
G02*
X123500000Y-93500000I0J500000D01*
G01*
X114500000Y-82500000D02*
X114500000Y-79500000D01*
X113500000Y-99000000D02*
G75*
G02*
X112500000Y-99000000I-500000J0D01*
G01*
X134000000Y-69500000D02*
X131000000Y-69500000D01*
X113500000Y-90000000D02*
G75*
G02*
X112500000Y-90000000I-500000J0D01*
G01*
X137500000Y-106500000D02*
X137500000Y-103500000D01*
X131000000Y-92500000D02*
X134000000Y-92500000D01*
X123500000Y-117500000D02*
X126500000Y-117500000D01*
X137500000Y-114000000D02*
G75*
G02*
X136500000Y-114000000I-500000J0D01*
G01*
X123500000Y-94500000D02*
X126500000Y-94500000D01*
X119000000Y-92500000D02*
G75*
G02*
X119000000Y-93500000I0J-500000D01*
G01*
X126500000Y-67500000D02*
X123500000Y-67500000D01*
X137500000Y-90000000D02*
G75*
G02*
X136500000Y-90000000I-500000J0D01*
G01*
X116000000Y-69500000D02*
G75*
G02*
X116000000Y-68500000I0J500000D01*
G01*
X113500000Y-114000000D02*
G75*
G02*
X112500000Y-114000000I-500000J0D01*
G01*
X137500000Y-82500000D02*
X137500000Y-79500000D01*
X112500000Y-106500000D02*
X112500000Y-103500000D01*
X126500000Y-68500000D02*
X123500000Y-68500000D01*
X111500000Y-79500000D02*
G75*
G02*
X112500000Y-79500000I500000J0D01*
G01*
X113500000Y-82500000D02*
X113500000Y-79500000D01*
X113500000Y-99000000D02*
X113500000Y-96000000D01*
X119000000Y-68500000D02*
X116000000Y-68500000D01*
X119000000Y-69500000D02*
X116000000Y-69500000D01*
X112500000Y-75000000D02*
X112500000Y-72000000D01*
X112500000Y-72000000D02*
G75*
G02*
X113500000Y-72000000I500000J0D01*
G01*
X112500000Y-90000000D02*
X112500000Y-87000000D01*
X126500000Y-67500000D02*
G75*
G02*
X126500000Y-68500000I0J-500000D01*
G01*
X126500000Y-91500000D02*
G75*
G02*
X126500000Y-92500000I0J-500000D01*
G01*
X123500000Y-92500000D02*
X126500000Y-92500000D01*
X137500000Y-99000000D02*
G75*
G02*
X136500000Y-99000000I-500000J0D01*
G01*
X112500000Y-82500000D02*
G75*
G02*
X111500000Y-82500000I-500000J0D01*
G01*
X123500000Y-118500000D02*
G75*
G02*
X123500000Y-117500000I0J500000D01*
G01*
X166500000Y-70500000D02*
X163500000Y-70500000D01*
X176500000Y-90000000D02*
X176500000Y-87000000D01*
X163500000Y-91500000D02*
X166500000Y-91500000D01*
X151500000Y-106500000D02*
X151500000Y-103500000D01*
X163500000Y-93500000D02*
X166500000Y-93500000D01*
X166500000Y-69500000D02*
X163500000Y-69500000D01*
X176500000Y-87000000D02*
G75*
G02*
X177500000Y-87000000I500000J0D01*
G01*
X166500000Y-93500000D02*
G75*
G02*
X166500000Y-94500000I0J-500000D01*
G01*
X178500000Y-82500000D02*
X178500000Y-79500000D01*
X177500000Y-103500000D02*
G75*
G02*
X178500000Y-103500000I500000J0D01*
G01*
X177500000Y-90000000D02*
X177500000Y-87000000D01*
X174000000Y-116500000D02*
G75*
G02*
X174000000Y-117500000I0J-500000D01*
G01*
X176500000Y-106500000D02*
G75*
G02*
X175500000Y-106500000I-500000J0D01*
G01*
X175500000Y-103500000D02*
G75*
G02*
X176500000Y-103500000I500000J0D01*
G01*
X166500000Y-117500000D02*
G75*
G02*
X166500000Y-118500000I0J-500000D01*
G01*
X156000000Y-93500000D02*
G75*
G02*
X156000000Y-92500000I0J500000D01*
G01*
X174000000Y-92500000D02*
G75*
G02*
X174000000Y-93500000I0J-500000D01*
G01*
X154500000Y-82500000D02*
G75*
G02*
X153500000Y-82500000I-500000J0D01*
G01*
X156000000Y-116500000D02*
X159000000Y-116500000D01*
X151500000Y-82500000D02*
X151500000Y-79500000D01*
X153500000Y-75000000D02*
X153500000Y-72000000D01*
X176500000Y-106500000D02*
X176500000Y-103500000D01*
X152500000Y-114000000D02*
X152500000Y-111000000D01*
X177500000Y-79500000D02*
G75*
G02*
X178500000Y-79500000I500000J0D01*
G01*
X176500000Y-114000000D02*
X176500000Y-111000000D01*
X152500000Y-99000000D02*
X152500000Y-96000000D01*
X166500000Y-69500000D02*
G75*
G02*
X166500000Y-70500000I0J-500000D01*
G01*
X152500000Y-96000000D02*
G75*
G02*
X153500000Y-96000000I500000J0D01*
G01*
X163500000Y-116500000D02*
G75*
G02*
X163500000Y-115500000I0J500000D01*
G01*
X176500000Y-75000000D02*
X176500000Y-72000000D01*
X153500000Y-75000000D02*
G75*
G02*
X152500000Y-75000000I-500000J0D01*
G01*
X176500000Y-72000000D02*
G75*
G02*
X177500000Y-72000000I500000J0D01*
G01*
X163500000Y-68500000D02*
G75*
G02*
X163500000Y-67500000I0J500000D01*
G01*
X176500000Y-82500000D02*
G75*
G02*
X175500000Y-82500000I-500000J0D01*
G01*
X153500000Y-79500000D02*
G75*
G02*
X154500000Y-79500000I500000J0D01*
G01*
X153500000Y-103500000D02*
G75*
G02*
X154500000Y-103500000I500000J0D01*
G01*
X152500000Y-106500000D02*
G75*
G02*
X151500000Y-106500000I-500000J0D01*
G01*
X152500000Y-111000000D02*
G75*
G02*
X153500000Y-111000000I500000J0D01*
G01*
X159000000Y-116500000D02*
G75*
G02*
X159000000Y-117500000I0J-500000D01*
G01*
X152500000Y-82500000D02*
X152500000Y-79500000D01*
X156000000Y-117500000D02*
G75*
G02*
X156000000Y-116500000I0J500000D01*
G01*
X159000000Y-68500000D02*
G75*
G02*
X159000000Y-69500000I0J-500000D01*
G01*
X156000000Y-92500000D02*
X159000000Y-92500000D01*
X175500000Y-79500000D02*
G75*
G02*
X176500000Y-79500000I500000J0D01*
G01*
X166500000Y-115500000D02*
G75*
G02*
X166500000Y-116500000I0J-500000D01*
G01*
X163500000Y-92500000D02*
G75*
G02*
X163500000Y-91500000I0J500000D01*
G01*
X178500000Y-82500000D02*
G75*
G02*
X177500000Y-82500000I-500000J0D01*
G01*
X177500000Y-114000000D02*
X177500000Y-111000000D01*
X171000000Y-69500000D02*
G75*
G02*
X171000000Y-68500000I0J500000D01*
G01*
X177500000Y-99000000D02*
X177500000Y-96000000D01*
X171000000Y-117500000D02*
X174000000Y-117500000D01*
X152500000Y-87000000D02*
G75*
G02*
X153500000Y-87000000I500000J0D01*
G01*
X154500000Y-106500000D02*
G75*
G02*
X153500000Y-106500000I-500000J0D01*
G01*
X163500000Y-115500000D02*
X166500000Y-115500000D01*
X171000000Y-93500000D02*
X174000000Y-93500000D01*
X177500000Y-75000000D02*
G75*
G02*
X176500000Y-75000000I-500000J0D01*
G01*
X171000000Y-116500000D02*
X174000000Y-116500000D01*
X151500000Y-103500000D02*
G75*
G02*
X152500000Y-103500000I500000J0D01*
G01*
X175500000Y-106500000D02*
X175500000Y-103500000D01*
X153500000Y-114000000D02*
X153500000Y-111000000D01*
X178500000Y-106500000D02*
X178500000Y-103500000D01*
X175500000Y-82500000D02*
X175500000Y-79500000D01*
X154500000Y-106500000D02*
X154500000Y-103500000D01*
X178500000Y-106500000D02*
G75*
G02*
X177500000Y-106500000I-500000J0D01*
G01*
X171000000Y-93500000D02*
G75*
G02*
X171000000Y-92500000I0J500000D01*
G01*
X163500000Y-118500000D02*
X166500000Y-118500000D01*
X176500000Y-111000000D02*
G75*
G02*
X177500000Y-111000000I500000J0D01*
G01*
X176500000Y-82500000D02*
X176500000Y-79500000D01*
X153500000Y-90000000D02*
X153500000Y-87000000D01*
X163500000Y-70500000D02*
G75*
G02*
X163500000Y-69500000I0J500000D01*
G01*
X163500000Y-116500000D02*
X166500000Y-116500000D01*
X176500000Y-99000000D02*
X176500000Y-96000000D01*
X153500000Y-106500000D02*
X153500000Y-103500000D01*
X176500000Y-96000000D02*
G75*
G02*
X177500000Y-96000000I500000J0D01*
G01*
X174000000Y-68500000D02*
G75*
G02*
X174000000Y-69500000I0J-500000D01*
G01*
X174000000Y-68500000D02*
X171000000Y-68500000D01*
X156000000Y-93500000D02*
X159000000Y-93500000D01*
X177500000Y-75000000D02*
X177500000Y-72000000D01*
X156000000Y-117500000D02*
X159000000Y-117500000D01*
X171000000Y-117500000D02*
G75*
G02*
X171000000Y-116500000I0J500000D01*
G01*
X163500000Y-94500000D02*
G75*
G02*
X163500000Y-93500000I0J500000D01*
G01*
X154500000Y-82500000D02*
X154500000Y-79500000D01*
X153500000Y-99000000D02*
G75*
G02*
X152500000Y-99000000I-500000J0D01*
G01*
X174000000Y-69500000D02*
X171000000Y-69500000D01*
X153500000Y-90000000D02*
G75*
G02*
X152500000Y-90000000I-500000J0D01*
G01*
X177500000Y-106500000D02*
X177500000Y-103500000D01*
X171000000Y-92500000D02*
X174000000Y-92500000D01*
X163500000Y-117500000D02*
X166500000Y-117500000D01*
X177500000Y-114000000D02*
G75*
G02*
X176500000Y-114000000I-500000J0D01*
G01*
X163500000Y-94500000D02*
X166500000Y-94500000D01*
X159000000Y-92500000D02*
G75*
G02*
X159000000Y-93500000I0J-500000D01*
G01*
X166500000Y-67500000D02*
X163500000Y-67500000D01*
X177500000Y-90000000D02*
G75*
G02*
X176500000Y-90000000I-500000J0D01*
G01*
X156000000Y-69500000D02*
G75*
G02*
X156000000Y-68500000I0J500000D01*
G01*
X153500000Y-114000000D02*
G75*
G02*
X152500000Y-114000000I-500000J0D01*
G01*
X177500000Y-82500000D02*
X177500000Y-79500000D01*
X152500000Y-106500000D02*
X152500000Y-103500000D01*
X166500000Y-68500000D02*
X163500000Y-68500000D01*
X151500000Y-79500000D02*
G75*
G02*
X152500000Y-79500000I500000J0D01*
G01*
X153500000Y-82500000D02*
X153500000Y-79500000D01*
X153500000Y-99000000D02*
X153500000Y-96000000D01*
X159000000Y-68500000D02*
X156000000Y-68500000D01*
X159000000Y-69500000D02*
X156000000Y-69500000D01*
X152500000Y-75000000D02*
X152500000Y-72000000D01*
X152500000Y-72000000D02*
G75*
G02*
X153500000Y-72000000I500000J0D01*
G01*
X152500000Y-90000000D02*
X152500000Y-87000000D01*
X166500000Y-67500000D02*
G75*
G02*
X166500000Y-68500000I0J-500000D01*
G01*
X166500000Y-91500000D02*
G75*
G02*
X166500000Y-92500000I0J-500000D01*
G01*
X163500000Y-92500000D02*
X166500000Y-92500000D01*
X177500000Y-99000000D02*
G75*
G02*
X176500000Y-99000000I-500000J0D01*
G01*
X152500000Y-82500000D02*
G75*
G02*
X151500000Y-82500000I-500000J0D01*
G01*
X163500000Y-118500000D02*
G75*
G02*
X163500000Y-117500000I0J500000D01*
G01*
X188000000Y-116500000D02*
X191000000Y-116500000D01*
X191000000Y-116500000D02*
G75*
G02*
X191000000Y-117500000I0J-500000D01*
G01*
X195500000Y-118500000D02*
X198500000Y-118500000D01*
X188000000Y-117500000D02*
X191000000Y-117500000D01*
X198500000Y-117500000D02*
G75*
G02*
X198500000Y-118500000I0J-500000D01*
G01*
X203000000Y-116500000D02*
X206000000Y-116500000D01*
X206000000Y-116500000D02*
G75*
G02*
X206000000Y-117500000I0J-500000D01*
G01*
X195500000Y-116500000D02*
G75*
G02*
X195500000Y-115500000I0J500000D01*
G01*
X198500000Y-115500000D02*
G75*
G02*
X198500000Y-116500000I0J-500000D01*
G01*
X195500000Y-118500000D02*
G75*
G02*
X195500000Y-117500000I0J500000D01*
G01*
X203000000Y-117500000D02*
G75*
G02*
X203000000Y-116500000I0J500000D01*
G01*
X195500000Y-115500000D02*
X198500000Y-115500000D01*
X195500000Y-116500000D02*
X198500000Y-116500000D01*
X203000000Y-117500000D02*
X206000000Y-117500000D01*
X188000000Y-117500000D02*
G75*
G02*
X188000000Y-116500000I0J500000D01*
G01*
X195500000Y-117500000D02*
X198500000Y-117500000D01*
X188000000Y-92500000D02*
X191000000Y-92500000D01*
X191000000Y-92500000D02*
G75*
G02*
X191000000Y-93500000I0J-500000D01*
G01*
X195500000Y-94500000D02*
X198500000Y-94500000D01*
X188000000Y-93500000D02*
X191000000Y-93500000D01*
X198500000Y-93500000D02*
G75*
G02*
X198500000Y-94500000I0J-500000D01*
G01*
X203000000Y-92500000D02*
X206000000Y-92500000D01*
X206000000Y-92500000D02*
G75*
G02*
X206000000Y-93500000I0J-500000D01*
G01*
X195500000Y-92500000D02*
G75*
G02*
X195500000Y-91500000I0J500000D01*
G01*
X198500000Y-91500000D02*
G75*
G02*
X198500000Y-92500000I0J-500000D01*
G01*
X195500000Y-94500000D02*
G75*
G02*
X195500000Y-93500000I0J500000D01*
G01*
X203000000Y-93500000D02*
G75*
G02*
X203000000Y-92500000I0J500000D01*
G01*
X195500000Y-91500000D02*
X198500000Y-91500000D01*
X195500000Y-92500000D02*
X198500000Y-92500000D01*
X203000000Y-93500000D02*
X206000000Y-93500000D01*
X188000000Y-93500000D02*
G75*
G02*
X188000000Y-92500000I0J500000D01*
G01*
X195500000Y-93500000D02*
X198500000Y-93500000D01*
X208500000Y-114000000D02*
X208500000Y-111000000D01*
X208500000Y-111000000D02*
G75*
G02*
X209500000Y-111000000I500000J0D01*
G01*
X210500000Y-106500000D02*
X210500000Y-103500000D01*
X209500000Y-114000000D02*
X209500000Y-111000000D01*
X209500000Y-103500000D02*
G75*
G02*
X210500000Y-103500000I500000J0D01*
G01*
X208500000Y-99000000D02*
X208500000Y-96000000D01*
X208500000Y-96000000D02*
G75*
G02*
X209500000Y-96000000I500000J0D01*
G01*
X208500000Y-106500000D02*
G75*
G02*
X207500000Y-106500000I-500000J0D01*
G01*
X207500000Y-103500000D02*
G75*
G02*
X208500000Y-103500000I500000J0D01*
G01*
X210500000Y-106500000D02*
G75*
G02*
X209500000Y-106500000I-500000J0D01*
G01*
X209500000Y-99000000D02*
G75*
G02*
X208500000Y-99000000I-500000J0D01*
G01*
X207500000Y-106500000D02*
X207500000Y-103500000D01*
X208500000Y-106500000D02*
X208500000Y-103500000D01*
X209500000Y-99000000D02*
X209500000Y-96000000D01*
X209500000Y-114000000D02*
G75*
G02*
X208500000Y-114000000I-500000J0D01*
G01*
X209500000Y-106500000D02*
X209500000Y-103500000D01*
X184500000Y-114000000D02*
X184500000Y-111000000D01*
X184500000Y-111000000D02*
G75*
G02*
X185500000Y-111000000I500000J0D01*
G01*
X186500000Y-106500000D02*
X186500000Y-103500000D01*
X185500000Y-114000000D02*
X185500000Y-111000000D01*
X185500000Y-103500000D02*
G75*
G02*
X186500000Y-103500000I500000J0D01*
G01*
X184500000Y-99000000D02*
X184500000Y-96000000D01*
X184500000Y-96000000D02*
G75*
G02*
X185500000Y-96000000I500000J0D01*
G01*
X184500000Y-106500000D02*
G75*
G02*
X183500000Y-106500000I-500000J0D01*
G01*
X183500000Y-103500000D02*
G75*
G02*
X184500000Y-103500000I500000J0D01*
G01*
X186500000Y-106500000D02*
G75*
G02*
X185500000Y-106500000I-500000J0D01*
G01*
X185500000Y-99000000D02*
G75*
G02*
X184500000Y-99000000I-500000J0D01*
G01*
X183500000Y-106500000D02*
X183500000Y-103500000D01*
X184500000Y-106500000D02*
X184500000Y-103500000D01*
X185500000Y-99000000D02*
X185500000Y-96000000D01*
X185500000Y-114000000D02*
G75*
G02*
X184500000Y-114000000I-500000J0D01*
G01*
X185500000Y-106500000D02*
X185500000Y-103500000D01*
X184500000Y-90000000D02*
X184500000Y-87000000D01*
X184500000Y-87000000D02*
G75*
G02*
X185500000Y-87000000I500000J0D01*
G01*
X186500000Y-82500000D02*
X186500000Y-79500000D01*
X185500000Y-90000000D02*
X185500000Y-87000000D01*
X185500000Y-79500000D02*
G75*
G02*
X186500000Y-79500000I500000J0D01*
G01*
X184500000Y-75000000D02*
X184500000Y-72000000D01*
X184500000Y-72000000D02*
G75*
G02*
X185500000Y-72000000I500000J0D01*
G01*
X184500000Y-82500000D02*
G75*
G02*
X183500000Y-82500000I-500000J0D01*
G01*
X183500000Y-79500000D02*
G75*
G02*
X184500000Y-79500000I500000J0D01*
G01*
X186500000Y-82500000D02*
G75*
G02*
X185500000Y-82500000I-500000J0D01*
G01*
X185500000Y-75000000D02*
G75*
G02*
X184500000Y-75000000I-500000J0D01*
G01*
X183500000Y-82500000D02*
X183500000Y-79500000D01*
X184500000Y-82500000D02*
X184500000Y-79500000D01*
X185500000Y-75000000D02*
X185500000Y-72000000D01*
X185500000Y-90000000D02*
G75*
G02*
X184500000Y-90000000I-500000J0D01*
G01*
X185500000Y-82500000D02*
X185500000Y-79500000D01*
X207500000Y-82500000D02*
X207500000Y-79500000D01*
X208500000Y-82500000D02*
X208500000Y-79500000D01*
X208500000Y-82500000D02*
G75*
G02*
X207500000Y-82500000I-500000J0D01*
G01*
X209500000Y-79500000D02*
G75*
G02*
X210500000Y-79500000I500000J0D01*
G01*
X209500000Y-75000000D02*
G75*
G02*
X208500000Y-75000000I-500000J0D01*
G01*
X208500000Y-87000000D02*
G75*
G02*
X209500000Y-87000000I500000J0D01*
G01*
X207500000Y-79500000D02*
G75*
G02*
X208500000Y-79500000I500000J0D01*
G01*
X209500000Y-90000000D02*
G75*
G02*
X208500000Y-90000000I-500000J0D01*
G01*
X209500000Y-90000000D02*
X209500000Y-87000000D01*
X208500000Y-90000000D02*
X208500000Y-87000000D01*
X210500000Y-82500000D02*
X210500000Y-79500000D01*
X208500000Y-72000000D02*
G75*
G02*
X209500000Y-72000000I500000J0D01*
G01*
X209500000Y-82500000D02*
X209500000Y-79500000D01*
X209500000Y-75000000D02*
X209500000Y-72000000D01*
X208500000Y-75000000D02*
X208500000Y-72000000D01*
X210500000Y-82500000D02*
G75*
G02*
X209500000Y-82500000I-500000J0D01*
G01*
X188000000Y-69500000D02*
G75*
G02*
X188000000Y-68500000I0J500000D01*
G01*
X191000000Y-68500000D02*
X188000000Y-68500000D01*
X191000000Y-69500000D02*
X188000000Y-69500000D01*
X191000000Y-68500000D02*
G75*
G02*
X191000000Y-69500000I0J-500000D01*
G01*
X203000000Y-69500000D02*
G75*
G02*
X203000000Y-68500000I0J500000D01*
G01*
X206000000Y-68500000D02*
X203000000Y-68500000D01*
X206000000Y-69500000D02*
X203000000Y-69500000D01*
X206000000Y-68500000D02*
G75*
G02*
X206000000Y-69500000I0J-500000D01*
G01*
X195500000Y-70500000D02*
G75*
G02*
X195500000Y-69500000I0J500000D01*
G01*
X198500000Y-69500000D02*
X195500000Y-69500000D01*
X198500000Y-70500000D02*
X195500000Y-70500000D01*
X198500000Y-69500000D02*
G75*
G02*
X198500000Y-70500000I0J-500000D01*
G01*
X198500000Y-67500000D02*
G75*
G02*
X198500000Y-68500000I0J-500000D01*
G01*
X195500000Y-68500000D02*
G75*
G02*
X195500000Y-67500000I0J500000D01*
G01*
X198500000Y-68500000D02*
X195500000Y-68500000D01*
X198500000Y-67500000D02*
X195500000Y-67500000D01*
X76000000Y-64000000D02*
X235000000Y-64000000D01*
X235000000Y-122000000D01*
X76000000Y-122000000D01*
X76000000Y-64000000D01*
M02*
