M48
; DRILL file {KiCad 9.0.6-9.0.6~ubuntu24.04.1} date 2025-12-08T22:34:10+0100
; FORMAT={-:-/ absolute / metric / decimal}
; #@! TF.CreationDate,2025-12-08T22:34:10+01:00
; #@! TF.GenerationSoftware,Kicad,Pcbnew,9.0.6-9.0.6~ubuntu24.04.1
; #@! TF.FileFunction,Plated,1,2,PTH
FMAT,2
METRIC
; #@! TA.AperFunction,Plated,PTH,ComponentDrill
T1C0.900
%
G90
G05
T1
X183.73Y-77.0
X183.73Y-85.0
X183.73Y-101.0
X183.73Y-109.0
X186.27Y-77.0
X186.27Y-85.0
X186.27Y-101.0
X186.27Y-109.0
X193.0Y-67.73
X193.0Y-70.27
X193.0Y-91.73
X193.0Y-94.27
X193.0Y-115.73
X193.0Y-118.27
X201.0Y-67.73
X201.0Y-70.27
X201.0Y-91.73
X201.0Y-94.27
X201.0Y-115.73
X201.0Y-118.27
X207.73Y-77.0
X207.73Y-85.0
X207.73Y-101.0
X207.73Y-109.0
X210.27Y-77.0
X210.27Y-85.0
X210.27Y-101.0
X210.27Y-109.0
X217.58Y-80.56
X217.58Y-86.03
X220.12Y-80.56
X220.12Y-86.03
M30
