  0
SECTION
  2
HEADER
  9
$ANGBASE
  50
0.0
  9
$ANGDIR
  70
1
  9
$MEASUREMENT
  70
1
  0
ENDSEC
  0
SECTION
  2
TABLES
  0
TABLE
  2
LTYPE
  70
4
  0
LTYPE
  5
40F
  2
CONTINUOUS
  70
0
  3
Solid line
  72
65
  73
0
  40
0.0
  0
LTYPE
  5
410
  2
DASHDOT
 70
0
  3
Dash Dot ____ _ ____ _
 72
65
 73
4
 40
2.0
 49
1.25
 49
-0.25
 49
0.25
 49
-0.25
  0
LTYPE
  5
411
  2
DASHED
 70
0
  3
Dashed __ __ __ __ __
 72
65
 73
2
 40
0.75
 49
0.5
 49
-0.25
  0
LTYPE
  5
43B
  2
DOTTED
 70
0
  3
Dotted .  .  .  .
 72
65
 73
2
 40
0.2
 49
0.0
 49
-0.2
  0
ENDTAB
  0
TABLE
  2
STYLE
  70
4
  0
STYLE
  2
KICAD
  70
0
  40
0
  41
1
  42
1
  50
0
  71
0
  3
isocp.shx
  0
STYLE
  2
KICADB
  70
0
  40
0
  41
1
  42
1
  50
0
  71
0
  3
isocp.shx
  0
STYLE
  2
KICADI
  70
0
  40
0
  41
1
  42
1
  50
15
  71
0
  3
isocp.shx
  0
STYLE
  2
KICADBI
  70
0
  40
0
  41
1
  42
1
  50
15
  71
0
  3
isocp.shx
  0
ENDTAB
  0
TABLE
  2
LAYER
  70
1
  0
LAYER
  2
BLACK
  70
0
  62
7
  6
CONTINUOUS
  0
ENDTAB
  0
ENDSEC
  0
SECTION
  2
ENTITIES
0
CIRCLE
8
BLACK
10
115.5
20
-70.25
40
1.5999999999999999
0
CIRCLE
8
BLACK
10
115.5
20
-76.75
40
1.5999999999999999
0
CIRCLE
8
BLACK
10
115.5
20
-83.25
40
1.5999999999999999
0
CIRCLE
8
BLACK
10
115.5
20
-89.75
40
1.5999999999999999
0
CIRCLE
8
BLACK
10
115.5
20
-96.25
40
1.5999999999999999
0
CIRCLE
8
BLACK
10
115.5
20
-102.75
40
1.5999999999999999
0
CIRCLE
8
BLACK
10
115.5
20
-109.25
40
1.5999999999999999
0
CIRCLE
8
BLACK
10
115.5
20
-115.75
40
1.5999999999999999
0
LINE
8
BLACK
6
CONTINUOUS
10
110.5
20
-66.
11
120.5
21
-66.
0
LINE
8
BLACK
6
CONTINUOUS
10
120.5
20
-66.
11
120.5
21
-120.
0
LINE
8
BLACK
6
CONTINUOUS
10
120.5
20
-120.
11
110.5
21
-120.
0
LINE
8
BLACK
6
CONTINUOUS
10
110.5
20
-120.
11
110.5
21
-66.
0
LINE
8
BLACK
6
CONTINUOUS
10
79.
20
-67.
11
107.
21
-67.
0
LINE
8
BLACK
6
CONTINUOUS
10
107.
20
-67.
11
107.
21
-119.
0
LINE
8
BLACK
6
CONTINUOUS
10
107.
20
-119.
11
79.
21
-119.
0
LINE
8
BLACK
6
CONTINUOUS
10
79.
20
-119.
11
79.
21
-67.
0
CIRCLE
8
BLACK
10
89.
20
-117.
40
1.5999999999999999
0
CIRCLE
8
BLACK
10
97.
20
-117.
40
1.5999999999999999
0
CIRCLE
8
BLACK
10
105.
20
-101.
40
1.5999999999999999
0
CIRCLE
8
BLACK
10
105.
20
-109.
40
1.5999999999999999
0
CIRCLE
8
BLACK
10
81.
20
-101.
40
1.5999999999999999
0
CIRCLE
8
BLACK
10
81.
20
-109.
40
1.5999999999999999
0
CIRCLE
8
BLACK
10
89.
20
-93.
40
1.5999999999999999
0
CIRCLE
8
BLACK
10
97.
20
-93.
40
1.5999999999999999
0
CIRCLE
8
BLACK
10
81.
20
-77.
40
1.5999999999999999
0
CIRCLE
8
BLACK
10
81.
20
-85.
40
1.5999999999999999
0
CIRCLE
8
BLACK
10
89.
20
-69.
40
1.5999999999999999
0
CIRCLE
8
BLACK
10
97.
20
-69.
40
1.5999999999999999
0
CIRCLE
8
BLACK
10
105.
20
-85.
40
1.5999999999999999
0
CIRCLE
8
BLACK
10
105.
20
-77.
40
1.5999999999999999
  0
ENDSEC
  0
EOF
