%TF.GenerationSoftware,KiCad,Pcbnew,9.0.6-9.0.6~ubuntu24.04.1*%
%TF.CreationDate,2025-12-08T22:33:50+01:00*%
%TF.ProjectId,7_seg_led_tht_3mm,375f7365-675f-46c6-9564-5f7468745f33,rev?*%
%TF.SameCoordinates,Original*%
%TF.FileFunction,Legend,Top*%
%TF.FilePolarity,Positive*%
%FSLAX46Y46*%
G04 Gerber Fmt 4.6, Leading zero omitted, Abs format (unit mm)*
G04 Created by KiCad (PCBNEW 9.0.6-9.0.6~ubuntu24.04.1) date 2025-12-08 22:33:50*
%MOMM*%
%LPD*%
G01*
G04 APERTURE LIST*
%ADD10C,0.150000*%
%ADD11C,0.120000*%
%ADD12R,1.800000X1.800000*%
%ADD13C,1.800000*%
G04 APERTURE END LIST*
D10*
X217635714Y-83524819D02*
X217635714Y-82524819D01*
X217635714Y-82524819D02*
X217873809Y-82524819D01*
X217873809Y-82524819D02*
X218016666Y-82572438D01*
X218016666Y-82572438D02*
X218111904Y-82667676D01*
X218111904Y-82667676D02*
X218159523Y-82762914D01*
X218159523Y-82762914D02*
X218207142Y-82953390D01*
X218207142Y-82953390D02*
X218207142Y-83096247D01*
X218207142Y-83096247D02*
X218159523Y-83286723D01*
X218159523Y-83286723D02*
X218111904Y-83381961D01*
X218111904Y-83381961D02*
X218016666Y-83477200D01*
X218016666Y-83477200D02*
X217873809Y-83524819D01*
X217873809Y-83524819D02*
X217635714Y-83524819D01*
X219159523Y-83524819D02*
X218588095Y-83524819D01*
X218873809Y-83524819D02*
X218873809Y-82524819D01*
X218873809Y-82524819D02*
X218778571Y-82667676D01*
X218778571Y-82667676D02*
X218683333Y-82762914D01*
X218683333Y-82762914D02*
X218588095Y-82810533D01*
X220016666Y-82524819D02*
X219826190Y-82524819D01*
X219826190Y-82524819D02*
X219730952Y-82572438D01*
X219730952Y-82572438D02*
X219683333Y-82620057D01*
X219683333Y-82620057D02*
X219588095Y-82762914D01*
X219588095Y-82762914D02*
X219540476Y-82953390D01*
X219540476Y-82953390D02*
X219540476Y-83334342D01*
X219540476Y-83334342D02*
X219588095Y-83429580D01*
X219588095Y-83429580D02*
X219635714Y-83477200D01*
X219635714Y-83477200D02*
X219730952Y-83524819D01*
X219730952Y-83524819D02*
X219921428Y-83524819D01*
X219921428Y-83524819D02*
X220016666Y-83477200D01*
X220016666Y-83477200D02*
X220064285Y-83429580D01*
X220064285Y-83429580D02*
X220111904Y-83334342D01*
X220111904Y-83334342D02*
X220111904Y-83096247D01*
X220111904Y-83096247D02*
X220064285Y-83001009D01*
X220064285Y-83001009D02*
X220016666Y-82953390D01*
X220016666Y-82953390D02*
X219921428Y-82905771D01*
X219921428Y-82905771D02*
X219730952Y-82905771D01*
X219730952Y-82905771D02*
X219635714Y-82953390D01*
X219635714Y-82953390D02*
X219588095Y-83001009D01*
X219588095Y-83001009D02*
X219540476Y-83096247D01*
X217635714Y-78054819D02*
X217635714Y-77054819D01*
X217635714Y-77054819D02*
X217873809Y-77054819D01*
X217873809Y-77054819D02*
X218016666Y-77102438D01*
X218016666Y-77102438D02*
X218111904Y-77197676D01*
X218111904Y-77197676D02*
X218159523Y-77292914D01*
X218159523Y-77292914D02*
X218207142Y-77483390D01*
X218207142Y-77483390D02*
X218207142Y-77626247D01*
X218207142Y-77626247D02*
X218159523Y-77816723D01*
X218159523Y-77816723D02*
X218111904Y-77911961D01*
X218111904Y-77911961D02*
X218016666Y-78007200D01*
X218016666Y-78007200D02*
X217873809Y-78054819D01*
X217873809Y-78054819D02*
X217635714Y-78054819D01*
X219159523Y-78054819D02*
X218588095Y-78054819D01*
X218873809Y-78054819D02*
X218873809Y-77054819D01*
X218873809Y-77054819D02*
X218778571Y-77197676D01*
X218778571Y-77197676D02*
X218683333Y-77292914D01*
X218683333Y-77292914D02*
X218588095Y-77340533D01*
X220064285Y-77054819D02*
X219588095Y-77054819D01*
X219588095Y-77054819D02*
X219540476Y-77531009D01*
X219540476Y-77531009D02*
X219588095Y-77483390D01*
X219588095Y-77483390D02*
X219683333Y-77435771D01*
X219683333Y-77435771D02*
X219921428Y-77435771D01*
X219921428Y-77435771D02*
X220016666Y-77483390D01*
X220016666Y-77483390D02*
X220064285Y-77531009D01*
X220064285Y-77531009D02*
X220111904Y-77626247D01*
X220111904Y-77626247D02*
X220111904Y-77864342D01*
X220111904Y-77864342D02*
X220064285Y-77959580D01*
X220064285Y-77959580D02*
X220016666Y-78007200D01*
X220016666Y-78007200D02*
X219921428Y-78054819D01*
X219921428Y-78054819D02*
X219683333Y-78054819D01*
X219683333Y-78054819D02*
X219588095Y-78007200D01*
X219588095Y-78007200D02*
X219540476Y-77959580D01*
X207785714Y-74494819D02*
X207785714Y-73494819D01*
X207785714Y-73494819D02*
X208023809Y-73494819D01*
X208023809Y-73494819D02*
X208166666Y-73542438D01*
X208166666Y-73542438D02*
X208261904Y-73637676D01*
X208261904Y-73637676D02*
X208309523Y-73732914D01*
X208309523Y-73732914D02*
X208357142Y-73923390D01*
X208357142Y-73923390D02*
X208357142Y-74066247D01*
X208357142Y-74066247D02*
X208309523Y-74256723D01*
X208309523Y-74256723D02*
X208261904Y-74351961D01*
X208261904Y-74351961D02*
X208166666Y-74447200D01*
X208166666Y-74447200D02*
X208023809Y-74494819D01*
X208023809Y-74494819D02*
X207785714Y-74494819D01*
X209309523Y-74494819D02*
X208738095Y-74494819D01*
X209023809Y-74494819D02*
X209023809Y-73494819D01*
X209023809Y-73494819D02*
X208928571Y-73637676D01*
X208928571Y-73637676D02*
X208833333Y-73732914D01*
X208833333Y-73732914D02*
X208738095Y-73780533D01*
X210261904Y-74494819D02*
X209690476Y-74494819D01*
X209976190Y-74494819D02*
X209976190Y-73494819D01*
X209976190Y-73494819D02*
X209880952Y-73637676D01*
X209880952Y-73637676D02*
X209785714Y-73732914D01*
X209785714Y-73732914D02*
X209690476Y-73780533D01*
X184261905Y-104414819D02*
X184261905Y-103414819D01*
X184261905Y-103414819D02*
X184500000Y-103414819D01*
X184500000Y-103414819D02*
X184642857Y-103462438D01*
X184642857Y-103462438D02*
X184738095Y-103557676D01*
X184738095Y-103557676D02*
X184785714Y-103652914D01*
X184785714Y-103652914D02*
X184833333Y-103843390D01*
X184833333Y-103843390D02*
X184833333Y-103986247D01*
X184833333Y-103986247D02*
X184785714Y-104176723D01*
X184785714Y-104176723D02*
X184738095Y-104271961D01*
X184738095Y-104271961D02*
X184642857Y-104367200D01*
X184642857Y-104367200D02*
X184500000Y-104414819D01*
X184500000Y-104414819D02*
X184261905Y-104414819D01*
X185214286Y-103510057D02*
X185261905Y-103462438D01*
X185261905Y-103462438D02*
X185357143Y-103414819D01*
X185357143Y-103414819D02*
X185595238Y-103414819D01*
X185595238Y-103414819D02*
X185690476Y-103462438D01*
X185690476Y-103462438D02*
X185738095Y-103510057D01*
X185738095Y-103510057D02*
X185785714Y-103605295D01*
X185785714Y-103605295D02*
X185785714Y-103700533D01*
X185785714Y-103700533D02*
X185738095Y-103843390D01*
X185738095Y-103843390D02*
X185166667Y-104414819D01*
X185166667Y-104414819D02*
X185785714Y-104414819D01*
X198494819Y-93738094D02*
X197494819Y-93738094D01*
X197494819Y-93738094D02*
X197494819Y-93499999D01*
X197494819Y-93499999D02*
X197542438Y-93357142D01*
X197542438Y-93357142D02*
X197637676Y-93261904D01*
X197637676Y-93261904D02*
X197732914Y-93214285D01*
X197732914Y-93214285D02*
X197923390Y-93166666D01*
X197923390Y-93166666D02*
X198066247Y-93166666D01*
X198066247Y-93166666D02*
X198256723Y-93214285D01*
X198256723Y-93214285D02*
X198351961Y-93261904D01*
X198351961Y-93261904D02*
X198447200Y-93357142D01*
X198447200Y-93357142D02*
X198494819Y-93499999D01*
X198494819Y-93499999D02*
X198494819Y-93738094D01*
X197923390Y-92595237D02*
X197875771Y-92690475D01*
X197875771Y-92690475D02*
X197828152Y-92738094D01*
X197828152Y-92738094D02*
X197732914Y-92785713D01*
X197732914Y-92785713D02*
X197685295Y-92785713D01*
X197685295Y-92785713D02*
X197590057Y-92738094D01*
X197590057Y-92738094D02*
X197542438Y-92690475D01*
X197542438Y-92690475D02*
X197494819Y-92595237D01*
X197494819Y-92595237D02*
X197494819Y-92404761D01*
X197494819Y-92404761D02*
X197542438Y-92309523D01*
X197542438Y-92309523D02*
X197590057Y-92261904D01*
X197590057Y-92261904D02*
X197685295Y-92214285D01*
X197685295Y-92214285D02*
X197732914Y-92214285D01*
X197732914Y-92214285D02*
X197828152Y-92261904D01*
X197828152Y-92261904D02*
X197875771Y-92309523D01*
X197875771Y-92309523D02*
X197923390Y-92404761D01*
X197923390Y-92404761D02*
X197923390Y-92595237D01*
X197923390Y-92595237D02*
X197971009Y-92690475D01*
X197971009Y-92690475D02*
X198018628Y-92738094D01*
X198018628Y-92738094D02*
X198113866Y-92785713D01*
X198113866Y-92785713D02*
X198304342Y-92785713D01*
X198304342Y-92785713D02*
X198399580Y-92738094D01*
X198399580Y-92738094D02*
X198447200Y-92690475D01*
X198447200Y-92690475D02*
X198494819Y-92595237D01*
X198494819Y-92595237D02*
X198494819Y-92404761D01*
X198494819Y-92404761D02*
X198447200Y-92309523D01*
X198447200Y-92309523D02*
X198399580Y-92261904D01*
X198399580Y-92261904D02*
X198304342Y-92214285D01*
X198304342Y-92214285D02*
X198113866Y-92214285D01*
X198113866Y-92214285D02*
X198018628Y-92261904D01*
X198018628Y-92261904D02*
X197971009Y-92309523D01*
X197971009Y-92309523D02*
X197923390Y-92404761D01*
X184261905Y-112414819D02*
X184261905Y-111414819D01*
X184261905Y-111414819D02*
X184500000Y-111414819D01*
X184500000Y-111414819D02*
X184642857Y-111462438D01*
X184642857Y-111462438D02*
X184738095Y-111557676D01*
X184738095Y-111557676D02*
X184785714Y-111652914D01*
X184785714Y-111652914D02*
X184833333Y-111843390D01*
X184833333Y-111843390D02*
X184833333Y-111986247D01*
X184833333Y-111986247D02*
X184785714Y-112176723D01*
X184785714Y-112176723D02*
X184738095Y-112271961D01*
X184738095Y-112271961D02*
X184642857Y-112367200D01*
X184642857Y-112367200D02*
X184500000Y-112414819D01*
X184500000Y-112414819D02*
X184261905Y-112414819D01*
X185690476Y-111748152D02*
X185690476Y-112414819D01*
X185452381Y-111367200D02*
X185214286Y-112081485D01*
X185214286Y-112081485D02*
X185833333Y-112081485D01*
X207785714Y-106494819D02*
X207785714Y-105494819D01*
X207785714Y-105494819D02*
X208023809Y-105494819D01*
X208023809Y-105494819D02*
X208166666Y-105542438D01*
X208166666Y-105542438D02*
X208261904Y-105637676D01*
X208261904Y-105637676D02*
X208309523Y-105732914D01*
X208309523Y-105732914D02*
X208357142Y-105923390D01*
X208357142Y-105923390D02*
X208357142Y-106066247D01*
X208357142Y-106066247D02*
X208309523Y-106256723D01*
X208309523Y-106256723D02*
X208261904Y-106351961D01*
X208261904Y-106351961D02*
X208166666Y-106447200D01*
X208166666Y-106447200D02*
X208023809Y-106494819D01*
X208023809Y-106494819D02*
X207785714Y-106494819D01*
X209309523Y-106494819D02*
X208738095Y-106494819D01*
X209023809Y-106494819D02*
X209023809Y-105494819D01*
X209023809Y-105494819D02*
X208928571Y-105637676D01*
X208928571Y-105637676D02*
X208833333Y-105732914D01*
X208833333Y-105732914D02*
X208738095Y-105780533D01*
X210166666Y-105828152D02*
X210166666Y-106494819D01*
X209928571Y-105447200D02*
X209690476Y-106161485D01*
X209690476Y-106161485D02*
X210309523Y-106161485D01*
X190494819Y-93738094D02*
X189494819Y-93738094D01*
X189494819Y-93738094D02*
X189494819Y-93499999D01*
X189494819Y-93499999D02*
X189542438Y-93357142D01*
X189542438Y-93357142D02*
X189637676Y-93261904D01*
X189637676Y-93261904D02*
X189732914Y-93214285D01*
X189732914Y-93214285D02*
X189923390Y-93166666D01*
X189923390Y-93166666D02*
X190066247Y-93166666D01*
X190066247Y-93166666D02*
X190256723Y-93214285D01*
X190256723Y-93214285D02*
X190351961Y-93261904D01*
X190351961Y-93261904D02*
X190447200Y-93357142D01*
X190447200Y-93357142D02*
X190494819Y-93499999D01*
X190494819Y-93499999D02*
X190494819Y-93738094D01*
X189494819Y-92833332D02*
X189494819Y-92166666D01*
X189494819Y-92166666D02*
X190494819Y-92595237D01*
X198494819Y-69738094D02*
X197494819Y-69738094D01*
X197494819Y-69738094D02*
X197494819Y-69499999D01*
X197494819Y-69499999D02*
X197542438Y-69357142D01*
X197542438Y-69357142D02*
X197637676Y-69261904D01*
X197637676Y-69261904D02*
X197732914Y-69214285D01*
X197732914Y-69214285D02*
X197923390Y-69166666D01*
X197923390Y-69166666D02*
X198066247Y-69166666D01*
X198066247Y-69166666D02*
X198256723Y-69214285D01*
X198256723Y-69214285D02*
X198351961Y-69261904D01*
X198351961Y-69261904D02*
X198447200Y-69357142D01*
X198447200Y-69357142D02*
X198494819Y-69499999D01*
X198494819Y-69499999D02*
X198494819Y-69738094D01*
X197494819Y-68309523D02*
X197494819Y-68499999D01*
X197494819Y-68499999D02*
X197542438Y-68595237D01*
X197542438Y-68595237D02*
X197590057Y-68642856D01*
X197590057Y-68642856D02*
X197732914Y-68738094D01*
X197732914Y-68738094D02*
X197923390Y-68785713D01*
X197923390Y-68785713D02*
X198304342Y-68785713D01*
X198304342Y-68785713D02*
X198399580Y-68738094D01*
X198399580Y-68738094D02*
X198447200Y-68690475D01*
X198447200Y-68690475D02*
X198494819Y-68595237D01*
X198494819Y-68595237D02*
X198494819Y-68404761D01*
X198494819Y-68404761D02*
X198447200Y-68309523D01*
X198447200Y-68309523D02*
X198399580Y-68261904D01*
X198399580Y-68261904D02*
X198304342Y-68214285D01*
X198304342Y-68214285D02*
X198066247Y-68214285D01*
X198066247Y-68214285D02*
X197971009Y-68261904D01*
X197971009Y-68261904D02*
X197923390Y-68309523D01*
X197923390Y-68309523D02*
X197875771Y-68404761D01*
X197875771Y-68404761D02*
X197875771Y-68595237D01*
X197875771Y-68595237D02*
X197923390Y-68690475D01*
X197923390Y-68690475D02*
X197971009Y-68738094D01*
X197971009Y-68738094D02*
X198066247Y-68785713D01*
X184261905Y-80414819D02*
X184261905Y-79414819D01*
X184261905Y-79414819D02*
X184500000Y-79414819D01*
X184500000Y-79414819D02*
X184642857Y-79462438D01*
X184642857Y-79462438D02*
X184738095Y-79557676D01*
X184738095Y-79557676D02*
X184785714Y-79652914D01*
X184785714Y-79652914D02*
X184833333Y-79843390D01*
X184833333Y-79843390D02*
X184833333Y-79986247D01*
X184833333Y-79986247D02*
X184785714Y-80176723D01*
X184785714Y-80176723D02*
X184738095Y-80271961D01*
X184738095Y-80271961D02*
X184642857Y-80367200D01*
X184642857Y-80367200D02*
X184500000Y-80414819D01*
X184500000Y-80414819D02*
X184261905Y-80414819D01*
X185785714Y-80414819D02*
X185214286Y-80414819D01*
X185500000Y-80414819D02*
X185500000Y-79414819D01*
X185500000Y-79414819D02*
X185404762Y-79557676D01*
X185404762Y-79557676D02*
X185309524Y-79652914D01*
X185309524Y-79652914D02*
X185214286Y-79700533D01*
X207785714Y-82494819D02*
X207785714Y-81494819D01*
X207785714Y-81494819D02*
X208023809Y-81494819D01*
X208023809Y-81494819D02*
X208166666Y-81542438D01*
X208166666Y-81542438D02*
X208261904Y-81637676D01*
X208261904Y-81637676D02*
X208309523Y-81732914D01*
X208309523Y-81732914D02*
X208357142Y-81923390D01*
X208357142Y-81923390D02*
X208357142Y-82066247D01*
X208357142Y-82066247D02*
X208309523Y-82256723D01*
X208309523Y-82256723D02*
X208261904Y-82351961D01*
X208261904Y-82351961D02*
X208166666Y-82447200D01*
X208166666Y-82447200D02*
X208023809Y-82494819D01*
X208023809Y-82494819D02*
X207785714Y-82494819D01*
X209309523Y-82494819D02*
X208738095Y-82494819D01*
X209023809Y-82494819D02*
X209023809Y-81494819D01*
X209023809Y-81494819D02*
X208928571Y-81637676D01*
X208928571Y-81637676D02*
X208833333Y-81732914D01*
X208833333Y-81732914D02*
X208738095Y-81780533D01*
X209642857Y-81494819D02*
X210261904Y-81494819D01*
X210261904Y-81494819D02*
X209928571Y-81875771D01*
X209928571Y-81875771D02*
X210071428Y-81875771D01*
X210071428Y-81875771D02*
X210166666Y-81923390D01*
X210166666Y-81923390D02*
X210214285Y-81971009D01*
X210214285Y-81971009D02*
X210261904Y-82066247D01*
X210261904Y-82066247D02*
X210261904Y-82304342D01*
X210261904Y-82304342D02*
X210214285Y-82399580D01*
X210214285Y-82399580D02*
X210166666Y-82447200D01*
X210166666Y-82447200D02*
X210071428Y-82494819D01*
X210071428Y-82494819D02*
X209785714Y-82494819D01*
X209785714Y-82494819D02*
X209690476Y-82447200D01*
X209690476Y-82447200D02*
X209642857Y-82399580D01*
X190494819Y-69738094D02*
X189494819Y-69738094D01*
X189494819Y-69738094D02*
X189494819Y-69499999D01*
X189494819Y-69499999D02*
X189542438Y-69357142D01*
X189542438Y-69357142D02*
X189637676Y-69261904D01*
X189637676Y-69261904D02*
X189732914Y-69214285D01*
X189732914Y-69214285D02*
X189923390Y-69166666D01*
X189923390Y-69166666D02*
X190066247Y-69166666D01*
X190066247Y-69166666D02*
X190256723Y-69214285D01*
X190256723Y-69214285D02*
X190351961Y-69261904D01*
X190351961Y-69261904D02*
X190447200Y-69357142D01*
X190447200Y-69357142D02*
X190494819Y-69499999D01*
X190494819Y-69499999D02*
X190494819Y-69738094D01*
X189494819Y-68261904D02*
X189494819Y-68738094D01*
X189494819Y-68738094D02*
X189971009Y-68785713D01*
X189971009Y-68785713D02*
X189923390Y-68738094D01*
X189923390Y-68738094D02*
X189875771Y-68642856D01*
X189875771Y-68642856D02*
X189875771Y-68404761D01*
X189875771Y-68404761D02*
X189923390Y-68309523D01*
X189923390Y-68309523D02*
X189971009Y-68261904D01*
X189971009Y-68261904D02*
X190066247Y-68214285D01*
X190066247Y-68214285D02*
X190304342Y-68214285D01*
X190304342Y-68214285D02*
X190399580Y-68261904D01*
X190399580Y-68261904D02*
X190447200Y-68309523D01*
X190447200Y-68309523D02*
X190494819Y-68404761D01*
X190494819Y-68404761D02*
X190494819Y-68642856D01*
X190494819Y-68642856D02*
X190447200Y-68738094D01*
X190447200Y-68738094D02*
X190399580Y-68785713D01*
X204414819Y-118214285D02*
X203414819Y-118214285D01*
X203414819Y-118214285D02*
X203414819Y-117976190D01*
X203414819Y-117976190D02*
X203462438Y-117833333D01*
X203462438Y-117833333D02*
X203557676Y-117738095D01*
X203557676Y-117738095D02*
X203652914Y-117690476D01*
X203652914Y-117690476D02*
X203843390Y-117642857D01*
X203843390Y-117642857D02*
X203986247Y-117642857D01*
X203986247Y-117642857D02*
X204176723Y-117690476D01*
X204176723Y-117690476D02*
X204271961Y-117738095D01*
X204271961Y-117738095D02*
X204367200Y-117833333D01*
X204367200Y-117833333D02*
X204414819Y-117976190D01*
X204414819Y-117976190D02*
X204414819Y-118214285D01*
X204414819Y-116690476D02*
X204414819Y-117261904D01*
X204414819Y-116976190D02*
X203414819Y-116976190D01*
X203414819Y-116976190D02*
X203557676Y-117071428D01*
X203557676Y-117071428D02*
X203652914Y-117166666D01*
X203652914Y-117166666D02*
X203700533Y-117261904D01*
X203414819Y-116071428D02*
X203414819Y-115976190D01*
X203414819Y-115976190D02*
X203462438Y-115880952D01*
X203462438Y-115880952D02*
X203510057Y-115833333D01*
X203510057Y-115833333D02*
X203605295Y-115785714D01*
X203605295Y-115785714D02*
X203795771Y-115738095D01*
X203795771Y-115738095D02*
X204033866Y-115738095D01*
X204033866Y-115738095D02*
X204224342Y-115785714D01*
X204224342Y-115785714D02*
X204319580Y-115833333D01*
X204319580Y-115833333D02*
X204367200Y-115880952D01*
X204367200Y-115880952D02*
X204414819Y-115976190D01*
X204414819Y-115976190D02*
X204414819Y-116071428D01*
X204414819Y-116071428D02*
X204367200Y-116166666D01*
X204367200Y-116166666D02*
X204319580Y-116214285D01*
X204319580Y-116214285D02*
X204224342Y-116261904D01*
X204224342Y-116261904D02*
X204033866Y-116309523D01*
X204033866Y-116309523D02*
X203795771Y-116309523D01*
X203795771Y-116309523D02*
X203605295Y-116261904D01*
X203605295Y-116261904D02*
X203510057Y-116214285D01*
X203510057Y-116214285D02*
X203462438Y-116166666D01*
X203462438Y-116166666D02*
X203414819Y-116071428D01*
X184261905Y-88414819D02*
X184261905Y-87414819D01*
X184261905Y-87414819D02*
X184500000Y-87414819D01*
X184500000Y-87414819D02*
X184642857Y-87462438D01*
X184642857Y-87462438D02*
X184738095Y-87557676D01*
X184738095Y-87557676D02*
X184785714Y-87652914D01*
X184785714Y-87652914D02*
X184833333Y-87843390D01*
X184833333Y-87843390D02*
X184833333Y-87986247D01*
X184833333Y-87986247D02*
X184785714Y-88176723D01*
X184785714Y-88176723D02*
X184738095Y-88271961D01*
X184738095Y-88271961D02*
X184642857Y-88367200D01*
X184642857Y-88367200D02*
X184500000Y-88414819D01*
X184500000Y-88414819D02*
X184261905Y-88414819D01*
X185166667Y-87414819D02*
X185785714Y-87414819D01*
X185785714Y-87414819D02*
X185452381Y-87795771D01*
X185452381Y-87795771D02*
X185595238Y-87795771D01*
X185595238Y-87795771D02*
X185690476Y-87843390D01*
X185690476Y-87843390D02*
X185738095Y-87891009D01*
X185738095Y-87891009D02*
X185785714Y-87986247D01*
X185785714Y-87986247D02*
X185785714Y-88224342D01*
X185785714Y-88224342D02*
X185738095Y-88319580D01*
X185738095Y-88319580D02*
X185690476Y-88367200D01*
X185690476Y-88367200D02*
X185595238Y-88414819D01*
X185595238Y-88414819D02*
X185309524Y-88414819D01*
X185309524Y-88414819D02*
X185214286Y-88367200D01*
X185214286Y-88367200D02*
X185166667Y-88319580D01*
X207785714Y-98494819D02*
X207785714Y-97494819D01*
X207785714Y-97494819D02*
X208023809Y-97494819D01*
X208023809Y-97494819D02*
X208166666Y-97542438D01*
X208166666Y-97542438D02*
X208261904Y-97637676D01*
X208261904Y-97637676D02*
X208309523Y-97732914D01*
X208309523Y-97732914D02*
X208357142Y-97923390D01*
X208357142Y-97923390D02*
X208357142Y-98066247D01*
X208357142Y-98066247D02*
X208309523Y-98256723D01*
X208309523Y-98256723D02*
X208261904Y-98351961D01*
X208261904Y-98351961D02*
X208166666Y-98447200D01*
X208166666Y-98447200D02*
X208023809Y-98494819D01*
X208023809Y-98494819D02*
X207785714Y-98494819D01*
X209309523Y-98494819D02*
X208738095Y-98494819D01*
X209023809Y-98494819D02*
X209023809Y-97494819D01*
X209023809Y-97494819D02*
X208928571Y-97637676D01*
X208928571Y-97637676D02*
X208833333Y-97732914D01*
X208833333Y-97732914D02*
X208738095Y-97780533D01*
X209690476Y-97590057D02*
X209738095Y-97542438D01*
X209738095Y-97542438D02*
X209833333Y-97494819D01*
X209833333Y-97494819D02*
X210071428Y-97494819D01*
X210071428Y-97494819D02*
X210166666Y-97542438D01*
X210166666Y-97542438D02*
X210214285Y-97590057D01*
X210214285Y-97590057D02*
X210261904Y-97685295D01*
X210261904Y-97685295D02*
X210261904Y-97780533D01*
X210261904Y-97780533D02*
X210214285Y-97923390D01*
X210214285Y-97923390D02*
X209642857Y-98494819D01*
X209642857Y-98494819D02*
X210261904Y-98494819D01*
X196414819Y-117738094D02*
X195414819Y-117738094D01*
X195414819Y-117738094D02*
X195414819Y-117499999D01*
X195414819Y-117499999D02*
X195462438Y-117357142D01*
X195462438Y-117357142D02*
X195557676Y-117261904D01*
X195557676Y-117261904D02*
X195652914Y-117214285D01*
X195652914Y-117214285D02*
X195843390Y-117166666D01*
X195843390Y-117166666D02*
X195986247Y-117166666D01*
X195986247Y-117166666D02*
X196176723Y-117214285D01*
X196176723Y-117214285D02*
X196271961Y-117261904D01*
X196271961Y-117261904D02*
X196367200Y-117357142D01*
X196367200Y-117357142D02*
X196414819Y-117499999D01*
X196414819Y-117499999D02*
X196414819Y-117738094D01*
X196414819Y-116690475D02*
X196414819Y-116499999D01*
X196414819Y-116499999D02*
X196367200Y-116404761D01*
X196367200Y-116404761D02*
X196319580Y-116357142D01*
X196319580Y-116357142D02*
X196176723Y-116261904D01*
X196176723Y-116261904D02*
X195986247Y-116214285D01*
X195986247Y-116214285D02*
X195605295Y-116214285D01*
X195605295Y-116214285D02*
X195510057Y-116261904D01*
X195510057Y-116261904D02*
X195462438Y-116309523D01*
X195462438Y-116309523D02*
X195414819Y-116404761D01*
X195414819Y-116404761D02*
X195414819Y-116595237D01*
X195414819Y-116595237D02*
X195462438Y-116690475D01*
X195462438Y-116690475D02*
X195510057Y-116738094D01*
X195510057Y-116738094D02*
X195605295Y-116785713D01*
X195605295Y-116785713D02*
X195843390Y-116785713D01*
X195843390Y-116785713D02*
X195938628Y-116738094D01*
X195938628Y-116738094D02*
X195986247Y-116690475D01*
X195986247Y-116690475D02*
X196033866Y-116595237D01*
X196033866Y-116595237D02*
X196033866Y-116404761D01*
X196033866Y-116404761D02*
X195986247Y-116309523D01*
X195986247Y-116309523D02*
X195938628Y-116261904D01*
X195938628Y-116261904D02*
X195843390Y-116214285D01*
D11*
%TO.C,D16*%
X217290000Y-84794000D02*
X217290000Y-84950000D01*
X217290000Y-87110000D02*
X217290000Y-87266000D01*
X217290000Y-84794484D02*
G75*
G02*
X220521437Y-84950000I1560000J-1235516D01*
G01*
X217809039Y-84950000D02*
G75*
G02*
X219890961Y-84950000I1040961J-1080000D01*
G01*
X219890961Y-87110000D02*
G75*
G02*
X217809039Y-87110000I-1040961J1080000D01*
G01*
X220521437Y-87110000D02*
G75*
G02*
X217290000Y-87265516I-1671437J1080000D01*
G01*
%TO.C,D15*%
X217290000Y-79324000D02*
X217290000Y-79480000D01*
X217290000Y-81640000D02*
X217290000Y-81796000D01*
X217290000Y-79324484D02*
G75*
G02*
X220521437Y-79480000I1560000J-1235516D01*
G01*
X217809039Y-79480000D02*
G75*
G02*
X219890961Y-79480000I1040961J-1080000D01*
G01*
X219890961Y-81640000D02*
G75*
G02*
X217809039Y-81640000I-1040961J1080000D01*
G01*
X220521437Y-81640000D02*
G75*
G02*
X217290000Y-81795516I-1671437J1080000D01*
G01*
%TO.C,D11*%
X207440000Y-75764484D02*
G75*
G02*
X210671437Y-75920000I1560000J-1235516D01*
G01*
X207959039Y-75920000D02*
G75*
G02*
X210040961Y-75920000I1040961J-1080000D01*
G01*
X210040961Y-78080000D02*
G75*
G02*
X207959039Y-78080000I-1040961J1080000D01*
G01*
X210671437Y-78080000D02*
G75*
G02*
X207440000Y-78235516I-1671437J1080000D01*
G01*
X207440000Y-75764000D02*
X207440000Y-75920000D01*
X207440000Y-78080000D02*
X207440000Y-78236000D01*
%TO.C,D2*%
X183328563Y-99920000D02*
G75*
G02*
X186560000Y-99764484I1671437J-1080000D01*
G01*
X183959039Y-99920000D02*
G75*
G02*
X186040961Y-99920000I1040961J-1080000D01*
G01*
X186040961Y-102080000D02*
G75*
G02*
X183959039Y-102080000I-1040961J1080000D01*
G01*
X186560000Y-102235516D02*
G75*
G02*
X183328563Y-102080000I-1560000J1235516D01*
G01*
X186560000Y-99920000D02*
X186560000Y-99764000D01*
X186560000Y-102236000D02*
X186560000Y-102080000D01*
%TO.C,D8*%
X202080000Y-91328563D02*
G75*
G02*
X202235516Y-94560000I-1080000J-1671437D01*
G01*
X202080000Y-91959039D02*
G75*
G02*
X202080000Y-94040961I-1080000J-1040961D01*
G01*
X199920000Y-94040961D02*
G75*
G02*
X199920000Y-91959039I1080000J1040961D01*
G01*
X199764484Y-94560000D02*
G75*
G02*
X199920000Y-91328563I1235516J1560000D01*
G01*
X202080000Y-94560000D02*
X202236000Y-94560000D01*
X199764000Y-94560000D02*
X199920000Y-94560000D01*
%TO.C,D4*%
X183328563Y-107920000D02*
G75*
G02*
X186560000Y-107764484I1671437J-1080000D01*
G01*
X183959039Y-107920000D02*
G75*
G02*
X186040961Y-107920000I1040961J-1080000D01*
G01*
X186040961Y-110080000D02*
G75*
G02*
X183959039Y-110080000I-1040961J1080000D01*
G01*
X186560000Y-110235516D02*
G75*
G02*
X183328563Y-110080000I-1560000J1235516D01*
G01*
X186560000Y-107920000D02*
X186560000Y-107764000D01*
X186560000Y-110236000D02*
X186560000Y-110080000D01*
%TO.C,D14*%
X210671437Y-110080000D02*
G75*
G02*
X207440000Y-110235516I-1671437J1080000D01*
G01*
X210040961Y-110080000D02*
G75*
G02*
X207959039Y-110080000I-1040961J1080000D01*
G01*
X207959039Y-107920000D02*
G75*
G02*
X210040961Y-107920000I1040961J-1080000D01*
G01*
X207440000Y-107764484D02*
G75*
G02*
X210671437Y-107920000I1560000J-1235516D01*
G01*
X207440000Y-110080000D02*
X207440000Y-110236000D01*
X207440000Y-107764000D02*
X207440000Y-107920000D01*
%TO.C,D7*%
X194080000Y-91328563D02*
G75*
G02*
X194235516Y-94560000I-1080000J-1671437D01*
G01*
X194080000Y-91959039D02*
G75*
G02*
X194080000Y-94040961I-1080000J-1040961D01*
G01*
X191920000Y-94040961D02*
G75*
G02*
X191920000Y-91959039I1080000J1040961D01*
G01*
X191764484Y-94560000D02*
G75*
G02*
X191920000Y-91328563I1235516J1560000D01*
G01*
X194080000Y-94560000D02*
X194236000Y-94560000D01*
X191764000Y-94560000D02*
X191920000Y-94560000D01*
%TO.C,D6*%
X202080000Y-67959039D02*
G75*
G02*
X202080000Y-70040961I-1080000J-1040961D01*
G01*
X202080000Y-67328563D02*
G75*
G02*
X202235516Y-70560000I-1080000J-1671437D01*
G01*
X199920000Y-70040961D02*
G75*
G02*
X199920000Y-67959039I1080000J1040961D01*
G01*
X199764484Y-70560000D02*
G75*
G02*
X199920000Y-67328563I1235516J1560000D01*
G01*
X202080000Y-70560000D02*
X202236000Y-70560000D01*
X199764000Y-70560000D02*
X199920000Y-70560000D01*
%TO.C,D1*%
X186560000Y-78235516D02*
G75*
G02*
X183328563Y-78080000I-1560000J1235516D01*
G01*
X186040961Y-78080000D02*
G75*
G02*
X183959039Y-78080000I-1040961J1080000D01*
G01*
X183959039Y-75920000D02*
G75*
G02*
X186040961Y-75920000I1040961J-1080000D01*
G01*
X183328563Y-75920000D02*
G75*
G02*
X186560000Y-75764484I1671437J-1080000D01*
G01*
X186560000Y-78236000D02*
X186560000Y-78080000D01*
X186560000Y-75920000D02*
X186560000Y-75764000D01*
%TO.C,D13*%
X210671437Y-86080000D02*
G75*
G02*
X207440000Y-86235516I-1671437J1080000D01*
G01*
X210040961Y-86080000D02*
G75*
G02*
X207959039Y-86080000I-1040961J1080000D01*
G01*
X207959039Y-83920000D02*
G75*
G02*
X210040961Y-83920000I1040961J-1080000D01*
G01*
X207440000Y-83764484D02*
G75*
G02*
X210671437Y-83920000I1560000J-1235516D01*
G01*
X207440000Y-86080000D02*
X207440000Y-86236000D01*
X207440000Y-83764000D02*
X207440000Y-83920000D01*
%TO.C,D5*%
X194080000Y-67959039D02*
G75*
G02*
X194080000Y-70040961I-1080000J-1040961D01*
G01*
X194080000Y-67328563D02*
G75*
G02*
X194235516Y-70560000I-1080000J-1671437D01*
G01*
X191920000Y-70040961D02*
G75*
G02*
X191920000Y-67959039I1080000J1040961D01*
G01*
X191764484Y-70560000D02*
G75*
G02*
X191920000Y-67328563I1235516J1560000D01*
G01*
X194080000Y-70560000D02*
X194236000Y-70560000D01*
X191764000Y-70560000D02*
X191920000Y-70560000D01*
%TO.C,D10*%
X199920000Y-118671437D02*
G75*
G02*
X199764484Y-115440000I1080000J1671437D01*
G01*
X199920000Y-118040961D02*
G75*
G02*
X199920000Y-115959039I1080000J1040961D01*
G01*
X202080000Y-115959039D02*
G75*
G02*
X202080000Y-118040961I-1080000J-1040961D01*
G01*
X202235516Y-115440000D02*
G75*
G02*
X202080000Y-118671437I-1235516J-1560000D01*
G01*
X199920000Y-115440000D02*
X199764000Y-115440000D01*
X202236000Y-115440000D02*
X202080000Y-115440000D01*
%TO.C,D3*%
X183328563Y-83920000D02*
G75*
G02*
X186560000Y-83764484I1671437J-1080000D01*
G01*
X183959039Y-83920000D02*
G75*
G02*
X186040961Y-83920000I1040961J-1080000D01*
G01*
X186040961Y-86080000D02*
G75*
G02*
X183959039Y-86080000I-1040961J1080000D01*
G01*
X186560000Y-86235516D02*
G75*
G02*
X183328563Y-86080000I-1560000J1235516D01*
G01*
X186560000Y-83920000D02*
X186560000Y-83764000D01*
X186560000Y-86236000D02*
X186560000Y-86080000D01*
%TO.C,D12*%
X210671437Y-102080000D02*
G75*
G02*
X207440000Y-102235516I-1671437J1080000D01*
G01*
X210040961Y-102080000D02*
G75*
G02*
X207959039Y-102080000I-1040961J1080000D01*
G01*
X207959039Y-99920000D02*
G75*
G02*
X210040961Y-99920000I1040961J-1080000D01*
G01*
X207440000Y-99764484D02*
G75*
G02*
X210671437Y-99920000I1560000J-1235516D01*
G01*
X207440000Y-102080000D02*
X207440000Y-102236000D01*
X207440000Y-99764000D02*
X207440000Y-99920000D01*
%TO.C,D9*%
X194235516Y-115440000D02*
G75*
G02*
X194080000Y-118671437I-1235516J-1560000D01*
G01*
X194080000Y-115959039D02*
G75*
G02*
X194080000Y-118040961I-1080000J-1040961D01*
G01*
X191920000Y-118671437D02*
G75*
G02*
X191764484Y-115440000I1080000J1671437D01*
G01*
X191920000Y-118040961D02*
G75*
G02*
X191920000Y-115959039I1080000J1040961D01*
G01*
X194236000Y-115440000D02*
X194080000Y-115440000D01*
X191920000Y-115440000D02*
X191764000Y-115440000D01*
%TD*%
%LPC*%
D12*
%TO.C,D16*%
X217580000Y-86030000D03*
D13*
X220120000Y-86030000D03*
%TD*%
D12*
%TO.C,D15*%
X217580000Y-80560000D03*
D13*
X220120000Y-80560000D03*
%TD*%
%TO.C,D11*%
X210270000Y-77000000D03*
D12*
X207730000Y-77000000D03*
%TD*%
D13*
%TO.C,D2*%
X183730000Y-101000000D03*
D12*
X186270000Y-101000000D03*
%TD*%
D13*
%TO.C,D8*%
X201000000Y-91730000D03*
D12*
X201000000Y-94270000D03*
%TD*%
D13*
%TO.C,D4*%
X183730000Y-109000000D03*
D12*
X186270000Y-109000000D03*
%TD*%
D13*
%TO.C,D14*%
X210270000Y-109000000D03*
D12*
X207730000Y-109000000D03*
%TD*%
D13*
%TO.C,D7*%
X193000000Y-91730000D03*
D12*
X193000000Y-94270000D03*
%TD*%
D13*
%TO.C,D6*%
X201000000Y-67730000D03*
D12*
X201000000Y-70270000D03*
%TD*%
D13*
%TO.C,D1*%
X183730000Y-77000000D03*
D12*
X186270000Y-77000000D03*
%TD*%
D13*
%TO.C,D13*%
X210270000Y-85000000D03*
D12*
X207730000Y-85000000D03*
%TD*%
D13*
%TO.C,D5*%
X193000000Y-67730000D03*
D12*
X193000000Y-70270000D03*
%TD*%
D13*
%TO.C,D10*%
X201000000Y-118270000D03*
D12*
X201000000Y-115730000D03*
%TD*%
D13*
%TO.C,D3*%
X183730000Y-85000000D03*
D12*
X186270000Y-85000000D03*
%TD*%
D13*
%TO.C,D12*%
X210270000Y-101000000D03*
D12*
X207730000Y-101000000D03*
%TD*%
D13*
%TO.C,D9*%
X193000000Y-118270000D03*
D12*
X193000000Y-115730000D03*
%TD*%
%LPD*%
M02*
