  0
SECTION
  2
HEADER
  9
$ANGBASE
  50
0.0
  9
$ANGDIR
  70
1
  9
$MEASUREMENT
  70
1
  0
ENDSEC
  0
SECTION
  2
TABLES
  0
TABLE
  2
LTYPE
  70
4
  0
LTYPE
  5
40F
  2
CONTINUOUS
  70
0
  3
Solid line
  72
65
  73
0
  40
0.0
  0
LTYPE
  5
410
  2
DASHDOT
 70
0
  3
Dash Dot ____ _ ____ _
 72
65
 73
4
 40
2.0
 49
1.25
 49
-0.25
 49
0.25
 49
-0.25
  0
LTYPE
  5
411
  2
DASHED
 70
0
  3
Dashed __ __ __ __ __
 72
65
 73
2
 40
0.75
 49
0.5
 49
-0.25
  0
LTYPE
  5
43B
  2
DOTTED
 70
0
  3
Dotted .  .  .  .
 72
65
 73
2
 40
0.2
 49
0.0
 49
-0.2
  0
ENDTAB
  0
TABLE
  2
STYLE
  70
4
  0
STYLE
  2
KICAD
  70
0
  40
0
  41
1
  42
1
  50
0
  71
0
  3
isocp.shx
  0
STYLE
  2
KICADB
  70
0
  40
0
  41
1
  42
1
  50
0
  71
0
  3
isocp.shx
  0
STYLE
  2
KICADI
  70
0
  40
0
  41
1
  42
1
  50
15
  71
0
  3
isocp.shx
  0
STYLE
  2
KICADBI
  70
0
  40
0
  41
1
  42
1
  50
15
  71
0
  3
isocp.shx
  0
ENDTAB
  0
TABLE
  2
LAYER
  70
1
  0
LAYER
  2
BLACK
  70
0
  62
7
  6
CONTINUOUS
  0
ENDTAB
  0
ENDSEC
  0
SECTION
  2
ENTITIES
0
LINE
8
BLACK
6
CONTINUOUS
10
115.0000009999999975
20
-72.999927999999997
11
115.0000009999999975
21
-88.999927999999997
0
ARC
8
BLACK
10
189.
20
-116.9998999999999967
40
2.0000280000002499
50
-270.00002865
51
-89.99997135
0
LINE
8
BLACK
6
CONTINUOUS
10
157.0000009999999975
20
-66.999927999999997
11
173.0000009999999975
21
-66.999927999999997
0
LINE
8
BLACK
6
CONTINUOUS
10
85.0000009999999975
20
-66.999927999999997
11
101.0000009999999975
21
-66.999927999999997
0
ARC
8
BLACK
10
153.0000009999999975
20
-112.999927999999997
40
2.
50
-180.00000000
51
-0.00000000
0
ARC
8
BLACK
10
101.
20
-68.9998999999999967
40
1.9999720000002499
50
-89.99997135
51
89.99997135
0
LINE
8
BLACK
6
CONTINUOUS
10
211.0000009999999975
20
-96.999927999999997
11
211.0000009999999975
21
-112.999927999999997
0
ARC
8
BLACK
10
137.0000009999999975
20
-72.999927999999997
40
2.
50
0.00000000
51
180.00000000
0
ARC
8
BLACK
10
230.
20
-127.999929999999992
40
15.0000730500242891
50
-90.00000000
51
0.17758578
0
ARC
8
BLACK
10
137.0000009999999975
20
-112.999927999999997
40
2.
50
-180.00000000
51
-0.00000000
0
ARC
8
BLACK
10
85.
20
-116.9998999999999967
40
2.0000280000002499
50
-270.00002865
51
-89.99997135
0
ARC
8
BLACK
10
153.0000009999999975
20
-96.999927999999997
40
2.
50
0.00000000
51
180.00000000
0
LINE
8
BLACK
6
CONTINUOUS
10
103.0000009999999975
20
-72.999927999999997
11
103.0000009999999975
21
-88.999927999999997
0
LINE
8
BLACK
6
CONTINUOUS
10
117.0000009999999975
20
-70.999927999999997
11
133.0000009999999975
21
-70.999927999999997
0
LINE
8
BLACK
6
CONTINUOUS
10
189.0000009999999975
20
-90.999927999999997
11
205.0000009999999975
21
-90.999927999999997
0
ARC
8
BLACK
10
173.
20
-116.9998999999999967
40
1.9999720000002499
50
-89.99997135
51
89.99997135
0
ARC
8
BLACK
10
133.
20
-68.9998999999999967
40
1.9999720000002499
50
-89.99997135
51
89.99997135
0
LINE
8
BLACK
6
CONTINUOUS
10
175.0000009999999975
20
-96.999927999999997
11
175.0000009999999975
21
-112.999927999999997
0
ARC
8
BLACK
10
157.
20
-116.9998999999999967
40
2.0000280000002499
50
-270.00002865
51
-89.99997135
0
LINE
8
BLACK
6
CONTINUOUS
10
85.0000009999999975
20
-114.999927999999997
11
101.0000009999999975
21
-114.999927999999997
0
ARC
8
BLACK
10
189.
20
-92.9998999999999967
40
2.0000280000002499
50
-270.00002865
51
-89.99997135
0
LINE
8
BLACK
6
CONTINUOUS
10
85.0000009999999975
20
-90.999927999999997
11
101.0000009999999975
21
-90.999927999999997
0
LINE
8
BLACK
6
CONTINUOUS
10
117.0000009999999975
20
-118.999927999999997
11
133.0000009999999975
21
-118.999927999999997
0
ARC
8
BLACK
10
189.
20
-68.9998999999999967
40
2.0000280000002499
50
-270.00002865
51
-89.99997135
0
ARC
8
BLACK
10
185.0000009999999975
20
-88.999927999999997
40
2.
50
-180.00000000
51
-0.00000000
0
LINE
8
BLACK
6
CONTINUOUS
10
107.0000009999999975
20
-96.999927999999997
11
107.0000009999999975
21
-112.999927999999997
0
ARC
8
BLACK
10
209.0000009999999975
20
-72.999927999999997
40
2.
50
0.00000000
51
180.00000000
0
LINE
8
BLACK
6
CONTINUOUS
10
189.0000009999999975
20
-118.999927999999997
11
205.0000009999999975
21
-118.999927999999997
0
ARC
8
BLACK
10
177.0000009999999975
20
-88.999927999999997
40
2.
50
-180.00000000
51
-0.00000000
0
ARC
8
BLACK
10
60.
20
-57.9999299999999991
40
15.0000710376366211
50
-270.00000764
51
-179.82242948
0
LINE
8
BLACK
6
CONTINUOUS
10
151.0000009999999975
20
-72.999927999999997
11
151.0000009999999975
21
-88.999927999999997
0
ARC
8
BLACK
10
101.
20
-92.9998999999999967
40
1.9999720000002499
50
-89.99997135
51
89.99997135
0
LINE
8
BLACK
6
CONTINUOUS
10
135.0000009999999975
20
-72.999927999999997
11
135.0000009999999975
21
-88.999927999999997
0
LINE
8
BLACK
6
CONTINUOUS
10
245.0000009999999975
20
-127.9534749999999974
11
245.0001019999999983
21
-57.9999289999999945
0
LINE
8
BLACK
6
CONTINUOUS
10
60.0464909999999961
20
-142.9999279999999828
11
230.
21
-143.0000320000000045
0
LINE
8
BLACK
6
CONTINUOUS
10
157.0000009999999975
20
-114.999927999999997
11
173.0000009999999975
21
-114.999927999999997
0
LINE
8
BLACK
6
CONTINUOUS
10
179.0000009999999975
20
-96.999927999999997
11
179.0000009999999975
21
-112.999927999999997
0
LINE
8
BLACK
6
CONTINUOUS
10
139.0000009999999975
20
-96.999927999999997
11
139.0000009999999975
21
-112.999927999999997
0
LINE
8
BLACK
6
CONTINUOUS
10
229.9535109999999918
20
-42.999927999999997
11
60.000001999999995
21
-42.9998569999999987
0
ARC
8
BLACK
10
81.0000009999999975
20
-88.999927999999997
40
2.
50
-180.00000000
51
-0.00000000
0
ARC
8
BLACK
10
85.
20
-92.9998999999999967
40
2.0000280000002499
50
-270.00002865
51
-89.99997135
0
LINE
8
BLACK
6
CONTINUOUS
10
211.0000009999999975
20
-72.999927999999997
11
211.0000009999999975
21
-88.999927999999997
0
ARC
8
BLACK
10
105.0000009999999975
20
-112.999927999999997
40
2.
50
-180.00000000
51
-0.00000000
0
ARC
8
BLACK
10
157.
20
-68.9998999999999967
40
2.0000280000002499
50
-270.00002865
51
-89.99997135
0
ARC
8
BLACK
10
113.0000009999999975
20
-112.999927999999997
40
2.
50
-180.00000000
51
-0.00000000
0
LINE
8
BLACK
6
CONTINUOUS
10
117.0000009999999975
20
-90.999927999999997
11
133.0000009999999975
21
-90.999927999999997
0
LINE
8
BLACK
6
CONTINUOUS
10
157.0000009999999975
20
-90.999927999999997
11
173.0000009999999975
21
-90.999927999999997
0
LINE
8
BLACK
6
CONTINUOUS
10
155.0000009999999975
20
-72.999927999999997
11
155.0000009999999975
21
-88.999927999999997
0
ARC
8
BLACK
10
113.0000009999999975
20
-88.999927999999997
40
2.
50
-180.00000000
51
-0.00000000
0
ARC
8
BLACK
10
133.
20
-92.9998999999999967
40
1.9999720000002499
50
-89.99997135
51
89.99997135
0
LINE
8
BLACK
6
CONTINUOUS
10
187.0000009999999975
20
-72.999927999999997
11
187.0000009999999975
21
-88.999927999999997
0
LINE
8
BLACK
6
CONTINUOUS
10
175.0000009999999975
20
-72.999927999999997
11
175.0000009999999975
21
-88.999927999999997
0
LINE
8
BLACK
6
CONTINUOUS
10
139.0000009999999975
20
-72.999927999999997
11
139.0000009999999975
21
-88.999927999999997
0
LINE
8
BLACK
6
CONTINUOUS
10
183.0000009999999975
20
-96.999927999999997
11
183.0000009999999975
21
-112.999927999999997
0
LINE
8
BLACK
6
CONTINUOUS
10
207.0000009999999975
20
-96.999927999999997
11
207.0000009999999975
21
-112.999927999999997
0
ARC
8
BLACK
10
117.
20
-92.9998999999999967
40
2.0000280000002499
50
-270.00002865
51
-89.99997135
0
ARC
8
BLACK
10
177.0000009999999975
20
-72.999927999999997
40
2.
50
0.00000000
51
180.00000000
0
LINE
8
BLACK
6
CONTINUOUS
10
207.0000009999999975
20
-72.999927999999997
11
207.0000009999999975
21
-88.999927999999997
0
ARC
8
BLACK
10
81.0000009999999975
20
-72.999927999999997
40
2.
50
0.00000000
51
180.00000000
0
ARC
8
BLACK
10
133.
20
-116.9998999999999967
40
1.9999720000002499
50
-89.99997135
51
89.99997135
0
ARC
8
BLACK
10
81.0000009999999975
20
-112.999927999999997
40
2.
50
-180.00000000
51
-0.00000000
0
ARC
8
BLACK
10
157.
20
-92.9998999999999967
40
2.0000280000002499
50
-270.00002865
51
-89.99997135
0
ARC
8
BLACK
10
173.
20
-92.9998999999999967
40
1.9999720000002499
50
-89.99997135
51
89.99997135
0
LINE
8
BLACK
6
CONTINUOUS
10
115.0000009999999975
20
-96.999927999999997
11
115.0000009999999975
21
-112.999927999999997
0
ARC
8
BLACK
10
113.0000009999999975
20
-96.999927999999997
40
2.
50
0.00000000
51
180.00000000
0
LINE
8
BLACK
6
CONTINUOUS
10
157.0000009999999975
20
-118.999927999999997
11
173.0000009999999975
21
-118.999927999999997
0
ARC
8
BLACK
10
153.0000009999999975
20
-88.999927999999997
40
2.
50
-180.00000000
51
-0.00000000
0
LINE
8
BLACK
6
CONTINUOUS
10
85.0000009999999975
20
-70.999927999999997
11
101.0000009999999975
21
-70.999927999999997
0
LINE
8
BLACK
6
CONTINUOUS
10
111.0000009999999975
20
-96.999927999999997
11
111.0000009999999975
21
-112.999927999999997
0
ARC
8
BLACK
10
101.
20
-116.9998999999999967
40
1.9999720000002499
50
-89.99997135
51
89.99997135
0
LINE
8
BLACK
6
CONTINUOUS
10
79.0000009999999975
20
-96.999927999999997
11
79.0000009999999975
21
-112.999927999999997
0
ARC
8
BLACK
10
85.
20
-68.9998999999999967
40
2.0000280000002499
50
-270.00002865
51
-89.99997135
0
LINE
8
BLACK
6
CONTINUOUS
10
107.0000009999999975
20
-72.999927999999997
11
107.0000009999999975
21
-88.999927999999997
0
LINE
8
BLACK
6
CONTINUOUS
10
155.0000009999999975
20
-96.999927999999997
11
155.0000009999999975
21
-112.999927999999997
0
LINE
8
BLACK
6
CONTINUOUS
10
189.0000009999999975
20
-114.999927999999997
11
205.0000009999999975
21
-114.999927999999997
0
LINE
8
BLACK
6
CONTINUOUS
10
157.0000009999999975
20
-94.999927999999997
11
173.0000009999999975
21
-94.999927999999997
0
LINE
8
BLACK
6
CONTINUOUS
10
189.0000009999999975
20
-66.999927999999997
11
205.0000009999999975
21
-66.999927999999997
0
ARC
8
BLACK
10
137.0000009999999975
20
-88.999927999999997
40
2.
50
-180.00000000
51
-0.00000000
0
ARC
8
BLACK
10
81.0000009999999975
20
-96.999927999999997
40
2.
50
0.00000000
51
180.00000000
0
LINE
8
BLACK
6
CONTINUOUS
10
45.0000009999999975
20
-58.0464179999999956
11
44.9999289999999945
21
-127.999927999999997
0
CIRCLE
8
BLACK
10
145.0000009999999975
20
-88.999927999999997
40
2.
0
ARC
8
BLACK
10
185.0000009999999975
20
-96.999927999999997
40
2.
50
0.00000000
51
180.00000000
0
LINE
8
BLACK
6
CONTINUOUS
10
151.0000009999999975
20
-96.999927999999997
11
151.0000009999999975
21
-112.999927999999997
0
LINE
8
BLACK
6
CONTINUOUS
10
85.0000009999999975
20
-118.999927999999997
11
101.0000009999999975
21
-118.999927999999997
0
ARC
8
BLACK
10
153.0000009999999975
20
-72.999927999999997
40
2.
50
0.00000000
51
180.00000000
0
LINE
8
BLACK
6
CONTINUOUS
10
157.0000009999999975
20
-70.999927999999997
11
173.0000009999999975
21
-70.999927999999997
0
ARC
8
BLACK
10
117.
20
-68.9998999999999967
40
2.0000280000002499
50
-270.00002865
51
-89.99997135
0
LINE
8
BLACK
6
CONTINUOUS
10
187.0000009999999975
20
-96.999927999999997
11
187.0000009999999975
21
-112.999927999999997
0
ARC
8
BLACK
10
205.
20
-92.9998999999999967
40
1.9999720000002499
50
-89.99997135
51
89.99997135
0
ARC
8
BLACK
10
185.0000009999999975
20
-112.999927999999997
40
2.
50
-180.00000000
51
-0.00000000
0
ARC
8
BLACK
10
177.0000009999999975
20
-96.999927999999997
40
2.
50
0.00000000
51
180.00000000
0
LINE
8
BLACK
6
CONTINUOUS
10
117.0000009999999975
20
-94.999927999999997
11
133.0000009999999975
21
-94.999927999999997
0
LINE
8
BLACK
6
CONTINUOUS
10
83.0000009999999975
20
-96.999927999999997
11
83.0000009999999975
21
-112.999927999999997
0
ARC
8
BLACK
10
60.
20
-127.9998999999999967
40
15.0001000467951862
50
-179.99989687
51
-89.82241836
0
LINE
8
BLACK
6
CONTINUOUS
10
83.0000009999999975
20
-72.999927999999997
11
83.0000009999999975
21
-88.999927999999997
0
ARC
8
BLACK
10
230.
20
-57.9998999999999967
40
15.0000440408655127
50
-0.00011077
51
90.17757466
0
LINE
8
BLACK
6
CONTINUOUS
10
135.0000009999999975
20
-96.999927999999997
11
135.0000009999999975
21
-112.999927999999997
0
LINE
8
BLACK
6
CONTINUOUS
10
179.0000009999999975
20
-72.999927999999997
11
179.0000009999999975
21
-88.999927999999997
0
ARC
8
BLACK
10
205.
20
-68.9998999999999967
40
1.9999720000002499
50
-89.99997135
51
89.99997135
0
ARC
8
BLACK
10
117.
20
-116.9998999999999967
40
2.0000280000002499
50
-270.00002865
51
-89.99997135
0
ARC
8
BLACK
10
209.0000009999999975
20
-96.999927999999997
40
2.
50
0.00000000
51
180.00000000
0
CIRCLE
8
BLACK
10
145.0000009999999975
20
-96.999927999999997
40
2.
0
LINE
8
BLACK
6
CONTINUOUS
10
85.0000009999999975
20
-94.999927999999997
11
101.0000009999999975
21
-94.999927999999997
0
ARC
8
BLACK
10
185.0000009999999975
20
-72.999927999999997
40
2.
50
0.00000000
51
180.00000000
0
ARC
8
BLACK
10
113.0000009999999975
20
-72.999927999999997
40
2.
50
0.00000000
51
180.00000000
0
ARC
8
BLACK
10
173.
20
-68.9998999999999967
40
1.9999720000002499
50
-89.99997135
51
89.99997135
0
LINE
8
BLACK
6
CONTINUOUS
10
111.0000009999999975
20
-72.999927999999997
11
111.0000009999999975
21
-88.999927999999997
0
ARC
8
BLACK
10
209.0000009999999975
20
-88.999927999999997
40
2.
50
-180.00000000
51
-0.00000000
0
LINE
8
BLACK
6
CONTINUOUS
10
117.0000009999999975
20
-66.999927999999997
11
133.0000009999999975
21
-66.999927999999997
0
LINE
8
BLACK
6
CONTINUOUS
10
189.0000009999999975
20
-70.999927999999997
11
205.0000009999999975
21
-70.999927999999997
0
ARC
8
BLACK
10
105.0000009999999975
20
-72.999927999999997
40
2.
50
0.00000000
51
180.00000000
0
ARC
8
BLACK
10
209.0000009999999975
20
-112.999927999999997
40
2.
50
-180.00000000
51
-0.00000000
0
ARC
8
BLACK
10
205.
20
-116.9998999999999967
40
1.9999720000002499
50
-89.99997135
51
89.99997135
0
LINE
8
BLACK
6
CONTINUOUS
10
103.0000009999999975
20
-96.999927999999997
11
103.0000009999999975
21
-112.999927999999997
0
ARC
8
BLACK
10
105.0000009999999975
20
-96.999927999999997
40
2.
50
0.00000000
51
180.00000000
0
ARC
8
BLACK
10
137.0000009999999975
20
-96.999927999999997
40
2.
50
0.00000000
51
180.00000000
0
LINE
8
BLACK
6
CONTINUOUS
10
189.0000009999999975
20
-94.999927999999997
11
205.0000009999999975
21
-94.999927999999997
0
LINE
8
BLACK
6
CONTINUOUS
10
183.0000009999999975
20
-72.999927999999997
11
183.0000009999999975
21
-88.999927999999997
0
LINE
8
BLACK
6
CONTINUOUS
10
79.0000009999999975
20
-72.999927999999997
11
79.0000009999999975
21
-88.999927999999997
0
ARC
8
BLACK
10
105.0000009999999975
20
-88.999927999999997
40
2.
50
-180.00000000
51
-0.00000000
0
LINE
8
BLACK
6
CONTINUOUS
10
117.0000009999999975
20
-114.999927999999997
11
133.0000009999999975
21
-114.999927999999997
0
ARC
8
BLACK
10
177.0000009999999975
20
-112.999927999999997
40
2.
50
-180.00000000
51
-0.00000000
0
LINE
8
BLACK
6
CONTINUOUS
10
139.4442699999999888
20
-126.5462909999999965
11
139.4442699999999888
21
-127.6503889999999899
0
LINE
8
BLACK
6
CONTINUOUS
10
139.4442699999999888
20
-127.6503889999999899
11
139.5370560000000069
21
-127.5208149999999989
0
LINE
8
BLACK
6
CONTINUOUS
10
139.5370560000000069
20
-127.5208149999999989
11
139.6402009999999905
21
-127.4015309999999914
0
LINE
8
BLACK
6
CONTINUOUS
10
139.6402009999999905
20
-127.4015309999999914
11
139.7666480000000035
21
-127.3021209999999996
0
LINE
8
BLACK
6
CONTINUOUS
10
139.7666480000000035
20
-127.3021209999999996
11
139.9212949999999864
21
-127.2200909999999965
0
LINE
8
BLACK
6
CONTINUOUS
10
139.9212949999999864
20
-127.2200909999999965
11
140.1090409999999906
21
-127.1529469999999975
0
LINE
8
BLACK
6
CONTINUOUS
10
140.1090409999999906
20
-127.1529469999999975
11
140.3347849999999823
21
-127.0981979999999965
0
LINE
8
BLACK
6
CONTINUOUS
10
140.3347849999999823
20
-127.0981979999999965
11
140.3875060000000019
21
-127.0880369999999999
0
LINE
8
BLACK
6
CONTINUOUS
10
140.3875060000000019
20
-127.0880369999999999
11
140.4838660000000061
21
-127.0752359999999896
0
LINE
8
BLACK
6
CONTINUOUS
10
140.4838660000000061
20
-127.0752359999999896
11
140.618142000000006
21
-127.064667
0
LINE
8
BLACK
6
CONTINUOUS
10
140.618142000000006
20
-127.064667
11
140.7833909999999946
21
-127.0563310000000001
0
LINE
8
BLACK
6
CONTINUOUS
10
140.7833909999999946
20
-127.0563310000000001
11
140.9726670000000013
21
-127.050224
0
LINE
8
BLACK
6
CONTINUOUS
10
140.9726670000000013
20
-127.050224
11
141.1790269999999907
21
-127.0463469999999973
0
LINE
8
BLACK
6
CONTINUOUS
10
141.1790269999999907
20
-127.0463469999999973
11
141.3955269999999871
21
-127.0446969999999993
0
LINE
8
BLACK
6
CONTINUOUS
10
141.3955269999999871
20
-127.0446969999999993
11
141.6152229999999861
21
-127.045273999999992
0
LINE
8
BLACK
6
CONTINUOUS
10
141.6152229999999861
20
-127.045273999999992
11
141.8311689999999885
21
-127.0480769999999922
0
LINE
8
BLACK
6
CONTINUOUS
10
141.8311689999999885
20
-127.0480769999999922
11
142.036422999999985
21
-127.0531039999999905
0
LINE
8
BLACK
6
CONTINUOUS
10
142.036422999999985
20
-127.0531039999999905
11
142.2240409999999997
21
-127.0603539999999896
0
LINE
8
BLACK
6
CONTINUOUS
10
142.2240409999999997
20
-127.0603539999999896
11
142.387077000000005
21
-127.0698249999999945
0
LINE
8
BLACK
6
CONTINUOUS
10
142.387077000000005
20
-127.0698249999999945
11
142.5185869999999966
21
-127.0815179999999884
0
LINE
8
BLACK
6
CONTINUOUS
10
142.5185869999999966
20
-127.0815179999999884
11
142.5718219999999974
21
-127.0884169999999926
0
LINE
8
BLACK
6
CONTINUOUS
10
142.5718219999999974
20
-127.0884169999999926
11
142.8437689999999805
21
-127.1399119999999954
0
LINE
8
BLACK
6
CONTINUOUS
10
142.8437689999999805
20
-127.1399119999999954
11
143.076722999999987
21
-127.2076849999999979
0
LINE
8
BLACK
6
CONTINUOUS
10
143.076722999999987
20
-127.2076849999999979
11
143.2743009999999799
21
-127.2938029999999969
0
LINE
8
BLACK
6
CONTINUOUS
10
143.2743009999999799
20
-127.2938029999999969
11
143.4401189999999815
21
-127.4003340000000009
0
LINE
8
BLACK
6
CONTINUOUS
10
143.4401189999999815
20
-127.4003340000000009
11
143.5777949999999805
21
-127.5293469999999871
0
LINE
8
BLACK
6
CONTINUOUS
10
143.5777949999999805
20
-127.5293469999999871
11
143.6909440000000018
21
-127.6829070000000002
0
LINE
8
BLACK
6
CONTINUOUS
10
143.6909440000000018
20
-127.6829070000000002
11
143.7294059999999831
21
-127.7502739999999903
0
LINE
8
BLACK
6
CONTINUOUS
10
143.7294059999999831
20
-127.7502739999999903
11
143.8028719999999794
21
-127.9217790000000008
0
LINE
8
BLACK
6
CONTINUOUS
10
143.8028719999999794
20
-127.9217790000000008
11
143.8622540000000072
21
-128.1284729999999854
0
LINE
8
BLACK
6
CONTINUOUS
10
143.8622540000000072
20
-128.1284729999999854
11
143.9075509999999838
21
-128.3628949999999804
0
LINE
8
BLACK
6
CONTINUOUS
10
143.9075509999999838
20
-128.3628949999999804
11
143.9387649999999894
21
-128.6175839999999937
0
LINE
8
BLACK
6
CONTINUOUS
10
143.9387649999999894
20
-128.6175839999999937
11
143.9558940000000007
21
-128.8850779999999929
0
LINE
8
BLACK
6
CONTINUOUS
10
143.9558940000000007
20
-128.8850779999999929
11
143.9589399999999841
21
-129.1579169999999976
0
LINE
8
BLACK
6
CONTINUOUS
10
143.9589399999999841
20
-129.1579169999999976
11
143.9479019999999991
21
-129.428639000000004
0
LINE
8
BLACK
6
CONTINUOUS
10
143.9479019999999991
20
-129.428639000000004
11
143.9227789999999914
21
-129.6897820000000081
0
LINE
8
BLACK
6
CONTINUOUS
10
143.9227789999999914
20
-129.6897820000000081
11
143.8835729999999842
21
-129.9338850000000036
0
LINE
8
BLACK
6
CONTINUOUS
10
143.8835729999999842
20
-129.9338850000000036
11
143.8302819999999826
21
-130.1534869999999842
0
LINE
8
BLACK
6
CONTINUOUS
10
143.8302819999999826
20
-130.1534869999999842
11
143.7629079999999817
21
-130.3411260000000027
0
LINE
8
BLACK
6
CONTINUOUS
10
143.7629079999999817
20
-130.3411260000000027
11
143.7294059999999831
21
-130.4105040000000031
0
LINE
8
BLACK
6
CONTINUOUS
10
143.7294059999999831
20
-130.4105040000000031
11
143.6219049999999982
21
-130.5775969999999973
0
LINE
8
BLACK
6
CONTINUOUS
10
143.6219049999999982
20
-130.5775969999999973
11
143.4893820000000062
21
-130.7187339999999836
0
LINE
8
BLACK
6
CONTINUOUS
10
143.4893820000000062
20
-130.7187339999999836
11
143.3285879999999963
21
-130.8357919999999979
0
LINE
8
BLACK
6
CONTINUOUS
10
143.3285879999999963
20
-130.8357919999999979
11
143.136273999999986
21
-130.9306489999999883
0
LINE
8
BLACK
6
CONTINUOUS
10
143.136273999999986
20
-130.9306489999999883
11
142.9091919999999902
21
-131.0051819999999907
0
LINE
8
BLACK
6
CONTINUOUS
10
142.9091919999999902
20
-131.0051819999999907
11
142.6440939999999955
21
-131.061271000000005
0
LINE
8
BLACK
6
CONTINUOUS
10
142.6440939999999955
20
-131.061271000000005
11
142.588390000000004
21
-131.0701139999999896
0
LINE
8
BLACK
6
CONTINUOUS
10
142.588390000000004
20
-131.0701139999999896
11
142.4998410000000035
21
-131.0798810000000003
0
LINE
8
BLACK
6
CONTINUOUS
10
142.4998410000000035
20
-131.0798810000000003
11
142.3736529999999902
21
-131.0887519999999995
0
LINE
8
BLACK
6
CONTINUOUS
10
142.3736529999999902
20
-131.0887519999999995
11
142.217095999999998
21
-131.0966099999999983
0
LINE
8
BLACK
6
CONTINUOUS
10
142.217095999999998
20
-131.0966099999999983
11
142.0374400000000037
21
-131.1033429999999953
0
LINE
8
BLACK
6
CONTINUOUS
10
142.0374400000000037
20
-131.1033429999999953
11
141.8419549999999845
21
-131.1088340000000017
0
LINE
8
BLACK
6
CONTINUOUS
10
141.8419549999999845
20
-131.1088340000000017
11
141.6379100000000051
21
-131.1129689999999925
0
LINE
8
BLACK
6
CONTINUOUS
10
141.6379100000000051
20
-131.1129689999999925
11
141.4325769999999807
21
-131.1156330000000025
0
LINE
8
BLACK
6
CONTINUOUS
10
141.4325769999999807
20
-131.1156330000000025
11
141.2332250000000045
21
-131.1167120000000068
0
LINE
8
BLACK
6
CONTINUOUS
10
141.2332250000000045
20
-131.1167120000000068
11
141.0471229999999991
21
-131.1160909999999831
0
LINE
8
BLACK
6
CONTINUOUS
10
141.0471229999999991
20
-131.1160909999999831
11
140.8815429999999935
21
-131.1136559999999918
0
LINE
8
BLACK
6
CONTINUOUS
10
140.8815429999999935
20
-131.1136559999999918
11
140.7437539999999956
21
-131.1092899999999872
0
LINE
8
BLACK
6
CONTINUOUS
10
140.7437539999999956
20
-131.1092899999999872
11
140.6410259999999823
21
-131.102879999999999
0
LINE
8
BLACK
6
CONTINUOUS
10
140.6410259999999823
20
-131.102879999999999
11
140.623314999999991
21
-131.1011259999999936
0
LINE
8
BLACK
6
CONTINUOUS
10
140.623314999999991
20
-131.1011259999999936
11
140.3575759999999946
21
-131.063886999999994
0
LINE
8
BLACK
6
CONTINUOUS
10
140.3575759999999946
20
-131.063886999999994
11
140.1314009999999826
21
-131.0136729999999829
0
LINE
8
BLACK
6
CONTINUOUS
10
140.1314009999999826
20
-131.0136729999999829
11
139.9408839999999827
21
-130.9488139999999987
0
LINE
8
BLACK
6
CONTINUOUS
10
139.9408839999999827
20
-130.9488139999999987
11
139.782117999999997
21
-130.8676419999999894
0
LINE
8
BLACK
6
CONTINUOUS
10
139.782117999999997
20
-130.8676419999999894
11
139.6511979999999937
21
-130.7684859999999958
0
LINE
8
BLACK
6
CONTINUOUS
10
139.6511979999999937
20
-130.7684859999999958
11
139.5442180000000008
21
-130.6496789999999919
0
LINE
8
BLACK
6
CONTINUOUS
10
139.5442180000000008
20
-130.6496789999999919
11
139.5339209999999923
21
-130.6355849999999919
0
LINE
8
BLACK
6
CONTINUOUS
10
139.5339209999999923
20
-130.6355849999999919
11
139.4442699999999888
21
-130.5103890000000035
0
LINE
8
BLACK
6
CONTINUOUS
10
139.4442699999999888
20
-130.5103890000000035
11
139.4442699999999888
21
-130.7835409999999854
0
LINE
8
BLACK
6
CONTINUOUS
10
139.4442699999999888
20
-130.7835409999999854
11
139.4442699999999888
21
-131.0566929999999957
0
LINE
8
BLACK
6
CONTINUOUS
10
139.4442699999999888
20
-131.0566929999999957
11
139.1523159999999848
21
-131.0566929999999957
0
LINE
8
BLACK
6
CONTINUOUS
10
139.1523159999999848
20
-131.0566929999999957
11
138.8603619999999808
21
-131.0566929999999957
0
LINE
8
BLACK
6
CONTINUOUS
10
138.8603619999999808
20
-131.0566929999999957
11
138.8603619999999808
21
-129.1443749999999966
0
LINE
8
BLACK
6
CONTINUOUS
10
138.8603619999999808
20
-129.1443749999999966
11
139.4521780000000035
21
-129.1443749999999966
0
LINE
8
BLACK
6
CONTINUOUS
10
139.4521780000000035
20
-129.1443749999999966
11
139.4552620000000047
21
-129.3280010000000004
0
LINE
8
BLACK
6
CONTINUOUS
10
139.4552620000000047
20
-129.3280010000000004
11
139.4620549999999923
21
-129.500489999999985
0
LINE
8
BLACK
6
CONTINUOUS
10
139.4620549999999923
20
-129.500489999999985
11
139.4725310000000036
21
-129.6525749999999846
0
LINE
8
BLACK
6
CONTINUOUS
10
139.4725310000000036
20
-129.6525749999999846
11
139.4866649999999879
21
-129.7749929999999949
0
LINE
8
BLACK
6
CONTINUOUS
10
139.4866649999999879
20
-129.7749929999999949
11
139.4974389999999858
21
-129.8327319999999929
0
LINE
8
BLACK
6
CONTINUOUS
10
139.4974389999999858
20
-129.8327319999999929
11
139.5519060000000025
21
-130.0181699999999978
0
LINE
8
BLACK
6
CONTINUOUS
10
139.5519060000000025
20
-130.0181699999999978
11
139.6234539999999811
21
-130.1704469999999958
0
LINE
8
BLACK
6
CONTINUOUS
10
139.6234539999999811
20
-130.1704469999999958
11
139.7167149999999936
21
-130.2935729999999808
0
LINE
8
BLACK
6
CONTINUOUS
10
139.7167149999999936
20
-130.2935729999999808
11
139.8363190000000031
21
-130.3915599999999984
0
LINE
8
BLACK
6
CONTINUOUS
10
139.8363190000000031
20
-130.3915599999999984
11
139.986896999999999
21
-130.4684199999999805
0
LINE
8
BLACK
6
CONTINUOUS
10
139.986896999999999
20
-130.4684199999999805
11
140.1730799999999988
21
-130.5281640000000039
0
LINE
8
BLACK
6
CONTINUOUS
10
140.1730799999999988
20
-130.5281640000000039
11
140.3425900000000013
21
-130.5648390000000063
0
LINE
8
BLACK
6
CONTINUOUS
10
140.3425900000000013
20
-130.5648390000000063
11
140.4150929999999846
21
-130.574405999999982
0
LINE
8
BLACK
6
CONTINUOUS
10
140.4150929999999846
20
-130.574405999999982
11
140.5232359999999971
21
-130.5838860000000068
0
LINE
8
BLACK
6
CONTINUOUS
10
140.5232359999999971
20
-130.5838860000000068
11
140.6577460000000031
21
-130.5928769999999872
0
LINE
8
BLACK
6
CONTINUOUS
10
140.6577460000000031
20
-130.5928769999999872
11
140.809348
21
-130.6009750000000054
0
LINE
8
BLACK
6
CONTINUOUS
10
140.809348
20
-130.6009750000000054
11
140.9687689999999805
21
-130.6077789999999936
0
LINE
8
BLACK
6
CONTINUOUS
10
140.9687689999999805
20
-130.6077789999999936
11
141.1267330000000015
21
-130.6128860000000032
0
LINE
8
BLACK
6
CONTINUOUS
10
141.1267330000000015
20
-130.6128860000000032
11
141.2739660000000015
21
-130.6158949999999948
0
LINE
8
BLACK
6
CONTINUOUS
10
141.2739660000000015
20
-130.6158949999999948
11
141.4011950000000013
21
-130.6164029999999912
0
LINE
8
BLACK
6
CONTINUOUS
10
141.4011950000000013
20
-130.6164029999999912
11
141.4879479999999887
21
-130.6145159999999805
0
LINE
8
BLACK
6
CONTINUOUS
10
141.4879479999999887
20
-130.6145159999999805
11
141.5635819999999967
21
-130.6115580000000023
0
LINE
8
BLACK
6
CONTINUOUS
10
141.5635819999999967
20
-130.6115580000000023
11
141.6715659999999843
21
-130.6075699999999813
0
LINE
8
BLACK
6
CONTINUOUS
10
141.6715659999999843
20
-130.6075699999999813
11
141.7993549999999914
21
-130.6030039999999985
0
LINE
8
BLACK
6
CONTINUOUS
10
141.7993549999999914
20
-130.6030039999999985
11
141.9344089999999881
21
-130.5983119999999928
0
LINE
8
BLACK
6
CONTINUOUS
10
141.9344089999999881
20
-130.5983119999999928
11
141.9820239999999956
21
-130.5966919999999902
0
LINE
8
BLACK
6
CONTINUOUS
10
141.9820239999999956
20
-130.5966919999999902
11
142.2511769999999842
21
-130.5805819999999926
0
LINE
8
BLACK
6
CONTINUOUS
10
142.2511769999999842
20
-130.5805819999999926
11
142.4804349999999999
21
-130.5510669999999891
0
LINE
8
BLACK
6
CONTINUOUS
10
142.4804349999999999
20
-130.5510669999999891
11
142.6731379999999945
21
-130.5069230000000005
0
LINE
8
BLACK
6
CONTINUOUS
10
142.6731379999999945
20
-130.5069230000000005
11
142.8326239999999814
21
-130.4469269999999881
0
LINE
8
BLACK
6
CONTINUOUS
10
142.8326239999999814
20
-130.4469269999999881
11
142.9622310000000027
21
-130.3698559999999986
0
LINE
8
BLACK
6
CONTINUOUS
10
142.9622310000000027
20
-130.3698559999999986
11
143.0652969999999868
21
-130.274485999999996
0
LINE
8
BLACK
6
CONTINUOUS
10
143.0652969999999868
20
-130.274485999999996
11
143.1373480000000029
21
-130.1733309999999904
0
LINE
8
BLACK
6
CONTINUOUS
10
143.1373480000000029
20
-130.1733309999999904
11
143.1960029999999904
21
-130.0439429999999845
0
LINE
8
BLACK
6
CONTINUOUS
10
143.1960029999999904
20
-130.0439429999999845
11
143.2448320000000024
21
-129.8771099999999876
0
LINE
8
BLACK
6
CONTINUOUS
10
143.2448320000000024
20
-129.8771099999999876
11
143.2829169999999976
21
-129.6794099999999901
0
LINE
8
BLACK
6
CONTINUOUS
10
143.2829169999999976
20
-129.6794099999999901
11
143.3093360000000018
21
-129.4574220000000082
0
LINE
8
BLACK
6
CONTINUOUS
10
143.3093360000000018
20
-129.4574220000000082
11
143.3231700000000046
21
-129.2177250000000015
0
LINE
8
BLACK
6
CONTINUOUS
10
143.3231700000000046
20
-129.2177250000000015
11
143.3234989999999982
21
-128.9668979999999863
0
LINE
8
BLACK
6
CONTINUOUS
10
143.3234989999999982
20
-128.9668979999999863
11
143.3198109999999872
21
-128.8683499999999924
0
LINE
8
BLACK
6
CONTINUOUS
10
143.3198109999999872
20
-128.8683499999999924
11
143.3003559999999936
21
-128.6013769999999852
0
LINE
8
BLACK
6
CONTINUOUS
10
143.3003559999999936
20
-128.6013769999999852
11
143.2684239999999818
21
-128.3745700000000056
0
LINE
8
BLACK
6
CONTINUOUS
10
143.2684239999999818
20
-128.3745700000000056
11
143.2217699999999923
21
-128.184361999999993
0
LINE
8
BLACK
6
CONTINUOUS
10
143.2217699999999923
20
-128.184361999999993
11
143.1581510000000037
21
-128.0271840000000054
0
LINE
8
BLACK
6
CONTINUOUS
10
143.1581510000000037
20
-128.0271840000000054
11
143.0753259999999898
21
-127.8994689999999963
0
LINE
8
BLACK
6
CONTINUOUS
10
143.0753259999999898
20
-127.8994689999999963
11
142.9710499999999911
21
-127.7976479999999952
0
LINE
8
BLACK
6
CONTINUOUS
10
142.9710499999999911
20
-127.7976479999999952
11
142.8430819999999812
21
-127.7181549999999959
0
LINE
8
BLACK
6
CONTINUOUS
10
142.8430819999999812
20
-127.7181549999999959
11
142.6891770000000008
21
-127.6574209999999994
0
LINE
8
BLACK
6
CONTINUOUS
10
142.6891770000000008
20
-127.6574209999999994
11
142.5333070000000077
21
-127.6172479999999894
0
LINE
8
BLACK
6
CONTINUOUS
10
142.5333070000000077
20
-127.6172479999999894
11
142.4134300000000053
21
-127.5979869999999892
0
LINE
8
BLACK
6
CONTINUOUS
10
142.4134300000000053
20
-127.5979869999999892
11
142.2562149999999974
21
-127.5819299999999998
0
LINE
8
BLACK
6
CONTINUOUS
10
142.2562149999999974
20
-127.5819299999999998
11
142.0691280000000063
21
-127.5691169999999914
0
LINE
8
BLACK
6
CONTINUOUS
10
142.0691280000000063
20
-127.5691169999999914
11
141.8596349999999973
21
-127.5595859999999959
0
LINE
8
BLACK
6
CONTINUOUS
10
141.8596349999999973
20
-127.5595859999999959
11
141.63520299999999
21
-127.5533739999999909
0
LINE
8
BLACK
6
CONTINUOUS
10
141.63520299999999
20
-127.5533739999999909
11
141.4032980000000066
21
-127.5505209999999892
0
LINE
8
BLACK
6
CONTINUOUS
10
141.4032980000000066
20
-127.5505209999999892
11
141.1713859999999841
21
-127.5510649999999941
0
LINE
8
BLACK
6
CONTINUOUS
10
141.1713859999999841
20
-127.5510649999999941
11
140.9469330000000014
21
-127.5550439999999952
0
LINE
8
BLACK
6
CONTINUOUS
10
140.9469330000000014
20
-127.5550439999999952
11
140.7374049999999954
21
-127.5624969999999934
0
LINE
8
BLACK
6
CONTINUOUS
10
140.7374049999999954
20
-127.5624969999999934
11
140.5502689999999859
21
-127.5734609999999947
0
LINE
8
BLACK
6
CONTINUOUS
10
140.5502689999999859
20
-127.5734609999999947
11
140.3929899999999975
21
-127.5879759999999976
0
LINE
8
BLACK
6
CONTINUOUS
10
140.3929899999999975
20
-127.5879759999999976
11
140.2752160000000003
21
-127.6056430000000006
0
LINE
8
BLACK
6
CONTINUOUS
10
140.2752160000000003
20
-127.6056430000000006
11
140.0768889999999942
21
-127.6538970000000006
0
LINE
8
BLACK
6
CONTINUOUS
10
140.0768889999999942
20
-127.6538970000000006
11
139.9161459999999977
21
-127.7152009999999933
0
LINE
8
BLACK
6
CONTINUOUS
10
139.9161459999999977
20
-127.7152009999999933
11
139.7876339999999971
21
-127.794879999999992
0
LINE
8
BLACK
6
CONTINUOUS
10
139.7876339999999971
20
-127.794879999999992
11
139.686000000000007
21
-127.8982589999999959
0
LINE
8
BLACK
6
CONTINUOUS
10
139.686000000000007
20
-127.8982589999999959
11
139.605889999999988
21
-128.0306649999999991
0
LINE
8
BLACK
6
CONTINUOUS
10
139.605889999999988
20
-128.0306649999999991
11
139.5419499999999857
21
-128.1974209999999914
0
LINE
8
BLACK
6
CONTINUOUS
10
139.5419499999999857
20
-128.1974209999999914
11
139.4933240000000012
21
-128.3834290000000067
0
LINE
8
BLACK
6
CONTINUOUS
10
139.4933240000000012
20
-128.3834290000000067
11
139.4774649999999951
21
-128.4837780000000009
0
LINE
8
BLACK
6
CONTINUOUS
10
139.4774649999999951
20
-128.4837780000000009
11
139.4654479999999808
21
-128.6193120000000079
0
LINE
8
BLACK
6
CONTINUOUS
10
139.4654479999999808
20
-128.6193120000000079
11
139.4572450000000003
21
-128.7807659999999998
0
LINE
8
BLACK
6
CONTINUOUS
10
139.4572450000000003
20
-128.7807659999999998
11
139.4528300000000058
21
-128.9588750000000061
0
LINE
8
BLACK
6
CONTINUOUS
10
139.4528300000000058
20
-128.9588750000000061
11
139.4521780000000035
21
-129.1443749999999966
0
LINE
8
BLACK
6
CONTINUOUS
10
139.4521780000000035
20
-129.1443749999999966
11
138.8603619999999808
21
-129.1443749999999966
0
LINE
8
BLACK
6
CONTINUOUS
10
138.8603619999999808
20
-129.1443749999999966
11
138.8603619999999808
21
-128.2494429999999852
0
LINE
8
BLACK
6
CONTINUOUS
10
138.8603619999999808
20
-128.2494429999999852
11
138.8603619999999808
21
-125.442192999999989
0
LINE
8
BLACK
6
CONTINUOUS
10
138.8603619999999808
20
-125.442192999999989
11
139.1523159999999848
21
-125.442192999999989
0
LINE
8
BLACK
6
CONTINUOUS
10
139.1523159999999848
20
-125.442192999999989
11
139.4442699999999888
21
-125.442192999999989
0
LINE
8
BLACK
6
CONTINUOUS
10
139.4442699999999888
20
-125.442192999999989
11
139.4442699999999888
21
-126.5462909999999965
0
LINE
8
BLACK
6
CONTINUOUS
10
158.732215999999994
20
-127.0939979999999991
11
158.9363519999999994
21
-127.0953719999999976
0
LINE
8
BLACK
6
CONTINUOUS
10
158.9363519999999994
20
-127.0953719999999976
11
159.1065480000000036
21
-127.0977689999999996
0
LINE
8
BLACK
6
CONTINUOUS
10
159.1065480000000036
20
-127.0977689999999996
11
159.2482899999999972
21
-127.1013719999999978
0
LINE
8
BLACK
6
CONTINUOUS
10
159.2482899999999972
20
-127.1013719999999978
11
159.3670639999999992
21
-127.1063690000000008
0
LINE
8
BLACK
6
CONTINUOUS
10
159.3670639999999992
20
-127.1063690000000008
11
159.4683569999999975
21
-127.1129430000000013
0
LINE
8
BLACK
6
CONTINUOUS
10
159.4683569999999975
20
-127.1129430000000013
11
159.5576529999999877
21
-127.1212799999999987
0
LINE
8
BLACK
6
CONTINUOUS
10
159.5576529999999877
20
-127.1212799999999987
11
159.6404399999999839
21
-127.1315649999999948
0
LINE
8
BLACK
6
CONTINUOUS
10
159.6404399999999839
20
-127.1315649999999948
11
159.6477610000000027
21
-127.132593
0
LINE
8
BLACK
6
CONTINUOUS
10
159.6477610000000027
20
-127.132593
11
159.9199099999999873
21
-127.1795289999999881
0
LINE
8
BLACK
6
CONTINUOUS
10
159.9199099999999873
20
-127.1795289999999881
11
160.1530199999999979
21
-127.238521999999989
0
LINE
8
BLACK
6
CONTINUOUS
10
160.1530199999999979
20
-127.238521999999989
11
160.3517970000000048
21
-127.3114479999999986
0
LINE
8
BLACK
6
CONTINUOUS
10
160.3517970000000048
20
-127.3114479999999986
11
160.5209480000000042
21
-127.4001839999999959
0
LINE
8
BLACK
6
CONTINUOUS
10
160.5209480000000042
20
-127.4001839999999959
11
160.6651819999999873
21
-127.5066049999999933
0
LINE
8
BLACK
6
CONTINUOUS
10
160.6651819999999873
20
-127.5066049999999933
11
160.7240769999999941
21
-127.5616319999999888
0
LINE
8
BLACK
6
CONTINUOUS
10
160.7240769999999941
20
-127.5616319999999888
11
160.8203639999999837
21
-127.6706959999999924
0
LINE
8
BLACK
6
CONTINUOUS
10
160.8203639999999837
20
-127.6706959999999924
11
160.8976999999999862
21
-127.7885909999999967
0
LINE
8
BLACK
6
CONTINUOUS
10
160.8976999999999862
20
-127.7885909999999967
11
160.9585899999999867
21
-127.9222579999999994
0
LINE
8
BLACK
6
CONTINUOUS
10
160.9585899999999867
20
-127.9222579999999994
11
161.0055389999999989
21
-128.0786349999999914
0
LINE
8
BLACK
6
CONTINUOUS
10
161.0055389999999989
20
-128.0786349999999914
11
161.0410530000000051
21
-128.2646619999999871
0
LINE
8
BLACK
6
CONTINUOUS
10
161.0410530000000051
20
-128.2646619999999871
11
161.0676379999999881
21
-128.487277000000006
0
LINE
8
BLACK
6
CONTINUOUS
10
161.0676379999999881
20
-128.487277000000006
11
161.0708039999999812
21
-128.5219229999999868
0
LINE
8
BLACK
6
CONTINUOUS
10
161.0708039999999812
20
-128.5219229999999868
11
161.0890699999999924
21
-128.809521999999987
0
LINE
8
BLACK
6
CONTINUOUS
10
161.0890699999999924
20
-128.809521999999987
11
161.0941210000000012
21
-129.100482999999997
0
LINE
8
BLACK
6
CONTINUOUS
10
161.0941210000000012
20
-129.100482999999997
11
161.0864210000000014
21
-129.3853670000000022
0
LINE
8
BLACK
6
CONTINUOUS
10
161.0864210000000014
20
-129.3853670000000022
11
161.0664380000000051
21
-129.6547349999999881
0
LINE
8
BLACK
6
CONTINUOUS
10
161.0664380000000051
20
-129.6547349999999881
11
161.0346349999999802
21
-129.8991489999999942
0
LINE
8
BLACK
6
CONTINUOUS
10
161.0346349999999802
20
-129.8991489999999942
11
160.9928019999999833
21
-130.1039789999999812
0
LINE
8
BLACK
6
CONTINUOUS
10
160.9928019999999833
20
-130.1039789999999812
11
160.9296520000000044
21
-130.30909699999998
0
LINE
8
BLACK
6
CONTINUOUS
10
160.9296520000000044
20
-130.30909699999998
11
160.850970999999987
21
-130.477800000000002
0
LINE
8
BLACK
6
CONTINUOUS
10
160.850970999999987
20
-130.477800000000002
11
160.7512189999999919
21
-130.6174609999999916
0
LINE
8
BLACK
6
CONTINUOUS
10
160.7512189999999919
20
-130.6174609999999916
11
160.6248569999999916
21
-130.7354559999999992
0
LINE
8
BLACK
6
CONTINUOUS
10
160.6248569999999916
20
-130.7354559999999992
11
160.4663429999999948
21
-130.8391599999999926
0
LINE
8
BLACK
6
CONTINUOUS
10
160.4663429999999948
20
-130.8391599999999926
11
160.4227779999999939
21
-130.8628060000000062
0
LINE
8
BLACK
6
CONTINUOUS
10
160.4227779999999939
20
-130.8628060000000062
11
160.3173029999999812
21
-130.9134699999999896
0
LINE
8
BLACK
6
CONTINUOUS
10
160.3173029999999812
20
-130.9134699999999896
11
160.2050879999999893
21
-130.957082999999983
0
LINE
8
BLACK
6
CONTINUOUS
10
160.2050879999999893
20
-130.957082999999983
11
160.0821239999999932
21
-130.9941440000000057
0
LINE
8
BLACK
6
CONTINUOUS
10
160.0821239999999932
20
-130.9941440000000057
11
159.9444009999999992
21
-131.0251529999999889
0
LINE
8
BLACK
6
CONTINUOUS
10
159.9444009999999992
20
-131.0251529999999889
11
159.7879089999999849
21
-131.0506089999999801
0
LINE
8
BLACK
6
CONTINUOUS
10
159.7879089999999849
20
-131.0506089999999801
11
159.6086410000000058
21
-131.071013999999991
0
LINE
8
BLACK
6
CONTINUOUS
10
159.6086410000000058
20
-131.071013999999991
11
159.4025859999999852
21
-131.0868649999999889
0
LINE
8
BLACK
6
CONTINUOUS
10
159.4025859999999852
20
-131.0868649999999889
11
159.1657349999999838
21
-131.0986639999999852
0
LINE
8
BLACK
6
CONTINUOUS
10
159.1657349999999838
20
-131.0986639999999852
11
158.894079000000005
21
-131.1069099999999992
0
LINE
8
BLACK
6
CONTINUOUS
10
158.894079000000005
20
-131.1069099999999992
11
158.5836079999999981
21
-131.112103999999988
0
LINE
8
BLACK
6
CONTINUOUS
10
158.5836079999999981
20
-131.112103999999988
11
158.4100530000000049
21
-131.1137300000000039
0
LINE
8
BLACK
6
CONTINUOUS
10
158.4100530000000049
20
-131.1137300000000039
11
158.2017720000000054
21
-131.1147299999999802
0
LINE
8
BLACK
6
CONTINUOUS
10
158.2017720000000054
20
-131.1147299999999802
11
157.9997899999999902
21
-131.1146959999999808
0
LINE
8
BLACK
6
CONTINUOUS
10
157.9997899999999902
20
-131.1146959999999808
11
157.8102810000000034
21
-131.1137009999999918
0
LINE
8
BLACK
6
CONTINUOUS
10
157.8102810000000034
20
-131.1137009999999918
11
157.6394139999999879
21
-131.1118179999999995
0
LINE
8
BLACK
6
CONTINUOUS
10
157.6394139999999879
20
-131.1118179999999995
11
157.493362999999988
21
-131.1091209999999876
0
LINE
8
BLACK
6
CONTINUOUS
10
157.493362999999988
20
-131.1091209999999876
11
157.3782980000000009
21
-131.1056810000000041
0
LINE
8
BLACK
6
CONTINUOUS
10
157.3782980000000009
20
-131.1056810000000041
11
157.300391999999988
21
-131.1015739999999994
0
LINE
8
BLACK
6
CONTINUOUS
10
157.300391999999988
20
-131.1015739999999994
11
157.2871519999999919
21
-131.1004219999999805
0
LINE
8
BLACK
6
CONTINUOUS
10
157.2871519999999919
20
-131.1004219999999805
11
157.1709160000000054
21
-131.0863750000000039
0
LINE
8
BLACK
6
CONTINUOUS
10
157.1709160000000054
20
-131.0863750000000039
11
157.0341180000000065
21
-131.0661220000000071
0
LINE
8
BLACK
6
CONTINUOUS
10
157.0341180000000065
20
-131.0661220000000071
11
156.9000429999999824
21
-131.0432129999999802
0
LINE
8
BLACK
6
CONTINUOUS
10
156.9000429999999824
20
-131.0432129999999802
11
156.8528089999999793
21
-131.034183999999982
0
LINE
8
BLACK
6
CONTINUOUS
10
156.8528089999999793
20
-131.034183999999982
11
156.6007999999999925
21
-130.9714229999999873
0
LINE
8
BLACK
6
CONTINUOUS
10
156.6007999999999925
20
-130.9714229999999873
11
156.3873379999999997
21
-130.8893060000000048
0
LINE
8
BLACK
6
CONTINUOUS
10
156.3873379999999997
20
-130.8893060000000048
11
156.2090769999999793
21
-130.7846759999999904
0
LINE
8
BLACK
6
CONTINUOUS
10
156.2090769999999793
20
-130.7846759999999904
11
156.0626709999999946
21
-130.6543769999999824
0
LINE
8
BLACK
6
CONTINUOUS
10
156.0626709999999946
20
-130.6543769999999824
11
155.9447759999999903
21
-130.4952559999999835
0
LINE
8
BLACK
6
CONTINUOUS
10
155.9447759999999903
20
-130.4952559999999835
11
155.8520440000000065
21
-130.3041560000000061
0
LINE
8
BLACK
6
CONTINUOUS
10
155.8520440000000065
20
-130.3041560000000061
11
155.7811319999999853
21
-130.0779229999999984
0
LINE
8
BLACK
6
CONTINUOUS
10
155.7811319999999853
20
-130.0779229999999984
11
155.7647659999999803
21
-130.008010999999982
0
LINE
8
BLACK
6
CONTINUOUS
10
155.7647659999999803
20
-130.008010999999982
11
155.7508090000000038
21
-129.9407229999999913
0
LINE
8
BLACK
6
CONTINUOUS
10
155.7508090000000038
20
-129.9407229999999913
11
155.7398039999999924
21
-129.8763050000000021
0
LINE
8
BLACK
6
CONTINUOUS
10
155.7398039999999924
20
-129.8763050000000021
11
155.7314079999999876
21
-129.8083039999999926
0
LINE
8
BLACK
6
CONTINUOUS
10
155.7314079999999876
20
-129.8083039999999926
11
155.7252759999999796
21
-129.7302699999999902
0
LINE
8
BLACK
6
CONTINUOUS
10
155.7252759999999796
20
-129.7302699999999902
11
155.7210629999999867
21
-129.6357500000000016
0
LINE
8
BLACK
6
CONTINUOUS
10
155.7210629999999867
20
-129.6357500000000016
11
155.7184249999999963
21
-129.5182929999999999
0
LINE
8
BLACK
6
CONTINUOUS
10
155.7184249999999963
20
-129.5182929999999999
11
155.7170179999999959
21
-129.3714449999999943
0
LINE
8
BLACK
6
CONTINUOUS
10
155.7170179999999959
20
-129.3714449999999943
11
155.7164980000000014
21
-129.1887549999999862
0
LINE
8
BLACK
6
CONTINUOUS
10
155.7164980000000014
20
-129.1887549999999862
11
155.7164659999999969
21
-129.114075999999983
0
LINE
8
BLACK
6
CONTINUOUS
10
155.7164659999999969
20
-129.114075999999983
11
156.827652999999998
21
-129.114075999999983
0
LINE
8
BLACK
6
CONTINUOUS
10
156.827652999999998
20
-129.114075999999983
11
156.8342859999999916
21
-129.3681780000000003
0
LINE
8
BLACK
6
CONTINUOUS
10
156.8342859999999916
20
-129.3681780000000003
11
156.8560049999999819
21
-129.5825629999999933
0
LINE
8
BLACK
6
CONTINUOUS
10
156.8560049999999819
20
-129.5825629999999933
11
156.8955430000000035
21
-129.7606959999999958
0
LINE
8
BLACK
6
CONTINUOUS
10
156.8955430000000035
20
-129.7606959999999958
11
156.9556330000000059
21
-129.9060429999999826
0
LINE
8
BLACK
6
CONTINUOUS
10
156.9556330000000059
20
-129.9060429999999826
11
157.039006999999998
21
-130.0220699999999852
0
LINE
8
BLACK
6
CONTINUOUS
10
157.039006999999998
20
-130.0220699999999852
11
157.1483969999999886
21
-130.1122430000000065
0
LINE
8
BLACK
6
CONTINUOUS
10
157.1483969999999886
20
-130.1122430000000065
11
157.2865359999999839
21
-130.180027999999993
0
LINE
8
BLACK
6
CONTINUOUS
10
157.2865359999999839
20
-130.180027999999993
11
157.4561559999999929
21
-130.2288900000000069
0
LINE
8
BLACK
6
CONTINUOUS
10
157.4561559999999929
20
-130.2288900000000069
11
157.6599889999999959
21
-130.2622959999999921
0
LINE
8
BLACK
6
CONTINUOUS
10
157.6599889999999959
20
-130.2622959999999921
11
157.7397100000000023
21
-130.2709580000000074
0
LINE
8
BLACK
6
CONTINUOUS
10
157.7397100000000023
20
-130.2709580000000074
11
157.8308619999999962
21
-130.2767839999999921
0
LINE
8
BLACK
6
CONTINUOUS
10
157.8308619999999962
20
-130.2767839999999921
11
157.9566639999999893
21
-130.2805309999999963
0
LINE
8
BLACK
6
CONTINUOUS
10
157.9566639999999893
20
-130.2805309999999963
11
158.1086300000000051
21
-130.2823319999999967
0
LINE
8
BLACK
6
CONTINUOUS
10
158.1086300000000051
20
-130.2823319999999967
11
158.2782749999999794
21
-130.2823159999999802
0
LINE
8
BLACK
6
CONTINUOUS
10
158.2782749999999794
20
-130.2823159999999802
11
158.4571129999999926
21
-130.2806159999999807
0
LINE
8
BLACK
6
CONTINUOUS
10
158.4571129999999926
20
-130.2806159999999807
11
158.6366600000000062
21
-130.2773619999999823
0
LINE
8
BLACK
6
CONTINUOUS
10
158.6366600000000062
20
-130.2773619999999823
11
158.8084289999999896
21
-130.2726839999999982
0
LINE
8
BLACK
6
CONTINUOUS
10
158.8084289999999896
20
-130.2726839999999982
11
158.9639349999999922
21
-130.2667150000000049
0
LINE
8
BLACK
6
CONTINUOUS
10
158.9639349999999922
20
-130.2667150000000049
11
159.0946930000000066
21
-130.2595849999999871
0
LINE
8
BLACK
6
CONTINUOUS
10
159.0946930000000066
20
-130.2595849999999871
11
159.1922179999999969
21
-130.2514259999999808
0
LINE
8
BLACK
6
CONTINUOUS
10
159.1922179999999969
20
-130.2514259999999808
11
159.2185409999999877
21
-130.2481200000000001
0
LINE
8
BLACK
6
CONTINUOUS
10
159.2185409999999877
20
-130.2481200000000001
11
159.4173749999999927
21
-130.2084049999999991
0
LINE
8
BLACK
6
CONTINUOUS
10
159.4173749999999927
20
-130.2084049999999991
11
159.5780589999999961
21
-130.1504449999999906
0
LINE
8
BLACK
6
CONTINUOUS
10
159.5780589999999961
20
-130.1504449999999906
11
159.7049130000000048
21
-130.0706169999999986
0
LINE
8
BLACK
6
CONTINUOUS
10
159.7049130000000048
20
-130.0706169999999986
11
159.8022540000000049
21
-129.9652989999999875
0
LINE
8
BLACK
6
CONTINUOUS
10
159.8022540000000049
20
-129.9652989999999875
11
159.8744030000000009
21
-129.8308700000000044
0
LINE
8
BLACK
6
CONTINUOUS
10
159.8744030000000009
20
-129.8308700000000044
11
159.9256790000000024
21
-129.6637059999999906
0
LINE
8
BLACK
6
CONTINUOUS
10
159.9256790000000024
20
-129.6637059999999906
11
159.9280729999999835
21
-129.6530679999999904
0
LINE
8
BLACK
6
CONTINUOUS
10
159.9280729999999835
20
-129.6530679999999904
11
159.9407039999999824
21
-129.5676890000000014
0
LINE
8
BLACK
6
CONTINUOUS
10
159.9407039999999824
20
-129.5676890000000014
11
159.9499349999999822
21
-129.4481309999999894
0
LINE
8
BLACK
6
CONTINUOUS
10
159.9499349999999822
20
-129.4481309999999894
11
159.9557549999999821
21
-129.3050039999999967
0
LINE
8
BLACK
6
CONTINUOUS
10
159.9557549999999821
20
-129.3050039999999967
11
159.9581519999999841
21
-129.1489190000000065
0
LINE
8
BLACK
6
CONTINUOUS
10
159.9581519999999841
20
-129.1489190000000065
11
159.95711399999999
21
-128.9904829999999833
0
LINE
8
BLACK
6
CONTINUOUS
10
159.95711399999999
20
-128.9904829999999833
11
159.9526299999999992
21
-128.8403079999999932
0
LINE
8
BLACK
6
CONTINUOUS
10
159.9526299999999992
20
-128.8403079999999932
11
159.9446879999999851
21
-128.7090019999999981
0
LINE
8
BLACK
6
CONTINUOUS
10
159.9446879999999851
20
-128.7090019999999981
11
159.9332770000000039
21
-128.6071759999999813
0
LINE
8
BLACK
6
CONTINUOUS
10
159.9332770000000039
20
-128.6071759999999813
11
159.9292360000000031
21
-128.5842639999999903
0
LINE
8
BLACK
6
CONTINUOUS
10
159.9292360000000031
20
-128.5842639999999903
11
159.8781019999999842
21
-128.401252999999997
0
LINE
8
BLACK
6
CONTINUOUS
10
159.8781019999999842
20
-128.401252999999997
11
159.8035600000000045
21
-128.2547329999999874
0
LINE
8
BLACK
6
CONTINUOUS
10
159.8035600000000045
20
-128.2547329999999874
11
159.7030609999999911
21
-128.1414139999999975
0
LINE
8
BLACK
6
CONTINUOUS
10
159.7030609999999911
20
-128.1414139999999975
11
159.5740519999999947
21
-128.058006000000006
0
LINE
8
BLACK
6
CONTINUOUS
10
159.5740519999999947
20
-128.058006000000006
11
159.4961779999999862
21
-128.0258269999999925
0
LINE
8
BLACK
6
CONTINUOUS
10
159.4961779999999862
20
-128.0258269999999925
11
159.4061649999999872
21
-127.9970619999999997
0
LINE
8
BLACK
6
CONTINUOUS
10
159.4061649999999872
20
-127.9970619999999997
11
159.3137119999999811
21
-127.9743019999999945
0
LINE
8
BLACK
6
CONTINUOUS
10
159.3137119999999811
20
-127.9743019999999945
11
159.2122520000000065
21
-127.9569199999999967
0
LINE
8
BLACK
6
CONTINUOUS
10
159.2122520000000065
20
-127.9569199999999967
11
159.0952179999999885
21
-127.9442880000000002
0
LINE
8
BLACK
6
CONTINUOUS
10
159.0952179999999885
20
-127.9442880000000002
11
158.956042999999994
21
-127.9357769999999874
0
LINE
8
BLACK
6
CONTINUOUS
10
158.956042999999994
20
-127.9357769999999874
11
158.7881610000000023
21
-127.9307599999999923
0
LINE
8
BLACK
6
CONTINUOUS
10
158.7881610000000023
20
-127.9307599999999923
11
158.5850049999999953
21
-127.928607999999997
0
LINE
8
BLACK
6
CONTINUOUS
10
158.5850049999999953
20
-127.928607999999997
11
158.4774270000000058
21
-127.9284079999999904
0
LINE
8
BLACK
6
CONTINUOUS
10
158.4774270000000058
20
-127.9284079999999904
11
158.1952540000000056
21
-127.9307499999999891
0
LINE
8
BLACK
6
CONTINUOUS
10
158.1952540000000056
20
-127.9307499999999891
11
157.9537320000000022
21
-127.9381609999999938
0
LINE
8
BLACK
6
CONTINUOUS
10
157.9537320000000022
20
-127.9381609999999938
11
157.7488050000000044
21
-127.951359999999994
0
LINE
8
BLACK
6
CONTINUOUS
10
157.7488050000000044
20
-127.951359999999994
11
157.5764189999999871
21
-127.9710699999999974
0
LINE
8
BLACK
6
CONTINUOUS
10
157.5764189999999871
20
-127.9710699999999974
11
157.4325179999999875
21
-127.9980119999999886
0
LINE
8
BLACK
6
CONTINUOUS
10
157.4325179999999875
20
-127.9980119999999886
11
157.3130469999999832
21
-128.0329069999999945
0
LINE
8
BLACK
6
CONTINUOUS
10
157.3130469999999832
20
-128.0329069999999945
11
157.2139530000000036
21
-128.0764769999999828
0
LINE
8
BLACK
6
CONTINUOUS
10
157.2139530000000036
20
-128.0764769999999828
11
157.131179000000003
21
-128.1294409999999857
0
LINE
8
BLACK
6
CONTINUOUS
10
157.131179000000003
20
-128.1294409999999857
11
157.0752579999999909
21
-128.1778160000000071
0
LINE
8
BLACK
6
CONTINUOUS
10
157.0752579999999909
20
-128.1778160000000071
11
156.9929359999999861
21
-128.2752289999999959
0
LINE
8
BLACK
6
CONTINUOUS
10
156.9929359999999861
20
-128.2752289999999959
11
156.9288169999999809
21
-128.3914259999999956
0
LINE
8
BLACK
6
CONTINUOUS
10
156.9288169999999809
20
-128.3914259999999956
11
156.8815679999999873
21
-128.5314410000000009
0
LINE
8
BLACK
6
CONTINUOUS
10
156.8815679999999873
20
-128.5314410000000009
11
156.8498589999999808
21
-128.7003090000000043
0
LINE
8
BLACK
6
CONTINUOUS
10
156.8498589999999808
20
-128.7003090000000043
11
156.8323589999999967
21
-128.9030659999999955
0
LINE
8
BLACK
6
CONTINUOUS
10
156.8323589999999967
20
-128.9030659999999955
11
156.827652999999998
21
-129.114075999999983
0
LINE
8
BLACK
6
CONTINUOUS
10
156.827652999999998
20
-129.114075999999983
11
155.7164659999999969
21
-129.114075999999983
0
LINE
8
BLACK
6
CONTINUOUS
10
155.7164659999999969
20
-129.114075999999983
11
155.7164609999999811
21
-129.102846999999997
0
LINE
8
BLACK
6
CONTINUOUS
10
155.7164609999999811
20
-129.102846999999997
11
155.7167089999999803
21
-128.9041359999999941
0
LINE
8
BLACK
6
CONTINUOUS
10
155.7167089999999803
20
-128.9041359999999941
11
155.7176900000000046
21
-128.7438589999999863
0
LINE
8
BLACK
6
CONTINUOUS
10
155.7176900000000046
20
-128.7438589999999863
11
155.7197519999999997
21
-128.6155339999999967
0
LINE
8
BLACK
6
CONTINUOUS
10
155.7197519999999997
20
-128.6155339999999967
11
155.7232469999999864
21
-128.5126819999999839
0
LINE
8
BLACK
6
CONTINUOUS
10
155.7232469999999864
20
-128.5126819999999839
11
155.7285249999999905
21
-128.4288200000000018
0
LINE
8
BLACK
6
CONTINUOUS
10
155.7285249999999905
20
-128.4288200000000018
11
155.7359370000000069
21
-128.357467999999983
0
LINE
8
BLACK
6
CONTINUOUS
10
155.7359370000000069
20
-128.357467999999983
11
155.7458330000000046
21
-128.292145000000005
0
LINE
8
BLACK
6
CONTINUOUS
10
155.7458330000000046
20
-128.292145000000005
11
155.7585640000000069
21
-128.2263710000000003
0
LINE
8
BLACK
6
CONTINUOUS
10
155.7585640000000069
20
-128.2263710000000003
11
155.7656580000000019
21
-128.1933149999999841
0
LINE
8
BLACK
6
CONTINUOUS
10
155.7656580000000019
20
-128.1933149999999841
11
155.8301789999999869
21
-127.9634009999999904
0
LINE
8
BLACK
6
CONTINUOUS
10
155.8301789999999869
20
-127.9634009999999904
11
155.9165099999999882
21
-127.7699439999999953
0
LINE
8
BLACK
6
CONTINUOUS
10
155.9165099999999882
20
-127.7699439999999953
11
156.0278639999999939
21
-127.6085159999999945
0
LINE
8
BLACK
6
CONTINUOUS
10
156.0278639999999939
20
-127.6085159999999945
11
156.1674509999999998
21
-127.4746899999999954
0
LINE
8
BLACK
6
CONTINUOUS
10
156.1674509999999998
20
-127.4746899999999954
11
156.3384849999999915
21
-127.3640369999999962
0
LINE
8
BLACK
6
CONTINUOUS
10
156.3384849999999915
20
-127.3640369999999962
11
156.3842359999999871
21
-127.3406009999999924
0
LINE
8
BLACK
6
CONTINUOUS
10
156.3842359999999871
20
-127.3406009999999924
11
156.5052879999999789
21
-127.2870409999999879
0
LINE
8
BLACK
6
CONTINUOUS
10
156.5052879999999789
20
-127.2870409999999879
11
156.636415999999997
21
-127.2411089999999945
0
LINE
8
BLACK
6
CONTINUOUS
10
156.636415999999997
20
-127.2411089999999945
11
156.7815049999999815
21
-127.2023480000000006
0
LINE
8
BLACK
6
CONTINUOUS
10
156.7815049999999815
20
-127.2023480000000006
11
156.9444409999999834
21
-127.1703029999999899
0
LINE
8
BLACK
6
CONTINUOUS
10
156.9444409999999834
20
-127.1703029999999899
11
157.1291089999999997
21
-127.1445149999999984
0
LINE
8
BLACK
6
CONTINUOUS
10
157.1291089999999997
20
-127.1445149999999984
11
157.3393939999999986
21
-127.1245299999999929
0
LINE
8
BLACK
6
CONTINUOUS
10
157.3393939999999986
20
-127.1245299999999929
11
157.579182000000003
21
-127.1098909999999904
0
LINE
8
BLACK
6
CONTINUOUS
10
157.579182000000003
20
-127.1098909999999904
11
157.852359000000007
21
-127.1001419999999911
0
LINE
8
BLACK
6
CONTINUOUS
10
157.852359000000007
20
-127.1001419999999911
11
158.1628089999999816
21
-127.0948250000000002
0
LINE
8
BLACK
6
CONTINUOUS
10
158.1628089999999816
20
-127.0948250000000002
11
158.4886559999999918
21
-127.0934599999999932
0
LINE
8
BLACK
6
CONTINUOUS
10
158.4886559999999918
20
-127.0934599999999932
11
158.732215999999994
21
-127.0939979999999991
0
LINE
8
BLACK
6
CONTINUOUS
10
149.2984679999999855
20
-125.4434459999999945
11
149.6113929999999925
21
-125.4459699999999884
0
LINE
8
BLACK
6
CONTINUOUS
10
149.6113929999999925
20
-125.4459699999999884
11
149.8861279999999851
21
-125.4503209999999882
0
LINE
8
BLACK
6
CONTINUOUS
10
149.8861279999999851
20
-125.4503209999999882
11
150.126024000000001
21
-125.4566179999999918
0
LINE
8
BLACK
6
CONTINUOUS
10
150.126024000000001
20
-125.4566179999999918
11
150.3344290000000001
21
-125.4649799999999971
0
LINE
8
BLACK
6
CONTINUOUS
10
150.3344290000000001
20
-125.4649799999999971
11
150.5146929999999941
21
-125.4755259999999879
0
LINE
8
BLACK
6
CONTINUOUS
10
150.5146929999999941
20
-125.4755259999999879
11
150.6701649999999972
21
-125.4883759999999882
0
LINE
8
BLACK
6
CONTINUOUS
10
150.6701649999999972
20
-125.4883759999999882
11
150.8041949999999929
21
-125.5036470000000008
0
LINE
8
BLACK
6
CONTINUOUS
10
150.8041949999999929
20
-125.5036470000000008
11
150.8529350000000022
21
-125.5105179999999905
0
LINE
8
BLACK
6
CONTINUOUS
10
150.8529350000000022
20
-125.5105179999999905
11
151.1341840000000047
21
-125.5648209999999949
0
LINE
8
BLACK
6
CONTINUOUS
10
151.1341840000000047
20
-125.5648209999999949
11
151.3777309999999829
21
-125.6393509999999907
0
LINE
8
BLACK
6
CONTINUOUS
10
151.3777309999999829
20
-125.6393509999999907
11
151.5856959999999845
21
-125.7364979999999974
0
LINE
8
BLACK
6
CONTINUOUS
10
151.5856959999999845
20
-125.7364979999999974
11
151.7601949999999817
21
-125.8586499999999972
0
LINE
8
BLACK
6
CONTINUOUS
10
151.7601949999999817
20
-125.8586499999999972
11
151.903347999999994
21
-126.0081959999999981
0
LINE
8
BLACK
6
CONTINUOUS
10
151.903347999999994
20
-126.0081959999999981
11
152.0172729999999888
21
-126.1875239999999962
0
LINE
8
BLACK
6
CONTINUOUS
10
152.0172729999999888
20
-126.1875239999999962
11
152.1040879999999902
21
-126.399021999999988
0
LINE
8
BLACK
6
CONTINUOUS
10
152.1040879999999902
20
-126.399021999999988
11
152.1659109999999941
21
-126.6450809999999905
0
LINE
8
BLACK
6
CONTINUOUS
10
152.1659109999999941
20
-126.6450809999999905
11
152.204860999999994
21
-126.9280869999999908
0
LINE
8
BLACK
6
CONTINUOUS
10
152.204860999999994
20
-126.9280869999999908
11
152.2140739999999823
21
-127.0453289999999953
0
LINE
8
BLACK
6
CONTINUOUS
10
152.2140739999999823
20
-127.0453289999999953
11
152.2294880000000035
21
-127.2837490000000003
0
LINE
8
BLACK
6
CONTINUOUS
10
152.2294880000000035
20
-127.2837490000000003
11
151.5890809999999931
21
-127.2837490000000003
0
LINE
8
BLACK
6
CONTINUOUS
10
151.5890809999999931
20
-127.2837490000000003
11
150.9486739999999827
21
-127.2837490000000003
0
LINE
8
BLACK
6
CONTINUOUS
10
150.9486739999999827
20
-127.2837490000000003
11
150.9380160000000046
21
-127.117683999999997
0
LINE
8
BLACK
6
CONTINUOUS
10
150.9380160000000046
20
-127.117683999999997
11
150.9088380000000029
21
-126.9430299999999932
0
LINE
8
BLACK
6
CONTINUOUS
10
150.9088380000000029
20
-126.9430299999999932
11
150.8457080000000019
21
-126.7976599999999934
0
LINE
8
BLACK
6
CONTINUOUS
10
150.8457080000000019
20
-126.7976599999999934
11
150.7488069999999993
21
-126.6818099999999987
0
LINE
8
BLACK
6
CONTINUOUS
10
150.7488069999999993
20
-126.6818099999999987
11
150.6183120000000031
21
-126.5957149999999984
0
LINE
8
BLACK
6
CONTINUOUS
10
150.6183120000000031
20
-126.5957149999999984
11
150.5094899999999996
21
-126.5539919999999938
0
LINE
8
BLACK
6
CONTINUOUS
10
150.5094899999999996
20
-126.5539919999999938
11
150.4479599999999948
21
-126.5372219999999999
0
LINE
8
BLACK
6
CONTINUOUS
10
150.4479599999999948
20
-126.5372219999999999
11
150.382333999999986
21
-126.5228699999999975
0
LINE
8
BLACK
6
CONTINUOUS
10
150.382333999999986
20
-126.5228699999999975
11
150.3089599999999848
21
-126.5107959999999991
0
LINE
8
BLACK
6
CONTINUOUS
10
150.3089599999999848
20
-126.5107959999999991
11
150.2241870000000006
21
-126.5008569999999963
0
LINE
8
BLACK
6
CONTINUOUS
10
150.2241870000000006
20
-126.5008569999999963
11
150.1243629999999882
21
-126.492913999999999
0
LINE
8
BLACK
6
CONTINUOUS
10
150.1243629999999882
20
-126.492913999999999
11
150.005835999999988
21
-126.4868259999999935
0
LINE
8
BLACK
6
CONTINUOUS
10
150.005835999999988
20
-126.4868259999999935
11
149.8649560000000065
21
-126.4824509999999975
0
LINE
8
BLACK
6
CONTINUOUS
10
149.8649560000000065
20
-126.4824509999999975
11
149.6980709999999988
21
-126.4796489999999949
0
LINE
8
BLACK
6
CONTINUOUS
10
149.6980709999999988
20
-126.4796489999999949
11
149.501529000000005
21
-126.4782779999999889
0
LINE
8
BLACK
6
CONTINUOUS
10
149.501529000000005
20
-126.4782779999999889
11
149.271679000000006
21
-126.4781979999999919
0
LINE
8
BLACK
6
CONTINUOUS
10
149.271679000000006
20
-126.4781979999999919
11
149.0048699999999826
21
-126.479268999999988
0
LINE
8
BLACK
6
CONTINUOUS
10
149.0048699999999826
20
-126.479268999999988
11
148.697449000000006
21
-126.4813489999999945
0
LINE
8
BLACK
6
CONTINUOUS
10
148.697449000000006
20
-126.4813489999999945
11
148.638590999999991
21
-126.4818109999999933
0
LINE
8
BLACK
6
CONTINUOUS
10
148.638590999999991
20
-126.4818109999999933
11
148.3473559999999907
21
-126.4843039999999945
0
LINE
8
BLACK
6
CONTINUOUS
10
148.3473559999999907
20
-126.4843039999999945
11
148.0973529999999982
21
-126.4868619999999879
0
LINE
8
BLACK
6
CONTINUOUS
10
148.0973529999999982
20
-126.4868619999999879
11
147.8849009999999851
21
-126.4895969999999892
0
LINE
8
BLACK
6
CONTINUOUS
10
147.8849009999999851
20
-126.4895969999999892
11
147.7063159999999868
21
-126.4926239999999922
0
LINE
8
BLACK
6
CONTINUOUS
10
147.7063159999999868
20
-126.4926239999999922
11
147.5579139999999825
21
-126.4960559999999958
0
LINE
8
BLACK
6
CONTINUOUS
10
147.5579139999999825
20
-126.4960559999999958
11
147.4360140000000001
21
-126.5000059999999991
0
LINE
8
BLACK
6
CONTINUOUS
10
147.4360140000000001
20
-126.5000059999999991
11
147.3369309999999928
21
-126.5045870000000008
0
LINE
8
BLACK
6
CONTINUOUS
10
147.3369309999999928
20
-126.5045870000000008
11
147.2569829999999911
21
-126.5099139999999949
0
LINE
8
BLACK
6
CONTINUOUS
10
147.2569829999999911
20
-126.5099139999999949
11
147.1924869999999999
21
-126.516098999999997
0
LINE
8
BLACK
6
CONTINUOUS
10
147.1924869999999999
20
-126.516098999999997
11
147.139758999999998
21
-126.523257000000001
0
LINE
8
BLACK
6
CONTINUOUS
10
147.139758999999998
20
-126.523257000000001
11
147.1074610000000007
21
-126.5289889999999957
0
LINE
8
BLACK
6
CONTINUOUS
10
147.1074610000000007
20
-126.5289889999999957
11
146.9251549999999895
21
-126.5752509999999944
0
LINE
8
BLACK
6
CONTINUOUS
10
146.9251549999999895
20
-126.5752509999999944
11
146.779894999999982
21
-126.6381709999999998
0
LINE
8
BLACK
6
CONTINUOUS
10
146.779894999999982
20
-126.6381709999999998
11
146.666324000000003
21
-126.7231069999999988
0
LINE
8
BLACK
6
CONTINUOUS
10
146.666324000000003
20
-126.7231069999999988
11
146.5790829999999971
21
-126.83541799999999
0
LINE
8
BLACK
6
CONTINUOUS
10
146.5790829999999971
20
-126.83541799999999
11
146.5128129999999942
21
-126.9804649999999953
0
LINE
8
BLACK
6
CONTINUOUS
10
146.5128129999999942
20
-126.9804649999999953
11
146.4621569999999906
21
-127.1636049999999898
0
LINE
8
BLACK
6
CONTINUOUS
10
146.4621569999999906
20
-127.1636049999999898
11
146.4591900000000066
21
-127.177361999999988
0
LINE
8
BLACK
6
CONTINUOUS
10
146.4591900000000066
20
-127.177361999999988
11
146.4478550000000041
21
-127.2546309999999892
0
LINE
8
BLACK
6
CONTINUOUS
10
146.4478550000000041
20
-127.2546309999999892
11
146.4377250000000004
21
-127.3697869999999881
0
LINE
8
BLACK
6
CONTINUOUS
10
146.4377250000000004
20
-127.3697869999999881
11
146.4289200000000051
21
-127.5158139999999918
0
LINE
8
BLACK
6
CONTINUOUS
10
146.4289200000000051
20
-127.5158139999999918
11
146.4215639999999894
21
-127.6856969999999905
0
LINE
8
BLACK
6
CONTINUOUS
10
146.4215639999999894
20
-127.6856969999999905
11
146.4157789999999864
21
-127.8724199999999911
0
LINE
8
BLACK
6
CONTINUOUS
10
146.4157789999999864
20
-127.8724199999999911
11
146.4116860000000031
21
-128.0689679999999839
0
LINE
8
BLACK
6
CONTINUOUS
10
146.4116860000000031
20
-128.0689679999999839
11
146.4094079999999849
21
-128.2683240000000069
0
LINE
8
BLACK
6
CONTINUOUS
10
146.4094079999999849
20
-128.2683240000000069
11
146.4090679999999907
21
-128.4634729999999934
0
LINE
8
BLACK
6
CONTINUOUS
10
146.4090679999999907
20
-128.4634729999999934
11
146.4107869999999991
21
-128.6473990000000072
0
LINE
8
BLACK
6
CONTINUOUS
10
146.4107869999999991
20
-128.6473990000000072
11
146.414687999999984
21
-128.8130869999999959
0
LINE
8
BLACK
6
CONTINUOUS
10
146.414687999999984
20
-128.8130869999999959
11
146.4208930000000066
21
-128.9535199999999975
0
LINE
8
BLACK
6
CONTINUOUS
10
146.4208930000000066
20
-128.9535199999999975
11
146.4268359999999802
21
-129.03484499999999
0
LINE
8
BLACK
6
CONTINUOUS
10
146.4268359999999802
20
-129.03484499999999
11
146.4544549999999958
21
-129.2653430000000014
0
LINE
8
BLACK
6
CONTINUOUS
10
146.4544549999999958
20
-129.2653430000000014
11
146.4928209999999922
21
-129.4562080000000037
0
LINE
8
BLACK
6
CONTINUOUS
10
146.4928209999999922
20
-129.4562080000000037
11
146.5441289999999981
21
-129.6119019999999864
0
LINE
8
BLACK
6
CONTINUOUS
10
146.5441289999999981
20
-129.6119019999999864
11
146.610574999999983
21
-129.7368859999999984
0
LINE
8
BLACK
6
CONTINUOUS
10
146.610574999999983
20
-129.7368859999999984
11
146.6943550000000016
21
-129.8356239999999957
0
LINE
8
BLACK
6
CONTINUOUS
10
146.6943550000000016
20
-129.8356239999999957
11
146.797663
21
-129.9125750000000039
0
LINE
8
BLACK
6
CONTINUOUS
10
146.797663
20
-129.9125750000000039
11
146.87933799999999
21
-129.9543600000000083
0
LINE
8
BLACK
6
CONTINUOUS
10
146.87933799999999
20
-129.9543600000000083
11
146.9377000000000066
21
-129.9785809999999913
0
LINE
8
BLACK
6
CONTINUOUS
10
146.9377000000000066
20
-129.9785809999999913
11
146.9973119999999938
21
-129.9993319999999812
0
LINE
8
BLACK
6
CONTINUOUS
10
146.9973119999999938
20
-129.9993319999999812
11
147.0621359999999811
21
-130.0169209999999964
0
LINE
8
BLACK
6
CONTINUOUS
10
147.0621359999999811
20
-130.0169209999999964
11
147.1361359999999934
21
-130.031659999999988
0
LINE
8
BLACK
6
CONTINUOUS
10
147.1361359999999934
20
-130.031659999999988
11
147.2232740000000035
21
-130.0438570000000027
0
LINE
8
BLACK
6
CONTINUOUS
10
147.2232740000000035
20
-130.0438570000000027
11
147.327512999999982
21
-130.0538229999999942
0
LINE
8
BLACK
6
CONTINUOUS
10
147.327512999999982
20
-130.0538229999999942
11
147.4528179999999793
21
-130.0618670000000066
0
LINE
8
BLACK
6
CONTINUOUS
10
147.4528179999999793
20
-130.0618670000000066
11
147.6031499999999994
21
-130.0682989999999961
0
LINE
8
BLACK
6
CONTINUOUS
10
147.6031499999999994
20
-130.0682989999999961
11
147.7824719999999843
21
-130.0734300000000019
0
LINE
8
BLACK
6
CONTINUOUS
10
147.7824719999999843
20
-130.0734300000000019
11
147.9947489999999846
21
-130.0775679999999852
0
LINE
8
BLACK
6
CONTINUOUS
10
147.9947489999999846
20
-130.0775679999999852
11
148.2439430000000016
21
-130.0810239999999851
0
LINE
8
BLACK
6
CONTINUOUS
10
148.2439430000000016
20
-130.0810239999999851
11
148.5340159999999798
21
-130.0841069999999888
0
LINE
8
BLACK
6
CONTINUOUS
10
148.5340159999999798
20
-130.0841069999999888
11
148.5397609999999986
21
-130.0841619999999921
0
LINE
8
BLACK
6
CONTINUOUS
10
148.5397609999999986
20
-130.0841619999999921
11
148.8757149999999854
21
-130.086843999999985
0
LINE
8
BLACK
6
CONTINUOUS
10
148.8757149999999854
20
-130.086843999999985
11
149.1701269999999795
21
-130.087853999999993
0
LINE
8
BLACK
6
CONTINUOUS
10
149.1701269999999795
20
-130.087853999999993
11
149.4263449999999978
21
-130.0869380000000035
0
LINE
8
BLACK
6
CONTINUOUS
10
149.4263449999999978
20
-130.0869380000000035
11
149.6477219999999875
21
-130.0838399999999808
0
LINE
8
BLACK
6
CONTINUOUS
10
149.6477219999999875
20
-130.0838399999999808
11
149.8376069999999913
21
-130.0783059999999978
0
LINE
8
BLACK
6
CONTINUOUS
10
149.8376069999999913
20
-130.0783059999999978
11
149.9993509999999901
21
-130.0700809999999876
0
LINE
8
BLACK
6
CONTINUOUS
10
149.9993509999999901
20
-130.0700809999999876
11
150.136304999999993
21
-130.0589089999999999
0
LINE
8
BLACK
6
CONTINUOUS
10
150.136304999999993
20
-130.0589089999999999
11
150.2518179999999859
21
-130.0445359999999937
0
LINE
8
BLACK
6
CONTINUOUS
10
150.2518179999999859
20
-130.0445359999999937
11
150.3492430000000013
21
-130.0267059999999901
0
LINE
8
BLACK
6
CONTINUOUS
10
150.3492430000000013
20
-130.0267059999999901
11
150.4319279999999992
21
-130.0051650000000052
0
LINE
8
BLACK
6
CONTINUOUS
10
150.4319279999999992
20
-130.0051650000000052
11
150.5032249999999863
21
-129.9796580000000006
0
LINE
8
BLACK
6
CONTINUOUS
10
150.5032249999999863
20
-129.9796580000000006
11
150.5664840000000027
21
-129.9499289999999974
0
LINE
8
BLACK
6
CONTINUOUS
10
150.5664840000000027
20
-129.9499289999999974
11
150.6071969999999851
21
-129.9268219999999872
0
LINE
8
BLACK
6
CONTINUOUS
10
150.6071969999999851
20
-129.9268219999999872
11
150.724457000000001
21
-129.8330190000000073
0
LINE
8
BLACK
6
CONTINUOUS
10
150.724457000000001
20
-129.8330190000000073
11
150.8257419999999911
21
-129.7084299999999928
0
LINE
8
BLACK
6
CONTINUOUS
10
150.8257419999999911
20
-129.7084299999999928
11
150.9010989999999879
21
-129.5667789999999968
0
LINE
8
BLACK
6
CONTINUOUS
10
150.9010989999999879
20
-129.5667789999999968
11
150.92862599999998
21
-129.4836919999999907
0
LINE
8
BLACK
6
CONTINUOUS
10
150.92862599999998
20
-129.4836919999999907
11
150.9447439999999858
21
-129.403681000000006
0
LINE
8
BLACK
6
CONTINUOUS
10
150.9447439999999858
20
-129.403681000000006
11
150.9604520000000036
21
-129.2973539999999844
0
LINE
8
BLACK
6
CONTINUOUS
10
150.9604520000000036
20
-129.2973539999999844
11
150.9731469999999831
21
-129.1832560000000001
0
LINE
8
BLACK
6
CONTINUOUS
10
150.9731469999999831
20
-129.1832560000000001
11
150.9766779999999926
21
-129.1412069999999801
0
LINE
8
BLACK
6
CONTINUOUS
10
150.9766779999999926
20
-129.1412069999999801
11
150.9930239999999912
21
-128.9231829999999945
0
LINE
8
BLACK
6
CONTINUOUS
10
150.9930239999999912
20
-128.9231829999999945
11
149.7551639999999793
21
-128.9231829999999945
0
LINE
8
BLACK
6
CONTINUOUS
10
149.7551639999999793
20
-128.9231829999999945
11
148.5173029999999983
21
-128.9231829999999945
0
LINE
8
BLACK
6
CONTINUOUS
10
148.5173029999999983
20
-128.9231829999999945
11
148.5173029999999983
21
-128.4964809999999886
0
LINE
8
BLACK
6
CONTINUOUS
10
148.5173029999999983
20
-128.4964809999999886
11
148.5173029999999983
21
-128.0697789999999827
0
LINE
8
BLACK
6
CONTINUOUS
10
148.5173029999999983
20
-128.0697789999999827
11
150.3842369999999846
21
-128.0697789999999827
0
LINE
8
BLACK
6
CONTINUOUS
10
150.3842369999999846
20
-128.0697789999999827
11
152.2511719999999968
21
-128.0697789999999827
0
LINE
8
BLACK
6
CONTINUOUS
10
152.2511719999999968
20
-128.0697789999999827
11
152.2390359999999987
21
-128.8165070000000014
0
LINE
8
BLACK
6
CONTINUOUS
10
152.2390359999999987
20
-128.8165070000000014
11
152.2338039999999921
21
-129.0774769999999876
0
LINE
8
BLACK
6
CONTINUOUS
10
152.2338039999999921
20
-129.0774769999999876
11
152.2269179999999835
21
-129.2990149999999971
0
LINE
8
BLACK
6
CONTINUOUS
10
152.2269179999999835
20
-129.2990149999999971
11
152.217819999999989
21
-129.4865900000000067
0
LINE
8
BLACK
6
CONTINUOUS
10
152.217819999999989
20
-129.4865900000000067
11
152.2059539999999913
21
-129.645672999999988
0
LINE
8
BLACK
6
CONTINUOUS
10
152.2059539999999913
20
-129.645672999999988
11
152.1907599999999832
21
-129.7817349999999976
0
LINE
8
BLACK
6
CONTINUOUS
10
152.1907599999999832
20
-129.7817349999999976
11
152.1716820000000041
21
-129.900244999999984
0
LINE
8
BLACK
6
CONTINUOUS
10
152.1716820000000041
20
-129.900244999999984
11
152.148161999999985
21
-130.0066730000000064
0
LINE
8
BLACK
6
CONTINUOUS
10
152.148161999999985
20
-130.0066730000000064
11
152.1196410000000014
21
-130.106490000000008
0
LINE
8
BLACK
6
CONTINUOUS
10
152.1196410000000014
20
-130.106490000000008
11
152.1021509999999921
21
-130.1590339999999912
0
LINE
8
BLACK
6
CONTINUOUS
10
152.1021509999999921
20
-130.1590339999999912
11
152.0056679999999858
21
-130.3812700000000007
0
LINE
8
BLACK
6
CONTINUOUS
10
152.0056679999999858
20
-130.3812700000000007
11
151.8817579999999907
21
-130.5689729999999997
0
LINE
8
BLACK
6
CONTINUOUS
10
151.8817579999999907
20
-130.5689729999999997
11
151.7280669999999816
21
-130.7244199999999807
0
LINE
8
BLACK
6
CONTINUOUS
10
151.7280669999999816
20
-130.7244199999999807
11
151.5422429999999849
21
-130.8498850000000004
0
LINE
8
BLACK
6
CONTINUOUS
10
151.5422429999999849
20
-130.8498850000000004
11
151.3219310000000064
21
-130.9476439999999968
0
LINE
8
BLACK
6
CONTINUOUS
10
151.3219310000000064
20
-130.9476439999999968
11
151.2675079999999923
21
-130.9660089999999855
0
LINE
8
BLACK
6
CONTINUOUS
10
151.2675079999999923
20
-130.9660089999999855
11
151.1993049999999812
21
-130.9873929999999973
0
LINE
8
BLACK
6
CONTINUOUS
10
151.1993049999999812
20
-130.9873929999999973
11
151.1348319999999887
21
-131.0060369999999921
0
LINE
8
BLACK
6
CONTINUOUS
10
151.1348319999999887
20
-131.0060369999999921
11
151.0705779999999834
21
-131.0221420000000023
0
LINE
8
BLACK
6
CONTINUOUS
10
151.0705779999999834
20
-131.0221420000000023
11
151.0030339999999853
21
-131.0359069999999804
0
LINE
8
BLACK
6
CONTINUOUS
10
151.0030339999999853
20
-131.0359069999999804
11
150.928685999999999
21
-131.0475309999999922
0
LINE
8
BLACK
6
CONTINUOUS
10
150.928685999999999
20
-131.0475309999999922
11
150.8440249999999878
21
-131.0572129999999902
0
LINE
8
BLACK
6
CONTINUOUS
10
150.8440249999999878
20
-131.0572129999999902
11
150.7455389999999795
21
-131.0651540000000068
0
LINE
8
BLACK
6
CONTINUOUS
10
150.7455389999999795
20
-131.0651540000000068
11
150.6297179999999969
21
-131.0715539999999919
0
LINE
8
BLACK
6
CONTINUOUS
10
150.6297179999999969
20
-131.0715539999999919
11
150.493048999999985
21
-131.0766099999999881
0
LINE
8
BLACK
6
CONTINUOUS
10
150.493048999999985
20
-131.0766099999999881
11
150.3320219999999949
21
-131.0805239999999969
0
LINE
8
BLACK
6
CONTINUOUS
10
150.3320219999999949
20
-131.0805239999999969
11
150.1431249999999977
21
-131.0834940000000017
0
LINE
8
BLACK
6
CONTINUOUS
10
150.1431249999999977
20
-131.0834940000000017
11
149.9228489999999852
21
-131.0857199999999807
0
LINE
8
BLACK
6
CONTINUOUS
10
149.9228489999999852
20
-131.0857199999999807
11
149.6676799999999901
21
-131.0874019999999973
0
LINE
8
BLACK
6
CONTINUOUS
10
149.6676799999999901
20
-131.0874019999999973
11
149.3741090000000042
21
-131.0887390000000039
0
LINE
8
BLACK
6
CONTINUOUS
10
149.3741090000000042
20
-131.0887390000000039
11
149.089981999999992
21
-131.0897589999999866
0
LINE
8
BLACK
6
CONTINUOUS
10
149.089981999999992
20
-131.0897589999999866
11
148.8206610000000012
21
-131.0905539999999974
0
LINE
8
BLACK
6
CONTINUOUS
10
148.8206610000000012
20
-131.0905539999999974
11
148.5616449999999986
21
-131.0911049999999989
0
LINE
8
BLACK
6
CONTINUOUS
10
148.5616449999999986
20
-131.0911049999999989
11
148.3168799999999976
21
-131.0914180000000044
0
LINE
8
BLACK
6
CONTINUOUS
10
148.3168799999999976
20
-131.0914180000000044
11
148.0903140000000064
21
-131.0914970000000039
0
LINE
8
BLACK
6
CONTINUOUS
10
148.0903140000000064
20
-131.0914970000000039
11
147.8858960000000025
21
-131.0913469999999847
0
LINE
8
BLACK
6
CONTINUOUS
10
147.8858960000000025
20
-131.0913469999999847
11
147.7075729999999965
21
-131.0909719999999936
0
LINE
8
BLACK
6
CONTINUOUS
10
147.7075729999999965
20
-131.0909719999999936
11
147.5592919999999992
21
-131.090377999999987
0
LINE
8
BLACK
6
CONTINUOUS
10
147.5592919999999992
20
-131.090377999999987
11
147.4450019999999881
21
-131.0895699999999806
0
LINE
8
BLACK
6
CONTINUOUS
10
147.4450019999999881
20
-131.0895699999999806
11
147.3686509999999998
21
-131.0885519999999929
0
LINE
8
BLACK
6
CONTINUOUS
10
147.3686509999999998
20
-131.0885519999999929
11
147.3382579999999962
21
-131.0876309999999876
0
LINE
8
BLACK
6
CONTINUOUS
10
147.3382579999999962
20
-131.0876309999999876
11
147.0711169999999868
21
-131.0711069999999836
0
LINE
8
BLACK
6
CONTINUOUS
10
147.0711169999999868
20
-131.0711069999999836
11
146.8432509999999809
21
-131.0532739999999876
0
LINE
8
BLACK
6
CONTINUOUS
10
146.8432509999999809
20
-131.0532739999999876
11
146.6490189999999814
21
-131.0331459999999879
0
LINE
8
BLACK
6
CONTINUOUS
10
146.6490189999999814
20
-131.0331459999999879
11
146.4827809999999886
21
-131.0097350000000063
0
LINE
8
BLACK
6
CONTINUOUS
10
146.4827809999999886
20
-131.0097350000000063
11
146.3388970000000029
21
-130.9820519999999817
0
LINE
8
BLACK
6
CONTINUOUS
10
146.3388970000000029
20
-130.9820519999999817
11
146.2117259999999987
21
-130.9491099999999904
0
LINE
8
BLACK
6
CONTINUOUS
10
146.2117259999999987
20
-130.9491099999999904
11
146.0956280000000049
21
-130.9099209999999971
0
LINE
8
BLACK
6
CONTINUOUS
10
146.0956280000000049
20
-130.9099209999999971
11
145.9849619999999959
21
-130.8634979999999928
0
LINE
8
BLACK
6
CONTINUOUS
10
145.9849619999999959
20
-130.8634979999999928
11
145.9416929999999866
21
-130.8430409999999995
0
LINE
8
BLACK
6
CONTINUOUS
10
145.9416929999999866
20
-130.8430409999999995
11
145.7288690000000031
21
-130.7173410000000047
0
LINE
8
BLACK
6
CONTINUOUS
10
145.7288690000000031
20
-130.7173410000000047
11
145.5509150000000034
21
-130.5637480000000039
0
LINE
8
BLACK
6
CONTINUOUS
10
145.5509150000000034
20
-130.5637480000000039
11
145.4066959999999824
21
-130.3809279999999831
0
LINE
8
BLACK
6
CONTINUOUS
10
145.4066959999999824
20
-130.3809279999999831
11
145.2950840000000028
21
-130.1675510000000031
0
LINE
8
BLACK
6
CONTINUOUS
10
145.2950840000000028
20
-130.1675510000000031
11
145.2414449999999988
21
-130.0182869999999866
0
LINE
8
BLACK
6
CONTINUOUS
10
145.2414449999999988
20
-130.0182869999999866
11
145.2135669999999834
21
-129.9222929999999963
0
LINE
8
BLACK
6
CONTINUOUS
10
145.2135669999999834
20
-129.9222929999999963
11
145.1900190000000066
21
-129.8283199999999908
0
LINE
8
BLACK
6
CONTINUOUS
10
145.1900190000000066
20
-129.8283199999999908
11
145.1704489999999907
21
-129.7316390000000013
0
LINE
8
BLACK
6
CONTINUOUS
10
145.1704489999999907
20
-129.7316390000000013
11
145.1545069999999953
21
-129.6275200000000041
0
LINE
8
BLACK
6
CONTINUOUS
10
145.1545069999999953
20
-129.6275200000000041
11
145.1418390000000045
21
-129.5112349999999992
0
LINE
8
BLACK
6
CONTINUOUS
10
145.1418390000000045
20
-129.5112349999999992
11
145.1320949999999925
21
-129.3780549999999891
0
LINE
8
BLACK
6
CONTINUOUS
10
145.1320949999999925
20
-129.3780549999999891
11
145.1249229999999955
21
-129.2232500000000073
0
LINE
8
BLACK
6
CONTINUOUS
10
145.1249229999999955
20
-129.2232500000000073
11
145.1199709999999925
21
-129.0420909999999992
0
LINE
8
BLACK
6
CONTINUOUS
10
145.1199709999999925
20
-129.0420909999999992
11
145.1168869999999913
21
-128.8298499999999933
0
LINE
8
BLACK
6
CONTINUOUS
10
145.1168869999999913
20
-128.8298499999999933
11
145.115319999999997
21
-128.5817969999999946
0
LINE
8
BLACK
6
CONTINUOUS
10
145.115319999999997
20
-128.5817969999999946
11
145.1149149999999963
21
-128.3168169999999861
0
LINE
8
BLACK
6
CONTINUOUS
10
145.1149149999999963
20
-128.3168169999999861
11
145.1153589999999838
21
-128.0308880000000045
0
LINE
8
BLACK
6
CONTINUOUS
10
145.1153589999999838
20
-128.0308880000000045
11
145.1168830000000014
21
-127.7851280000000003
0
LINE
8
BLACK
6
CONTINUOUS
10
145.1168830000000014
20
-127.7851280000000003
11
145.1197769999999991
21
-127.5747980000000013
0
LINE
8
BLACK
6
CONTINUOUS
10
145.1197769999999991
20
-127.5747980000000013
11
145.1243289999999888
21
-127.3951589999999925
0
LINE
8
BLACK
6
CONTINUOUS
10
145.1243289999999888
20
-127.3951589999999925
11
145.1308300000000031
21
-127.24147099999999
0
LINE
8
BLACK
6
CONTINUOUS
10
145.1308300000000031
20
-127.24147099999999
11
145.139567999999997
21
-127.1089949999999931
0
LINE
8
BLACK
6
CONTINUOUS
10
145.139567999999997
20
-127.1089949999999931
11
145.1508330000000058
21
-126.9929909999999893
0
LINE
8
BLACK
6
CONTINUOUS
10
145.1508330000000058
20
-126.9929909999999893
11
145.1649139999999818
21
-126.8887189999999947
0
LINE
8
BLACK
6
CONTINUOUS
10
145.1649139999999818
20
-126.8887189999999947
11
145.1820999999999913
21
-126.7914409999999918
0
LINE
8
BLACK
6
CONTINUOUS
10
145.1820999999999913
20
-126.7914409999999918
11
145.2026809999999841
21
-126.6964159999999993
0
LINE
8
BLACK
6
CONTINUOUS
10
145.2026809999999841
20
-126.6964159999999993
11
145.2175409999999829
21
-126.6354889999999926
0
LINE
8
BLACK
6
CONTINUOUS
10
145.2175409999999829
20
-126.6354889999999926
11
145.301099999999991
21
-126.3895449999999983
0
LINE
8
BLACK
6
CONTINUOUS
10
145.301099999999991
20
-126.3895449999999983
11
145.4196759999999813
21
-126.1711309999999884
0
LINE
8
BLACK
6
CONTINUOUS
10
145.4196759999999813
20
-126.1711309999999884
11
145.571518999999995
21
-125.9819709999999873
0
LINE
8
BLACK
6
CONTINUOUS
10
145.571518999999995
20
-125.9819709999999873
11
145.7548809999999833
21
-125.8237909999999999
0
LINE
8
BLACK
6
CONTINUOUS
10
145.7548809999999833
20
-125.8237909999999999
11
145.9680149999999799
21
-125.6983189999999979
0
LINE
8
BLACK
6
CONTINUOUS
10
145.9680149999999799
20
-125.6983189999999979
11
146.2091700000000003
21
-125.6072789999999912
0
LINE
8
BLACK
6
CONTINUOUS
10
146.2091700000000003
20
-125.6072789999999912
11
146.2775979999999834
21
-125.5891319999999922
0
LINE
8
BLACK
6
CONTINUOUS
10
146.2775979999999834
20
-125.5891319999999922
11
146.4184379999999805
21
-125.5592319999999944
0
LINE
8
BLACK
6
CONTINUOUS
10
146.4184379999999805
20
-125.5592319999999944
11
146.5809309999999925
21
-125.5331009999999878
0
LINE
8
BLACK
6
CONTINUOUS
10
146.5809309999999925
20
-125.5331009999999878
11
146.7676699999999812
21
-125.5105959999999925
0
LINE
8
BLACK
6
CONTINUOUS
10
146.7676699999999812
20
-125.5105959999999925
11
146.9812509999999861
21
-125.4915759999999949
0
LINE
8
BLACK
6
CONTINUOUS
10
146.9812509999999861
20
-125.4915759999999949
11
147.2242689999999925
21
-125.4758969999999891
0
LINE
8
BLACK
6
CONTINUOUS
10
147.2242689999999925
20
-125.4758969999999891
11
147.4993199999999831
21
-125.4634169999999926
0
LINE
8
BLACK
6
CONTINUOUS
10
147.4993199999999831
20
-125.4634169999999926
11
147.8089959999999792
21
-125.453992999999997
0
LINE
8
BLACK
6
CONTINUOUS
10
147.8089959999999792
20
-125.453992999999997
11
148.1558949999999868
21
-125.4474829999999912
0
LINE
8
BLACK
6
CONTINUOUS
10
148.1558949999999868
20
-125.4474829999999912
11
148.5426109999999937
21
-125.4437449999999927
0
LINE
8
BLACK
6
CONTINUOUS
10
148.5426109999999937
20
-125.4437449999999927
11
148.9440050000000042
21
-125.4426289999999966
0
LINE
8
BLACK
6
CONTINUOUS
10
148.9440050000000042
20
-125.4426289999999966
11
149.2984679999999855
21
-125.4434459999999945
0
LINE
8
BLACK
6
CONTINUOUS
10
126.3961709999999954
20
-125.7678339999999935
11
126.3961709999999954
21
-126.0485589999999974
0
LINE
8
BLACK
6
CONTINUOUS
10
126.3961709999999954
20
-126.0485589999999974
11
124.98131699999999
21
-126.0485589999999974
0
LINE
8
BLACK
6
CONTINUOUS
10
124.98131699999999
20
-126.0485589999999974
11
123.5664629999999988
21
-126.0485589999999974
0
LINE
8
BLACK
6
CONTINUOUS
10
123.5664629999999988
20
-126.0485589999999974
11
123.5664629999999988
21
-128.5526260000000036
0
LINE
8
BLACK
6
CONTINUOUS
10
123.5664629999999988
20
-128.5526260000000036
11
123.5664629999999988
21
-131.0566929999999957
0
LINE
8
BLACK
6
CONTINUOUS
10
123.5664629999999988
20
-131.0566929999999957
11
123.2295929999999942
21
-131.0566929999999957
0
LINE
8
BLACK
6
CONTINUOUS
10
123.2295929999999942
20
-131.0566929999999957
11
122.8927229999999895
21
-131.0566929999999957
0
LINE
8
BLACK
6
CONTINUOUS
10
122.8927229999999895
20
-131.0566929999999957
11
122.8927229999999895
21
-128.5526260000000036
0
LINE
8
BLACK
6
CONTINUOUS
10
122.8927229999999895
20
-128.5526260000000036
11
122.8927229999999895
21
-126.0485589999999974
0
LINE
8
BLACK
6
CONTINUOUS
10
122.8927229999999895
20
-126.0485589999999974
11
121.4778689999999983
21
-126.0485589999999974
0
LINE
8
BLACK
6
CONTINUOUS
10
121.4778689999999983
20
-126.0485589999999974
11
120.0630149999999929
21
-126.0485589999999974
0
LINE
8
BLACK
6
CONTINUOUS
10
120.0630149999999929
20
-126.0485589999999974
11
120.0630149999999929
21
-125.7678339999999935
0
LINE
8
BLACK
6
CONTINUOUS
10
120.0630149999999929
20
-125.7678339999999935
11
120.0630149999999929
21
-125.4871089999999896
0
LINE
8
BLACK
6
CONTINUOUS
10
120.0630149999999929
20
-125.4871089999999896
11
123.2295929999999942
21
-125.4871089999999896
0
LINE
8
BLACK
6
CONTINUOUS
10
123.2295929999999942
20
-125.4871089999999896
11
126.3961709999999954
21
-125.4871089999999896
0
LINE
8
BLACK
6
CONTINUOUS
10
126.3961709999999954
20
-125.4871089999999896
11
126.3961709999999954
21
-125.7678339999999935
0
LINE
8
BLACK
6
CONTINUOUS
10
127.8559409999999872
20
-129.0803889999999967
11
127.8559409999999872
21
-131.0566929999999957
0
LINE
8
BLACK
6
CONTINUOUS
10
127.8559409999999872
20
-131.0566929999999957
11
127.5639869999999974
21
-131.0566929999999957
0
LINE
8
BLACK
6
CONTINUOUS
10
127.5639869999999974
20
-131.0566929999999957
11
127.2720329999999933
21
-131.0566929999999957
0
LINE
8
BLACK
6
CONTINUOUS
10
127.2720329999999933
20
-131.0566929999999957
11
127.2720329999999933
21
-129.0803889999999967
0
LINE
8
BLACK
6
CONTINUOUS
10
127.2720329999999933
20
-129.0803889999999967
11
127.2720329999999933
21
-127.1040849999999978
0
LINE
8
BLACK
6
CONTINUOUS
10
127.2720329999999933
20
-127.1040849999999978
11
127.5639869999999974
21
-127.1040849999999978
0
LINE
8
BLACK
6
CONTINUOUS
10
127.5639869999999974
20
-127.1040849999999978
11
127.8559409999999872
21
-127.1040849999999978
0
LINE
8
BLACK
6
CONTINUOUS
10
127.8559409999999872
20
-127.1040849999999978
11
127.8559409999999872
21
-129.0803889999999967
0
LINE
8
BLACK
6
CONTINUOUS
10
131.8226650000000006
20
-127.0380179999999939
11
132.0008760000000052
21
-127.0408849999999887
0
LINE
8
BLACK
6
CONTINUOUS
10
132.0008760000000052
20
-127.0408849999999887
11
132.1597940000000051
21
-127.0462819999999908
0
LINE
8
BLACK
6
CONTINUOUS
10
132.1597940000000051
20
-127.0462819999999908
11
132.2895409999999856
21
-127.0542189999999891
0
LINE
8
BLACK
6
CONTINUOUS
10
132.2895409999999856
20
-127.0542189999999891
11
132.3481309999999951
21
-127.0600629999999995
0
LINE
8
BLACK
6
CONTINUOUS
10
132.3481309999999951
20
-127.0600629999999995
11
132.6034659999999974
21
-127.1023560000000003
0
LINE
8
BLACK
6
CONTINUOUS
10
132.6034659999999974
20
-127.1023560000000003
11
132.8205979999999897
21
-127.1630309999999895
0
LINE
8
BLACK
6
CONTINUOUS
10
132.8205979999999897
20
-127.1630309999999895
11
133.0032119999999907
21
-127.2442549999999954
0
LINE
8
BLACK
6
CONTINUOUS
10
133.0032119999999907
20
-127.2442549999999954
11
133.1549929999999904
21
-127.348196999999999
0
LINE
8
BLACK
6
CONTINUOUS
10
133.1549929999999904
20
-127.348196999999999
11
133.2796260000000075
21
-127.4770249999999976
0
LINE
8
BLACK
6
CONTINUOUS
10
133.2796260000000075
20
-127.4770249999999976
11
133.3807970000000012
21
-127.6329069999999888
0
LINE
8
BLACK
6
CONTINUOUS
10
133.3807970000000012
20
-127.6329069999999888
11
133.4057630000000074
21
-127.6824119999999994
0
LINE
8
BLACK
6
CONTINUOUS
10
133.4057630000000074
20
-127.6824119999999994
11
133.4757809999999836
21
-127.8291219999999981
0
LINE
8
BLACK
6
CONTINUOUS
10
133.4757809999999836
20
-127.8291219999999981
11
133.5420330000000035
21
-127.7056529999999981
0
LINE
8
BLACK
6
CONTINUOUS
10
133.5420330000000035
20
-127.7056529999999981
11
133.6459370000000035
21
-127.5442669999999907
0
LINE
8
BLACK
6
CONTINUOUS
10
133.6459370000000035
20
-127.5442669999999907
11
133.7720359999999857
21
-127.4094999999999942
0
LINE
8
BLACK
6
CONTINUOUS
10
133.7720359999999857
20
-127.4094999999999942
11
133.924476999999996
21
-127.2988419999999934
0
LINE
8
BLACK
6
CONTINUOUS
10
133.924476999999996
20
-127.2988419999999934
11
134.1074089999999899
21
-127.2097809999999924
0
LINE
8
BLACK
6
CONTINUOUS
10
134.1074089999999899
20
-127.2097809999999924
11
134.3249789999999848
21
-127.1398049999999955
0
LINE
8
BLACK
6
CONTINUOUS
10
134.3249789999999848
20
-127.1398049999999955
11
134.5583609999999908
21
-127.0902869999999893
0
LINE
8
BLACK
6
CONTINUOUS
10
134.5583609999999908
20
-127.0902869999999893
11
134.6621240000000057
21
-127.076864999999998
0
LINE
8
BLACK
6
CONTINUOUS
10
134.6621240000000057
20
-127.076864999999998
11
134.8022320000000036
21
-127.0652259999999956
0
LINE
8
BLACK
6
CONTINUOUS
10
134.8022320000000036
20
-127.0652259999999956
11
134.9701450000000023
21
-127.0555379999999985
0
LINE
8
BLACK
6
CONTINUOUS
10
134.9701450000000023
20
-127.0555379999999985
11
135.1573219999999935
21
-127.0479729999999989
0
LINE
8
BLACK
6
CONTINUOUS
10
135.1573219999999935
20
-127.0479729999999989
11
135.3552210000000002
21
-127.0426989999999989
0
LINE
8
BLACK
6
CONTINUOUS
10
135.3552210000000002
20
-127.0426989999999989
11
135.5553009999999858
21
-127.0398869999999931
0
LINE
8
BLACK
6
CONTINUOUS
10
135.5553009999999858
20
-127.0398869999999931
11
135.749020999999999
21
-127.0397059999999954
0
LINE
8
BLACK
6
CONTINUOUS
10
135.749020999999999
20
-127.0397059999999954
11
135.9278400000000033
21
-127.0423259999999885
0
LINE
8
BLACK
6
CONTINUOUS
10
135.9278400000000033
20
-127.0423259999999885
11
136.0832159999999931
21
-127.0479179999999957
0
LINE
8
BLACK
6
CONTINUOUS
10
136.0832159999999931
20
-127.0479179999999957
11
136.2066089999999861
21
-127.056650999999988
0
LINE
8
BLACK
6
CONTINUOUS
10
136.2066089999999861
20
-127.056650999999988
11
136.2136879999999906
21
-127.0573689999999942
0
LINE
8
BLACK
6
CONTINUOUS
10
136.2136879999999906
20
-127.0573689999999942
11
136.4855330000000038
21
-127.0952539999999971
0
LINE
8
BLACK
6
CONTINUOUS
10
136.4855330000000038
20
-127.0952539999999971
11
136.718057999999985
21
-127.1495109999999897
0
LINE
8
BLACK
6
CONTINUOUS
10
136.718057999999985
20
-127.1495109999999897
11
136.914574999999985
21
-127.222383999999991
0
LINE
8
BLACK
6
CONTINUOUS
10
136.914574999999985
20
-127.222383999999991
11
137.0783999999999878
21
-127.3161149999999964
0
LINE
8
BLACK
6
CONTINUOUS
10
137.0783999999999878
20
-127.3161149999999964
11
137.2128469999999822
21
-127.4329469999999986
0
LINE
8
BLACK
6
CONTINUOUS
10
137.2128469999999822
20
-127.4329469999999986
11
137.3212309999999832
21
-127.5751209999999958
0
LINE
8
BLACK
6
CONTINUOUS
10
137.3212309999999832
20
-127.5751209999999958
11
137.406864999999982
21
-127.7448819999999898
0
LINE
8
BLACK
6
CONTINUOUS
10
137.406864999999982
20
-127.7448819999999898
11
137.461010999999985
21
-127.9013439999999946
0
LINE
8
BLACK
6
CONTINUOUS
10
137.461010999999985
20
-127.9013439999999946
11
137.4688539999999932
21
-127.9315299999999951
0
LINE
8
BLACK
6
CONTINUOUS
10
137.4688539999999932
20
-127.9315299999999951
11
137.475639000000001
21
-127.9667729999999892
0
LINE
8
BLACK
6
CONTINUOUS
10
137.475639000000001
20
-127.9667729999999892
11
137.4814609999999959
21
-128.0105020000000025
0
LINE
8
BLACK
6
CONTINUOUS
10
137.4814609999999959
20
-128.0105020000000025
11
137.4864189999999837
21
-128.0661409999999876
0
LINE
8
BLACK
6
CONTINUOUS
10
137.4864189999999837
20
-128.0661409999999876
11
137.4906069999999829
21
-128.1371179999999868
0
LINE
8
BLACK
6
CONTINUOUS
10
137.4906069999999829
20
-128.1371179999999868
11
137.4941239999999993
21
-128.2268599999999878
0
LINE
8
BLACK
6
CONTINUOUS
10
137.4941239999999993
20
-128.2268599999999878
11
137.4970659999999896
21
-128.3387929999999812
0
LINE
8
BLACK
6
CONTINUOUS
10
137.4970659999999896
20
-128.3387929999999812
11
137.4995309999999904
21
-128.4763429999999858
0
LINE
8
BLACK
6
CONTINUOUS
10
137.4995309999999904
20
-128.4763429999999858
11
137.5016139999999893
21
-128.6429379999999867
0
LINE
8
BLACK
6
CONTINUOUS
10
137.5016139999999893
20
-128.6429379999999867
11
137.5034129999999948
21
-128.8420040000000029
0
LINE
8
BLACK
6
CONTINUOUS
10
137.5034129999999948
20
-128.8420040000000029
11
137.5050239999999917
21
-129.0769669999999962
0
LINE
8
BLACK
6
CONTINUOUS
10
137.5050239999999917
20
-129.0769669999999962
11
137.5065449999999885
21
-129.3512549999999806
0
LINE
8
BLACK
6
CONTINUOUS
10
137.5065449999999885
20
-129.3512549999999806
11
137.5075029999999856
21
-129.5463919999999973
0
LINE
8
BLACK
6
CONTINUOUS
10
137.5075029999999856
20
-129.5463919999999973
11
137.5146670000000029
21
-131.0566929999999957
0
LINE
8
BLACK
6
CONTINUOUS
10
137.5146670000000029
20
-131.0566929999999957
11
137.2218199999999797
21
-131.0566929999999957
0
LINE
8
BLACK
6
CONTINUOUS
10
137.2218199999999797
20
-131.0566929999999957
11
136.9289739999999824
21
-131.0566929999999957
0
LINE
8
BLACK
6
CONTINUOUS
10
136.9289739999999824
20
-131.0566929999999957
11
136.9282800000000009
21
-129.7597429999999861
0
LINE
8
BLACK
6
CONTINUOUS
10
136.9282800000000009
20
-129.7597429999999861
11
136.9277820000000077
21
-129.5168610000000058
0
LINE
8
BLACK
6
CONTINUOUS
10
136.9277820000000077
20
-129.5168610000000058
11
136.9265969999999868
21
-129.283030999999994
0
LINE
8
BLACK
6
CONTINUOUS
10
136.9265969999999868
20
-129.283030999999994
11
136.9247959999999864
21
-129.0629089999999906
0
LINE
8
BLACK
6
CONTINUOUS
10
136.9247959999999864
20
-129.0629089999999906
11
136.9224480000000028
21
-128.8611489999999833
0
LINE
8
BLACK
6
CONTINUOUS
10
136.9224480000000028
20
-128.8611489999999833
11
136.9196249999999964
21
-128.682407999999981
0
LINE
8
BLACK
6
CONTINUOUS
10
136.9196249999999964
20
-128.682407999999981
11
136.9163959999999918
21
-128.5313400000000001
0
LINE
8
BLACK
6
CONTINUOUS
10
136.9163959999999918
20
-128.5313400000000001
11
136.9128330000000062
21
-128.4125999999999976
0
LINE
8
BLACK
6
CONTINUOUS
10
136.9128330000000062
20
-128.4125999999999976
11
136.9090039999999817
21
-128.3308429999999873
0
LINE
8
BLACK
6
CONTINUOUS
10
136.9090039999999817
20
-128.3308429999999873
11
136.906187999999986
21
-128.2979819999999904
0
LINE
8
BLACK
6
CONTINUOUS
10
136.906187999999986
20
-128.2979819999999904
11
136.8753499999999974
21
-128.1342589999999859
0
LINE
8
BLACK
6
CONTINUOUS
10
136.8753499999999974
20
-128.1342589999999859
11
136.8266380000000026
21
-127.9944419999999923
0
LINE
8
BLACK
6
CONTINUOUS
10
136.8266380000000026
20
-127.9944419999999923
11
136.7571299999999894
21
-127.8769899999999922
0
LINE
8
BLACK
6
CONTINUOUS
10
136.7571299999999894
20
-127.8769899999999922
11
136.6639030000000048
21
-127.7803599999999875
0
LINE
8
BLACK
6
CONTINUOUS
10
136.6639030000000048
20
-127.7803599999999875
11
136.5440349999999796
21
-127.7030099999999919
0
LINE
8
BLACK
6
CONTINUOUS
10
136.5440349999999796
20
-127.7030099999999919
11
136.3946019999999919
21
-127.6433979999999906
0
LINE
8
BLACK
6
CONTINUOUS
10
136.3946019999999919
20
-127.6433979999999906
11
136.2126820000000009
21
-127.599979999999988
0
LINE
8
BLACK
6
CONTINUOUS
10
136.2126820000000009
20
-127.599979999999988
11
135.9953519999999969
21
-127.5712149999999951
0
LINE
8
BLACK
6
CONTINUOUS
10
135.9953519999999969
20
-127.5712149999999951
11
135.7396889999999985
21
-127.5555609999999973
0
LINE
8
BLACK
6
CONTINUOUS
10
135.7396889999999985
20
-127.5555609999999973
11
135.491375000000005
21
-127.5514129999999966
0
LINE
8
BLACK
6
CONTINUOUS
10
135.491375000000005
20
-127.5514129999999966
11
135.1545739999999967
21
-127.5586409999999944
0
LINE
8
BLACK
6
CONTINUOUS
10
135.1545739999999967
20
-127.5586409999999944
11
134.8579790000000003
21
-127.5818319999999915
0
LINE
8
BLACK
6
CONTINUOUS
10
134.8579790000000003
20
-127.5818319999999915
11
134.5994629999999859
21
-127.6219369999999884
0
LINE
8
BLACK
6
CONTINUOUS
10
134.5994629999999859
20
-127.6219369999999884
11
134.3769000000000062
21
-127.6799049999999909
0
LINE
8
BLACK
6
CONTINUOUS
10
134.3769000000000062
20
-127.6799049999999909
11
134.1881640000000004
21
-127.7566859999999878
0
LINE
8
BLACK
6
CONTINUOUS
10
134.1881640000000004
20
-127.7566859999999878
11
134.0311279999999954
21
-127.8532319999999913
0
LINE
8
BLACK
6
CONTINUOUS
10
134.0311279999999954
20
-127.8532319999999913
11
133.9036649999999895
21
-127.9704929999999905
0
LINE
8
BLACK
6
CONTINUOUS
10
133.9036649999999895
20
-127.9704929999999905
11
133.8036490000000072
21
-128.1094190000000026
0
LINE
8
BLACK
6
CONTINUOUS
10
133.8036490000000072
20
-128.1094190000000026
11
133.72895299999999
21
-128.2709600000000023
0
LINE
8
BLACK
6
CONTINUOUS
10
133.72895299999999
20
-128.2709600000000023
11
133.7032570000000078
21
-128.3505040000000008
0
LINE
8
BLACK
6
CONTINUOUS
10
133.7032570000000078
20
-128.3505040000000008
11
133.6949029999999823
21
-128.383782999999994
0
LINE
8
BLACK
6
CONTINUOUS
10
133.6949029999999823
20
-128.383782999999994
11
133.6877429999999833
21
-128.4233089999999891
0
LINE
8
BLACK
6
CONTINUOUS
10
133.6877429999999833
20
-128.4233089999999891
11
133.6816519999999855
21
-128.4728299999999876
0
LINE
8
BLACK
6
CONTINUOUS
10
133.6816519999999855
20
-128.4728299999999876
11
133.6765029999999967
21
-128.5360949999999889
0
LINE
8
BLACK
6
CONTINUOUS
10
133.6765029999999967
20
-128.5360949999999889
11
133.6721699999999942
21
-128.6168529999999919
0
LINE
8
BLACK
6
CONTINUOUS
10
133.6721699999999942
20
-128.6168529999999919
11
133.6685290000000066
21
-128.7188529999999957
0
LINE
8
BLACK
6
CONTINUOUS
10
133.6685290000000066
20
-128.7188529999999957
11
133.6654529999999852
21
-128.8458420000000046
0
LINE
8
BLACK
6
CONTINUOUS
10
133.6654529999999852
20
-128.8458420000000046
11
133.6628169999999898
21
-129.0015709999999842
0
LINE
8
BLACK
6
CONTINUOUS
10
133.6628169999999898
20
-129.0015709999999842
11
133.6604949999999974
21
-129.1897869999999955
0
LINE
8
BLACK
6
CONTINUOUS
10
133.6604949999999974
20
-129.1897869999999955
11
133.6583609999999851
21
-129.4142389999999807
0
LINE
8
BLACK
6
CONTINUOUS
10
133.6583609999999851
20
-129.4142389999999807
11
133.6562889999999868
21
-129.6786759999999958
0
LINE
8
BLACK
6
CONTINUOUS
10
133.6562889999999868
20
-129.6786759999999958
11
133.6556290000000047
21
-129.7709720000000004
0
LINE
8
BLACK
6
CONTINUOUS
10
133.6556290000000047
20
-129.7709720000000004
11
133.6465839999999901
21
-131.0566929999999957
0
LINE
8
BLACK
6
CONTINUOUS
10
133.6465839999999901
20
-131.0566929999999957
11
133.3563910000000021
21
-131.0566929999999957
0
LINE
8
BLACK
6
CONTINUOUS
10
133.3563910000000021
20
-131.0566929999999957
11
133.0661979999999858
21
-131.0566929999999957
0
LINE
8
BLACK
6
CONTINUOUS
10
133.0661979999999858
20
-131.0566929999999957
11
133.0655040000000042
21
-129.7597429999999861
0
LINE
8
BLACK
6
CONTINUOUS
10
133.0655040000000042
20
-129.7597429999999861
11
133.0650059999999826
21
-129.5168610000000058
0
LINE
8
BLACK
6
CONTINUOUS
10
133.0650059999999826
20
-129.5168610000000058
11
133.0638209999999901
21
-129.283030999999994
0
LINE
8
BLACK
6
CONTINUOUS
10
133.0638209999999901
20
-129.283030999999994
11
133.0620189999999923
21
-129.0629089999999906
0
LINE
8
BLACK
6
CONTINUOUS
10
133.0620189999999923
20
-129.0629089999999906
11
133.0596720000000062
21
-128.8611489999999833
0
LINE
8
BLACK
6
CONTINUOUS
10
133.0596720000000062
20
-128.8611489999999833
11
133.0568489999999997
21
-128.682407999999981
0
LINE
8
BLACK
6
CONTINUOUS
10
133.0568489999999997
20
-128.682407999999981
11
133.0536199999999951
21
-128.5313400000000001
0
LINE
8
BLACK
6
CONTINUOUS
10
133.0536199999999951
20
-128.5313400000000001
11
133.0500559999999837
21
-128.4125999999999976
0
LINE
8
BLACK
6
CONTINUOUS
10
133.0500559999999837
20
-128.4125999999999976
11
133.0462279999999851
21
-128.3308429999999873
0
LINE
8
BLACK
6
CONTINUOUS
10
133.0462279999999851
20
-128.3308429999999873
11
133.0434119999999893
21
-128.2979819999999904
0
LINE
8
BLACK
6
CONTINUOUS
10
133.0434119999999893
20
-128.2979819999999904
11
133.0130330000000072
21
-128.1354869999999835
0
LINE
8
BLACK
6
CONTINUOUS
10
133.0130330000000072
20
-128.1354869999999835
11
132.965327000000002
21
-127.9966029999999932
0
LINE
8
BLACK
6
CONTINUOUS
10
132.965327000000002
20
-127.9966029999999932
11
132.8973519999999837
21
-127.8798010000000005
0
LINE
8
BLACK
6
CONTINUOUS
10
132.8973519999999837
20
-127.8798010000000005
11
132.806162999999998
21
-127.7835549999999927
0
LINE
8
BLACK
6
CONTINUOUS
10
132.806162999999998
20
-127.7835549999999927
11
132.6888170000000002
21
-127.7063349999999957
0
LINE
8
BLACK
6
CONTINUOUS
10
132.6888170000000002
20
-127.7063349999999957
11
132.5423710000000028
21
-127.6466159999999945
0
LINE
8
BLACK
6
CONTINUOUS
10
132.5423710000000028
20
-127.6466159999999945
11
132.3638809999999921
21
-127.6028680000000008
0
LINE
8
BLACK
6
CONTINUOUS
10
132.3638809999999921
20
-127.6028680000000008
11
132.1504039999999804
21
-127.5735639999999904
0
LINE
8
BLACK
6
CONTINUOUS
10
132.1504039999999804
20
-127.5735639999999904
11
131.8989959999999826
21
-127.5571769999999958
0
LINE
8
BLACK
6
CONTINUOUS
10
131.8989959999999826
20
-127.5571769999999958
11
131.606712999999985
21
-127.5521789999999953
0
LINE
8
BLACK
6
CONTINUOUS
10
131.606712999999985
20
-127.5521789999999953
11
131.6064269999999965
21
-127.5521799999999928
0
LINE
8
BLACK
6
CONTINUOUS
10
131.6064269999999965
20
-127.5521799999999928
11
131.3545569999999998
21
-127.5552029999999917
0
LINE
8
BLACK
6
CONTINUOUS
10
131.3545569999999998
20
-127.5552029999999917
11
131.1397240000000011
21
-127.5645099999999985
0
LINE
8
BLACK
6
CONTINUOUS
10
131.1397240000000011
20
-127.5645099999999985
11
130.9543759999999963
21
-127.5809670000000011
0
LINE
8
BLACK
6
CONTINUOUS
10
130.9543759999999963
20
-127.5809670000000011
11
130.7909620000000075
21
-127.6054419999999965
0
LINE
8
BLACK
6
CONTINUOUS
10
130.7909620000000075
20
-127.6054419999999965
11
130.6419309999999996
21
-127.6388019999999983
0
LINE
8
BLACK
6
CONTINUOUS
10
130.6419309999999996
20
-127.6388019999999983
11
130.5115649999999903
21
-127.6779069999999905
0
LINE
8
BLACK
6
CONTINUOUS
10
130.5115649999999903
20
-127.6779069999999905
11
130.3138390000000015
21
-127.7584699999999884
0
LINE
8
BLACK
6
CONTINUOUS
10
130.3138390000000015
20
-127.7584699999999884
11
130.1537429999999915
21
-127.8570339999999987
0
LINE
8
BLACK
6
CONTINUOUS
10
130.1537429999999915
20
-127.8570339999999987
11
130.0259010000000046
21
-127.9786409999999961
0
LINE
8
BLACK
6
CONTINUOUS
10
130.0259010000000046
20
-127.9786409999999961
11
129.9249379999999974
21
-128.1283300000000054
0
LINE
8
BLACK
6
CONTINUOUS
10
129.9249379999999974
20
-128.1283300000000054
11
129.8500769999999989
21
-128.2982059999999933
0
LINE
8
BLACK
6
CONTINUOUS
10
129.8500769999999989
20
-128.2982059999999933
11
129.8393020000000035
21
-128.3288689999999974
0
LINE
8
BLACK
6
CONTINUOUS
10
129.8393020000000035
20
-128.3288689999999974
11
129.8301339999999868
21
-128.3588309999999808
0
LINE
8
BLACK
6
CONTINUOUS
10
129.8301339999999868
20
-128.3588309999999808
11
129.8224209999999914
21
-128.3918620000000033
0
LINE
8
BLACK
6
CONTINUOUS
10
129.8224209999999914
20
-128.3918620000000033
11
129.8160100000000057
21
-128.4317340000000058
0
LINE
8
BLACK
6
CONTINUOUS
10
129.8160100000000057
20
-128.4317340000000058
11
129.810750999999982
21
-128.4822199999999839
0
LINE
8
BLACK
6
CONTINUOUS
10
129.810750999999982
20
-128.4822199999999839
11
129.8064909999999941
21
-128.5470909999999947
0
LINE
8
BLACK
6
CONTINUOUS
10
129.8064909999999941
20
-128.5470909999999947
11
129.8030799999999942
21
-128.6301200000000051
0
LINE
8
BLACK
6
CONTINUOUS
10
129.8030799999999942
20
-128.6301200000000051
11
129.8003649999999993
21
-128.7350789999999847
0
LINE
8
BLACK
6
CONTINUOUS
10
129.8003649999999993
20
-128.7350789999999847
11
129.7981949999999927
21
-128.8657379999999932
0
LINE
8
BLACK
6
CONTINUOUS
10
129.7981949999999927
20
-128.8657379999999932
11
129.796418999999986
21
-129.0258719999999926
0
LINE
8
BLACK
6
CONTINUOUS
10
129.796418999999986
20
-129.0258719999999926
11
129.7948839999999961
21
-129.2192509999999857
0
LINE
8
BLACK
6
CONTINUOUS
10
129.7948839999999961
20
-129.2192509999999857
11
129.7934390000000064
21
-129.4496469999999988
0
LINE
8
BLACK
6
CONTINUOUS
10
129.7934390000000064
20
-129.4496469999999988
11
129.7919320000000027
21
-129.7208320000000015
0
LINE
8
BLACK
6
CONTINUOUS
10
129.7919320000000027
20
-129.7208320000000015
11
129.7917819999999836
21
-129.7485140000000001
0
LINE
8
BLACK
6
CONTINUOUS
10
129.7917819999999836
20
-129.7485140000000001
11
129.7846979999999917
21
-131.0566929999999957
0
LINE
8
BLACK
6
CONTINUOUS
10
129.7846979999999917
20
-131.0566929999999957
11
129.4940599999999904
21
-131.0566929999999957
0
LINE
8
BLACK
6
CONTINUOUS
10
129.4940599999999904
20
-131.0566929999999957
11
129.2034209999999916
21
-131.0566929999999957
0
LINE
8
BLACK
6
CONTINUOUS
10
129.2034209999999916
20
-131.0566929999999957
11
129.2034209999999916
21
-129.0803889999999967
0
LINE
8
BLACK
6
CONTINUOUS
10
129.2034209999999916
20
-129.0803889999999967
11
129.2034209999999916
21
-127.1040849999999978
0
LINE
8
BLACK
6
CONTINUOUS
10
129.2034209999999916
20
-127.1040849999999978
11
129.4953749999999957
21
-127.1040849999999978
0
LINE
8
BLACK
6
CONTINUOUS
10
129.4953749999999957
20
-127.1040849999999978
11
129.7873289999999997
21
-127.1040849999999978
0
LINE
8
BLACK
6
CONTINUOUS
10
129.7873289999999997
20
-127.1040849999999978
11
129.7873289999999997
21
-127.4664299999999884
0
LINE
8
BLACK
6
CONTINUOUS
10
129.7873289999999997
20
-127.4664299999999884
11
129.7873289999999997
21
-127.8287759999999906
0
LINE
8
BLACK
6
CONTINUOUS
10
129.7873289999999997
20
-127.8287759999999906
11
129.8658289999999909
21
-127.6718639999999994
0
LINE
8
BLACK
6
CONTINUOUS
10
129.8658289999999909
20
-127.6718639999999994
11
129.9610679999999832
21
-127.5138919999999985
0
LINE
8
BLACK
6
CONTINUOUS
10
129.9610679999999832
20
-127.5138919999999985
11
130.0772939999999949
21
-127.3824769999999944
0
LINE
8
BLACK
6
CONTINUOUS
10
130.0772939999999949
20
-127.3824769999999944
11
130.2183320000000037
21
-127.2755369999999999
0
LINE
8
BLACK
6
CONTINUOUS
10
130.2183320000000037
20
-127.2755369999999999
11
130.3880049999999926
21
-127.1909919999999943
0
LINE
8
BLACK
6
CONTINUOUS
10
130.3880049999999926
20
-127.1909919999999943
11
130.5901369999999986
21
-127.1267599999999902
0
LINE
8
BLACK
6
CONTINUOUS
10
130.5901369999999986
20
-127.1267599999999902
11
130.8285510000000045
21
-127.0807629999999904
0
LINE
8
BLACK
6
CONTINUOUS
10
130.8285510000000045
20
-127.0807629999999904
11
130.987907000000007
21
-127.0613219999999899
0
LINE
8
BLACK
6
CONTINUOUS
10
130.987907000000007
20
-127.0613219999999899
11
131.1144290000000012
21
-127.0516729999999939
0
LINE
8
BLACK
6
CONTINUOUS
10
131.1144290000000012
20
-127.0516729999999939
11
131.2710419999999942
21
-127.0445089999999908
0
LINE
8
BLACK
6
CONTINUOUS
10
131.2710419999999942
20
-127.0445089999999908
11
131.4478709999999921
21
-127.0398390000000006
0
LINE
8
BLACK
6
CONTINUOUS
10
131.4478709999999921
20
-127.0398390000000006
11
131.6350379999999802
21
-127.0376729999999981
0
LINE
8
BLACK
6
CONTINUOUS
10
131.6350379999999802
20
-127.0376729999999981
11
131.8226650000000006
21
-127.0380179999999939
0
LINE
8
BLACK
6
CONTINUOUS
10
154.580962999999997
20
-128.2606719999999996
11
154.580962999999997
21
-131.0566929999999957
0
LINE
8
BLACK
6
CONTINUOUS
10
154.580962999999997
20
-131.0566929999999957
11
154.0307420000000036
21
-131.0566929999999957
0
LINE
8
BLACK
6
CONTINUOUS
10
154.0307420000000036
20
-131.0566929999999957
11
153.4805209999999818
21
-131.0566929999999957
0
LINE
8
BLACK
6
CONTINUOUS
10
153.4805209999999818
20
-131.0566929999999957
11
153.4805209999999818
21
-128.2606719999999996
0
LINE
8
BLACK
6
CONTINUOUS
10
153.4805209999999818
20
-128.2606719999999996
11
153.4805209999999818
21
-125.4646509999999893
0
LINE
8
BLACK
6
CONTINUOUS
10
153.4805209999999818
20
-125.4646509999999893
11
154.0307420000000036
21
-125.4646509999999893
0
LINE
8
BLACK
6
CONTINUOUS
10
154.0307420000000036
20
-125.4646509999999893
11
154.580962999999997
21
-125.4646509999999893
0
LINE
8
BLACK
6
CONTINUOUS
10
154.580962999999997
20
-125.4646509999999893
11
154.580962999999997
21
-128.2606719999999996
0
LINE
8
BLACK
6
CONTINUOUS
10
162.2981049999999925
20
-127.1542479999999955
11
162.8969709999999793
21
-127.1602299999999985
0
LINE
8
BLACK
6
CONTINUOUS
10
162.8969709999999793
20
-127.1602299999999985
11
163.4652930000000026
21
-128.6956480000000056
0
LINE
8
BLACK
6
CONTINUOUS
10
163.4652930000000026
20
-128.6956480000000056
11
163.5580559999999934
21
-128.9460750000000075
0
LINE
8
BLACK
6
CONTINUOUS
10
163.5580559999999934
20
-128.9460750000000075
11
163.6463310000000035
21
-129.1840259999999887
0
LINE
8
BLACK
6
CONTINUOUS
10
163.6463310000000035
20
-129.1840259999999887
11
163.7288759999999854
21
-129.4061729999999955
0
LINE
8
BLACK
6
CONTINUOUS
10
163.7288759999999854
20
-129.4061729999999955
11
163.8044490000000053
21
-129.6091899999999839
0
LINE
8
BLACK
6
CONTINUOUS
10
163.8044490000000053
20
-129.6091899999999839
11
163.8718059999999923
21
-129.7897490000000005
0
LINE
8
BLACK
6
CONTINUOUS
10
163.8718059999999923
20
-129.7897490000000005
11
163.9297059999999817
21
-129.9445220000000063
0
LINE
8
BLACK
6
CONTINUOUS
10
163.9297059999999817
20
-129.9445220000000063
11
163.9769039999999904
21
-130.0701839999999834
0
LINE
8
BLACK
6
CONTINUOUS
10
163.9769039999999904
20
-130.0701839999999834
11
164.0121599999999944
21
-130.1634059999999806
0
LINE
8
BLACK
6
CONTINUOUS
10
164.0121599999999944
20
-130.1634059999999806
11
164.0342299999999796
21
-130.2208609999999851
0
LINE
8
BLACK
6
CONTINUOUS
10
164.0342299999999796
20
-130.2208609999999851
11
164.0418109999999956
21
-130.2392619999999965
0
LINE
8
BLACK
6
CONTINUOUS
10
164.0418109999999956
20
-130.2392619999999965
11
164.0507669999999791
21
-130.2201069999999845
0
LINE
8
BLACK
6
CONTINUOUS
10
164.0507669999999791
20
-130.2201069999999845
11
164.0740909999999815
21
-130.1621049999999968
0
LINE
8
BLACK
6
CONTINUOUS
10
164.0740909999999815
20
-130.1621049999999968
11
164.1105409999999836
21
-130.0685259999999914
0
LINE
8
BLACK
6
CONTINUOUS
10
164.1105409999999836
20
-130.0685259999999914
11
164.1588779999999872
21
-129.9426389999999856
0
LINE
8
BLACK
6
CONTINUOUS
10
164.1588779999999872
20
-129.9426389999999856
11
164.2178590000000042
21
-129.7877149999999915
0
LINE
8
BLACK
6
CONTINUOUS
10
164.2178590000000042
20
-129.7877149999999915
11
164.2862439999999822
21
-129.6070220000000006
0
LINE
8
BLACK
6
CONTINUOUS
10
164.2862439999999822
20
-129.6070220000000006
11
164.3627909999999872
21
-129.4038299999999992
0
LINE
8
BLACK
6
CONTINUOUS
10
164.3627909999999872
20
-129.4038299999999992
11
164.4462609999999927
21
-129.1814099999999996
0
LINE
8
BLACK
6
CONTINUOUS
10
164.4462609999999927
20
-129.1814099999999996
11
164.5354109999999821
21
-128.9430299999999932
0
LINE
8
BLACK
6
CONTINUOUS
10
164.5354109999999821
20
-128.9430299999999932
11
164.6245779999999854
21
-128.7038440000000037
0
LINE
8
BLACK
6
CONTINUOUS
10
164.6245779999999854
20
-128.7038440000000037
11
165.1991490000000056
21
-127.1602299999999985
0
LINE
8
BLACK
6
CONTINUOUS
10
165.1991490000000056
20
-127.1602299999999985
11
165.8021249999999895
21
-127.1545259999999899
0
LINE
8
BLACK
6
CONTINUOUS
10
165.8021249999999895
20
-127.1545259999999899
11
166.4051010000000019
21
-127.1488219999999956
0
LINE
8
BLACK
6
CONTINUOUS
10
166.4051010000000019
20
-127.1488219999999956
11
166.9768870000000049
21
-128.6975349999999878
0
LINE
8
BLACK
6
CONTINUOUS
10
166.9768870000000049
20
-128.6975349999999878
11
167.0697490000000016
21
-128.9486119999999971
0
LINE
8
BLACK
6
CONTINUOUS
10
167.0697490000000016
20
-128.9486119999999971
11
167.1581719999999791
21
-129.1868169999999907
0
LINE
8
BLACK
6
CONTINUOUS
10
167.1581719999999791
20
-129.1868169999999907
11
167.2409219999999834
21
-129.408883000000003
0
LINE
8
BLACK
6
CONTINUOUS
10
167.2409219999999834
20
-129.408883000000003
11
167.3167679999999962
21
-129.6115460000000041
0
LINE
8
BLACK
6
CONTINUOUS
10
167.3167679999999962
20
-129.6115460000000041
11
167.3844760000000065
21
-129.7915360000000078
0
LINE
8
BLACK
6
CONTINUOUS
10
167.3844760000000065
20
-129.7915360000000078
11
167.442814999999996
21
-129.9455869999999891
0
LINE
8
BLACK
6
CONTINUOUS
10
167.442814999999996
20
-129.9455869999999891
11
167.4905509999999822
21
-130.07043299999998
0
LINE
8
BLACK
6
CONTINUOUS
10
167.4905509999999822
20
-130.07043299999998
11
167.5264520000000061
21
-130.1628069999999866
0
LINE
8
BLACK
6
CONTINUOUS
10
167.5264520000000061
20
-130.1628069999999866
11
167.5492849999999976
21
-130.2194409999999891
0
LINE
8
BLACK
6
CONTINUOUS
10
167.5492849999999976
20
-130.2194409999999891
11
167.5577749999999924
21
-130.2371459999999956
0
LINE
8
BLACK
6
CONTINUOUS
10
167.5577749999999924
20
-130.2371459999999956
11
167.5670010000000048
21
-130.2151719999999955
0
LINE
8
BLACK
6
CONTINUOUS
10
167.5670010000000048
20
-130.2151719999999955
11
167.5908059999999864
21
-130.1544879999999864
0
LINE
8
BLACK
6
CONTINUOUS
10
167.5908059999999864
20
-130.1544879999999864
11
167.6279239999999788
21
-130.0584130000000016
0
LINE
8
BLACK
6
CONTINUOUS
10
167.6279239999999788
20
-130.0584130000000016
11
167.6770879999999977
21
-129.9302679999999839
0
LINE
8
BLACK
6
CONTINUOUS
10
167.6770879999999977
20
-129.9302679999999839
11
167.7370339999999942
21
-129.7733709999999974
0
LINE
8
BLACK
6
CONTINUOUS
10
167.7370339999999942
20
-129.7733709999999974
11
167.806492999999989
21
-129.5910409999999899
0
LINE
8
BLACK
6
CONTINUOUS
10
167.806492999999989
20
-129.5910409999999899
11
167.8842009999999902
21
-129.3865979999999922
0
LINE
8
BLACK
6
CONTINUOUS
10
167.8842009999999902
20
-129.3865979999999922
11
167.9688899999999876
21
-129.1633589999999856
0
LINE
8
BLACK
6
CONTINUOUS
10
167.9688899999999876
20
-129.1633589999999856
11
168.0592949999999917
21
-128.9246449999999982
0
LINE
8
BLACK
6
CONTINUOUS
10
168.0592949999999917
20
-128.9246449999999982
11
168.1464550000000031
21
-128.6941369999999836
0
LINE
8
BLACK
6
CONTINUOUS
10
168.1464550000000031
20
-128.6941369999999836
11
168.7260320000000036
21
-127.1602299999999985
0
LINE
8
BLACK
6
CONTINUOUS
10
168.7260320000000036
20
-127.1602299999999985
11
169.3196329999999818
21
-127.154254999999992
0
LINE
8
BLACK
6
CONTINUOUS
10
169.3196329999999818
20
-127.154254999999992
11
169.913234999999986
21
-127.1482789999999881
0
LINE
8
BLACK
6
CONTINUOUS
10
169.913234999999986
20
-127.1482789999999881
11
169.1255339999999876
21
-129.102485999999999
0
LINE
8
BLACK
6
CONTINUOUS
10
169.1255339999999876
20
-129.102485999999999
11
168.3378329999999892
21
-131.0566929999999957
0
LINE
8
BLACK
6
CONTINUOUS
10
168.3378329999999892
20
-131.0566929999999957
11
167.562359999999984
21
-131.0565589999999929
0
LINE
8
BLACK
6
CONTINUOUS
10
167.562359999999984
20
-131.0565589999999929
11
166.7868869999999788
21
-131.0564249999999902
0
LINE
8
BLACK
6
CONTINUOUS
10
166.7868869999999788
20
-131.0564249999999902
11
166.3172699999999793
21
-129.73368099999999
0
LINE
8
BLACK
6
CONTINUOUS
10
166.3172699999999793
20
-129.73368099999999
11
166.2340089999999861
21
-129.4993379999999945
0
LINE
8
BLACK
6
CONTINUOUS
10
166.2340089999999861
20
-129.4993379999999945
11
166.154689999999988
21
-129.2764239999999916
0
LINE
8
BLACK
6
CONTINUOUS
10
166.154689999999988
20
-129.2764239999999916
11
166.0806699999999978
21
-129.0687340000000063
0
LINE
8
BLACK
6
CONTINUOUS
10
166.0806699999999978
20
-129.0687340000000063
11
166.0133099999999899
21
-128.8800669999999968
0
LINE
8
BLACK
6
CONTINUOUS
10
166.0133099999999899
20
-128.8800669999999968
11
165.9539680000000033
21
-128.7142179999999883
0
LINE
8
BLACK
6
CONTINUOUS
10
165.9539680000000033
20
-128.7142179999999883
11
165.9040029999999888
21
-128.574986999999993
0
LINE
8
BLACK
6
CONTINUOUS
10
165.9040029999999888
20
-128.574986999999993
11
165.8647739999999828
21
-128.4661690000000078
0
LINE
8
BLACK
6
CONTINUOUS
10
165.8647739999999828
20
-128.4661690000000078
11
165.8376389999999958
21
-128.3915609999999958
0
LINE
8
BLACK
6
CONTINUOUS
10
165.8376389999999958
20
-128.3915609999999958
11
165.8239580000000046
21
-128.3549620000000004
0
LINE
8
BLACK
6
CONTINUOUS
10
165.8239580000000046
20
-128.3549620000000004
11
165.8231940000000009
21
-128.3530879999999854
0
LINE
8
BLACK
6
CONTINUOUS
10
165.8231940000000009
20
-128.3530879999999854
11
165.8170590000000004
21
-128.3448559999999929
0
LINE
8
BLACK
6
CONTINUOUS
10
165.8170590000000004
20
-128.3448559999999929
11
165.8084709999999973
21
-128.3469949999999926
0
LINE
8
BLACK
6
CONTINUOUS
10
165.8084709999999973
20
-128.3469949999999926
11
165.796323000000001
21
-128.3623069999999871
0
LINE
8
BLACK
6
CONTINUOUS
10
165.796323000000001
20
-128.3623069999999871
11
165.7795069999999953
21
-128.3935929999999814
0
LINE
8
BLACK
6
CONTINUOUS
10
165.7795069999999953
20
-128.3935929999999814
11
165.7569159999999897
21
-128.4436550000000068
0
LINE
8
BLACK
6
CONTINUOUS
10
165.7569159999999897
20
-128.4436550000000068
11
165.7274419999999964
21
-128.5152960000000064
0
LINE
8
BLACK
6
CONTINUOUS
10
165.7274419999999964
20
-128.5152960000000064
11
165.689976999999999
21
-128.611315999999988
0
LINE
8
BLACK
6
CONTINUOUS
10
165.689976999999999
20
-128.611315999999988
11
165.6434139999999786
21
-128.73451799999998
0
LINE
8
BLACK
6
CONTINUOUS
10
165.6434139999999786
20
-128.73451799999998
11
165.5866450000000043
21
-128.8877029999999877
0
LINE
8
BLACK
6
CONTINUOUS
10
165.5866450000000043
20
-128.8877029999999877
11
165.5185620000000029
21
-129.0736729999999852
0
LINE
8
BLACK
6
CONTINUOUS
10
165.5185620000000029
20
-129.0736729999999852
11
165.4380589999999813
21
-129.2952300000000037
0
LINE
8
BLACK
6
CONTINUOUS
10
165.4380589999999813
20
-129.2952300000000037
11
165.3440259999999853
21
-129.5551749999999913
0
LINE
8
BLACK
6
CONTINUOUS
10
165.3440259999999853
20
-129.5551749999999913
11
165.302441999999985
21
-129.6703520000000083
0
LINE
8
BLACK
6
CONTINUOUS
10
165.302441999999985
20
-129.6703520000000083
11
164.806147999999979
21
-131.0454639999999813
0
LINE
8
BLACK
6
CONTINUOUS
10
164.806147999999979
20
-131.0454639999999813
11
164.0406849999999963
21
-131.0513719999999864
0
LINE
8
BLACK
6
CONTINUOUS
10
164.0406849999999963
20
-131.0513719999999864
11
163.8597929999999963
21
-131.0522799999999961
0
LINE
8
BLACK
6
CONTINUOUS
10
163.8597929999999963
20
-131.0522799999999961
11
163.6935450000000003
21
-131.0521789999999953
0
LINE
8
BLACK
6
CONTINUOUS
10
163.6935450000000003
20
-131.0521789999999953
11
163.5471839999999872
21
-131.0511439999999936
0
LINE
8
BLACK
6
CONTINUOUS
10
163.5471839999999872
20
-131.0511439999999936
11
163.4259519999999952
21
-131.0492509999999982
0
LINE
8
BLACK
6
CONTINUOUS
10
163.4259519999999952
20
-131.0492509999999982
11
163.3350920000000031
21
-131.0465759999999875
0
LINE
8
BLACK
6
CONTINUOUS
10
163.3350920000000031
20
-131.0465759999999875
11
163.2798469999999895
21
-131.0431939999999997
0
LINE
8
BLACK
6
CONTINUOUS
10
163.2798469999999895
20
-131.0431939999999997
11
163.2648679999999786
21
-131.0401430000000005
0
LINE
8
BLACK
6
CONTINUOUS
10
163.2648679999999786
20
-131.0401430000000005
11
163.2551650000000052
21
-131.0172069999999849
0
LINE
8
BLACK
6
CONTINUOUS
10
163.2551650000000052
20
-131.0172069999999849
11
163.2299809999999809
21
-130.9555679999999995
0
LINE
8
BLACK
6
CONTINUOUS
10
163.2299809999999809
20
-130.9555679999999995
11
163.1905249999999796
21
-130.858224000000007
0
LINE
8
BLACK
6
CONTINUOUS
10
163.1905249999999796
20
-130.858224000000007
11
163.1380010000000027
21
-130.7281720000000007
0
LINE
8
BLACK
6
CONTINUOUS
10
163.1380010000000027
20
-130.7281720000000007
11
163.073617999999982
21
-130.5684100000000001
0
LINE
8
BLACK
6
CONTINUOUS
10
163.073617999999982
20
-130.5684100000000001
11
162.998580000000004
21
-130.3819359999999961
0
LINE
8
BLACK
6
CONTINUOUS
10
162.998580000000004
20
-130.3819359999999961
11
162.9140950000000032
21
-130.1717490000000055
0
LINE
8
BLACK
6
CONTINUOUS
10
162.9140950000000032
20
-130.1717490000000055
11
162.8213680000000068
21
-129.9408459999999934
0
LINE
8
BLACK
6
CONTINUOUS
10
162.8213680000000068
20
-129.9408459999999934
11
162.7216070000000059
21
-129.6922260000000051
0
LINE
8
BLACK
6
CONTINUOUS
10
162.7216070000000059
20
-129.6922260000000051
11
162.6160179999999968
21
-129.4288850000000082
0
LINE
8
BLACK
6
CONTINUOUS
10
162.6160179999999968
20
-129.4288850000000082
11
162.5123759999999891
21
-129.170220999999998
0
LINE
8
BLACK
6
CONTINUOUS
10
162.5123759999999891
20
-129.170220999999998
11
162.4016879999999787
21
-128.8939279999999883
0
LINE
8
BLACK
6
CONTINUOUS
10
162.4016879999999787
20
-128.8939279999999883
11
162.2952049999999815
21
-128.6282180000000039
0
LINE
8
BLACK
6
CONTINUOUS
10
162.2952049999999815
20
-128.6282180000000039
11
162.1941879999999969
21
-128.3762329999999849
0
LINE
8
BLACK
6
CONTINUOUS
10
162.1941879999999969
20
-128.3762329999999849
11
162.0998989999999935
21
-128.1411180000000058
0
LINE
8
BLACK
6
CONTINUOUS
10
162.0998989999999935
20
-128.1411180000000058
11
162.0136009999999942
21
-127.9260169999999874
0
LINE
8
BLACK
6
CONTINUOUS
10
162.0136009999999942
20
-127.9260169999999874
11
161.9365549999999985
21
-127.7340729999999951
0
LINE
8
BLACK
6
CONTINUOUS
10
161.9365549999999985
20
-127.7340729999999951
11
161.8700230000000033
21
-127.5684309999999897
0
LINE
8
BLACK
6
CONTINUOUS
10
161.8700230000000033
20
-127.5684309999999897
11
161.8152670000000057
21
-127.432233999999994
0
LINE
8
BLACK
6
CONTINUOUS
10
161.8152670000000057
20
-127.432233999999994
11
161.7735490000000027
21
-127.3286269999999973
0
LINE
8
BLACK
6
CONTINUOUS
10
161.7735490000000027
20
-127.3286269999999973
11
161.7461309999999912
21
-127.260752999999994
0
LINE
8
BLACK
6
CONTINUOUS
10
161.7461309999999912
20
-127.260752999999994
11
161.7347389999999905
21
-127.2328509999999966
0
LINE
8
BLACK
6
CONTINUOUS
10
161.7347389999999905
20
-127.2328509999999966
11
161.6992400000000032
21
-127.148264999999995
0
LINE
8
BLACK
6
CONTINUOUS
10
161.6992400000000032
20
-127.148264999999995
11
162.2981049999999925
21
-127.1542479999999955
0
LINE
8
BLACK
6
CONTINUOUS
10
127.8559409999999872
20
-125.8127499999999941
11
127.8559409999999872
21
-126.1833069999999992
0
LINE
8
BLACK
6
CONTINUOUS
10
127.8559409999999872
20
-126.1833069999999992
11
127.5639869999999974
21
-126.1833069999999992
0
LINE
8
BLACK
6
CONTINUOUS
10
127.5639869999999974
20
-126.1833069999999992
11
127.2720329999999933
21
-126.1833069999999992
0
LINE
8
BLACK
6
CONTINUOUS
10
127.2720329999999933
20
-126.1833069999999992
11
127.2720329999999933
21
-125.8127499999999941
0
LINE
8
BLACK
6
CONTINUOUS
10
127.2720329999999933
20
-125.8127499999999941
11
127.2720329999999933
21
-125.442192999999989
0
LINE
8
BLACK
6
CONTINUOUS
10
127.2720329999999933
20
-125.442192999999989
11
127.5639869999999974
21
-125.442192999999989
0
LINE
8
BLACK
6
CONTINUOUS
10
127.5639869999999974
20
-125.442192999999989
11
127.8559409999999872
21
-125.442192999999989
0
LINE
8
BLACK
6
CONTINUOUS
10
127.8559409999999872
20
-125.442192999999989
11
127.8559409999999872
21
-125.8127499999999941
  0
ENDSEC
  0
EOF
