%TF.GenerationSoftware,KiCad,Pcbnew,9.0.6-9.0.6~ubuntu24.04.1*%
%TF.CreationDate,2025-12-08T22:33:50+01:00*%
%TF.ProjectId,7_seg_led_tht_3mm,375f7365-675f-46c6-9564-5f7468745f33,rev?*%
%TF.SameCoordinates,Original*%
%TF.FileFunction,Legend,Bot*%
%TF.FilePolarity,Positive*%
%FSLAX46Y46*%
G04 Gerber Fmt 4.6, Leading zero omitted, Abs format (unit mm)*
G04 Created by KiCad (PCBNEW 9.0.6-9.0.6~ubuntu24.04.1) date 2025-12-08 22:33:50*
%MOMM*%
%LPD*%
G01*
G04 APERTURE LIST*
G04 Aperture macros list*
%AMRoundRect*
0 Rectangle with rounded corners*
0 $1 Rounding radius*
0 $2 $3 $4 $5 $6 $7 $8 $9 X,Y pos of 4 corners*
0 Add a 4 corners polygon primitive as box body*
4,1,4,$2,$3,$4,$5,$6,$7,$8,$9,$2,$3,0*
0 Add four circle primitives for the rounded corners*
1,1,$1+$1,$2,$3*
1,1,$1+$1,$4,$5*
1,1,$1+$1,$6,$7*
1,1,$1+$1,$8,$9*
0 Add four rect primitives between the rounded corners*
20,1,$1+$1,$2,$3,$4,$5,0*
20,1,$1+$1,$4,$5,$6,$7,0*
20,1,$1+$1,$6,$7,$8,$9,0*
20,1,$1+$1,$8,$9,$2,$3,0*%
%AMFreePoly0*
4,1,23,0.500000,-0.750000,0.000000,-0.750000,0.000000,-0.745722,-0.065263,-0.745722,-0.191342,-0.711940,-0.304381,-0.646677,-0.396677,-0.554381,-0.461940,-0.441342,-0.495722,-0.315263,-0.495722,-0.250000,-0.500000,-0.250000,-0.500000,0.250000,-0.495722,0.250000,-0.495722,0.315263,-0.461940,0.441342,-0.396677,0.554381,-0.304381,0.646677,-0.191342,0.711940,-0.065263,0.745722,0.000000,0.745722,
0.000000,0.750000,0.500000,0.750000,0.500000,-0.750000,0.500000,-0.750000,$1*%
%AMFreePoly1*
4,1,23,0.000000,0.745722,0.065263,0.745722,0.191342,0.711940,0.304381,0.646677,0.396677,0.554381,0.461940,0.441342,0.495722,0.315263,0.495722,0.250000,0.500000,0.250000,0.500000,-0.250000,0.495722,-0.250000,0.495722,-0.315263,0.461940,-0.441342,0.396677,-0.554381,0.304381,-0.646677,0.191342,-0.711940,0.065263,-0.745722,0.000000,-0.745722,0.000000,-0.750000,-0.500000,-0.750000,
-0.500000,0.750000,0.000000,0.750000,0.000000,0.745722,0.000000,0.745722,$1*%
G04 Aperture macros list end*
%ADD10C,0.150000*%
%ADD11C,0.120000*%
%ADD12RoundRect,0.250000X0.262500X0.450000X-0.262500X0.450000X-0.262500X-0.450000X0.262500X-0.450000X0*%
%ADD13R,1.800000X1.800000*%
%ADD14C,1.800000*%
%ADD15FreePoly0,90.000000*%
%ADD16FreePoly1,90.000000*%
%ADD17RoundRect,0.250000X-0.262500X-0.450000X0.262500X-0.450000X0.262500X0.450000X-0.262500X0.450000X0*%
%ADD18FreePoly1,270.000000*%
%ADD19FreePoly0,270.000000*%
%ADD20RoundRect,0.250000X-0.450000X0.262500X-0.450000X-0.262500X0.450000X-0.262500X0.450000X0.262500X0*%
%ADD21RoundRect,0.200000X0.200000X0.275000X-0.200000X0.275000X-0.200000X-0.275000X0.200000X-0.275000X0*%
%ADD22RoundRect,0.150000X0.150000X-0.587500X0.150000X0.587500X-0.150000X0.587500X-0.150000X-0.587500X0*%
%ADD23RoundRect,0.150000X-0.587500X-0.150000X0.587500X-0.150000X0.587500X0.150000X-0.587500X0.150000X0*%
%ADD24RoundRect,0.150000X0.150000X-0.725000X0.150000X0.725000X-0.150000X0.725000X-0.150000X-0.725000X0*%
%ADD25RoundRect,0.250000X0.450000X-0.262500X0.450000X0.262500X-0.450000X0.262500X-0.450000X-0.262500X0*%
%ADD26FreePoly1,0.000000*%
%ADD27FreePoly0,0.000000*%
%ADD28RoundRect,0.200000X-0.200000X-0.275000X0.200000X-0.275000X0.200000X0.275000X-0.200000X0.275000X0*%
%ADD29FreePoly1,180.000000*%
%ADD30FreePoly0,180.000000*%
%ADD31RoundRect,0.200000X0.275000X-0.200000X0.275000X0.200000X-0.275000X0.200000X-0.275000X-0.200000X0*%
%ADD32RoundRect,0.225000X0.225000X0.250000X-0.225000X0.250000X-0.225000X-0.250000X0.225000X-0.250000X0*%
%ADD33RoundRect,0.150000X0.587500X0.150000X-0.587500X0.150000X-0.587500X-0.150000X0.587500X-0.150000X0*%
%ADD34RoundRect,0.150000X-0.150000X0.587500X-0.150000X-0.587500X0.150000X-0.587500X0.150000X0.587500X0*%
%ADD35RoundRect,0.200000X-0.275000X0.200000X-0.275000X-0.200000X0.275000X-0.200000X0.275000X0.200000X0*%
G04 APERTURE END LIST*
D10*
X224642857Y-81054819D02*
X224976190Y-80578628D01*
X225214285Y-81054819D02*
X225214285Y-80054819D01*
X225214285Y-80054819D02*
X224833333Y-80054819D01*
X224833333Y-80054819D02*
X224738095Y-80102438D01*
X224738095Y-80102438D02*
X224690476Y-80150057D01*
X224690476Y-80150057D02*
X224642857Y-80245295D01*
X224642857Y-80245295D02*
X224642857Y-80388152D01*
X224642857Y-80388152D02*
X224690476Y-80483390D01*
X224690476Y-80483390D02*
X224738095Y-80531009D01*
X224738095Y-80531009D02*
X224833333Y-80578628D01*
X224833333Y-80578628D02*
X225214285Y-80578628D01*
X224261904Y-80150057D02*
X224214285Y-80102438D01*
X224214285Y-80102438D02*
X224119047Y-80054819D01*
X224119047Y-80054819D02*
X223880952Y-80054819D01*
X223880952Y-80054819D02*
X223785714Y-80102438D01*
X223785714Y-80102438D02*
X223738095Y-80150057D01*
X223738095Y-80150057D02*
X223690476Y-80245295D01*
X223690476Y-80245295D02*
X223690476Y-80340533D01*
X223690476Y-80340533D02*
X223738095Y-80483390D01*
X223738095Y-80483390D02*
X224309523Y-81054819D01*
X224309523Y-81054819D02*
X223690476Y-81054819D01*
X222833333Y-80388152D02*
X222833333Y-81054819D01*
X223071428Y-80007200D02*
X223309523Y-80721485D01*
X223309523Y-80721485D02*
X222690476Y-80721485D01*
X224642857Y-78104819D02*
X224976190Y-77628628D01*
X225214285Y-78104819D02*
X225214285Y-77104819D01*
X225214285Y-77104819D02*
X224833333Y-77104819D01*
X224833333Y-77104819D02*
X224738095Y-77152438D01*
X224738095Y-77152438D02*
X224690476Y-77200057D01*
X224690476Y-77200057D02*
X224642857Y-77295295D01*
X224642857Y-77295295D02*
X224642857Y-77438152D01*
X224642857Y-77438152D02*
X224690476Y-77533390D01*
X224690476Y-77533390D02*
X224738095Y-77581009D01*
X224738095Y-77581009D02*
X224833333Y-77628628D01*
X224833333Y-77628628D02*
X225214285Y-77628628D01*
X224261904Y-77200057D02*
X224214285Y-77152438D01*
X224214285Y-77152438D02*
X224119047Y-77104819D01*
X224119047Y-77104819D02*
X223880952Y-77104819D01*
X223880952Y-77104819D02*
X223785714Y-77152438D01*
X223785714Y-77152438D02*
X223738095Y-77200057D01*
X223738095Y-77200057D02*
X223690476Y-77295295D01*
X223690476Y-77295295D02*
X223690476Y-77390533D01*
X223690476Y-77390533D02*
X223738095Y-77533390D01*
X223738095Y-77533390D02*
X224309523Y-78104819D01*
X224309523Y-78104819D02*
X223690476Y-78104819D01*
X223357142Y-77104819D02*
X222738095Y-77104819D01*
X222738095Y-77104819D02*
X223071428Y-77485771D01*
X223071428Y-77485771D02*
X222928571Y-77485771D01*
X222928571Y-77485771D02*
X222833333Y-77533390D01*
X222833333Y-77533390D02*
X222785714Y-77581009D01*
X222785714Y-77581009D02*
X222738095Y-77676247D01*
X222738095Y-77676247D02*
X222738095Y-77914342D01*
X222738095Y-77914342D02*
X222785714Y-78009580D01*
X222785714Y-78009580D02*
X222833333Y-78057200D01*
X222833333Y-78057200D02*
X222928571Y-78104819D01*
X222928571Y-78104819D02*
X223214285Y-78104819D01*
X223214285Y-78104819D02*
X223309523Y-78057200D01*
X223309523Y-78057200D02*
X223357142Y-78009580D01*
X198254819Y-111916666D02*
X198969104Y-111916666D01*
X198969104Y-111916666D02*
X199111961Y-111869047D01*
X199111961Y-111869047D02*
X199207200Y-111773809D01*
X199207200Y-111773809D02*
X199254819Y-111630952D01*
X199254819Y-111630952D02*
X199254819Y-111535714D01*
X199254819Y-112392857D02*
X198254819Y-112392857D01*
X198254819Y-112392857D02*
X198254819Y-112773809D01*
X198254819Y-112773809D02*
X198302438Y-112869047D01*
X198302438Y-112869047D02*
X198350057Y-112916666D01*
X198350057Y-112916666D02*
X198445295Y-112964285D01*
X198445295Y-112964285D02*
X198588152Y-112964285D01*
X198588152Y-112964285D02*
X198683390Y-112916666D01*
X198683390Y-112916666D02*
X198731009Y-112869047D01*
X198731009Y-112869047D02*
X198778628Y-112773809D01*
X198778628Y-112773809D02*
X198778628Y-112392857D01*
X198588152Y-113821428D02*
X199254819Y-113821428D01*
X198207200Y-113583333D02*
X198921485Y-113345238D01*
X198921485Y-113345238D02*
X198921485Y-113964285D01*
X205392857Y-102854819D02*
X205726190Y-102378628D01*
X205964285Y-102854819D02*
X205964285Y-101854819D01*
X205964285Y-101854819D02*
X205583333Y-101854819D01*
X205583333Y-101854819D02*
X205488095Y-101902438D01*
X205488095Y-101902438D02*
X205440476Y-101950057D01*
X205440476Y-101950057D02*
X205392857Y-102045295D01*
X205392857Y-102045295D02*
X205392857Y-102188152D01*
X205392857Y-102188152D02*
X205440476Y-102283390D01*
X205440476Y-102283390D02*
X205488095Y-102331009D01*
X205488095Y-102331009D02*
X205583333Y-102378628D01*
X205583333Y-102378628D02*
X205964285Y-102378628D01*
X205011904Y-101950057D02*
X204964285Y-101902438D01*
X204964285Y-101902438D02*
X204869047Y-101854819D01*
X204869047Y-101854819D02*
X204630952Y-101854819D01*
X204630952Y-101854819D02*
X204535714Y-101902438D01*
X204535714Y-101902438D02*
X204488095Y-101950057D01*
X204488095Y-101950057D02*
X204440476Y-102045295D01*
X204440476Y-102045295D02*
X204440476Y-102140533D01*
X204440476Y-102140533D02*
X204488095Y-102283390D01*
X204488095Y-102283390D02*
X205059523Y-102854819D01*
X205059523Y-102854819D02*
X204440476Y-102854819D01*
X203821428Y-101854819D02*
X203726190Y-101854819D01*
X203726190Y-101854819D02*
X203630952Y-101902438D01*
X203630952Y-101902438D02*
X203583333Y-101950057D01*
X203583333Y-101950057D02*
X203535714Y-102045295D01*
X203535714Y-102045295D02*
X203488095Y-102235771D01*
X203488095Y-102235771D02*
X203488095Y-102473866D01*
X203488095Y-102473866D02*
X203535714Y-102664342D01*
X203535714Y-102664342D02*
X203583333Y-102759580D01*
X203583333Y-102759580D02*
X203630952Y-102807200D01*
X203630952Y-102807200D02*
X203726190Y-102854819D01*
X203726190Y-102854819D02*
X203821428Y-102854819D01*
X203821428Y-102854819D02*
X203916666Y-102807200D01*
X203916666Y-102807200D02*
X203964285Y-102759580D01*
X203964285Y-102759580D02*
X204011904Y-102664342D01*
X204011904Y-102664342D02*
X204059523Y-102473866D01*
X204059523Y-102473866D02*
X204059523Y-102235771D01*
X204059523Y-102235771D02*
X204011904Y-102045295D01*
X204011904Y-102045295D02*
X203964285Y-101950057D01*
X203964285Y-101950057D02*
X203916666Y-101902438D01*
X203916666Y-101902438D02*
X203821428Y-101854819D01*
X189892857Y-102054819D02*
X190226190Y-101578628D01*
X190464285Y-102054819D02*
X190464285Y-101054819D01*
X190464285Y-101054819D02*
X190083333Y-101054819D01*
X190083333Y-101054819D02*
X189988095Y-101102438D01*
X189988095Y-101102438D02*
X189940476Y-101150057D01*
X189940476Y-101150057D02*
X189892857Y-101245295D01*
X189892857Y-101245295D02*
X189892857Y-101388152D01*
X189892857Y-101388152D02*
X189940476Y-101483390D01*
X189940476Y-101483390D02*
X189988095Y-101531009D01*
X189988095Y-101531009D02*
X190083333Y-101578628D01*
X190083333Y-101578628D02*
X190464285Y-101578628D01*
X188940476Y-102054819D02*
X189511904Y-102054819D01*
X189226190Y-102054819D02*
X189226190Y-101054819D01*
X189226190Y-101054819D02*
X189321428Y-101197676D01*
X189321428Y-101197676D02*
X189416666Y-101292914D01*
X189416666Y-101292914D02*
X189511904Y-101340533D01*
X188559523Y-101150057D02*
X188511904Y-101102438D01*
X188511904Y-101102438D02*
X188416666Y-101054819D01*
X188416666Y-101054819D02*
X188178571Y-101054819D01*
X188178571Y-101054819D02*
X188083333Y-101102438D01*
X188083333Y-101102438D02*
X188035714Y-101150057D01*
X188035714Y-101150057D02*
X187988095Y-101245295D01*
X187988095Y-101245295D02*
X187988095Y-101340533D01*
X187988095Y-101340533D02*
X188035714Y-101483390D01*
X188035714Y-101483390D02*
X188607142Y-102054819D01*
X188607142Y-102054819D02*
X187988095Y-102054819D01*
X194654819Y-96416666D02*
X195369104Y-96416666D01*
X195369104Y-96416666D02*
X195511961Y-96369047D01*
X195511961Y-96369047D02*
X195607200Y-96273809D01*
X195607200Y-96273809D02*
X195654819Y-96130952D01*
X195654819Y-96130952D02*
X195654819Y-96035714D01*
X195654819Y-96892857D02*
X194654819Y-96892857D01*
X194654819Y-96892857D02*
X194654819Y-97273809D01*
X194654819Y-97273809D02*
X194702438Y-97369047D01*
X194702438Y-97369047D02*
X194750057Y-97416666D01*
X194750057Y-97416666D02*
X194845295Y-97464285D01*
X194845295Y-97464285D02*
X194988152Y-97464285D01*
X194988152Y-97464285D02*
X195083390Y-97416666D01*
X195083390Y-97416666D02*
X195131009Y-97369047D01*
X195131009Y-97369047D02*
X195178628Y-97273809D01*
X195178628Y-97273809D02*
X195178628Y-96892857D01*
X194654819Y-97797619D02*
X194654819Y-98464285D01*
X194654819Y-98464285D02*
X195654819Y-98035714D01*
X200054819Y-112107142D02*
X199578628Y-111773809D01*
X200054819Y-111535714D02*
X199054819Y-111535714D01*
X199054819Y-111535714D02*
X199054819Y-111916666D01*
X199054819Y-111916666D02*
X199102438Y-112011904D01*
X199102438Y-112011904D02*
X199150057Y-112059523D01*
X199150057Y-112059523D02*
X199245295Y-112107142D01*
X199245295Y-112107142D02*
X199388152Y-112107142D01*
X199388152Y-112107142D02*
X199483390Y-112059523D01*
X199483390Y-112059523D02*
X199531009Y-112011904D01*
X199531009Y-112011904D02*
X199578628Y-111916666D01*
X199578628Y-111916666D02*
X199578628Y-111535714D01*
X200054819Y-113059523D02*
X200054819Y-112488095D01*
X200054819Y-112773809D02*
X199054819Y-112773809D01*
X199054819Y-112773809D02*
X199197676Y-112678571D01*
X199197676Y-112678571D02*
X199292914Y-112583333D01*
X199292914Y-112583333D02*
X199340533Y-112488095D01*
X199483390Y-113630952D02*
X199435771Y-113535714D01*
X199435771Y-113535714D02*
X199388152Y-113488095D01*
X199388152Y-113488095D02*
X199292914Y-113440476D01*
X199292914Y-113440476D02*
X199245295Y-113440476D01*
X199245295Y-113440476D02*
X199150057Y-113488095D01*
X199150057Y-113488095D02*
X199102438Y-113535714D01*
X199102438Y-113535714D02*
X199054819Y-113630952D01*
X199054819Y-113630952D02*
X199054819Y-113821428D01*
X199054819Y-113821428D02*
X199102438Y-113916666D01*
X199102438Y-113916666D02*
X199150057Y-113964285D01*
X199150057Y-113964285D02*
X199245295Y-114011904D01*
X199245295Y-114011904D02*
X199292914Y-114011904D01*
X199292914Y-114011904D02*
X199388152Y-113964285D01*
X199388152Y-113964285D02*
X199435771Y-113916666D01*
X199435771Y-113916666D02*
X199483390Y-113821428D01*
X199483390Y-113821428D02*
X199483390Y-113630952D01*
X199483390Y-113630952D02*
X199531009Y-113535714D01*
X199531009Y-113535714D02*
X199578628Y-113488095D01*
X199578628Y-113488095D02*
X199673866Y-113440476D01*
X199673866Y-113440476D02*
X199864342Y-113440476D01*
X199864342Y-113440476D02*
X199959580Y-113488095D01*
X199959580Y-113488095D02*
X200007200Y-113535714D01*
X200007200Y-113535714D02*
X200054819Y-113630952D01*
X200054819Y-113630952D02*
X200054819Y-113821428D01*
X200054819Y-113821428D02*
X200007200Y-113916666D01*
X200007200Y-113916666D02*
X199959580Y-113964285D01*
X199959580Y-113964285D02*
X199864342Y-114011904D01*
X199864342Y-114011904D02*
X199673866Y-114011904D01*
X199673866Y-114011904D02*
X199578628Y-113964285D01*
X199578628Y-113964285D02*
X199531009Y-113916666D01*
X199531009Y-113916666D02*
X199483390Y-113821428D01*
X189892857Y-84054819D02*
X190226190Y-83578628D01*
X190464285Y-84054819D02*
X190464285Y-83054819D01*
X190464285Y-83054819D02*
X190083333Y-83054819D01*
X190083333Y-83054819D02*
X189988095Y-83102438D01*
X189988095Y-83102438D02*
X189940476Y-83150057D01*
X189940476Y-83150057D02*
X189892857Y-83245295D01*
X189892857Y-83245295D02*
X189892857Y-83388152D01*
X189892857Y-83388152D02*
X189940476Y-83483390D01*
X189940476Y-83483390D02*
X189988095Y-83531009D01*
X189988095Y-83531009D02*
X190083333Y-83578628D01*
X190083333Y-83578628D02*
X190464285Y-83578628D01*
X188940476Y-84054819D02*
X189511904Y-84054819D01*
X189226190Y-84054819D02*
X189226190Y-83054819D01*
X189226190Y-83054819D02*
X189321428Y-83197676D01*
X189321428Y-83197676D02*
X189416666Y-83292914D01*
X189416666Y-83292914D02*
X189511904Y-83340533D01*
X187988095Y-84054819D02*
X188559523Y-84054819D01*
X188273809Y-84054819D02*
X188273809Y-83054819D01*
X188273809Y-83054819D02*
X188369047Y-83197676D01*
X188369047Y-83197676D02*
X188464285Y-83292914D01*
X188464285Y-83292914D02*
X188559523Y-83340533D01*
X188416666Y-110274819D02*
X188749999Y-109798628D01*
X188988094Y-110274819D02*
X188988094Y-109274819D01*
X188988094Y-109274819D02*
X188607142Y-109274819D01*
X188607142Y-109274819D02*
X188511904Y-109322438D01*
X188511904Y-109322438D02*
X188464285Y-109370057D01*
X188464285Y-109370057D02*
X188416666Y-109465295D01*
X188416666Y-109465295D02*
X188416666Y-109608152D01*
X188416666Y-109608152D02*
X188464285Y-109703390D01*
X188464285Y-109703390D02*
X188511904Y-109751009D01*
X188511904Y-109751009D02*
X188607142Y-109798628D01*
X188607142Y-109798628D02*
X188988094Y-109798628D01*
X187511904Y-109274819D02*
X187988094Y-109274819D01*
X187988094Y-109274819D02*
X188035713Y-109751009D01*
X188035713Y-109751009D02*
X187988094Y-109703390D01*
X187988094Y-109703390D02*
X187892856Y-109655771D01*
X187892856Y-109655771D02*
X187654761Y-109655771D01*
X187654761Y-109655771D02*
X187559523Y-109703390D01*
X187559523Y-109703390D02*
X187511904Y-109751009D01*
X187511904Y-109751009D02*
X187464285Y-109846247D01*
X187464285Y-109846247D02*
X187464285Y-110084342D01*
X187464285Y-110084342D02*
X187511904Y-110179580D01*
X187511904Y-110179580D02*
X187559523Y-110227200D01*
X187559523Y-110227200D02*
X187654761Y-110274819D01*
X187654761Y-110274819D02*
X187892856Y-110274819D01*
X187892856Y-110274819D02*
X187988094Y-110227200D01*
X187988094Y-110227200D02*
X188035713Y-110179580D01*
X188200057Y-69904761D02*
X188152438Y-69809523D01*
X188152438Y-69809523D02*
X188057200Y-69714285D01*
X188057200Y-69714285D02*
X187914342Y-69571428D01*
X187914342Y-69571428D02*
X187866723Y-69476190D01*
X187866723Y-69476190D02*
X187866723Y-69380952D01*
X188104819Y-69428571D02*
X188057200Y-69333333D01*
X188057200Y-69333333D02*
X187961961Y-69238095D01*
X187961961Y-69238095D02*
X187771485Y-69190476D01*
X187771485Y-69190476D02*
X187438152Y-69190476D01*
X187438152Y-69190476D02*
X187247676Y-69238095D01*
X187247676Y-69238095D02*
X187152438Y-69333333D01*
X187152438Y-69333333D02*
X187104819Y-69428571D01*
X187104819Y-69428571D02*
X187104819Y-69619047D01*
X187104819Y-69619047D02*
X187152438Y-69714285D01*
X187152438Y-69714285D02*
X187247676Y-69809523D01*
X187247676Y-69809523D02*
X187438152Y-69857142D01*
X187438152Y-69857142D02*
X187771485Y-69857142D01*
X187771485Y-69857142D02*
X187961961Y-69809523D01*
X187961961Y-69809523D02*
X188057200Y-69714285D01*
X188057200Y-69714285D02*
X188104819Y-69619047D01*
X188104819Y-69619047D02*
X188104819Y-69428571D01*
X187533390Y-70428571D02*
X187485771Y-70333333D01*
X187485771Y-70333333D02*
X187438152Y-70285714D01*
X187438152Y-70285714D02*
X187342914Y-70238095D01*
X187342914Y-70238095D02*
X187295295Y-70238095D01*
X187295295Y-70238095D02*
X187200057Y-70285714D01*
X187200057Y-70285714D02*
X187152438Y-70333333D01*
X187152438Y-70333333D02*
X187104819Y-70428571D01*
X187104819Y-70428571D02*
X187104819Y-70619047D01*
X187104819Y-70619047D02*
X187152438Y-70714285D01*
X187152438Y-70714285D02*
X187200057Y-70761904D01*
X187200057Y-70761904D02*
X187295295Y-70809523D01*
X187295295Y-70809523D02*
X187342914Y-70809523D01*
X187342914Y-70809523D02*
X187438152Y-70761904D01*
X187438152Y-70761904D02*
X187485771Y-70714285D01*
X187485771Y-70714285D02*
X187533390Y-70619047D01*
X187533390Y-70619047D02*
X187533390Y-70428571D01*
X187533390Y-70428571D02*
X187581009Y-70333333D01*
X187581009Y-70333333D02*
X187628628Y-70285714D01*
X187628628Y-70285714D02*
X187723866Y-70238095D01*
X187723866Y-70238095D02*
X187914342Y-70238095D01*
X187914342Y-70238095D02*
X188009580Y-70285714D01*
X188009580Y-70285714D02*
X188057200Y-70333333D01*
X188057200Y-70333333D02*
X188104819Y-70428571D01*
X188104819Y-70428571D02*
X188104819Y-70619047D01*
X188104819Y-70619047D02*
X188057200Y-70714285D01*
X188057200Y-70714285D02*
X188009580Y-70761904D01*
X188009580Y-70761904D02*
X187914342Y-70809523D01*
X187914342Y-70809523D02*
X187723866Y-70809523D01*
X187723866Y-70809523D02*
X187628628Y-70761904D01*
X187628628Y-70761904D02*
X187581009Y-70714285D01*
X187581009Y-70714285D02*
X187533390Y-70619047D01*
X193845238Y-115700057D02*
X193940476Y-115652438D01*
X193940476Y-115652438D02*
X194035714Y-115557200D01*
X194035714Y-115557200D02*
X194178571Y-115414342D01*
X194178571Y-115414342D02*
X194273809Y-115366723D01*
X194273809Y-115366723D02*
X194369047Y-115366723D01*
X194321428Y-115604819D02*
X194416666Y-115557200D01*
X194416666Y-115557200D02*
X194511904Y-115461961D01*
X194511904Y-115461961D02*
X194559523Y-115271485D01*
X194559523Y-115271485D02*
X194559523Y-114938152D01*
X194559523Y-114938152D02*
X194511904Y-114747676D01*
X194511904Y-114747676D02*
X194416666Y-114652438D01*
X194416666Y-114652438D02*
X194321428Y-114604819D01*
X194321428Y-114604819D02*
X194130952Y-114604819D01*
X194130952Y-114604819D02*
X194035714Y-114652438D01*
X194035714Y-114652438D02*
X193940476Y-114747676D01*
X193940476Y-114747676D02*
X193892857Y-114938152D01*
X193892857Y-114938152D02*
X193892857Y-115271485D01*
X193892857Y-115271485D02*
X193940476Y-115461961D01*
X193940476Y-115461961D02*
X194035714Y-115557200D01*
X194035714Y-115557200D02*
X194130952Y-115604819D01*
X194130952Y-115604819D02*
X194321428Y-115604819D01*
X193035714Y-114938152D02*
X193035714Y-115604819D01*
X193273809Y-114557200D02*
X193511904Y-115271485D01*
X193511904Y-115271485D02*
X192892857Y-115271485D01*
X205392857Y-104854819D02*
X205726190Y-104378628D01*
X205964285Y-104854819D02*
X205964285Y-103854819D01*
X205964285Y-103854819D02*
X205583333Y-103854819D01*
X205583333Y-103854819D02*
X205488095Y-103902438D01*
X205488095Y-103902438D02*
X205440476Y-103950057D01*
X205440476Y-103950057D02*
X205392857Y-104045295D01*
X205392857Y-104045295D02*
X205392857Y-104188152D01*
X205392857Y-104188152D02*
X205440476Y-104283390D01*
X205440476Y-104283390D02*
X205488095Y-104331009D01*
X205488095Y-104331009D02*
X205583333Y-104378628D01*
X205583333Y-104378628D02*
X205964285Y-104378628D01*
X205011904Y-103950057D02*
X204964285Y-103902438D01*
X204964285Y-103902438D02*
X204869047Y-103854819D01*
X204869047Y-103854819D02*
X204630952Y-103854819D01*
X204630952Y-103854819D02*
X204535714Y-103902438D01*
X204535714Y-103902438D02*
X204488095Y-103950057D01*
X204488095Y-103950057D02*
X204440476Y-104045295D01*
X204440476Y-104045295D02*
X204440476Y-104140533D01*
X204440476Y-104140533D02*
X204488095Y-104283390D01*
X204488095Y-104283390D02*
X205059523Y-104854819D01*
X205059523Y-104854819D02*
X204440476Y-104854819D01*
X204059523Y-103950057D02*
X204011904Y-103902438D01*
X204011904Y-103902438D02*
X203916666Y-103854819D01*
X203916666Y-103854819D02*
X203678571Y-103854819D01*
X203678571Y-103854819D02*
X203583333Y-103902438D01*
X203583333Y-103902438D02*
X203535714Y-103950057D01*
X203535714Y-103950057D02*
X203488095Y-104045295D01*
X203488095Y-104045295D02*
X203488095Y-104140533D01*
X203488095Y-104140533D02*
X203535714Y-104283390D01*
X203535714Y-104283390D02*
X204107142Y-104854819D01*
X204107142Y-104854819D02*
X203488095Y-104854819D01*
X202354819Y-80238095D02*
X203164342Y-80238095D01*
X203164342Y-80238095D02*
X203259580Y-80285714D01*
X203259580Y-80285714D02*
X203307200Y-80333333D01*
X203307200Y-80333333D02*
X203354819Y-80428571D01*
X203354819Y-80428571D02*
X203354819Y-80619047D01*
X203354819Y-80619047D02*
X203307200Y-80714285D01*
X203307200Y-80714285D02*
X203259580Y-80761904D01*
X203259580Y-80761904D02*
X203164342Y-80809523D01*
X203164342Y-80809523D02*
X202354819Y-80809523D01*
X203354819Y-81809523D02*
X203354819Y-81238095D01*
X203354819Y-81523809D02*
X202354819Y-81523809D01*
X202354819Y-81523809D02*
X202497676Y-81428571D01*
X202497676Y-81428571D02*
X202592914Y-81333333D01*
X202592914Y-81333333D02*
X202640533Y-81238095D01*
X194854819Y-96607142D02*
X194378628Y-96273809D01*
X194854819Y-96035714D02*
X193854819Y-96035714D01*
X193854819Y-96035714D02*
X193854819Y-96416666D01*
X193854819Y-96416666D02*
X193902438Y-96511904D01*
X193902438Y-96511904D02*
X193950057Y-96559523D01*
X193950057Y-96559523D02*
X194045295Y-96607142D01*
X194045295Y-96607142D02*
X194188152Y-96607142D01*
X194188152Y-96607142D02*
X194283390Y-96559523D01*
X194283390Y-96559523D02*
X194331009Y-96511904D01*
X194331009Y-96511904D02*
X194378628Y-96416666D01*
X194378628Y-96416666D02*
X194378628Y-96035714D01*
X194854819Y-97559523D02*
X194854819Y-96988095D01*
X194854819Y-97273809D02*
X193854819Y-97273809D01*
X193854819Y-97273809D02*
X193997676Y-97178571D01*
X193997676Y-97178571D02*
X194092914Y-97083333D01*
X194092914Y-97083333D02*
X194140533Y-96988095D01*
X193854819Y-98464285D02*
X193854819Y-97988095D01*
X193854819Y-97988095D02*
X194331009Y-97940476D01*
X194331009Y-97940476D02*
X194283390Y-97988095D01*
X194283390Y-97988095D02*
X194235771Y-98083333D01*
X194235771Y-98083333D02*
X194235771Y-98321428D01*
X194235771Y-98321428D02*
X194283390Y-98416666D01*
X194283390Y-98416666D02*
X194331009Y-98464285D01*
X194331009Y-98464285D02*
X194426247Y-98511904D01*
X194426247Y-98511904D02*
X194664342Y-98511904D01*
X194664342Y-98511904D02*
X194759580Y-98464285D01*
X194759580Y-98464285D02*
X194807200Y-98416666D01*
X194807200Y-98416666D02*
X194854819Y-98321428D01*
X194854819Y-98321428D02*
X194854819Y-98083333D01*
X194854819Y-98083333D02*
X194807200Y-97988095D01*
X194807200Y-97988095D02*
X194759580Y-97940476D01*
X198054819Y-112107142D02*
X197578628Y-111773809D01*
X198054819Y-111535714D02*
X197054819Y-111535714D01*
X197054819Y-111535714D02*
X197054819Y-111916666D01*
X197054819Y-111916666D02*
X197102438Y-112011904D01*
X197102438Y-112011904D02*
X197150057Y-112059523D01*
X197150057Y-112059523D02*
X197245295Y-112107142D01*
X197245295Y-112107142D02*
X197388152Y-112107142D01*
X197388152Y-112107142D02*
X197483390Y-112059523D01*
X197483390Y-112059523D02*
X197531009Y-112011904D01*
X197531009Y-112011904D02*
X197578628Y-111916666D01*
X197578628Y-111916666D02*
X197578628Y-111535714D01*
X198054819Y-113059523D02*
X198054819Y-112488095D01*
X198054819Y-112773809D02*
X197054819Y-112773809D01*
X197054819Y-112773809D02*
X197197676Y-112678571D01*
X197197676Y-112678571D02*
X197292914Y-112583333D01*
X197292914Y-112583333D02*
X197340533Y-112488095D01*
X197054819Y-113392857D02*
X197054819Y-114059523D01*
X197054819Y-114059523D02*
X198054819Y-113630952D01*
X192200057Y-108154761D02*
X192152438Y-108059523D01*
X192152438Y-108059523D02*
X192057200Y-107964285D01*
X192057200Y-107964285D02*
X191914342Y-107821428D01*
X191914342Y-107821428D02*
X191866723Y-107726190D01*
X191866723Y-107726190D02*
X191866723Y-107630952D01*
X192104819Y-107678571D02*
X192057200Y-107583333D01*
X192057200Y-107583333D02*
X191961961Y-107488095D01*
X191961961Y-107488095D02*
X191771485Y-107440476D01*
X191771485Y-107440476D02*
X191438152Y-107440476D01*
X191438152Y-107440476D02*
X191247676Y-107488095D01*
X191247676Y-107488095D02*
X191152438Y-107583333D01*
X191152438Y-107583333D02*
X191104819Y-107678571D01*
X191104819Y-107678571D02*
X191104819Y-107869047D01*
X191104819Y-107869047D02*
X191152438Y-107964285D01*
X191152438Y-107964285D02*
X191247676Y-108059523D01*
X191247676Y-108059523D02*
X191438152Y-108107142D01*
X191438152Y-108107142D02*
X191771485Y-108107142D01*
X191771485Y-108107142D02*
X191961961Y-108059523D01*
X191961961Y-108059523D02*
X192057200Y-107964285D01*
X192057200Y-107964285D02*
X192104819Y-107869047D01*
X192104819Y-107869047D02*
X192104819Y-107678571D01*
X191104819Y-109011904D02*
X191104819Y-108535714D01*
X191104819Y-108535714D02*
X191581009Y-108488095D01*
X191581009Y-108488095D02*
X191533390Y-108535714D01*
X191533390Y-108535714D02*
X191485771Y-108630952D01*
X191485771Y-108630952D02*
X191485771Y-108869047D01*
X191485771Y-108869047D02*
X191533390Y-108964285D01*
X191533390Y-108964285D02*
X191581009Y-109011904D01*
X191581009Y-109011904D02*
X191676247Y-109059523D01*
X191676247Y-109059523D02*
X191914342Y-109059523D01*
X191914342Y-109059523D02*
X192009580Y-109011904D01*
X192009580Y-109011904D02*
X192057200Y-108964285D01*
X192057200Y-108964285D02*
X192104819Y-108869047D01*
X192104819Y-108869047D02*
X192104819Y-108630952D01*
X192104819Y-108630952D02*
X192057200Y-108535714D01*
X192057200Y-108535714D02*
X192009580Y-108488095D01*
X190083333Y-82254819D02*
X190083333Y-82969104D01*
X190083333Y-82969104D02*
X190130952Y-83111961D01*
X190130952Y-83111961D02*
X190226190Y-83207200D01*
X190226190Y-83207200D02*
X190369047Y-83254819D01*
X190369047Y-83254819D02*
X190464285Y-83254819D01*
X189607142Y-83254819D02*
X189607142Y-82254819D01*
X189607142Y-82254819D02*
X189226190Y-82254819D01*
X189226190Y-82254819D02*
X189130952Y-82302438D01*
X189130952Y-82302438D02*
X189083333Y-82350057D01*
X189083333Y-82350057D02*
X189035714Y-82445295D01*
X189035714Y-82445295D02*
X189035714Y-82588152D01*
X189035714Y-82588152D02*
X189083333Y-82683390D01*
X189083333Y-82683390D02*
X189130952Y-82731009D01*
X189130952Y-82731009D02*
X189226190Y-82778628D01*
X189226190Y-82778628D02*
X189607142Y-82778628D01*
X188178571Y-82254819D02*
X188369047Y-82254819D01*
X188369047Y-82254819D02*
X188464285Y-82302438D01*
X188464285Y-82302438D02*
X188511904Y-82350057D01*
X188511904Y-82350057D02*
X188607142Y-82492914D01*
X188607142Y-82492914D02*
X188654761Y-82683390D01*
X188654761Y-82683390D02*
X188654761Y-83064342D01*
X188654761Y-83064342D02*
X188607142Y-83159580D01*
X188607142Y-83159580D02*
X188559523Y-83207200D01*
X188559523Y-83207200D02*
X188464285Y-83254819D01*
X188464285Y-83254819D02*
X188273809Y-83254819D01*
X188273809Y-83254819D02*
X188178571Y-83207200D01*
X188178571Y-83207200D02*
X188130952Y-83159580D01*
X188130952Y-83159580D02*
X188083333Y-83064342D01*
X188083333Y-83064342D02*
X188083333Y-82826247D01*
X188083333Y-82826247D02*
X188130952Y-82731009D01*
X188130952Y-82731009D02*
X188178571Y-82683390D01*
X188178571Y-82683390D02*
X188273809Y-82635771D01*
X188273809Y-82635771D02*
X188464285Y-82635771D01*
X188464285Y-82635771D02*
X188559523Y-82683390D01*
X188559523Y-82683390D02*
X188607142Y-82731009D01*
X188607142Y-82731009D02*
X188654761Y-82826247D01*
X189416666Y-76634819D02*
X189749999Y-76158628D01*
X189988094Y-76634819D02*
X189988094Y-75634819D01*
X189988094Y-75634819D02*
X189607142Y-75634819D01*
X189607142Y-75634819D02*
X189511904Y-75682438D01*
X189511904Y-75682438D02*
X189464285Y-75730057D01*
X189464285Y-75730057D02*
X189416666Y-75825295D01*
X189416666Y-75825295D02*
X189416666Y-75968152D01*
X189416666Y-75968152D02*
X189464285Y-76063390D01*
X189464285Y-76063390D02*
X189511904Y-76111009D01*
X189511904Y-76111009D02*
X189607142Y-76158628D01*
X189607142Y-76158628D02*
X189988094Y-76158628D01*
X188559523Y-75634819D02*
X188749999Y-75634819D01*
X188749999Y-75634819D02*
X188845237Y-75682438D01*
X188845237Y-75682438D02*
X188892856Y-75730057D01*
X188892856Y-75730057D02*
X188988094Y-75872914D01*
X188988094Y-75872914D02*
X189035713Y-76063390D01*
X189035713Y-76063390D02*
X189035713Y-76444342D01*
X189035713Y-76444342D02*
X188988094Y-76539580D01*
X188988094Y-76539580D02*
X188940475Y-76587200D01*
X188940475Y-76587200D02*
X188845237Y-76634819D01*
X188845237Y-76634819D02*
X188654761Y-76634819D01*
X188654761Y-76634819D02*
X188559523Y-76587200D01*
X188559523Y-76587200D02*
X188511904Y-76539580D01*
X188511904Y-76539580D02*
X188464285Y-76444342D01*
X188464285Y-76444342D02*
X188464285Y-76206247D01*
X188464285Y-76206247D02*
X188511904Y-76111009D01*
X188511904Y-76111009D02*
X188559523Y-76063390D01*
X188559523Y-76063390D02*
X188654761Y-76015771D01*
X188654761Y-76015771D02*
X188845237Y-76015771D01*
X188845237Y-76015771D02*
X188940475Y-76063390D01*
X188940475Y-76063390D02*
X188988094Y-76111009D01*
X188988094Y-76111009D02*
X189035713Y-76206247D01*
X196854819Y-96607142D02*
X196378628Y-96273809D01*
X196854819Y-96035714D02*
X195854819Y-96035714D01*
X195854819Y-96035714D02*
X195854819Y-96416666D01*
X195854819Y-96416666D02*
X195902438Y-96511904D01*
X195902438Y-96511904D02*
X195950057Y-96559523D01*
X195950057Y-96559523D02*
X196045295Y-96607142D01*
X196045295Y-96607142D02*
X196188152Y-96607142D01*
X196188152Y-96607142D02*
X196283390Y-96559523D01*
X196283390Y-96559523D02*
X196331009Y-96511904D01*
X196331009Y-96511904D02*
X196378628Y-96416666D01*
X196378628Y-96416666D02*
X196378628Y-96035714D01*
X196854819Y-97559523D02*
X196854819Y-96988095D01*
X196854819Y-97273809D02*
X195854819Y-97273809D01*
X195854819Y-97273809D02*
X195997676Y-97178571D01*
X195997676Y-97178571D02*
X196092914Y-97083333D01*
X196092914Y-97083333D02*
X196140533Y-96988095D01*
X195854819Y-98416666D02*
X195854819Y-98226190D01*
X195854819Y-98226190D02*
X195902438Y-98130952D01*
X195902438Y-98130952D02*
X195950057Y-98083333D01*
X195950057Y-98083333D02*
X196092914Y-97988095D01*
X196092914Y-97988095D02*
X196283390Y-97940476D01*
X196283390Y-97940476D02*
X196664342Y-97940476D01*
X196664342Y-97940476D02*
X196759580Y-97988095D01*
X196759580Y-97988095D02*
X196807200Y-98035714D01*
X196807200Y-98035714D02*
X196854819Y-98130952D01*
X196854819Y-98130952D02*
X196854819Y-98321428D01*
X196854819Y-98321428D02*
X196807200Y-98416666D01*
X196807200Y-98416666D02*
X196759580Y-98464285D01*
X196759580Y-98464285D02*
X196664342Y-98511904D01*
X196664342Y-98511904D02*
X196426247Y-98511904D01*
X196426247Y-98511904D02*
X196331009Y-98464285D01*
X196331009Y-98464285D02*
X196283390Y-98416666D01*
X196283390Y-98416666D02*
X196235771Y-98321428D01*
X196235771Y-98321428D02*
X196235771Y-98130952D01*
X196235771Y-98130952D02*
X196283390Y-98035714D01*
X196283390Y-98035714D02*
X196331009Y-97988095D01*
X196331009Y-97988095D02*
X196426247Y-97940476D01*
X204916666Y-86274819D02*
X205249999Y-85798628D01*
X205488094Y-86274819D02*
X205488094Y-85274819D01*
X205488094Y-85274819D02*
X205107142Y-85274819D01*
X205107142Y-85274819D02*
X205011904Y-85322438D01*
X205011904Y-85322438D02*
X204964285Y-85370057D01*
X204964285Y-85370057D02*
X204916666Y-85465295D01*
X204916666Y-85465295D02*
X204916666Y-85608152D01*
X204916666Y-85608152D02*
X204964285Y-85703390D01*
X204964285Y-85703390D02*
X205011904Y-85751009D01*
X205011904Y-85751009D02*
X205107142Y-85798628D01*
X205107142Y-85798628D02*
X205488094Y-85798628D01*
X204535713Y-85370057D02*
X204488094Y-85322438D01*
X204488094Y-85322438D02*
X204392856Y-85274819D01*
X204392856Y-85274819D02*
X204154761Y-85274819D01*
X204154761Y-85274819D02*
X204059523Y-85322438D01*
X204059523Y-85322438D02*
X204011904Y-85370057D01*
X204011904Y-85370057D02*
X203964285Y-85465295D01*
X203964285Y-85465295D02*
X203964285Y-85560533D01*
X203964285Y-85560533D02*
X204011904Y-85703390D01*
X204011904Y-85703390D02*
X204583332Y-86274819D01*
X204583332Y-86274819D02*
X203964285Y-86274819D01*
X205583333Y-102654819D02*
X205583333Y-103369104D01*
X205583333Y-103369104D02*
X205630952Y-103511961D01*
X205630952Y-103511961D02*
X205726190Y-103607200D01*
X205726190Y-103607200D02*
X205869047Y-103654819D01*
X205869047Y-103654819D02*
X205964285Y-103654819D01*
X205107142Y-103654819D02*
X205107142Y-102654819D01*
X205107142Y-102654819D02*
X204726190Y-102654819D01*
X204726190Y-102654819D02*
X204630952Y-102702438D01*
X204630952Y-102702438D02*
X204583333Y-102750057D01*
X204583333Y-102750057D02*
X204535714Y-102845295D01*
X204535714Y-102845295D02*
X204535714Y-102988152D01*
X204535714Y-102988152D02*
X204583333Y-103083390D01*
X204583333Y-103083390D02*
X204630952Y-103131009D01*
X204630952Y-103131009D02*
X204726190Y-103178628D01*
X204726190Y-103178628D02*
X205107142Y-103178628D01*
X204202380Y-102654819D02*
X203583333Y-102654819D01*
X203583333Y-102654819D02*
X203916666Y-103035771D01*
X203916666Y-103035771D02*
X203773809Y-103035771D01*
X203773809Y-103035771D02*
X203678571Y-103083390D01*
X203678571Y-103083390D02*
X203630952Y-103131009D01*
X203630952Y-103131009D02*
X203583333Y-103226247D01*
X203583333Y-103226247D02*
X203583333Y-103464342D01*
X203583333Y-103464342D02*
X203630952Y-103559580D01*
X203630952Y-103559580D02*
X203678571Y-103607200D01*
X203678571Y-103607200D02*
X203773809Y-103654819D01*
X203773809Y-103654819D02*
X204059523Y-103654819D01*
X204059523Y-103654819D02*
X204154761Y-103607200D01*
X204154761Y-103607200D02*
X204202380Y-103559580D01*
X192634819Y-112583333D02*
X192158628Y-112250000D01*
X192634819Y-112011905D02*
X191634819Y-112011905D01*
X191634819Y-112011905D02*
X191634819Y-112392857D01*
X191634819Y-112392857D02*
X191682438Y-112488095D01*
X191682438Y-112488095D02*
X191730057Y-112535714D01*
X191730057Y-112535714D02*
X191825295Y-112583333D01*
X191825295Y-112583333D02*
X191968152Y-112583333D01*
X191968152Y-112583333D02*
X192063390Y-112535714D01*
X192063390Y-112535714D02*
X192111009Y-112488095D01*
X192111009Y-112488095D02*
X192158628Y-112392857D01*
X192158628Y-112392857D02*
X192158628Y-112011905D01*
X191968152Y-113440476D02*
X192634819Y-113440476D01*
X191587200Y-113202381D02*
X192301485Y-112964286D01*
X192301485Y-112964286D02*
X192301485Y-113583333D01*
X204916666Y-110274819D02*
X205249999Y-109798628D01*
X205488094Y-110274819D02*
X205488094Y-109274819D01*
X205488094Y-109274819D02*
X205107142Y-109274819D01*
X205107142Y-109274819D02*
X205011904Y-109322438D01*
X205011904Y-109322438D02*
X204964285Y-109370057D01*
X204964285Y-109370057D02*
X204916666Y-109465295D01*
X204916666Y-109465295D02*
X204916666Y-109608152D01*
X204916666Y-109608152D02*
X204964285Y-109703390D01*
X204964285Y-109703390D02*
X205011904Y-109751009D01*
X205011904Y-109751009D02*
X205107142Y-109798628D01*
X205107142Y-109798628D02*
X205488094Y-109798628D01*
X204583332Y-109274819D02*
X203964285Y-109274819D01*
X203964285Y-109274819D02*
X204297618Y-109655771D01*
X204297618Y-109655771D02*
X204154761Y-109655771D01*
X204154761Y-109655771D02*
X204059523Y-109703390D01*
X204059523Y-109703390D02*
X204011904Y-109751009D01*
X204011904Y-109751009D02*
X203964285Y-109846247D01*
X203964285Y-109846247D02*
X203964285Y-110084342D01*
X203964285Y-110084342D02*
X204011904Y-110179580D01*
X204011904Y-110179580D02*
X204059523Y-110227200D01*
X204059523Y-110227200D02*
X204154761Y-110274819D01*
X204154761Y-110274819D02*
X204440475Y-110274819D01*
X204440475Y-110274819D02*
X204535713Y-110227200D01*
X204535713Y-110227200D02*
X204583332Y-110179580D01*
X207700057Y-84154761D02*
X207652438Y-84059523D01*
X207652438Y-84059523D02*
X207557200Y-83964285D01*
X207557200Y-83964285D02*
X207414342Y-83821428D01*
X207414342Y-83821428D02*
X207366723Y-83726190D01*
X207366723Y-83726190D02*
X207366723Y-83630952D01*
X207604819Y-83678571D02*
X207557200Y-83583333D01*
X207557200Y-83583333D02*
X207461961Y-83488095D01*
X207461961Y-83488095D02*
X207271485Y-83440476D01*
X207271485Y-83440476D02*
X206938152Y-83440476D01*
X206938152Y-83440476D02*
X206747676Y-83488095D01*
X206747676Y-83488095D02*
X206652438Y-83583333D01*
X206652438Y-83583333D02*
X206604819Y-83678571D01*
X206604819Y-83678571D02*
X206604819Y-83869047D01*
X206604819Y-83869047D02*
X206652438Y-83964285D01*
X206652438Y-83964285D02*
X206747676Y-84059523D01*
X206747676Y-84059523D02*
X206938152Y-84107142D01*
X206938152Y-84107142D02*
X207271485Y-84107142D01*
X207271485Y-84107142D02*
X207461961Y-84059523D01*
X207461961Y-84059523D02*
X207557200Y-83964285D01*
X207557200Y-83964285D02*
X207604819Y-83869047D01*
X207604819Y-83869047D02*
X207604819Y-83678571D01*
X206700057Y-84488095D02*
X206652438Y-84535714D01*
X206652438Y-84535714D02*
X206604819Y-84630952D01*
X206604819Y-84630952D02*
X206604819Y-84869047D01*
X206604819Y-84869047D02*
X206652438Y-84964285D01*
X206652438Y-84964285D02*
X206700057Y-85011904D01*
X206700057Y-85011904D02*
X206795295Y-85059523D01*
X206795295Y-85059523D02*
X206890533Y-85059523D01*
X206890533Y-85059523D02*
X207033390Y-85011904D01*
X207033390Y-85011904D02*
X207604819Y-84440476D01*
X207604819Y-84440476D02*
X207604819Y-85059523D01*
X189892857Y-99804819D02*
X190226190Y-99328628D01*
X190464285Y-99804819D02*
X190464285Y-98804819D01*
X190464285Y-98804819D02*
X190083333Y-98804819D01*
X190083333Y-98804819D02*
X189988095Y-98852438D01*
X189988095Y-98852438D02*
X189940476Y-98900057D01*
X189940476Y-98900057D02*
X189892857Y-98995295D01*
X189892857Y-98995295D02*
X189892857Y-99138152D01*
X189892857Y-99138152D02*
X189940476Y-99233390D01*
X189940476Y-99233390D02*
X189988095Y-99281009D01*
X189988095Y-99281009D02*
X190083333Y-99328628D01*
X190083333Y-99328628D02*
X190464285Y-99328628D01*
X188940476Y-99804819D02*
X189511904Y-99804819D01*
X189226190Y-99804819D02*
X189226190Y-98804819D01*
X189226190Y-98804819D02*
X189321428Y-98947676D01*
X189321428Y-98947676D02*
X189416666Y-99042914D01*
X189416666Y-99042914D02*
X189511904Y-99090533D01*
X188321428Y-98804819D02*
X188226190Y-98804819D01*
X188226190Y-98804819D02*
X188130952Y-98852438D01*
X188130952Y-98852438D02*
X188083333Y-98900057D01*
X188083333Y-98900057D02*
X188035714Y-98995295D01*
X188035714Y-98995295D02*
X187988095Y-99185771D01*
X187988095Y-99185771D02*
X187988095Y-99423866D01*
X187988095Y-99423866D02*
X188035714Y-99614342D01*
X188035714Y-99614342D02*
X188083333Y-99709580D01*
X188083333Y-99709580D02*
X188130952Y-99757200D01*
X188130952Y-99757200D02*
X188226190Y-99804819D01*
X188226190Y-99804819D02*
X188321428Y-99804819D01*
X188321428Y-99804819D02*
X188416666Y-99757200D01*
X188416666Y-99757200D02*
X188464285Y-99709580D01*
X188464285Y-99709580D02*
X188511904Y-99614342D01*
X188511904Y-99614342D02*
X188559523Y-99423866D01*
X188559523Y-99423866D02*
X188559523Y-99185771D01*
X188559523Y-99185771D02*
X188511904Y-98995295D01*
X188511904Y-98995295D02*
X188464285Y-98900057D01*
X188464285Y-98900057D02*
X188416666Y-98852438D01*
X188416666Y-98852438D02*
X188321428Y-98804819D01*
X190083333Y-106254819D02*
X190083333Y-106969104D01*
X190083333Y-106969104D02*
X190130952Y-107111961D01*
X190130952Y-107111961D02*
X190226190Y-107207200D01*
X190226190Y-107207200D02*
X190369047Y-107254819D01*
X190369047Y-107254819D02*
X190464285Y-107254819D01*
X189607142Y-107254819D02*
X189607142Y-106254819D01*
X189607142Y-106254819D02*
X189226190Y-106254819D01*
X189226190Y-106254819D02*
X189130952Y-106302438D01*
X189130952Y-106302438D02*
X189083333Y-106350057D01*
X189083333Y-106350057D02*
X189035714Y-106445295D01*
X189035714Y-106445295D02*
X189035714Y-106588152D01*
X189035714Y-106588152D02*
X189083333Y-106683390D01*
X189083333Y-106683390D02*
X189130952Y-106731009D01*
X189130952Y-106731009D02*
X189226190Y-106778628D01*
X189226190Y-106778628D02*
X189607142Y-106778628D01*
X188130952Y-106254819D02*
X188607142Y-106254819D01*
X188607142Y-106254819D02*
X188654761Y-106731009D01*
X188654761Y-106731009D02*
X188607142Y-106683390D01*
X188607142Y-106683390D02*
X188511904Y-106635771D01*
X188511904Y-106635771D02*
X188273809Y-106635771D01*
X188273809Y-106635771D02*
X188178571Y-106683390D01*
X188178571Y-106683390D02*
X188130952Y-106731009D01*
X188130952Y-106731009D02*
X188083333Y-106826247D01*
X188083333Y-106826247D02*
X188083333Y-107064342D01*
X188083333Y-107064342D02*
X188130952Y-107159580D01*
X188130952Y-107159580D02*
X188178571Y-107207200D01*
X188178571Y-107207200D02*
X188273809Y-107254819D01*
X188273809Y-107254819D02*
X188511904Y-107254819D01*
X188511904Y-107254819D02*
X188607142Y-107207200D01*
X188607142Y-107207200D02*
X188654761Y-107159580D01*
X189754819Y-69166666D02*
X190469104Y-69166666D01*
X190469104Y-69166666D02*
X190611961Y-69119047D01*
X190611961Y-69119047D02*
X190707200Y-69023809D01*
X190707200Y-69023809D02*
X190754819Y-68880952D01*
X190754819Y-68880952D02*
X190754819Y-68785714D01*
X190754819Y-69642857D02*
X189754819Y-69642857D01*
X189754819Y-69642857D02*
X189754819Y-70023809D01*
X189754819Y-70023809D02*
X189802438Y-70119047D01*
X189802438Y-70119047D02*
X189850057Y-70166666D01*
X189850057Y-70166666D02*
X189945295Y-70214285D01*
X189945295Y-70214285D02*
X190088152Y-70214285D01*
X190088152Y-70214285D02*
X190183390Y-70166666D01*
X190183390Y-70166666D02*
X190231009Y-70119047D01*
X190231009Y-70119047D02*
X190278628Y-70023809D01*
X190278628Y-70023809D02*
X190278628Y-69642857D01*
X190183390Y-70785714D02*
X190135771Y-70690476D01*
X190135771Y-70690476D02*
X190088152Y-70642857D01*
X190088152Y-70642857D02*
X189992914Y-70595238D01*
X189992914Y-70595238D02*
X189945295Y-70595238D01*
X189945295Y-70595238D02*
X189850057Y-70642857D01*
X189850057Y-70642857D02*
X189802438Y-70690476D01*
X189802438Y-70690476D02*
X189754819Y-70785714D01*
X189754819Y-70785714D02*
X189754819Y-70976190D01*
X189754819Y-70976190D02*
X189802438Y-71071428D01*
X189802438Y-71071428D02*
X189850057Y-71119047D01*
X189850057Y-71119047D02*
X189945295Y-71166666D01*
X189945295Y-71166666D02*
X189992914Y-71166666D01*
X189992914Y-71166666D02*
X190088152Y-71119047D01*
X190088152Y-71119047D02*
X190135771Y-71071428D01*
X190135771Y-71071428D02*
X190183390Y-70976190D01*
X190183390Y-70976190D02*
X190183390Y-70785714D01*
X190183390Y-70785714D02*
X190231009Y-70690476D01*
X190231009Y-70690476D02*
X190278628Y-70642857D01*
X190278628Y-70642857D02*
X190373866Y-70595238D01*
X190373866Y-70595238D02*
X190564342Y-70595238D01*
X190564342Y-70595238D02*
X190659580Y-70642857D01*
X190659580Y-70642857D02*
X190707200Y-70690476D01*
X190707200Y-70690476D02*
X190754819Y-70785714D01*
X190754819Y-70785714D02*
X190754819Y-70976190D01*
X190754819Y-70976190D02*
X190707200Y-71071428D01*
X190707200Y-71071428D02*
X190659580Y-71119047D01*
X190659580Y-71119047D02*
X190564342Y-71166666D01*
X190564342Y-71166666D02*
X190373866Y-71166666D01*
X190373866Y-71166666D02*
X190278628Y-71119047D01*
X190278628Y-71119047D02*
X190231009Y-71071428D01*
X190231009Y-71071428D02*
X190183390Y-70976190D01*
X200916666Y-125679580D02*
X200964285Y-125727200D01*
X200964285Y-125727200D02*
X201107142Y-125774819D01*
X201107142Y-125774819D02*
X201202380Y-125774819D01*
X201202380Y-125774819D02*
X201345237Y-125727200D01*
X201345237Y-125727200D02*
X201440475Y-125631961D01*
X201440475Y-125631961D02*
X201488094Y-125536723D01*
X201488094Y-125536723D02*
X201535713Y-125346247D01*
X201535713Y-125346247D02*
X201535713Y-125203390D01*
X201535713Y-125203390D02*
X201488094Y-125012914D01*
X201488094Y-125012914D02*
X201440475Y-124917676D01*
X201440475Y-124917676D02*
X201345237Y-124822438D01*
X201345237Y-124822438D02*
X201202380Y-124774819D01*
X201202380Y-124774819D02*
X201107142Y-124774819D01*
X201107142Y-124774819D02*
X200964285Y-124822438D01*
X200964285Y-124822438D02*
X200916666Y-124870057D01*
X199964285Y-125774819D02*
X200535713Y-125774819D01*
X200249999Y-125774819D02*
X200249999Y-124774819D01*
X200249999Y-124774819D02*
X200345237Y-124917676D01*
X200345237Y-124917676D02*
X200440475Y-125012914D01*
X200440475Y-125012914D02*
X200535713Y-125060533D01*
X207700057Y-108154761D02*
X207652438Y-108059523D01*
X207652438Y-108059523D02*
X207557200Y-107964285D01*
X207557200Y-107964285D02*
X207414342Y-107821428D01*
X207414342Y-107821428D02*
X207366723Y-107726190D01*
X207366723Y-107726190D02*
X207366723Y-107630952D01*
X207604819Y-107678571D02*
X207557200Y-107583333D01*
X207557200Y-107583333D02*
X207461961Y-107488095D01*
X207461961Y-107488095D02*
X207271485Y-107440476D01*
X207271485Y-107440476D02*
X206938152Y-107440476D01*
X206938152Y-107440476D02*
X206747676Y-107488095D01*
X206747676Y-107488095D02*
X206652438Y-107583333D01*
X206652438Y-107583333D02*
X206604819Y-107678571D01*
X206604819Y-107678571D02*
X206604819Y-107869047D01*
X206604819Y-107869047D02*
X206652438Y-107964285D01*
X206652438Y-107964285D02*
X206747676Y-108059523D01*
X206747676Y-108059523D02*
X206938152Y-108107142D01*
X206938152Y-108107142D02*
X207271485Y-108107142D01*
X207271485Y-108107142D02*
X207461961Y-108059523D01*
X207461961Y-108059523D02*
X207557200Y-107964285D01*
X207557200Y-107964285D02*
X207604819Y-107869047D01*
X207604819Y-107869047D02*
X207604819Y-107678571D01*
X206604819Y-108440476D02*
X206604819Y-109059523D01*
X206604819Y-109059523D02*
X206985771Y-108726190D01*
X206985771Y-108726190D02*
X206985771Y-108869047D01*
X206985771Y-108869047D02*
X207033390Y-108964285D01*
X207033390Y-108964285D02*
X207081009Y-109011904D01*
X207081009Y-109011904D02*
X207176247Y-109059523D01*
X207176247Y-109059523D02*
X207414342Y-109059523D01*
X207414342Y-109059523D02*
X207509580Y-109011904D01*
X207509580Y-109011904D02*
X207557200Y-108964285D01*
X207557200Y-108964285D02*
X207604819Y-108869047D01*
X207604819Y-108869047D02*
X207604819Y-108583333D01*
X207604819Y-108583333D02*
X207557200Y-108488095D01*
X207557200Y-108488095D02*
X207509580Y-108440476D01*
X200345238Y-95400057D02*
X200440476Y-95352438D01*
X200440476Y-95352438D02*
X200535714Y-95257200D01*
X200535714Y-95257200D02*
X200678571Y-95114342D01*
X200678571Y-95114342D02*
X200773809Y-95066723D01*
X200773809Y-95066723D02*
X200869047Y-95066723D01*
X200821428Y-95304819D02*
X200916666Y-95257200D01*
X200916666Y-95257200D02*
X201011904Y-95161961D01*
X201011904Y-95161961D02*
X201059523Y-94971485D01*
X201059523Y-94971485D02*
X201059523Y-94638152D01*
X201059523Y-94638152D02*
X201011904Y-94447676D01*
X201011904Y-94447676D02*
X200916666Y-94352438D01*
X200916666Y-94352438D02*
X200821428Y-94304819D01*
X200821428Y-94304819D02*
X200630952Y-94304819D01*
X200630952Y-94304819D02*
X200535714Y-94352438D01*
X200535714Y-94352438D02*
X200440476Y-94447676D01*
X200440476Y-94447676D02*
X200392857Y-94638152D01*
X200392857Y-94638152D02*
X200392857Y-94971485D01*
X200392857Y-94971485D02*
X200440476Y-95161961D01*
X200440476Y-95161961D02*
X200535714Y-95257200D01*
X200535714Y-95257200D02*
X200630952Y-95304819D01*
X200630952Y-95304819D02*
X200821428Y-95304819D01*
X200059523Y-94304819D02*
X199392857Y-94304819D01*
X199392857Y-94304819D02*
X199821428Y-95304819D01*
X205583333Y-78654819D02*
X205583333Y-79369104D01*
X205583333Y-79369104D02*
X205630952Y-79511961D01*
X205630952Y-79511961D02*
X205726190Y-79607200D01*
X205726190Y-79607200D02*
X205869047Y-79654819D01*
X205869047Y-79654819D02*
X205964285Y-79654819D01*
X205107142Y-79654819D02*
X205107142Y-78654819D01*
X205107142Y-78654819D02*
X204726190Y-78654819D01*
X204726190Y-78654819D02*
X204630952Y-78702438D01*
X204630952Y-78702438D02*
X204583333Y-78750057D01*
X204583333Y-78750057D02*
X204535714Y-78845295D01*
X204535714Y-78845295D02*
X204535714Y-78988152D01*
X204535714Y-78988152D02*
X204583333Y-79083390D01*
X204583333Y-79083390D02*
X204630952Y-79131009D01*
X204630952Y-79131009D02*
X204726190Y-79178628D01*
X204726190Y-79178628D02*
X205107142Y-79178628D01*
X204154761Y-78750057D02*
X204107142Y-78702438D01*
X204107142Y-78702438D02*
X204011904Y-78654819D01*
X204011904Y-78654819D02*
X203773809Y-78654819D01*
X203773809Y-78654819D02*
X203678571Y-78702438D01*
X203678571Y-78702438D02*
X203630952Y-78750057D01*
X203630952Y-78750057D02*
X203583333Y-78845295D01*
X203583333Y-78845295D02*
X203583333Y-78940533D01*
X203583333Y-78940533D02*
X203630952Y-79083390D01*
X203630952Y-79083390D02*
X204202380Y-79654819D01*
X204202380Y-79654819D02*
X203583333Y-79654819D01*
X187400057Y-77654761D02*
X187352438Y-77559523D01*
X187352438Y-77559523D02*
X187257200Y-77464285D01*
X187257200Y-77464285D02*
X187114342Y-77321428D01*
X187114342Y-77321428D02*
X187066723Y-77226190D01*
X187066723Y-77226190D02*
X187066723Y-77130952D01*
X187304819Y-77178571D02*
X187257200Y-77083333D01*
X187257200Y-77083333D02*
X187161961Y-76988095D01*
X187161961Y-76988095D02*
X186971485Y-76940476D01*
X186971485Y-76940476D02*
X186638152Y-76940476D01*
X186638152Y-76940476D02*
X186447676Y-76988095D01*
X186447676Y-76988095D02*
X186352438Y-77083333D01*
X186352438Y-77083333D02*
X186304819Y-77178571D01*
X186304819Y-77178571D02*
X186304819Y-77369047D01*
X186304819Y-77369047D02*
X186352438Y-77464285D01*
X186352438Y-77464285D02*
X186447676Y-77559523D01*
X186447676Y-77559523D02*
X186638152Y-77607142D01*
X186638152Y-77607142D02*
X186971485Y-77607142D01*
X186971485Y-77607142D02*
X187161961Y-77559523D01*
X187161961Y-77559523D02*
X187257200Y-77464285D01*
X187257200Y-77464285D02*
X187304819Y-77369047D01*
X187304819Y-77369047D02*
X187304819Y-77178571D01*
X186304819Y-78464285D02*
X186304819Y-78273809D01*
X186304819Y-78273809D02*
X186352438Y-78178571D01*
X186352438Y-78178571D02*
X186400057Y-78130952D01*
X186400057Y-78130952D02*
X186542914Y-78035714D01*
X186542914Y-78035714D02*
X186733390Y-77988095D01*
X186733390Y-77988095D02*
X187114342Y-77988095D01*
X187114342Y-77988095D02*
X187209580Y-78035714D01*
X187209580Y-78035714D02*
X187257200Y-78083333D01*
X187257200Y-78083333D02*
X187304819Y-78178571D01*
X187304819Y-78178571D02*
X187304819Y-78369047D01*
X187304819Y-78369047D02*
X187257200Y-78464285D01*
X187257200Y-78464285D02*
X187209580Y-78511904D01*
X187209580Y-78511904D02*
X187114342Y-78559523D01*
X187114342Y-78559523D02*
X186876247Y-78559523D01*
X186876247Y-78559523D02*
X186781009Y-78511904D01*
X186781009Y-78511904D02*
X186733390Y-78464285D01*
X186733390Y-78464285D02*
X186685771Y-78369047D01*
X186685771Y-78369047D02*
X186685771Y-78178571D01*
X186685771Y-78178571D02*
X186733390Y-78083333D01*
X186733390Y-78083333D02*
X186781009Y-78035714D01*
X186781009Y-78035714D02*
X186876247Y-77988095D01*
X189416666Y-82054819D02*
X189749999Y-81578628D01*
X189988094Y-82054819D02*
X189988094Y-81054819D01*
X189988094Y-81054819D02*
X189607142Y-81054819D01*
X189607142Y-81054819D02*
X189511904Y-81102438D01*
X189511904Y-81102438D02*
X189464285Y-81150057D01*
X189464285Y-81150057D02*
X189416666Y-81245295D01*
X189416666Y-81245295D02*
X189416666Y-81388152D01*
X189416666Y-81388152D02*
X189464285Y-81483390D01*
X189464285Y-81483390D02*
X189511904Y-81531009D01*
X189511904Y-81531009D02*
X189607142Y-81578628D01*
X189607142Y-81578628D02*
X189988094Y-81578628D01*
X188940475Y-82054819D02*
X188749999Y-82054819D01*
X188749999Y-82054819D02*
X188654761Y-82007200D01*
X188654761Y-82007200D02*
X188607142Y-81959580D01*
X188607142Y-81959580D02*
X188511904Y-81816723D01*
X188511904Y-81816723D02*
X188464285Y-81626247D01*
X188464285Y-81626247D02*
X188464285Y-81245295D01*
X188464285Y-81245295D02*
X188511904Y-81150057D01*
X188511904Y-81150057D02*
X188559523Y-81102438D01*
X188559523Y-81102438D02*
X188654761Y-81054819D01*
X188654761Y-81054819D02*
X188845237Y-81054819D01*
X188845237Y-81054819D02*
X188940475Y-81102438D01*
X188940475Y-81102438D02*
X188988094Y-81150057D01*
X188988094Y-81150057D02*
X189035713Y-81245295D01*
X189035713Y-81245295D02*
X189035713Y-81483390D01*
X189035713Y-81483390D02*
X188988094Y-81578628D01*
X188988094Y-81578628D02*
X188940475Y-81626247D01*
X188940475Y-81626247D02*
X188845237Y-81673866D01*
X188845237Y-81673866D02*
X188654761Y-81673866D01*
X188654761Y-81673866D02*
X188559523Y-81626247D01*
X188559523Y-81626247D02*
X188511904Y-81578628D01*
X188511904Y-81578628D02*
X188464285Y-81483390D01*
X205392857Y-78854819D02*
X205726190Y-78378628D01*
X205964285Y-78854819D02*
X205964285Y-77854819D01*
X205964285Y-77854819D02*
X205583333Y-77854819D01*
X205583333Y-77854819D02*
X205488095Y-77902438D01*
X205488095Y-77902438D02*
X205440476Y-77950057D01*
X205440476Y-77950057D02*
X205392857Y-78045295D01*
X205392857Y-78045295D02*
X205392857Y-78188152D01*
X205392857Y-78188152D02*
X205440476Y-78283390D01*
X205440476Y-78283390D02*
X205488095Y-78331009D01*
X205488095Y-78331009D02*
X205583333Y-78378628D01*
X205583333Y-78378628D02*
X205964285Y-78378628D01*
X204440476Y-78854819D02*
X205011904Y-78854819D01*
X204726190Y-78854819D02*
X204726190Y-77854819D01*
X204726190Y-77854819D02*
X204821428Y-77997676D01*
X204821428Y-77997676D02*
X204916666Y-78092914D01*
X204916666Y-78092914D02*
X205011904Y-78140533D01*
X203964285Y-78854819D02*
X203773809Y-78854819D01*
X203773809Y-78854819D02*
X203678571Y-78807200D01*
X203678571Y-78807200D02*
X203630952Y-78759580D01*
X203630952Y-78759580D02*
X203535714Y-78616723D01*
X203535714Y-78616723D02*
X203488095Y-78426247D01*
X203488095Y-78426247D02*
X203488095Y-78045295D01*
X203488095Y-78045295D02*
X203535714Y-77950057D01*
X203535714Y-77950057D02*
X203583333Y-77902438D01*
X203583333Y-77902438D02*
X203678571Y-77854819D01*
X203678571Y-77854819D02*
X203869047Y-77854819D01*
X203869047Y-77854819D02*
X203964285Y-77902438D01*
X203964285Y-77902438D02*
X204011904Y-77950057D01*
X204011904Y-77950057D02*
X204059523Y-78045295D01*
X204059523Y-78045295D02*
X204059523Y-78283390D01*
X204059523Y-78283390D02*
X204011904Y-78378628D01*
X204011904Y-78378628D02*
X203964285Y-78426247D01*
X203964285Y-78426247D02*
X203869047Y-78473866D01*
X203869047Y-78473866D02*
X203678571Y-78473866D01*
X203678571Y-78473866D02*
X203583333Y-78426247D01*
X203583333Y-78426247D02*
X203535714Y-78378628D01*
X203535714Y-78378628D02*
X203488095Y-78283390D01*
X202274819Y-97083333D02*
X201798628Y-96750000D01*
X202274819Y-96511905D02*
X201274819Y-96511905D01*
X201274819Y-96511905D02*
X201274819Y-96892857D01*
X201274819Y-96892857D02*
X201322438Y-96988095D01*
X201322438Y-96988095D02*
X201370057Y-97035714D01*
X201370057Y-97035714D02*
X201465295Y-97083333D01*
X201465295Y-97083333D02*
X201608152Y-97083333D01*
X201608152Y-97083333D02*
X201703390Y-97035714D01*
X201703390Y-97035714D02*
X201751009Y-96988095D01*
X201751009Y-96988095D02*
X201798628Y-96892857D01*
X201798628Y-96892857D02*
X201798628Y-96511905D01*
X201274819Y-97416667D02*
X201274819Y-98083333D01*
X201274819Y-98083333D02*
X202274819Y-97654762D01*
X205392857Y-80854819D02*
X205726190Y-80378628D01*
X205964285Y-80854819D02*
X205964285Y-79854819D01*
X205964285Y-79854819D02*
X205583333Y-79854819D01*
X205583333Y-79854819D02*
X205488095Y-79902438D01*
X205488095Y-79902438D02*
X205440476Y-79950057D01*
X205440476Y-79950057D02*
X205392857Y-80045295D01*
X205392857Y-80045295D02*
X205392857Y-80188152D01*
X205392857Y-80188152D02*
X205440476Y-80283390D01*
X205440476Y-80283390D02*
X205488095Y-80331009D01*
X205488095Y-80331009D02*
X205583333Y-80378628D01*
X205583333Y-80378628D02*
X205964285Y-80378628D01*
X205011904Y-79950057D02*
X204964285Y-79902438D01*
X204964285Y-79902438D02*
X204869047Y-79854819D01*
X204869047Y-79854819D02*
X204630952Y-79854819D01*
X204630952Y-79854819D02*
X204535714Y-79902438D01*
X204535714Y-79902438D02*
X204488095Y-79950057D01*
X204488095Y-79950057D02*
X204440476Y-80045295D01*
X204440476Y-80045295D02*
X204440476Y-80140533D01*
X204440476Y-80140533D02*
X204488095Y-80283390D01*
X204488095Y-80283390D02*
X205059523Y-80854819D01*
X205059523Y-80854819D02*
X204440476Y-80854819D01*
X203488095Y-80854819D02*
X204059523Y-80854819D01*
X203773809Y-80854819D02*
X203773809Y-79854819D01*
X203773809Y-79854819D02*
X203869047Y-79997676D01*
X203869047Y-79997676D02*
X203964285Y-80092914D01*
X203964285Y-80092914D02*
X204059523Y-80140533D01*
X185466666Y-71962319D02*
X185799999Y-71486128D01*
X186038094Y-71962319D02*
X186038094Y-70962319D01*
X186038094Y-70962319D02*
X185657142Y-70962319D01*
X185657142Y-70962319D02*
X185561904Y-71009938D01*
X185561904Y-71009938D02*
X185514285Y-71057557D01*
X185514285Y-71057557D02*
X185466666Y-71152795D01*
X185466666Y-71152795D02*
X185466666Y-71295652D01*
X185466666Y-71295652D02*
X185514285Y-71390890D01*
X185514285Y-71390890D02*
X185561904Y-71438509D01*
X185561904Y-71438509D02*
X185657142Y-71486128D01*
X185657142Y-71486128D02*
X186038094Y-71486128D01*
X184895237Y-71390890D02*
X184990475Y-71343271D01*
X184990475Y-71343271D02*
X185038094Y-71295652D01*
X185038094Y-71295652D02*
X185085713Y-71200414D01*
X185085713Y-71200414D02*
X185085713Y-71152795D01*
X185085713Y-71152795D02*
X185038094Y-71057557D01*
X185038094Y-71057557D02*
X184990475Y-71009938D01*
X184990475Y-71009938D02*
X184895237Y-70962319D01*
X184895237Y-70962319D02*
X184704761Y-70962319D01*
X184704761Y-70962319D02*
X184609523Y-71009938D01*
X184609523Y-71009938D02*
X184561904Y-71057557D01*
X184561904Y-71057557D02*
X184514285Y-71152795D01*
X184514285Y-71152795D02*
X184514285Y-71200414D01*
X184514285Y-71200414D02*
X184561904Y-71295652D01*
X184561904Y-71295652D02*
X184609523Y-71343271D01*
X184609523Y-71343271D02*
X184704761Y-71390890D01*
X184704761Y-71390890D02*
X184895237Y-71390890D01*
X184895237Y-71390890D02*
X184990475Y-71438509D01*
X184990475Y-71438509D02*
X185038094Y-71486128D01*
X185038094Y-71486128D02*
X185085713Y-71581366D01*
X185085713Y-71581366D02*
X185085713Y-71771842D01*
X185085713Y-71771842D02*
X185038094Y-71867080D01*
X185038094Y-71867080D02*
X184990475Y-71914700D01*
X184990475Y-71914700D02*
X184895237Y-71962319D01*
X184895237Y-71962319D02*
X184704761Y-71962319D01*
X184704761Y-71962319D02*
X184609523Y-71914700D01*
X184609523Y-71914700D02*
X184561904Y-71867080D01*
X184561904Y-71867080D02*
X184514285Y-71771842D01*
X184514285Y-71771842D02*
X184514285Y-71581366D01*
X184514285Y-71581366D02*
X184561904Y-71486128D01*
X184561904Y-71486128D02*
X184609523Y-71438509D01*
X184609523Y-71438509D02*
X184704761Y-71390890D01*
X193634819Y-73083333D02*
X193158628Y-72750000D01*
X193634819Y-72511905D02*
X192634819Y-72511905D01*
X192634819Y-72511905D02*
X192634819Y-72892857D01*
X192634819Y-72892857D02*
X192682438Y-72988095D01*
X192682438Y-72988095D02*
X192730057Y-73035714D01*
X192730057Y-73035714D02*
X192825295Y-73083333D01*
X192825295Y-73083333D02*
X192968152Y-73083333D01*
X192968152Y-73083333D02*
X193063390Y-73035714D01*
X193063390Y-73035714D02*
X193111009Y-72988095D01*
X193111009Y-72988095D02*
X193158628Y-72892857D01*
X193158628Y-72892857D02*
X193158628Y-72511905D01*
X193634819Y-74035714D02*
X193634819Y-73464286D01*
X193634819Y-73750000D02*
X192634819Y-73750000D01*
X192634819Y-73750000D02*
X192777676Y-73654762D01*
X192777676Y-73654762D02*
X192872914Y-73559524D01*
X192872914Y-73559524D02*
X192920533Y-73464286D01*
X199004819Y-72416666D02*
X199719104Y-72416666D01*
X199719104Y-72416666D02*
X199861961Y-72369047D01*
X199861961Y-72369047D02*
X199957200Y-72273809D01*
X199957200Y-72273809D02*
X200004819Y-72130952D01*
X200004819Y-72130952D02*
X200004819Y-72035714D01*
X200004819Y-72892857D02*
X199004819Y-72892857D01*
X199004819Y-72892857D02*
X199004819Y-73273809D01*
X199004819Y-73273809D02*
X199052438Y-73369047D01*
X199052438Y-73369047D02*
X199100057Y-73416666D01*
X199100057Y-73416666D02*
X199195295Y-73464285D01*
X199195295Y-73464285D02*
X199338152Y-73464285D01*
X199338152Y-73464285D02*
X199433390Y-73416666D01*
X199433390Y-73416666D02*
X199481009Y-73369047D01*
X199481009Y-73369047D02*
X199528628Y-73273809D01*
X199528628Y-73273809D02*
X199528628Y-72892857D01*
X200004819Y-74416666D02*
X200004819Y-73845238D01*
X200004819Y-74130952D02*
X199004819Y-74130952D01*
X199004819Y-74130952D02*
X199147676Y-74035714D01*
X199147676Y-74035714D02*
X199242914Y-73940476D01*
X199242914Y-73940476D02*
X199290533Y-73845238D01*
X194595238Y-76200057D02*
X194690476Y-76152438D01*
X194690476Y-76152438D02*
X194785714Y-76057200D01*
X194785714Y-76057200D02*
X194928571Y-75914342D01*
X194928571Y-75914342D02*
X195023809Y-75866723D01*
X195023809Y-75866723D02*
X195119047Y-75866723D01*
X195071428Y-76104819D02*
X195166666Y-76057200D01*
X195166666Y-76057200D02*
X195261904Y-75961961D01*
X195261904Y-75961961D02*
X195309523Y-75771485D01*
X195309523Y-75771485D02*
X195309523Y-75438152D01*
X195309523Y-75438152D02*
X195261904Y-75247676D01*
X195261904Y-75247676D02*
X195166666Y-75152438D01*
X195166666Y-75152438D02*
X195071428Y-75104819D01*
X195071428Y-75104819D02*
X194880952Y-75104819D01*
X194880952Y-75104819D02*
X194785714Y-75152438D01*
X194785714Y-75152438D02*
X194690476Y-75247676D01*
X194690476Y-75247676D02*
X194642857Y-75438152D01*
X194642857Y-75438152D02*
X194642857Y-75771485D01*
X194642857Y-75771485D02*
X194690476Y-75961961D01*
X194690476Y-75961961D02*
X194785714Y-76057200D01*
X194785714Y-76057200D02*
X194880952Y-76104819D01*
X194880952Y-76104819D02*
X195071428Y-76104819D01*
X193690476Y-76104819D02*
X194261904Y-76104819D01*
X193976190Y-76104819D02*
X193976190Y-75104819D01*
X193976190Y-75104819D02*
X194071428Y-75247676D01*
X194071428Y-75247676D02*
X194166666Y-75342914D01*
X194166666Y-75342914D02*
X194261904Y-75390533D01*
X202104819Y-72607142D02*
X201628628Y-72273809D01*
X202104819Y-72035714D02*
X201104819Y-72035714D01*
X201104819Y-72035714D02*
X201104819Y-72416666D01*
X201104819Y-72416666D02*
X201152438Y-72511904D01*
X201152438Y-72511904D02*
X201200057Y-72559523D01*
X201200057Y-72559523D02*
X201295295Y-72607142D01*
X201295295Y-72607142D02*
X201438152Y-72607142D01*
X201438152Y-72607142D02*
X201533390Y-72559523D01*
X201533390Y-72559523D02*
X201581009Y-72511904D01*
X201581009Y-72511904D02*
X201628628Y-72416666D01*
X201628628Y-72416666D02*
X201628628Y-72035714D01*
X202104819Y-73559523D02*
X202104819Y-72988095D01*
X202104819Y-73273809D02*
X201104819Y-73273809D01*
X201104819Y-73273809D02*
X201247676Y-73178571D01*
X201247676Y-73178571D02*
X201342914Y-73083333D01*
X201342914Y-73083333D02*
X201390533Y-72988095D01*
X201104819Y-73892857D02*
X201104819Y-74511904D01*
X201104819Y-74511904D02*
X201485771Y-74178571D01*
X201485771Y-74178571D02*
X201485771Y-74321428D01*
X201485771Y-74321428D02*
X201533390Y-74416666D01*
X201533390Y-74416666D02*
X201581009Y-74464285D01*
X201581009Y-74464285D02*
X201676247Y-74511904D01*
X201676247Y-74511904D02*
X201914342Y-74511904D01*
X201914342Y-74511904D02*
X202009580Y-74464285D01*
X202009580Y-74464285D02*
X202057200Y-74416666D01*
X202057200Y-74416666D02*
X202104819Y-74321428D01*
X202104819Y-74321428D02*
X202104819Y-74035714D01*
X202104819Y-74035714D02*
X202057200Y-73940476D01*
X202057200Y-73940476D02*
X202009580Y-73892857D01*
X204104819Y-72607142D02*
X203628628Y-72273809D01*
X204104819Y-72035714D02*
X203104819Y-72035714D01*
X203104819Y-72035714D02*
X203104819Y-72416666D01*
X203104819Y-72416666D02*
X203152438Y-72511904D01*
X203152438Y-72511904D02*
X203200057Y-72559523D01*
X203200057Y-72559523D02*
X203295295Y-72607142D01*
X203295295Y-72607142D02*
X203438152Y-72607142D01*
X203438152Y-72607142D02*
X203533390Y-72559523D01*
X203533390Y-72559523D02*
X203581009Y-72511904D01*
X203581009Y-72511904D02*
X203628628Y-72416666D01*
X203628628Y-72416666D02*
X203628628Y-72035714D01*
X204104819Y-73559523D02*
X204104819Y-72988095D01*
X204104819Y-73273809D02*
X203104819Y-73273809D01*
X203104819Y-73273809D02*
X203247676Y-73178571D01*
X203247676Y-73178571D02*
X203342914Y-73083333D01*
X203342914Y-73083333D02*
X203390533Y-72988095D01*
X203438152Y-74416666D02*
X204104819Y-74416666D01*
X203057200Y-74178571D02*
X203771485Y-73940476D01*
X203771485Y-73940476D02*
X203771485Y-74559523D01*
D11*
%TO.C,R24*%
X224227064Y-82985000D02*
X223772936Y-82985000D01*
X224227064Y-81515000D02*
X223772936Y-81515000D01*
%TO.C,R23*%
X224227064Y-80035000D02*
X223772936Y-80035000D01*
X224227064Y-78565000D02*
X223772936Y-78565000D01*
%TO.C,JP4*%
X196700000Y-114150000D02*
X197300000Y-114150000D01*
X198000000Y-113450000D02*
X198000000Y-112050000D01*
X196000000Y-112050000D02*
X196000000Y-113450000D01*
X197300000Y-111350000D02*
X196700000Y-111350000D01*
X198000000Y-113450000D02*
G75*
G02*
X197300000Y-114150000I-699999J-1D01*
G01*
X196700000Y-114150000D02*
G75*
G02*
X196000000Y-113450000I-1J699999D01*
G01*
X197300000Y-111350000D02*
G75*
G02*
X198000000Y-112050000I0J-700000D01*
G01*
X196000000Y-112050000D02*
G75*
G02*
X196700000Y-111350000I700000J0D01*
G01*
%TO.C,R20*%
X204522936Y-100015000D02*
X204977064Y-100015000D01*
X204522936Y-101485000D02*
X204977064Y-101485000D01*
%TO.C,R12*%
X189477064Y-103985000D02*
X189022936Y-103985000D01*
X189477064Y-102515000D02*
X189022936Y-102515000D01*
%TO.C,JP7*%
X198000000Y-97950000D02*
G75*
G02*
X197300000Y-98650000I-700000J0D01*
G01*
X196700000Y-98650000D02*
G75*
G02*
X196000000Y-97950000I0J700000D01*
G01*
X197300000Y-95850000D02*
G75*
G02*
X198000000Y-96550000I1J-699999D01*
G01*
X196000000Y-96550000D02*
G75*
G02*
X196700000Y-95850000I699999J1D01*
G01*
X196700000Y-98650000D02*
X197300000Y-98650000D01*
X198000000Y-97950000D02*
X198000000Y-96550000D01*
X196000000Y-96550000D02*
X196000000Y-97950000D01*
X197300000Y-95850000D02*
X196700000Y-95850000D01*
%TO.C,R18*%
X200515000Y-112522936D02*
X200515000Y-112977064D01*
X201985000Y-112522936D02*
X201985000Y-112977064D01*
%TO.C,R11*%
X189477064Y-85985000D02*
X189022936Y-85985000D01*
X189477064Y-84515000D02*
X189022936Y-84515000D01*
%TO.C,R5*%
X188487258Y-111772500D02*
X188012742Y-111772500D01*
X188487258Y-110727500D02*
X188012742Y-110727500D01*
%TO.C,Q8*%
X185630000Y-71300000D02*
X185300000Y-71540000D01*
X185300000Y-71060000D01*
X185630000Y-71300000D01*
G36*
X185630000Y-71300000D02*
G01*
X185300000Y-71540000D01*
X185300000Y-71060000D01*
X185630000Y-71300000D01*
G37*
X183690000Y-69240000D02*
X183690000Y-70760000D01*
X184690000Y-69240000D02*
X183690000Y-69240000D01*
X186810000Y-69240000D02*
X185810000Y-69240000D01*
X183690000Y-70760000D02*
X183740000Y-70760000D01*
X184860000Y-70760000D02*
X185640000Y-70760000D01*
X186760000Y-70760000D02*
X186810000Y-70760000D01*
X186810000Y-70760000D02*
X186810000Y-69240000D01*
%TO.C,Q4*%
X192990000Y-114310000D02*
X194510000Y-114310000D01*
X192990000Y-114260000D02*
X192990000Y-114310000D01*
X192990000Y-112360000D02*
X192990000Y-113140000D01*
X192990000Y-111190000D02*
X192990000Y-111240000D01*
X194510000Y-114310000D02*
X194510000Y-113310000D01*
X194510000Y-112190000D02*
X194510000Y-111190000D01*
X194510000Y-111190000D02*
X192990000Y-111190000D01*
X192450000Y-113130000D02*
X192210000Y-112800000D01*
X192690000Y-112800000D01*
X192450000Y-113130000D01*
G36*
X192450000Y-113130000D02*
G01*
X192210000Y-112800000D01*
X192690000Y-112800000D01*
X192450000Y-113130000D01*
G37*
%TO.C,R22*%
X204522936Y-102015000D02*
X204977064Y-102015000D01*
X204522936Y-103485000D02*
X204977064Y-103485000D01*
%TO.C,U1*%
X202340000Y-83840000D02*
X202010000Y-83600000D01*
X202340000Y-83360000D01*
X202340000Y-83840000D01*
G36*
X202340000Y-83840000D02*
G01*
X202010000Y-83600000D01*
X202340000Y-83360000D01*
X202340000Y-83840000D01*
G37*
X191940000Y-83060000D02*
X191995000Y-83060000D01*
X191940000Y-78940000D02*
X191940000Y-83060000D01*
X191995000Y-78940000D02*
X191940000Y-78940000D01*
X202005000Y-83060000D02*
X202060000Y-83060000D01*
X202060000Y-83060000D02*
X202060000Y-78940000D01*
X202060000Y-78940000D02*
X202005000Y-78940000D01*
%TO.C,R15*%
X192015000Y-97477064D02*
X192015000Y-97022936D01*
X193485000Y-97477064D02*
X193485000Y-97022936D01*
%TO.C,R17*%
X198515000Y-112522936D02*
X198515000Y-112977064D01*
X199985000Y-112522936D02*
X199985000Y-112977064D01*
%TO.C,Q5*%
X189630000Y-109550000D02*
X189300000Y-109790000D01*
X189300000Y-109310000D01*
X189630000Y-109550000D01*
G36*
X189630000Y-109550000D02*
G01*
X189300000Y-109790000D01*
X189300000Y-109310000D01*
X189630000Y-109550000D01*
G37*
X187690000Y-107490000D02*
X187690000Y-109010000D01*
X188690000Y-107490000D02*
X187690000Y-107490000D01*
X190810000Y-107490000D02*
X189810000Y-107490000D01*
X187690000Y-109010000D02*
X187740000Y-109010000D01*
X188860000Y-109010000D02*
X189640000Y-109010000D01*
X190760000Y-109010000D02*
X190810000Y-109010000D01*
X190810000Y-109010000D02*
X190810000Y-107490000D01*
%TO.C,JP6*%
X189950000Y-80000000D02*
G75*
G02*
X190650000Y-80700000I0J-700000D01*
G01*
X190650000Y-81300000D02*
G75*
G02*
X189950000Y-82000000I-700000J0D01*
G01*
X187850000Y-80700000D02*
G75*
G02*
X188550000Y-80000000I699999J1D01*
G01*
X188550000Y-82000000D02*
G75*
G02*
X187850000Y-81300000I-1J699999D01*
G01*
X190650000Y-81300000D02*
X190650000Y-80700000D01*
X189950000Y-80000000D02*
X188550000Y-80000000D01*
X188550000Y-82000000D02*
X189950000Y-82000000D01*
X187850000Y-80700000D02*
X187850000Y-81300000D01*
%TO.C,R6*%
X189012742Y-74227500D02*
X189487258Y-74227500D01*
X189012742Y-75272500D02*
X189487258Y-75272500D01*
%TO.C,R16*%
X194015000Y-97477064D02*
X194015000Y-97022936D01*
X195485000Y-97477064D02*
X195485000Y-97022936D01*
%TO.C,R2*%
X204987258Y-87772500D02*
X204512742Y-87772500D01*
X204987258Y-86727500D02*
X204512742Y-86727500D01*
%TO.C,JP3*%
X204050000Y-106000000D02*
G75*
G02*
X203350000Y-105300000I0J700000D01*
G01*
X203350000Y-104700000D02*
G75*
G02*
X204050000Y-104000000I700000J0D01*
G01*
X206150000Y-105300000D02*
G75*
G02*
X205450000Y-106000000I-699999J-1D01*
G01*
X205450000Y-104000000D02*
G75*
G02*
X206150000Y-104700000I1J-699999D01*
G01*
X203350000Y-104700000D02*
X203350000Y-105300000D01*
X204050000Y-106000000D02*
X205450000Y-106000000D01*
X205450000Y-104000000D02*
X204050000Y-104000000D01*
X206150000Y-105300000D02*
X206150000Y-104700000D01*
%TO.C,R4*%
X191272500Y-112987258D02*
X191272500Y-112512742D01*
X190227500Y-112987258D02*
X190227500Y-112512742D01*
%TO.C,R3*%
X204987258Y-111772500D02*
X204512742Y-111772500D01*
X204987258Y-110727500D02*
X204512742Y-110727500D01*
%TO.C,Q2*%
X205130000Y-85550000D02*
X204800000Y-85790000D01*
X204800000Y-85310000D01*
X205130000Y-85550000D01*
G36*
X205130000Y-85550000D02*
G01*
X204800000Y-85790000D01*
X204800000Y-85310000D01*
X205130000Y-85550000D01*
G37*
X203190000Y-83490000D02*
X203190000Y-85010000D01*
X204190000Y-83490000D02*
X203190000Y-83490000D01*
X206310000Y-83490000D02*
X205310000Y-83490000D01*
X203190000Y-85010000D02*
X203240000Y-85010000D01*
X204360000Y-85010000D02*
X205140000Y-85010000D01*
X206260000Y-85010000D02*
X206310000Y-85010000D01*
X206310000Y-85010000D02*
X206310000Y-83490000D01*
%TO.C,R10*%
X189477064Y-100265000D02*
X189022936Y-100265000D01*
X189477064Y-101735000D02*
X189022936Y-101735000D01*
%TO.C,JP5*%
X189950000Y-104000000D02*
G75*
G02*
X190650000Y-104700000I0J-700000D01*
G01*
X190650000Y-105300000D02*
G75*
G02*
X189950000Y-106000000I-700000J0D01*
G01*
X187850000Y-104700000D02*
G75*
G02*
X188550000Y-104000000I699999J1D01*
G01*
X188550000Y-106000000D02*
G75*
G02*
X187850000Y-105300000I-1J699999D01*
G01*
X190650000Y-105300000D02*
X190650000Y-104700000D01*
X189950000Y-104000000D02*
X188550000Y-104000000D01*
X188550000Y-106000000D02*
X189950000Y-106000000D01*
X187850000Y-104700000D02*
X187850000Y-105300000D01*
%TO.C,JP8*%
X187500000Y-69300000D02*
G75*
G02*
X188200000Y-68600000I700000J0D01*
G01*
X188800000Y-68600000D02*
G75*
G02*
X189500000Y-69300000I0J-700000D01*
G01*
X188200000Y-71400000D02*
G75*
G02*
X187500000Y-70700000I-1J699999D01*
G01*
X189500000Y-70700000D02*
G75*
G02*
X188800000Y-71400000I-699999J-1D01*
G01*
X188800000Y-68600000D02*
X188200000Y-68600000D01*
X187500000Y-69300000D02*
X187500000Y-70700000D01*
X189500000Y-70700000D02*
X189500000Y-69300000D01*
X188200000Y-71400000D02*
X188800000Y-71400000D01*
%TO.C,C1*%
X200890580Y-127260000D02*
X200609420Y-127260000D01*
X200890580Y-126240000D02*
X200609420Y-126240000D01*
%TO.C,Q3*%
X205130000Y-109550000D02*
X204800000Y-109790000D01*
X204800000Y-109310000D01*
X205130000Y-109550000D01*
G36*
X205130000Y-109550000D02*
G01*
X204800000Y-109790000D01*
X204800000Y-109310000D01*
X205130000Y-109550000D01*
G37*
X203190000Y-107490000D02*
X203190000Y-109010000D01*
X204190000Y-107490000D02*
X203190000Y-107490000D01*
X206310000Y-107490000D02*
X205310000Y-107490000D01*
X203190000Y-109010000D02*
X203240000Y-109010000D01*
X204360000Y-109010000D02*
X205140000Y-109010000D01*
X206260000Y-109010000D02*
X206310000Y-109010000D01*
X206310000Y-109010000D02*
X206310000Y-107490000D01*
%TO.C,Q7*%
X201790000Y-97200000D02*
X201310000Y-97200000D01*
X201550000Y-96870000D01*
X201790000Y-97200000D01*
G36*
X201790000Y-97200000D02*
G01*
X201310000Y-97200000D01*
X201550000Y-96870000D01*
X201790000Y-97200000D01*
G37*
X199490000Y-98810000D02*
X201010000Y-98810000D01*
X199490000Y-97810000D02*
X199490000Y-98810000D01*
X199490000Y-95690000D02*
X199490000Y-96690000D01*
X201010000Y-98810000D02*
X201010000Y-98760000D01*
X201010000Y-97640000D02*
X201010000Y-96860000D01*
X201010000Y-95740000D02*
X201010000Y-95690000D01*
X201010000Y-95690000D02*
X199490000Y-95690000D01*
%TO.C,JP2*%
X204050000Y-82000000D02*
G75*
G02*
X203350000Y-81300000I0J700000D01*
G01*
X203350000Y-80700000D02*
G75*
G02*
X204050000Y-80000000I700000J0D01*
G01*
X206150000Y-81300000D02*
G75*
G02*
X205450000Y-82000000I-699999J-1D01*
G01*
X205450000Y-80000000D02*
G75*
G02*
X206150000Y-80700000I1J-699999D01*
G01*
X203350000Y-80700000D02*
X203350000Y-81300000D01*
X204050000Y-82000000D02*
X205450000Y-82000000D01*
X205450000Y-80000000D02*
X204050000Y-80000000D01*
X206150000Y-81300000D02*
X206150000Y-80700000D01*
%TO.C,Q6*%
X189200000Y-76690000D02*
X188870000Y-76450000D01*
X189200000Y-76210000D01*
X189200000Y-76690000D01*
G36*
X189200000Y-76690000D02*
G01*
X188870000Y-76450000D01*
X189200000Y-76210000D01*
X189200000Y-76690000D01*
G37*
X190810000Y-78510000D02*
X190810000Y-76990000D01*
X189810000Y-78510000D02*
X190810000Y-78510000D01*
X187690000Y-78510000D02*
X188690000Y-78510000D01*
X190810000Y-76990000D02*
X190760000Y-76990000D01*
X189640000Y-76990000D02*
X188860000Y-76990000D01*
X187740000Y-76990000D02*
X187690000Y-76990000D01*
X187690000Y-76990000D02*
X187690000Y-78510000D01*
%TO.C,R9*%
X189477064Y-83985000D02*
X189022936Y-83985000D01*
X189477064Y-82515000D02*
X189022936Y-82515000D01*
%TO.C,R19*%
X204522936Y-77485000D02*
X204977064Y-77485000D01*
X204522936Y-76015000D02*
X204977064Y-76015000D01*
%TO.C,R7*%
X203772500Y-97012742D02*
X203772500Y-97487258D01*
X202727500Y-97012742D02*
X202727500Y-97487258D01*
%TO.C,R21*%
X204522936Y-79485000D02*
X204977064Y-79485000D01*
X204522936Y-78015000D02*
X204977064Y-78015000D01*
%TO.C,R8*%
X185537258Y-73460000D02*
X185062742Y-73460000D01*
X185537258Y-72415000D02*
X185062742Y-72415000D01*
%TO.C,R1*%
X192272500Y-73487258D02*
X192272500Y-73012742D01*
X191227500Y-73487258D02*
X191227500Y-73012742D01*
%TO.C,JP1*%
X198750000Y-73950000D02*
G75*
G02*
X198050000Y-74650000I-699999J-1D01*
G01*
X198050000Y-71850000D02*
G75*
G02*
X198750000Y-72550000I0J-700000D01*
G01*
X197450000Y-74650000D02*
G75*
G02*
X196750000Y-73950000I-1J699999D01*
G01*
X196750000Y-72550000D02*
G75*
G02*
X197450000Y-71850000I700000J0D01*
G01*
X198750000Y-73950000D02*
X198750000Y-72550000D01*
X198050000Y-71850000D02*
X197450000Y-71850000D01*
X197450000Y-74650000D02*
X198050000Y-74650000D01*
X196750000Y-72550000D02*
X196750000Y-73950000D01*
%TO.C,Q1*%
X193740000Y-71690000D02*
X193740000Y-71740000D01*
X193740000Y-72860000D02*
X193740000Y-73640000D01*
X193740000Y-74760000D02*
X193740000Y-74810000D01*
X193740000Y-74810000D02*
X195260000Y-74810000D01*
X195260000Y-71690000D02*
X193740000Y-71690000D01*
X195260000Y-72690000D02*
X195260000Y-71690000D01*
X195260000Y-74810000D02*
X195260000Y-73810000D01*
X193200000Y-73630000D02*
X192960000Y-73300000D01*
X193440000Y-73300000D01*
X193200000Y-73630000D01*
G36*
X193200000Y-73630000D02*
G01*
X192960000Y-73300000D01*
X193440000Y-73300000D01*
X193200000Y-73630000D01*
G37*
%TO.C,R13*%
X200735000Y-73477064D02*
X200735000Y-73022936D01*
X199265000Y-73477064D02*
X199265000Y-73022936D01*
%TO.C,R14*%
X202735000Y-73477064D02*
X202735000Y-73022936D01*
X201265000Y-73477064D02*
X201265000Y-73022936D01*
%TD*%
%LPC*%
%TO.C,JP4*%
G36*
X197750000Y-112900000D02*
G01*
X196250000Y-112900000D01*
X196250000Y-112600000D01*
X197750000Y-112600000D01*
X197750000Y-112900000D01*
G37*
%TO.C,JP7*%
G36*
X196250000Y-97100000D02*
G01*
X197750000Y-97100000D01*
X197750000Y-97400000D01*
X196250000Y-97400000D01*
X196250000Y-97100000D01*
G37*
%TO.C,JP6*%
G36*
X189100000Y-81750000D02*
G01*
X189400000Y-81750000D01*
X189400000Y-80250000D01*
X189100000Y-80250000D01*
X189100000Y-81750000D01*
G37*
%TO.C,JP3*%
G36*
X204900000Y-104250000D02*
G01*
X204600000Y-104250000D01*
X204600000Y-105750000D01*
X204900000Y-105750000D01*
X204900000Y-104250000D01*
G37*
%TO.C,JP5*%
G36*
X189100000Y-105750000D02*
G01*
X189400000Y-105750000D01*
X189400000Y-104250000D01*
X189100000Y-104250000D01*
X189100000Y-105750000D01*
G37*
%TO.C,JP8*%
G36*
X189250000Y-70150000D02*
G01*
X187750000Y-70150000D01*
X187750000Y-69850000D01*
X189250000Y-69850000D01*
X189250000Y-70150000D01*
G37*
%TO.C,JP2*%
G36*
X204900000Y-80250000D02*
G01*
X204600000Y-80250000D01*
X204600000Y-81750000D01*
X204900000Y-81750000D01*
X204900000Y-80250000D01*
G37*
%TO.C,JP1*%
G36*
X198500000Y-73400000D02*
G01*
X197000000Y-73400000D01*
X197000000Y-73100000D01*
X198500000Y-73100000D01*
X198500000Y-73400000D01*
G37*
%TD*%
D12*
%TO.C,R24*%
X223087500Y-82250000D03*
X224912500Y-82250000D03*
%TD*%
%TO.C,R23*%
X223087500Y-79300000D03*
X224912500Y-79300000D03*
%TD*%
D13*
%TO.C,D16*%
X217580000Y-86030000D03*
D14*
X220120000Y-86030000D03*
%TD*%
D13*
%TO.C,D15*%
X217580000Y-80560000D03*
D14*
X220120000Y-80560000D03*
%TD*%
%TO.C,D11*%
X210270000Y-77000000D03*
D13*
X207730000Y-77000000D03*
%TD*%
D15*
%TO.C,JP4*%
X197000000Y-113400000D03*
D16*
X197000000Y-112100000D03*
%TD*%
D17*
%TO.C,R20*%
X205662500Y-100750000D03*
X203837500Y-100750000D03*
%TD*%
D12*
%TO.C,R12*%
X188337500Y-103250000D03*
X190162500Y-103250000D03*
%TD*%
D18*
%TO.C,JP7*%
X197000000Y-97900000D03*
D19*
X197000000Y-96600000D03*
%TD*%
D20*
%TO.C,R18*%
X201250000Y-111837500D03*
X201250000Y-113662500D03*
%TD*%
D12*
%TO.C,R11*%
X188337500Y-85250000D03*
X190162500Y-85250000D03*
%TD*%
D21*
%TO.C,R5*%
X187425000Y-111250000D03*
X189075000Y-111250000D03*
%TD*%
D22*
%TO.C,Q8*%
X185250000Y-69062500D03*
X184300000Y-70937500D03*
X186200000Y-70937500D03*
%TD*%
D14*
%TO.C,D2*%
X183730000Y-101000000D03*
D13*
X186270000Y-101000000D03*
%TD*%
D14*
%TO.C,D8*%
X201000000Y-91730000D03*
D13*
X201000000Y-94270000D03*
%TD*%
D23*
%TO.C,Q4*%
X192812500Y-113700000D03*
X192812500Y-111800000D03*
X194687500Y-112750000D03*
%TD*%
D17*
%TO.C,R22*%
X205662500Y-102750000D03*
X203837500Y-102750000D03*
%TD*%
D14*
%TO.C,D4*%
X183730000Y-109000000D03*
D13*
X186270000Y-109000000D03*
%TD*%
D14*
%TO.C,D14*%
X210270000Y-109000000D03*
D13*
X207730000Y-109000000D03*
%TD*%
D24*
%TO.C,U1*%
X201445000Y-78425000D03*
X200175000Y-78425000D03*
X198905000Y-78425000D03*
X197635000Y-78425000D03*
X196365000Y-78425000D03*
X195095000Y-78425000D03*
X193825000Y-78425000D03*
X192555000Y-78425000D03*
X192555000Y-83575000D03*
X193825000Y-83575000D03*
X195095000Y-83575000D03*
X196365000Y-83575000D03*
X197635000Y-83575000D03*
X198905000Y-83575000D03*
X200175000Y-83575000D03*
X201445000Y-83575000D03*
%TD*%
D25*
%TO.C,R15*%
X192750000Y-96337500D03*
X192750000Y-98162500D03*
%TD*%
D20*
%TO.C,R17*%
X199250000Y-111837500D03*
X199250000Y-113662500D03*
%TD*%
D22*
%TO.C,Q5*%
X189250000Y-107312500D03*
X188300000Y-109187500D03*
X190200000Y-109187500D03*
%TD*%
D26*
%TO.C,JP6*%
X189900000Y-81000000D03*
D27*
X188600000Y-81000000D03*
%TD*%
D28*
%TO.C,R6*%
X190075000Y-74750000D03*
X188425000Y-74750000D03*
%TD*%
D25*
%TO.C,R16*%
X194750000Y-96337500D03*
X194750000Y-98162500D03*
%TD*%
D21*
%TO.C,R2*%
X203925000Y-87250000D03*
X205575000Y-87250000D03*
%TD*%
D14*
%TO.C,D7*%
X193000000Y-91730000D03*
D13*
X193000000Y-94270000D03*
%TD*%
D14*
%TO.C,D6*%
X201000000Y-67730000D03*
D13*
X201000000Y-70270000D03*
%TD*%
D29*
%TO.C,JP3*%
X204100000Y-105000000D03*
D30*
X205400000Y-105000000D03*
%TD*%
D31*
%TO.C,R4*%
X190750000Y-113575000D03*
X190750000Y-111925000D03*
%TD*%
D14*
%TO.C,D1*%
X183730000Y-77000000D03*
D13*
X186270000Y-77000000D03*
%TD*%
D21*
%TO.C,R3*%
X203925000Y-111250000D03*
X205575000Y-111250000D03*
%TD*%
D22*
%TO.C,Q2*%
X204750000Y-83312500D03*
X203800000Y-85187500D03*
X205700000Y-85187500D03*
%TD*%
D14*
%TO.C,D13*%
X210270000Y-85000000D03*
D13*
X207730000Y-85000000D03*
%TD*%
D14*
%TO.C,D5*%
X193000000Y-67730000D03*
D13*
X193000000Y-70270000D03*
%TD*%
D14*
%TO.C,D10*%
X201000000Y-118270000D03*
D13*
X201000000Y-115730000D03*
%TD*%
D12*
%TO.C,R10*%
X190162500Y-101000000D03*
X188337500Y-101000000D03*
%TD*%
D26*
%TO.C,JP5*%
X189900000Y-105000000D03*
D27*
X188600000Y-105000000D03*
%TD*%
D16*
%TO.C,JP8*%
X188500000Y-69350000D03*
D15*
X188500000Y-70650000D03*
%TD*%
D32*
%TO.C,C1*%
X199975000Y-126750000D03*
X201525000Y-126750000D03*
%TD*%
D14*
%TO.C,D3*%
X183730000Y-85000000D03*
D13*
X186270000Y-85000000D03*
%TD*%
D14*
%TO.C,D12*%
X210270000Y-101000000D03*
D13*
X207730000Y-101000000D03*
%TD*%
D22*
%TO.C,Q3*%
X204750000Y-107312500D03*
X203800000Y-109187500D03*
X205700000Y-109187500D03*
%TD*%
D33*
%TO.C,Q7*%
X199312500Y-97250000D03*
X201187500Y-98200000D03*
X201187500Y-96300000D03*
%TD*%
D29*
%TO.C,JP2*%
X204100000Y-81000000D03*
D30*
X205400000Y-81000000D03*
%TD*%
D34*
%TO.C,Q6*%
X189250000Y-78687500D03*
X190200000Y-76812500D03*
X188300000Y-76812500D03*
%TD*%
D14*
%TO.C,D9*%
X193000000Y-118270000D03*
D13*
X193000000Y-115730000D03*
%TD*%
D12*
%TO.C,R9*%
X188337500Y-83250000D03*
X190162500Y-83250000D03*
%TD*%
D17*
%TO.C,R19*%
X203837500Y-76750000D03*
X205662500Y-76750000D03*
%TD*%
D35*
%TO.C,R7*%
X203250000Y-98075000D03*
X203250000Y-96425000D03*
%TD*%
D17*
%TO.C,R21*%
X203837500Y-78750000D03*
X205662500Y-78750000D03*
%TD*%
D21*
%TO.C,R8*%
X184475000Y-72937500D03*
X186125000Y-72937500D03*
%TD*%
D31*
%TO.C,R1*%
X191750000Y-72425000D03*
X191750000Y-74075000D03*
%TD*%
D16*
%TO.C,JP1*%
X197750000Y-72600000D03*
D15*
X197750000Y-73900000D03*
%TD*%
D23*
%TO.C,Q1*%
X193562500Y-74200000D03*
X193562500Y-72300000D03*
X195437500Y-73250000D03*
%TD*%
D25*
%TO.C,R13*%
X200000000Y-72337500D03*
X200000000Y-74162500D03*
%TD*%
%TO.C,R14*%
X202000000Y-72337500D03*
X202000000Y-74162500D03*
%TD*%
%LPD*%
M02*
