<?xml version="1.0" standalone="no"?>
 <!DOCTYPE svg PUBLIC "-//W3C//DTD SVG 1.1//EN" 
 "http://www.w3.org/Graphics/SVG/1.1/DTD/svg11.dtd"> 
<svg
  xmlns:svg="http://www.w3.org/2000/svg"
  xmlns="http://www.w3.org/2000/svg"
  xmlns:xlink="http://www.w3.org/1999/xlink"
  version="1.1"
  width="297.0022mm" height="419.9890mm" viewBox="0.0000 0.0000 297.0022 419.9890">
<title>SVG Image created as 7_seg_led_tht_3mm-User_9.svg date 2026/01/05 23:17:46 </title>
  <desc>Image generated by PCBNEW </desc>
<g style="fill:#000000; fill-opacity:1.0000;stroke:#000000; stroke-opacity:1.0000;
stroke-linecap:round; stroke-linejoin:round;"
 transform="translate(0 0) scale(1 1)">
</g>
<g style="fill:#000000; fill-opacity:1.0000; 
stroke:#000000; stroke-width:0.0212; stroke-opacity:1; 
stroke-linecap:round; stroke-linejoin:round;">
<rect x="-144.214306" y="9.949995" width="1145.264306" height="331.600105" rx="0.000000" />
<path style="fill:#FFFFFF; fill-opacity:1.0000; stroke:none;fill-rule:evenodd;"
d="M 106.8946,100.0123
106.8946,101.6030
107.0283,101.4163
107.1769,101.2445
107.3591,101.1012
107.5819,100.9831
107.8524,100.8863
108.1777,100.8074
108.2536,100.7928
108.3925,100.7744
108.5859,100.7591
108.8240,100.7471
109.0967,100.7383
109.3940,100.7327
109.7060,100.7304
110.0225,100.7312
110.3336,100.7352
110.6293,100.7425
110.8996,100.7529
111.1345,100.7666
111.3240,100.7834
111.4007,100.7933
111.7925,100.8675
112.1282,100.9652
112.4128,101.0893
112.6517,101.2427
112.8501,101.4286
113.0131,101.6499
113.0685,101.7469
113.1744,101.9940
113.2599,102.2918
113.3252,102.6296
113.3702,102.9965
113.3948,103.3819
113.3992,103.7750
113.3833,104.1651
113.3471,104.5413
113.2906,104.8930
113.2139,105.2094
113.1168,105.4797
113.0685,105.5797
112.9136,105.8204
112.7227,106.0238
112.4910,106.1924
112.2140,106.3291
111.8868,106.4365
111.5048,106.5173
111.4246,106.5300
111.2970,106.5441
111.1152,106.5569
110.8896,106.5682
110.6308,106.5779
110.3491,106.5858
110.0552,106.5918
109.7593,106.5956
109.4721,106.5972
109.2040,106.5963
108.9654,106.5928
108.7669,106.5865
108.6189,106.5772
108.5934,106.5747
108.2105,106.5211
107.8846,106.4487
107.6102,106.3553
107.3814,106.2383
107.1928,106.0955
107.0387,105.9243
107.0238,105.9040
106.8946,105.7236
106.8946,106.1172
106.8946,106.5107
106.4740,106.5107
106.0534,106.5107
106.0534,103.7555
106.9060,103.7555
106.9105,104.0201
106.9203,104.2686
106.9354,104.4877
106.9557,104.6641
106.9713,104.7473
107.0497,105.0144
107.1528,105.2338
107.2872,105.4112
107.4595,105.5524
107.6764,105.6631
107.9447,105.7492
108.1889,105.8021
108.2934,105.8158
108.4492,105.8295
108.6430,105.8424
108.8614,105.8541
109.0911,105.8639
109.3187,105.8713
109.5308,105.8756
109.7141,105.8763
109.8391,105.8736
109.9481,105.8694
110.1037,105.8636
110.2878,105.8570
110.4824,105.8503
110.5510,105.8479
110.9387,105.8247
111.2690,105.7822
111.5467,105.7186
111.7765,105.6322
111.9632,105.5211
112.1117,105.3837
112.2155,105.2380
112.3000,105.0516
112.3704,104.8112
112.4252,104.5264
112.4633,104.2065
112.4832,103.8612
112.4837,103.4998
112.4784,103.3578
112.4504,102.9732
112.4044,102.6464
112.3371,102.3723
112.2455,102.1459
112.1261,101.9619
111.9759,101.8152
111.7915,101.7007
111.5698,101.6131
111.3452,101.5553
111.1725,101.5275
110.9460,101.5044
110.6765,101.4859
110.3746,101.4722
110.0513,101.4632
109.7171,101.4591
109.3830,101.4599
109.0596,101.4656
108.7578,101.4764
108.4881,101.4922
108.2615,101.5131
108.0918,101.5386
107.8061,101.6081
107.5745,101.6964
107.3894,101.8112
107.2429,101.9601
107.1275,102.1509
107.0354,102.3912
106.9653,102.6592
106.9425,102.8037
106.9252,102.9990
106.9133,103.2316
106.9070,103.4882
106.9060,103.7555
106.0534,103.7555
106.0534,102.4661
106.0534,98.4215
106.4740,98.4215
106.8946,98.4215
Z" /> 
<path style="fill:#FFFFFF; fill-opacity:1.0000; stroke:none;fill-rule:evenodd;"
d="M 134.6840,100.8014
134.9781,100.8034
135.2234,100.8068
135.4276,100.8120
135.5987,100.8192
135.7446,100.8287
135.8733,100.8407
135.9926,100.8555
136.0031,100.8570
136.3952,100.9246
136.7311,101.0096
137.0175,101.1147
137.2612,101.2425
137.4690,101.3959
137.5538,101.4751
137.6926,101.6323
137.8040,101.8021
137.8917,101.9947
137.9594,102.2200
138.0105,102.4880
138.0488,102.8088
138.0534,102.8587
138.0797,103.2731
138.0870,103.6923
138.0759,104.1027
138.0471,104.4908
138.0013,104.8430
137.9410,105.1381
137.8500,105.4336
137.7367,105.6767
137.5929,105.8779
137.4109,106.0479
137.1825,106.1973
137.1197,106.2314
136.9678,106.3043
136.8061,106.3672
136.6289,106.4206
136.4305,106.4653
136.2050,106.5019
135.9468,106.5313
135.6499,106.5542
135.3086,106.5712
134.9172,106.5831
134.4699,106.5905
134.2199,106.5929
133.9198,106.5943
133.6288,106.5943
133.3557,106.5928
133.1096,106.5901
132.8991,106.5862
132.7334,106.5813
132.6211,106.5754
132.6020,106.5737
132.4346,106.5535
132.2375,106.5243
132.0443,106.4913
131.9763,106.4783
131.6132,106.3878
131.3056,106.2695
131.0488,106.1188
130.8378,105.9311
130.6680,105.7018
130.5344,105.4265
130.4322,105.1005
130.4086,104.9998
130.3885,104.9029
130.3727,104.8100
130.3606,104.7121
130.3517,104.5996
130.3457,104.4635
130.3419,104.2942
130.3398,104.0827
130.3391,103.8194
130.3390,103.7118
131.9400,103.7118
131.9496,104.0779
131.9809,104.3868
132.0378,104.6435
132.1244,104.8529
132.2445,105.0201
132.4021,105.1500
132.6011,105.2476
132.8455,105.3180
133.1392,105.3662
133.2541,105.3786
133.3854,105.3870
133.5666,105.3924
133.7856,105.3950
134.0300,105.3950
134.2877,105.3926
134.5464,105.3879
134.7938,105.3811
135.0179,105.3725
135.2063,105.3623
135.3468,105.3505
135.3847,105.3457
135.6712,105.2885
135.9027,105.2050
136.0855,105.0900
136.2257,104.9383
136.3297,104.7446
136.4035,104.5037
136.4070,104.4884
136.4252,104.3654
136.4385,104.1931
136.4469,103.9869
136.4503,103.7620
136.4488,103.5338
136.4424,103.3174
136.4309,103.1282
136.4145,102.9815
136.4087,102.9485
136.3350,102.6848
136.2276,102.4737
136.0828,102.3105
135.8969,102.1903
135.7847,102.1439
135.6550,102.1025
135.5218,102.0697
135.3757,102.0447
135.2070,102.0265
135.0065,102.0142
134.7646,102.0070
134.4719,102.0039
134.3169,102.0036
133.9104,102.0070
133.5624,102.0176
133.2672,102.0366
133.0188,102.0650
132.8115,102.1039
132.6393,102.1541
132.4966,102.2169
132.3773,102.2932
132.2967,102.3629
132.1781,102.5033
132.0858,102.6707
132.0177,102.8724
131.9720,103.1157
131.9468,103.4078
131.9400,103.7118
130.3390,103.7118
130.3390,103.6957
130.3394,103.4094
130.3408,103.1785
130.3438,102.9936
130.3488,102.8454
130.3564,102.7246
130.3671,102.6218
130.3814,102.5276
130.3997,102.4329
130.4099,102.3852
130.5029,102.0540
130.6273,101.7753
130.7877,101.5427
130.9888,101.3499
131.2352,101.1905
131.3011,101.1567
131.4756,101.0795
131.6645,101.0133
131.8735,100.9575
132.1083,100.9113
132.3743,100.8742
132.6773,100.8454
133.0228,100.8243
133.4164,100.8102
133.8637,100.8026
134.3331,100.8006
Z" /> 
<path style="fill:#FFFFFF; fill-opacity:1.0000; stroke:none;fill-rule:evenodd;"
d="M 121.0922,98.4233
121.5431,98.4270
121.9389,98.4332
122.2845,98.4423
122.5848,98.4544
122.8445,98.4696
123.0685,98.4881
123.2616,98.5101
123.3318,98.5200
123.7371,98.5982
124.0880,98.7056
124.3876,98.8456
124.6390,99.0215
124.8452,99.2370
125.0094,99.4954
125.1345,99.8001
125.2235,100.1546
125.2797,100.5624
125.2929,100.7313
125.3151,101.0748
124.3925,101.0748
123.4698,101.0748
123.4544,100.8355
123.4124,100.5839
123.3214,100.3744
123.1818,100.2075
122.9938,100.0835
122.8370,100.0234
122.7484,99.9992
122.6538,99.9785
122.5481,99.9611
122.4260,99.9468
122.2821,99.9354
122.1114,99.9266
121.9084,99.9203
121.6680,99.9163
121.3848,99.9143
121.0536,99.9142
120.6692,99.9157
120.2263,99.9187
120.1415,99.9194
119.7219,99.9230
119.3617,99.9266
119.0556,99.9306
118.7983,99.9350
118.5845,99.9399
118.4089,99.9456
118.2661,99.9522
118.1509,99.9599
118.0580,99.9688
117.9820,99.9791
117.9355,99.9873
117.6728,100.0540
117.4636,100.1447
117.2999,100.2670
117.1742,100.4288
117.0788,100.6378
117.0058,100.9017
117.0015,100.9215
116.9852,101.0328
116.9706,101.1987
116.9579,101.4091
116.9473,101.6539
116.9389,101.9229
116.9331,102.2061
116.9298,102.4933
116.9293,102.7745
116.9318,103.0395
116.9374,103.2782
116.9463,103.4805
116.9549,103.5977
116.9947,103.9298
117.0499,104.2048
117.1239,104.4291
117.2196,104.6092
117.3403,104.7514
117.4892,104.8623
117.6068,104.9225
117.6909,104.9574
117.7768,104.9873
117.8702,105.0126
117.9768,105.0339
118.1024,105.0514
118.2525,105.0658
118.4331,105.0774
118.6497,105.0867
118.9080,105.0940
119.2139,105.1000
119.5729,105.1050
119.9908,105.1094
119.9991,105.1095
120.4831,105.1134
120.9073,105.1148
121.2765,105.1135
121.5954,105.1090
121.8690,105.1011
122.1020,105.0892
122.2994,105.0731
122.4658,105.0524
122.6061,105.0267
122.7253,104.9957
122.8280,104.9589
122.9191,104.9161
122.9778,104.8828
123.1467,104.7477
123.2927,104.5682
123.4012,104.3641
123.4409,104.2444
123.4641,104.1291
123.4868,103.9759
123.5050,103.8115
123.5101,103.7509
123.5337,103.4368
121.7502,103.4368
119.9668,103.4368
119.9668,102.8220
119.9668,102.2073
122.6566,102.2073
125.3464,102.2073
125.3289,103.2831
125.3214,103.6591
125.3114,103.9783
125.2983,104.2486
125.2812,104.4778
125.2593,104.6738
125.2319,104.8445
125.1980,104.9979
125.1569,105.1417
125.1317,105.2174
124.9927,105.5376
124.8141,105.8080
124.5927,106.0320
124.3250,106.2127
124.0076,106.3536
123.9291,106.3800
123.8309,106.4109
123.7380,106.4377
123.6454,106.4609
123.5481,106.4808
123.4410,106.4975
123.3190,106.5114
123.1771,106.5229
123.0102,106.5321
122.8133,106.5394
122.5813,106.5450
122.3092,106.5493
121.9918,106.5525
121.6242,106.5549
121.2012,106.5569
120.7918,106.5583
120.4038,106.5595
120.0306,106.5603
119.6780,106.5607
119.3516,106.5608
119.0570,106.5606
118.8001,106.5601
118.5865,106.5592
118.4218,106.5581
118.3118,106.5566
118.2680,106.5553
117.8831,106.5315
117.5548,106.5058
117.2750,106.4768
117.0355,106.4430
116.8282,106.4032
116.6450,106.3557
116.4777,106.2992
116.3182,106.2324
116.2559,106.2029
115.9493,106.0218
115.6929,105.8005
115.4851,105.5371
115.3243,105.2297
115.2470,105.0146
115.2068,104.8763
115.1729,104.7409
115.1447,104.6016
115.1218,104.4516
115.1035,104.2841
115.0895,104.0922
115.0791,103.8691
115.0720,103.6081
115.0676,103.3023
115.0653,102.9450
115.0647,102.5632
115.0654,102.1512
115.0675,101.7971
115.0717,101.4941
115.0783,101.2353
115.0876,101.0139
115.1002,100.8230
115.1165,100.6559
115.1367,100.5056
115.1615,100.3655
115.1912,100.2286
115.2126,100.1408
115.3330,99.7864
115.5038,99.4718
115.7226,99.1992
115.9868,98.9713
116.2938,98.7905
116.6413,98.6594
116.7399,98.6332
116.9428,98.5902
117.1769,98.5525
117.4459,98.5201
117.7537,98.4927
118.1038,98.4701
118.5001,98.4521
118.9462,98.4385
119.4460,98.4292
120.0032,98.4238
120.5815,98.4222
Z" /> 
<path style="fill:#FFFFFF; fill-opacity:1.0000; stroke:none;fill-rule:evenodd;"
d="M 88.0954,98.8907
88.0954,99.2952
86.0569,99.2952
84.0185,99.2952
84.0185,102.9029
84.0185,106.5107
83.5331,106.5107
83.0478,106.5107
83.0478,102.9029
83.0478,99.2952
81.0093,99.2952
78.9708,99.2952
78.9708,98.8907
78.9708,98.4862
83.5331,98.4862
88.0954,98.4862
Z" /> 
<path style="fill:#FFFFFF; fill-opacity:1.0000; stroke:none;fill-rule:evenodd;"
d="M 90.1986,103.6633
90.1986,106.5107
89.7780,106.5107
89.3573,106.5107
89.3573,103.6633
89.3573,100.8159
89.7780,100.8159
90.1986,100.8159
Z" /> 
<path style="fill:#FFFFFF; fill-opacity:1.0000; stroke:none;fill-rule:evenodd;"
d="M 95.9137,100.7207
96.1705,100.7249
96.3994,100.7326
96.5864,100.7441
96.6708,100.7525
97.0387,100.8134
97.3515,100.9009
97.6146,101.0179
97.8333,101.1676
98.0129,101.3532
98.1586,101.5778
98.1946,101.6492
98.2955,101.8605
98.3909,101.6826
98.5406,101.4501
98.7223,101.2560
98.9419,101.0965
99.2055,100.9682
99.5190,100.8674
99.8552,100.7960
100.0047,100.7767
100.2066,100.7599
100.4485,100.7460
100.7182,100.7351
101.0033,100.7275
101.2916,100.7234
101.5707,100.7232
101.8283,100.7269
102.0522,100.7350
102.2299,100.7476
102.2401,100.7486
102.6318,100.8032
102.9668,100.8814
103.2500,100.9864
103.4860,101.1214
103.6797,101.2897
103.8358,101.4946
103.9592,101.7392
104.0372,101.9646
104.0485,102.0081
104.0583,102.0589
104.0667,102.1219
104.0738,102.2020
104.0799,102.3043
104.0849,102.4336
104.0892,102.5948
104.0927,102.7930
104.0957,103.0330
104.0983,103.3199
104.1007,103.6584
104.1028,104.0536
104.1042,104.3347
104.1145,106.5107
103.6926,106.5107
103.2707,106.5107
103.2697,104.6421
103.2690,104.2922
103.2673,103.9553
103.2647,103.6381
103.2613,103.3474
103.2572,103.0899
103.2526,102.8723
103.2474,102.7012
103.2419,102.5834
103.2379,102.5360
103.1934,102.3002
103.1233,102.0987
103.0231,101.9295
102.8888,101.7903
102.7161,101.6788
102.5008,101.5929
102.2387,101.5304
101.9256,101.4889
101.5572,101.4664
101.1995,101.4604
100.7142,101.4708
100.2869,101.5042
99.9144,101.5620
99.5938,101.6455
99.3218,101.7562
99.0956,101.8953
98.9119,102.0642
98.7678,102.2644
98.6602,102.4971
98.6232,102.6117
98.6112,102.6597
98.6009,102.7166
98.5921,102.7880
98.5847,102.8791
98.5784,102.9955
98.5732,103.1424
98.5687,103.3254
98.5649,103.5498
98.5616,103.8209
98.5585,104.1443
98.5555,104.5253
98.5546,104.6583
98.5416,106.5107
98.1234,106.5107
97.7053,106.5107
97.7044,104.6421
97.7036,104.2922
97.7019,103.9553
97.6993,103.6381
97.6959,103.3474
97.6919,103.0899
97.6872,102.8723
97.6821,102.7012
97.6766,102.5834
97.6725,102.5360
97.6288,102.3019
97.5600,102.1018
97.4621,101.9335
97.3307,101.7949
97.1616,101.6836
96.9506,101.5976
96.6935,101.5346
96.3859,101.4923
96.0237,101.4687
95.6026,101.4615
95.6022,101.4615
95.2393,101.4659
94.9298,101.4793
94.6627,101.5030
94.4273,101.5383
94.2126,101.5863
94.0247,101.6427
93.7398,101.7587
93.5092,101.9007
93.3250,102.0760
93.1795,102.2916
93.0717,102.5364
93.0562,102.5805
93.0429,102.6237
93.0318,102.6713
93.0226,102.7288
93.0150,102.8015
93.0089,102.8950
93.0040,103.0146
93.0001,103.1658
92.9969,103.3541
92.9944,103.5848
92.9922,103.8634
92.9901,104.1953
92.9879,104.5860
92.9877,104.6259
92.9775,106.5107
92.5587,106.5107
92.1400,106.5107
92.1400,103.6633
92.1400,100.8159
92.5606,100.8159
92.9813,100.8159
92.9813,101.3380
92.9813,101.8600
93.0944,101.6340
93.2316,101.4064
93.3990,101.2170
93.6022,101.0629
93.8467,100.9411
94.1379,100.8486
94.4814,100.7823
94.7110,100.7543
94.8933,100.7404
95.1190,100.7301
95.3737,100.7234
95.6434,100.7202
Z" /> 
<path style="fill:#FFFFFF; fill-opacity:1.0000; stroke:none;fill-rule:evenodd;"
d="M 128.7031,102.4823
128.7031,106.5107
127.9103,106.5107
127.1176,106.5107
127.1176,102.4823
127.1176,98.4539
127.9103,98.4539
128.7031,98.4539
Z" /> 
<path style="fill:#FFFFFF; fill-opacity:1.0000; stroke:none;fill-rule:evenodd;"
d="M 139.8216,100.8882
140.6845,100.8968
141.5033,103.1090
141.6369,103.4698
141.7641,103.8126
141.8830,104.1327
141.9919,104.4252
142.0890,104.6853
142.1724,104.9083
142.2404,105.0894
142.2912,105.2237
142.3230,105.3065
142.3339,105.3330
142.3468,105.3054
142.3804,105.2218
142.4329,105.0870
142.5026,104.9056
142.5876,104.6824
142.6861,104.4221
142.7964,104.1293
142.9166,103.8089
143.0451,103.4654
143.1735,103.1208
144.0014,100.8968
144.8701,100.8886
145.7389,100.8804
146.5627,103.1117
146.6965,103.4735
146.8238,103.8166
146.9431,104.1366
147.0523,104.4286
147.1499,104.6879
147.2340,104.9099
147.3027,105.0897
147.3545,105.2228
147.3874,105.3044
147.3996,105.3299
147.4129,105.2983
147.4472,105.2108
147.5007,105.0724
147.5715,104.8878
147.6579,104.6617
147.7579,104.3990
147.8699,104.1045
147.9919,103.7829
148.1222,103.4389
148.2477,103.1068
149.0828,100.8968
149.9380,100.8882
150.7932,100.8796
149.6584,103.6951
148.5235,106.5107
147.4062,106.5105
146.2889,106.5103
145.6123,104.6046
145.4923,104.2669
145.3781,103.9458
145.2714,103.6465
145.1744,103.3747
145.0889,103.1357
145.0169,102.9351
144.9604,102.7784
144.9213,102.6709
144.9016,102.6181
144.9005,102.6154
144.8916,102.6036
144.8792,102.6067
144.8617,102.6287
144.8375,102.6738
144.8050,102.7459
144.7625,102.8491
144.7085,102.9875
144.6414,103.1650
144.5597,103.3857
144.4616,103.6536
144.3456,103.9728
144.2101,104.3474
144.1502,104.5133
143.4351,106.4945
142.3323,106.5030
142.0717,106.5043
141.8321,106.5042
141.6213,106.5027
141.4466,106.5000
141.3157,106.4961
141.2361,106.4913
141.2145,106.4869
141.2005,106.4538
141.1643,106.3650
141.1074,106.2248
141.0317,106.0374
140.9390,105.8072
140.8309,105.5385
140.7091,105.2357
140.5755,104.9030
140.4318,104.5448
140.2797,104.1654
140.1304,103.7927
139.9709,103.3947
139.8175,103.0118
139.6719,102.6488
139.5361,102.3100
139.4117,102.0001
139.3007,101.7236
139.2049,101.4849
139.1260,101.2887
139.0659,101.1394
139.0264,101.0416
139.0100,101.0014
138.9588,100.8796
Z" /> 
<path style="fill:#FFFFFF; fill-opacity:1.0000; stroke:none;fill-rule:evenodd;"
d="M 90.1986,98.9554
90.1986,99.4893
89.7780,99.4893
89.3573,99.4893
89.3573,98.9554
89.3573,98.4215
89.7780,98.4215
90.1986,98.4215
Z" /> 
</g> 
</svg>
