  0
SECTION
  2
HEADER
  9
$ANGBASE
  50
0.0
  9
$ANGDIR
  70
1
  9
$MEASUREMENT
  70
1
  0
ENDSEC
  0
SECTION
  2
TABLES
  0
TABLE
  2
LTYPE
  70
4
  0
LTYPE
  5
40F
  2
CONTINUOUS
  70
0
  3
Solid line
  72
65
  73
0
  40
0.0
  0
LTYPE
  5
410
  2
DASHDOT
 70
0
  3
Dash Dot ____ _ ____ _
 72
65
 73
4
 40
2.0
 49
1.25
 49
-0.25
 49
0.25
 49
-0.25
  0
LTYPE
  5
411
  2
DASHED
 70
0
  3
Dashed __ __ __ __ __
 72
65
 73
2
 40
0.75
 49
0.5
 49
-0.25
  0
LTYPE
  5
43B
  2
DOTTED
 70
0
  3
Dotted .  .  .  .
 72
65
 73
2
 40
0.2
 49
0.0
 49
-0.2
  0
ENDTAB
  0
TABLE
  2
STYLE
  70
4
  0
STYLE
  2
KICAD
  70
0
  40
0
  41
1
  42
1
  50
0
  71
0
  3
isocp.shx
  0
STYLE
  2
KICADB
  70
0
  40
0
  41
1
  42
1
  50
0
  71
0
  3
isocp.shx
  0
STYLE
  2
KICADI
  70
0
  40
0
  41
1
  42
1
  50
15
  71
0
  3
isocp.shx
  0
STYLE
  2
KICADBI
  70
0
  40
0
  41
1
  42
1
  50
15
  71
0
  3
isocp.shx
  0
ENDTAB
  0
TABLE
  2
LAYER
  70
1
  0
LAYER
  2
BLACK
  70
0
  62
7
  6
CONTINUOUS
  0
ENDTAB
  0
ENDSEC
  0
SECTION
  2
ENTITIES
0
LINE
8
BLACK
6
CONTINUOUS
10
113.
20
-96.
11
113.
21
-93.
0
LINE
8
BLACK
6
CONTINUOUS
10
117.
20
-93.
11
117.
21
-96.
0
LINE
8
BLACK
6
CONTINUOUS
10
113.
20
-93.
11
117.
21
-93.
0
LINE
8
BLACK
6
CONTINUOUS
10
79.
20
-96.
11
113.
21
-96.
0
LINE
8
BLACK
6
CONTINUOUS
10
79.
20
-110.
11
79.
21
-96.
0
LINE
8
BLACK
6
CONTINUOUS
10
151.
20
-110.
11
79.
21
-110.
0
LINE
8
BLACK
6
CONTINUOUS
10
151.
20
-96.
11
151.
21
-110.
0
LINE
8
BLACK
6
CONTINUOUS
10
117.
20
-96.
11
151.
21
-96.
0
LINE
8
BLACK
6
CONTINUOUS
10
113.
20
-34.
11
117.
21
-34.
0
LINE
8
BLACK
6
CONTINUOUS
10
117.
20
-34.
11
117.
21
-37.
0
LINE
8
BLACK
6
CONTINUOUS
10
117.
20
-37.
11
113.
21
-37.
0
LINE
8
BLACK
6
CONTINUOUS
10
113.
20
-37.
11
113.
21
-34.
0
LINE
8
BLACK
6
CONTINUOUS
10
77.
20
-69.
11
77.
21
-85.
0
LINE
8
BLACK
6
CONTINUOUS
10
127.
20
-91.
11
143.
21
-91.
0
LINE
8
BLACK
6
CONTINUOUS
10
59.9999970000000005
20
-114.9999989999999883
11
29.9999959999999994
21
-114.9999979999999908
0
ARC
8
BLACK
10
123.
20
-61.
40
2.
50
-180.00000000
51
-0.00000000
0
ARC
8
BLACK
10
175.
20
-41.
40
2.
50
-90.00000000
51
90.00000000
0
LINE
8
BLACK
6
CONTINUOUS
10
159.
20
-39.
11
175.
21
-39.
0
LINE
8
BLACK
6
CONTINUOUS
10
145.
20
-45.
11
145.
21
-61.
0
ARC
8
BLACK
10
179.
20
-61.
40
2.
50
-180.00000000
51
-0.00000000
0
LINE
8
BLACK
6
CONTINUOUS
10
43.9999940000000009
20
-107.000001999999995
11
46.9999940000000009
21
-107.000001999999995
0
LINE
8
BLACK
6
CONTINUOUS
10
46.9999940000000009
20
-107.000001999999995
11
46.9999940000000009
21
-111.000001999999995
0
LINE
8
BLACK
6
CONTINUOUS
10
46.9999940000000009
20
-111.000001999999995
11
43.9999940000000009
21
-111.000001999999995
0
LINE
8
BLACK
6
CONTINUOUS
10
43.9999940000000009
20
-111.000001999999995
11
43.9999940000000009
21
-107.000001999999995
0
ARC
8
BLACK
10
200.
20
-30.
40
15.0000020000005314
50
0.00000000
51
90.00001528
0
ARC
8
BLACK
10
127.
20
-89.
40
2.
50
-270.00000000
51
-90.00000000
0
LINE
8
BLACK
6
CONTINUOUS
10
15.
20
-29.9999830000000003
11
14.9999959999999994
21
-99.9999959999999959
0
ARC
8
BLACK
10
103.
20
-65.
40
2.
50
-90.00000000
51
90.00000000
0
CIRCLE
8
BLACK
10
114.9999989999999883
20
-59.0000719999999959
40
2.
0
ARC
8
BLACK
10
83.
20
-69.
40
2.
50
0.00000000
51
180.00000000
0
LINE
8
BLACK
6
CONTINUOUS
10
77.
20
-45.
11
77.
21
-61.
0
LINE
8
BLACK
6
CONTINUOUS
10
153.
20
-69.
11
153.
21
-85.
0
LINE
8
BLACK
6
CONTINUOUS
10
127.
20
-67.
11
143.
21
-67.
0
LINE
8
BLACK
6
CONTINUOUS
10
87.
20
-67.
11
103.
21
-67.
0
LINE
8
BLACK
6
CONTINUOUS
10
199.9999959999999817
20
-14.9999979999999997
11
199.9999959999999817
21
-19.
0
ARC
8
BLACK
10
159.
20
-65.
40
2.
50
-270.00000000
51
-90.00000000
0
LINE
8
BLACK
6
CONTINUOUS
10
169.9999969999999792
20
-114.9999979999999908
11
169.9999969999999792
21
-111.9999989999999883
0
LINE
8
BLACK
6
CONTINUOUS
10
49.
20
-45.
11
49.
21
-61.
0
ARC
8
BLACK
10
179.
20
-69.
40
2.
50
0.00000000
51
180.00000000
0
LINE
8
BLACK
6
CONTINUOUS
10
55.
20
-67.
11
71.
21
-67.
0
LINE
8
BLACK
6
CONTINUOUS
10
163.9999969999999792
20
-111.9999989999999883
11
163.9999969999999792
21
-114.9998279999999937
0
ARC
8
BLACK
10
155.
20
-69.
40
2.
50
0.00000000
51
180.00000000
0
ARC
8
BLACK
10
159.
20
-89.
40
2.
50
-270.00000000
51
-90.00000000
0
ARC
8
BLACK
10
107.
20
-45.
40
2.
50
0.00000000
51
180.00000000
0
LINE
8
BLACK
6
CONTINUOUS
10
85.
20
-69.
11
85.
21
-85.
0
ARC
8
BLACK
10
70.9999699999999905
20
-41.
40
2.000000000225
50
-89.99914056
51
89.99914056
0
LINE
8
BLACK
6
CONTINUOUS
10
87.
20
-63.
11
103.
21
-63.
0
ARC
8
BLACK
10
107.
20
-85.
40
2.
50
-180.00000000
51
-0.00000000
0
LINE
8
BLACK
6
CONTINUOUS
10
163.9999969999999792
20
-114.9998279999999937
11
65.9999969999999934
21
-114.9999989999999883
0
ARC
8
BLACK
10
147.
20
-45.
40
2.
50
0.00000000
51
180.00000000
0
ARC
8
BLACK
10
200.
20
-100.
40
14.9999960000001327
50
-90.00002292
51
0.00000764
0
LINE
8
BLACK
6
CONTINUOUS
10
127.
20
-39.
11
143.
21
-39.
0
LINE
8
BLACK
6
CONTINUOUS
10
159.
20
-67.
11
175.
21
-67.
0
LINE
8
BLACK
6
CONTINUOUS
10
182.9999939999999867
20
-107.000001999999995
11
185.9999939999999867
21
-107.000001999999995
0
LINE
8
BLACK
6
CONTINUOUS
10
185.9999939999999867
20
-107.000001999999995
11
185.9999939999999867
21
-111.000001999999995
0
LINE
8
BLACK
6
CONTINUOUS
10
185.9999939999999867
20
-111.000001999999995
11
182.9999939999999867
21
-111.000001999999995
0
LINE
8
BLACK
6
CONTINUOUS
10
182.9999939999999867
20
-111.000001999999995
11
182.9999939999999867
21
-107.000001999999995
0
LINE
8
BLACK
6
CONTINUOUS
10
182.9999939999999867
20
-19.000004999999998
11
185.9999939999999867
21
-19.000004999999998
0
LINE
8
BLACK
6
CONTINUOUS
10
185.9999939999999867
20
-19.000004999999998
11
185.9999939999999867
21
-23.000004999999998
0
LINE
8
BLACK
6
CONTINUOUS
10
185.9999939999999867
20
-23.000004999999998
11
182.9999939999999867
21
-23.000004999999998
0
LINE
8
BLACK
6
CONTINUOUS
10
182.9999939999999867
20
-23.000004999999998
11
182.9999939999999867
21
-19.000004999999998
0
ARC
8
BLACK
10
87.
20
-89.
40
2.
50
-270.00000000
51
-90.00000000
0
ARC
8
BLACK
10
103.
20
-41.
40
2.
50
-90.00000000
51
90.00000000
0
LINE
8
BLACK
6
CONTINUOUS
10
109.
20
-45.
11
109.
21
-61.
0
LINE
8
BLACK
6
CONTINUOUS
10
153.
20
-45.
11
153.
21
-61.
0
LINE
8
BLACK
6
CONTINUOUS
10
149.
20
-45.
11
149.
21
-61.
0
CIRCLE
8
BLACK
10
201.9999939999999867
20
-40.000001999999995
40
1.250006
0
ARC
8
BLACK
10
143.
20
-41.
40
2.
50
-90.00000000
51
90.00000000
0
CIRCLE
8
BLACK
10
114.9999989999999883
20
-71.000072000000003
40
2.
0
LINE
8
BLACK
6
CONTINUOUS
10
53.
20
-45.
11
53.
21
-61.
0
ARC
8
BLACK
10
75.
20
-61.
40
2.
50
-180.00000000
51
-0.00000000
0
ARC
8
BLACK
10
127.
20
-65.
40
2.
50
-270.00000000
51
-90.00000000
0
LINE
8
BLACK
6
CONTINUOUS
10
182.9999939999999867
20
-63.000001999999995
11
185.9999939999999867
21
-63.000001999999995
0
LINE
8
BLACK
6
CONTINUOUS
10
185.9999939999999867
20
-63.000001999999995
11
185.9999939999999867
21
-67.000001999999995
0
LINE
8
BLACK
6
CONTINUOUS
10
185.9999939999999867
20
-67.000001999999995
11
182.9999939999999867
21
-67.000001999999995
0
LINE
8
BLACK
6
CONTINUOUS
10
182.9999939999999867
20
-67.000001999999995
11
182.9999939999999867
21
-63.000001999999995
0
LINE
8
BLACK
6
CONTINUOUS
10
105.
20
-69.
11
105.
21
-85.
0
ARC
8
BLACK
10
155.
20
-85.
40
2.
50
-180.00000000
51
-0.00000000
0
LINE
8
BLACK
6
CONTINUOUS
10
159.
20
-63.
11
175.
21
-63.
0
ARC
8
BLACK
10
107.
20
-61.
40
2.
50
-180.00000000
51
-0.00000000
0
ARC
8
BLACK
10
51.
20
-85.
40
2.
50
-180.00000000
51
-0.00000000
0
LINE
8
BLACK
6
CONTINUOUS
10
127.
20
-63.
11
143.
21
-63.
0
LINE
8
BLACK
6
CONTINUOUS
10
206.9999969999999792
20
-93.000001999999995
11
210.9999969999999792
21
-93.000001999999995
0
LINE
8
BLACK
6
CONTINUOUS
10
210.9999969999999792
20
-93.000001999999995
11
210.9999969999999792
21
-96.000001999999995
0
LINE
8
BLACK
6
CONTINUOUS
10
210.9999969999999792
20
-96.000001999999995
11
206.9999969999999792
21
-96.000001999999995
0
LINE
8
BLACK
6
CONTINUOUS
10
206.9999969999999792
20
-96.000001999999995
11
206.9999969999999792
21
-93.000001999999995
0
ARC
8
BLACK
10
155.
20
-45.
40
2.
50
0.00000000
51
180.00000000
0
LINE
8
BLACK
6
CONTINUOUS
10
18.9999939999999974
20
-93.000001999999995
11
22.9999939999999974
21
-93.000001999999995
0
LINE
8
BLACK
6
CONTINUOUS
10
22.9999939999999974
20
-93.000001999999995
11
22.9999939999999974
21
-96.000001999999995
0
LINE
8
BLACK
6
CONTINUOUS
10
22.9999939999999974
20
-96.000001999999995
11
18.9999939999999974
21
-96.000001999999995
0
LINE
8
BLACK
6
CONTINUOUS
10
18.9999939999999974
20
-96.000001999999995
11
18.9999939999999974
21
-93.000001999999995
0
LINE
8
BLACK
6
CONTINUOUS
10
65.9999969999999934
20
-111.9999989999999883
11
59.9999970000000005
21
-111.9999989999999883
0
LINE
8
BLACK
6
CONTINUOUS
10
159.
20
-91.
11
175.
21
-91.
0
ARC
8
BLACK
10
51.
20
-61.
40
2.
50
-180.00000000
51
-0.00000000
0
LINE
8
BLACK
6
CONTINUOUS
10
125.
20
-69.
11
125.
21
-85.
0
ARC
8
BLACK
10
155.
20
-61.
40
2.
50
-180.00000000
51
-0.00000000
0
ARC
8
BLACK
10
54.9999699999999976
20
-65.
40
2.000000000225
50
-270.00085944
51
-89.99914056
0
ARC
8
BLACK
10
143.
20
-89.
40
2.
50
-90.00000000
51
90.00000000
0
ARC
8
BLACK
10
51.
20
-69.
40
2.
50
0.00000000
51
180.00000000
0
ARC
8
BLACK
10
83.
20
-45.
40
2.
50
0.00000000
51
180.00000000
0
ARC
8
BLACK
10
70.9999699999999905
20
-65.
40
2.000000000225
50
-89.99914056
51
89.99914056
0
LINE
8
BLACK
6
CONTINUOUS
10
125.
20
-45.
11
125.
21
-61.
0
LINE
8
BLACK
6
CONTINUOUS
10
181.
20
-45.
11
181.
21
-61.
0
ARC
8
BLACK
10
107.
20
-69.
40
2.
50
0.00000000
51
180.00000000
0
LINE
8
BLACK
6
CONTINUOUS
10
159.
20
-87.
11
175.
21
-87.
0
ARC
8
BLACK
10
51.
20
-45.
40
2.
50
0.00000000
51
180.00000000
0
LINE
8
BLACK
6
CONTINUOUS
10
87.
20
-91.
11
103.
21
-91.
0
LINE
8
BLACK
6
CONTINUOUS
10
59.9999970000000005
20
-111.9999989999999883
11
59.9999970000000005
21
-114.9999989999999883
0
LINE
8
BLACK
6
CONTINUOUS
10
73.
20
-69.
11
73.
21
-85.
0
CIRCLE
8
BLACK
10
150.9999990000000025
20
-41.0000719999999959
40
2.
0
LINE
8
BLACK
6
CONTINUOUS
10
55.
20
-87.
11
71.
21
-87.
0
LINE
8
BLACK
6
CONTINUOUS
10
53.
20
-69.
11
53.
21
-85.
0
CIRCLE
8
BLACK
10
201.9999939999999867
20
-94.000001999999995
40
1.250006
0
LINE
8
BLACK
6
CONTINUOUS
10
55.
20
-91.
11
71.
21
-91.
0
LINE
8
BLACK
6
CONTINUOUS
10
206.9999939999999867
20
-34.000001999999995
11
210.9999939999999867
21
-34.000001999999995
0
LINE
8
BLACK
6
CONTINUOUS
10
210.9999939999999867
20
-34.000001999999995
11
210.9999939999999867
21
-37.000001999999995
0
LINE
8
BLACK
6
CONTINUOUS
10
210.9999939999999867
20
-37.000001999999995
11
206.9999939999999867
21
-37.000001999999995
0
LINE
8
BLACK
6
CONTINUOUS
10
206.9999939999999867
20
-37.000001999999995
11
206.9999939999999867
21
-34.000001999999995
0
ARC
8
BLACK
10
179.
20
-45.
40
2.
50
0.00000000
51
180.00000000
0
ARC
8
BLACK
10
147.
20
-61.
40
2.
50
-180.00000000
51
-0.00000000
0
ARC
8
BLACK
10
83.
20
-85.
40
2.
50
-180.00000000
51
-0.00000000
0
LINE
8
BLACK
6
CONTINUOUS
10
169.9999969999999792
20
-111.9999989999999883
11
163.9999969999999792
21
-111.9999989999999883
0
LINE
8
BLACK
6
CONTINUOUS
10
81.
20
-45.
11
81.
21
-61.
0
LINE
8
BLACK
6
CONTINUOUS
10
157.
20
-69.
11
157.
21
-85.
0
ARC
8
BLACK
10
123.
20
-45.
40
2.
50
0.00000000
51
180.00000000
0
LINE
8
BLACK
6
CONTINUOUS
10
105.
20
-45.
11
105.
21
-61.
0
LINE
8
BLACK
6
CONTINUOUS
10
145.
20
-69.
11
145.
21
-85.
0
LINE
8
BLACK
6
CONTINUOUS
10
81.
20
-69.
11
81.
21
-85.
0
LINE
8
BLACK
6
CONTINUOUS
10
55.
20
-43.
11
71.
21
-43.
0
LINE
8
BLACK
6
CONTINUOUS
10
177.
20
-69.
11
177.
21
-85.
0
ARC
8
BLACK
10
70.9999699999999905
20
-89.
40
2.000000000225
50
-89.99914056
51
89.99914056
0
LINE
8
BLACK
6
CONTINUOUS
10
214.9999959999999817
20
-99.9999679999999955
11
214.9999949999999842
21
-30.
0
ARC
8
BLACK
10
75.
20
-69.
40
2.
50
0.00000000
51
180.00000000
0
ARC
8
BLACK
10
30.
20
-100.
40
14.9999980000005326
50
-180.00001528
51
-90.00001528
0
ARC
8
BLACK
10
54.9999699999999976
20
-89.
40
2.000000000225
50
-270.00085944
51
-89.99914056
0
LINE
8
BLACK
6
CONTINUOUS
10
191.
20
-19.
11
191.
21
-15.
0
ARC
8
BLACK
10
54.9999699999999976
20
-41.
40
2.000000000225
50
-270.00085944
51
-89.99914056
0
LINE
8
BLACK
6
CONTINUOUS
10
121.
20
-45.
11
121.
21
-61.
0
ARC
8
BLACK
10
75.
20
-45.
40
2.
50
0.00000000
51
180.00000000
0
ARC
8
BLACK
10
83.
20
-61.
40
2.
50
-180.00000000
51
-0.00000000
0
LINE
8
BLACK
6
CONTINUOUS
10
127.
20
-87.
11
143.
21
-87.
0
ARC
8
BLACK
10
179.
20
-85.
40
2.
50
-180.00000000
51
-0.00000000
0
ARC
8
BLACK
10
29.9999949999999984
20
-29.9999969999999969
40
14.9999990000000327
50
-270.00001146
51
-179.99999618
0
LINE
8
BLACK
6
CONTINUOUS
10
49.
20
-69.
11
49.
21
-85.
0
LINE
8
BLACK
6
CONTINUOUS
10
181.
20
-69.
11
181.
21
-85.
0
ARC
8
BLACK
10
143.
20
-65.
40
2.
50
-90.00000000
51
90.00000000
0
LINE
8
BLACK
6
CONTINUOUS
10
87.
20
-39.
11
103.
21
-39.
0
ARC
8
BLACK
10
87.
20
-41.
40
2.
50
-270.00000000
51
-90.00000000
0
CIRCLE
8
BLACK
10
114.9999989999999883
20
-89.000072000000003
40
2.
0
LINE
8
BLACK
6
CONTINUOUS
10
19.
20
-34.
11
23.
21
-34.
0
LINE
8
BLACK
6
CONTINUOUS
10
23.
20
-34.
11
23.
21
-37.
0
LINE
8
BLACK
6
CONTINUOUS
10
23.
20
-37.
11
19.
21
-37.
0
LINE
8
BLACK
6
CONTINUOUS
10
19.
20
-37.
11
19.
21
-34.
0
LINE
8
BLACK
6
CONTINUOUS
10
199.9999969999999792
20
-114.9999979999999908
11
169.9999969999999792
21
-114.9999979999999908
0
ARC
8
BLACK
10
75.
20
-85.
40
2.
50
-180.00000000
51
-0.00000000
0
LINE
8
BLACK
6
CONTINUOUS
10
177.
20
-45.
11
177.
21
-61.
0
ARC
8
BLACK
10
103.
20
-89.
40
2.
50
-90.00000000
51
90.00000000
0
CIRCLE
8
BLACK
10
47.9999940000000009
20
-40.000001999999995
40
1.250006
0
LINE
8
BLACK
6
CONTINUOUS
10
43.9999940000000009
20
-63.000001999999995
11
46.9999940000000009
21
-63.000001999999995
0
LINE
8
BLACK
6
CONTINUOUS
10
46.9999940000000009
20
-63.000001999999995
11
46.9999940000000009
21
-67.000001999999995
0
LINE
8
BLACK
6
CONTINUOUS
10
46.9999940000000009
20
-67.000001999999995
11
43.9999940000000009
21
-67.000001999999995
0
LINE
8
BLACK
6
CONTINUOUS
10
43.9999940000000009
20
-67.000001999999995
11
43.9999940000000009
21
-63.000001999999995
0
ARC
8
BLACK
10
147.
20
-69.
40
2.
50
0.00000000
51
180.00000000
0
ARC
8
BLACK
10
123.
20
-69.
40
2.
50
0.00000000
51
180.00000000
0
LINE
8
BLACK
6
CONTINUOUS
10
87.
20
-43.
11
103.
21
-43.
0
ARC
8
BLACK
10
175.
20
-65.
40
2.
50
-90.00000000
51
90.00000000
0
LINE
8
BLACK
6
CONTINUOUS
10
43.9999940000000009
20
-19.0000019999999985
11
46.9999940000000009
21
-19.0000019999999985
0
LINE
8
BLACK
6
CONTINUOUS
10
46.9999940000000009
20
-19.0000019999999985
11
46.9999940000000009
21
-23.0000019999999985
0
LINE
8
BLACK
6
CONTINUOUS
10
46.9999940000000009
20
-23.0000019999999985
11
43.9999940000000009
21
-23.0000019999999985
0
LINE
8
BLACK
6
CONTINUOUS
10
43.9999940000000009
20
-23.0000019999999985
11
43.9999940000000009
21
-19.0000019999999985
0
LINE
8
BLACK
6
CONTINUOUS
10
87.
20
-87.
11
103.
21
-87.
0
ARC
8
BLACK
10
175.
20
-89.
40
2.
50
-90.00000000
51
90.00000000
0
LINE
8
BLACK
6
CONTINUOUS
10
191.
20
-15.
11
29.9999979999999979
21
-14.999998999999999
0
LINE
8
BLACK
6
CONTINUOUS
10
149.
20
-69.
11
149.
21
-85.
0
LINE
8
BLACK
6
CONTINUOUS
10
109.
20
-69.
11
109.
21
-85.
0
LINE
8
BLACK
6
CONTINUOUS
10
157.
20
-45.
11
157.
21
-61.
0
LINE
8
BLACK
6
CONTINUOUS
10
73.
20
-45.
11
73.
21
-61.
0
LINE
8
BLACK
6
CONTINUOUS
10
65.9999969999999934
20
-114.9999989999999883
11
65.9999969999999934
21
-111.9999989999999883
0
LINE
8
BLACK
6
CONTINUOUS
10
55.
20
-63.
11
71.
21
-63.
0
ARC
8
BLACK
10
123.
20
-85.
40
2.
50
-180.00000000
51
-0.00000000
0
LINE
8
BLACK
6
CONTINUOUS
10
127.
20
-43.
11
143.
21
-43.
0
ARC
8
BLACK
10
87.
20
-65.
40
2.
50
-270.00000000
51
-90.00000000
0
LINE
8
BLACK
6
CONTINUOUS
10
85.
20
-45.
11
85.
21
-61.
0
CIRCLE
8
BLACK
10
47.9999940000000009
20
-94.000001999999995
40
1.250006
0
LINE
8
BLACK
6
CONTINUOUS
10
159.
20
-43.
11
175.
21
-43.
0
ARC
8
BLACK
10
147.
20
-85.
40
2.
50
-180.00000000
51
-0.00000000
0
ARC
8
BLACK
10
159.
20
-41.
40
2.
50
-270.00000000
51
-90.00000000
0
LINE
8
BLACK
6
CONTINUOUS
10
199.9999959999999817
20
-19.
11
191.
21
-19.
0
LINE
8
BLACK
6
CONTINUOUS
10
55.
20
-39.
11
71.
21
-39.
0
LINE
8
BLACK
6
CONTINUOUS
10
121.
20
-69.
11
121.
21
-85.
0
ARC
8
BLACK
10
127.
20
-41.
40
2.
50
-270.00000000
51
-90.00000000
0
LINE
8
BLACK
6
CONTINUOUS
10
60.428570999999998
20
-27.3683569999999996
11
60.428570999999998
21
-29.3683569999999996
0
LINE
8
BLACK
6
CONTINUOUS
10
61.1428559999999948
20
-26.2255000000000003
11
61.8571419999999961
21
-28.3683569999999996
0
LINE
8
BLACK
6
CONTINUOUS
10
61.8571419999999961
20
-28.3683569999999996
11
59.9999989999999954
21
-28.3683569999999996
  0
ENDSEC
  0
EOF
