  0
SECTION
  2
HEADER
  9
$ANGBASE
  50
0.0
  9
$ANGDIR
  70
1
  9
$MEASUREMENT
  70
1
  0
ENDSEC
  0
SECTION
  2
TABLES
  0
TABLE
  2
LTYPE
  70
4
  0
LTYPE
  5
40F
  2
CONTINUOUS
  70
0
  3
Solid line
  72
65
  73
0
  40
0.0
  0
LTYPE
  5
410
  2
DASHDOT
 70
0
  3
Dash Dot ____ _ ____ _
 72
65
 73
4
 40
2.0
 49
1.25
 49
-0.25
 49
0.25
 49
-0.25
  0
LTYPE
  5
411
  2
DASHED
 70
0
  3
Dashed __ __ __ __ __
 72
65
 73
2
 40
0.75
 49
0.5
 49
-0.25
  0
LTYPE
  5
43B
  2
DOTTED
 70
0
  3
Dotted .  .  .  .
 72
65
 73
2
 40
0.2
 49
0.0
 49
-0.2
  0
ENDTAB
  0
TABLE
  2
STYLE
  70
4
  0
STYLE
  2
KICAD
  70
0
  40
0
  41
1
  42
1
  50
0
  71
0
  3
isocp.shx
  0
STYLE
  2
KICADB
  70
0
  40
0
  41
1
  42
1
  50
0
  71
0
  3
isocp.shx
  0
STYLE
  2
KICADI
  70
0
  40
0
  41
1
  42
1
  50
15
  71
0
  3
isocp.shx
  0
STYLE
  2
KICADBI
  70
0
  40
0
  41
1
  42
1
  50
15
  71
0
  3
isocp.shx
  0
ENDTAB
  0
TABLE
  2
LAYER
  70
1
  0
LAYER
  2
BLACK
  70
0
  62
7
  6
CONTINUOUS
  0
ENDTAB
  0
ENDSEC
  0
SECTION
  2
ENTITIES
0
LINE
8
BLACK
6
CONTINUOUS
10
108.9999940000000009
20
-45.000001999999995
11
108.9999940000000009
21
-61.000001999999995
0
LINE
8
BLACK
6
CONTINUOUS
10
80.9999940000000009
20
-45.000001999999995
11
80.9999940000000009
21
-61.000001999999995
0
LINE
8
BLACK
6
CONTINUOUS
10
86.9999940000000009
20
-67.000001999999995
11
102.9999940000000009
21
-67.000001999999995
0
ARC
8
BLACK
10
154.9999939999999867
20
-69.000001999999995
40
2.
50
0.00000000
51
180.00000000
0
CIRCLE
8
BLACK
10
114.9999929999999893
20
-71.0000739999999979
40
2.
0
LINE
8
BLACK
6
CONTINUOUS
10
206.9999969999999792
20
-93.000001999999995
11
210.9999969999999792
21
-93.000001999999995
0
LINE
8
BLACK
6
CONTINUOUS
10
210.9999969999999792
20
-93.000001999999995
11
210.9999969999999792
21
-96.000001999999995
0
LINE
8
BLACK
6
CONTINUOUS
10
210.9999969999999792
20
-96.000001999999995
11
206.9999969999999792
21
-96.000001999999995
0
LINE
8
BLACK
6
CONTINUOUS
10
206.9999969999999792
20
-96.000001999999995
11
206.9999969999999792
21
-93.000001999999995
0
LINE
8
BLACK
6
CONTINUOUS
10
86.9999940000000009
20
-39.000001999999995
11
102.9999940000000009
21
-39.000001999999995
0
LINE
8
BLACK
6
CONTINUOUS
10
54.9999940000000009
20
-39.000001999999995
11
70.9999940000000009
21
-39.000001999999995
0
ARC
8
BLACK
10
86.9999699999999905
20
-65.
40
2.0000020001439998
50
-270.00068755
51
-89.99931245
0
LINE
8
BLACK
6
CONTINUOUS
10
158.9999939999999867
20
-43.000001999999995
11
174.9999939999999867
21
-43.000001999999995
0
ARC
8
BLACK
10
175.
20
-65.
40
1.9999980000090001
50
-90.00017189
51
90.00017189
0
ARC
8
BLACK
10
127.
20
-89.
40
2.0000020000090002
50
-269.99982811
51
-90.00017189
0
ARC
8
BLACK
10
74.9999940000000009
20
-69.000001999999995
40
2.
50
0.00000000
51
180.00000000
0
ARC
8
BLACK
10
54.9999699999999976
20
-65.
40
2.0000020001439998
50
-270.00068755
51
-89.99931245
0
LINE
8
BLACK
6
CONTINUOUS
10
84.9999940000000009
20
-45.000001999999995
11
84.9999940000000009
21
-61.000001999999995
0
ARC
8
BLACK
10
106.9999940000000009
20
-61.000001999999995
40
2.
50
-180.00000000
51
-0.00000000
0
LINE
8
BLACK
6
CONTINUOUS
10
158.9999939999999867
20
-67.000001999999995
11
174.9999939999999867
21
-67.000001999999995
0
LINE
8
BLACK
6
CONTINUOUS
10
43.9999940000000009
20
-107.000001999999995
11
46.9999940000000009
21
-107.000001999999995
0
LINE
8
BLACK
6
CONTINUOUS
10
46.9999940000000009
20
-107.000001999999995
11
46.9999940000000009
21
-111.000001999999995
0
LINE
8
BLACK
6
CONTINUOUS
10
46.9999940000000009
20
-111.000001999999995
11
43.9999940000000009
21
-111.000001999999995
0
LINE
8
BLACK
6
CONTINUOUS
10
43.9999940000000009
20
-111.000001999999995
11
43.9999940000000009
21
-107.000001999999995
0
LINE
8
BLACK
6
CONTINUOUS
10
180.9999939999999867
20
-69.000001999999995
11
180.9999939999999867
21
-85.000001999999995
0
LINE
8
BLACK
6
CONTINUOUS
10
158.9999939999999867
20
-87.000001999999995
11
174.9999939999999867
21
-87.000001999999995
0
LINE
8
BLACK
6
CONTINUOUS
10
54.9999940000000009
20
-43.000001999999995
11
70.9999940000000009
21
-43.000001999999995
0
LINE
8
BLACK
6
CONTINUOUS
10
124.9999940000000009
20
-45.000001999999995
11
124.9999940000000009
21
-61.000001999999995
0
LINE
8
BLACK
6
CONTINUOUS
10
124.9999940000000009
20
-69.000001999999995
11
124.9999940000000009
21
-85.000001999999995
0
LINE
8
BLACK
6
CONTINUOUS
10
156.9999939999999867
20
-45.000001999999995
11
156.9999939999999867
21
-61.000001999999995
0
LINE
8
BLACK
6
CONTINUOUS
10
30.0464839999999995
20
-115.000001999999995
11
199.9999880000000019
21
-114.9999889999999994
0
ARC
8
BLACK
10
127.
20
-41.
40
2.0000020000090002
50
-269.99982811
51
-90.00017189
0
LINE
8
BLACK
6
CONTINUOUS
10
206.9999939999999867
20
-34.000001999999995
11
210.9999939999999867
21
-34.000001999999995
0
LINE
8
BLACK
6
CONTINUOUS
10
210.9999939999999867
20
-34.000001999999995
11
210.9999939999999867
21
-37.000001999999995
0
LINE
8
BLACK
6
CONTINUOUS
10
210.9999939999999867
20
-37.000001999999995
11
206.9999939999999867
21
-37.000001999999995
0
LINE
8
BLACK
6
CONTINUOUS
10
206.9999939999999867
20
-37.000001999999995
11
206.9999939999999867
21
-34.000001999999995
0
LINE
8
BLACK
6
CONTINUOUS
10
76.9999940000000009
20
-45.000001999999995
11
76.9999940000000009
21
-61.000001999999995
0
LINE
8
BLACK
6
CONTINUOUS
10
43.9999940000000009
20
-63.000001999999995
11
46.9999940000000009
21
-63.000001999999995
0
LINE
8
BLACK
6
CONTINUOUS
10
46.9999940000000009
20
-63.000001999999995
11
46.9999940000000009
21
-67.000001999999995
0
LINE
8
BLACK
6
CONTINUOUS
10
46.9999940000000009
20
-67.000001999999995
11
43.9999940000000009
21
-67.000001999999995
0
LINE
8
BLACK
6
CONTINUOUS
10
43.9999940000000009
20
-67.000001999999995
11
43.9999940000000009
21
-63.000001999999995
0
ARC
8
BLACK
10
74.9999940000000009
20
-45.000001999999995
40
2.
50
0.00000000
51
180.00000000
0
LINE
8
BLACK
6
CONTINUOUS
10
54.9999940000000009
20
-91.000001999999995
11
70.9999940000000009
21
-91.000001999999995
0
ARC
8
BLACK
10
154.9999939999999867
20
-61.000001999999995
40
2.
50
-180.00000000
51
-0.00000000
0
LINE
8
BLACK
6
CONTINUOUS
10
84.9999940000000009
20
-69.000001999999995
11
84.9999940000000009
21
-85.000001999999995
0
LINE
8
BLACK
6
CONTINUOUS
10
18.9999939999999974
20
-93.000001999999995
11
22.9999939999999974
21
-93.000001999999995
0
LINE
8
BLACK
6
CONTINUOUS
10
22.9999939999999974
20
-93.000001999999995
11
22.9999939999999974
21
-96.000001999999995
0
LINE
8
BLACK
6
CONTINUOUS
10
22.9999939999999974
20
-96.000001999999995
11
18.9999939999999974
21
-96.000001999999995
0
LINE
8
BLACK
6
CONTINUOUS
10
18.9999939999999974
20
-96.000001999999995
11
18.9999939999999974
21
-93.000001999999995
0
LINE
8
BLACK
6
CONTINUOUS
10
144.9999939999999867
20
-45.000001999999995
11
144.9999939999999867
21
-61.000001999999995
0
LINE
8
BLACK
6
CONTINUOUS
10
72.9999940000000009
20
-69.000001999999995
11
72.9999940000000009
21
-85.000001999999995
0
LINE
8
BLACK
6
CONTINUOUS
10
54.9999940000000009
20
-87.000001999999995
11
70.9999940000000009
21
-87.000001999999995
0
ARC
8
BLACK
10
103.
20
-89.
40
1.9999980000090001
50
-90.00017189
51
90.00017189
0
ARC
8
BLACK
10
50.9999940000000009
20
-69.000001999999995
40
2.
50
0.00000000
51
180.00000000
0
LINE
8
BLACK
6
CONTINUOUS
10
158.9999939999999867
20
-63.000001999999995
11
174.9999939999999867
21
-63.000001999999995
0
CIRCLE
8
BLACK
10
114.9999929999999893
20
-59.0000739999999979
40
2.
0
LINE
8
BLACK
6
CONTINUOUS
10
158.9999939999999867
20
-39.000001999999995
11
174.9999939999999867
21
-39.000001999999995
0
LINE
8
BLACK
6
CONTINUOUS
10
120.9999940000000009
20
-69.000001999999995
11
120.9999940000000009
21
-85.000001999999995
0
LINE
8
BLACK
6
CONTINUOUS
10
182.9999939999999867
20
-107.000001999999995
11
185.9999939999999867
21
-107.000001999999995
0
LINE
8
BLACK
6
CONTINUOUS
10
185.9999939999999867
20
-107.000001999999995
11
185.9999939999999867
21
-111.000001999999995
0
LINE
8
BLACK
6
CONTINUOUS
10
185.9999939999999867
20
-111.000001999999995
11
182.9999939999999867
21
-111.000001999999995
0
LINE
8
BLACK
6
CONTINUOUS
10
182.9999939999999867
20
-111.000001999999995
11
182.9999939999999867
21
-107.000001999999995
0
ARC
8
BLACK
10
122.9999940000000009
20
-45.000001999999995
40
2.
50
0.00000000
51
180.00000000
0
ARC
8
BLACK
10
122.9999940000000009
20
-85.000001999999995
40
2.
50
-180.00000000
51
-0.00000000
0
ARC
8
BLACK
10
50.9999940000000009
20
-45.000001999999995
40
2.
50
0.00000000
51
180.00000000
0
LINE
8
BLACK
6
CONTINUOUS
10
71.
20
-34.
11
75.
21
-34.
0
LINE
8
BLACK
6
CONTINUOUS
10
75.
20
-34.
11
75.
21
-37.
0
LINE
8
BLACK
6
CONTINUOUS
10
75.
20
-37.
11
71.
21
-37.
0
LINE
8
BLACK
6
CONTINUOUS
10
71.
20
-37.
11
71.
21
-34.
0
ARC
8
BLACK
10
146.9999939999999867
20
-69.000001999999995
40
2.
50
0.00000000
51
180.00000000
0
ARC
8
BLACK
10
70.9999600000000015
20
-89.
40
1.9999980002890003
50
-89.99902597
51
89.99902597
0
LINE
8
BLACK
6
CONTINUOUS
10
104.9999940000000009
20
-45.000001999999995
11
104.9999940000000009
21
-61.000001999999995
0
ARC
8
BLACK
10
143.
20
-89.
40
1.9999980000090001
50
-90.00017189
51
90.00017189
0
LINE
8
BLACK
6
CONTINUOUS
10
144.9999939999999867
20
-69.000001999999995
11
144.9999939999999867
21
-85.000001999999995
0
ARC
8
BLACK
10
82.9999940000000009
20
-45.000001999999995
40
2.
50
0.00000000
51
180.00000000
0
ARC
8
BLACK
10
159.
20
-65.
40
2.0000020000090002
50
-269.99982811
51
-90.00017189
0
LINE
8
BLACK
6
CONTINUOUS
10
158.9999939999999867
20
-91.000001999999995
11
174.9999939999999867
21
-91.000001999999995
0
LINE
8
BLACK
6
CONTINUOUS
10
86.9999940000000009
20
-43.000001999999995
11
102.9999940000000009
21
-43.000001999999995
0
ARC
8
BLACK
10
200.
20
-30.
40
15.0000000000033342
50
-0.00000764
51
90.00003820
0
ARC
8
BLACK
10
74.9999940000000009
20
-61.000001999999995
40
2.
50
-180.00000000
51
-0.00000000
0
ARC
8
BLACK
10
74.9999940000000009
20
-85.000001999999995
40
2.
50
-180.00000000
51
-0.00000000
0
LINE
8
BLACK
6
CONTINUOUS
10
155.
20
-93.
11
159.
21
-93.
0
LINE
8
BLACK
6
CONTINUOUS
10
159.
20
-93.
11
159.
21
-96.
0
LINE
8
BLACK
6
CONTINUOUS
10
159.
20
-96.
11
155.
21
-96.
0
LINE
8
BLACK
6
CONTINUOUS
10
155.
20
-96.
11
155.
21
-93.
0
ARC
8
BLACK
10
159.
20
-89.
40
2.0000020000090002
50
-269.99982811
51
-90.00017189
0
ARC
8
BLACK
10
143.
20
-65.
40
1.9999980000090001
50
-90.00017189
51
90.00017189
0
ARC
8
BLACK
10
178.9999939999999867
20
-61.000001999999995
40
2.
50
-180.00000000
51
-0.00000000
0
ARC
8
BLACK
10
86.9999699999999905
20
-89.
40
2.0000020001439998
50
-270.00068755
51
-89.99931245
0
LINE
8
BLACK
6
CONTINUOUS
10
148.9999939999999867
20
-69.000001999999995
11
148.9999939999999867
21
-85.000001999999995
0
ARC
8
BLACK
10
103.
20
-41.
40
1.9999980000090001
50
-90.00017189
51
90.00017189
0
LINE
8
BLACK
6
CONTINUOUS
10
80.9999940000000009
20
-69.000001999999995
11
80.9999940000000009
21
-85.000001999999995
0
LINE
8
BLACK
6
CONTINUOUS
10
182.9999939999999867
20
-63.000001999999995
11
185.9999939999999867
21
-63.000001999999995
0
LINE
8
BLACK
6
CONTINUOUS
10
185.9999939999999867
20
-63.000001999999995
11
185.9999939999999867
21
-67.000001999999995
0
LINE
8
BLACK
6
CONTINUOUS
10
185.9999939999999867
20
-67.000001999999995
11
182.9999939999999867
21
-67.000001999999995
0
LINE
8
BLACK
6
CONTINUOUS
10
182.9999939999999867
20
-67.000001999999995
11
182.9999939999999867
21
-63.000001999999995
0
LINE
8
BLACK
6
CONTINUOUS
10
72.9999940000000009
20
-45.000001999999995
11
72.9999940000000009
21
-61.000001999999995
0
ARC
8
BLACK
10
200.
20
-100.
40
14.9999899999999986
50
-90.00004584
51
-0.00000000
0
ARC
8
BLACK
10
122.9999940000000009
20
-69.000001999999995
40
2.
50
0.00000000
51
180.00000000
0
ARC
8
BLACK
10
127.
20
-65.
40
2.0000020000090002
50
-269.99982811
51
-90.00017189
0
LINE
8
BLACK
6
CONTINUOUS
10
76.9999940000000009
20
-69.000001999999995
11
76.9999940000000009
21
-85.000001999999995
0
ARC
8
BLACK
10
122.9999940000000009
20
-61.000001999999995
40
2.
50
-180.00000000
51
-0.00000000
0
LINE
8
BLACK
6
CONTINUOUS
10
156.9999939999999867
20
-69.000001999999995
11
156.9999939999999867
21
-85.000001999999995
0
LINE
8
BLACK
6
CONTINUOUS
10
126.9999940000000009
20
-67.000001999999995
11
142.9999939999999867
21
-67.000001999999995
0
ARC
8
BLACK
10
54.9999699999999976
20
-89.
40
2.0000020001439998
50
-270.00068755
51
-89.99931245
0
ARC
8
BLACK
10
106.9999940000000009
20
-45.000001999999995
40
2.
50
0.00000000
51
180.00000000
0
ARC
8
BLACK
10
29.9999900000000004
20
-100.
40
15.
50
-180.00000764
51
-90.00000000
0
CIRCLE
8
BLACK
10
150.9999929999999893
20
-41.0000739999999979
40
2.
0
LINE
8
BLACK
6
CONTINUOUS
10
86.9999940000000009
20
-87.000001999999995
11
102.9999940000000009
21
-87.000001999999995
0
ARC
8
BLACK
10
178.9999939999999867
20
-45.000001999999995
40
2.
50
0.00000000
51
180.00000000
0
ARC
8
BLACK
10
50.9999940000000009
20
-61.000001999999995
40
2.
50
-180.00000000
51
-0.00000000
0
ARC
8
BLACK
10
106.9999940000000009
20
-85.000001999999995
40
2.
50
-180.00000000
51
-0.00000000
0
ARC
8
BLACK
10
50.9999940000000009
20
-85.000001999999995
40
2.
50
-180.00000000
51
-0.00000000
0
LINE
8
BLACK
6
CONTINUOUS
10
126.9999940000000009
20
-63.000001999999995
11
142.9999939999999867
21
-63.000001999999995
0
LINE
8
BLACK
6
CONTINUOUS
10
214.9999899999999968
20
-99.9999699999999905
11
214.9999889999999994
21
-30.0000019999999985
0
LINE
8
BLACK
6
CONTINUOUS
10
199.9999959999999817
20
-15.0000019999999985
11
29.9999919999999989
21
-15.0000009999999993
0
ARC
8
BLACK
10
146.9999939999999867
20
-45.000001999999995
40
2.
50
0.00000000
51
180.00000000
0
LINE
8
BLACK
6
CONTINUOUS
10
19.
20
-34.
11
23.
21
-34.
0
LINE
8
BLACK
6
CONTINUOUS
10
23.
20
-34.
11
23.
21
-37.
0
LINE
8
BLACK
6
CONTINUOUS
10
23.
20
-37.
11
19.
21
-37.
0
LINE
8
BLACK
6
CONTINUOUS
10
19.
20
-37.
11
19.
21
-34.
0
ARC
8
BLACK
10
154.9999939999999867
20
-45.000001999999995
40
2.
50
0.00000000
51
180.00000000
0
ARC
8
BLACK
10
106.9999940000000009
20
-69.000001999999995
40
2.
50
0.00000000
51
180.00000000
0
ARC
8
BLACK
10
103.
20
-65.
40
1.9999980000090001
50
-90.00017189
51
90.00017189
0
LINE
8
BLACK
6
CONTINUOUS
10
86.9999940000000009
20
-91.000001999999995
11
102.9999940000000009
21
-91.000001999999995
0
LINE
8
BLACK
6
CONTINUOUS
10
79.
20
-96.
11
151.
21
-96.
0
LINE
8
BLACK
6
CONTINUOUS
10
151.
20
-96.
11
151.
21
-110.
0
LINE
8
BLACK
6
CONTINUOUS
10
151.
20
-110.
11
79.
21
-110.
0
LINE
8
BLACK
6
CONTINUOUS
10
79.
20
-110.
11
79.
21
-96.
0
ARC
8
BLACK
10
29.9999900000000004
20
-30.
40
15.
50
89.99999236
51
180.00000000
0
ARC
8
BLACK
10
70.9999600000000015
20
-41.
40
1.9999980002890003
50
-89.99902597
51
89.99902597
0
LINE
8
BLACK
6
CONTINUOUS
10
104.9999940000000009
20
-69.000001999999995
11
104.9999940000000009
21
-85.000001999999995
0
ARC
8
BLACK
10
175.
20
-89.
40
1.9999980000090001
50
-90.00017189
51
90.00017189
0
LINE
8
BLACK
6
CONTINUOUS
10
155.
20
-34.
11
159.
21
-34.
0
LINE
8
BLACK
6
CONTINUOUS
10
159.
20
-34.
11
159.
21
-37.
0
LINE
8
BLACK
6
CONTINUOUS
10
159.
20
-37.
11
155.
21
-37.
0
LINE
8
BLACK
6
CONTINUOUS
10
155.
20
-37.
11
155.
21
-34.
0
LINE
8
BLACK
6
CONTINUOUS
10
54.9999940000000009
20
-63.000001999999995
11
70.9999940000000009
21
-63.000001999999995
0
LINE
8
BLACK
6
CONTINUOUS
10
86.9999940000000009
20
-63.000001999999995
11
102.9999940000000009
21
-63.000001999999995
0
ARC
8
BLACK
10
159.
20
-41.
40
2.0000020000090002
50
-269.99982811
51
-90.00017189
0
LINE
8
BLACK
6
CONTINUOUS
10
108.9999940000000009
20
-69.000001999999995
11
108.9999940000000009
21
-85.000001999999995
0
LINE
8
BLACK
6
CONTINUOUS
10
52.9999940000000009
20
-69.000001999999995
11
52.9999940000000009
21
-85.000001999999995
0
ARC
8
BLACK
10
70.9999600000000015
20
-65.
40
1.9999980002890003
50
-89.99902597
51
89.99902597
0
ARC
8
BLACK
10
82.9999940000000009
20
-69.000001999999995
40
2.
50
0.00000000
51
180.00000000
0
ARC
8
BLACK
10
146.9999939999999867
20
-85.000001999999995
40
2.
50
-180.00000000
51
-0.00000000
0
ARC
8
BLACK
10
54.9999699999999976
20
-41.
40
2.0000020001439998
50
-270.00068755
51
-89.99931245
0
LINE
8
BLACK
6
CONTINUOUS
10
152.9999939999999867
20
-69.000001999999995
11
152.9999939999999867
21
-85.000001999999995
0
LINE
8
BLACK
6
CONTINUOUS
10
120.9999940000000009
20
-45.000001999999995
11
120.9999940000000009
21
-61.000001999999995
0
LINE
8
BLACK
6
CONTINUOUS
10
182.9999939999999867
20
-19.000004999999998
11
185.9999939999999867
21
-19.000004999999998
0
LINE
8
BLACK
6
CONTINUOUS
10
185.9999939999999867
20
-19.000004999999998
11
185.9999939999999867
21
-23.000004999999998
0
LINE
8
BLACK
6
CONTINUOUS
10
185.9999939999999867
20
-23.000004999999998
11
182.9999939999999867
21
-23.000004999999998
0
LINE
8
BLACK
6
CONTINUOUS
10
182.9999939999999867
20
-23.000004999999998
11
182.9999939999999867
21
-19.000004999999998
0
LINE
8
BLACK
6
CONTINUOUS
10
148.9999939999999867
20
-45.000001999999995
11
148.9999939999999867
21
-61.000001999999995
0
LINE
8
BLACK
6
CONTINUOUS
10
176.9999939999999867
20
-45.000001999999995
11
176.9999939999999867
21
-61.000001999999995
0
ARC
8
BLACK
10
178.9999939999999867
20
-69.000001999999995
40
2.
50
0.00000000
51
180.00000000
0
ARC
8
BLACK
10
86.9999699999999905
20
-41.
40
2.0000020001439998
50
-270.00068755
51
-89.99931245
0
LINE
8
BLACK
6
CONTINUOUS
10
71.
20
-93.
11
75.
21
-93.
0
LINE
8
BLACK
6
CONTINUOUS
10
75.
20
-93.
11
75.
21
-96.
0
LINE
8
BLACK
6
CONTINUOUS
10
75.
20
-96.
11
71.
21
-96.
0
LINE
8
BLACK
6
CONTINUOUS
10
71.
20
-96.
11
71.
21
-93.
0
CIRCLE
8
BLACK
10
114.9999929999999893
20
-89.0000739999999979
40
2.
0
LINE
8
BLACK
6
CONTINUOUS
10
14.9999939999999992
20
-29.9999849999999988
11
14.9999899999999986
21
-99.9999979999999908
0
LINE
8
BLACK
6
CONTINUOUS
10
43.9999940000000009
20
-19.0000019999999985
11
46.9999940000000009
21
-19.0000019999999985
0
LINE
8
BLACK
6
CONTINUOUS
10
46.9999940000000009
20
-19.0000019999999985
11
46.9999940000000009
21
-23.0000019999999985
0
LINE
8
BLACK
6
CONTINUOUS
10
46.9999940000000009
20
-23.0000019999999985
11
43.9999940000000009
21
-23.0000019999999985
0
LINE
8
BLACK
6
CONTINUOUS
10
43.9999940000000009
20
-23.0000019999999985
11
43.9999940000000009
21
-19.0000019999999985
0
LINE
8
BLACK
6
CONTINUOUS
10
126.9999940000000009
20
-87.000001999999995
11
142.9999939999999867
21
-87.000001999999995
0
LINE
8
BLACK
6
CONTINUOUS
10
152.9999939999999867
20
-45.000001999999995
11
152.9999939999999867
21
-61.000001999999995
0
LINE
8
BLACK
6
CONTINUOUS
10
54.9999940000000009
20
-67.000001999999995
11
70.9999940000000009
21
-67.000001999999995
0
LINE
8
BLACK
6
CONTINUOUS
10
126.9999940000000009
20
-39.000001999999995
11
142.9999939999999867
21
-39.000001999999995
0
ARC
8
BLACK
10
178.9999939999999867
20
-85.000001999999995
40
2.
50
-180.00000000
51
-0.00000000
0
LINE
8
BLACK
6
CONTINUOUS
10
52.9999940000000009
20
-45.000001999999995
11
52.9999940000000009
21
-61.000001999999995
0
ARC
8
BLACK
10
175.
20
-41.
40
1.9999980000090001
50
-90.00017189
51
90.00017189
0
ARC
8
BLACK
10
82.9999940000000009
20
-61.000001999999995
40
2.
50
-180.00000000
51
-0.00000000
0
LINE
8
BLACK
6
CONTINUOUS
10
48.9999940000000009
20
-45.000001999999995
11
48.9999940000000009
21
-61.000001999999995
0
ARC
8
BLACK
10
146.9999939999999867
20
-61.000001999999995
40
2.
50
-180.00000000
51
-0.00000000
0
LINE
8
BLACK
6
CONTINUOUS
10
126.9999940000000009
20
-91.000001999999995
11
142.9999939999999867
21
-91.000001999999995
0
LINE
8
BLACK
6
CONTINUOUS
10
176.9999939999999867
20
-69.000001999999995
11
176.9999939999999867
21
-85.000001999999995
0
ARC
8
BLACK
10
143.
20
-41.
40
1.9999980000090001
50
-90.00017189
51
90.00017189
0
LINE
8
BLACK
6
CONTINUOUS
10
180.9999939999999867
20
-45.000001999999995
11
180.9999939999999867
21
-61.000001999999995
0
LINE
8
BLACK
6
CONTINUOUS
10
126.9999940000000009
20
-43.000001999999995
11
142.9999939999999867
21
-43.000001999999995
0
ARC
8
BLACK
10
82.9999940000000009
20
-85.000001999999995
40
2.
50
-180.00000000
51
-0.00000000
0
LINE
8
BLACK
6
CONTINUOUS
10
48.9999940000000009
20
-69.000001999999995
11
48.9999940000000009
21
-85.000001999999995
0
ARC
8
BLACK
10
154.9999939999999867
20
-85.000001999999995
40
2.
50
-180.00000000
51
-0.00000000
0
LINE
8
BLACK
6
CONTINUOUS
10
60.1428559999999948
20
-29.3683569999999996
11
61.8571419999999961
21
-29.3683569999999996
0
LINE
8
BLACK
6
CONTINUOUS
10
60.9999989999999954
20
-29.3683569999999996
11
60.9999989999999954
21
-26.3683569999999996
0
LINE
8
BLACK
6
CONTINUOUS
10
60.9999989999999954
20
-26.3683569999999996
11
61.2857129999999941
21
-26.7969279999999976
0
LINE
8
BLACK
6
CONTINUOUS
10
61.2857129999999941
20
-26.7969279999999976
11
61.5714279999999974
21
-27.0826419999999999
0
LINE
8
BLACK
6
CONTINUOUS
10
61.5714279999999974
20
-27.0826419999999999
11
61.8571419999999961
21
-27.2255000000000003
  0
ENDSEC
  0
EOF
