<?xml version="1.0" standalone="no"?>
 <!DOCTYPE svg PUBLIC "-//W3C//DTD SVG 1.1//EN" 
 "http://www.w3.org/Graphics/SVG/1.1/DTD/svg11.dtd"> 
<svg
  xmlns:svg="http://www.w3.org/2000/svg"
  xmlns="http://www.w3.org/2000/svg"
  xmlns:xlink="http://www.w3.org/1999/xlink"
  version="1.1"
  width="297.0022mm" height="419.9890mm" viewBox="0.0000 0.0000 297.0022 419.9890">
<title>SVG Image created as 7_seg_led_tht_3mm-User_1.svg date 2026/01/05 23:17:45 </title>
  <desc>Image generated by PCBNEW </desc>
<g style="fill:#000000; fill-opacity:1.0000;stroke:#000000; stroke-opacity:1.0000;
stroke-linecap:round; stroke-linejoin:round;"
 transform="translate(0 0) scale(1 1)">
</g>
<g style="fill:#000000; fill-opacity:1.0000; 
stroke:#000000; stroke-width:0.0212; stroke-opacity:1; 
stroke-linecap:round; stroke-linejoin:round;">
<rect x="-144.214306" y="9.949995" width="1145.264306" height="331.600105" rx="0.000000" />
</g>
<g style="fill:none; 
stroke:#FFFFFF; stroke-width:0.3750; stroke-opacity:1; 
stroke-linecap:round; stroke-linejoin:round;">
<text x="63.0000" y="164.5000"
transform="scale(-1 1) translate(-126.000000 0)"
textLength="3.3821" font-size="4.0000" lengthAdjust="spacingAndGlyphs"
text-anchor="middle" opacity="0" stroke-opacity="0">1</text>
<g class="stroked-text"><desc>1</desc>
<path d="M62.1429 164.3684
L63.8571 164.3684
" />
<path d="M63.0000 164.3684
L63.0000 161.3684
" />
<path d="M63.0000 161.3684
L63.2857 161.7969
" />
<path d="M63.2857 161.7969
L63.5714 162.0826
" />
<path d="M63.5714 162.0826
L63.8571 162.2255
" />
</g></g>
<g style="fill:none; 
stroke:#FFFFFF; stroke-width:0.1000; stroke-opacity:1; 
stroke-linecap:round; stroke-linejoin:round;">
<path d="M109.0000 45.0000
L109.0000 61.0000
" />
<path d="M81.0000 45.0000
L81.0000 61.0000
" />
<path d="M87.0000 67.0000
L103.0000 67.0000
" />
<path d="M157.0000 69.0000 A2.0000 2.0000 0.0 0 0 153.0000 69.0000" />
<circle cx="115.0000" cy="71.0001" r="2.0000" /> 
<path style="fill:none; 
stroke:#FFFFFF; stroke-width:0.1000; stroke-opacity:1; 
stroke-linecap:round; stroke-linejoin:round;fill:none"
d="M 207.0000,93.0000
211.0000,93.0000
211.0000,96.0000
207.0000,96.0000
Z" /> 
<path d="M87.0000 39.0000
L103.0000 39.0000
" />
<path d="M55.0000 39.0000
L71.0000 39.0000
" />
<path d="M87.0000 63.0000 A2.0000 2.0000 0.0 1 0 87.0000 67.0000" />
<path d="M159.0000 43.0000
L175.0000 43.0000
" />
<path d="M175.0000 67.0000 A2.0000 2.0000 0.0 1 0 175.0000 63.0000" />
<path d="M127.0000 87.0000 A2.0000 2.0000 0.0 0 0 127.0000 91.0000" />
<path d="M77.0000 69.0000 A2.0000 2.0000 0.0 0 0 73.0000 69.0000" />
<path d="M55.0000 63.0000 A2.0000 2.0000 0.0 1 0 55.0000 67.0000" />
<path d="M85.0000 45.0000
L85.0000 61.0000
" />
<path d="M105.0000 61.0000 A2.0000 2.0000 0.0 0 0 109.0000 61.0000" />
<path d="M159.0000 67.0000
L175.0000 67.0000
" />
<path style="fill:none; 
stroke:#FFFFFF; stroke-width:0.1000; stroke-opacity:1; 
stroke-linecap:round; stroke-linejoin:round;fill:none"
d="M 44.0000,107.0000
47.0000,107.0000
47.0000,111.0000
44.0000,111.0000
Z" /> 
<path d="M181.0000 69.0000
L181.0000 85.0000
" />
<path d="M159.0000 87.0000
L175.0000 87.0000
" />
<path d="M55.0000 43.0000
L71.0000 43.0000
" />
<path d="M125.0000 45.0000
L125.0000 61.0000
" />
<path d="M125.0000 69.0000
L125.0000 85.0000
" />
<path d="M157.0000 45.0000
L157.0000 61.0000
" />
<path d="M30.0465 115.0000
L200.0000 115.0000
" />
<path d="M127.0000 39.0000 A2.0000 2.0000 0.0 0 0 127.0000 43.0000" />
<path style="fill:none; 
stroke:#FFFFFF; stroke-width:0.1000; stroke-opacity:1; 
stroke-linecap:round; stroke-linejoin:round;fill:none"
d="M 207.0000,34.0000
211.0000,34.0000
211.0000,37.0000
207.0000,37.0000
Z" /> 
<path d="M77.0000 45.0000
L77.0000 61.0000
" />
<path style="fill:none; 
stroke:#FFFFFF; stroke-width:0.1000; stroke-opacity:1; 
stroke-linecap:round; stroke-linejoin:round;fill:none"
d="M 44.0000,63.0000
47.0000,63.0000
47.0000,67.0000
44.0000,67.0000
Z" /> 
<path d="M77.0000 45.0000 A2.0000 2.0000 0.0 0 0 73.0000 45.0000" />
<path d="M55.0000 91.0000
L71.0000 91.0000
" />
<path d="M153.0000 61.0000 A2.0000 2.0000 0.0 0 0 157.0000 61.0000" />
<path d="M85.0000 69.0000
L85.0000 85.0000
" />
<path style="fill:none; 
stroke:#FFFFFF; stroke-width:0.1000; stroke-opacity:1; 
stroke-linecap:round; stroke-linejoin:round;fill:none"
d="M 19.0000,93.0000
23.0000,93.0000
23.0000,96.0000
19.0000,96.0000
Z" /> 
<path d="M145.0000 45.0000
L145.0000 61.0000
" />
<path d="M73.0000 69.0000
L73.0000 85.0000
" />
<path d="M55.0000 87.0000
L71.0000 87.0000
" />
<path d="M103.0000 91.0000 A2.0000 2.0000 0.0 1 0 103.0000 87.0000" />
<path d="M53.0000 69.0000 A2.0000 2.0000 0.0 0 0 49.0000 69.0000" />
<path d="M159.0000 63.0000
L175.0000 63.0000
" />
<circle cx="115.0000" cy="59.0001" r="2.0000" /> 
<path d="M159.0000 39.0000
L175.0000 39.0000
" />
<path d="M121.0000 69.0000
L121.0000 85.0000
" />
<path style="fill:none; 
stroke:#FFFFFF; stroke-width:0.1000; stroke-opacity:1; 
stroke-linecap:round; stroke-linejoin:round;fill:none"
d="M 183.0000,107.0000
186.0000,107.0000
186.0000,111.0000
183.0000,111.0000
Z" /> 
<path d="M125.0000 45.0000 A2.0000 2.0000 0.0 0 0 121.0000 45.0000" />
<path d="M121.0000 85.0000 A2.0000 2.0000 0.0 0 0 125.0000 85.0000" />
<path d="M53.0000 45.0000 A2.0000 2.0000 0.0 0 0 49.0000 45.0000" />
<path style="fill:none; 
stroke:#FFFFFF; stroke-width:0.1000; stroke-opacity:1; 
stroke-linecap:round; stroke-linejoin:round;fill:none"
d="M 71.0000,34.0000
75.0000,34.0000
75.0000,37.0000
71.0000,37.0000
Z" /> 
<path d="M149.0000 69.0000 A2.0000 2.0000 0.0 0 0 145.0000 69.0000" />
<path d="M71.0000 91.0000 A2.0000 2.0000 0.0 0 0 71.0000 87.0000" />
<path d="M105.0000 45.0000
L105.0000 61.0000
" />
<path d="M143.0000 91.0000 A2.0000 2.0000 0.0 1 0 143.0000 87.0000" />
<path d="M145.0000 69.0000
L145.0000 85.0000
" />
<path d="M85.0000 45.0000 A2.0000 2.0000 0.0 0 0 81.0000 45.0000" />
<path d="M159.0000 63.0000 A2.0000 2.0000 0.0 0 0 159.0000 67.0000" />
<path d="M159.0000 91.0000
L175.0000 91.0000
" />
<path d="M87.0000 43.0000
L103.0000 43.0000
" />
<path d="M215.0000 30.0000 A15.0000 15.0000 0.0 0 0 200.0000 15.0000" />
<path d="M73.0000 61.0000 A2.0000 2.0000 0.0 0 0 77.0000 61.0000" />
<path d="M73.0000 85.0000 A2.0000 2.0000 0.0 0 0 77.0000 85.0000" />
<path style="fill:none; 
stroke:#FFFFFF; stroke-width:0.1000; stroke-opacity:1; 
stroke-linecap:round; stroke-linejoin:round;fill:none"
d="M 155.0000,93.0000
159.0000,93.0000
159.0000,96.0000
155.0000,96.0000
Z" /> 
<path d="M159.0000 87.0000 A2.0000 2.0000 0.0 0 0 159.0000 91.0000" />
<path d="M143.0000 67.0000 A2.0000 2.0000 0.0 1 0 143.0000 63.0000" />
<path d="M177.0000 61.0000 A2.0000 2.0000 0.0 0 0 181.0000 61.0000" />
<path d="M87.0000 87.0000 A2.0000 2.0000 0.0 1 0 87.0000 91.0000" />
<path d="M149.0000 69.0000
L149.0000 85.0000
" />
<path d="M103.0000 43.0000 A2.0000 2.0000 0.0 1 0 103.0000 39.0000" />
<path d="M81.0000 69.0000
L81.0000 85.0000
" />
<path style="fill:none; 
stroke:#FFFFFF; stroke-width:0.1000; stroke-opacity:1; 
stroke-linecap:round; stroke-linejoin:round;fill:none"
d="M 183.0000,63.0000
186.0000,63.0000
186.0000,67.0000
183.0000,67.0000
Z" /> 
<path d="M73.0000 45.0000
L73.0000 61.0000
" />
<path d="M200.0000 115.0000 A15.0000 15.0000 0.0 0 0 215.0000 100.0000" />
<path d="M125.0000 69.0000 A2.0000 2.0000 0.0 0 0 121.0000 69.0000" />
<path d="M127.0000 63.0000 A2.0000 2.0000 0.0 0 0 127.0000 67.0000" />
<path d="M77.0000 69.0000
L77.0000 85.0000
" />
<path d="M121.0000 61.0000 A2.0000 2.0000 0.0 0 0 125.0000 61.0000" />
<path d="M157.0000 69.0000
L157.0000 85.0000
" />
<path d="M127.0000 67.0000
L143.0000 67.0000
" />
<path d="M55.0000 87.0000 A2.0000 2.0000 0.0 1 0 55.0000 91.0000" />
<path d="M109.0000 45.0000 A2.0000 2.0000 0.0 0 0 105.0000 45.0000" />
<path d="M15.0000 100.0000 A15.0000 15.0000 0.0 0 0 30.0000 115.0000" />
<circle cx="151.0000" cy="41.0001" r="2.0000" /> 
<path d="M87.0000 87.0000
L103.0000 87.0000
" />
<path d="M181.0000 45.0000 A2.0000 2.0000 0.0 0 0 177.0000 45.0000" />
<path d="M49.0000 61.0000 A2.0000 2.0000 0.0 0 0 53.0000 61.0000" />
<path d="M105.0000 85.0000 A2.0000 2.0000 0.0 0 0 109.0000 85.0000" />
<path d="M49.0000 85.0000 A2.0000 2.0000 0.0 0 0 53.0000 85.0000" />
<path d="M127.0000 63.0000
L143.0000 63.0000
" />
<path d="M215.0000 100.0000
L215.0000 30.0000
" />
<path d="M200.0000 15.0000
L30.0000 15.0000
" />
<path d="M149.0000 45.0000 A2.0000 2.0000 0.0 0 0 145.0000 45.0000" />
<path style="fill:none; 
stroke:#FFFFFF; stroke-width:0.1000; stroke-opacity:1; 
stroke-linecap:round; stroke-linejoin:round;fill:none"
d="M 19.0000,34.0000
23.0000,34.0000
23.0000,37.0000
19.0000,37.0000
Z" /> 
<path d="M157.0000 45.0000 A2.0000 2.0000 0.0 0 0 153.0000 45.0000" />
<path d="M109.0000 69.0000 A2.0000 2.0000 0.0 0 0 105.0000 69.0000" />
<path d="M103.0000 67.0000 A2.0000 2.0000 0.0 1 0 103.0000 63.0000" />
<path d="M87.0000 91.0000
L103.0000 91.0000
" />
<path style="fill:none; 
stroke:#FFFFFF; stroke-width:0.1000; stroke-opacity:1; 
stroke-linecap:round; stroke-linejoin:round;fill:none"
d="M 79.0000,96.0000
151.0000,96.0000
151.0000,110.0000
79.0000,110.0000
Z" /> 
<path d="M30.0000 15.0000 A15.0000 15.0000 0.0 0 0 15.0000 30.0000" />
<path d="M71.0000 43.0000 A2.0000 2.0000 0.0 0 0 71.0000 39.0000" />
<path d="M105.0000 69.0000
L105.0000 85.0000
" />
<path d="M175.0000 91.0000 A2.0000 2.0000 0.0 1 0 175.0000 87.0000" />
<path style="fill:none; 
stroke:#FFFFFF; stroke-width:0.1000; stroke-opacity:1; 
stroke-linecap:round; stroke-linejoin:round;fill:none"
d="M 155.0000,34.0000
159.0000,34.0000
159.0000,37.0000
155.0000,37.0000
Z" /> 
<path d="M55.0000 63.0000
L71.0000 63.0000
" />
<path d="M87.0000 63.0000
L103.0000 63.0000
" />
<path d="M159.0000 39.0000 A2.0000 2.0000 0.0 0 0 159.0000 43.0000" />
<path d="M109.0000 69.0000
L109.0000 85.0000
" />
<path d="M53.0000 69.0000
L53.0000 85.0000
" />
<path d="M71.0000 67.0000 A2.0000 2.0000 0.0 0 0 71.0000 63.0000" />
<path d="M85.0000 69.0000 A2.0000 2.0000 0.0 0 0 81.0000 69.0000" />
<path d="M145.0000 85.0000 A2.0000 2.0000 0.0 0 0 149.0000 85.0000" />
<path d="M55.0000 39.0000 A2.0000 2.0000 0.0 1 0 55.0000 43.0000" />
<path d="M153.0000 69.0000
L153.0000 85.0000
" />
<path d="M121.0000 45.0000
L121.0000 61.0000
" />
<path style="fill:none; 
stroke:#FFFFFF; stroke-width:0.1000; stroke-opacity:1; 
stroke-linecap:round; stroke-linejoin:round;fill:none"
d="M 183.0000,19.0000
186.0000,19.0000
186.0000,23.0000
183.0000,23.0000
Z" /> 
<path d="M149.0000 45.0000
L149.0000 61.0000
" />
<path d="M177.0000 45.0000
L177.0000 61.0000
" />
<path d="M181.0000 69.0000 A2.0000 2.0000 0.0 0 0 177.0000 69.0000" />
<path d="M87.0000 39.0000 A2.0000 2.0000 0.0 1 0 87.0000 43.0000" />
<path style="fill:none; 
stroke:#FFFFFF; stroke-width:0.1000; stroke-opacity:1; 
stroke-linecap:round; stroke-linejoin:round;fill:none"
d="M 71.0000,93.0000
75.0000,93.0000
75.0000,96.0000
71.0000,96.0000
Z" /> 
<circle cx="115.0000" cy="89.0001" r="2.0000" /> 
<path d="M15.0000 30.0000
L15.0000 100.0000
" />
<path style="fill:none; 
stroke:#FFFFFF; stroke-width:0.1000; stroke-opacity:1; 
stroke-linecap:round; stroke-linejoin:round;fill:none"
d="M 44.0000,19.0000
47.0000,19.0000
47.0000,23.0000
44.0000,23.0000
Z" /> 
<path d="M127.0000 87.0000
L143.0000 87.0000
" />
<path d="M153.0000 45.0000
L153.0000 61.0000
" />
<path d="M55.0000 67.0000
L71.0000 67.0000
" />
<path d="M127.0000 39.0000
L143.0000 39.0000
" />
<path d="M177.0000 85.0000 A2.0000 2.0000 0.0 0 0 181.0000 85.0000" />
<path d="M53.0000 45.0000
L53.0000 61.0000
" />
<path d="M175.0000 43.0000 A2.0000 2.0000 0.0 1 0 175.0000 39.0000" />
<path d="M81.0000 61.0000 A2.0000 2.0000 0.0 0 0 85.0000 61.0000" />
<path d="M49.0000 45.0000
L49.0000 61.0000
" />
<path d="M145.0000 61.0000 A2.0000 2.0000 0.0 0 0 149.0000 61.0000" />
<path d="M127.0000 91.0000
L143.0000 91.0000
" />
<path d="M177.0000 69.0000
L177.0000 85.0000
" />
<path d="M143.0000 43.0000 A2.0000 2.0000 0.0 1 0 143.0000 39.0000" />
<path d="M181.0000 45.0000
L181.0000 61.0000
" />
<path d="M127.0000 43.0000
L143.0000 43.0000
" />
<path d="M81.0000 85.0000 A2.0000 2.0000 0.0 0 0 85.0000 85.0000" />
<path d="M49.0000 69.0000
L49.0000 85.0000
" />
<path d="M153.0000 85.0000 A2.0000 2.0000 0.0 0 0 157.0000 85.0000" />
</g>
<g style="fill:none; 
stroke:#FFFFFF; stroke-width:0.3750; stroke-opacity:1; 
stroke-linecap:round; stroke-linejoin:round;">
<text x="61.0000" y="29.5000"
transform="scale(-1 1) translate(-122.000000 0)"
textLength="3.3821" font-size="4.0000" lengthAdjust="spacingAndGlyphs"
text-anchor="middle" opacity="0" stroke-opacity="0">1</text>
<g class="stroked-text"><desc>1</desc>
<path d="M60.1429 29.3684
L61.8571 29.3684
" />
<path d="M61.0000 29.3684
L61.0000 26.3684
" />
<path d="M61.0000 26.3684
L61.2857 26.7969
" />
<path d="M61.2857 26.7969
L61.5714 27.0826
" />
<path d="M61.5714 27.0826
L61.8571 27.2255
" />
</g></g> 
</svg>
