%TF.GenerationSoftware,KiCad,Pcbnew,9.0.6-9.0.6~ubuntu24.04.1*%
%TF.CreationDate,2025-12-13T15:08:55+01:00*%
%TF.ProjectId,7_seg_led_tht_3mm,375f7365-675f-46c6-9564-5f7468745f33,1.0*%
%TF.SameCoordinates,Original*%
%TF.FileFunction,Soldermask,Top*%
%TF.FilePolarity,Negative*%
%FSLAX46Y46*%
G04 Gerber Fmt 4.6, Leading zero omitted, Abs format (unit mm)*
G04 Created by KiCad (PCBNEW 9.0.6-9.0.6~ubuntu24.04.1) date 2025-12-13 15:08:55*
%MOMM*%
%LPD*%
G01*
G04 APERTURE LIST*
%ADD10R,1.700000X1.700000*%
%ADD11C,1.700000*%
%ADD12C,1.000000*%
%ADD13R,1.800000X1.800000*%
%ADD14C,1.800000*%
%ADD15R,1.350000X1.350000*%
%ADD16C,1.350000*%
%ADD17C,0.660000*%
%ADD18O,1.000000X0.580000*%
%ADD19C,1.100000*%
%ADD20C,3.200000*%
G04 APERTURE END LIST*
D10*
%TO.C,J5*%
X232900004Y-113979932D03*
D11*
X232900004Y-111439932D03*
X232900004Y-108899932D03*
X232900004Y-106359932D03*
X232900004Y-103819932D03*
%TD*%
D12*
%TO.C,Y1*%
X225929590Y-103367291D03*
X225929590Y-105267291D03*
%TD*%
D13*
%TO.C,D5*%
X207730000Y-77000000D03*
D14*
X210270000Y-77000000D03*
%TD*%
D13*
%TO.C,D47*%
X121000000Y-94270000D03*
D14*
X121000000Y-91730000D03*
%TD*%
D13*
%TO.C,D44*%
X114270000Y-101000000D03*
D14*
X111730000Y-101000000D03*
%TD*%
D13*
%TO.C,D28*%
X154270000Y-109000000D03*
D14*
X151730000Y-109000000D03*
%TD*%
D13*
%TO.C,D23*%
X175730000Y-109000000D03*
D14*
X178270000Y-109000000D03*
%TD*%
D13*
%TO.C,D30*%
X154270000Y-85000000D03*
D14*
X151730000Y-85000000D03*
%TD*%
D13*
%TO.C,D17*%
X182270000Y-69000000D03*
D14*
X179730000Y-69000000D03*
%TD*%
D13*
%TO.C,D42*%
X129000000Y-115730000D03*
D14*
X129000000Y-118270000D03*
%TD*%
D15*
%TO.C,D68*%
X135500000Y-123500000D03*
D16*
X133500000Y-123500000D03*
%TD*%
D13*
%TO.C,D20*%
X161000000Y-70270000D03*
D14*
X161000000Y-67730000D03*
%TD*%
D13*
%TO.C,D49*%
X143730000Y-109000000D03*
D14*
X146270000Y-109000000D03*
%TD*%
D15*
%TO.C,D67*%
X128500000Y-123500000D03*
D16*
X126500000Y-123500000D03*
%TD*%
D13*
%TO.C,D54*%
X103730000Y-85000000D03*
D14*
X106270000Y-85000000D03*
%TD*%
D13*
%TO.C,D11*%
X186270000Y-101000000D03*
D14*
X183730000Y-101000000D03*
%TD*%
D13*
%TO.C,D16*%
X201000000Y-94270000D03*
D14*
X201000000Y-91730000D03*
%TD*%
D13*
%TO.C,D63*%
X89000000Y-94270000D03*
D14*
X89000000Y-91730000D03*
%TD*%
D13*
%TO.C,D27*%
X154270000Y-101000000D03*
D14*
X151730000Y-101000000D03*
%TD*%
D13*
%TO.C,D46*%
X114270000Y-77000000D03*
D14*
X111730000Y-77000000D03*
%TD*%
D13*
%TO.C,D12*%
X186270000Y-109000000D03*
D14*
X183730000Y-109000000D03*
%TD*%
D13*
%TO.C,D33*%
X146270000Y-99000000D03*
D14*
X143730000Y-99000000D03*
%TD*%
D13*
%TO.C,D8*%
X207730000Y-109000000D03*
D14*
X210270000Y-109000000D03*
%TD*%
D13*
%TO.C,D39*%
X135730000Y-109000000D03*
D14*
X138270000Y-109000000D03*
%TD*%
D13*
%TO.C,D45*%
X114270000Y-85000000D03*
D14*
X111730000Y-85000000D03*
%TD*%
D13*
%TO.C,D55*%
X103730000Y-109000000D03*
D14*
X106270000Y-109000000D03*
%TD*%
D13*
%TO.C,D25*%
X169000000Y-115730000D03*
D14*
X169000000Y-118270000D03*
%TD*%
D13*
%TO.C,D52*%
X89000000Y-70270000D03*
D14*
X89000000Y-67730000D03*
%TD*%
D13*
%TO.C,D59*%
X82270000Y-101000000D03*
D14*
X79730000Y-101000000D03*
%TD*%
D15*
%TO.C,D72*%
X170500000Y-123500000D03*
D16*
X168500000Y-123500000D03*
%TD*%
D13*
%TO.C,D34*%
X146270000Y-87000000D03*
D14*
X143730000Y-87000000D03*
%TD*%
D13*
%TO.C,D22*%
X175730000Y-85000000D03*
D14*
X178270000Y-85000000D03*
%TD*%
D13*
%TO.C,D38*%
X135730000Y-77000000D03*
D14*
X138270000Y-77000000D03*
%TD*%
D13*
%TO.C,D15*%
X193000000Y-94270000D03*
D14*
X193000000Y-91730000D03*
%TD*%
D13*
%TO.C,D43*%
X114270000Y-109000000D03*
D14*
X111730000Y-109000000D03*
%TD*%
D13*
%TO.C,D4*%
X201000000Y-70270000D03*
D14*
X201000000Y-67730000D03*
%TD*%
D13*
%TO.C,D36*%
X129000000Y-70270000D03*
D14*
X129000000Y-67730000D03*
%TD*%
D13*
%TO.C,D21*%
X175730000Y-77000000D03*
D14*
X178270000Y-77000000D03*
%TD*%
D13*
%TO.C,D53*%
X103730000Y-77000000D03*
D14*
X106270000Y-77000000D03*
%TD*%
D13*
%TO.C,D31*%
X161000000Y-94270000D03*
D14*
X161000000Y-91730000D03*
%TD*%
D13*
%TO.C,D40*%
X135730000Y-101000000D03*
D14*
X138270000Y-101000000D03*
%TD*%
D13*
%TO.C,D13*%
X186270000Y-77000000D03*
D14*
X183730000Y-77000000D03*
%TD*%
D15*
%TO.C,D71*%
X156500000Y-123500000D03*
D16*
X154500000Y-123500000D03*
%TD*%
D13*
%TO.C,D41*%
X121000000Y-115730000D03*
D14*
X121000000Y-118270000D03*
%TD*%
D13*
%TO.C,D6*%
X207730000Y-85000000D03*
D14*
X210270000Y-85000000D03*
%TD*%
D13*
%TO.C,D61*%
X82270000Y-77000000D03*
D14*
X79730000Y-77000000D03*
%TD*%
D15*
%TO.C,D2*%
X121500000Y-123500000D03*
D16*
X119500000Y-123500000D03*
%TD*%
D13*
%TO.C,D56*%
X103730000Y-101000000D03*
D14*
X106270000Y-101000000D03*
%TD*%
D13*
%TO.C,D35*%
X121000000Y-70270000D03*
D14*
X121000000Y-67730000D03*
%TD*%
D13*
%TO.C,D3*%
X193000000Y-70270000D03*
D14*
X193000000Y-67730000D03*
%TD*%
D13*
%TO.C,D37*%
X135730000Y-85000000D03*
D14*
X138270000Y-85000000D03*
%TD*%
D13*
%TO.C,D48*%
X129000000Y-94270000D03*
D14*
X129000000Y-91730000D03*
%TD*%
D13*
%TO.C,D10*%
X201000000Y-115730000D03*
D14*
X201000000Y-118270000D03*
%TD*%
D15*
%TO.C,D69*%
X142500000Y-123500000D03*
D16*
X140500000Y-123500000D03*
%TD*%
D13*
%TO.C,D29*%
X154270000Y-77000000D03*
D14*
X151730000Y-77000000D03*
%TD*%
D13*
%TO.C,D58*%
X97000000Y-115730000D03*
D14*
X97000000Y-118270000D03*
%TD*%
D13*
%TO.C,D60*%
X82270000Y-109000000D03*
D14*
X79730000Y-109000000D03*
%TD*%
D13*
%TO.C,D19*%
X169000000Y-70270000D03*
D14*
X169000000Y-67730000D03*
%TD*%
D13*
%TO.C,D14*%
X186270000Y-85000000D03*
D14*
X183730000Y-85000000D03*
%TD*%
D13*
%TO.C,D7*%
X207730000Y-101000000D03*
D14*
X210270000Y-101000000D03*
%TD*%
D13*
%TO.C,D24*%
X175730000Y-101000000D03*
D14*
X178270000Y-101000000D03*
%TD*%
D13*
%TO.C,D51*%
X97000000Y-70270000D03*
D14*
X97000000Y-67730000D03*
%TD*%
D13*
%TO.C,D9*%
X193000000Y-115730000D03*
D14*
X193000000Y-118270000D03*
%TD*%
D13*
%TO.C,D57*%
X89000000Y-115730000D03*
D14*
X89000000Y-118270000D03*
%TD*%
D15*
%TO.C,D70*%
X149500000Y-123500000D03*
D16*
X147500000Y-123500000D03*
%TD*%
D13*
%TO.C,D50*%
X143730000Y-117000000D03*
D14*
X146270000Y-117000000D03*
%TD*%
D13*
%TO.C,D26*%
X161000000Y-115730000D03*
D14*
X161000000Y-118270000D03*
%TD*%
D15*
%TO.C,D73*%
X163500000Y-123500000D03*
D16*
X161500000Y-123500000D03*
%TD*%
D13*
%TO.C,D64*%
X97000000Y-94270000D03*
D14*
X97000000Y-91730000D03*
%TD*%
D13*
%TO.C,D32*%
X169000000Y-94270000D03*
D14*
X169000000Y-91730000D03*
%TD*%
D13*
%TO.C,D62*%
X82270000Y-85000000D03*
D14*
X79730000Y-85000000D03*
%TD*%
D17*
%TO.C,J1*%
X226640000Y-121500000D03*
D18*
X219140000Y-121500000D03*
D19*
X225290000Y-123650000D03*
X225290000Y-119350000D03*
X220490000Y-123650000D03*
X220490000Y-119350000D03*
%TD*%
D20*
%TO.C,H2*%
X232000004Y-67999932D03*
%TD*%
D10*
%TO.C,J3*%
X219350000Y-66675000D03*
D11*
X216810000Y-66675000D03*
%TD*%
D10*
%TO.C,J4*%
X225500000Y-66675000D03*
D11*
X222960000Y-66675000D03*
%TD*%
D20*
%TO.C,H2*%
X232000004Y-121999932D03*
%TD*%
%TO.C,H1*%
X78000004Y-67999932D03*
%TD*%
%TO.C,H2*%
X78000004Y-121999932D03*
%TD*%
M02*
