%TF.GenerationSoftware,KiCad,Pcbnew,9.0.6-9.0.6~ubuntu24.04.1*%
%TF.CreationDate,2025-12-13T15:08:55+01:00*%
%TF.ProjectId,7_seg_led_tht_3mm,375f7365-675f-46c6-9564-5f7468745f33,1.0*%
%TF.SameCoordinates,Original*%
%TF.FileFunction,Soldermask,Bot*%
%TF.FilePolarity,Negative*%
%FSLAX46Y46*%
G04 Gerber Fmt 4.6, Leading zero omitted, Abs format (unit mm)*
G04 Created by KiCad (PCBNEW 9.0.6-9.0.6~ubuntu24.04.1) date 2025-12-13 15:08:55*
%MOMM*%
%LPD*%
G01*
G04 APERTURE LIST*
G04 Aperture macros list*
%AMRoundRect*
0 Rectangle with rounded corners*
0 $1 Rounding radius*
0 $2 $3 $4 $5 $6 $7 $8 $9 X,Y pos of 4 corners*
0 Add a 4 corners polygon primitive as box body*
4,1,4,$2,$3,$4,$5,$6,$7,$8,$9,$2,$3,0*
0 Add four circle primitives for the rounded corners*
1,1,$1+$1,$2,$3*
1,1,$1+$1,$4,$5*
1,1,$1+$1,$6,$7*
1,1,$1+$1,$8,$9*
0 Add four rect primitives between the rounded corners*
20,1,$1+$1,$2,$3,$4,$5,0*
20,1,$1+$1,$4,$5,$6,$7,0*
20,1,$1+$1,$6,$7,$8,$9,0*
20,1,$1+$1,$8,$9,$2,$3,0*%
%AMFreePoly0*
4,1,23,0.500000,-0.750000,0.000000,-0.750000,0.000000,-0.745722,-0.065263,-0.745722,-0.191342,-0.711940,-0.304381,-0.646677,-0.396677,-0.554381,-0.461940,-0.441342,-0.495722,-0.315263,-0.495722,-0.250000,-0.500000,-0.250000,-0.500000,0.250000,-0.495722,0.250000,-0.495722,0.315263,-0.461940,0.441342,-0.396677,0.554381,-0.304381,0.646677,-0.191342,0.711940,-0.065263,0.745722,0.000000,0.745722,
0.000000,0.750000,0.500000,0.750000,0.500000,-0.750000,0.500000,-0.750000,$1*%
%AMFreePoly1*
4,1,23,0.000000,0.745722,0.065263,0.745722,0.191342,0.711940,0.304381,0.646677,0.396677,0.554381,0.461940,0.441342,0.495722,0.315263,0.495722,0.250000,0.500000,0.250000,0.500000,-0.250000,0.495722,-0.250000,0.495722,-0.315263,0.461940,-0.441342,0.396677,-0.554381,0.304381,-0.646677,0.191342,-0.711940,0.065263,-0.745722,0.000000,-0.745722,0.000000,-0.750000,-0.500000,-0.750000,
-0.500000,0.750000,0.000000,0.750000,0.000000,0.745722,0.000000,0.745722,$1*%
G04 Aperture macros list end*
%ADD10R,1.700000X1.700000*%
%ADD11C,1.700000*%
%ADD12C,1.000000*%
%ADD13R,1.800000X1.800000*%
%ADD14C,1.800000*%
%ADD15R,1.350000X1.350000*%
%ADD16C,1.350000*%
%ADD17RoundRect,0.225000X-0.250000X0.225000X-0.250000X-0.225000X0.250000X-0.225000X0.250000X0.225000X0*%
%ADD18FreePoly0,270.000000*%
%ADD19FreePoly1,270.000000*%
%ADD20RoundRect,0.225000X0.225000X0.250000X-0.225000X0.250000X-0.225000X-0.250000X0.225000X-0.250000X0*%
%ADD21RoundRect,0.250000X0.262500X0.450000X-0.262500X0.450000X-0.262500X-0.450000X0.262500X-0.450000X0*%
%ADD22RoundRect,0.250000X1.000000X0.900000X-1.000000X0.900000X-1.000000X-0.900000X1.000000X-0.900000X0*%
%ADD23RoundRect,0.250000X-0.250000X-0.475000X0.250000X-0.475000X0.250000X0.475000X-0.250000X0.475000X0*%
%ADD24RoundRect,0.200000X-0.200000X-0.275000X0.200000X-0.275000X0.200000X0.275000X-0.200000X0.275000X0*%
%ADD25RoundRect,0.250000X-0.262500X-0.450000X0.262500X-0.450000X0.262500X0.450000X-0.262500X0.450000X0*%
%ADD26FreePoly0,90.000000*%
%ADD27FreePoly1,90.000000*%
%ADD28RoundRect,0.250000X-0.450000X0.262500X-0.450000X-0.262500X0.450000X-0.262500X0.450000X0.262500X0*%
%ADD29RoundRect,0.250000X0.450000X-0.262500X0.450000X0.262500X-0.450000X0.262500X-0.450000X-0.262500X0*%
%ADD30R,2.100000X1.400000*%
%ADD31FreePoly0,0.000000*%
%ADD32FreePoly1,0.000000*%
%ADD33C,0.660000*%
%ADD34O,1.000000X0.580000*%
%ADD35RoundRect,0.075000X0.075000X0.425000X-0.075000X0.425000X-0.075000X-0.425000X0.075000X-0.425000X0*%
%ADD36C,1.100000*%
%ADD37FreePoly0,180.000000*%
%ADD38FreePoly1,180.000000*%
%ADD39RoundRect,0.200000X0.275000X-0.200000X0.275000X0.200000X-0.275000X0.200000X-0.275000X-0.200000X0*%
%ADD40RoundRect,0.250000X-0.475000X0.250000X-0.475000X-0.250000X0.475000X-0.250000X0.475000X0.250000X0*%
%ADD41RoundRect,0.150000X0.150000X-0.587500X0.150000X0.587500X-0.150000X0.587500X-0.150000X-0.587500X0*%
%ADD42RoundRect,0.200000X0.200000X0.275000X-0.200000X0.275000X-0.200000X-0.275000X0.200000X-0.275000X0*%
%ADD43RoundRect,0.150000X0.725000X0.150000X-0.725000X0.150000X-0.725000X-0.150000X0.725000X-0.150000X0*%
%ADD44RoundRect,0.150000X0.587500X0.150000X-0.587500X0.150000X-0.587500X-0.150000X0.587500X-0.150000X0*%
%ADD45RoundRect,0.150000X-0.150000X0.587500X-0.150000X-0.587500X0.150000X-0.587500X0.150000X0.587500X0*%
%ADD46RoundRect,0.225000X-0.225000X-0.250000X0.225000X-0.250000X0.225000X0.250000X-0.225000X0.250000X0*%
%ADD47RoundRect,0.200000X-0.275000X0.200000X-0.275000X-0.200000X0.275000X-0.200000X0.275000X0.200000X0*%
%ADD48RoundRect,0.150000X0.150000X-0.512500X0.150000X0.512500X-0.150000X0.512500X-0.150000X-0.512500X0*%
%ADD49RoundRect,0.150000X-0.587500X-0.150000X0.587500X-0.150000X0.587500X0.150000X-0.587500X0.150000X0*%
%ADD50C,3.200000*%
%ADD51RoundRect,0.250000X0.250000X0.475000X-0.250000X0.475000X-0.250000X-0.475000X0.250000X-0.475000X0*%
%ADD52RoundRect,0.125000X0.625000X0.125000X-0.625000X0.125000X-0.625000X-0.125000X0.625000X-0.125000X0*%
%ADD53RoundRect,0.125000X0.125000X0.625000X-0.125000X0.625000X-0.125000X-0.625000X0.125000X-0.625000X0*%
G04 APERTURE END LIST*
%TO.C,JP6*%
G36*
X195450000Y-112600000D02*
G01*
X196950000Y-112600000D01*
X196950000Y-112900000D01*
X195450000Y-112900000D01*
X195450000Y-112600000D01*
G37*
%TO.C,JP27*%
G36*
X94500000Y-73450000D02*
G01*
X93000000Y-73450000D01*
X93000000Y-73150000D01*
X94500000Y-73150000D01*
X94500000Y-73450000D01*
G37*
%TO.C,JP20*%
G36*
X132600000Y-82500000D02*
G01*
X132900000Y-82500000D01*
X132900000Y-81000000D01*
X132600000Y-81000000D01*
X132600000Y-82500000D01*
G37*
%TO.C,JP32*%
G36*
X85400000Y-81050000D02*
G01*
X85100000Y-81050000D01*
X85100000Y-82550000D01*
X85400000Y-82550000D01*
X85400000Y-81050000D01*
G37*
%TO.C,JP9*%
G36*
X197525000Y-97325000D02*
G01*
X196025000Y-97325000D01*
X196025000Y-97025000D01*
X197525000Y-97025000D01*
X197525000Y-97325000D01*
G37*
%TO.C,JP14*%
G36*
X163500000Y-112600000D02*
G01*
X165000000Y-112600000D01*
X165000000Y-112900000D01*
X163500000Y-112900000D01*
X163500000Y-112600000D01*
G37*
%TO.C,JP3*%
G36*
X198500000Y-73400000D02*
G01*
X197000000Y-73400000D01*
X197000000Y-73100000D01*
X198500000Y-73100000D01*
X198500000Y-73400000D01*
G37*
%TO.C,JP26*%
G36*
X140600000Y-114500000D02*
G01*
X140900000Y-114500000D01*
X140900000Y-113000000D01*
X140600000Y-113000000D01*
X140600000Y-114500000D01*
G37*
%TO.C,JP33*%
G36*
X93475000Y-97275000D02*
G01*
X91975000Y-97275000D01*
X91975000Y-96975000D01*
X93475000Y-96975000D01*
X93475000Y-97275000D01*
G37*
%TO.C,JP17*%
G36*
X165550000Y-97175000D02*
G01*
X164050000Y-97175000D01*
X164050000Y-96875000D01*
X165550000Y-96875000D01*
X165550000Y-97175000D01*
G37*
%TO.C,JP24*%
G36*
X117400000Y-81100000D02*
G01*
X117100000Y-81100000D01*
X117100000Y-82600000D01*
X117400000Y-82600000D01*
X117400000Y-81100000D01*
G37*
%TO.C,JP19*%
G36*
X126550000Y-73400000D02*
G01*
X125050000Y-73400000D01*
X125050000Y-73100000D01*
X126550000Y-73100000D01*
X126550000Y-73400000D01*
G37*
%TO.C,JP30*%
G36*
X91500000Y-112600000D02*
G01*
X93000000Y-112600000D01*
X93000000Y-112900000D01*
X91500000Y-112900000D01*
X91500000Y-112600000D01*
G37*
%TO.C,JP31*%
G36*
X85400000Y-103450000D02*
G01*
X85100000Y-103450000D01*
X85100000Y-104950000D01*
X85400000Y-104950000D01*
X85400000Y-103450000D01*
G37*
%TO.C,JP23*%
G36*
X117400000Y-103500000D02*
G01*
X117100000Y-103500000D01*
X117100000Y-105000000D01*
X117400000Y-105000000D01*
X117400000Y-103500000D01*
G37*
%TO.C,JP8*%
G36*
X189450000Y-81050000D02*
G01*
X189150000Y-81050000D01*
X189150000Y-82550000D01*
X189450000Y-82550000D01*
X189450000Y-81050000D01*
G37*
%TO.C,JP18*%
G36*
X144850000Y-80700000D02*
G01*
X145150000Y-80700000D01*
X145150000Y-79200000D01*
X144850000Y-79200000D01*
X144850000Y-80700000D01*
G37*
%TO.C,JP29*%
G36*
X100600000Y-106550000D02*
G01*
X100900000Y-106550000D01*
X100900000Y-105050000D01*
X100600000Y-105050000D01*
X100600000Y-106550000D01*
G37*
%TO.C,JP5*%
G36*
X204600000Y-106500000D02*
G01*
X204900000Y-106500000D01*
X204900000Y-105000000D01*
X204600000Y-105000000D01*
X204600000Y-106500000D01*
G37*
%TO.C,JP16*%
G36*
X157400000Y-81000000D02*
G01*
X157100000Y-81000000D01*
X157100000Y-82500000D01*
X157400000Y-82500000D01*
X157400000Y-81000000D01*
G37*
%TO.C,JP13*%
G36*
X172600000Y-106500000D02*
G01*
X172900000Y-106500000D01*
X172900000Y-105000000D01*
X172600000Y-105000000D01*
X172600000Y-106500000D01*
G37*
%TO.C,JP28*%
G36*
X100600000Y-82500000D02*
G01*
X100900000Y-82500000D01*
X100900000Y-81000000D01*
X100600000Y-81000000D01*
X100600000Y-82500000D01*
G37*
%TO.C,JP12*%
G36*
X172600000Y-82500000D02*
G01*
X172900000Y-82500000D01*
X172900000Y-81000000D01*
X172600000Y-81000000D01*
X172600000Y-82500000D01*
G37*
%TO.C,JP25*%
G36*
X126550000Y-97400000D02*
G01*
X125050000Y-97400000D01*
X125050000Y-97100000D01*
X126550000Y-97100000D01*
X126550000Y-97400000D01*
G37*
%TO.C,JP7*%
G36*
X189400000Y-103450000D02*
G01*
X189100000Y-103450000D01*
X189100000Y-104950000D01*
X189400000Y-104950000D01*
X189400000Y-103450000D01*
G37*
%TO.C,JP10*%
G36*
X185150000Y-67050000D02*
G01*
X184850000Y-67050000D01*
X184850000Y-68550000D01*
X185150000Y-68550000D01*
X185150000Y-67050000D01*
G37*
%TO.C,JP4*%
G36*
X204600000Y-82500000D02*
G01*
X204900000Y-82500000D01*
X204900000Y-81000000D01*
X204600000Y-81000000D01*
X204600000Y-82500000D01*
G37*
%TO.C,JP11*%
G36*
X166550000Y-73400000D02*
G01*
X165050000Y-73400000D01*
X165050000Y-73100000D01*
X166550000Y-73100000D01*
X166550000Y-73400000D01*
G37*
%TO.C,JP22*%
G36*
X123500000Y-112600000D02*
G01*
X125000000Y-112600000D01*
X125000000Y-112900000D01*
X123500000Y-112900000D01*
X123500000Y-112600000D01*
G37*
%TO.C,JP21*%
G36*
X132550000Y-106450000D02*
G01*
X132850000Y-106450000D01*
X132850000Y-104950000D01*
X132550000Y-104950000D01*
X132550000Y-106450000D01*
G37*
%TO.C,JP15*%
G36*
X157450000Y-103450000D02*
G01*
X157150000Y-103450000D01*
X157150000Y-104950000D01*
X157450000Y-104950000D01*
X157450000Y-103450000D01*
G37*
%TD*%
D10*
%TO.C,J5*%
X232900004Y-113979932D03*
D11*
X232900004Y-111439932D03*
X232900004Y-108899932D03*
X232900004Y-106359932D03*
X232900004Y-103819932D03*
%TD*%
D12*
%TO.C,Y1*%
X225929590Y-103367291D03*
X225929590Y-105267291D03*
%TD*%
D13*
%TO.C,D5*%
X207730000Y-77000000D03*
D14*
X210270000Y-77000000D03*
%TD*%
D13*
%TO.C,D47*%
X121000000Y-94270000D03*
D14*
X121000000Y-91730000D03*
%TD*%
D13*
%TO.C,D44*%
X114270000Y-101000000D03*
D14*
X111730000Y-101000000D03*
%TD*%
D13*
%TO.C,D28*%
X154270000Y-109000000D03*
D14*
X151730000Y-109000000D03*
%TD*%
D13*
%TO.C,D23*%
X175730000Y-109000000D03*
D14*
X178270000Y-109000000D03*
%TD*%
D13*
%TO.C,D30*%
X154270000Y-85000000D03*
D14*
X151730000Y-85000000D03*
%TD*%
D13*
%TO.C,D17*%
X182270000Y-69000000D03*
D14*
X179730000Y-69000000D03*
%TD*%
D13*
%TO.C,D42*%
X129000000Y-115730000D03*
D14*
X129000000Y-118270000D03*
%TD*%
D15*
%TO.C,D68*%
X135500000Y-123500000D03*
D16*
X133500000Y-123500000D03*
%TD*%
D13*
%TO.C,D20*%
X161000000Y-70270000D03*
D14*
X161000000Y-67730000D03*
%TD*%
D13*
%TO.C,D49*%
X143730000Y-109000000D03*
D14*
X146270000Y-109000000D03*
%TD*%
D15*
%TO.C,D67*%
X128500000Y-123500000D03*
D16*
X126500000Y-123500000D03*
%TD*%
D13*
%TO.C,D54*%
X103730000Y-85000000D03*
D14*
X106270000Y-85000000D03*
%TD*%
D13*
%TO.C,D11*%
X186270000Y-101000000D03*
D14*
X183730000Y-101000000D03*
%TD*%
D13*
%TO.C,D16*%
X201000000Y-94270000D03*
D14*
X201000000Y-91730000D03*
%TD*%
D13*
%TO.C,D63*%
X89000000Y-94270000D03*
D14*
X89000000Y-91730000D03*
%TD*%
D13*
%TO.C,D27*%
X154270000Y-101000000D03*
D14*
X151730000Y-101000000D03*
%TD*%
D13*
%TO.C,D46*%
X114270000Y-77000000D03*
D14*
X111730000Y-77000000D03*
%TD*%
D13*
%TO.C,D12*%
X186270000Y-109000000D03*
D14*
X183730000Y-109000000D03*
%TD*%
D13*
%TO.C,D33*%
X146270000Y-99000000D03*
D14*
X143730000Y-99000000D03*
%TD*%
D13*
%TO.C,D8*%
X207730000Y-109000000D03*
D14*
X210270000Y-109000000D03*
%TD*%
D13*
%TO.C,D39*%
X135730000Y-109000000D03*
D14*
X138270000Y-109000000D03*
%TD*%
D13*
%TO.C,D45*%
X114270000Y-85000000D03*
D14*
X111730000Y-85000000D03*
%TD*%
D13*
%TO.C,D55*%
X103730000Y-109000000D03*
D14*
X106270000Y-109000000D03*
%TD*%
D13*
%TO.C,D25*%
X169000000Y-115730000D03*
D14*
X169000000Y-118270000D03*
%TD*%
D13*
%TO.C,D52*%
X89000000Y-70270000D03*
D14*
X89000000Y-67730000D03*
%TD*%
D13*
%TO.C,D59*%
X82270000Y-101000000D03*
D14*
X79730000Y-101000000D03*
%TD*%
D15*
%TO.C,D72*%
X170500000Y-123500000D03*
D16*
X168500000Y-123500000D03*
%TD*%
D13*
%TO.C,D34*%
X146270000Y-87000000D03*
D14*
X143730000Y-87000000D03*
%TD*%
D13*
%TO.C,D22*%
X175730000Y-85000000D03*
D14*
X178270000Y-85000000D03*
%TD*%
D13*
%TO.C,D38*%
X135730000Y-77000000D03*
D14*
X138270000Y-77000000D03*
%TD*%
D13*
%TO.C,D15*%
X193000000Y-94270000D03*
D14*
X193000000Y-91730000D03*
%TD*%
D13*
%TO.C,D43*%
X114270000Y-109000000D03*
D14*
X111730000Y-109000000D03*
%TD*%
D13*
%TO.C,D4*%
X201000000Y-70270000D03*
D14*
X201000000Y-67730000D03*
%TD*%
D13*
%TO.C,D36*%
X129000000Y-70270000D03*
D14*
X129000000Y-67730000D03*
%TD*%
D13*
%TO.C,D21*%
X175730000Y-77000000D03*
D14*
X178270000Y-77000000D03*
%TD*%
D13*
%TO.C,D53*%
X103730000Y-77000000D03*
D14*
X106270000Y-77000000D03*
%TD*%
D13*
%TO.C,D31*%
X161000000Y-94270000D03*
D14*
X161000000Y-91730000D03*
%TD*%
D13*
%TO.C,D40*%
X135730000Y-101000000D03*
D14*
X138270000Y-101000000D03*
%TD*%
D13*
%TO.C,D13*%
X186270000Y-77000000D03*
D14*
X183730000Y-77000000D03*
%TD*%
D15*
%TO.C,D71*%
X156500000Y-123500000D03*
D16*
X154500000Y-123500000D03*
%TD*%
D13*
%TO.C,D41*%
X121000000Y-115730000D03*
D14*
X121000000Y-118270000D03*
%TD*%
D13*
%TO.C,D6*%
X207730000Y-85000000D03*
D14*
X210270000Y-85000000D03*
%TD*%
D13*
%TO.C,D61*%
X82270000Y-77000000D03*
D14*
X79730000Y-77000000D03*
%TD*%
D15*
%TO.C,D2*%
X121500000Y-123500000D03*
D16*
X119500000Y-123500000D03*
%TD*%
D13*
%TO.C,D56*%
X103730000Y-101000000D03*
D14*
X106270000Y-101000000D03*
%TD*%
D13*
%TO.C,D35*%
X121000000Y-70270000D03*
D14*
X121000000Y-67730000D03*
%TD*%
D13*
%TO.C,D3*%
X193000000Y-70270000D03*
D14*
X193000000Y-67730000D03*
%TD*%
D13*
%TO.C,D37*%
X135730000Y-85000000D03*
D14*
X138270000Y-85000000D03*
%TD*%
D13*
%TO.C,D48*%
X129000000Y-94270000D03*
D14*
X129000000Y-91730000D03*
%TD*%
D13*
%TO.C,D10*%
X201000000Y-115730000D03*
D14*
X201000000Y-118270000D03*
%TD*%
D15*
%TO.C,D69*%
X142500000Y-123500000D03*
D16*
X140500000Y-123500000D03*
%TD*%
D13*
%TO.C,D29*%
X154270000Y-77000000D03*
D14*
X151730000Y-77000000D03*
%TD*%
D13*
%TO.C,D58*%
X97000000Y-115730000D03*
D14*
X97000000Y-118270000D03*
%TD*%
D13*
%TO.C,D60*%
X82270000Y-109000000D03*
D14*
X79730000Y-109000000D03*
%TD*%
D13*
%TO.C,D19*%
X169000000Y-70270000D03*
D14*
X169000000Y-67730000D03*
%TD*%
D13*
%TO.C,D14*%
X186270000Y-85000000D03*
D14*
X183730000Y-85000000D03*
%TD*%
D13*
%TO.C,D7*%
X207730000Y-101000000D03*
D14*
X210270000Y-101000000D03*
%TD*%
D13*
%TO.C,D24*%
X175730000Y-101000000D03*
D14*
X178270000Y-101000000D03*
%TD*%
D13*
%TO.C,D51*%
X97000000Y-70270000D03*
D14*
X97000000Y-67730000D03*
%TD*%
D13*
%TO.C,D9*%
X193000000Y-115730000D03*
D14*
X193000000Y-118270000D03*
%TD*%
D13*
%TO.C,D57*%
X89000000Y-115730000D03*
D14*
X89000000Y-118270000D03*
%TD*%
D15*
%TO.C,D70*%
X149500000Y-123500000D03*
D16*
X147500000Y-123500000D03*
%TD*%
D13*
%TO.C,D50*%
X143730000Y-117000000D03*
D14*
X146270000Y-117000000D03*
%TD*%
D13*
%TO.C,D26*%
X161000000Y-115730000D03*
D14*
X161000000Y-118270000D03*
%TD*%
D15*
%TO.C,D73*%
X163500000Y-123500000D03*
D16*
X161500000Y-123500000D03*
%TD*%
D13*
%TO.C,D64*%
X97000000Y-94270000D03*
D14*
X97000000Y-91730000D03*
%TD*%
D13*
%TO.C,D32*%
X169000000Y-94270000D03*
D14*
X169000000Y-91730000D03*
%TD*%
D13*
%TO.C,D62*%
X82270000Y-85000000D03*
D14*
X79730000Y-85000000D03*
%TD*%
D17*
%TO.C,C19*%
X179000000Y-92225000D03*
X179000000Y-93775000D03*
%TD*%
D18*
%TO.C,JP6*%
X196200000Y-112100000D03*
D19*
X196200000Y-113400000D03*
%TD*%
D20*
%TO.C,C15*%
X123575000Y-77400000D03*
X122025000Y-77400000D03*
%TD*%
D21*
%TO.C,R66*%
X118162500Y-102000000D03*
X116337500Y-102000000D03*
%TD*%
D22*
%TO.C,D1*%
X220750000Y-115800000D03*
X216450000Y-115800000D03*
%TD*%
D23*
%TO.C,C3*%
X228500000Y-115500000D03*
X230400000Y-115500000D03*
%TD*%
D24*
%TO.C,R35*%
X172475000Y-99800000D03*
X174125000Y-99800000D03*
%TD*%
D25*
%TO.C,R12*%
X203837500Y-108000000D03*
X205662500Y-108000000D03*
%TD*%
D17*
%TO.C,C18*%
X211000000Y-92225000D03*
X211000000Y-93775000D03*
%TD*%
D26*
%TO.C,JP27*%
X93750000Y-73950000D03*
D27*
X93750000Y-72650000D03*
%TD*%
D28*
%TO.C,R52*%
X144000000Y-82087500D03*
X144000000Y-83912500D03*
%TD*%
D20*
%TO.C,C16*%
X91575000Y-75800000D03*
X90025000Y-75800000D03*
%TD*%
D21*
%TO.C,R69*%
X118162500Y-79600000D03*
X116337500Y-79600000D03*
%TD*%
D29*
%TO.C,R97*%
X97025000Y-98037500D03*
X97025000Y-96212500D03*
%TD*%
D21*
%TO.C,R19*%
X190162500Y-101900000D03*
X188337500Y-101900000D03*
%TD*%
D30*
%TO.C,SW3*%
X218350000Y-100250000D03*
X227450000Y-100250000D03*
X218350000Y-95750000D03*
X227450000Y-95750000D03*
%TD*%
D31*
%TO.C,JP20*%
X132100000Y-81750000D03*
D32*
X133400000Y-81750000D03*
%TD*%
D33*
%TO.C,J1*%
X226640000Y-121500000D03*
D34*
X219140000Y-121500000D03*
D35*
X225670000Y-120740000D03*
X224880000Y-120740000D03*
X224090000Y-120740000D03*
X223300000Y-120740000D03*
X222510000Y-120740000D03*
X221720000Y-120740000D03*
X220930000Y-120740000D03*
X220140000Y-120740000D03*
X220140000Y-122260000D03*
X220930000Y-122260000D03*
X221720000Y-122260000D03*
X222510000Y-122260000D03*
X223300000Y-122260000D03*
X224090000Y-122260000D03*
X224880000Y-122260000D03*
X225670000Y-122260000D03*
D36*
X225290000Y-123650000D03*
X225290000Y-119350000D03*
X220490000Y-123650000D03*
X220490000Y-119350000D03*
%TD*%
D37*
%TO.C,JP32*%
X85900000Y-81800000D03*
D38*
X84600000Y-81800000D03*
%TD*%
D39*
%TO.C,R6*%
X191750000Y-74075000D03*
X191750000Y-72425000D03*
%TD*%
D26*
%TO.C,JP9*%
X196775000Y-97825000D03*
D27*
X196775000Y-96525000D03*
%TD*%
D40*
%TO.C,C2*%
X225400000Y-115500000D03*
X225400000Y-117400000D03*
%TD*%
D20*
%TO.C,C14*%
X123575000Y-75800000D03*
X122025000Y-75800000D03*
%TD*%
D41*
%TO.C,Q22*%
X118200000Y-86037500D03*
X116300000Y-86037500D03*
X117250000Y-84162500D03*
%TD*%
D28*
%TO.C,R16*%
X193900000Y-111837500D03*
X193900000Y-113662500D03*
%TD*%
D21*
%TO.C,R22*%
X190212500Y-79500000D03*
X188387500Y-79500000D03*
%TD*%
D42*
%TO.C,R17*%
X190025000Y-110200000D03*
X188375000Y-110200000D03*
%TD*%
D18*
%TO.C,JP14*%
X164250000Y-112100000D03*
D19*
X164250000Y-113400000D03*
%TD*%
D28*
%TO.C,R87*%
X88000000Y-111837500D03*
X88000000Y-113662500D03*
%TD*%
D17*
%TO.C,C9*%
X223900000Y-107525000D03*
X223900000Y-109075000D03*
%TD*%
D26*
%TO.C,JP3*%
X197750000Y-73900000D03*
D27*
X197750000Y-72600000D03*
%TD*%
D43*
%TO.C,U4*%
X167575000Y-78955000D03*
X167575000Y-80225000D03*
X167575000Y-81495000D03*
X167575000Y-82765000D03*
X167575000Y-84035000D03*
X167575000Y-85305000D03*
X167575000Y-86575000D03*
X167575000Y-87845000D03*
X162425000Y-87845000D03*
X162425000Y-86575000D03*
X162425000Y-85305000D03*
X162425000Y-84035000D03*
X162425000Y-82765000D03*
X162425000Y-81495000D03*
X162425000Y-80225000D03*
X162425000Y-78955000D03*
%TD*%
D44*
%TO.C,Q8*%
X185937500Y-69850000D03*
X185937500Y-71750000D03*
X184062500Y-70800000D03*
%TD*%
D45*
%TO.C,Q10*%
X171800000Y-77562500D03*
X173700000Y-77562500D03*
X172750000Y-79437500D03*
%TD*%
D24*
%TO.C,R56*%
X131925000Y-75500000D03*
X133575000Y-75500000D03*
%TD*%
D25*
%TO.C,R58*%
X131837500Y-84000000D03*
X133662500Y-84000000D03*
%TD*%
D45*
%TO.C,Q11*%
X171800000Y-101562500D03*
X173700000Y-101562500D03*
X172750000Y-103437500D03*
%TD*%
D28*
%TO.C,R64*%
X122000000Y-111837500D03*
X122000000Y-113662500D03*
%TD*%
D24*
%TO.C,R80*%
X99925000Y-75750000D03*
X101575000Y-75750000D03*
%TD*%
D21*
%TO.C,R27*%
X182312500Y-72300000D03*
X180487500Y-72300000D03*
%TD*%
D41*
%TO.C,Q21*%
X118200000Y-108437500D03*
X116300000Y-108437500D03*
X117250000Y-106562500D03*
%TD*%
D29*
%TO.C,R29*%
X170100000Y-74162500D03*
X170100000Y-72337500D03*
%TD*%
D42*
%TO.C,R89*%
X86075000Y-110450000D03*
X84425000Y-110450000D03*
%TD*%
D31*
%TO.C,JP26*%
X140100000Y-113750000D03*
D32*
X141400000Y-113750000D03*
%TD*%
D42*
%TO.C,R92*%
X86075000Y-87800000D03*
X84425000Y-87800000D03*
%TD*%
D46*
%TO.C,C7*%
X228504594Y-105267291D03*
X230054594Y-105267291D03*
%TD*%
D26*
%TO.C,JP33*%
X92725000Y-97775000D03*
D27*
X92725000Y-96475000D03*
%TD*%
D47*
%TO.C,R86*%
X98500000Y-111925000D03*
X98500000Y-113575000D03*
%TD*%
D44*
%TO.C,Q4*%
X200387500Y-111800000D03*
X200387500Y-113700000D03*
X198512500Y-112750000D03*
%TD*%
D28*
%TO.C,R51*%
X146000000Y-82087500D03*
X146000000Y-83912500D03*
%TD*%
D26*
%TO.C,JP17*%
X164800000Y-97675000D03*
D27*
X164800000Y-96375000D03*
%TD*%
D40*
%TO.C,C1*%
X223350000Y-115500000D03*
X223350000Y-117400000D03*
%TD*%
D37*
%TO.C,JP24*%
X117900000Y-81850000D03*
D38*
X116600000Y-81850000D03*
%TD*%
D25*
%TO.C,R33*%
X171837500Y-84000000D03*
X173662500Y-84000000D03*
%TD*%
D48*
%TO.C,U1*%
X230412500Y-113537500D03*
X229462500Y-113537500D03*
X228512500Y-113537500D03*
X228512500Y-111262500D03*
X230412500Y-111262500D03*
%TD*%
D25*
%TO.C,R13*%
X203837500Y-110000000D03*
X205662500Y-110000000D03*
%TD*%
%TO.C,R81*%
X99837500Y-84000000D03*
X101662500Y-84000000D03*
%TD*%
D26*
%TO.C,JP19*%
X125800000Y-73900000D03*
D27*
X125800000Y-72600000D03*
%TD*%
D20*
%TO.C,C13*%
X163575000Y-77400000D03*
X162025000Y-77400000D03*
%TD*%
D28*
%TO.C,R63*%
X120000000Y-111837500D03*
X120000000Y-113662500D03*
%TD*%
D18*
%TO.C,JP30*%
X92250000Y-112100000D03*
D19*
X92250000Y-113400000D03*
%TD*%
D25*
%TO.C,R76*%
X139837500Y-118000000D03*
X141662500Y-118000000D03*
%TD*%
D30*
%TO.C,SW1*%
X218350000Y-82050000D03*
X227450000Y-82050000D03*
X218350000Y-77550000D03*
X227450000Y-77550000D03*
%TD*%
D42*
%TO.C,R44*%
X158075000Y-88000000D03*
X156425000Y-88000000D03*
%TD*%
D44*
%TO.C,Q28*%
X96437500Y-111800000D03*
X96437500Y-113700000D03*
X94562500Y-112750000D03*
%TD*%
D45*
%TO.C,Q26*%
X99800000Y-77562500D03*
X101700000Y-77562500D03*
X100750000Y-79437500D03*
%TD*%
D39*
%TO.C,R71*%
X119800000Y-98025000D03*
X119800000Y-96375000D03*
%TD*%
D37*
%TO.C,JP31*%
X85900000Y-104200000D03*
D38*
X84600000Y-104200000D03*
%TD*%
D21*
%TO.C,R93*%
X86162500Y-77550000D03*
X84337500Y-77550000D03*
%TD*%
D25*
%TO.C,R34*%
X171837500Y-86000000D03*
X173662500Y-86000000D03*
%TD*%
D43*
%TO.C,U3*%
X199575000Y-78955000D03*
X199575000Y-80225000D03*
X199575000Y-81495000D03*
X199575000Y-82765000D03*
X199575000Y-84035000D03*
X199575000Y-85305000D03*
X199575000Y-86575000D03*
X199575000Y-87845000D03*
X194425000Y-87845000D03*
X194425000Y-86575000D03*
X194425000Y-85305000D03*
X194425000Y-84035000D03*
X194425000Y-82765000D03*
X194425000Y-81495000D03*
X194425000Y-80225000D03*
X194425000Y-78955000D03*
%TD*%
D29*
%TO.C,R24*%
X199025000Y-98087500D03*
X199025000Y-96262500D03*
%TD*%
%TO.C,R48*%
X167100000Y-97937500D03*
X167100000Y-96112500D03*
%TD*%
D49*
%TO.C,Q31*%
X88587500Y-98025000D03*
X88587500Y-96125000D03*
X90462500Y-97075000D03*
%TD*%
D47*
%TO.C,R38*%
X170500000Y-111925000D03*
X170500000Y-113575000D03*
%TD*%
D28*
%TO.C,R15*%
X191900000Y-111837500D03*
X191900000Y-113662500D03*
%TD*%
D25*
%TO.C,R61*%
X131787500Y-108000000D03*
X133612500Y-108000000D03*
%TD*%
D24*
%TO.C,R74*%
X140450000Y-107525000D03*
X142100000Y-107525000D03*
%TD*%
D39*
%TO.C,R30*%
X159550000Y-74075000D03*
X159550000Y-72425000D03*
%TD*%
D28*
%TO.C,R39*%
X162050000Y-111837500D03*
X162050000Y-113662500D03*
%TD*%
D24*
%TO.C,R59*%
X132175000Y-99700000D03*
X133825000Y-99700000D03*
%TD*%
D25*
%TO.C,R106*%
X158087500Y-123500000D03*
X159912500Y-123500000D03*
%TD*%
%TO.C,R105*%
X151087500Y-123500000D03*
X152912500Y-123500000D03*
%TD*%
%TO.C,R60*%
X131787500Y-110050000D03*
X133612500Y-110050000D03*
%TD*%
D43*
%TO.C,U6*%
X95575000Y-78955000D03*
X95575000Y-80225000D03*
X95575000Y-81495000D03*
X95575000Y-82765000D03*
X95575000Y-84035000D03*
X95575000Y-85305000D03*
X95575000Y-86575000D03*
X95575000Y-87845000D03*
X90425000Y-87845000D03*
X90425000Y-86575000D03*
X90425000Y-85305000D03*
X90425000Y-84035000D03*
X90425000Y-82765000D03*
X90425000Y-81495000D03*
X90425000Y-80225000D03*
X90425000Y-78955000D03*
%TD*%
D29*
%TO.C,R73*%
X130100000Y-98162500D03*
X130100000Y-96337500D03*
%TD*%
D37*
%TO.C,JP23*%
X117900000Y-104250000D03*
D38*
X116600000Y-104250000D03*
%TD*%
D25*
%TO.C,R103*%
X137087500Y-123500000D03*
X138912500Y-123500000D03*
%TD*%
D49*
%TO.C,Q1*%
X193562500Y-74200000D03*
X193562500Y-72300000D03*
X195437500Y-73250000D03*
%TD*%
D29*
%TO.C,R96*%
X95025000Y-98037500D03*
X95025000Y-96212500D03*
%TD*%
D50*
%TO.C,H2*%
X232000004Y-67999932D03*
%TD*%
D47*
%TO.C,R109*%
X180937500Y-121675000D03*
X180937500Y-123325000D03*
%TD*%
D39*
%TO.C,R111*%
X213700000Y-93875000D03*
X213700000Y-92225000D03*
%TD*%
D41*
%TO.C,Q5*%
X190200000Y-108387500D03*
X188300000Y-108387500D03*
X189250000Y-106512500D03*
%TD*%
D10*
%TO.C,J3*%
X219350000Y-66675000D03*
D11*
X216810000Y-66675000D03*
%TD*%
D49*
%TO.C,Q17*%
X121612500Y-74200000D03*
X121612500Y-72300000D03*
X123487500Y-73250000D03*
%TD*%
D37*
%TO.C,JP8*%
X189950000Y-81800000D03*
D38*
X188650000Y-81800000D03*
%TD*%
D42*
%TO.C,R20*%
X190125000Y-87800000D03*
X188475000Y-87800000D03*
%TD*%
D49*
%TO.C,Q25*%
X89562500Y-74250000D03*
X89562500Y-72350000D03*
X91437500Y-73300000D03*
%TD*%
D31*
%TO.C,JP18*%
X144350000Y-79950000D03*
D32*
X145650000Y-79950000D03*
%TD*%
D21*
%TO.C,R90*%
X86162500Y-99900000D03*
X84337500Y-99900000D03*
%TD*%
D28*
%TO.C,R88*%
X90000000Y-111837500D03*
X90000000Y-113662500D03*
%TD*%
D10*
%TO.C,J4*%
X225500000Y-66675000D03*
D11*
X222960000Y-66675000D03*
%TD*%
D40*
%TO.C,C8*%
X225750000Y-107350000D03*
X225750000Y-109250000D03*
%TD*%
D49*
%TO.C,Q23*%
X121612500Y-98200000D03*
X121612500Y-96300000D03*
X123487500Y-97250000D03*
%TD*%
D31*
%TO.C,JP29*%
X100100000Y-105800000D03*
D32*
X101400000Y-105800000D03*
%TD*%
D29*
%TO.C,R25*%
X201025000Y-98087500D03*
X201025000Y-96262500D03*
%TD*%
D24*
%TO.C,R8*%
X203925000Y-75500000D03*
X205575000Y-75500000D03*
%TD*%
D31*
%TO.C,JP5*%
X204100000Y-105750000D03*
D32*
X205400000Y-105750000D03*
%TD*%
D25*
%TO.C,R107*%
X172587500Y-123500000D03*
X174412500Y-123500000D03*
%TD*%
D20*
%TO.C,C12*%
X163575000Y-75800000D03*
X162025000Y-75800000D03*
%TD*%
D42*
%TO.C,R41*%
X158125000Y-110200000D03*
X156475000Y-110200000D03*
%TD*%
D28*
%TO.C,R40*%
X160000000Y-111837500D03*
X160000000Y-113662500D03*
%TD*%
D17*
%TO.C,C20*%
X139000000Y-92225000D03*
X139000000Y-93775000D03*
%TD*%
D39*
%TO.C,R95*%
X86775000Y-97900000D03*
X86775000Y-96250000D03*
%TD*%
D41*
%TO.C,Q13*%
X158250000Y-108387500D03*
X156350000Y-108387500D03*
X157300000Y-106512500D03*
%TD*%
D37*
%TO.C,JP16*%
X157900000Y-81750000D03*
D38*
X156600000Y-81750000D03*
%TD*%
D45*
%TO.C,Q19*%
X131750000Y-101512500D03*
X133650000Y-101512500D03*
X132700000Y-103387500D03*
%TD*%
D47*
%TO.C,R14*%
X202450000Y-111925000D03*
X202450000Y-113575000D03*
%TD*%
D39*
%TO.C,R1*%
X225425000Y-70950000D03*
X225425000Y-69300000D03*
%TD*%
D25*
%TO.C,R85*%
X99837500Y-108100000D03*
X101662500Y-108100000D03*
%TD*%
D39*
%TO.C,R78*%
X87750000Y-74125000D03*
X87750000Y-72475000D03*
%TD*%
D49*
%TO.C,Q9*%
X161612500Y-74200000D03*
X161612500Y-72300000D03*
X163487500Y-73250000D03*
%TD*%
D31*
%TO.C,JP13*%
X172100000Y-105750000D03*
D32*
X173400000Y-105750000D03*
%TD*%
D25*
%TO.C,R75*%
X139837500Y-116000000D03*
X141662500Y-116000000D03*
%TD*%
D20*
%TO.C,C17*%
X91575000Y-77400000D03*
X90025000Y-77400000D03*
%TD*%
D24*
%TO.C,R11*%
X203925000Y-99750000D03*
X205575000Y-99750000D03*
%TD*%
D45*
%TO.C,Q2*%
X203800000Y-77562500D03*
X205700000Y-77562500D03*
X204750000Y-79437500D03*
%TD*%
D29*
%TO.C,R55*%
X130100000Y-74162500D03*
X130100000Y-72337500D03*
%TD*%
D41*
%TO.C,Q29*%
X86200000Y-108387500D03*
X84300000Y-108387500D03*
X85250000Y-106512500D03*
%TD*%
D29*
%TO.C,R49*%
X169100000Y-97937500D03*
X169100000Y-96112500D03*
%TD*%
D31*
%TO.C,JP28*%
X100100000Y-81750000D03*
D32*
X101400000Y-81750000D03*
%TD*%
D21*
%TO.C,R43*%
X158212500Y-101900000D03*
X156387500Y-101900000D03*
%TD*%
D45*
%TO.C,Q24*%
X139800000Y-109562500D03*
X141700000Y-109562500D03*
X140750000Y-111437500D03*
%TD*%
D25*
%TO.C,R57*%
X131837500Y-86000000D03*
X133662500Y-86000000D03*
%TD*%
D31*
%TO.C,JP12*%
X172100000Y-81750000D03*
D32*
X173400000Y-81750000D03*
%TD*%
D43*
%TO.C,U5*%
X127575000Y-78955000D03*
X127575000Y-80225000D03*
X127575000Y-81495000D03*
X127575000Y-82765000D03*
X127575000Y-84035000D03*
X127575000Y-85305000D03*
X127575000Y-86575000D03*
X127575000Y-87845000D03*
X122425000Y-87845000D03*
X122425000Y-86575000D03*
X122425000Y-85305000D03*
X122425000Y-84035000D03*
X122425000Y-82765000D03*
X122425000Y-81495000D03*
X122425000Y-80225000D03*
X122425000Y-78955000D03*
%TD*%
D25*
%TO.C,R101*%
X130087500Y-123500000D03*
X131912500Y-123500000D03*
%TD*%
%TO.C,R108*%
X165087500Y-123500000D03*
X166912500Y-123500000D03*
%TD*%
D21*
%TO.C,R18*%
X190162500Y-99900000D03*
X188337500Y-99900000D03*
%TD*%
D50*
%TO.C,H2*%
X232000004Y-121999932D03*
%TD*%
D21*
%TO.C,R67*%
X118162500Y-100000000D03*
X116337500Y-100000000D03*
%TD*%
D26*
%TO.C,JP25*%
X125800000Y-97900000D03*
D27*
X125800000Y-96600000D03*
%TD*%
D29*
%TO.C,R5*%
X200000000Y-74162500D03*
X200000000Y-72337500D03*
%TD*%
D37*
%TO.C,JP7*%
X189900000Y-104200000D03*
D38*
X188600000Y-104200000D03*
%TD*%
D37*
%TO.C,JP10*%
X185650000Y-67800000D03*
D38*
X184350000Y-67800000D03*
%TD*%
D29*
%TO.C,R53*%
X128100000Y-74162500D03*
X128100000Y-72337500D03*
%TD*%
D42*
%TO.C,R4*%
X219675004Y-70999932D03*
X221325004Y-70999932D03*
%TD*%
D20*
%TO.C,C10*%
X195575000Y-75800000D03*
X194025000Y-75800000D03*
%TD*%
%TO.C,C11*%
X195575000Y-77400000D03*
X194025000Y-77400000D03*
%TD*%
D51*
%TO.C,C4*%
X230400000Y-109250000D03*
X228500000Y-109250000D03*
%TD*%
D39*
%TO.C,R54*%
X119550000Y-74075000D03*
X119550000Y-72425000D03*
%TD*%
D45*
%TO.C,Q27*%
X99800000Y-101612500D03*
X101700000Y-101612500D03*
X100750000Y-103487500D03*
%TD*%
D21*
%TO.C,R91*%
X86162500Y-101900000D03*
X84337500Y-101900000D03*
%TD*%
D25*
%TO.C,R104*%
X144087500Y-123500000D03*
X145912500Y-123500000D03*
%TD*%
D29*
%TO.C,R77*%
X98100000Y-74212500D03*
X98100000Y-72387500D03*
%TD*%
D30*
%TO.C,SW2*%
X218350000Y-91150000D03*
X227450000Y-91150000D03*
X218350000Y-86650000D03*
X227450000Y-86650000D03*
%TD*%
D24*
%TO.C,R50*%
X144175000Y-73900000D03*
X145825000Y-73900000D03*
%TD*%
D47*
%TO.C,R62*%
X130250000Y-111925000D03*
X130250000Y-113575000D03*
%TD*%
D45*
%TO.C,Q3*%
X203800000Y-101562500D03*
X205700000Y-101562500D03*
X204750000Y-103437500D03*
%TD*%
D25*
%TO.C,R37*%
X171837500Y-108000000D03*
X173662500Y-108000000D03*
%TD*%
D45*
%TO.C,Q16*%
X144050000Y-75712500D03*
X145950000Y-75712500D03*
X145000000Y-77587500D03*
%TD*%
D25*
%TO.C,R102*%
X123087500Y-123500000D03*
X124912500Y-123500000D03*
%TD*%
D29*
%TO.C,R79*%
X96050000Y-74212500D03*
X96050000Y-72387500D03*
%TD*%
D49*
%TO.C,Q7*%
X192587500Y-98125000D03*
X192587500Y-96225000D03*
X194462500Y-97175000D03*
%TD*%
D31*
%TO.C,JP4*%
X204100000Y-81750000D03*
D32*
X205400000Y-81750000D03*
%TD*%
D41*
%TO.C,Q6*%
X190250000Y-85987500D03*
X188350000Y-85987500D03*
X189300000Y-84112500D03*
%TD*%
D39*
%TO.C,R110*%
X182937500Y-123325000D03*
X182937500Y-121675000D03*
%TD*%
D29*
%TO.C,R31*%
X168100000Y-74162500D03*
X168100000Y-72337500D03*
%TD*%
D21*
%TO.C,R70*%
X118162500Y-77600000D03*
X116337500Y-77600000D03*
%TD*%
D44*
%TO.C,Q20*%
X128437500Y-111800000D03*
X128437500Y-113700000D03*
X126562500Y-112750000D03*
%TD*%
D39*
%TO.C,R2*%
X215250000Y-93875000D03*
X215250000Y-92225000D03*
%TD*%
D21*
%TO.C,R21*%
X190212500Y-77450000D03*
X188387500Y-77450000D03*
%TD*%
D26*
%TO.C,JP11*%
X165800000Y-73900000D03*
D27*
X165800000Y-72600000D03*
%TD*%
D18*
%TO.C,JP22*%
X124250000Y-112100000D03*
D19*
X124250000Y-113400000D03*
%TD*%
D44*
%TO.C,Q12*%
X168387500Y-111800000D03*
X168387500Y-113700000D03*
X166512500Y-112750000D03*
%TD*%
D21*
%TO.C,R46*%
X158162500Y-79500000D03*
X156337500Y-79500000D03*
%TD*%
D17*
%TO.C,C21*%
X107000000Y-92225000D03*
X107000000Y-93775000D03*
%TD*%
D25*
%TO.C,R9*%
X203837500Y-84000000D03*
X205662500Y-84000000D03*
%TD*%
D42*
%TO.C,R65*%
X118075000Y-110250000D03*
X116425000Y-110250000D03*
%TD*%
D24*
%TO.C,R32*%
X171925000Y-75750000D03*
X173575000Y-75750000D03*
%TD*%
D29*
%TO.C,R72*%
X128100000Y-98162500D03*
X128100000Y-96337500D03*
%TD*%
D49*
%TO.C,Q15*%
X160612500Y-97975000D03*
X160612500Y-96075000D03*
X162487500Y-97025000D03*
%TD*%
D39*
%TO.C,R47*%
X158800000Y-97800000D03*
X158800000Y-96150000D03*
%TD*%
D50*
%TO.C,H1*%
X78000004Y-67999932D03*
%TD*%
D21*
%TO.C,R42*%
X158212500Y-99850000D03*
X156387500Y-99850000D03*
%TD*%
D44*
%TO.C,Q33*%
X178875000Y-121550000D03*
X178875000Y-123450000D03*
X177000000Y-122500000D03*
%TD*%
D31*
%TO.C,JP21*%
X132050000Y-105700000D03*
D32*
X133350000Y-105700000D03*
%TD*%
D41*
%TO.C,Q14*%
X158200000Y-85937500D03*
X156300000Y-85937500D03*
X157250000Y-84062500D03*
%TD*%
D21*
%TO.C,R94*%
X86162500Y-79550000D03*
X84337500Y-79550000D03*
%TD*%
D50*
%TO.C,H2*%
X78000004Y-121999932D03*
%TD*%
D25*
%TO.C,R82*%
X99837500Y-86000000D03*
X101662500Y-86000000D03*
%TD*%
D45*
%TO.C,Q18*%
X131800000Y-77562500D03*
X133700000Y-77562500D03*
X132750000Y-79437500D03*
%TD*%
D39*
%TO.C,R23*%
X190525000Y-98000000D03*
X190525000Y-96350000D03*
%TD*%
D46*
%TO.C,C6*%
X228504594Y-103342291D03*
X230054594Y-103342291D03*
%TD*%
D24*
%TO.C,R83*%
X99975000Y-99800000D03*
X101625000Y-99800000D03*
%TD*%
D37*
%TO.C,JP15*%
X157950000Y-104200000D03*
D38*
X156650000Y-104200000D03*
%TD*%
D25*
%TO.C,R84*%
X99837500Y-110100000D03*
X101662500Y-110100000D03*
%TD*%
D29*
%TO.C,R7*%
X202000000Y-74162500D03*
X202000000Y-72337500D03*
%TD*%
D52*
%TO.C,U2*%
X221875000Y-104850000D03*
X221875000Y-105650000D03*
X221875000Y-106450000D03*
X221875000Y-107250000D03*
X221875000Y-108050000D03*
X221875000Y-108850000D03*
X221875000Y-109650000D03*
X221875000Y-110450000D03*
D53*
X220500000Y-111825000D03*
X219700000Y-111825000D03*
X218900000Y-111825000D03*
X218100000Y-111825000D03*
X217300000Y-111825000D03*
X216500000Y-111825000D03*
X215700000Y-111825000D03*
X214900000Y-111825000D03*
D52*
X213525000Y-110450000D03*
X213525000Y-109650000D03*
X213525000Y-108850000D03*
X213525000Y-108050000D03*
X213525000Y-107250000D03*
X213525000Y-106450000D03*
X213525000Y-105650000D03*
X213525000Y-104850000D03*
D53*
X214900000Y-103475000D03*
X215700000Y-103475000D03*
X216500000Y-103475000D03*
X217300000Y-103475000D03*
X218100000Y-103475000D03*
X218900000Y-103475000D03*
X219700000Y-103475000D03*
X220500000Y-103475000D03*
%TD*%
D42*
%TO.C,R3*%
X226575000Y-110800000D03*
X224925000Y-110800000D03*
%TD*%
D41*
%TO.C,Q30*%
X86200000Y-85987500D03*
X84300000Y-85987500D03*
X85250000Y-84112500D03*
%TD*%
D25*
%TO.C,R36*%
X171837500Y-110000000D03*
X173662500Y-110000000D03*
%TD*%
%TO.C,R10*%
X203837500Y-86000000D03*
X205662500Y-86000000D03*
%TD*%
D42*
%TO.C,R68*%
X118075000Y-88100000D03*
X116425000Y-88100000D03*
%TD*%
D21*
%TO.C,R45*%
X158162500Y-77500000D03*
X156337500Y-77500000D03*
%TD*%
D42*
%TO.C,R26*%
X185825000Y-73300000D03*
X184175000Y-73300000D03*
%TD*%
M02*
