  0
SECTION
  2
HEADER
  9
$ANGBASE
  50
0.0
  9
$ANGDIR
  70
1
  9
$MEASUREMENT
  70
1
  0
ENDSEC
  0
SECTION
  2
TABLES
  0
TABLE
  2
LTYPE
  70
4
  0
LTYPE
  5
40F
  2
CONTINUOUS
  70
0
  3
Solid line
  72
65
  73
0
  40
0.0
  0
LTYPE
  5
410
  2
DASHDOT
 70
0
  3
Dash Dot ____ _ ____ _
 72
65
 73
4
 40
2.0
 49
1.25
 49
-0.25
 49
0.25
 49
-0.25
  0
LTYPE
  5
411
  2
DASHED
 70
0
  3
Dashed __ __ __ __ __
 72
65
 73
2
 40
0.75
 49
0.5
 49
-0.25
  0
LTYPE
  5
43B
  2
DOTTED
 70
0
  3
Dotted .  .  .  .
 72
65
 73
2
 40
0.2
 49
0.0
 49
-0.2
  0
ENDTAB
  0
TABLE
  2
STYLE
  70
4
  0
STYLE
  2
KICAD
  70
0
  40
0
  41
1
  42
1
  50
0
  71
0
  3
isocp.shx
  0
STYLE
  2
KICADB
  70
0
  40
0
  41
1
  42
1
  50
0
  71
0
  3
isocp.shx
  0
STYLE
  2
KICADI
  70
0
  40
0
  41
1
  42
1
  50
15
  71
0
  3
isocp.shx
  0
STYLE
  2
KICADBI
  70
0
  40
0
  41
1
  42
1
  50
15
  71
0
  3
isocp.shx
  0
ENDTAB
  0
TABLE
  2
LAYER
  70
1
  0
LAYER
  2
BLACK
  70
0
  62
7
  6
CONTINUOUS
  0
ENDTAB
  0
ENDSEC
  0
SECTION
  2
ENTITIES
0
LINE
8
BLACK
6
CONTINUOUS
10
182.625
20
-54.25
11
188.375
21
-54.25
0
LINE
8
BLACK
6
CONTINUOUS
10
182.625
20
-67.25
11
185.4750099999999975
21
-72.2999399999999923
0
ARC
8
BLACK
10
29.9999799999999972
20
-99.9999899999999968
40
15.0000050000005327
50
-179.99998854
51
-89.99998472
0
LINE
8
BLACK
6
CONTINUOUS
10
188.375
20
-67.25
11
182.625
21
-67.25
0
ARC
8
BLACK
10
200.
20
-30.
40
10.0000000000199982
50
0.00000573
51
90.00011459
0
LINE
8
BLACK
6
CONTINUOUS
10
29.9999900000000004
20
-20.
11
199.9999799999999937
21
-20.
0
ARC
8
BLACK
10
200.
20
-100.
40
14.9999840000008327
50
-90.00006875
51
0.00001910
0
LINE
8
BLACK
6
CONTINUOUS
10
185.5249900000000025
20
-49.2000600000000006
11
182.625
21
-54.25
0
CIRCLE
8
BLACK
10
192.8999900000000025
20
-51.8000699999999981
40
2.5
0
LINE
8
BLACK
6
CONTINUOUS
10
119.9999879999999877
20
-22.999998999999999
11
119.9999879999999877
21
-20.
0
LINE
8
BLACK
6
CONTINUOUS
10
185.4750099999999975
20
-72.2999399999999923
11
188.375
21
-67.25
0
LINE
8
BLACK
6
CONTINUOUS
10
195.8999539999999797
20
-91.5
11
189.9113129999999785
21
-91.4999990000000025
0
LINE
8
BLACK
6
CONTINUOUS
10
19.9999849999999988
20
-99.9999940000000009
11
19.9999900000000004
21
-30.
0
LINE
8
BLACK
6
CONTINUOUS
10
29.9999839999999978
20
-114.9999969999999934
11
199.9999819999999886
21
-114.9999839999999978
0
ARC
8
BLACK
10
114.9999880000000019
20
-22.999998999999999
40
5.
50
-180.00000000
51
-0.00000000
0
ARC
8
BLACK
10
200.
20
-100.
40
9.9999830000097987
50
-90.00009167
51
0.00008021
0
ARC
8
BLACK
10
29.9999849999999988
20
-29.9999959999999994
40
15.000001000000033
50
89.99999618
51
179.99999618
0
CIRCLE
8
BLACK
10
192.8999900000000025
20
-51.8000699999999981
40
3.3500099999999997
0
ARC
8
BLACK
10
200.
20
-30.
40
15.0000050000085317
50
0.00001146
51
90.00006112
0
ARC
8
BLACK
10
189.8999999999999773
20
-93.5
40
2.0000330005289912
50
-270.00151832
51
-89.99868222
0
ARC
8
BLACK
10
29.9999799999999972
20
-99.9999899999999968
40
10.0000040000084507
50
-179.99997135
51
-89.99992552
0
LINE
8
BLACK
6
CONTINUOUS
10
199.9999839999999836
20
-109.9999940000000009
11
29.9999929999999999
21
-109.9999940000000009
0
LINE
8
BLACK
6
CONTINUOUS
10
188.375
20
-54.25
11
185.5249900000000025
21
-49.2000600000000006
0
LINE
8
BLACK
6
CONTINUOUS
10
109.9999880000000019
20
-22.999998999999999
11
109.9999880000000019
21
-20.
0
CIRCLE
8
BLACK
10
192.8999900000000025
20
-69.800069999999991
40
3.3500099999999997
0
ARC
8
BLACK
10
29.9999900000000004
20
-30.
40
10.0000000000031992
50
-269.99999427
51
-179.99995416
0
LINE
8
BLACK
6
CONTINUOUS
10
189.8999999999999773
20
-95.5000330000000019
11
195.8999469999999974
21
-95.5000599999999906
0
CIRCLE
8
BLACK
10
192.8999900000000025
20
-69.800069999999991
40
2.5
0
CIRCLE
8
BLACK
10
192.8999900000000025
20
-60.8000699999999981
40
3.3500099999999997
0
LINE
8
BLACK
6
CONTINUOUS
10
209.9999880000000019
20
-29.999998999999999
11
209.9999819999999886
21
-99.9999859999999927
0
ARC
8
BLACK
10
195.8999999999999773
20
-93.5
40
2.000000000529
50
-90.00151829
51
90.00131780
0
LINE
8
BLACK
6
CONTINUOUS
10
214.9999839999999836
20
-99.9999649999999889
11
214.9999829999999861
21
-29.9999969999999969
0
LINE
8
BLACK
6
CONTINUOUS
10
14.9999880000000001
20
-29.9999799999999972
11
14.9999839999999995
21
-99.9999929999999893
0
CIRCLE
8
BLACK
10
192.8999900000000025
20
-60.8000699999999981
40
2.5
0
LINE
8
BLACK
6
CONTINUOUS
10
199.9999899999999968
20
-14.9999969999999987
11
29.9999859999999998
21
-14.9999959999999994
0
LINE
8
BLACK
6
CONTINUOUS
10
183.011903999999987
20
-61.5643999999999991
11
183.2976179999999999
21
-61.659637999999994
0
LINE
8
BLACK
6
CONTINUOUS
10
183.2976179999999999
20
-61.659637999999994
11
183.773809
21
-61.659637999999994
0
LINE
8
BLACK
6
CONTINUOUS
10
183.773809
20
-61.659637999999994
11
183.9642849999999896
21
-61.5643999999999991
0
LINE
8
BLACK
6
CONTINUOUS
10
183.9642849999999896
20
-61.5643999999999991
11
184.0595229999999844
21
-61.4691609999999997
0
LINE
8
BLACK
6
CONTINUOUS
10
184.0595229999999844
20
-61.4691609999999997
11
184.1547609999999793
21
-61.2786849999999959
0
LINE
8
BLACK
6
CONTINUOUS
10
184.1547609999999793
20
-61.2786849999999959
11
184.1547609999999793
21
-61.0882089999999991
0
LINE
8
BLACK
6
CONTINUOUS
10
184.1547609999999793
20
-61.0882089999999991
11
184.0595229999999844
21
-60.8977329999999952
0
LINE
8
BLACK
6
CONTINUOUS
10
184.0595229999999844
20
-60.8977329999999952
11
183.9642849999999896
21
-60.8024950000000004
0
LINE
8
BLACK
6
CONTINUOUS
10
183.9642849999999896
20
-60.8024950000000004
11
183.773809
21
-60.7072569999999985
0
LINE
8
BLACK
6
CONTINUOUS
10
183.773809
20
-60.7072569999999985
11
183.3928559999999948
21
-60.6120189999999965
0
LINE
8
BLACK
6
CONTINUOUS
10
183.3928559999999948
20
-60.6120189999999965
11
183.2023800000000051
21
-60.5167799999999971
0
LINE
8
BLACK
6
CONTINUOUS
10
183.2023800000000051
20
-60.5167799999999971
11
183.1071419999999819
21
-60.4215419999999952
0
LINE
8
BLACK
6
CONTINUOUS
10
183.1071419999999819
20
-60.4215419999999952
11
183.011903999999987
21
-60.2310659999999984
0
LINE
8
BLACK
6
CONTINUOUS
10
183.011903999999987
20
-60.2310659999999984
11
183.011903999999987
21
-60.0405899999999946
0
LINE
8
BLACK
6
CONTINUOUS
10
183.011903999999987
20
-60.0405899999999946
11
183.1071419999999819
21
-59.8501139999999978
0
LINE
8
BLACK
6
CONTINUOUS
10
183.1071419999999819
20
-59.8501139999999978
11
183.2023800000000051
21
-59.7548759999999959
0
LINE
8
BLACK
6
CONTINUOUS
10
183.2023800000000051
20
-59.7548759999999959
11
183.3928559999999948
21
-59.659637999999994
0
LINE
8
BLACK
6
CONTINUOUS
10
183.3928559999999948
20
-59.659637999999994
11
183.8690469999999948
21
-59.659637999999994
0
LINE
8
BLACK
6
CONTINUOUS
10
183.8690469999999948
20
-59.659637999999994
11
184.1547609999999793
21
-59.7548759999999959
0
LINE
8
BLACK
6
CONTINUOUS
10
185.011903999999987
20
-60.6120189999999965
11
185.6785710000000051
21
-60.6120189999999965
0
LINE
8
BLACK
6
CONTINUOUS
10
185.9642849999999896
20
-61.659637999999994
11
185.011903999999987
21
-61.659637999999994
0
LINE
8
BLACK
6
CONTINUOUS
10
185.011903999999987
20
-61.659637999999994
11
185.011903999999987
21
-59.659637999999994
0
LINE
8
BLACK
6
CONTINUOUS
10
185.011903999999987
20
-59.659637999999994
11
185.9642849999999896
21
-59.659637999999994
0
LINE
8
BLACK
6
CONTINUOUS
10
186.5357139999999845
20
-59.659637999999994
11
187.6785710000000051
21
-59.659637999999994
0
LINE
8
BLACK
6
CONTINUOUS
10
187.1071419999999819
20
-61.659637999999994
11
187.1071419999999819
21
-59.659637999999994
0
LINE
8
BLACK
6
CONTINUOUS
10
189.7976179999999999
20
-88.4096380000000011
11
188.8452369999999974
21
-88.4096380000000011
0
LINE
8
BLACK
6
CONTINUOUS
10
188.8452369999999974
20
-88.4096380000000011
11
188.7499990000000025
21
-89.3620189999999894
0
LINE
8
BLACK
6
CONTINUOUS
10
188.7499990000000025
20
-89.3620189999999894
11
188.8452369999999974
21
-89.2667799999999971
0
LINE
8
BLACK
6
CONTINUOUS
10
188.8452369999999974
20
-89.2667799999999971
11
189.035712999999987
21
-89.1715420000000023
0
LINE
8
BLACK
6
CONTINUOUS
10
189.035712999999987
20
-89.1715420000000023
11
189.511903999999987
21
-89.1715420000000023
0
LINE
8
BLACK
6
CONTINUOUS
10
189.511903999999987
20
-89.1715420000000023
11
189.7023800000000051
21
-89.2667799999999971
0
LINE
8
BLACK
6
CONTINUOUS
10
189.7023800000000051
20
-89.2667799999999971
11
189.7976179999999999
21
-89.3620189999999894
0
LINE
8
BLACK
6
CONTINUOUS
10
189.7976179999999999
20
-89.3620189999999894
11
189.8928559999999948
21
-89.5524949999999933
0
LINE
8
BLACK
6
CONTINUOUS
10
189.8928559999999948
20
-89.5524949999999933
11
189.8928559999999948
21
-90.0286849999999959
0
LINE
8
BLACK
6
CONTINUOUS
10
189.8928559999999948
20
-90.0286849999999959
11
189.7976179999999999
21
-90.2191609999999997
0
LINE
8
BLACK
6
CONTINUOUS
10
189.7976179999999999
20
-90.2191609999999997
11
189.7023800000000051
21
-90.314399999999992
0
LINE
8
BLACK
6
CONTINUOUS
10
189.7023800000000051
20
-90.314399999999992
11
189.511903999999987
21
-90.4096380000000011
0
LINE
8
BLACK
6
CONTINUOUS
10
189.511903999999987
20
-90.4096380000000011
11
189.035712999999987
21
-90.4096380000000011
0
LINE
8
BLACK
6
CONTINUOUS
10
189.035712999999987
20
-90.4096380000000011
11
188.8452369999999974
21
-90.314399999999992
0
LINE
8
BLACK
6
CONTINUOUS
10
188.8452369999999974
20
-90.314399999999992
11
188.7499990000000025
21
-90.2191609999999997
0
LINE
8
BLACK
6
CONTINUOUS
10
190.4642849999999896
20
-88.4096380000000011
11
191.1309509999999818
21
-90.4096380000000011
0
LINE
8
BLACK
6
CONTINUOUS
10
191.1309509999999818
20
-90.4096380000000011
11
191.7976179999999999
21
-88.4096380000000011
0
LINE
8
BLACK
6
CONTINUOUS
10
195.0357139999999845
20
-90.4096380000000011
11
193.8928569999999922
21
-90.4096380000000011
0
LINE
8
BLACK
6
CONTINUOUS
10
194.4642849999999896
20
-90.4096380000000011
11
194.4642849999999896
21
-88.4096380000000011
0
LINE
8
BLACK
6
CONTINUOUS
10
194.4642849999999896
20
-88.4096380000000011
11
194.273809
21
-88.6953519999999997
0
LINE
8
BLACK
6
CONTINUOUS
10
194.273809
20
-88.6953519999999997
11
194.0833329999999819
21
-88.8858279999999894
0
LINE
8
BLACK
6
CONTINUOUS
10
194.0833329999999819
20
-88.8858279999999894
11
193.8928569999999922
21
-88.9810659999999984
0
LINE
8
BLACK
6
CONTINUOUS
10
195.7976189999999974
20
-89.838208999999992
11
196.75
21
-89.838208999999992
0
LINE
8
BLACK
6
CONTINUOUS
10
195.6071429999999793
20
-90.4096380000000011
11
196.273809
21
-88.4096380000000011
0
LINE
8
BLACK
6
CONTINUOUS
10
196.273809
20
-88.4096380000000011
11
196.9404759999999897
21
-90.4096380000000011
0
LINE
8
BLACK
6
CONTINUOUS
10
176.1735579999999857
20
-105.7396379999999994
11
176.1735579999999857
21
-103.7396379999999994
0
LINE
8
BLACK
6
CONTINUOUS
10
176.1735579999999857
20
-103.7396379999999994
11
176.8402250000000038
21
-105.1682089999999903
0
LINE
8
BLACK
6
CONTINUOUS
10
176.8402250000000038
20
-105.1682089999999903
11
177.506890999999996
21
-103.7396379999999994
0
LINE
8
BLACK
6
CONTINUOUS
10
177.506890999999996
20
-103.7396379999999994
11
177.506890999999996
21
-105.7396379999999994
0
LINE
8
BLACK
6
CONTINUOUS
10
179.3164149999999779
20
-105.7396379999999994
11
179.3164149999999779
21
-104.6920190000000019
0
LINE
8
BLACK
6
CONTINUOUS
10
179.3164149999999779
20
-104.6920190000000019
11
179.2211769999999831
21
-104.5015420000000006
0
LINE
8
BLACK
6
CONTINUOUS
10
179.2211769999999831
20
-104.5015420000000006
11
179.0307009999999934
21
-104.4063039999999916
0
LINE
8
BLACK
6
CONTINUOUS
10
179.0307009999999934
20
-104.4063039999999916
11
178.6497479999999882
21
-104.4063039999999916
0
LINE
8
BLACK
6
CONTINUOUS
10
178.6497479999999882
20
-104.4063039999999916
11
178.4592719999999986
21
-104.5015420000000006
0
LINE
8
BLACK
6
CONTINUOUS
10
179.3164149999999779
20
-105.6443999999999903
11
179.1259389999999883
21
-105.7396379999999994
0
LINE
8
BLACK
6
CONTINUOUS
10
179.1259389999999883
20
-105.7396379999999994
11
178.6497479999999882
21
-105.7396379999999994
0
LINE
8
BLACK
6
CONTINUOUS
10
178.6497479999999882
20
-105.7396379999999994
11
178.4592719999999986
21
-105.6443999999999903
0
LINE
8
BLACK
6
CONTINUOUS
10
178.4592719999999986
20
-105.6443999999999903
11
178.3640340000000037
21
-105.453922999999989
0
LINE
8
BLACK
6
CONTINUOUS
10
178.3640340000000037
20
-105.453922999999989
11
178.3640340000000037
21
-105.2634469999999993
0
LINE
8
BLACK
6
CONTINUOUS
10
178.3640340000000037
20
-105.2634469999999993
11
178.4592719999999986
21
-105.0729709999999955
0
LINE
8
BLACK
6
CONTINUOUS
10
178.4592719999999986
20
-105.0729709999999955
11
178.6497479999999882
21
-104.9777330000000006
0
LINE
8
BLACK
6
CONTINUOUS
10
178.6497479999999882
20
-104.9777330000000006
11
179.1259389999999883
21
-104.9777330000000006
0
LINE
8
BLACK
6
CONTINUOUS
10
179.1259389999999883
20
-104.9777330000000006
11
179.3164149999999779
21
-104.8824949999999916
0
LINE
8
BLACK
6
CONTINUOUS
10
181.1259389999999883
20
-105.7396379999999994
11
181.1259389999999883
21
-103.7396379999999994
0
LINE
8
BLACK
6
CONTINUOUS
10
181.1259389999999883
20
-105.6443999999999903
11
180.9354629999999986
21
-105.7396379999999994
0
LINE
8
BLACK
6
CONTINUOUS
10
180.9354629999999986
20
-105.7396379999999994
11
180.5545099999999934
21
-105.7396379999999994
0
LINE
8
BLACK
6
CONTINUOUS
10
180.5545099999999934
20
-105.7396379999999994
11
180.3640340000000037
21
-105.6443999999999903
0
LINE
8
BLACK
6
CONTINUOUS
10
180.3640340000000037
20
-105.6443999999999903
11
180.2687959999999805
21
-105.549160999999998
0
LINE
8
BLACK
6
CONTINUOUS
10
180.2687959999999805
20
-105.549160999999998
11
180.1735579999999857
21
-105.3586849999999941
0
LINE
8
BLACK
6
CONTINUOUS
10
180.1735579999999857
20
-105.3586849999999941
11
180.1735579999999857
21
-104.7872569999999968
0
LINE
8
BLACK
6
CONTINUOUS
10
180.1735579999999857
20
-104.7872569999999968
11
180.2687959999999805
21
-104.5967799999999954
0
LINE
8
BLACK
6
CONTINUOUS
10
180.2687959999999805
20
-104.5967799999999954
11
180.3640340000000037
21
-104.5015420000000006
0
LINE
8
BLACK
6
CONTINUOUS
10
180.3640340000000037
20
-104.5015420000000006
11
180.5545099999999934
21
-104.4063039999999916
0
LINE
8
BLACK
6
CONTINUOUS
10
180.5545099999999934
20
-104.4063039999999916
11
180.9354629999999986
21
-104.4063039999999916
0
LINE
8
BLACK
6
CONTINUOUS
10
180.9354629999999986
20
-104.4063039999999916
11
181.1259389999999883
21
-104.5015420000000006
0
LINE
8
BLACK
6
CONTINUOUS
10
182.8402250000000038
20
-105.6443999999999903
11
182.6497489999999857
21
-105.7396379999999994
0
LINE
8
BLACK
6
CONTINUOUS
10
182.6497489999999857
20
-105.7396379999999994
11
182.2687959999999805
21
-105.7396379999999994
0
LINE
8
BLACK
6
CONTINUOUS
10
182.2687959999999805
20
-105.7396379999999994
11
182.0783199999999908
21
-105.6443999999999903
0
LINE
8
BLACK
6
CONTINUOUS
10
182.0783199999999908
20
-105.6443999999999903
11
181.983081999999996
21
-105.453922999999989
0
LINE
8
BLACK
6
CONTINUOUS
10
181.983081999999996
20
-105.453922999999989
11
181.983081999999996
21
-104.6920190000000019
0
LINE
8
BLACK
6
CONTINUOUS
10
181.983081999999996
20
-104.6920190000000019
11
182.0783199999999908
21
-104.5015420000000006
0
LINE
8
BLACK
6
CONTINUOUS
10
182.0783199999999908
20
-104.5015420000000006
11
182.2687959999999805
21
-104.4063039999999916
0
LINE
8
BLACK
6
CONTINUOUS
10
182.2687959999999805
20
-104.4063039999999916
11
182.6497489999999857
21
-104.4063039999999916
0
LINE
8
BLACK
6
CONTINUOUS
10
182.6497489999999857
20
-104.4063039999999916
11
182.8402250000000038
21
-104.5015420000000006
0
LINE
8
BLACK
6
CONTINUOUS
10
182.8402250000000038
20
-104.5015420000000006
11
182.9354629999999986
21
-104.6920190000000019
0
LINE
8
BLACK
6
CONTINUOUS
10
182.9354629999999986
20
-104.6920190000000019
11
182.9354629999999986
21
-104.8824949999999916
0
LINE
8
BLACK
6
CONTINUOUS
10
182.9354629999999986
20
-104.8824949999999916
11
181.983081999999996
21
-105.0729709999999955
0
LINE
8
BLACK
6
CONTINUOUS
10
185.3164160000000038
20
-105.7396379999999994
11
185.3164160000000038
21
-104.4063039999999916
0
LINE
8
BLACK
6
CONTINUOUS
10
185.3164160000000038
20
-103.7396379999999994
11
185.2211779999999806
21
-103.8348759999999942
0
LINE
8
BLACK
6
CONTINUOUS
10
185.2211779999999806
20
-103.8348759999999942
11
185.3164160000000038
21
-103.930113999999989
0
LINE
8
BLACK
6
CONTINUOUS
10
185.3164160000000038
20
-103.930113999999989
11
185.4116539999999986
21
-103.8348759999999942
0
LINE
8
BLACK
6
CONTINUOUS
10
185.4116539999999986
20
-103.8348759999999942
11
185.3164160000000038
21
-103.7396379999999994
0
LINE
8
BLACK
6
CONTINUOUS
10
185.3164160000000038
20
-103.7396379999999994
11
185.3164160000000038
21
-103.930113999999989
0
LINE
8
BLACK
6
CONTINUOUS
10
186.268796999999978
20
-104.4063039999999916
11
186.268796999999978
21
-105.7396379999999994
0
LINE
8
BLACK
6
CONTINUOUS
10
186.268796999999978
20
-104.5967799999999954
11
186.3640350000000012
21
-104.5015420000000006
0
LINE
8
BLACK
6
CONTINUOUS
10
186.3640350000000012
20
-104.5015420000000006
11
186.5545109999999909
21
-104.4063039999999916
0
LINE
8
BLACK
6
CONTINUOUS
10
186.5545109999999909
20
-104.4063039999999916
11
186.8402260000000012
21
-104.4063039999999916
0
LINE
8
BLACK
6
CONTINUOUS
10
186.8402260000000012
20
-104.4063039999999916
11
187.0307019999999909
21
-104.5015420000000006
0
LINE
8
BLACK
6
CONTINUOUS
10
187.0307019999999909
20
-104.5015420000000006
11
187.1259399999999857
21
-104.6920190000000019
0
LINE
8
BLACK
6
CONTINUOUS
10
187.1259399999999857
20
-104.6920190000000019
11
187.1259399999999857
21
-105.7396379999999994
0
LINE
8
BLACK
6
CONTINUOUS
10
189.6021309999999858
20
-105.7396379999999994
11
189.6021309999999858
21
-103.7396379999999994
0
LINE
8
BLACK
6
CONTINUOUS
10
189.6021309999999858
20
-103.7396379999999994
11
190.3640359999999987
21
-103.7396379999999994
0
LINE
8
BLACK
6
CONTINUOUS
10
190.3640359999999987
20
-103.7396379999999994
11
190.5545119999999883
21
-103.8348759999999942
0
LINE
8
BLACK
6
CONTINUOUS
10
190.5545119999999883
20
-103.8348759999999942
11
190.6497499999999832
21
-103.930113999999989
0
LINE
8
BLACK
6
CONTINUOUS
10
190.6497499999999832
20
-103.930113999999989
11
190.744987999999978
21
-104.1205899999999929
0
LINE
8
BLACK
6
CONTINUOUS
10
190.744987999999978
20
-104.1205899999999929
11
190.744987999999978
21
-104.4063039999999916
0
LINE
8
BLACK
6
CONTINUOUS
10
190.744987999999978
20
-104.4063039999999916
11
190.6497499999999832
21
-104.5967799999999954
0
LINE
8
BLACK
6
CONTINUOUS
10
190.6497499999999832
20
-104.5967799999999954
11
190.5545119999999883
21
-104.6920190000000019
0
LINE
8
BLACK
6
CONTINUOUS
10
190.5545119999999883
20
-104.6920190000000019
11
190.3640359999999987
21
-104.7872569999999968
0
LINE
8
BLACK
6
CONTINUOUS
10
190.3640359999999987
20
-104.7872569999999968
11
189.6021309999999858
21
-104.7872569999999968
0
LINE
8
BLACK
6
CONTINUOUS
10
191.8878449999999987
20
-105.7396379999999994
11
191.6973689999999806
21
-105.6443999999999903
0
LINE
8
BLACK
6
CONTINUOUS
10
191.6973689999999806
20
-105.6443999999999903
11
191.6021309999999858
21
-105.549160999999998
0
LINE
8
BLACK
6
CONTINUOUS
10
191.6021309999999858
20
-105.549160999999998
11
191.5068929999999909
21
-105.3586849999999941
0
LINE
8
BLACK
6
CONTINUOUS
10
191.5068929999999909
20
-105.3586849999999941
11
191.5068929999999909
21
-104.7872569999999968
0
LINE
8
BLACK
6
CONTINUOUS
10
191.5068929999999909
20
-104.7872569999999968
11
191.6021309999999858
21
-104.5967799999999954
0
LINE
8
BLACK
6
CONTINUOUS
10
191.6021309999999858
20
-104.5967799999999954
11
191.6973689999999806
21
-104.5015420000000006
0
LINE
8
BLACK
6
CONTINUOUS
10
191.6973689999999806
20
-104.5015420000000006
11
191.8878449999999987
21
-104.4063039999999916
0
LINE
8
BLACK
6
CONTINUOUS
10
191.8878449999999987
20
-104.4063039999999916
11
192.1735599999999806
21
-104.4063039999999916
0
LINE
8
BLACK
6
CONTINUOUS
10
192.1735599999999806
20
-104.4063039999999916
11
192.3640359999999987
21
-104.5015420000000006
0
LINE
8
BLACK
6
CONTINUOUS
10
192.3640359999999987
20
-104.5015420000000006
11
192.4592739999999935
21
-104.5967799999999954
0
LINE
8
BLACK
6
CONTINUOUS
10
192.4592739999999935
20
-104.5967799999999954
11
192.5545119999999883
21
-104.7872569999999968
0
LINE
8
BLACK
6
CONTINUOUS
10
192.5545119999999883
20
-104.7872569999999968
11
192.5545119999999883
21
-105.3586849999999941
0
LINE
8
BLACK
6
CONTINUOUS
10
192.5545119999999883
20
-105.3586849999999941
11
192.4592739999999935
21
-105.549160999999998
0
LINE
8
BLACK
6
CONTINUOUS
10
192.4592739999999935
20
-105.549160999999998
11
192.3640359999999987
21
-105.6443999999999903
0
LINE
8
BLACK
6
CONTINUOUS
10
192.3640359999999987
20
-105.6443999999999903
11
192.1735599999999806
21
-105.7396379999999994
0
LINE
8
BLACK
6
CONTINUOUS
10
192.1735599999999806
20
-105.7396379999999994
11
191.8878449999999987
21
-105.7396379999999994
0
LINE
8
BLACK
6
CONTINUOUS
10
193.6973689999999806
20
-105.7396379999999994
11
193.5068929999999909
21
-105.6443999999999903
0
LINE
8
BLACK
6
CONTINUOUS
10
193.5068929999999909
20
-105.6443999999999903
11
193.4116549999999961
21
-105.453922999999989
0
LINE
8
BLACK
6
CONTINUOUS
10
193.4116549999999961
20
-105.453922999999989
11
193.4116549999999961
21
-103.7396379999999994
0
LINE
8
BLACK
6
CONTINUOUS
10
195.3164170000000013
20
-105.7396379999999994
11
195.3164170000000013
21
-104.6920190000000019
0
LINE
8
BLACK
6
CONTINUOUS
10
195.3164170000000013
20
-104.6920190000000019
11
195.221178999999978
21
-104.5015420000000006
0
LINE
8
BLACK
6
CONTINUOUS
10
195.221178999999978
20
-104.5015420000000006
11
195.0307029999999884
21
-104.4063039999999916
0
LINE
8
BLACK
6
CONTINUOUS
10
195.0307029999999884
20
-104.4063039999999916
11
194.6497499999999832
21
-104.4063039999999916
0
LINE
8
BLACK
6
CONTINUOUS
10
194.6497499999999832
20
-104.4063039999999916
11
194.4592739999999935
21
-104.5015420000000006
0
LINE
8
BLACK
6
CONTINUOUS
10
195.3164170000000013
20
-105.6443999999999903
11
195.1259409999999832
21
-105.7396379999999994
0
LINE
8
BLACK
6
CONTINUOUS
10
195.1259409999999832
20
-105.7396379999999994
11
194.6497499999999832
21
-105.7396379999999994
0
LINE
8
BLACK
6
CONTINUOUS
10
194.6497499999999832
20
-105.7396379999999994
11
194.4592739999999935
21
-105.6443999999999903
0
LINE
8
BLACK
6
CONTINUOUS
10
194.4592739999999935
20
-105.6443999999999903
11
194.3640359999999987
21
-105.453922999999989
0
LINE
8
BLACK
6
CONTINUOUS
10
194.3640359999999987
20
-105.453922999999989
11
194.3640359999999987
21
-105.2634469999999993
0
LINE
8
BLACK
6
CONTINUOUS
10
194.3640359999999987
20
-105.2634469999999993
11
194.4592739999999935
21
-105.0729709999999955
0
LINE
8
BLACK
6
CONTINUOUS
10
194.4592739999999935
20
-105.0729709999999955
11
194.6497499999999832
21
-104.9777330000000006
0
LINE
8
BLACK
6
CONTINUOUS
10
194.6497499999999832
20
-104.9777330000000006
11
195.1259409999999832
21
-104.9777330000000006
0
LINE
8
BLACK
6
CONTINUOUS
10
195.1259409999999832
20
-104.9777330000000006
11
195.3164170000000013
21
-104.8824949999999916
0
LINE
8
BLACK
6
CONTINUOUS
10
196.2687980000000039
20
-104.4063039999999916
11
196.2687980000000039
21
-105.7396379999999994
0
LINE
8
BLACK
6
CONTINUOUS
10
196.2687980000000039
20
-104.5967799999999954
11
196.3640359999999987
21
-104.5015420000000006
0
LINE
8
BLACK
6
CONTINUOUS
10
196.3640359999999987
20
-104.5015420000000006
11
196.5545119999999883
21
-104.4063039999999916
0
LINE
8
BLACK
6
CONTINUOUS
10
196.5545119999999883
20
-104.4063039999999916
11
196.8402269999999987
21
-104.4063039999999916
0
LINE
8
BLACK
6
CONTINUOUS
10
196.8402269999999987
20
-104.4063039999999916
11
197.0307029999999884
21
-104.5015420000000006
0
LINE
8
BLACK
6
CONTINUOUS
10
197.0307029999999884
20
-104.5015420000000006
11
197.1259409999999832
21
-104.6920190000000019
0
LINE
8
BLACK
6
CONTINUOUS
10
197.1259409999999832
20
-104.6920190000000019
11
197.1259409999999832
21
-105.7396379999999994
0
LINE
8
BLACK
6
CONTINUOUS
10
198.9354649999999936
20
-105.7396379999999994
11
198.9354649999999936
21
-103.7396379999999994
0
LINE
8
BLACK
6
CONTINUOUS
10
198.9354649999999936
20
-105.6443999999999903
11
198.7449890000000039
21
-105.7396379999999994
0
LINE
8
BLACK
6
CONTINUOUS
10
198.7449890000000039
20
-105.7396379999999994
11
198.3640359999999987
21
-105.7396379999999994
0
LINE
8
BLACK
6
CONTINUOUS
10
198.3640359999999987
20
-105.7396379999999994
11
198.1735599999999806
21
-105.6443999999999903
0
LINE
8
BLACK
6
CONTINUOUS
10
198.1735599999999806
20
-105.6443999999999903
11
198.0783219999999858
21
-105.549160999999998
0
LINE
8
BLACK
6
CONTINUOUS
10
198.0783219999999858
20
-105.549160999999998
11
197.983083999999991
21
-105.3586849999999941
0
LINE
8
BLACK
6
CONTINUOUS
10
197.983083999999991
20
-105.3586849999999941
11
197.983083999999991
21
-104.7872569999999968
0
LINE
8
BLACK
6
CONTINUOUS
10
197.983083999999991
20
-104.7872569999999968
11
198.0783219999999858
21
-104.5967799999999954
0
LINE
8
BLACK
6
CONTINUOUS
10
198.0783219999999858
20
-104.5967799999999954
11
198.1735599999999806
21
-104.5015420000000006
0
LINE
8
BLACK
6
CONTINUOUS
10
198.1735599999999806
20
-104.5015420000000006
11
198.3640359999999987
21
-104.4063039999999916
0
LINE
8
BLACK
6
CONTINUOUS
10
198.3640359999999987
20
-104.4063039999999916
11
198.7449890000000039
21
-104.4063039999999916
0
LINE
8
BLACK
6
CONTINUOUS
10
198.7449890000000039
20
-104.4063039999999916
11
198.9354649999999936
21
-104.5015420000000006
0
LINE
8
BLACK
6
CONTINUOUS
10
177.6715639999999894
20
-98.0656499999999909
11
177.6715639999999894
21
-98.2879839999999945
0
LINE
8
BLACK
6
CONTINUOUS
10
177.6715639999999894
20
-98.2879839999999945
11
177.496391999999986
21
-98.2879839999999945
0
LINE
8
BLACK
6
CONTINUOUS
10
177.496391999999986
20
-98.2879839999999945
11
177.3212199999999825
21
-98.2879839999999945
0
LINE
8
BLACK
6
CONTINUOUS
10
177.3212199999999825
20
-98.2879839999999945
11
177.3212199999999825
21
-98.0656499999999909
0
LINE
8
BLACK
6
CONTINUOUS
10
177.3212199999999825
20
-98.0656499999999909
11
177.3212199999999825
21
-97.8433160000000015
0
LINE
8
BLACK
6
CONTINUOUS
10
177.3212199999999825
20
-97.8433160000000015
11
177.496391999999986
21
-97.8433160000000015
0
LINE
8
BLACK
6
CONTINUOUS
10
177.496391999999986
20
-97.8433160000000015
11
177.6715639999999894
21
-97.8433160000000015
0
LINE
8
BLACK
6
CONTINUOUS
10
177.6715639999999894
20
-97.8433160000000015
11
177.6715639999999894
21
-98.0656499999999909
0
LINE
8
BLACK
6
CONTINUOUS
10
177.6715639999999894
20
-100.0262329999999906
11
177.6715639999999894
21
-101.2120159999999913
0
LINE
8
BLACK
6
CONTINUOUS
10
177.6715639999999894
20
-101.2120159999999913
11
177.496391999999986
21
-101.2120159999999913
0
LINE
8
BLACK
6
CONTINUOUS
10
177.496391999999986
20
-101.2120159999999913
11
177.3212199999999825
21
-101.2120159999999913
0
LINE
8
BLACK
6
CONTINUOUS
10
177.3212199999999825
20
-101.2120159999999913
11
177.3212199999999825
21
-100.0262329999999906
0
LINE
8
BLACK
6
CONTINUOUS
10
177.3212199999999825
20
-100.0262329999999906
11
177.3212199999999825
21
-98.8404510000000016
0
LINE
8
BLACK
6
CONTINUOUS
10
177.3212199999999825
20
-98.8404510000000016
11
177.496391999999986
21
-98.8404510000000016
0
LINE
8
BLACK
6
CONTINUOUS
10
177.496391999999986
20
-98.8404510000000016
11
177.6715639999999894
21
-98.8404510000000016
0
LINE
8
BLACK
6
CONTINUOUS
10
177.6715639999999894
20
-98.8404510000000016
11
177.6715639999999894
21
-100.0262329999999906
0
LINE
8
BLACK
6
CONTINUOUS
10
193.7065779999999791
20
-99.5344029999999975
11
193.7065779999999791
21
-101.2120159999999913
0
LINE
8
BLACK
6
CONTINUOUS
10
193.7065779999999791
20
-101.2120159999999913
11
193.3764449999999897
21
-101.2120159999999913
0
LINE
8
BLACK
6
CONTINUOUS
10
193.3764449999999897
20
-101.2120159999999913
11
193.0463120000000004
21
-101.2120159999999913
0
LINE
8
BLACK
6
CONTINUOUS
10
193.0463120000000004
20
-101.2120159999999913
11
193.0463120000000004
21
-99.5344029999999975
0
LINE
8
BLACK
6
CONTINUOUS
10
193.0463120000000004
20
-99.5344029999999975
11
193.0463120000000004
21
-97.8567899999999895
0
LINE
8
BLACK
6
CONTINUOUS
10
193.0463120000000004
20
-97.8567899999999895
11
193.3764449999999897
21
-97.8567899999999895
0
LINE
8
BLACK
6
CONTINUOUS
10
193.3764449999999897
20
-97.8567899999999895
11
193.7065779999999791
21
-97.8567899999999895
0
LINE
8
BLACK
6
CONTINUOUS
10
193.7065779999999791
20
-97.8567899999999895
11
193.7065779999999791
21
-99.5344029999999975
0
LINE
8
BLACK
6
CONTINUOUS
10
176.7957020000000057
20
-98.0386999999999915
11
176.7957020000000057
21
-98.2071349999999939
0
LINE
8
BLACK
6
CONTINUOUS
10
176.7957020000000057
20
-98.2071349999999939
11
175.9467899999999929
21
-98.2071349999999939
0
LINE
8
BLACK
6
CONTINUOUS
10
175.9467899999999929
20
-98.2071349999999939
11
175.0978769999999827
21
-98.2071349999999939
0
LINE
8
BLACK
6
CONTINUOUS
10
175.0978769999999827
20
-98.2071349999999939
11
175.0978769999999827
21
-99.7095759999999984
0
LINE
8
BLACK
6
CONTINUOUS
10
175.0978769999999827
20
-99.7095759999999984
11
175.0978769999999827
21
-101.2120159999999913
0
LINE
8
BLACK
6
CONTINUOUS
10
175.0978769999999827
20
-101.2120159999999913
11
174.8957549999999799
21
-101.2120159999999913
0
LINE
8
BLACK
6
CONTINUOUS
10
174.8957549999999799
20
-101.2120159999999913
11
174.6936330000000055
21
-101.2120159999999913
0
LINE
8
BLACK
6
CONTINUOUS
10
174.6936330000000055
20
-101.2120159999999913
11
174.6936330000000055
21
-99.7095759999999984
0
LINE
8
BLACK
6
CONTINUOUS
10
174.6936330000000055
20
-99.7095759999999984
11
174.6936330000000055
21
-98.2071349999999939
0
LINE
8
BLACK
6
CONTINUOUS
10
174.6936330000000055
20
-98.2071349999999939
11
173.8447209999999927
21
-98.2071349999999939
0
LINE
8
BLACK
6
CONTINUOUS
10
173.8447209999999927
20
-98.2071349999999939
11
172.99580899999998
21
-98.2071349999999939
0
LINE
8
BLACK
6
CONTINUOUS
10
172.99580899999998
20
-98.2071349999999939
11
172.99580899999998
21
-98.0386999999999915
0
LINE
8
BLACK
6
CONTINUOUS
10
172.99580899999998
20
-98.0386999999999915
11
172.99580899999998
21
-97.8702649999999892
0
LINE
8
BLACK
6
CONTINUOUS
10
172.99580899999998
20
-97.8702649999999892
11
174.8957549999999799
21
-97.8702649999999892
0
LINE
8
BLACK
6
CONTINUOUS
10
174.8957549999999799
20
-97.8702649999999892
11
176.7957020000000057
21
-97.8702649999999892
0
LINE
8
BLACK
6
CONTINUOUS
10
176.7957020000000057
20
-97.8702649999999892
11
176.7957020000000057
21
-98.0386999999999915
0
LINE
8
BLACK
6
CONTINUOUS
10
198.3368629999999939
20
-98.8705489999999969
11
198.6961819999999932
21
-98.8741380000000021
0
LINE
8
BLACK
6
CONTINUOUS
10
198.6961819999999932
20
-98.8741380000000021
11
199.0371759999999881
21
-99.7953890000000001
0
LINE
8
BLACK
6
CONTINUOUS
10
199.0371759999999881
20
-99.7953890000000001
11
199.0928329999999846
21
-99.945644999999999
0
LINE
8
BLACK
6
CONTINUOUS
10
199.0928329999999846
20
-99.945644999999999
11
199.145797999999985
21
-100.0884149999999977
0
LINE
8
BLACK
6
CONTINUOUS
10
199.145797999999985
20
-100.0884149999999977
11
199.1953249999999969
21
-100.2217040000000026
0
LINE
8
BLACK
6
CONTINUOUS
10
199.1953249999999969
20
-100.2217040000000026
11
199.2406689999999969
21
-100.343513999999999
0
LINE
8
BLACK
6
CONTINUOUS
10
199.2406689999999969
20
-100.343513999999999
11
199.2810839999999928
21
-100.4518489999999957
0
LINE
8
BLACK
6
CONTINUOUS
10
199.2810839999999928
20
-100.4518489999999957
11
199.3158229999999946
21
-100.5447130000000016
0
LINE
8
BLACK
6
CONTINUOUS
10
199.3158229999999946
20
-100.5447130000000016
11
199.3441420000000051
21
-100.6201099999999968
0
LINE
8
BLACK
6
CONTINUOUS
10
199.3441420000000051
20
-100.6201099999999968
11
199.3652960000000007
21
-100.6760429999999928
0
LINE
8
BLACK
6
CONTINUOUS
10
199.3652960000000007
20
-100.6760429999999928
11
199.3785379999999918
21
-100.7105159999999984
0
LINE
8
BLACK
6
CONTINUOUS
10
199.3785379999999918
20
-100.7105159999999984
11
199.3830859999999916
21
-100.72155699999999
0
LINE
8
BLACK
6
CONTINUOUS
10
199.3830859999999916
20
-100.72155699999999
11
199.3884599999999807
21
-100.7100639999999885
0
LINE
8
BLACK
6
CONTINUOUS
10
199.3884599999999807
20
-100.7100639999999885
11
199.4024539999999774
21
-100.6752630000000011
0
LINE
8
BLACK
6
CONTINUOUS
10
199.4024539999999774
20
-100.6752630000000011
11
199.4243249999999819
21
-100.6191159999999911
0
LINE
8
BLACK
6
CONTINUOUS
10
199.4243249999999819
20
-100.6191159999999911
11
199.4533260000000041
21
-100.5435839999999956
0
LINE
8
BLACK
6
CONTINUOUS
10
199.4533260000000041
20
-100.5435839999999956
11
199.4887149999999849
21
-100.4506289999999922
0
LINE
8
BLACK
6
CONTINUOUS
10
199.4887149999999849
20
-100.4506289999999922
11
199.5297459999999887
21
-100.342213000000001
0
LINE
8
BLACK
6
CONTINUOUS
10
199.5297459999999887
20
-100.342213000000001
11
199.5756749999999897
21
-100.2202979999999997
0
LINE
8
BLACK
6
CONTINUOUS
10
199.5756749999999897
20
-100.2202979999999997
11
199.6257559999999955
21
-100.0868459999999942
0
LINE
8
BLACK
6
CONTINUOUS
10
199.6257559999999955
20
-100.0868459999999942
11
199.6792459999999778
21
-99.9438179999999932
0
LINE
8
BLACK
6
CONTINUOUS
10
199.6792459999999778
20
-99.9438179999999932
11
199.7327459999999917
21
-99.800305999999992
0
LINE
8
BLACK
6
CONTINUOUS
10
199.7327459999999917
20
-99.800305999999992
11
200.0774889999999857
21
-98.8741380000000021
0
LINE
8
BLACK
6
CONTINUOUS
10
200.0774889999999857
20
-98.8741380000000021
11
200.4392749999999808
21
-98.8707149999999899
0
LINE
8
BLACK
6
CONTINUOUS
10
200.4392749999999808
20
-98.8707149999999899
11
200.8010599999999783
21
-98.8672929999999894
0
LINE
8
BLACK
6
CONTINUOUS
10
200.8010599999999783
20
-98.8672929999999894
11
201.1441319999999848
21
-99.7965209999999985
0
LINE
8
BLACK
6
CONTINUOUS
10
201.1441319999999848
20
-99.7965209999999985
11
201.1998490000000004
21
-99.9471669999999932
0
LINE
8
BLACK
6
CONTINUOUS
10
201.1998490000000004
20
-99.9471669999999932
11
201.2529030000000034
21
-100.0900899999999893
0
LINE
8
BLACK
6
CONTINUOUS
10
201.2529030000000034
20
-100.0900899999999893
11
201.302552999999989
21
-100.22332999999999
0
LINE
8
BLACK
6
CONTINUOUS
10
201.302552999999989
20
-100.22332999999999
11
201.3480610000000013
21
-100.3449269999999984
0
LINE
8
BLACK
6
CONTINUOUS
10
201.3480610000000013
20
-100.3449269999999984
11
201.3886859999999785
21
-100.4529209999999892
0
LINE
8
BLACK
6
CONTINUOUS
10
201.3886859999999785
20
-100.4529209999999892
11
201.423688999999996
21
-100.5453519999999941
0
LINE
8
BLACK
6
CONTINUOUS
10
201.423688999999996
20
-100.5453519999999941
11
201.4523299999999892
21
-100.6202600000000018
0
LINE
8
BLACK
6
CONTINUOUS
10
201.4523299999999892
20
-100.6202600000000018
11
201.4738710000000026
21
-100.6756839999999897
0
LINE
8
BLACK
6
CONTINUOUS
10
201.4738710000000026
20
-100.6756839999999897
11
201.4875710000000026
21
-100.7096650000000011
0
LINE
8
BLACK
6
CONTINUOUS
10
201.4875710000000026
20
-100.7096650000000011
11
201.4926649999999881
21
-100.7202879999999965
0
LINE
8
BLACK
6
CONTINUOUS
10
201.4926649999999881
20
-100.7202879999999965
11
201.4981999999999971
21
-100.7071029999999894
0
LINE
8
BLACK
6
CONTINUOUS
10
201.4981999999999971
20
-100.7071029999999894
11
201.5124830000000031
21
-100.670693
0
LINE
8
BLACK
6
CONTINUOUS
10
201.5124830000000031
20
-100.670693
11
201.5347539999999924
21
-100.613047999999992
0
LINE
8
BLACK
6
CONTINUOUS
10
201.5347539999999924
20
-100.613047999999992
11
201.5642529999999795
21
-100.5361609999999928
0
LINE
8
BLACK
6
CONTINUOUS
10
201.5642529999999795
20
-100.5361609999999928
11
201.6002199999999789
21
-100.4420229999999918
0
LINE
8
BLACK
6
CONTINUOUS
10
201.6002199999999789
20
-100.4420229999999918
11
201.6418960000000027
21
-100.3326249999999931
0
LINE
8
BLACK
6
CONTINUOUS
10
201.6418960000000027
20
-100.3326249999999931
11
201.6885199999999827
21
-100.2099589999999978
0
LINE
8
BLACK
6
CONTINUOUS
10
201.6885199999999827
20
-100.2099589999999978
11
201.7393339999999853
21
-100.0760149999999982
0
LINE
8
BLACK
6
CONTINUOUS
10
201.7393339999999853
20
-100.0760149999999982
11
201.7935769999999991
21
-99.9327869999999905
0
LINE
8
BLACK
6
CONTINUOUS
10
201.7935769999999991
20
-99.9327869999999905
11
201.8458729999999832
21
-99.7944820000000021
0
LINE
8
BLACK
6
CONTINUOUS
10
201.8458729999999832
20
-99.7944820000000021
11
202.193618999999984
21
-98.8741380000000021
0
LINE
8
BLACK
6
CONTINUOUS
10
202.193618999999984
20
-98.8741380000000021
11
202.5497799999999984
21
-98.870553000000001
0
LINE
8
BLACK
6
CONTINUOUS
10
202.5497799999999984
20
-98.870553000000001
11
202.9059409999999843
21
-98.866968
0
LINE
8
BLACK
6
CONTINUOUS
10
202.9059409999999843
20
-98.866968
11
202.4333199999999806
21
-100.0394919999999956
0
LINE
8
BLACK
6
CONTINUOUS
10
202.4333199999999806
20
-100.0394919999999956
11
201.9607000000000028
21
-101.2120159999999913
0
LINE
8
BLACK
6
CONTINUOUS
10
201.9607000000000028
20
-101.2120159999999913
11
201.4954159999999774
21
-101.2119349999999969
0
LINE
8
BLACK
6
CONTINUOUS
10
201.4954159999999774
20
-101.2119349999999969
11
201.0301319999999805
21
-101.2118549999999999
0
LINE
8
BLACK
6
CONTINUOUS
10
201.0301319999999805
20
-101.2118549999999999
11
200.748361999999986
21
-100.4182079999999928
0
LINE
8
BLACK
6
CONTINUOUS
10
200.748361999999986
20
-100.4182079999999928
11
200.6984049999999797
21
-100.2776029999999992
0
LINE
8
BLACK
6
CONTINUOUS
10
200.6984049999999797
20
-100.2776029999999992
11
200.6508139999999969
21
-100.1438539999999904
0
LINE
8
BLACK
6
CONTINUOUS
10
200.6508139999999969
20
-100.1438539999999904
11
200.6064020000000028
21
-100.0192399999999964
0
LINE
8
BLACK
6
CONTINUOUS
10
200.6064020000000028
20
-100.0192399999999964
11
200.565985999999981
21
-99.9060399999999902
0
LINE
8
BLACK
6
CONTINUOUS
10
200.565985999999981
20
-99.9060399999999902
11
200.5303809999999771
21
-99.8065309999999926
0
LINE
8
BLACK
6
CONTINUOUS
10
200.5303809999999771
20
-99.8065309999999926
11
200.5004019999999798
21
-99.7229919999999908
0
LINE
8
BLACK
6
CONTINUOUS
10
200.5004019999999798
20
-99.7229919999999908
11
200.4768639999999778
21
-99.6577009999999888
0
LINE
8
BLACK
6
CONTINUOUS
10
200.4768639999999778
20
-99.6577009999999888
11
200.4605829999999855
21
-99.6129370000000023
0
LINE
8
BLACK
6
CONTINUOUS
10
200.4605829999999855
20
-99.6129370000000023
11
200.4523749999999893
21
-99.5909769999999952
0
LINE
8
BLACK
6
CONTINUOUS
10
200.4523749999999893
20
-99.5909769999999952
11
200.4519159999999829
21
-99.5898529999999909
0
LINE
8
BLACK
6
CONTINUOUS
10
200.4519159999999829
20
-99.5898529999999909
11
200.4482349999999826
21
-99.5849139999999977
0
LINE
8
BLACK
6
CONTINUOUS
10
200.4482349999999826
20
-99.5849139999999977
11
200.443082000000004
21
-99.5861969999999985
0
LINE
8
BLACK
6
CONTINUOUS
10
200.443082000000004
20
-99.5861969999999985
11
200.4357929999999897
21
-99.5953839999999957
0
LINE
8
BLACK
6
CONTINUOUS
10
200.4357929999999897
20
-99.5953839999999957
11
200.4257039999999961
21
-99.6141559999999942
0
LINE
8
BLACK
6
CONTINUOUS
10
200.4257039999999961
20
-99.6141559999999942
11
200.4121489999999994
21
-99.6441930000000013
0
LINE
8
BLACK
6
CONTINUOUS
10
200.4121489999999994
20
-99.6441930000000013
11
200.3944649999999967
21
-99.6871769999999913
0
LINE
8
BLACK
6
CONTINUOUS
10
200.3944649999999967
20
-99.6871769999999913
11
200.3719859999999926
21
-99.7447899999999947
0
LINE
8
BLACK
6
CONTINUOUS
10
200.3719859999999926
20
-99.7447899999999947
11
200.3440479999999866
21
-99.8187109999999933
0
LINE
8
BLACK
6
CONTINUOUS
10
200.3440479999999866
20
-99.8187109999999933
11
200.3099869999999783
21
-99.9106219999999894
0
LINE
8
BLACK
6
CONTINUOUS
10
200.3099869999999783
20
-99.9106219999999894
11
200.2691370000000006
21
-100.0222040000000021
0
LINE
8
BLACK
6
CONTINUOUS
10
200.2691370000000006
20
-100.0222040000000021
11
200.2208349999999939
21
-100.1551379999999938
0
LINE
8
BLACK
6
CONTINUOUS
10
200.2208349999999939
20
-100.1551379999999938
11
200.1644159999999886
21
-100.3111049999999977
0
LINE
8
BLACK
6
CONTINUOUS
10
200.1644159999999886
20
-100.3111049999999977
11
200.1394650000000013
21
-100.3802109999999885
0
LINE
8
BLACK
6
CONTINUOUS
10
200.1394650000000013
20
-100.3802109999999885
11
199.8416890000000024
21
-101.2052779999999927
0
LINE
8
BLACK
6
CONTINUOUS
10
199.8416890000000024
20
-101.2052779999999927
11
199.3824109999999905
21
-101.2088229999999953
0
LINE
8
BLACK
6
CONTINUOUS
10
199.3824109999999905
20
-101.2088229999999953
11
199.2738760000000013
21
-101.2093679999999978
0
LINE
8
BLACK
6
CONTINUOUS
10
199.2738760000000013
20
-101.2093679999999978
11
199.1741269999999986
21
-101.2093079999999929
0
LINE
8
BLACK
6
CONTINUOUS
10
199.1741269999999986
20
-101.2093079999999929
11
199.0863099999999974
21
-101.2086869999999976
0
LINE
8
BLACK
6
CONTINUOUS
10
199.0863099999999974
20
-101.2086869999999976
11
199.0135709999999847
21
-101.2075509999999952
0
LINE
8
BLACK
6
CONTINUOUS
10
199.0135709999999847
20
-101.2075509999999952
11
198.959054999999978
21
-101.2059459999999973
0
LINE
8
BLACK
6
CONTINUOUS
10
198.959054999999978
20
-101.2059459999999973
11
198.9259079999999926
21
-101.2039169999999899
0
LINE
8
BLACK
6
CONTINUOUS
10
198.9259079999999926
20
-101.2039169999999899
11
198.9169210000000021
21
-101.2020859999999942
0
LINE
8
BLACK
6
CONTINUOUS
10
198.9169210000000021
20
-101.2020859999999942
11
198.9110989999999788
21
-101.1883239999999944
0
LINE
8
BLACK
6
CONTINUOUS
10
198.9110989999999788
20
-101.1883239999999944
11
198.8959889999999859
21
-101.1513410000000022
0
LINE
8
BLACK
6
CONTINUOUS
10
198.8959889999999859
20
-101.1513410000000022
11
198.8723149999999862
21
-101.0929339999999996
0
LINE
8
BLACK
6
CONTINUOUS
10
198.8723149999999862
20
-101.0929339999999996
11
198.840800999999999
21
-101.0149029999999897
0
LINE
8
BLACK
6
CONTINUOUS
10
198.840800999999999
20
-101.0149029999999897
11
198.8021699999999896
21
-100.9190459999999945
0
LINE
8
BLACK
6
CONTINUOUS
10
198.8021699999999896
20
-100.9190459999999945
11
198.7571480000000008
21
-100.8071619999999911
0
LINE
8
BLACK
6
CONTINUOUS
10
198.7571480000000008
20
-100.8071619999999911
11
198.7064570000000003
21
-100.6810490000000016
0
LINE
8
BLACK
6
CONTINUOUS
10
198.7064570000000003
20
-100.6810490000000016
11
198.6508209999999792
21
-100.542507999999998
0
LINE
8
BLACK
6
CONTINUOUS
10
198.6508209999999792
20
-100.542507999999998
11
198.5909639999999854
21
-100.3933349999999933
0
LINE
8
BLACK
6
CONTINUOUS
10
198.5909639999999854
20
-100.3933349999999933
11
198.527610999999979
21
-100.2353310000000022
0
LINE
8
BLACK
6
CONTINUOUS
10
198.527610999999979
20
-100.2353310000000022
11
198.465424999999982
21
-100.0801329999999894
0
LINE
8
BLACK
6
CONTINUOUS
10
198.465424999999982
20
-100.0801329999999894
11
198.3990129999999965
21
-99.9143569999999954
0
LINE
8
BLACK
6
CONTINUOUS
10
198.3990129999999965
20
-99.9143569999999954
11
198.3351229999999816
21
-99.7549309999999991
0
LINE
8
BLACK
6
CONTINUOUS
10
198.3351229999999816
20
-99.7549309999999991
11
198.2745129999999847
21
-99.6037400000000019
0
LINE
8
BLACK
6
CONTINUOUS
10
198.2745129999999847
20
-99.6037400000000019
11
198.2179390000000012
21
-99.4626710000000003
0
LINE
8
BLACK
6
CONTINUOUS
10
198.2179390000000012
20
-99.4626710000000003
11
198.1661609999999882
21
-99.3336099999999931
0
LINE
8
BLACK
6
CONTINUOUS
10
198.1661609999999882
20
-99.3336099999999931
11
198.1199330000000032
21
-99.218443999999991
0
LINE
8
BLACK
6
CONTINUOUS
10
198.1199330000000032
20
-99.218443999999991
11
198.0800139999999772
21
-99.1190589999999929
0
LINE
8
BLACK
6
CONTINUOUS
10
198.0800139999999772
20
-99.1190589999999929
11
198.047159999999991
21
-99.0373409999999978
0
LINE
8
BLACK
6
CONTINUOUS
10
198.047159999999991
20
-99.0373409999999978
11
198.0221289999999783
21
-98.9751759999999905
0
LINE
8
BLACK
6
CONTINUOUS
10
198.0221289999999783
20
-98.9751759999999905
11
198.0056789999999864
21
-98.9344519999999932
0
LINE
8
BLACK
6
CONTINUOUS
10
198.0056789999999864
20
-98.9344519999999932
11
197.9988429999999937
21
-98.9177099999999996
0
LINE
8
BLACK
6
CONTINUOUS
10
197.9988429999999937
20
-98.9177099999999996
11
197.9775439999999946
21
-98.8669589999999943
0
LINE
8
BLACK
6
CONTINUOUS
10
197.9775439999999946
20
-98.8669589999999943
11
198.3368629999999939
21
-98.8705489999999969
0
LINE
8
BLACK
6
CONTINUOUS
10
184.6245619999999974
20
-98.5057740000000024
11
184.6245619999999974
21
-99.1682330000000007
0
LINE
8
BLACK
6
CONTINUOUS
10
184.6245619999999974
20
-99.1682330000000007
11
184.680232999999987
21
-99.0904889999999909
0
LINE
8
BLACK
6
CONTINUOUS
10
184.680232999999987
20
-99.0904889999999909
11
184.7421199999999999
21
-99.0189189999999968
0
LINE
8
BLACK
6
CONTINUOUS
10
184.7421199999999999
20
-99.0189189999999968
11
184.8179879999999855
21
-98.959272999999996
0
LINE
8
BLACK
6
CONTINUOUS
10
184.8179879999999855
20
-98.959272999999996
11
184.910776999999996
21
-98.9100540000000024
0
LINE
8
BLACK
6
CONTINUOUS
10
184.910776999999996
20
-98.9100540000000024
11
185.0234240000000057
21
-98.8697679999999934
0
LINE
8
BLACK
6
CONTINUOUS
10
185.0234240000000057
20
-98.8697679999999934
11
185.1588710000000049
21
-98.8369189999999946
0
LINE
8
BLACK
6
CONTINUOUS
10
185.1588710000000049
20
-98.8369189999999946
11
185.1905029999999783
21
-98.8308219999999977
0
LINE
8
BLACK
6
CONTINUOUS
10
185.1905029999999783
20
-98.8308219999999977
11
185.2483189999999809
21
-98.8231409999999926
0
LINE
8
BLACK
6
CONTINUOUS
10
185.2483189999999809
20
-98.8231409999999926
11
185.3288849999999854
21
-98.8168000000000006
0
LINE
8
BLACK
6
CONTINUOUS
10
185.3288849999999854
20
-98.8168000000000006
11
185.4280339999999967
21
-98.811797999999996
0
LINE
8
BLACK
6
CONTINUOUS
10
185.4280339999999967
20
-98.811797999999996
11
185.5415999999999883
21
-98.8081339999999955
0
LINE
8
BLACK
6
CONTINUOUS
10
185.5415999999999883
20
-98.8081339999999955
11
185.6654159999999933
21
-98.805807999999999
0
LINE
8
BLACK
6
CONTINUOUS
10
185.6654159999999933
20
-98.805807999999999
11
185.7953159999999855
21
-98.8048179999999974
0
LINE
8
BLACK
6
CONTINUOUS
10
185.7953159999999855
20
-98.8048179999999974
11
185.9271329999999978
21
-98.8051639999999907
0
LINE
8
BLACK
6
CONTINUOUS
10
185.9271329999999978
20
-98.8051639999999907
11
186.0567010000000039
21
-98.8068459999999931
0
LINE
8
BLACK
6
CONTINUOUS
10
186.0567010000000039
20
-98.8068459999999931
11
186.1798539999999775
21
-98.8098619999999954
0
LINE
8
BLACK
6
CONTINUOUS
10
186.1798539999999775
20
-98.8098619999999954
11
186.2924239999999827
21
-98.8142119999999977
0
LINE
8
BLACK
6
CONTINUOUS
10
186.2924239999999827
20
-98.8142119999999977
11
186.3902459999999905
21
-98.8198950000000025
0
LINE
8
BLACK
6
CONTINUOUS
10
186.3902459999999905
20
-98.8198950000000025
11
186.4691519999999798
21
-98.8269109999999955
0
LINE
8
BLACK
6
CONTINUOUS
10
186.4691519999999798
20
-98.8269109999999955
11
186.5010929999999973
21
-98.8310499999999905
0
LINE
8
BLACK
6
CONTINUOUS
10
186.5010929999999973
20
-98.8310499999999905
11
186.664260999999982
21
-98.8619470000000007
0
LINE
8
BLACK
6
CONTINUOUS
10
186.664260999999982
20
-98.8619470000000007
11
186.804033000000004
21
-98.9026109999999932
0
LINE
8
BLACK
6
CONTINUOUS
10
186.804033000000004
20
-98.9026109999999932
11
186.9225799999999822
21
-98.9542819999999921
0
LINE
8
BLACK
6
CONTINUOUS
10
186.9225799999999822
20
-98.9542819999999921
11
187.0220709999999826
21
-99.0182009999999906
0
LINE
8
BLACK
6
CONTINUOUS
10
187.0220709999999826
20
-99.0182009999999906
11
187.104676999999981
21
-99.0956079999999986
0
LINE
8
BLACK
6
CONTINUOUS
10
187.104676999999981
20
-99.0956079999999986
11
187.1725659999999891
21
-99.187743999999995
0
LINE
8
BLACK
6
CONTINUOUS
10
187.1725659999999891
20
-99.187743999999995
11
187.1956439999999873
21
-99.2281639999999925
0
LINE
8
BLACK
6
CONTINUOUS
10
187.1956439999999873
20
-99.2281639999999925
11
187.2397229999999979
21
-99.3310669999999902
0
LINE
8
BLACK
6
CONTINUOUS
10
187.2397229999999979
20
-99.3310669999999902
11
187.275351999999998
21
-99.4550839999999994
0
LINE
8
BLACK
6
CONTINUOUS
10
187.275351999999998
20
-99.4550839999999994
11
187.3025309999999877
21
-99.5957369999999997
0
LINE
8
BLACK
6
CONTINUOUS
10
187.3025309999999877
20
-99.5957369999999997
11
187.3212589999999977
21
-99.7485499999999945
0
LINE
8
BLACK
6
CONTINUOUS
10
187.3212589999999977
20
-99.7485499999999945
11
187.3315359999999998
21
-99.909047000000001
0
LINE
8
BLACK
6
CONTINUOUS
10
187.3315359999999998
20
-99.909047000000001
11
187.3333639999999889
21
-100.0727499999999992
0
LINE
8
BLACK
6
CONTINUOUS
10
187.3333639999999889
20
-100.0727499999999992
11
187.3267409999999984
21
-100.2351829999999921
0
LINE
8
BLACK
6
CONTINUOUS
10
187.3267409999999984
20
-100.2351829999999921
11
187.3116669999999999
21
-100.3918689999999998
0
LINE
8
BLACK
6
CONTINUOUS
10
187.3116669999999999
20
-100.3918689999999998
11
187.2881439999999884
21
-100.5383309999999994
0
LINE
8
BLACK
6
CONTINUOUS
10
187.2881439999999884
20
-100.5383309999999994
11
187.2561689999999999
21
-100.6700919999999968
0
LINE
8
BLACK
6
CONTINUOUS
10
187.2561689999999999
20
-100.6700919999999968
11
187.2157449999999983
21
-100.782675999999995
0
LINE
8
BLACK
6
CONTINUOUS
10
187.2157449999999983
20
-100.782675999999995
11
187.1956439999999873
21
-100.8243019999999888
0
LINE
8
BLACK
6
CONTINUOUS
10
187.1956439999999873
20
-100.8243019999999888
11
187.1311429999999802
21
-100.9245579999999904
0
LINE
8
BLACK
6
CONTINUOUS
10
187.1311429999999802
20
-100.9245579999999904
11
187.0516289999999913
21
-101.0092399999999913
0
LINE
8
BLACK
6
CONTINUOUS
10
187.0516289999999913
20
-101.0092399999999913
11
186.9551519999999982
21
-101.0794750000000022
0
LINE
8
BLACK
6
CONTINUOUS
10
186.9551519999999982
20
-101.0794750000000022
11
186.8397640000000024
21
-101.1363889999999941
0
LINE
8
BLACK
6
CONTINUOUS
10
186.8397640000000024
20
-101.1363889999999941
11
186.7035149999999817
21
-101.1811089999999922
0
LINE
8
BLACK
6
CONTINUOUS
10
186.7035149999999817
20
-101.1811089999999922
11
186.5444559999999967
21
-101.2147629999999907
0
LINE
8
BLACK
6
CONTINUOUS
10
186.5444559999999967
20
-101.2147629999999907
11
186.5110339999999951
21
-101.2200679999999977
0
LINE
8
BLACK
6
CONTINUOUS
10
186.5110339999999951
20
-101.2200679999999977
11
186.4579049999999825
21
-101.2259289999999936
0
LINE
8
BLACK
6
CONTINUOUS
10
186.4579049999999825
20
-101.2259289999999936
11
186.3821920000000034
21
-101.2312510000000003
0
LINE
8
BLACK
6
CONTINUOUS
10
186.3821920000000034
20
-101.2312510000000003
11
186.2882579999999848
21
-101.2359659999999906
0
LINE
8
BLACK
6
CONTINUOUS
10
186.2882579999999848
20
-101.2359659999999906
11
186.1804640000000006
21
-101.2400059999999939
0
LINE
8
BLACK
6
CONTINUOUS
10
186.1804640000000006
20
-101.2400059999999939
11
186.0631729999999777
21
-101.2432999999999907
0
LINE
8
BLACK
6
CONTINUOUS
10
186.0631729999999777
20
-101.2432999999999907
11
185.9407459999999901
21
-101.2457809999999938
0
LINE
8
BLACK
6
CONTINUOUS
10
185.9407459999999901
20
-101.2457809999999938
11
185.817545999999993
21
-101.2473799999999926
0
LINE
8
BLACK
6
CONTINUOUS
10
185.817545999999993
20
-101.2473799999999926
11
185.6979350000000011
21
-101.2480269999999933
0
LINE
8
BLACK
6
CONTINUOUS
10
185.6979350000000011
20
-101.2480269999999933
11
185.5862740000000031
21
-101.2476549999999946
0
LINE
8
BLACK
6
CONTINUOUS
10
185.5862740000000031
20
-101.2476549999999946
11
185.4869259999999827
21
-101.246192999999991
0
LINE
8
BLACK
6
CONTINUOUS
10
185.4869259999999827
20
-101.246192999999991
11
185.4042519999999854
21
-101.2435739999999953
0
LINE
8
BLACK
6
CONTINUOUS
10
185.4042519999999854
20
-101.2435739999999953
11
185.342614999999995
21
-101.2397279999999995
0
LINE
8
BLACK
6
CONTINUOUS
10
185.342614999999995
20
-101.2397279999999995
11
185.331988999999993
21
-101.2386759999999981
0
LINE
8
BLACK
6
CONTINUOUS
10
185.331988999999993
20
-101.2386759999999981
11
185.1725459999999828
21
-101.2163319999999942
0
LINE
8
BLACK
6
CONTINUOUS
10
185.1725459999999828
20
-101.2163319999999942
11
185.0368409999999812
21
-101.1862039999999894
0
LINE
8
BLACK
6
CONTINUOUS
10
185.0368409999999812
20
-101.1862039999999894
11
184.9225299999999947
21
-101.1472890000000007
0
LINE
8
BLACK
6
CONTINUOUS
10
184.9225299999999947
20
-101.1472890000000007
11
184.8272709999999961
21
-101.0985849999999999
0
LINE
8
BLACK
6
CONTINUOUS
10
184.8272709999999961
20
-101.0985849999999999
11
184.7487189999999941
21
-101.0390919999999966
0
LINE
8
BLACK
6
CONTINUOUS
10
184.7487189999999941
20
-101.0390919999999966
11
184.6845309999999927
21
-100.9678069999999934
0
LINE
8
BLACK
6
CONTINUOUS
10
184.6845309999999927
20
-100.9678069999999934
11
184.6783519999999896
21
-100.9593509999999981
0
LINE
8
BLACK
6
CONTINUOUS
10
184.6783519999999896
20
-100.9593509999999981
11
184.6245619999999974
21
-100.8842329999999947
0
LINE
8
BLACK
6
CONTINUOUS
10
184.6245619999999974
20
-100.8842329999999947
11
184.6245619999999974
21
-101.0481249999999989
0
LINE
8
BLACK
6
CONTINUOUS
10
184.6245619999999974
20
-101.0481249999999989
11
184.6245619999999974
21
-101.2120159999999913
0
LINE
8
BLACK
6
CONTINUOUS
10
184.6245619999999974
20
-101.2120159999999913
11
184.4493889999999965
21
-101.2120159999999913
0
LINE
8
BLACK
6
CONTINUOUS
10
184.4493889999999965
20
-101.2120159999999913
11
184.274216999999993
21
-101.2120159999999913
0
LINE
8
BLACK
6
CONTINUOUS
10
184.274216999999993
20
-101.2120159999999913
11
184.274216999999993
21
-100.0646249999999924
0
LINE
8
BLACK
6
CONTINUOUS
10
184.274216999999993
20
-100.0646249999999924
11
184.629306999999983
21
-100.0646249999999924
0
LINE
8
BLACK
6
CONTINUOUS
10
184.629306999999983
20
-100.0646249999999924
11
184.6311570000000017
21
-100.1748010000000022
0
LINE
8
BLACK
6
CONTINUOUS
10
184.6311570000000017
20
-100.1748010000000022
11
184.6352329999999995
21
-100.2782940000000025
0
LINE
8
BLACK
6
CONTINUOUS
10
184.6352329999999995
20
-100.2782940000000025
11
184.6415179999999907
21
-100.3695450000000022
0
LINE
8
BLACK
6
CONTINUOUS
10
184.6415179999999907
20
-100.3695450000000022
11
184.6499989999999798
21
-100.4429959999999937
0
LINE
8
BLACK
6
CONTINUOUS
10
184.6499989999999798
20
-100.4429959999999937
11
184.6564630000000022
21
-100.4776389999999964
0
LINE
8
BLACK
6
CONTINUOUS
10
184.6564630000000022
20
-100.4776389999999964
11
184.6891430000000014
21
-100.5889019999999903
0
LINE
8
BLACK
6
CONTINUOUS
10
184.6891430000000014
20
-100.5889019999999903
11
184.7320719999999881
21
-100.6802679999999981
0
LINE
8
BLACK
6
CONTINUOUS
10
184.7320719999999881
20
-100.6802679999999981
11
184.7880289999999945
21
-100.7541439999999966
0
LINE
8
BLACK
6
CONTINUOUS
10
184.7880289999999945
20
-100.7541439999999966
11
184.8597910000000013
21
-100.8129359999999934
0
LINE
8
BLACK
6
CONTINUOUS
10
184.8597910000000013
20
-100.8129359999999934
11
184.9501379999999813
21
-100.8590519999999913
0
LINE
8
BLACK
6
CONTINUOUS
10
184.9501379999999813
20
-100.8590519999999913
11
185.0618479999999977
21
-100.8948979999999978
0
LINE
8
BLACK
6
CONTINUOUS
10
185.0618479999999977
20
-100.8948979999999978
11
185.1635540000000049
21
-100.9169029999999907
0
LINE
8
BLACK
6
CONTINUOUS
10
185.1635540000000049
20
-100.9169029999999907
11
185.2070559999999944
21
-100.9226439999999911
0
LINE
8
BLACK
6
CONTINUOUS
10
185.2070559999999944
20
-100.9226439999999911
11
185.2719419999999957
21
-100.9283319999999975
0
LINE
8
BLACK
6
CONTINUOUS
10
185.2719419999999957
20
-100.9283319999999975
11
185.3526479999999879
21
-100.933725999999993
0
LINE
8
BLACK
6
CONTINUOUS
10
185.3526479999999879
20
-100.933725999999993
11
185.4436089999999808
21
-100.9385849999999891
0
LINE
8
BLACK
6
CONTINUOUS
10
185.4436089999999808
20
-100.9385849999999891
11
185.539260999999982
21
-100.9426670000000001
0
LINE
8
BLACK
6
CONTINUOUS
10
185.539260999999982
20
-100.9426670000000001
11
185.6340390000000014
21
-100.9457319999999925
0
LINE
8
BLACK
6
CONTINUOUS
10
185.6340390000000014
20
-100.9457319999999925
11
185.7223799999999869
21
-100.947536999999997
0
LINE
8
BLACK
6
CONTINUOUS
10
185.7223799999999869
20
-100.947536999999997
11
185.7987169999999821
21
-100.9478419999999943
0
LINE
8
BLACK
6
CONTINUOUS
10
185.7987169999999821
20
-100.9478419999999943
11
185.8507689999999855
21
-100.9467089999999985
0
LINE
8
BLACK
6
CONTINUOUS
10
185.8507689999999855
20
-100.9467089999999985
11
185.8961489999999799
21
-100.944935000000001
0
LINE
8
BLACK
6
CONTINUOUS
10
185.8961489999999799
20
-100.944935000000001
11
185.9609389999999962
21
-100.9425419999999889
0
LINE
8
BLACK
6
CONTINUOUS
10
185.9609389999999962
20
-100.9425419999999889
11
186.0376129999999932
21
-100.9398020000000002
0
LINE
8
BLACK
6
CONTINUOUS
10
186.0376129999999932
20
-100.9398020000000002
11
186.1186449999999866
21
-100.936987000000002
0
LINE
8
BLACK
6
CONTINUOUS
10
186.1186449999999866
20
-100.936987000000002
11
186.1472139999999911
21
-100.9360149999999976
0
LINE
8
BLACK
6
CONTINUOUS
10
186.1472139999999911
20
-100.9360149999999976
11
186.3087060000000008
21
-100.9263490000000019
0
LINE
8
BLACK
6
CONTINUOUS
10
186.3087060000000008
20
-100.9263490000000019
11
186.4462609999999927
21
-100.9086399999999912
0
LINE
8
BLACK
6
CONTINUOUS
10
186.4462609999999927
20
-100.9086399999999912
11
186.5618829999999946
21
-100.8821539999999999
0
LINE
8
BLACK
6
CONTINUOUS
10
186.5618829999999946
20
-100.8821539999999999
11
186.6575739999999826
21
-100.8461559999999935
0
LINE
8
BLACK
6
CONTINUOUS
10
186.6575739999999826
20
-100.8461559999999935
11
186.7353379999999845
21
-100.7999140000000011
0
LINE
8
BLACK
6
CONTINUOUS
10
186.7353379999999845
20
-100.7999140000000011
11
186.7971780000000024
21
-100.7426909999999936
0
LINE
8
BLACK
6
CONTINUOUS
10
186.7971780000000024
20
-100.7426909999999936
11
186.8404079999999965
21
-100.6819989999999905
0
LINE
8
BLACK
6
CONTINUOUS
10
186.8404079999999965
20
-100.6819989999999905
11
186.8756019999999864
21
-100.6043659999999988
0
LINE
8
BLACK
6
CONTINUOUS
10
186.8756019999999864
20
-100.6043659999999988
11
186.9048990000000003
21
-100.5042660000000012
0
LINE
8
BLACK
6
CONTINUOUS
10
186.9048990000000003
20
-100.5042660000000012
11
186.9277500000000032
21
-100.3856459999999942
0
LINE
8
BLACK
6
CONTINUOUS
10
186.9277500000000032
20
-100.3856459999999942
11
186.943601000000001
21
-100.2524529999999885
0
LINE
8
BLACK
6
CONTINUOUS
10
186.943601000000001
20
-100.2524529999999885
11
186.9519019999999898
21
-100.1086349999999925
0
LINE
8
BLACK
6
CONTINUOUS
10
186.9519019999999898
20
-100.1086349999999925
11
186.952099000000004
21
-99.9581389999999885
0
LINE
8
BLACK
6
CONTINUOUS
10
186.952099000000004
20
-99.9581389999999885
11
186.9498859999999922
21
-99.8990099999999899
0
LINE
8
BLACK
6
CONTINUOUS
10
186.9498859999999922
20
-99.8990099999999899
11
186.9382139999999879
21
-99.7388259999999889
0
LINE
8
BLACK
6
CONTINUOUS
10
186.9382139999999879
20
-99.7388259999999889
11
186.9190539999999885
21
-99.6027419999999921
0
LINE
8
BLACK
6
CONTINUOUS
10
186.9190539999999885
20
-99.6027419999999921
11
186.8910620000000051
21
-99.4886169999999908
0
LINE
8
BLACK
6
CONTINUOUS
10
186.8910620000000051
20
-99.4886169999999908
11
186.8528909999999996
21
-99.3943099999999902
0
LINE
8
BLACK
6
CONTINUOUS
10
186.8528909999999996
20
-99.3943099999999902
11
186.8031949999999881
21
-99.3176809999999932
0
LINE
8
BLACK
6
CONTINUOUS
10
186.8031949999999881
20
-99.3176809999999932
11
186.7406299999999817
21
-99.2565889999999911
0
LINE
8
BLACK
6
CONTINUOUS
10
186.7406299999999817
20
-99.2565889999999911
11
186.663848999999999
21
-99.2088929999999891
0
LINE
8
BLACK
6
CONTINUOUS
10
186.663848999999999
20
-99.2088929999999891
11
186.5715059999999994
21
-99.1724519999999927
0
LINE
8
BLACK
6
CONTINUOUS
10
186.5715059999999994
20
-99.1724519999999927
11
186.4779839999999922
21
-99.1483489999999961
0
LINE
8
BLACK
6
CONTINUOUS
10
186.4779839999999922
20
-99.1483489999999961
11
186.4060580000000016
21
-99.1367919999999998
0
LINE
8
BLACK
6
CONTINUOUS
10
186.4060580000000016
20
-99.1367919999999998
11
186.3117289999999855
21
-99.1271579999999943
0
LINE
8
BLACK
6
CONTINUOUS
10
186.3117289999999855
20
-99.1271579999999943
11
186.1994770000000017
21
-99.1194699999999926
0
LINE
8
BLACK
6
CONTINUOUS
10
186.1994770000000017
20
-99.1194699999999926
11
186.0737809999999968
21
-99.1137509999999935
0
LINE
8
BLACK
6
CONTINUOUS
10
186.0737809999999968
20
-99.1137509999999935
11
185.9391219999999976
21
-99.1100249999999932
0
LINE
8
BLACK
6
CONTINUOUS
10
185.9391219999999976
20
-99.1100249999999932
11
185.7999789999999791
21
-99.1083129999999954
0
LINE
8
BLACK
6
CONTINUOUS
10
185.7999789999999791
20
-99.1083129999999954
11
185.6608310000000017
21
-99.1086389999999966
0
LINE
8
BLACK
6
CONTINUOUS
10
185.6608310000000017
20
-99.1086389999999966
11
185.5261600000000044
21
-99.1110269999999929
0
LINE
8
BLACK
6
CONTINUOUS
10
185.5261600000000044
20
-99.1110269999999929
11
185.4004429999999957
21
-99.1154980000000023
0
LINE
8
BLACK
6
CONTINUOUS
10
185.4004429999999957
20
-99.1154980000000023
11
185.2881610000000023
21
-99.1220769999999902
0
LINE
8
BLACK
6
CONTINUOUS
10
185.2881610000000023
20
-99.1220769999999902
11
185.1937939999999969
21
-99.1307860000000005
0
LINE
8
BLACK
6
CONTINUOUS
10
185.1937939999999969
20
-99.1307860000000005
11
185.1231290000000058
21
-99.1413859999999971
0
LINE
8
BLACK
6
CONTINUOUS
10
185.1231290000000058
20
-99.1413859999999971
11
185.0041329999999959
21
-99.170338000000001
0
LINE
8
BLACK
6
CONTINUOUS
10
185.0041329999999959
20
-99.170338000000001
11
184.9076869999999815
21
-99.2071210000000008
0
LINE
8
BLACK
6
CONTINUOUS
10
184.9076869999999815
20
-99.2071210000000008
11
184.8305799999999977
21
-99.2549279999999925
0
LINE
8
BLACK
6
CONTINUOUS
10
184.8305799999999977
20
-99.2549279999999925
11
184.769599999999997
21
-99.3169559999999905
0
LINE
8
BLACK
6
CONTINUOUS
10
184.769599999999997
20
-99.3169559999999905
11
184.7215339999999912
21
-99.3963990000000024
0
LINE
8
BLACK
6
CONTINUOUS
10
184.7215339999999912
20
-99.3963990000000024
11
184.6831699999999898
21
-99.4964530000000025
0
LINE
8
BLACK
6
CONTINUOUS
10
184.6831699999999898
20
-99.4964530000000025
11
184.6539939999999831
21
-99.6080570000000023
0
LINE
8
BLACK
6
CONTINUOUS
10
184.6539939999999831
20
-99.6080570000000023
11
184.6444789999999898
21
-99.6682670000000002
0
LINE
8
BLACK
6
CONTINUOUS
10
184.6444789999999898
20
-99.6682670000000002
11
184.6372679999999775
21
-99.7495869999999911
0
LINE
8
BLACK
6
CONTINUOUS
10
184.6372679999999775
20
-99.7495869999999911
11
184.6323469999999816
21
-99.8464599999999933
0
LINE
8
BLACK
6
CONTINUOUS
10
184.6323469999999816
20
-99.8464599999999933
11
184.6296979999999905
21
-99.9533249999999924
0
LINE
8
BLACK
6
CONTINUOUS
10
184.6296979999999905
20
-99.9533249999999924
11
184.629306999999983
21
-100.0646249999999924
0
LINE
8
BLACK
6
CONTINUOUS
10
184.629306999999983
20
-100.0646249999999924
11
184.274216999999993
21
-100.0646249999999924
0
LINE
8
BLACK
6
CONTINUOUS
10
184.274216999999993
20
-100.0646249999999924
11
184.274216999999993
21
-99.5276659999999964
0
LINE
8
BLACK
6
CONTINUOUS
10
184.274216999999993
20
-99.5276659999999964
11
184.274216999999993
21
-97.8433160000000015
0
LINE
8
BLACK
6
CONTINUOUS
10
184.274216999999993
20
-97.8433160000000015
11
184.4493889999999965
21
-97.8433160000000015
0
LINE
8
BLACK
6
CONTINUOUS
10
184.4493889999999965
20
-97.8433160000000015
11
184.6245619999999974
21
-97.8433160000000015
0
LINE
8
BLACK
6
CONTINUOUS
10
184.6245619999999974
20
-97.8433160000000015
11
184.6245619999999974
21
-98.5057740000000024
0
LINE
8
BLACK
6
CONTINUOUS
10
180.0515989999999817
20
-98.8008109999999959
11
180.1585249999999974
21
-98.8025310000000019
0
LINE
8
BLACK
6
CONTINUOUS
10
180.1585249999999974
20
-98.8025310000000019
11
180.2538759999999911
21
-98.805768999999998
0
LINE
8
BLACK
6
CONTINUOUS
10
180.2538759999999911
20
-98.805768999999998
11
180.3317239999999799
21
-98.8105309999999974
0
LINE
8
BLACK
6
CONTINUOUS
10
180.3317239999999799
20
-98.8105309999999974
11
180.3668779999999856
21
-98.8140379999999965
0
LINE
8
BLACK
6
CONTINUOUS
10
180.3668779999999856
20
-98.8140379999999965
11
180.5200789999999813
21
-98.8394139999999908
0
LINE
8
BLACK
6
CONTINUOUS
10
180.5200789999999813
20
-98.8394139999999908
11
180.6503579999999829
21
-98.8758189999999928
0
LINE
8
BLACK
6
CONTINUOUS
10
180.6503579999999829
20
-98.8758189999999928
11
180.7599270000000047
21
-98.9245529999999889
0
LINE
8
BLACK
6
CONTINUOUS
10
180.7599270000000047
20
-98.9245529999999889
11
180.8509959999999808
21
-98.9869179999999886
0
LINE
8
BLACK
6
CONTINUOUS
10
180.8509959999999808
20
-98.9869179999999886
11
180.9257759999999848
21
-99.0642149999999901
0
LINE
8
BLACK
6
CONTINUOUS
10
180.9257759999999848
20
-99.0642149999999901
11
180.9864780000000053
21
-99.1577439999999939
0
LINE
8
BLACK
6
CONTINUOUS
10
180.9864780000000053
20
-99.1577439999999939
11
181.0014579999999853
21
-99.1874469999999917
0
LINE
8
BLACK
6
CONTINUOUS
10
181.0014579999999853
20
-99.1874469999999917
11
181.0434689999999875
21
-99.275472999999991
0
LINE
8
BLACK
6
CONTINUOUS
10
181.0434689999999875
20
-99.275472999999991
11
181.083219999999983
21
-99.2013919999999985
0
LINE
8
BLACK
6
CONTINUOUS
10
181.083219999999983
20
-99.2013919999999985
11
181.145561999999984
21
-99.1045599999999922
0
LINE
8
BLACK
6
CONTINUOUS
10
181.145561999999984
20
-99.1045599999999922
11
181.2212209999999857
21
-99.023699999999991
0
LINE
8
BLACK
6
CONTINUOUS
10
181.2212209999999857
20
-99.023699999999991
11
181.3126859999999851
21
-98.957304999999991
0
LINE
8
BLACK
6
CONTINUOUS
10
181.3126859999999851
20
-98.957304999999991
11
181.422444999999982
21
-98.9038690000000003
0
LINE
8
BLACK
6
CONTINUOUS
10
181.422444999999982
20
-98.9038690000000003
11
181.5529870000000017
21
-98.8618829999999917
0
LINE
8
BLACK
6
CONTINUOUS
10
181.5529870000000017
20
-98.8618829999999917
11
181.6930169999999976
21
-98.8321719999999999
0
LINE
8
BLACK
6
CONTINUOUS
10
181.6930169999999976
20
-98.8321719999999999
11
181.7552739999999858
21
-98.824118999999996
0
LINE
8
BLACK
6
CONTINUOUS
10
181.7552739999999858
20
-98.824118999999996
11
181.8393389999999954
21
-98.8171359999999908
0
LINE
8
BLACK
6
CONTINUOUS
10
181.8393389999999954
20
-98.8171359999999908
11
181.9400870000000054
21
-98.8113230000000016
0
LINE
8
BLACK
6
CONTINUOUS
10
181.9400870000000054
20
-98.8113230000000016
11
182.052392999999995
21
-98.8067839999999933
0
LINE
8
BLACK
6
CONTINUOUS
10
182.052392999999995
20
-98.8067839999999933
11
182.1711320000000001
21
-98.8036189999999976
0
LINE
8
BLACK
6
CONTINUOUS
10
182.1711320000000001
20
-98.8036189999999976
11
182.2911799999999971
21
-98.8019319999999936
0
LINE
8
BLACK
6
CONTINUOUS
10
182.2911799999999971
20
-98.8019319999999936
11
182.4074119999999937
21
-98.8018239999999963
0
LINE
8
BLACK
6
CONTINUOUS
10
182.4074119999999937
20
-98.8018239999999963
11
182.5147039999999947
21
-98.8033959999999922
0
LINE
8
BLACK
6
CONTINUOUS
10
182.5147039999999947
20
-98.8033959999999922
11
182.6079299999999819
21
-98.8067509999999913
0
LINE
8
BLACK
6
CONTINUOUS
10
182.6079299999999819
20
-98.8067509999999913
11
182.6819649999999911
21
-98.8119899999999944
0
LINE
8
BLACK
6
CONTINUOUS
10
182.6819649999999911
20
-98.8119899999999944
11
182.6862129999999809
21
-98.812421999999998
0
LINE
8
BLACK
6
CONTINUOUS
10
182.6862129999999809
20
-98.812421999999998
11
182.8493200000000058
21
-98.8351519999999937
0
LINE
8
BLACK
6
CONTINUOUS
10
182.8493200000000058
20
-98.8351519999999937
11
182.9888339999999971
21
-98.8677069999999958
0
LINE
8
BLACK
6
CONTINUOUS
10
182.9888339999999971
20
-98.8677069999999958
11
183.1067449999999894
21
-98.9114299999999957
0
LINE
8
BLACK
6
CONTINUOUS
10
183.1067449999999894
20
-98.9114299999999957
11
183.2050399999999968
21
-98.9676690000000008
0
LINE
8
BLACK
6
CONTINUOUS
10
183.2050399999999968
20
-98.9676690000000008
11
183.2857079999999996
21
-99.0377679999999998
0
LINE
8
BLACK
6
CONTINUOUS
10
183.2857079999999996
20
-99.0377679999999998
11
183.3507379999999785
21
-99.1230729999999909
0
LINE
8
BLACK
6
CONTINUOUS
10
183.3507379999999785
20
-99.1230729999999909
11
183.402118999999999
21
-99.2249289999999888
0
LINE
8
BLACK
6
CONTINUOUS
10
183.402118999999999
20
-99.2249289999999888
11
183.4346060000000023
21
-99.318805999999995
0
LINE
8
BLACK
6
CONTINUOUS
10
183.4346060000000023
20
-99.318805999999995
11
183.439312000000001
21
-99.3369179999999972
0
LINE
8
BLACK
6
CONTINUOUS
10
183.439312000000001
20
-99.3369179999999972
11
183.443382999999983
21
-99.3580639999999988
0
LINE
8
BLACK
6
CONTINUOUS
10
183.443382999999983
20
-99.3580639999999988
11
183.4468770000000006
21
-99.3843009999999936
0
LINE
8
BLACK
6
CONTINUOUS
10
183.4468770000000006
20
-99.3843009999999936
11
183.4498509999999953
21
-99.4176849999999916
0
LINE
8
BLACK
6
CONTINUOUS
10
183.4498509999999953
20
-99.4176849999999916
11
183.4523639999999887
21
-99.4602709999999917
0
LINE
8
BLACK
6
CONTINUOUS
10
183.4523639999999887
20
-99.4602709999999917
11
183.4544740000000047
21
-99.5141160000000013
0
LINE
8
BLACK
6
CONTINUOUS
10
183.4544740000000047
20
-99.5141160000000013
11
183.4562399999999798
21
-99.5812760000000026
0
LINE
8
BLACK
6
CONTINUOUS
10
183.4562399999999798
20
-99.5812760000000026
11
183.4577179999999998
21
-99.6638059999999939
0
LINE
8
BLACK
6
CONTINUOUS
10
183.4577179999999998
20
-99.6638059999999939
11
183.4589679999999987
21
-99.7637629999999973
0
LINE
8
BLACK
6
CONTINUOUS
10
183.4589679999999987
20
-99.7637629999999973
11
183.460047000000003
21
-99.8832019999999972
0
LINE
8
BLACK
6
CONTINUOUS
10
183.460047000000003
20
-99.8832019999999972
11
183.4610140000000058
21
-100.0241800000000012
0
LINE
8
BLACK
6
CONTINUOUS
10
183.4610140000000058
20
-100.0241800000000012
11
183.4619270000000029
21
-100.1887529999999913
0
LINE
8
BLACK
6
CONTINUOUS
10
183.4619270000000029
20
-100.1887529999999913
11
183.4625020000000006
21
-100.3058350000000019
0
LINE
8
BLACK
6
CONTINUOUS
10
183.4625020000000006
20
-100.3058350000000019
11
183.4667999999999779
21
-101.2120159999999913
0
LINE
8
BLACK
6
CONTINUOUS
10
183.4667999999999779
20
-101.2120159999999913
11
183.2910919999999919
21
-101.2120159999999913
0
LINE
8
BLACK
6
CONTINUOUS
10
183.2910919999999919
20
-101.2120159999999913
11
183.1153839999999775
21
-101.2120159999999913
0
LINE
8
BLACK
6
CONTINUOUS
10
183.1153839999999775
20
-101.2120159999999913
11
183.1149680000000046
21
-100.4338459999999884
0
LINE
8
BLACK
6
CONTINUOUS
10
183.1149680000000046
20
-100.4338459999999884
11
183.1146689999999921
21
-100.2881160000000023
0
LINE
8
BLACK
6
CONTINUOUS
10
183.1146689999999921
20
-100.2881160000000023
11
183.1139579999999967
21
-100.1478180000000009
0
LINE
8
BLACK
6
CONTINUOUS
10
183.1139579999999967
20
-100.1478180000000009
11
183.1128769999999975
21
-100.0157449999999955
0
LINE
8
BLACK
6
CONTINUOUS
10
183.1128769999999975
20
-100.0157449999999955
11
183.1114689999999996
21
-99.8946899999999971
0
LINE
8
BLACK
6
CONTINUOUS
10
183.1114689999999996
20
-99.8946899999999971
11
183.1097749999999849
21
-99.7874449999999911
0
LINE
8
BLACK
6
CONTINUOUS
10
183.1097749999999849
20
-99.7874449999999911
11
183.1078379999999868
21
-99.6968040000000002
0
LINE
8
BLACK
6
CONTINUOUS
10
183.1078379999999868
20
-99.6968040000000002
11
183.1056989999999871
21
-99.625559999999993
0
LINE
8
BLACK
6
CONTINUOUS
10
183.1056989999999871
20
-99.625559999999993
11
183.1034019999999884
21
-99.5765059999999949
0
LINE
8
BLACK
6
CONTINUOUS
10
183.1034019999999884
20
-99.5765059999999949
11
183.1017129999999895
21
-99.5567889999999949
0
LINE
8
BLACK
6
CONTINUOUS
10
183.1017129999999895
20
-99.5567889999999949
11
183.0832099999999798
21
-99.4585549999999898
0
LINE
8
BLACK
6
CONTINUOUS
10
183.0832099999999798
20
-99.4585549999999898
11
183.0539819999999906
21
-99.3746649999999931
0
LINE
8
BLACK
6
CONTINUOUS
10
183.0539819999999906
20
-99.3746649999999931
11
183.0122779999999807
21
-99.3041939999999954
0
LINE
8
BLACK
6
CONTINUOUS
10
183.0122779999999807
20
-99.3041939999999954
11
182.956341999999978
21
-99.2462159999999898
0
LINE
8
BLACK
6
CONTINUOUS
10
182.956341999999978
20
-99.2462159999999898
11
182.8844210000000032
21
-99.1998059999999953
0
LINE
8
BLACK
6
CONTINUOUS
10
182.8844210000000032
20
-99.1998059999999953
11
182.7947609999999941
21
-99.1640390000000025
0
LINE
8
BLACK
6
CONTINUOUS
10
182.7947609999999941
20
-99.1640390000000025
11
182.6856089999999995
21
-99.1379879999999929
0
LINE
8
BLACK
6
CONTINUOUS
10
182.6856089999999995
20
-99.1379879999999929
11
182.5552109999999857
21
-99.1207289999999972
0
LINE
8
BLACK
6
CONTINUOUS
10
182.5552109999999857
20
-99.1207289999999972
11
182.4018130000000042
21
-99.1113369999999918
0
LINE
8
BLACK
6
CONTINUOUS
10
182.4018130000000042
20
-99.1113369999999918
11
182.2528250000000014
21
-99.1088479999999947
0
LINE
8
BLACK
6
CONTINUOUS
10
182.2528250000000014
20
-99.1088479999999947
11
182.0507439999999804
21
-99.1131850000000014
0
LINE
8
BLACK
6
CONTINUOUS
10
182.0507439999999804
20
-99.1131850000000014
11
181.8727869999999882
21
-99.1270990000000012
0
LINE
8
BLACK
6
CONTINUOUS
10
181.8727869999999882
20
-99.1270990000000012
11
181.7176779999999781
21
-99.1511619999999994
0
LINE
8
BLACK
6
CONTINUOUS
10
181.7176779999999781
20
-99.1511619999999994
11
181.5841399999999908
21
-99.1859429999999946
0
LINE
8
BLACK
6
CONTINUOUS
10
181.5841399999999908
20
-99.1859429999999946
11
181.4708980000000054
21
-99.2320119999999974
0
LINE
8
BLACK
6
CONTINUOUS
10
181.4708980000000054
20
-99.2320119999999974
11
181.3766770000000008
21
-99.2899389999999897
0
LINE
8
BLACK
6
CONTINUOUS
10
181.3766770000000008
20
-99.2899389999999897
11
181.3001989999999921
21
-99.3602959999999911
0
LINE
8
BLACK
6
CONTINUOUS
10
181.3001989999999921
20
-99.3602959999999911
11
181.2401889999999867
21
-99.4436509999999885
0
LINE
8
BLACK
6
CONTINUOUS
10
181.2401889999999867
20
-99.4436509999999885
11
181.1953709999999944
21
-99.5405760000000015
0
LINE
8
BLACK
6
CONTINUOUS
10
181.1953709999999944
20
-99.5405760000000015
11
181.1799539999999809
21
-99.5883019999999988
0
LINE
8
BLACK
6
CONTINUOUS
10
181.1799539999999809
20
-99.5883019999999988
11
181.1749419999999873
21
-99.6082699999999903
0
LINE
8
BLACK
6
CONTINUOUS
10
181.1749419999999873
20
-99.6082699999999903
11
181.170646000000005
21
-99.6319850000000002
0
LINE
8
BLACK
6
CONTINUOUS
10
181.170646000000005
20
-99.6319850000000002
11
181.1669909999999959
21
-99.6616980000000012
0
LINE
8
BLACK
6
CONTINUOUS
10
181.1669909999999959
20
-99.6616980000000012
11
181.1639009999999814
21
-99.699657000000002
0
LINE
8
BLACK
6
CONTINUOUS
10
181.1639009999999814
20
-99.699657000000002
11
181.1613019999999779
21
-99.7481119999999919
0
LINE
8
BLACK
6
CONTINUOUS
10
181.1613019999999779
20
-99.7481119999999919
11
181.1591169999999806
21
-99.8093119999999914
0
LINE
8
BLACK
6
CONTINUOUS
10
181.1591169999999806
20
-99.8093119999999914
11
181.1572719999999777
21
-99.8855049999999949
0
LINE
8
BLACK
6
CONTINUOUS
10
181.1572719999999777
20
-99.8855049999999949
11
181.1556899999999928
21
-99.978943000000001
0
LINE
8
BLACK
6
CONTINUOUS
10
181.1556899999999928
20
-99.978943000000001
11
181.1542969999999855
21
-100.0918719999999951
0
LINE
8
BLACK
6
CONTINUOUS
10
181.1542969999999855
20
-100.0918719999999951
11
181.1530159999999796
21
-100.2265429999999924
0
LINE
8
BLACK
6
CONTINUOUS
10
181.1530159999999796
20
-100.2265429999999924
11
181.1517729999999915
21
-100.3852059999999966
0
LINE
8
BLACK
6
CONTINUOUS
10
181.1517729999999915
20
-100.3852059999999966
11
181.1513769999999965
21
-100.4405829999999895
0
LINE
8
BLACK
6
CONTINUOUS
10
181.1513769999999965
20
-100.4405829999999895
11
181.1459499999999991
21
-101.2120159999999913
0
LINE
8
BLACK
6
CONTINUOUS
10
181.1459499999999991
20
-101.2120159999999913
11
180.9718340000000012
21
-101.2120159999999913
0
LINE
8
BLACK
6
CONTINUOUS
10
180.9718340000000012
20
-101.2120159999999913
11
180.7977180000000033
21
-101.2120159999999913
0
LINE
8
BLACK
6
CONTINUOUS
10
180.7977180000000033
20
-101.2120159999999913
11
180.797302000000002
21
-100.4338459999999884
0
LINE
8
BLACK
6
CONTINUOUS
10
180.797302000000002
20
-100.4338459999999884
11
180.7970029999999895
21
-100.2881160000000023
0
LINE
8
BLACK
6
CONTINUOUS
10
180.7970029999999895
20
-100.2881160000000023
11
180.796291999999994
21
-100.1478180000000009
0
LINE
8
BLACK
6
CONTINUOUS
10
180.796291999999994
20
-100.1478180000000009
11
180.7952109999999948
21
-100.0157449999999955
0
LINE
8
BLACK
6
CONTINUOUS
10
180.7952109999999948
20
-100.0157449999999955
11
180.7938029999999969
21
-99.8946899999999971
0
LINE
8
BLACK
6
CONTINUOUS
10
180.7938029999999969
20
-99.8946899999999971
11
180.7921089999999822
21
-99.7874449999999911
0
LINE
8
BLACK
6
CONTINUOUS
10
180.7921089999999822
20
-99.7874449999999911
11
180.7901719999999841
21
-99.6968040000000002
0
LINE
8
BLACK
6
CONTINUOUS
10
180.7901719999999841
20
-99.6968040000000002
11
180.7880339999999819
21
-99.625559999999993
0
LINE
8
BLACK
6
CONTINUOUS
10
180.7880339999999819
20
-99.625559999999993
11
180.7857369999999833
21
-99.5765059999999949
0
LINE
8
BLACK
6
CONTINUOUS
10
180.7857369999999833
20
-99.5765059999999949
11
180.7840469999999868
21
-99.5567889999999949
0
LINE
8
BLACK
6
CONTINUOUS
10
180.7840469999999868
20
-99.5567889999999949
11
180.7658199999999908
21
-99.4592919999999907
0
LINE
8
BLACK
6
CONTINUOUS
10
180.7658199999999908
20
-99.4592919999999907
11
180.7371959999999831
21
-99.3759620000000012
0
LINE
8
BLACK
6
CONTINUOUS
10
180.7371959999999831
20
-99.3759620000000012
11
180.6964109999999835
21
-99.3058809999999994
0
LINE
8
BLACK
6
CONTINUOUS
10
180.6964109999999835
20
-99.3058809999999994
11
180.641697999999991
21
-99.2481329999999957
0
LINE
8
BLACK
6
CONTINUOUS
10
180.641697999999991
20
-99.2481329999999957
11
180.5712900000000047
21
-99.201800999999989
0
LINE
8
BLACK
6
CONTINUOUS
10
180.5712900000000047
20
-99.201800999999989
11
180.4834229999999877
21
-99.1659689999999898
0
LINE
8
BLACK
6
CONTINUOUS
10
180.4834229999999877
20
-99.1659689999999898
11
180.3763289999999984
21
-99.1397209999999944
0
LINE
8
BLACK
6
CONTINUOUS
10
180.3763289999999984
20
-99.1397209999999944
11
180.2482420000000047
21
-99.12213899999999
0
LINE
8
BLACK
6
CONTINUOUS
10
180.2482420000000047
20
-99.12213899999999
11
180.0973970000000008
21
-99.1123059999999896
0
LINE
8
BLACK
6
CONTINUOUS
10
180.0973970000000008
20
-99.1123059999999896
11
179.9220279999999832
21
-99.1093079999999986
0
LINE
8
BLACK
6
CONTINUOUS
10
179.9220279999999832
20
-99.1093079999999986
11
179.9218559999999911
21
-99.1093079999999986
0
LINE
8
BLACK
6
CONTINUOUS
10
179.9218559999999911
20
-99.1093079999999986
11
179.7707340000000045
21
-99.1111219999999946
0
LINE
8
BLACK
6
CONTINUOUS
10
179.7707340000000045
20
-99.1111219999999946
11
179.6418339999999887
21
-99.1167059999999935
0
LINE
8
BLACK
6
CONTINUOUS
10
179.6418339999999887
20
-99.1167059999999935
11
179.5306249999999864
21
-99.1265799999999899
0
LINE
8
BLACK
6
CONTINUOUS
10
179.5306249999999864
20
-99.1265799999999899
11
179.4325769999999807
21
-99.14126499999999
0
LINE
8
BLACK
6
CONTINUOUS
10
179.4325769999999807
20
-99.14126499999999
11
179.3431579999999883
21
-99.1612810000000025
0
LINE
8
BLACK
6
CONTINUOUS
10
179.3431579999999883
20
-99.1612810000000025
11
179.2649389999999983
21
-99.1847439999999949
0
LINE
8
BLACK
6
CONTINUOUS
10
179.2649389999999983
20
-99.1847439999999949
11
179.146302999999989
21
-99.233081999999996
0
LINE
8
BLACK
6
CONTINUOUS
10
179.146302999999989
20
-99.233081999999996
11
179.0502459999999871
21
-99.2922209999999978
0
LINE
8
BLACK
6
CONTINUOUS
10
179.0502459999999871
20
-99.2922209999999978
11
178.9735409999999831
21
-99.3651839999999993
0
LINE
8
BLACK
6
CONTINUOUS
10
178.9735409999999831
20
-99.3651839999999993
11
178.9129629999999906
21
-99.4549979999999891
0
LINE
8
BLACK
6
CONTINUOUS
10
178.9129629999999906
20
-99.4549979999999891
11
178.8680459999999925
21
-99.5569229999999976
0
LINE
8
BLACK
6
CONTINUOUS
10
178.8680459999999925
20
-99.5569229999999976
11
178.861581000000001
21
-99.5753219999999999
0
LINE
8
BLACK
6
CONTINUOUS
10
178.861581000000001
20
-99.5753219999999999
11
178.8560799999999915
21
-99.5932979999999901
0
LINE
8
BLACK
6
CONTINUOUS
10
178.8560799999999915
20
-99.5932979999999901
11
178.8514519999999948
21
-99.6131170000000026
0
LINE
8
BLACK
6
CONTINUOUS
10
178.8514519999999948
20
-99.6131170000000026
11
178.8476059999999848
21
-99.6370399999999989
0
LINE
8
BLACK
6
CONTINUOUS
10
178.8476059999999848
20
-99.6370399999999989
11
178.8444499999999948
21
-99.6673320000000018
0
LINE
8
BLACK
6
CONTINUOUS
10
178.8444499999999948
20
-99.6673320000000018
11
178.8418949999999938
21
-99.7062549999999987
0
LINE
8
BLACK
6
CONTINUOUS
10
178.8418949999999938
20
-99.7062549999999987
11
178.8398479999999893
21
-99.756071999999989
0
LINE
8
BLACK
6
CONTINUOUS
10
178.8398479999999893
20
-99.756071999999989
11
178.838218999999981
21
-99.8190469999999976
0
LINE
8
BLACK
6
CONTINUOUS
10
178.838218999999981
20
-99.8190469999999976
11
178.8369169999999997
21
-99.8974429999999955
0
LINE
8
BLACK
6
CONTINUOUS
10
178.8369169999999997
20
-99.8974429999999955
11
178.835850999999991
21
-99.9935229999999962
0
LINE
8
BLACK
6
CONTINUOUS
10
178.835850999999991
20
-99.9935229999999962
11
178.8349299999999857
21
-100.1095499999999987
0
LINE
8
BLACK
6
CONTINUOUS
10
178.8349299999999857
20
-100.1095499999999987
11
178.8340629999999862
21
-100.2477879999999999
0
LINE
8
BLACK
6
CONTINUOUS
10
178.8340629999999862
20
-100.2477879999999999
11
178.8331589999999949
21
-100.4104990000000015
0
LINE
8
BLACK
6
CONTINUOUS
10
178.8331589999999949
20
-100.4104990000000015
11
178.8330689999999947
21
-100.4271090000000015
0
LINE
8
BLACK
6
CONTINUOUS
10
178.8330689999999947
20
-100.4271090000000015
11
178.8288189999999815
21
-101.2120159999999913
0
LINE
8
BLACK
6
CONTINUOUS
10
178.8288189999999815
20
-101.2120159999999913
11
178.654436000000004
21
-101.2120159999999913
0
LINE
8
BLACK
6
CONTINUOUS
10
178.654436000000004
20
-101.2120159999999913
11
178.4800529999999981
21
-101.2120159999999913
0
LINE
8
BLACK
6
CONTINUOUS
10
178.4800529999999981
20
-101.2120159999999913
11
178.4800529999999981
21
-100.0262329999999906
0
LINE
8
BLACK
6
CONTINUOUS
10
178.4800529999999981
20
-100.0262329999999906
11
178.4800529999999981
21
-98.8404510000000016
0
LINE
8
BLACK
6
CONTINUOUS
10
178.4800529999999981
20
-98.8404510000000016
11
178.6552250000000015
21
-98.8404510000000016
0
LINE
8
BLACK
6
CONTINUOUS
10
178.6552250000000015
20
-98.8404510000000016
11
178.8303970000000049
21
-98.8404510000000016
0
LINE
8
BLACK
6
CONTINUOUS
10
178.8303970000000049
20
-98.8404510000000016
11
178.8303970000000049
21
-99.057857999999996
0
LINE
8
BLACK
6
CONTINUOUS
10
178.8303970000000049
20
-99.057857999999996
11
178.8303970000000049
21
-99.2752649999999903
0
LINE
8
BLACK
6
CONTINUOUS
10
178.8303970000000049
20
-99.2752649999999903
11
178.8774970000000053
21
-99.1811179999999979
0
LINE
8
BLACK
6
CONTINUOUS
10
178.8774970000000053
20
-99.1811179999999979
11
178.9346400000000017
21
-99.0863349999999912
0
LINE
8
BLACK
6
CONTINUOUS
10
178.9346400000000017
20
-99.0863349999999912
11
179.0043759999999793
21
-99.0074860000000001
0
LINE
8
BLACK
6
CONTINUOUS
10
179.0043759999999793
20
-99.0074860000000001
11
179.0889990000000012
21
-98.9433219999999949
0
LINE
8
BLACK
6
CONTINUOUS
10
179.0889990000000012
20
-98.9433219999999949
11
179.1908029999999883
21
-98.892595
0
LINE
8
BLACK
6
CONTINUOUS
10
179.1908029999999883
20
-98.892595
11
179.3120820000000037
21
-98.8540559999999999
0
LINE
8
BLACK
6
CONTINUOUS
10
179.3120820000000037
20
-98.8540559999999999
11
179.4551309999999944
21
-98.8264580000000024
0
LINE
8
BLACK
6
CONTINUOUS
10
179.4551309999999944
20
-98.8264580000000024
11
179.5507439999999804
21
-98.8147929999999945
0
LINE
8
BLACK
6
CONTINUOUS
10
179.5507439999999804
20
-98.8147929999999945
11
179.6266569999999945
21
-98.8090040000000016
0
LINE
8
BLACK
6
CONTINUOUS
10
179.6266569999999945
20
-98.8090040000000016
11
179.7206249999999841
21
-98.8047059999999959
0
LINE
8
BLACK
6
CONTINUOUS
10
179.7206249999999841
20
-98.8047059999999959
11
179.8267219999999895
21
-98.8019039999999933
0
LINE
8
BLACK
6
CONTINUOUS
10
179.8267219999999895
20
-98.8019039999999933
11
179.9390219999999943
21
-98.8006039999999928
0
LINE
8
BLACK
6
CONTINUOUS
10
179.9390219999999943
20
-98.8006039999999928
11
180.0515989999999817
21
-98.8008109999999959
0
LINE
8
BLACK
6
CONTINUOUS
10
196.1973299999999938
20
-98.8343989999999906
11
196.3198109999999872
21
-98.8352229999999992
0
LINE
8
BLACK
6
CONTINUOUS
10
196.3198109999999872
20
-98.8352229999999992
11
196.4219279999999799
21
-98.8366609999999923
0
LINE
8
BLACK
6
CONTINUOUS
10
196.4219279999999799
20
-98.8366609999999923
11
196.5069739999999854
21
-98.8388229999999908
0
LINE
8
BLACK
6
CONTINUOUS
10
196.5069739999999854
20
-98.8388229999999908
11
196.5782379999999989
21
-98.8418209999999959
0
LINE
8
BLACK
6
CONTINUOUS
10
196.5782379999999989
20
-98.8418209999999959
11
196.6390140000000031
21
-98.8457659999999976
0
LINE
8
BLACK
6
CONTINUOUS
10
196.6390140000000031
20
-98.8457659999999976
11
196.6925919999999905
21
-98.8507680000000022
0
LINE
8
BLACK
6
CONTINUOUS
10
196.6925919999999905
20
-98.8507680000000022
11
196.7422639999999774
21
-98.856938999999997
0
LINE
8
BLACK
6
CONTINUOUS
10
196.7422639999999774
20
-98.856938999999997
11
196.7466560000000015
21
-98.8575560000000024
0
LINE
8
BLACK
6
CONTINUOUS
10
196.7466560000000015
20
-98.8575560000000024
11
196.9099459999999908
21
-98.8857179999999971
0
LINE
8
BLACK
6
CONTINUOUS
10
196.9099459999999908
20
-98.8857179999999971
11
197.0498120000000029
21
-98.9211129999999912
0
LINE
8
BLACK
6
CONTINUOUS
10
197.0498120000000029
20
-98.9211129999999912
11
197.1690779999999847
21
-98.9648689999999931
0
LINE
8
BLACK
6
CONTINUOUS
10
197.1690779999999847
20
-98.9648689999999931
11
197.2705689999999947
21
-99.018109999999993
0
LINE
8
BLACK
6
CONTINUOUS
10
197.2705689999999947
20
-99.018109999999993
11
197.3571089999999799
21
-99.0819630000000018
0
LINE
8
BLACK
6
CONTINUOUS
10
197.3571089999999799
20
-99.0819630000000018
11
197.3924459999999783
21
-99.1149789999999911
0
LINE
8
BLACK
6
CONTINUOUS
10
197.3924459999999783
20
-99.1149789999999911
11
197.4502179999999782
21
-99.1804169999999914
0
LINE
8
BLACK
6
CONTINUOUS
10
197.4502179999999782
20
-99.1804169999999914
11
197.4966199999999787
21
-99.2511549999999971
0
LINE
8
BLACK
6
CONTINUOUS
10
197.4966199999999787
20
-99.2511549999999971
11
197.5331539999999961
21
-99.3313550000000021
0
LINE
8
BLACK
6
CONTINUOUS
10
197.5331539999999961
20
-99.3313550000000021
11
197.5613229999999874
21
-99.4251809999999949
0
LINE
8
BLACK
6
CONTINUOUS
10
197.5613229999999874
20
-99.4251809999999949
11
197.5826319999999896
21
-99.5367969999999929
0
LINE
8
BLACK
6
CONTINUOUS
10
197.5826319999999896
20
-99.5367969999999929
11
197.5985819999999933
21
-99.6703660000000013
0
LINE
8
BLACK
6
CONTINUOUS
10
197.5985819999999933
20
-99.6703660000000013
11
197.6004819999999995
21
-99.6911539999999974
0
LINE
8
BLACK
6
CONTINUOUS
10
197.6004819999999995
20
-99.6911539999999974
11
197.6114419999999825
21
-99.86371299999999
0
LINE
8
BLACK
6
CONTINUOUS
10
197.6114419999999825
20
-99.86371299999999
11
197.6144719999999779
21
-100.0382899999999893
0
LINE
8
BLACK
6
CONTINUOUS
10
197.6144719999999779
20
-100.0382899999999893
11
197.6098529999999869
21
-100.209220000000002
0
LINE
8
BLACK
6
CONTINUOUS
10
197.6098529999999869
20
-100.209220000000002
11
197.5978619999999921
21
-100.3708409999999986
0
LINE
8
BLACK
6
CONTINUOUS
10
197.5978619999999921
20
-100.3708409999999986
11
197.5787809999999922
21
-100.5174889999999976
0
LINE
8
BLACK
6
CONTINUOUS
10
197.5787809999999922
20
-100.5174889999999976
11
197.5536809999999832
21
-100.6403869999999898
0
LINE
8
BLACK
6
CONTINUOUS
10
197.5536809999999832
20
-100.6403869999999898
11
197.5157909999999788
21
-100.763458
0
LINE
8
BLACK
6
CONTINUOUS
10
197.5157909999999788
20
-100.763458
11
197.4685819999999978
21
-100.8646799999999928
0
LINE
8
BLACK
6
CONTINUOUS
10
197.4685819999999978
20
-100.8646799999999928
11
197.4087309999999889
21
-100.9484769999999969
0
LINE
8
BLACK
6
CONTINUOUS
10
197.4087309999999889
20
-100.9484769999999969
11
197.3329139999999882
21
-101.0192739999999958
0
LINE
8
BLACK
6
CONTINUOUS
10
197.3329139999999882
20
-101.0192739999999958
11
197.2378059999999778
21
-101.0814960000000013
0
LINE
8
BLACK
6
CONTINUOUS
10
197.2378059999999778
20
-101.0814960000000013
11
197.2116669999999772
21
-101.0956839999999914
0
LINE
8
BLACK
6
CONTINUOUS
10
197.2116669999999772
20
-101.0956839999999914
11
197.148381999999998
21
-101.1260819999999967
0
LINE
8
BLACK
6
CONTINUOUS
10
197.148381999999998
20
-101.1260819999999967
11
197.0810529999999972
21
-101.1522499999999951
0
LINE
8
BLACK
6
CONTINUOUS
10
197.0810529999999972
20
-101.1522499999999951
11
197.0072739999999953
21
-101.1744860000000017
0
LINE
8
BLACK
6
CONTINUOUS
10
197.0072739999999953
20
-101.1744860000000017
11
196.9246399999999824
21
-101.1930919999999929
0
LINE
8
BLACK
6
CONTINUOUS
10
196.9246399999999824
20
-101.1930919999999929
11
196.830744999999979
21
-101.2083659999999981
0
LINE
8
BLACK
6
CONTINUOUS
10
196.830744999999979
20
-101.2083659999999981
11
196.7231840000000034
21
-101.2206079999999986
0
LINE
8
BLACK
6
CONTINUOUS
10
196.7231840000000034
20
-101.2206079999999986
11
196.5995509999999911
21
-101.230119000000002
0
LINE
8
BLACK
6
CONTINUOUS
10
196.5995509999999911
20
-101.230119000000002
11
196.4574409999999887
21
-101.2371989999999897
0
LINE
8
BLACK
6
CONTINUOUS
10
196.4574409999999887
20
-101.2371989999999897
11
196.294446999999991
21
-101.2421459999999911
0
LINE
8
BLACK
6
CONTINUOUS
10
196.294446999999991
20
-101.2421459999999911
11
196.1081639999999879
21
-101.2452619999999968
0
LINE
8
BLACK
6
CONTINUOUS
10
196.1081639999999879
20
-101.2452619999999968
11
196.0040309999999977
21
-101.2462379999999911
0
LINE
8
BLACK
6
CONTINUOUS
10
196.0040309999999977
20
-101.2462379999999911
11
195.8790630000000021
21
-101.2468379999999968
0
LINE
8
BLACK
6
CONTINUOUS
10
195.8790630000000021
20
-101.2468379999999968
11
195.7578739999999868
21
-101.2468179999999904
0
LINE
8
BLACK
6
CONTINUOUS
10
195.7578739999999868
20
-101.2468179999999904
11
195.6441679999999792
21
-101.2462209999999914
0
LINE
8
BLACK
6
CONTINUOUS
10
195.6441679999999792
20
-101.2462209999999914
11
195.5416479999999808
21
-101.2450910000000022
0
LINE
8
BLACK
6
CONTINUOUS
10
195.5416479999999808
20
-101.2450910000000022
11
195.4540169999999932
21
-101.243471999999997
0
LINE
8
BLACK
6
CONTINUOUS
10
195.4540169999999932
20
-101.243471999999997
11
195.3849779999999896
21
-101.2414089999999902
0
LINE
8
BLACK
6
CONTINUOUS
10
195.3849779999999896
20
-101.2414089999999902
11
195.3382349999999974
21
-101.2389439999999894
0
LINE
8
BLACK
6
CONTINUOUS
10
195.3382349999999974
20
-101.2389439999999894
11
195.3302909999999883
21
-101.2382530000000003
0
LINE
8
BLACK
6
CONTINUOUS
10
195.3302909999999883
20
-101.2382530000000003
11
195.2605489999999975
21
-101.2298249999999911
0
LINE
8
BLACK
6
CONTINUOUS
10
195.2605489999999975
20
-101.2298249999999911
11
195.1784710000000018
21
-101.2176729999999907
0
LINE
8
BLACK
6
CONTINUOUS
10
195.1784710000000018
20
-101.2176729999999907
11
195.0980260000000044
21
-101.2039279999999906
0
LINE
8
BLACK
6
CONTINUOUS
10
195.0980260000000044
20
-101.2039279999999906
11
195.0696849999999927
21
-101.1985099999999989
0
LINE
8
BLACK
6
CONTINUOUS
10
195.0696849999999927
20
-101.1985099999999989
11
194.9184799999999882
21
-101.1608540000000005
0
LINE
8
BLACK
6
CONTINUOUS
10
194.9184799999999882
20
-101.1608540000000005
11
194.7904029999999977
21
-101.111582999999996
0
LINE
8
BLACK
6
CONTINUOUS
10
194.7904029999999977
20
-101.111582999999996
11
194.6834460000000036
21
-101.0488050000000015
0
LINE
8
BLACK
6
CONTINUOUS
10
194.6834460000000036
20
-101.0488050000000015
11
194.5956029999999828
21
-100.9706259999999958
0
LINE
8
BLACK
6
CONTINUOUS
10
194.5956029999999828
20
-100.9706259999999958
11
194.524864999999977
21
-100.8751539999999949
0
LINE
8
BLACK
6
CONTINUOUS
10
194.524864999999977
20
-100.8751539999999949
11
194.4692259999999919
21
-100.7604939999999942
0
LINE
8
BLACK
6
CONTINUOUS
10
194.4692259999999919
20
-100.7604939999999942
11
194.4266789999999787
21
-100.6247539999999958
0
LINE
8
BLACK
6
CONTINUOUS
10
194.4266789999999787
20
-100.6247539999999958
11
194.4168589999999881
21
-100.5828070000000025
0
LINE
8
BLACK
6
CONTINUOUS
10
194.4168589999999881
20
-100.5828070000000025
11
194.4084849999999847
21
-100.5424340000000001
0
LINE
8
BLACK
6
CONTINUOUS
10
194.4084849999999847
20
-100.5424340000000001
11
194.4018820000000005
21
-100.5037829999999985
0
LINE
8
BLACK
6
CONTINUOUS
10
194.4018820000000005
20
-100.5037829999999985
11
194.3968449999999848
21
-100.4629829999999941
0
LINE
8
BLACK
6
CONTINUOUS
10
194.3968449999999848
20
-100.4629829999999941
11
194.393164999999982
21
-100.4161619999999999
0
LINE
8
BLACK
6
CONTINUOUS
10
194.393164999999982
20
-100.4161619999999999
11
194.3906369999999981
21
-100.3594499999999954
0
LINE
8
BLACK
6
CONTINUOUS
10
194.3906369999999981
20
-100.3594499999999954
11
194.3890549999999848
21
-100.288975999999991
0
LINE
8
BLACK
6
CONTINUOUS
10
194.3890549999999848
20
-100.288975999999991
11
194.3882109999999841
21
-100.2008670000000023
0
LINE
8
BLACK
6
CONTINUOUS
10
194.3882109999999841
20
-100.2008670000000023
11
194.3878979999999785
21
-100.0912529999999947
0
LINE
8
BLACK
6
CONTINUOUS
10
194.3878979999999785
20
-100.0912529999999947
11
194.3878789999999981
21
-100.0464459999999889
0
LINE
8
BLACK
6
CONTINUOUS
10
194.3878789999999981
20
-100.0464459999999889
11
195.0545919999999853
21
-100.0464459999999889
0
LINE
8
BLACK
6
CONTINUOUS
10
195.0545919999999853
20
-100.0464459999999889
11
195.0585710000000006
21
-100.1989069999999913
0
LINE
8
BLACK
6
CONTINUOUS
10
195.0585710000000006
20
-100.1989069999999913
11
195.0716029999999819
21
-100.3275379999999899
0
LINE
8
BLACK
6
CONTINUOUS
10
195.0716029999999819
20
-100.3275379999999899
11
195.095326
21
-100.4344179999999938
0
LINE
8
BLACK
6
CONTINUOUS
10
195.095326
20
-100.4344179999999938
11
195.1313799999999787
21
-100.5216259999999977
0
LINE
8
BLACK
6
CONTINUOUS
10
195.1313799999999787
20
-100.5216259999999977
11
195.1814039999999864
21
-100.5912419999999941
0
LINE
8
BLACK
6
CONTINUOUS
10
195.1814039999999864
20
-100.5912419999999941
11
195.2470380000000034
21
-100.6453459999999893
0
LINE
8
BLACK
6
CONTINUOUS
10
195.2470380000000034
20
-100.6453459999999893
11
195.3299209999999846
21
-100.6860169999999925
0
LINE
8
BLACK
6
CONTINUOUS
10
195.3299209999999846
20
-100.6860169999999925
11
195.4316929999999957
21
-100.7153339999999986
0
LINE
8
BLACK
6
CONTINUOUS
10
195.4316929999999957
20
-100.7153339999999986
11
195.5539929999999913
21
-100.7353779999999972
0
LINE
8
BLACK
6
CONTINUOUS
10
195.5539929999999913
20
-100.7353779999999972
11
195.6018259999999884
21
-100.7405749999999927
0
LINE
8
BLACK
6
CONTINUOUS
10
195.6018259999999884
20
-100.7405749999999927
11
195.6565169999999796
21
-100.7440699999999936
0
LINE
8
BLACK
6
CONTINUOUS
10
195.6565169999999796
20
-100.7440699999999936
11
195.7319980000000044
21
-100.7463189999999997
0
LINE
8
BLACK
6
CONTINUOUS
10
195.7319980000000044
20
-100.7463189999999997
11
195.8231779999999844
21
-100.7473990000000015
0
LINE
8
BLACK
6
CONTINUOUS
10
195.8231779999999844
20
-100.7473990000000015
11
195.924964999999986
21
-100.7473899999999958
0
LINE
8
BLACK
6
CONTINUOUS
10
195.924964999999986
20
-100.7473899999999958
11
196.0322679999999878
21
-100.7463699999999989
0
LINE
8
BLACK
6
CONTINUOUS
10
196.0322679999999878
20
-100.7463699999999989
11
196.1399959999999965
21
-100.7444169999999986
0
LINE
8
BLACK
6
CONTINUOUS
10
196.1399959999999965
20
-100.7444169999999986
11
196.2430569999999932
21
-100.7416109999999918
0
LINE
8
BLACK
6
CONTINUOUS
10
196.2430569999999932
20
-100.7416109999999918
11
196.3363609999999824
21
-100.7380289999999974
0
LINE
8
BLACK
6
CONTINUOUS
10
196.3363609999999824
20
-100.7380289999999974
11
196.4148160000000018
21
-100.733750999999998
0
LINE
8
BLACK
6
CONTINUOUS
10
196.4148160000000018
20
-100.733750999999998
11
196.4733300000000042
21
-100.7288549999999958
0
LINE
8
BLACK
6
CONTINUOUS
10
196.4733300000000042
20
-100.7288549999999958
11
196.4891240000000039
21
-100.7268720000000002
0
LINE
8
BLACK
6
CONTINUOUS
10
196.4891240000000039
20
-100.7268720000000002
11
196.6084249999999827
21
-100.7030429999999939
0
LINE
8
BLACK
6
CONTINUOUS
10
196.6084249999999827
20
-100.7030429999999939
11
196.7048350000000028
21
-100.6682670000000002
0
LINE
8
BLACK
6
CONTINUOUS
10
196.7048350000000028
20
-100.6682670000000002
11
196.7809469999999976
21
-100.6203699999999941
0
LINE
8
BLACK
6
CONTINUOUS
10
196.7809469999999976
20
-100.6203699999999941
11
196.839351999999991
21
-100.5571800000000025
0
LINE
8
BLACK
6
CONTINUOUS
10
196.839351999999991
20
-100.5571800000000025
11
196.8826420000000041
21
-100.4765219999999886
0
LINE
8
BLACK
6
CONTINUOUS
10
196.8826420000000041
20
-100.4765219999999886
11
196.9134069999999781
21
-100.376222999999996
0
LINE
8
BLACK
6
CONTINUOUS
10
196.9134069999999781
20
-100.376222999999996
11
196.9148429999999905
21
-100.3698409999999939
0
LINE
8
BLACK
6
CONTINUOUS
10
196.9148429999999905
20
-100.3698409999999939
11
196.9224219999999832
21
-100.3186129999999991
0
LINE
8
BLACK
6
CONTINUOUS
10
196.9224219999999832
20
-100.3186129999999991
11
196.9279609999999821
21
-100.2468789999999927
0
LINE
8
BLACK
6
CONTINUOUS
10
196.9279609999999821
20
-100.2468789999999927
11
196.9314530000000047
21
-100.1610029999999938
0
LINE
8
BLACK
6
CONTINUOUS
10
196.9314530000000047
20
-100.1610029999999938
11
196.9328909999999837
21
-100.0673510000000022
0
LINE
8
BLACK
6
CONTINUOUS
10
196.9328909999999837
20
-100.0673510000000022
11
196.9322679999999934
21
-99.972290000000001
0
LINE
8
BLACK
6
CONTINUOUS
10
196.9322679999999934
20
-99.972290000000001
11
196.9295779999999922
21
-99.8821849999999927
0
LINE
8
BLACK
6
CONTINUOUS
10
196.9295779999999922
20
-99.8821849999999927
11
196.9248130000000003
21
-99.8034009999999938
0
LINE
8
BLACK
6
CONTINUOUS
10
196.9248130000000003
20
-99.8034009999999938
11
196.9179659999999785
21
-99.7423050000000018
0
LINE
8
BLACK
6
CONTINUOUS
10
196.9179659999999785
20
-99.7423050000000018
11
196.9155419999999879
21
-99.7285579999999925
0
LINE
8
BLACK
6
CONTINUOUS
10
196.9155419999999879
20
-99.7285579999999925
11
196.8848610000000008
21
-99.6187520000000006
0
LINE
8
BLACK
6
CONTINUOUS
10
196.8848610000000008
20
-99.6187520000000006
11
196.8401360000000011
21
-99.5308399999999978
0
LINE
8
BLACK
6
CONTINUOUS
10
196.8401360000000011
20
-99.5308399999999978
11
196.7798359999999889
21
-99.4628479999999939
0
LINE
8
BLACK
6
CONTINUOUS
10
196.7798359999999889
20
-99.4628479999999939
11
196.70243099999999
21
-99.4128039999999942
0
LINE
8
BLACK
6
CONTINUOUS
10
196.70243099999999
20
-99.4128039999999942
11
196.6557059999999808
21
-99.393495999999999
0
LINE
8
BLACK
6
CONTINUOUS
10
196.6557059999999808
20
-99.393495999999999
11
196.6016989999999964
21
-99.3762369999999891
0
LINE
8
BLACK
6
CONTINUOUS
10
196.6016989999999964
20
-99.3762369999999891
11
196.5462269999999876
21
-99.3625809999999916
0
LINE
8
BLACK
6
CONTINUOUS
10
196.5462269999999876
20
-99.3625809999999916
11
196.4853509999999801
21
-99.3521519999999896
0
LINE
8
BLACK
6
CONTINUOUS
10
196.4853509999999801
20
-99.3521519999999896
11
196.4151300000000049
21
-99.3445729999999969
0
LINE
8
BLACK
6
CONTINUOUS
10
196.4151300000000049
20
-99.3445729999999969
11
196.331626
21
-99.3394660000000016
0
LINE
8
BLACK
6
CONTINUOUS
10
196.331626
20
-99.3394660000000016
11
196.2308960000000013
21
-99.3364559999999983
0
LINE
8
BLACK
6
CONTINUOUS
10
196.2308960000000013
20
-99.3364559999999983
11
196.1090030000000013
21
-99.3351649999999893
0
LINE
8
BLACK
6
CONTINUOUS
10
196.1090030000000013
20
-99.3351649999999893
11
196.0444559999999967
21
-99.3350449999999938
0
LINE
8
BLACK
6
CONTINUOUS
10
196.0444559999999967
20
-99.3350449999999938
11
195.8751519999999857
21
-99.3364499999999992
0
LINE
8
BLACK
6
CONTINUOUS
10
195.8751519999999857
20
-99.3364499999999992
11
195.7302389999999832
21
-99.3408960000000008
0
LINE
8
BLACK
6
CONTINUOUS
10
195.7302389999999832
20
-99.3408960000000008
11
195.6072829999999954
21
-99.3488159999999993
0
LINE
8
BLACK
6
CONTINUOUS
10
195.6072829999999954
20
-99.3488159999999993
11
195.5038509999999974
21
-99.3606419999999986
0
LINE
8
BLACK
6
CONTINUOUS
10
195.5038509999999974
20
-99.3606419999999986
11
195.4175109999999904
21
-99.3768069999999994
0
LINE
8
BLACK
6
CONTINUOUS
10
195.4175109999999904
20
-99.3768069999999994
11
195.3458279999999831
21
-99.3977439999999888
0
LINE
8
BLACK
6
CONTINUOUS
10
195.3458279999999831
20
-99.3977439999999888
11
195.2863710000000026
21
-99.423885999999996
0
LINE
8
BLACK
6
CONTINUOUS
10
195.2863710000000026
20
-99.423885999999996
11
195.2367069999999956
21
-99.4556649999999962
0
LINE
8
BLACK
6
CONTINUOUS
10
195.2367069999999956
20
-99.4556649999999962
11
195.2031549999999811
21
-99.4846900000000005
0
LINE
8
BLACK
6
CONTINUOUS
10
195.2031549999999811
20
-99.4846900000000005
11
195.1537620000000004
21
-99.543137999999999
0
LINE
8
BLACK
6
CONTINUOUS
10
195.1537620000000004
20
-99.543137999999999
11
195.1152899999999875
21
-99.6128549999999962
0
LINE
8
BLACK
6
CONTINUOUS
10
195.1152899999999875
20
-99.6128549999999962
11
195.0869409999999959
21
-99.6968639999999908
0
LINE
8
BLACK
6
CONTINUOUS
10
195.0869409999999959
20
-99.6968639999999908
11
195.0679149999999993
21
-99.7981849999999895
0
LINE
8
BLACK
6
CONTINUOUS
10
195.0679149999999993
20
-99.7981849999999895
11
195.0574149999999918
21
-99.9198389999999961
0
LINE
8
BLACK
6
CONTINUOUS
10
195.0574149999999918
20
-99.9198389999999961
11
195.0545919999999853
21
-100.0464459999999889
0
LINE
8
BLACK
6
CONTINUOUS
10
195.0545919999999853
20
-100.0464459999999889
11
194.3878789999999981
21
-100.0464459999999889
0
LINE
8
BLACK
6
CONTINUOUS
10
194.3878789999999981
20
-100.0464459999999889
11
194.3878759999999772
21
-100.0397079999999903
0
LINE
8
BLACK
6
CONTINUOUS
10
194.3878759999999772
20
-100.0397079999999903
11
194.388024999999999
21
-99.9204819999999927
0
LINE
8
BLACK
6
CONTINUOUS
10
194.388024999999999
20
-99.9204819999999927
11
194.3886139999999898
21
-99.8243149999999986
0
LINE
8
BLACK
6
CONTINUOUS
10
194.3886139999999898
20
-99.8243149999999986
11
194.3898509999999931
21
-99.7473209999999995
0
LINE
8
BLACK
6
CONTINUOUS
10
194.3898509999999931
20
-99.7473209999999995
11
194.3919479999999851
21
-99.6856089999999995
0
LINE
8
BLACK
6
CONTINUOUS
10
194.3919479999999851
20
-99.6856089999999995
11
194.3951150000000041
21
-99.6352919999999926
0
LINE
8
BLACK
6
CONTINUOUS
10
194.3951150000000041
20
-99.6352919999999926
11
194.3995620000000031
21
-99.5924809999999923
0
LINE
8
BLACK
6
CONTINUOUS
10
194.3995620000000031
20
-99.5924809999999923
11
194.4054999999999893
21
-99.5532869999999974
0
LINE
8
BLACK
6
CONTINUOUS
10
194.4054999999999893
20
-99.5532869999999974
11
194.4131380000000036
21
-99.5138230000000021
0
LINE
8
BLACK
6
CONTINUOUS
10
194.4131380000000036
20
-99.5138230000000021
11
194.4173940000000016
21
-99.4939889999999991
0
LINE
8
BLACK
6
CONTINUOUS
10
194.4173940000000016
20
-99.4939889999999991
11
194.4561070000000029
21
-99.3560409999999905
0
LINE
8
BLACK
6
CONTINUOUS
10
194.4561070000000029
20
-99.3560409999999905
11
194.5079059999999913
21
-99.2399669999999929
0
LINE
8
BLACK
6
CONTINUOUS
10
194.5079059999999913
20
-99.2399669999999929
11
194.5747179999999901
21
-99.143109999999993
0
LINE
8
BLACK
6
CONTINUOUS
10
194.5747179999999901
20
-99.143109999999993
11
194.6584709999999916
21
-99.0628139999999888
0
LINE
8
BLACK
6
CONTINUOUS
10
194.6584709999999916
20
-99.0628139999999888
11
194.7610909999999933
21
-98.9964219999999955
0
LINE
8
BLACK
6
CONTINUOUS
10
194.7610909999999933
20
-98.9964219999999955
11
194.7885409999999808
21
-98.9823599999999999
0
LINE
8
BLACK
6
CONTINUOUS
10
194.7885409999999808
20
-98.9823599999999999
11
194.8611729999999795
21
-98.950224999999989
0
LINE
8
BLACK
6
CONTINUOUS
10
194.8611729999999795
20
-98.950224999999989
11
194.9398489999999811
21
-98.9226659999999924
0
LINE
8
BLACK
6
CONTINUOUS
10
194.9398489999999811
20
-98.9226659999999924
11
195.0269030000000043
21
-98.8994089999999915
0
LINE
8
BLACK
6
CONTINUOUS
10
195.0269030000000043
20
-98.8994089999999915
11
195.1246639999999957
21
-98.8801819999999907
0
LINE
8
BLACK
6
CONTINUOUS
10
195.1246639999999957
20
-98.8801819999999907
11
195.2354650000000049
21
-98.8647089999999906
0
LINE
8
BLACK
6
CONTINUOUS
10
195.2354650000000049
20
-98.8647089999999906
11
195.3616360000000043
21
-98.8527179999999959
0
LINE
8
BLACK
6
CONTINUOUS
10
195.3616360000000043
20
-98.8527179999999959
11
195.5055089999999893
21
-98.8439350000000019
0
LINE
8
BLACK
6
CONTINUOUS
10
195.5055089999999893
20
-98.8439350000000019
11
195.6694149999999865
21
-98.8380849999999924
0
LINE
8
BLACK
6
CONTINUOUS
10
195.6694149999999865
20
-98.8380849999999924
11
195.855684999999994
21
-98.8348949999999888
0
LINE
8
BLACK
6
CONTINUOUS
10
195.855684999999994
20
-98.8348949999999888
11
196.0511929999999836
21
-98.834075999999996
0
LINE
8
BLACK
6
CONTINUOUS
10
196.0511929999999836
20
-98.834075999999996
11
196.1973299999999938
21
-98.8343989999999906
0
LINE
8
BLACK
6
CONTINUOUS
10
190.5370810000000006
20
-97.8440679999999929
11
190.7248349999999846
21
-97.8455819999999932
0
LINE
8
BLACK
6
CONTINUOUS
10
190.7248349999999846
20
-97.8455819999999932
11
190.8896769999999776
21
-97.8481929999999949
0
LINE
8
BLACK
6
CONTINUOUS
10
190.8896769999999776
20
-97.8481929999999949
11
191.033614
21
-97.8519709999999918
0
LINE
8
BLACK
6
CONTINUOUS
10
191.033614
20
-97.8519709999999918
11
191.1586570000000052
21
-97.8569880000000012
0
LINE
8
BLACK
6
CONTINUOUS
10
191.1586570000000052
20
-97.8569880000000012
11
191.2668159999999773
21
-97.8633159999999975
0
LINE
8
BLACK
6
CONTINUOUS
10
191.2668159999999773
20
-97.8633159999999975
11
191.3600989999999911
21
-97.8710249999999888
0
LINE
8
BLACK
6
CONTINUOUS
10
191.3600989999999911
20
-97.8710249999999888
11
191.4405169999999998
21
-97.8801879999999898
0
LINE
8
BLACK
6
CONTINUOUS
10
191.4405169999999998
20
-97.8801879999999898
11
191.4697610000000054
21
-97.8843109999999967
0
LINE
8
BLACK
6
CONTINUOUS
10
191.4697610000000054
20
-97.8843109999999967
11
191.6385099999999966
21
-97.91689199999999
0
LINE
8
BLACK
6
CONTINUOUS
10
191.6385099999999966
20
-97.91689199999999
11
191.7846389999999985
21
-97.9616109999999907
0
LINE
8
BLACK
6
CONTINUOUS
10
191.7846389999999985
20
-97.9616109999999907
11
191.9094169999999906
21
-98.0198989999999952
0
LINE
8
BLACK
6
CONTINUOUS
10
191.9094169999999906
20
-98.0198989999999952
11
192.0141169999999988
21
-98.0931899999999928
0
LINE
8
BLACK
6
CONTINUOUS
10
192.0141169999999988
20
-98.0931899999999928
11
192.100009
21
-98.1829169999999891
0
LINE
8
BLACK
6
CONTINUOUS
10
192.100009
20
-98.1829169999999891
11
192.1683639999999968
21
-98.2905140000000017
0
LINE
8
BLACK
6
CONTINUOUS
10
192.1683639999999968
20
-98.2905140000000017
11
192.2204519999999945
21
-98.4174129999999963
0
LINE
8
BLACK
6
CONTINUOUS
10
192.2204519999999945
20
-98.4174129999999963
11
192.2575459999999907
21
-98.5650490000000019
0
LINE
8
BLACK
6
CONTINUOUS
10
192.2575459999999907
20
-98.5650490000000019
11
192.2809169999999881
21
-98.7348519999999894
0
LINE
8
BLACK
6
CONTINUOUS
10
192.2809169999999881
20
-98.7348519999999894
11
192.2864439999999888
21
-98.8051969999999926
0
LINE
8
BLACK
6
CONTINUOUS
10
192.2864439999999888
20
-98.8051969999999926
11
192.295693
21
-98.9482489999999899
0
LINE
8
BLACK
6
CONTINUOUS
10
192.295693
20
-98.9482489999999899
11
191.9114479999999787
21
-98.9482489999999899
0
LINE
8
BLACK
6
CONTINUOUS
10
191.9114479999999787
20
-98.9482489999999899
11
191.5272039999999834
21
-98.9482489999999899
0
LINE
8
BLACK
6
CONTINUOUS
10
191.5272039999999834
20
-98.9482489999999899
11
191.5208099999999831
21
-98.8486099999999936
0
LINE
8
BLACK
6
CONTINUOUS
10
191.5208099999999831
20
-98.8486099999999936
11
191.5033029999999883
21
-98.7438179999999903
0
LINE
8
BLACK
6
CONTINUOUS
10
191.5033029999999883
20
-98.7438179999999903
11
191.465424999999982
21
-98.6565959999999933
0
LINE
8
BLACK
6
CONTINUOUS
10
191.465424999999982
20
-98.6565959999999933
11
191.4072840000000042
21
-98.5870859999999993
0
LINE
8
BLACK
6
CONTINUOUS
10
191.4072840000000042
20
-98.5870859999999993
11
191.3289869999999837
21
-98.5354289999999935
0
LINE
8
BLACK
6
CONTINUOUS
10
191.3289869999999837
20
-98.5354289999999935
11
191.2636939999999868
21
-98.5103950000000026
0
LINE
8
BLACK
6
CONTINUOUS
10
191.2636939999999868
20
-98.5103950000000026
11
191.226776000000001
21
-98.5003329999999977
0
LINE
8
BLACK
6
CONTINUOUS
10
191.226776000000001
20
-98.5003329999999977
11
191.1873999999999967
21
-98.4917219999999958
0
LINE
8
BLACK
6
CONTINUOUS
10
191.1873999999999967
20
-98.4917219999999958
11
191.1433759999999893
21
-98.4844769999999983
0
LINE
8
BLACK
6
CONTINUOUS
10
191.1433759999999893
20
-98.4844769999999983
11
191.0925119999999993
21
-98.4785139999999899
0
LINE
8
BLACK
6
CONTINUOUS
10
191.0925119999999993
20
-98.4785139999999899
11
191.0326169999999877
21
-98.473748999999998
0
LINE
8
BLACK
6
CONTINUOUS
10
191.0326169999999877
20
-98.473748999999998
11
190.9615019999999959
21
-98.4700959999999981
0
LINE
8
BLACK
6
CONTINUOUS
10
190.9615019999999959
20
-98.4700959999999981
11
190.8769739999999899
21
-98.4674699999999916
0
LINE
8
BLACK
6
CONTINUOUS
10
190.8769739999999899
20
-98.4674699999999916
11
190.7768419999999878
21
-98.4657890000000009
0
LINE
8
BLACK
6
CONTINUOUS
10
190.7768419999999878
20
-98.4657890000000009
11
190.6589170000000024
21
-98.4649670000000015
0
LINE
8
BLACK
6
CONTINUOUS
10
190.6589170000000024
20
-98.4649670000000015
11
190.5210069999999973
21
-98.4649189999999948
0
LINE
8
BLACK
6
CONTINUOUS
10
190.5210069999999973
20
-98.4649189999999948
11
190.360921999999988
21
-98.4655609999999939
0
LINE
8
BLACK
6
CONTINUOUS
10
190.360921999999988
20
-98.4655609999999939
11
190.1764689999999973
21
-98.4668089999999978
0
LINE
8
BLACK
6
CONTINUOUS
10
190.1764689999999973
20
-98.4668089999999978
11
190.1411540000000002
21
-98.4670859999999948
0
LINE
8
BLACK
6
CONTINUOUS
10
190.1411540000000002
20
-98.4670859999999948
11
189.9664129999999886
21
-98.4685819999999978
0
LINE
8
BLACK
6
CONTINUOUS
10
189.9664129999999886
20
-98.4685819999999978
11
189.8164119999999855
21
-98.4701170000000019
0
LINE
8
BLACK
6
CONTINUOUS
10
189.8164119999999855
20
-98.4701170000000019
11
189.6889400000000023
21
-98.4717579999999941
0
LINE
8
BLACK
6
CONTINUOUS
10
189.6889400000000023
20
-98.4717579999999941
11
189.5817889999999863
21
-98.4735749999999967
0
LINE
8
BLACK
6
CONTINUOUS
10
189.5817889999999863
20
-98.4735749999999967
11
189.4927479999999775
21
-98.4756339999999994
0
LINE
8
BLACK
6
CONTINUOUS
10
189.4927479999999775
20
-98.4756339999999994
11
189.4196079999999824
21
-98.4780030000000011
0
LINE
8
BLACK
6
CONTINUOUS
10
189.4196079999999824
20
-98.4780030000000011
11
189.3601579999999842
21
-98.4807519999999954
0
LINE
8
BLACK
6
CONTINUOUS
10
189.3601579999999842
20
-98.4807519999999954
11
189.3121889999999894
21
-98.483947999999998
0
LINE
8
BLACK
6
CONTINUOUS
10
189.3121889999999894
20
-98.483947999999998
11
189.2734920000000045
21
-98.4876599999999911
0
LINE
8
BLACK
6
CONTINUOUS
10
189.2734920000000045
20
-98.4876599999999911
11
189.2418549999999868
21
-98.4919539999999927
0
LINE
8
BLACK
6
CONTINUOUS
10
189.2418549999999868
20
-98.4919539999999927
11
189.2224769999999978
21
-98.4953929999999929
0
LINE
8
BLACK
6
CONTINUOUS
10
189.2224769999999978
20
-98.4953929999999929
11
189.1130929999999921
21
-98.5231509999999986
0
LINE
8
BLACK
6
CONTINUOUS
10
189.1130929999999921
20
-98.5231509999999986
11
189.025936999999999
21
-98.5609029999999962
0
LINE
8
BLACK
6
CONTINUOUS
10
189.025936999999999
20
-98.5609029999999962
11
188.9577939999999785
21
-98.6118639999999971
0
LINE
8
BLACK
6
CONTINUOUS
10
188.9577939999999785
20
-98.6118639999999971
11
188.9054500000000019
21
-98.6792509999999936
0
LINE
8
BLACK
6
CONTINUOUS
10
188.9054500000000019
20
-98.6792509999999936
11
188.8656879999999774
21
-98.7662789999999973
0
LINE
8
BLACK
6
CONTINUOUS
10
188.8656879999999774
20
-98.7662789999999973
11
188.8352940000000046
21
-98.8761629999999911
0
LINE
8
BLACK
6
CONTINUOUS
10
188.8352940000000046
20
-98.8761629999999911
11
188.8335139999999797
21
-98.8844169999999991
0
LINE
8
BLACK
6
CONTINUOUS
10
188.8335139999999797
20
-98.8844169999999991
11
188.8267129999999838
21
-98.9307779999999894
0
LINE
8
BLACK
6
CONTINUOUS
10
188.8267129999999838
20
-98.9307779999999894
11
188.8206349999999816
21
-98.9998719999999963
0
LINE
8
BLACK
6
CONTINUOUS
10
188.8206349999999816
20
-98.9998719999999963
11
188.8153519999999901
21
-99.0874879999999933
0
LINE
8
BLACK
6
CONTINUOUS
10
188.8153519999999901
20
-99.0874879999999933
11
188.8109379999999931
21
-99.1894179999999892
0
LINE
8
BLACK
6
CONTINUOUS
10
188.8109379999999931
20
-99.1894179999999892
11
188.8074670000000026
21
-99.3014519999999976
0
LINE
8
BLACK
6
CONTINUOUS
10
188.8074670000000026
20
-99.3014519999999976
11
188.805010999999979
21
-99.4193810000000013
0
LINE
8
BLACK
6
CONTINUOUS
10
188.805010999999979
20
-99.4193810000000013
11
188.8036449999999888
21
-99.5389949999999999
0
LINE
8
BLACK
6
CONTINUOUS
10
188.8036449999999888
20
-99.5389949999999999
11
188.8034409999999923
21
-99.6560839999999928
0
LINE
8
BLACK
6
CONTINUOUS
10
188.8034409999999923
20
-99.6560839999999928
11
188.8044720000000041
21
-99.7664399999999887
0
LINE
8
BLACK
6
CONTINUOUS
10
188.8044720000000041
20
-99.7664399999999887
11
188.8068130000000053
21
-99.8658519999999896
0
LINE
8
BLACK
6
CONTINUOUS
10
188.8068130000000053
20
-99.8658519999999896
11
188.8105349999999873
21
-99.9501119999999901
0
LINE
8
BLACK
6
CONTINUOUS
10
188.8105349999999873
20
-99.9501119999999901
11
188.8141009999999937
21
-99.9989069999999884
0
LINE
8
BLACK
6
CONTINUOUS
10
188.8141009999999937
20
-99.9989069999999884
11
188.8306729999999902
21
-100.1372059999999919
0
LINE
8
BLACK
6
CONTINUOUS
10
188.8306729999999902
20
-100.1372059999999919
11
188.8536919999999952
21
-100.2517249999999933
0
LINE
8
BLACK
6
CONTINUOUS
10
188.8536919999999952
20
-100.2517249999999933
11
188.884477000000004
21
-100.3451409999999981
0
LINE
8
BLACK
6
CONTINUOUS
10
188.884477000000004
20
-100.3451409999999981
11
188.9243449999999882
21
-100.4201319999999953
0
LINE
8
BLACK
6
CONTINUOUS
10
188.9243449999999882
20
-100.4201319999999953
11
188.9746130000000051
21
-100.4793739999999929
0
LINE
8
BLACK
6
CONTINUOUS
10
188.9746130000000051
20
-100.4793739999999929
11
189.0365979999999979
21
-100.5255449999999939
0
LINE
8
BLACK
6
CONTINUOUS
10
189.0365979999999979
20
-100.5255449999999939
11
189.0856019999999944
21
-100.5506159999999909
0
LINE
8
BLACK
6
CONTINUOUS
10
189.0856019999999944
20
-100.5506159999999909
11
189.1206200000000024
21
-100.565148999999991
0
LINE
8
BLACK
6
CONTINUOUS
10
189.1206200000000024
20
-100.565148999999991
11
189.1563869999999952
21
-100.5775989999999922
0
LINE
8
BLACK
6
CONTINUOUS
10
189.1563869999999952
20
-100.5775989999999922
11
189.1952809999999943
21
-100.5881529999999913
0
LINE
8
BLACK
6
CONTINUOUS
10
189.1952809999999943
20
-100.5881529999999913
11
189.2396809999999903
21
-100.5969959999999901
0
LINE
8
BLACK
6
CONTINUOUS
10
189.2396809999999903
20
-100.5969959999999901
11
189.2919639999999788
21
-100.6043140000000022
0
LINE
8
BLACK
6
CONTINUOUS
10
189.2919639999999788
20
-100.6043140000000022
11
189.3545079999999814
21
-100.6102939999999961
0
LINE
8
BLACK
6
CONTINUOUS
10
189.3545079999999814
20
-100.6102939999999961
11
189.4296899999999937
21
-100.6151199999999903
0
LINE
8
BLACK
6
CONTINUOUS
10
189.4296899999999937
20
-100.6151199999999903
11
189.5198900000000037
21
-100.6189799999999934
0
LINE
8
BLACK
6
CONTINUOUS
10
189.5198900000000037
20
-100.6189799999999934
11
189.6274829999999838
21
-100.6220579999999956
0
LINE
8
BLACK
6
CONTINUOUS
10
189.6274829999999838
20
-100.6220579999999956
11
189.7548489999999788
21
-100.6245409999999936
0
LINE
8
BLACK
6
CONTINUOUS
10
189.7548489999999788
20
-100.6245409999999936
11
189.9043649999999843
21
-100.6266139999999893
0
LINE
8
BLACK
6
CONTINUOUS
10
189.9043649999999843
20
-100.6266139999999893
11
190.0784089999999935
21
-100.6284639999999939
0
LINE
8
BLACK
6
CONTINUOUS
10
190.0784089999999935
20
-100.6284639999999939
11
190.0818559999999877
21
-100.6284969999999959
0
LINE
8
BLACK
6
CONTINUOUS
10
190.0818559999999877
20
-100.6284969999999959
11
190.2834289999999839
21
-100.6301059999999978
0
LINE
8
BLACK
6
CONTINUOUS
10
190.2834289999999839
20
-100.6301059999999978
11
190.4600759999999866
21
-100.6307119999999884
0
LINE
8
BLACK
6
CONTINUOUS
10
190.4600759999999866
20
-100.6307119999999884
11
190.61380699999998
21
-100.630162999999996
0
LINE
8
BLACK
6
CONTINUOUS
10
190.61380699999998
20
-100.630162999999996
11
190.7466330000000028
21
-100.628304
0
LINE
8
BLACK
6
CONTINUOUS
10
190.7466330000000028
20
-100.628304
11
190.8605639999999823
21
-100.6249839999999978
0
LINE
8
BLACK
6
CONTINUOUS
10
190.8605639999999823
20
-100.6249839999999978
11
190.9576109999999858
21
-100.620047999999997
0
LINE
8
BLACK
6
CONTINUOUS
10
190.9576109999999858
20
-100.620047999999997
11
191.0397829999999999
21
-100.6133449999999954
0
LINE
8
BLACK
6
CONTINUOUS
10
191.0397829999999999
20
-100.6133449999999954
11
191.1090909999999781
21
-100.6047209999999978
0
LINE
8
BLACK
6
CONTINUOUS
10
191.1090909999999781
20
-100.6047209999999978
11
191.1675449999999898
21
-100.5940239999999903
0
LINE
8
BLACK
6
CONTINUOUS
10
191.1675449999999898
20
-100.5940239999999903
11
191.2171559999999886
21
-100.5810989999999947
0
LINE
8
BLACK
6
CONTINUOUS
10
191.2171559999999886
20
-100.5810989999999947
11
191.2599349999999845
21
-100.5657949999999943
0
LINE
8
BLACK
6
CONTINUOUS
10
191.2599349999999845
20
-100.5657949999999943
11
191.2978899999999953
21
-100.5479569999999967
0
LINE
8
BLACK
6
CONTINUOUS
10
191.2978899999999953
20
-100.5479569999999967
11
191.3223179999999957
21
-100.5340929999999986
0
LINE
8
BLACK
6
CONTINUOUS
10
191.3223179999999957
20
-100.5340929999999986
11
191.3926739999999995
21
-100.4778120000000001
0
LINE
8
BLACK
6
CONTINUOUS
10
191.3926739999999995
20
-100.4778120000000001
11
191.4534449999999879
21
-100.4030580000000015
0
LINE
8
BLACK
6
CONTINUOUS
10
191.4534449999999879
20
-100.4030580000000015
11
191.4986590000000035
21
-100.3180669999999992
0
LINE
8
BLACK
6
CONTINUOUS
10
191.4986590000000035
20
-100.3180669999999992
11
191.5151759999999967
21
-100.2682149999999979
0
LINE
8
BLACK
6
CONTINUOUS
10
191.5151759999999967
20
-100.2682149999999979
11
191.5248459999999966
21
-100.220208999999997
0
LINE
8
BLACK
6
CONTINUOUS
10
191.5248459999999966
20
-100.220208999999997
11
191.5342709999999897
21
-100.1564119999999889
0
LINE
8
BLACK
6
CONTINUOUS
10
191.5342709999999897
20
-100.1564119999999889
11
191.5418880000000001
21
-100.0879539999999963
0
LINE
8
BLACK
6
CONTINUOUS
10
191.5418880000000001
20
-100.0879539999999963
11
191.5440069999999935
21
-100.0627239999999887
0
LINE
8
BLACK
6
CONTINUOUS
10
191.5440069999999935
20
-100.0627239999999887
11
191.5538139999999885
21
-99.931910000000002
0
LINE
8
BLACK
6
CONTINUOUS
10
191.5538139999999885
20
-99.931910000000002
11
190.811097999999987
21
-99.931910000000002
0
LINE
8
BLACK
6
CONTINUOUS
10
190.811097999999987
20
-99.931910000000002
11
190.068380999999988
21
-99.931910000000002
0
LINE
8
BLACK
6
CONTINUOUS
10
190.068380999999988
20
-99.931910000000002
11
190.068380999999988
21
-99.675888999999998
0
LINE
8
BLACK
6
CONTINUOUS
10
190.068380999999988
20
-99.675888999999998
11
190.068380999999988
21
-99.4198669999999964
0
LINE
8
BLACK
6
CONTINUOUS
10
190.068380999999988
20
-99.4198669999999964
11
191.188541999999984
21
-99.4198669999999964
0
LINE
8
BLACK
6
CONTINUOUS
10
191.188541999999984
20
-99.4198669999999964
11
192.30870299999998
21
-99.4198669999999964
0
LINE
8
BLACK
6
CONTINUOUS
10
192.30870299999998
20
-99.4198669999999964
11
192.3014210000000048
21
-99.8679039999999958
0
LINE
8
BLACK
6
CONTINUOUS
10
192.3014210000000048
20
-99.8679039999999958
11
192.2982820000000004
21
-100.024485999999996
0
LINE
8
BLACK
6
CONTINUOUS
10
192.2982820000000004
20
-100.024485999999996
11
192.2941500000000019
21
-100.1574090000000012
0
LINE
8
BLACK
6
CONTINUOUS
10
192.2941500000000019
20
-100.1574090000000012
11
192.2886919999999975
21
-100.2699539999999985
0
LINE
8
BLACK
6
CONTINUOUS
10
192.2886919999999975
20
-100.2699539999999985
11
192.2815719999999828
21
-100.3654039999999981
0
LINE
8
BLACK
6
CONTINUOUS
10
192.2815719999999828
20
-100.3654039999999981
11
192.2724560000000054
21
-100.4470409999999987
0
LINE
8
BLACK
6
CONTINUOUS
10
192.2724560000000054
20
-100.4470409999999987
11
192.2610090000000014
21
-100.518146999999999
0
LINE
8
BLACK
6
CONTINUOUS
10
192.2610090000000014
20
-100.518146999999999
11
192.2468969999999899
21
-100.5820039999999977
0
LINE
8
BLACK
6
CONTINUOUS
10
192.2468969999999899
20
-100.5820039999999977
11
192.2297849999999926
21
-100.6418939999999935
0
LINE
8
BLACK
6
CONTINUOUS
10
192.2297849999999926
20
-100.6418939999999935
11
192.2192900000000009
21
-100.673419999999993
0
LINE
8
BLACK
6
CONTINUOUS
10
192.2192900000000009
20
-100.673419999999993
11
192.1613999999999862
21
-100.806761999999992
0
LINE
8
BLACK
6
CONTINUOUS
10
192.1613999999999862
20
-100.806761999999992
11
192.0870539999999949
21
-100.9193839999999938
0
LINE
8
BLACK
6
CONTINUOUS
10
192.0870539999999949
20
-100.9193839999999938
11
191.9948399999999822
21
-101.0126519999999886
0
LINE
8
BLACK
6
CONTINUOUS
10
191.9948399999999822
20
-101.0126519999999886
11
191.8833449999999914
21
-101.0879309999999975
0
LINE
8
BLACK
6
CONTINUOUS
10
191.8833449999999914
20
-101.0879309999999975
11
191.7511580000000038
21
-101.1465859999999992
0
LINE
8
BLACK
6
CONTINUOUS
10
191.7511580000000038
20
-101.1465859999999992
11
191.7185049999999933
21
-101.1576049999999896
0
LINE
8
BLACK
6
CONTINUOUS
10
191.7185049999999933
20
-101.1576049999999896
11
191.6775829999999985
21
-101.1704359999999951
0
LINE
8
BLACK
6
CONTINUOUS
10
191.6775829999999985
20
-101.1704359999999951
11
191.6388989999999808
21
-101.1816219999999902
0
LINE
8
BLACK
6
CONTINUOUS
10
191.6388989999999808
20
-101.1816219999999902
11
191.6003469999999993
21
-101.1912849999999935
0
LINE
8
BLACK
6
CONTINUOUS
10
191.6003469999999993
20
-101.1912849999999935
11
191.559820000000002
21
-101.1995439999999888
0
LINE
8
BLACK
6
CONTINUOUS
10
191.559820000000002
20
-101.1995439999999888
11
191.5152119999999911
21
-101.2065179999999884
0
LINE
8
BLACK
6
CONTINUOUS
10
191.5152119999999911
20
-101.2065179999999884
11
191.4644150000000025
21
-101.2123279999999994
0
LINE
8
BLACK
6
CONTINUOUS
10
191.4644150000000025
20
-101.2123279999999994
11
191.4053229999999814
21
-101.2170929999999913
0
LINE
8
BLACK
6
CONTINUOUS
10
191.4053229999999814
20
-101.2170929999999913
11
191.3358299999999872
21
-101.2209319999999906
0
LINE
8
BLACK
6
CONTINUOUS
10
191.3358299999999872
20
-101.2209319999999906
11
191.2538289999999961
21
-101.2239659999999901
0
LINE
8
BLACK
6
CONTINUOUS
10
191.2538289999999961
20
-101.2239659999999901
11
191.1572129999999845
21
-101.2263140000000021
0
LINE
8
BLACK
6
CONTINUOUS
10
191.1572129999999845
20
-101.2263140000000021
11
191.0438749999999857
21
-101.2280959999999936
0
LINE
8
BLACK
6
CONTINUOUS
10
191.0438749999999857
20
-101.2280959999999936
11
190.9117090000000019
21
-101.2294319999999885
0
LINE
8
BLACK
6
CONTINUOUS
10
190.9117090000000019
20
-101.2294319999999885
11
190.7586079999999811
21
-101.230440999999999
0
LINE
8
BLACK
6
CONTINUOUS
10
190.7586079999999811
20
-101.230440999999999
11
190.5824649999999849
21
-101.2312429999999921
0
LINE
8
BLACK
6
CONTINUOUS
10
190.5824649999999849
20
-101.2312429999999921
11
190.4119890000000055
21
-101.2318559999999934
0
LINE
8
BLACK
6
CONTINUOUS
10
190.4119890000000055
20
-101.2318559999999934
11
190.2503969999999924
21
-101.2323319999999995
0
LINE
8
BLACK
6
CONTINUOUS
10
190.2503969999999924
20
-101.2323319999999995
11
190.0949870000000033
21
-101.2326630000000023
0
LINE
8
BLACK
6
CONTINUOUS
10
190.0949870000000033
20
-101.2326630000000023
11
189.948127999999997
21
-101.2328509999999966
0
LINE
8
BLACK
6
CONTINUOUS
10
189.948127999999997
20
-101.2328509999999966
11
189.8121879999999919
21
-101.2328979999999916
0
LINE
8
BLACK
6
CONTINUOUS
10
189.8121879999999919
20
-101.2328979999999916
11
189.6895370000000014
21
-101.2328079999999915
0
LINE
8
BLACK
6
CONTINUOUS
10
189.6895370000000014
20
-101.2328079999999915
11
189.5825429999999869
21
-101.2325829999999911
0
LINE
8
BLACK
6
CONTINUOUS
10
189.5825429999999869
20
-101.2325829999999911
11
189.4935749999999928
21
-101.2322269999999946
0
LINE
8
BLACK
6
CONTINUOUS
10
189.4935749999999928
20
-101.2322269999999946
11
189.4250009999999804
21
-101.231741999999997
0
LINE
8
BLACK
6
CONTINUOUS
10
189.4250009999999804
20
-101.231741999999997
11
189.3791899999999941
21
-101.2311309999999906
0
LINE
8
BLACK
6
CONTINUOUS
10
189.3791899999999941
20
-101.2311309999999906
11
189.3609539999999924
21
-101.2305789999999917
0
LINE
8
BLACK
6
CONTINUOUS
10
189.3609539999999924
20
-101.2305789999999917
11
189.2006700000000023
21
-101.2206639999999993
0
LINE
8
BLACK
6
CONTINUOUS
10
189.2006700000000023
20
-101.2206639999999993
11
189.0639500000000055
21
-101.2099639999999994
0
LINE
8
BLACK
6
CONTINUOUS
10
189.0639500000000055
20
-101.2099639999999994
11
188.9474109999999882
21
-101.1978879999999918
0
LINE
8
BLACK
6
CONTINUOUS
10
188.9474109999999882
20
-101.1978879999999918
11
188.8476679999999988
21
-101.183841000000001
0
LINE
8
BLACK
6
CONTINUOUS
10
188.8476679999999988
20
-101.183841000000001
11
188.761337999999995
21
-101.167231000000001
0
LINE
8
BLACK
6
CONTINUOUS
10
188.761337999999995
20
-101.167231000000001
11
188.6850349999999992
21
-101.1474659999999943
0
LINE
8
BLACK
6
CONTINUOUS
10
188.6850349999999992
20
-101.1474659999999943
11
188.6153759999999977
21
-101.1239530000000002
0
LINE
8
BLACK
6
CONTINUOUS
10
188.6153759999999977
20
-101.1239530000000002
11
188.5489769999999794
21
-101.0960989999999953
0
LINE
8
BLACK
6
CONTINUOUS
10
188.5489769999999794
20
-101.0960989999999953
11
188.5230149999999867
21
-101.0838239999999928
0
LINE
8
BLACK
6
CONTINUOUS
10
188.5230149999999867
20
-101.0838239999999928
11
188.3953209999999956
21
-101.0084049999999962
0
LINE
8
BLACK
6
CONTINUOUS
10
188.3953209999999956
20
-101.0084049999999962
11
188.2885489999999891
21
-100.9162489999999934
0
LINE
8
BLACK
6
CONTINUOUS
10
188.2885489999999891
20
-100.9162489999999934
11
188.2020179999999812
21
-100.806556999999998
0
LINE
8
BLACK
6
CONTINUOUS
10
188.2020179999999812
20
-100.806556999999998
11
188.1350499999999784
21
-100.678529999999995
0
LINE
8
BLACK
6
CONTINUOUS
10
188.1350499999999784
20
-100.678529999999995
11
188.1028670000000034
21
-100.5889719999999983
0
LINE
8
BLACK
6
CONTINUOUS
10
188.1028670000000034
20
-100.5889719999999983
11
188.0861400000000003
21
-100.5313759999999945
0
LINE
8
BLACK
6
CONTINUOUS
10
188.0861400000000003
20
-100.5313759999999945
11
188.0720110000000034
21
-100.4749920000000003
0
LINE
8
BLACK
6
CONTINUOUS
10
188.0720110000000034
20
-100.4749920000000003
11
188.0602690000000052
21
-100.4169830000000019
0
LINE
8
BLACK
6
CONTINUOUS
10
188.0602690000000052
20
-100.4169830000000019
11
188.0507039999999961
21
-100.3545119999999997
0
LINE
8
BLACK
6
CONTINUOUS
10
188.0507039999999961
20
-100.3545119999999997
11
188.0431030000000021
21
-100.2847409999999968
0
LINE
8
BLACK
6
CONTINUOUS
10
188.0431030000000021
20
-100.2847409999999968
11
188.0372569999999826
21
-100.2048329999999936
0
LINE
8
BLACK
6
CONTINUOUS
10
188.0372569999999826
20
-100.2048329999999936
11
188.0329539999999895
21
-100.1119499999999931
0
LINE
8
BLACK
6
CONTINUOUS
10
188.0329539999999895
20
-100.1119499999999931
11
188.0299819999999897
21
-100.0032549999999958
0
LINE
8
BLACK
6
CONTINUOUS
10
188.0299819999999897
20
-100.0032549999999958
11
188.0281319999999994
21
-99.8759099999999904
0
LINE
8
BLACK
6
CONTINUOUS
10
188.0281319999999994
20
-99.8759099999999904
11
188.0271919999999852
21
-99.7270779999999917
0
LINE
8
BLACK
6
CONTINUOUS
10
188.0271919999999852
20
-99.7270779999999917
11
188.0269490000000019
21
-99.568089999999998
0
LINE
8
BLACK
6
CONTINUOUS
10
188.0269490000000019
20
-99.568089999999998
11
188.027214999999984
21
-99.3965329999999909
0
LINE
8
BLACK
6
CONTINUOUS
10
188.027214999999984
20
-99.3965329999999909
11
188.0281300000000044
21
-99.2490769999999998
0
LINE
8
BLACK
6
CONTINUOUS
10
188.0281300000000044
20
-99.2490769999999998
11
188.0298659999999984
21
-99.1228789999999975
0
LINE
8
BLACK
6
CONTINUOUS
10
188.0298659999999984
20
-99.1228789999999975
11
188.0325969999999813
21
-99.0150959999999998
0
LINE
8
BLACK
6
CONTINUOUS
10
188.0325969999999813
20
-99.0150959999999998
11
188.0364979999999946
21
-98.9228829999999988
0
LINE
8
BLACK
6
CONTINUOUS
10
188.0364979999999946
20
-98.9228829999999988
11
188.0417410000000018
21
-98.843396999999996
0
LINE
8
BLACK
6
CONTINUOUS
10
188.0417410000000018
20
-98.843396999999996
11
188.04849999999999
21
-98.7737939999999952
0
LINE
8
BLACK
6
CONTINUOUS
10
188.04849999999999
20
-98.7737939999999952
11
188.0569480000000055
21
-98.7112309999999979
0
LINE
8
BLACK
6
CONTINUOUS
10
188.0569480000000055
20
-98.7112309999999979
11
188.0672600000000045
21
-98.6528639999999939
0
LINE
8
BLACK
6
CONTINUOUS
10
188.0672600000000045
20
-98.6528639999999939
11
188.079607999999979
21
-98.5958490000000012
0
LINE
8
BLACK
6
CONTINUOUS
10
188.079607999999979
20
-98.5958490000000012
11
188.0885250000000042
21
-98.5592929999999967
0
LINE
8
BLACK
6
CONTINUOUS
10
188.0885250000000042
20
-98.5592929999999967
11
188.1386599999999873
21
-98.4117269999999991
0
LINE
8
BLACK
6
CONTINUOUS
10
188.1386599999999873
20
-98.4117269999999991
11
188.2098049999999887
21
-98.2806779999999947
0
LINE
8
BLACK
6
CONTINUOUS
10
188.2098049999999887
20
-98.2806779999999947
11
188.3009109999999851
21
-98.1671819999999968
0
LINE
8
BLACK
6
CONTINUOUS
10
188.3009109999999851
20
-98.1671819999999968
11
188.4109289999999817
21
-98.0722749999999905
0
LINE
8
BLACK
6
CONTINUOUS
10
188.4109289999999817
20
-98.0722749999999905
11
188.5388089999999863
21
-97.9969909999999942
0
LINE
8
BLACK
6
CONTINUOUS
10
188.5388089999999863
20
-97.9969909999999942
11
188.6835020000000043
21
-97.9423669999999902
0
LINE
8
BLACK
6
CONTINUOUS
10
188.6835020000000043
20
-97.9423669999999902
11
188.7245580000000018
21
-97.9314789999999959
0
LINE
8
BLACK
6
CONTINUOUS
10
188.7245580000000018
20
-97.9314789999999959
11
188.8090629999999805
21
-97.9135390000000001
0
LINE
8
BLACK
6
CONTINUOUS
10
188.8090629999999805
20
-97.9135390000000001
11
188.9065579999999898
21
-97.8978599999999943
0
LINE
8
BLACK
6
CONTINUOUS
10
188.9065579999999898
20
-97.8978599999999943
11
189.0186019999999871
21
-97.8843579999999918
0
LINE
8
BLACK
6
CONTINUOUS
10
189.0186019999999871
20
-97.8843579999999918
11
189.1467509999999947
21
-97.8729459999999989
0
LINE
8
BLACK
6
CONTINUOUS
10
189.1467509999999947
20
-97.8729459999999989
11
189.2925609999999779
21
-97.8635379999999913
0
LINE
8
BLACK
6
CONTINUOUS
10
189.2925609999999779
20
-97.8635379999999913
11
189.4575920000000053
21
-97.8560499999999962
0
LINE
8
BLACK
6
CONTINUOUS
10
189.4575920000000053
20
-97.8560499999999962
11
189.6433979999999906
21
-97.8503959999999893
0
LINE
8
BLACK
6
CONTINUOUS
10
189.6433979999999906
20
-97.8503959999999893
11
189.8515369999999791
21
-97.8464899999999886
0
LINE
8
BLACK
6
CONTINUOUS
10
189.8515369999999791
20
-97.8464899999999886
11
190.0835659999999905
21
-97.8442469999999958
0
LINE
8
BLACK
6
CONTINUOUS
10
190.0835659999999905
20
-97.8442469999999958
11
190.3244029999999896
21
-97.8435779999999937
0
LINE
8
BLACK
6
CONTINUOUS
10
190.3244029999999896
20
-97.8435779999999937
11
190.5370810000000006
21
-97.8440679999999929
  0
ENDSEC
  0
EOF
