<?xml version="1.0" standalone="no"?>
 <!DOCTYPE svg PUBLIC "-//W3C//DTD SVG 1.1//EN" 
 "http://www.w3.org/Graphics/SVG/1.1/DTD/svg11.dtd"> 
<svg
  xmlns:svg="http://www.w3.org/2000/svg"
  xmlns="http://www.w3.org/2000/svg"
  xmlns:xlink="http://www.w3.org/1999/xlink"
  version="1.1"
  width="297.0022mm" height="419.9890mm" viewBox="0.0000 0.0000 297.0022 419.9890">
<title>SVG Image created as 7_seg_led_tht_3mm-User_8.svg date 2026/01/05 23:17:46 </title>
  <desc>Image generated by PCBNEW </desc>
<g style="fill:#000000; fill-opacity:1.0000;stroke:#000000; stroke-opacity:1.0000;
stroke-linecap:round; stroke-linejoin:round;"
 transform="translate(0 0) scale(1 1)">
</g>
<g style="fill:#000000; fill-opacity:1.0000; 
stroke:#000000; stroke-width:0.0212; stroke-opacity:1; 
stroke-linecap:round; stroke-linejoin:round;">
<rect x="-144.214306" y="9.949995" width="1145.264306" height="331.600105" rx="0.000000" />
</g>
<g style="fill:none; 
stroke:#FFFFFF; stroke-width:0.1000; stroke-opacity:1; 
stroke-linecap:round; stroke-linejoin:round;">
<path d="M182.6250 54.2500
L188.3750 54.2500
" />
<path d="M182.6250 67.2500
L185.4750 72.2999
" />
<path d="M15.0000 100.0000 A15.0000 15.0000 0.0 0 0 30.0000 115.0000" />
<path d="M188.3750 67.2500
L182.6250 67.2500
" />
<path d="M210.0000 30.0000 A10.0000 10.0000 0.0 0 0 200.0000 20.0000" />
<path d="M30.0000 20.0000
L200.0000 20.0000
" />
<path d="M200.0000 115.0000 A15.0000 15.0000 0.0 0 0 215.0000 100.0000" />
<path d="M185.5250 49.2001
L182.6250 54.2500
" />
<circle cx="192.9000" cy="51.8001" r="2.5000" /> 
<path d="M120.0000 23.0000
L120.0000 20.0000
" />
<path d="M185.4750 72.2999
L188.3750 67.2500
" />
<path d="M195.9000 91.5000
L189.9113 91.5000
" />
<path d="M20.0000 100.0000
L20.0000 30.0000
" />
<path d="M30.0000 115.0000
L200.0000 115.0000
" />
<path d="M110.0000 23.0000 A5.0000 5.0000 0.0 0 0 120.0000 23.0000" />
<path d="M200.0000 110.0000 A10.0000 10.0000 0.0 0 0 210.0000 100.0000" />
<path d="M30.0000 15.0000 A15.0000 15.0000 0.0 0 0 15.0000 30.0000" />
<circle cx="192.9000" cy="51.8001" r="3.3500" /> 
<path d="M215.0000 30.0000 A15.0000 15.0000 0.0 0 0 200.0000 15.0000" />
<path d="M189.9001 91.5000 A2.0000 2.0000 0.0 1 0 189.9000 95.5000" />
<path d="M20.0000 100.0000 A10.0000 10.0000 0.0 0 0 30.0000 110.0000" />
<path d="M200.0000 110.0000
L30.0000 110.0000
" />
<path d="M188.3750 54.2500
L185.5250 49.2001
" />
<path d="M110.0000 23.0000
L110.0000 20.0000
" />
<circle cx="192.9000" cy="69.8001" r="3.3500" /> 
<path d="M30.0000 20.0000 A10.0000 10.0000 0.0 0 0 20.0000 30.0000" />
<path d="M189.9000 95.5000
L195.8999 95.5001
" />
<circle cx="192.9000" cy="69.8001" r="2.5000" /> 
<circle cx="192.9000" cy="60.8001" r="3.3500" /> 
<path d="M210.0000 30.0000
L210.0000 100.0000
" />
<path d="M195.8999 95.5000 A2.0000 2.0000 0.0 1 0 195.9000 91.5000" />
<path d="M215.0000 100.0000
L215.0000 30.0000
" />
<path d="M15.0000 30.0000
L15.0000 100.0000
" />
<circle cx="192.9000" cy="60.8001" r="2.5000" /> 
<path d="M200.0000 15.0000
L30.0000 15.0000
" />
</g>
<g style="fill:none; 
stroke:#FFFFFF; stroke-width:0.3000; stroke-opacity:1; 
stroke-linecap:round; stroke-linejoin:round;">
<text x="185.2500" y="61.7500"
textLength="5.7381" font-size="2.6667" lengthAdjust="spacingAndGlyphs"
text-anchor="middle" opacity="0" stroke-opacity="0">SET</text>
<g class="stroked-text"><desc>SET</desc>
<path d="M183.0119 61.5644
L183.2976 61.6596
" />
<path d="M183.2976 61.6596
L183.7738 61.6596
" />
<path d="M183.7738 61.6596
L183.9643 61.5644
" />
<path d="M183.9643 61.5644
L184.0595 61.4692
" />
<path d="M184.0595 61.4692
L184.1548 61.2787
" />
<path d="M184.1548 61.2787
L184.1548 61.0882
" />
<path d="M184.1548 61.0882
L184.0595 60.8977
" />
<path d="M184.0595 60.8977
L183.9643 60.8025
" />
<path d="M183.9643 60.8025
L183.7738 60.7073
" />
<path d="M183.7738 60.7073
L183.3929 60.6120
" />
<path d="M183.3929 60.6120
L183.2024 60.5168
" />
<path d="M183.2024 60.5168
L183.1071 60.4215
" />
<path d="M183.1071 60.4215
L183.0119 60.2311
" />
<path d="M183.0119 60.2311
L183.0119 60.0406
" />
<path d="M183.0119 60.0406
L183.1071 59.8501
" />
<path d="M183.1071 59.8501
L183.2024 59.7549
" />
<path d="M183.2024 59.7549
L183.3929 59.6596
" />
<path d="M183.3929 59.6596
L183.8690 59.6596
" />
<path d="M183.8690 59.6596
L184.1548 59.7549
" />
<path d="M185.0119 60.6120
L185.6786 60.6120
" />
<path d="M185.9643 61.6596
L185.0119 61.6596
" />
<path d="M185.0119 61.6596
L185.0119 59.6596
" />
<path d="M185.0119 59.6596
L185.9643 59.6596
" />
<path d="M186.5357 59.6596
L187.6786 59.6596
" />
<path d="M187.1071 61.6596
L187.1071 59.6596
" />
</g><text x="192.7500" y="90.5000"
textLength="9.2619" font-size="2.6667" lengthAdjust="spacingAndGlyphs"
text-anchor="middle" opacity="0" stroke-opacity="0">5V 1A</text>
<g class="stroked-text"><desc>5V 1A</desc>
<path d="M189.7976 88.4096
L188.8452 88.4096
" />
<path d="M188.8452 88.4096
L188.7500 89.3620
" />
<path d="M188.7500 89.3620
L188.8452 89.2668
" />
<path d="M188.8452 89.2668
L189.0357 89.1715
" />
<path d="M189.0357 89.1715
L189.5119 89.1715
" />
<path d="M189.5119 89.1715
L189.7024 89.2668
" />
<path d="M189.7024 89.2668
L189.7976 89.3620
" />
<path d="M189.7976 89.3620
L189.8929 89.5525
" />
<path d="M189.8929 89.5525
L189.8929 90.0287
" />
<path d="M189.8929 90.0287
L189.7976 90.2192
" />
<path d="M189.7976 90.2192
L189.7024 90.3144
" />
<path d="M189.7024 90.3144
L189.5119 90.4096
" />
<path d="M189.5119 90.4096
L189.0357 90.4096
" />
<path d="M189.0357 90.4096
L188.8452 90.3144
" />
<path d="M188.8452 90.3144
L188.7500 90.2192
" />
<path d="M190.4643 88.4096
L191.1310 90.4096
" />
<path d="M191.1310 90.4096
L191.7976 88.4096
" />
<path d="M195.0357 90.4096
L193.8929 90.4096
" />
<path d="M194.4643 90.4096
L194.4643 88.4096
" />
<path d="M194.4643 88.4096
L194.2738 88.6954
" />
<path d="M194.2738 88.6954
L194.0833 88.8858
" />
<path d="M194.0833 88.8858
L193.8929 88.9811
" />
<path d="M195.7976 89.8382
L196.7500 89.8382
" />
<path d="M195.6071 90.4096
L196.2738 88.4096
" />
<path d="M196.2738 88.4096
L196.9405 90.4096
" />
</g><text x="175.5000" y="106.0000"
textLength="24.2143" font-size="2.6667" lengthAdjust="spacingAndGlyphs"
text-anchor="start" opacity="0" stroke-opacity="0">Made in Poland</text>
<g class="stroked-text"><desc>Made in Poland</desc>
<path d="M176.1736 105.7396
L176.1736 103.7396
" />
<path d="M176.1736 103.7396
L176.8402 105.1682
" />
<path d="M176.8402 105.1682
L177.5069 103.7396
" />
<path d="M177.5069 103.7396
L177.5069 105.7396
" />
<path d="M179.3164 105.7396
L179.3164 104.6920
" />
<path d="M179.3164 104.6920
L179.2212 104.5015
" />
<path d="M179.2212 104.5015
L179.0307 104.4063
" />
<path d="M179.0307 104.4063
L178.6497 104.4063
" />
<path d="M178.6497 104.4063
L178.4593 104.5015
" />
<path d="M179.3164 105.6444
L179.1259 105.7396
" />
<path d="M179.1259 105.7396
L178.6497 105.7396
" />
<path d="M178.6497 105.7396
L178.4593 105.6444
" />
<path d="M178.4593 105.6444
L178.3640 105.4539
" />
<path d="M178.3640 105.4539
L178.3640 105.2634
" />
<path d="M178.3640 105.2634
L178.4593 105.0730
" />
<path d="M178.4593 105.0730
L178.6497 104.9777
" />
<path d="M178.6497 104.9777
L179.1259 104.9777
" />
<path d="M179.1259 104.9777
L179.3164 104.8825
" />
<path d="M181.1259 105.7396
L181.1259 103.7396
" />
<path d="M181.1259 105.6444
L180.9355 105.7396
" />
<path d="M180.9355 105.7396
L180.5545 105.7396
" />
<path d="M180.5545 105.7396
L180.3640 105.6444
" />
<path d="M180.3640 105.6444
L180.2688 105.5492
" />
<path d="M180.2688 105.5492
L180.1736 105.3587
" />
<path d="M180.1736 105.3587
L180.1736 104.7873
" />
<path d="M180.1736 104.7873
L180.2688 104.5968
" />
<path d="M180.2688 104.5968
L180.3640 104.5015
" />
<path d="M180.3640 104.5015
L180.5545 104.4063
" />
<path d="M180.5545 104.4063
L180.9355 104.4063
" />
<path d="M180.9355 104.4063
L181.1259 104.5015
" />
<path d="M182.8402 105.6444
L182.6497 105.7396
" />
<path d="M182.6497 105.7396
L182.2688 105.7396
" />
<path d="M182.2688 105.7396
L182.0783 105.6444
" />
<path d="M182.0783 105.6444
L181.9831 105.4539
" />
<path d="M181.9831 105.4539
L181.9831 104.6920
" />
<path d="M181.9831 104.6920
L182.0783 104.5015
" />
<path d="M182.0783 104.5015
L182.2688 104.4063
" />
<path d="M182.2688 104.4063
L182.6497 104.4063
" />
<path d="M182.6497 104.4063
L182.8402 104.5015
" />
<path d="M182.8402 104.5015
L182.9355 104.6920
" />
<path d="M182.9355 104.6920
L182.9355 104.8825
" />
<path d="M182.9355 104.8825
L181.9831 105.0730
" />
<path d="M185.3164 105.7396
L185.3164 104.4063
" />
<path d="M185.3164 103.7396
L185.2212 103.8349
" />
<path d="M185.2212 103.8349
L185.3164 103.9301
" />
<path d="M185.3164 103.9301
L185.4117 103.8349
" />
<path d="M185.4117 103.8349
L185.3164 103.7396
" />
<path d="M185.3164 103.7396
L185.3164 103.9301
" />
<path d="M186.2688 104.4063
L186.2688 105.7396
" />
<path d="M186.2688 104.5968
L186.3640 104.5015
" />
<path d="M186.3640 104.5015
L186.5545 104.4063
" />
<path d="M186.5545 104.4063
L186.8402 104.4063
" />
<path d="M186.8402 104.4063
L187.0307 104.5015
" />
<path d="M187.0307 104.5015
L187.1259 104.6920
" />
<path d="M187.1259 104.6920
L187.1259 105.7396
" />
<path d="M189.6021 105.7396
L189.6021 103.7396
" />
<path d="M189.6021 103.7396
L190.3640 103.7396
" />
<path d="M190.3640 103.7396
L190.5545 103.8349
" />
<path d="M190.5545 103.8349
L190.6497 103.9301
" />
<path d="M190.6497 103.9301
L190.7450 104.1206
" />
<path d="M190.7450 104.1206
L190.7450 104.4063
" />
<path d="M190.7450 104.4063
L190.6497 104.5968
" />
<path d="M190.6497 104.5968
L190.5545 104.6920
" />
<path d="M190.5545 104.6920
L190.3640 104.7873
" />
<path d="M190.3640 104.7873
L189.6021 104.7873
" />
<path d="M191.8878 105.7396
L191.6974 105.6444
" />
<path d="M191.6974 105.6444
L191.6021 105.5492
" />
<path d="M191.6021 105.5492
L191.5069 105.3587
" />
<path d="M191.5069 105.3587
L191.5069 104.7873
" />
<path d="M191.5069 104.7873
L191.6021 104.5968
" />
<path d="M191.6021 104.5968
L191.6974 104.5015
" />
<path d="M191.6974 104.5015
L191.8878 104.4063
" />
<path d="M191.8878 104.4063
L192.1736 104.4063
" />
<path d="M192.1736 104.4063
L192.3640 104.5015
" />
<path d="M192.3640 104.5015
L192.4593 104.5968
" />
<path d="M192.4593 104.5968
L192.5545 104.7873
" />
<path d="M192.5545 104.7873
L192.5545 105.3587
" />
<path d="M192.5545 105.3587
L192.4593 105.5492
" />
<path d="M192.4593 105.5492
L192.3640 105.6444
" />
<path d="M192.3640 105.6444
L192.1736 105.7396
" />
<path d="M192.1736 105.7396
L191.8878 105.7396
" />
<path d="M193.6974 105.7396
L193.5069 105.6444
" />
<path d="M193.5069 105.6444
L193.4117 105.4539
" />
<path d="M193.4117 105.4539
L193.4117 103.7396
" />
<path d="M195.3164 105.7396
L195.3164 104.6920
" />
<path d="M195.3164 104.6920
L195.2212 104.5015
" />
<path d="M195.2212 104.5015
L195.0307 104.4063
" />
<path d="M195.0307 104.4063
L194.6497 104.4063
" />
<path d="M194.6497 104.4063
L194.4593 104.5015
" />
<path d="M195.3164 105.6444
L195.1259 105.7396
" />
<path d="M195.1259 105.7396
L194.6497 105.7396
" />
<path d="M194.6497 105.7396
L194.4593 105.6444
" />
<path d="M194.4593 105.6444
L194.3640 105.4539
" />
<path d="M194.3640 105.4539
L194.3640 105.2634
" />
<path d="M194.3640 105.2634
L194.4593 105.0730
" />
<path d="M194.4593 105.0730
L194.6497 104.9777
" />
<path d="M194.6497 104.9777
L195.1259 104.9777
" />
<path d="M195.1259 104.9777
L195.3164 104.8825
" />
<path d="M196.2688 104.4063
L196.2688 105.7396
" />
<path d="M196.2688 104.5968
L196.3640 104.5015
" />
<path d="M196.3640 104.5015
L196.5545 104.4063
" />
<path d="M196.5545 104.4063
L196.8402 104.4063
" />
<path d="M196.8402 104.4063
L197.0307 104.5015
" />
<path d="M197.0307 104.5015
L197.1259 104.6920
" />
<path d="M197.1259 104.6920
L197.1259 105.7396
" />
<path d="M198.9355 105.7396
L198.9355 103.7396
" />
<path d="M198.9355 105.6444
L198.7450 105.7396
" />
<path d="M198.7450 105.7396
L198.3640 105.7396
" />
<path d="M198.3640 105.7396
L198.1736 105.6444
" />
<path d="M198.1736 105.6444
L198.0783 105.5492
" />
<path d="M198.0783 105.5492
L197.9831 105.3587
" />
<path d="M197.9831 105.3587
L197.9831 104.7873
" />
<path d="M197.9831 104.7873
L198.0783 104.5968
" />
<path d="M198.0783 104.5968
L198.1736 104.5015
" />
<path d="M198.1736 104.5015
L198.3640 104.4063
" />
<path d="M198.3640 104.4063
L198.7450 104.4063
" />
<path d="M198.7450 104.4063
L198.9355 104.5015
" />
</g><path style="fill:#FFFFFF; fill-opacity:1.0000; stroke:none;fill-rule:evenodd;"
d="M 177.6716,98.0656
177.6716,98.2880
177.4964,98.2880
177.3212,98.2880
177.3212,98.0656
177.3212,97.8433
177.4964,97.8433
177.6716,97.8433
Z" /> 
<path style="fill:#FFFFFF; fill-opacity:1.0000; stroke:none;fill-rule:evenodd;"
d="M 177.6716,100.0262
177.6716,101.2120
177.4964,101.2120
177.3212,101.2120
177.3212,100.0262
177.3212,98.8405
177.4964,98.8405
177.6716,98.8405
Z" /> 
<path style="fill:#FFFFFF; fill-opacity:1.0000; stroke:none;fill-rule:evenodd;"
d="M 193.7066,99.5344
193.7066,101.2120
193.3764,101.2120
193.0463,101.2120
193.0463,99.5344
193.0463,97.8568
193.3764,97.8568
193.7066,97.8568
Z" /> 
<path style="fill:#FFFFFF; fill-opacity:1.0000; stroke:none;fill-rule:evenodd;"
d="M 176.7957,98.0387
176.7957,98.2071
175.9468,98.2071
175.0979,98.2071
175.0979,99.7096
175.0979,101.2120
174.8958,101.2120
174.6936,101.2120
174.6936,99.7096
174.6936,98.2071
173.8447,98.2071
172.9958,98.2071
172.9958,98.0387
172.9958,97.8703
174.8958,97.8703
176.7957,97.8703
Z" /> 
<path style="fill:#FFFFFF; fill-opacity:1.0000; stroke:none;fill-rule:evenodd;"
d="M 198.3369,98.8705
198.6962,98.8741
199.0372,99.7954
199.0928,99.9456
199.1458,100.0884
199.1953,100.2217
199.2407,100.3435
199.2811,100.4518
199.3158,100.5447
199.3441,100.6201
199.3653,100.6760
199.3785,100.7105
199.3831,100.7216
199.3885,100.7101
199.4025,100.6753
199.4243,100.6191
199.4533,100.5436
199.4887,100.4506
199.5297,100.3422
199.5757,100.2203
199.6258,100.0868
199.6792,99.9438
199.7327,99.8003
200.0775,98.8741
200.4393,98.8707
200.8011,98.8673
201.1441,99.7965
201.1998,99.9472
201.2529,100.0901
201.3026,100.2233
201.3481,100.3449
201.3887,100.4529
201.4237,100.5454
201.4523,100.6203
201.4739,100.6757
201.4876,100.7097
201.4927,100.7203
201.4982,100.7071
201.5125,100.6707
201.5348,100.6130
201.5643,100.5362
201.6002,100.4420
201.6419,100.3326
201.6885,100.2100
201.7393,100.0760
201.7936,99.9328
201.8459,99.7945
202.1936,98.8741
202.5498,98.8706
202.9059,98.8670
202.4333,100.0395
201.9607,101.2120
201.4954,101.2119
201.0301,101.2119
200.7484,100.4182
200.6984,100.2776
200.6508,100.1439
200.6064,100.0192
200.5660,99.9060
200.5304,99.8065
200.5004,99.7230
200.4769,99.6577
200.4606,99.6129
200.4524,99.5910
200.4519,99.5899
200.4482,99.5849
200.4431,99.5862
200.4358,99.5954
200.4257,99.6142
200.4121,99.6442
200.3945,99.6872
200.3720,99.7448
200.3440,99.8187
200.3100,99.9106
200.2691,100.0222
200.2208,100.1551
200.1644,100.3111
200.1395,100.3802
199.8417,101.2053
199.3824,101.2088
199.2739,101.2094
199.1741,101.2093
199.0863,101.2087
199.0136,101.2076
198.9591,101.2059
198.9259,101.2039
198.9169,101.2021
198.9111,101.1883
198.8960,101.1513
198.8723,101.0929
198.8408,101.0149
198.8022,100.9190
198.7571,100.8072
198.7065,100.6810
198.6508,100.5425
198.5910,100.3933
198.5276,100.2353
198.4654,100.0801
198.3990,99.9144
198.3351,99.7549
198.2745,99.6037
198.2179,99.4627
198.1662,99.3336
198.1199,99.2184
198.0800,99.1191
198.0472,99.0373
198.0221,98.9752
198.0057,98.9345
197.9988,98.9177
197.9775,98.8670
Z" /> 
<path style="fill:#FFFFFF; fill-opacity:1.0000; stroke:none;fill-rule:evenodd;"
d="M 184.6246,98.5058
184.6246,99.1682
184.6802,99.0905
184.7421,99.0189
184.8180,98.9593
184.9108,98.9101
185.0234,98.8698
185.1589,98.8369
185.1905,98.8308
185.2483,98.8231
185.3289,98.8168
185.4280,98.8118
185.5416,98.8081
185.6654,98.8058
185.7953,98.8048
185.9271,98.8052
186.0567,98.8068
186.1799,98.8099
186.2924,98.8142
186.3902,98.8199
186.4692,98.8269
186.5011,98.8310
186.6643,98.8619
186.8040,98.9026
186.9226,98.9543
187.0221,99.0182
187.1047,99.0956
187.1726,99.1877
187.1956,99.2282
187.2397,99.3311
187.2754,99.4551
187.3025,99.5957
187.3213,99.7485
187.3315,99.9090
187.3334,100.0727
187.3267,100.2352
187.3117,100.3919
187.2881,100.5383
187.2562,100.6701
187.2157,100.7827
187.1956,100.8243
187.1311,100.9246
187.0516,101.0092
186.9552,101.0795
186.8398,101.1364
186.7035,101.1811
186.5445,101.2148
186.5110,101.2201
186.4579,101.2259
186.3822,101.2313
186.2883,101.2360
186.1805,101.2400
186.0632,101.2433
185.9407,101.2458
185.8175,101.2474
185.6979,101.2480
185.5863,101.2477
185.4869,101.2462
185.4043,101.2436
185.3426,101.2397
185.3320,101.2387
185.1725,101.2163
185.0368,101.1862
184.9225,101.1473
184.8273,101.0986
184.7487,101.0391
184.6845,100.9678
184.6784,100.9594
184.6246,100.8842
184.6246,101.0481
184.6246,101.2120
184.4494,101.2120
184.2742,101.2120
184.2742,100.0646
184.6293,100.0646
184.6312,100.1748
184.6352,100.2783
184.6415,100.3695
184.6500,100.4430
184.6565,100.4776
184.6891,100.5889
184.7321,100.6803
184.7880,100.7541
184.8598,100.8129
184.9501,100.8591
185.0618,100.8949
185.1636,100.9169
185.2071,100.9226
185.2719,100.9283
185.3526,100.9337
185.4436,100.9386
185.5393,100.9427
185.6340,100.9457
185.7224,100.9475
185.7987,100.9478
185.8508,100.9467
185.8961,100.9449
185.9609,100.9425
186.0376,100.9398
186.1186,100.9370
186.1472,100.9360
186.3087,100.9263
186.4463,100.9086
186.5619,100.8822
186.6576,100.8462
186.7353,100.7999
186.7972,100.7427
186.8404,100.6820
186.8756,100.6044
186.9049,100.5043
186.9278,100.3856
186.9436,100.2525
186.9519,100.1086
186.9521,99.9581
186.9499,99.8990
186.9382,99.7388
186.9191,99.6027
186.8911,99.4886
186.8529,99.3943
186.8032,99.3177
186.7406,99.2566
186.6638,99.2089
186.5715,99.1725
186.4780,99.1483
186.4061,99.1368
186.3117,99.1272
186.1995,99.1195
186.0738,99.1138
185.9391,99.1100
185.8000,99.1083
185.6608,99.1086
185.5262,99.1110
185.4004,99.1155
185.2882,99.1221
185.1938,99.1308
185.1231,99.1414
185.0041,99.1703
184.9077,99.2071
184.8306,99.2549
184.7696,99.3170
184.7215,99.3964
184.6832,99.4965
184.6540,99.6081
184.6445,99.6683
184.6373,99.7496
184.6323,99.8465
184.6297,99.9533
184.6293,100.0646
184.2742,100.0646
184.2742,99.5277
184.2742,97.8433
184.4494,97.8433
184.6246,97.8433
Z" /> 
<path style="fill:#FFFFFF; fill-opacity:1.0000; stroke:none;fill-rule:evenodd;"
d="M 180.0516,98.8008
180.1585,98.8025
180.2539,98.8058
180.3317,98.8105
180.3669,98.8140
180.5201,98.8394
180.6504,98.8758
180.7599,98.9246
180.8510,98.9869
180.9258,99.0642
180.9865,99.1577
181.0015,99.1874
181.0435,99.2755
181.0832,99.2014
181.1456,99.1046
181.2212,99.0237
181.3127,98.9573
181.4224,98.9039
181.5530,98.8619
181.6930,98.8322
181.7553,98.8241
181.8393,98.8171
181.9401,98.8113
182.0524,98.8068
182.1711,98.8036
182.2912,98.8019
182.4074,98.8018
182.5147,98.8034
182.6079,98.8068
182.6820,98.8120
182.6862,98.8124
182.8493,98.8352
182.9888,98.8677
183.1067,98.9114
183.2050,98.9677
183.2857,99.0378
183.3507,99.1231
183.4021,99.2249
183.4346,99.3188
183.4393,99.3369
183.4434,99.3581
183.4469,99.3843
183.4499,99.4177
183.4524,99.4603
183.4545,99.5141
183.4562,99.5813
183.4577,99.6638
183.4590,99.7638
183.4600,99.8832
183.4610,100.0242
183.4619,100.1888
183.4625,100.3058
183.4668,101.2120
183.2911,101.2120
183.1154,101.2120
183.1150,100.4338
183.1147,100.2881
183.1140,100.1478
183.1129,100.0157
183.1115,99.8947
183.1098,99.7874
183.1078,99.6968
183.1057,99.6256
183.1034,99.5765
183.1017,99.5568
183.0832,99.4586
183.0540,99.3747
183.0123,99.3042
182.9563,99.2462
182.8844,99.1998
182.7948,99.1640
182.6856,99.1380
182.5552,99.1207
182.4018,99.1113
182.2528,99.1088
182.0507,99.1132
181.8728,99.1271
181.7177,99.1512
181.5841,99.1859
181.4709,99.2320
181.3767,99.2899
181.3002,99.3603
181.2402,99.4437
181.1954,99.5406
181.1800,99.5883
181.1749,99.6083
181.1706,99.6320
181.1670,99.6617
181.1639,99.6997
181.1613,99.7481
181.1591,99.8093
181.1573,99.8855
181.1557,99.9789
181.1543,100.0919
181.1530,100.2265
181.1518,100.3852
181.1514,100.4406
181.1459,101.2120
180.9718,101.2120
180.7977,101.2120
180.7973,100.4338
180.7970,100.2881
180.7963,100.1478
180.7952,100.0157
180.7938,99.8947
180.7921,99.7874
180.7902,99.6968
180.7880,99.6256
180.7857,99.5765
180.7840,99.5568
180.7658,99.4593
180.7372,99.3760
180.6964,99.3059
180.6417,99.2481
180.5713,99.2018
180.4834,99.1660
180.3763,99.1397
180.2482,99.1221
180.0974,99.1123
179.9220,99.1093
179.9219,99.1093
179.7707,99.1111
179.6418,99.1167
179.5306,99.1266
179.4326,99.1413
179.3432,99.1613
179.2649,99.1847
179.1463,99.2331
179.0502,99.2922
178.9735,99.3652
178.9130,99.4550
178.8680,99.5569
178.8616,99.5753
178.8561,99.5933
178.8515,99.6131
178.8476,99.6370
178.8444,99.6673
178.8419,99.7063
178.8398,99.7561
178.8382,99.8190
178.8369,99.8974
178.8359,99.9935
178.8349,100.1095
178.8341,100.2478
178.8332,100.4105
178.8331,100.4271
178.8288,101.2120
178.6544,101.2120
178.4801,101.2120
178.4801,100.0262
178.4801,98.8405
178.6552,98.8405
178.8304,98.8405
178.8304,99.0579
178.8304,99.2753
178.8775,99.1811
178.9346,99.0863
179.0044,99.0075
179.0890,98.9433
179.1908,98.8926
179.3121,98.8541
179.4551,98.8265
179.5507,98.8148
179.6267,98.8090
179.7206,98.8047
179.8267,98.8019
179.9390,98.8006
Z" /> 
<path style="fill:#FFFFFF; fill-opacity:1.0000; stroke:none;fill-rule:evenodd;"
d="M 196.1973,98.8344
196.3198,98.8352
196.4219,98.8367
196.5070,98.8388
196.5782,98.8418
196.6390,98.8458
196.6926,98.8508
196.7423,98.8569
196.7467,98.8576
196.9099,98.8857
197.0498,98.9211
197.1691,98.9649
197.2706,99.0181
197.3571,99.0820
197.3924,99.1150
197.4502,99.1804
197.4966,99.2512
197.5332,99.3314
197.5613,99.4252
197.5826,99.5368
197.5986,99.6704
197.6005,99.6912
197.6114,99.8637
197.6145,100.0383
197.6099,100.2092
197.5979,100.3708
197.5788,100.5175
197.5537,100.6404
197.5158,100.7635
197.4686,100.8647
197.4087,100.9485
197.3329,101.0193
197.2378,101.0815
197.2117,101.0957
197.1484,101.1261
197.0811,101.1522
197.0073,101.1745
196.9246,101.1931
196.8307,101.2084
196.7232,101.2206
196.5996,101.2301
196.4574,101.2372
196.2944,101.2421
196.1082,101.2453
196.0040,101.2462
195.8791,101.2468
195.7579,101.2468
195.6442,101.2462
195.5416,101.2451
195.4540,101.2435
195.3850,101.2414
195.3382,101.2389
195.3303,101.2383
195.2605,101.2298
195.1785,101.2177
195.0980,101.2039
195.0697,101.1985
194.9185,101.1609
194.7904,101.1116
194.6834,101.0488
194.5956,100.9706
194.5249,100.8752
194.4692,100.7605
194.4267,100.6248
194.4169,100.5828
194.4085,100.5424
194.4019,100.5038
194.3968,100.4630
194.3932,100.4162
194.3906,100.3594
194.3891,100.2890
194.3882,100.2009
194.3879,100.0913
194.3879,100.0464
195.0546,100.0464
195.0586,100.1989
195.0716,100.3275
195.0953,100.4344
195.1314,100.5216
195.1814,100.5912
195.2470,100.6453
195.3299,100.6860
195.4317,100.7153
195.5540,100.7354
195.6018,100.7406
195.6565,100.7441
195.7320,100.7463
195.8232,100.7474
195.9250,100.7474
196.0323,100.7464
196.1400,100.7444
196.2431,100.7416
196.3364,100.7380
196.4148,100.7338
196.4733,100.7289
196.4891,100.7269
196.6084,100.7030
196.7048,100.6683
196.7809,100.6204
196.8394,100.5572
196.8826,100.4765
196.9134,100.3762
196.9148,100.3698
196.9224,100.3186
196.9280,100.2469
196.9315,100.1610
196.9329,100.0674
196.9323,99.9723
196.9296,99.8822
196.9248,99.8034
196.9180,99.7423
196.9155,99.7286
196.8849,99.6188
196.8401,99.5308
196.7798,99.4628
196.7024,99.4128
196.6557,99.3935
196.6017,99.3762
196.5462,99.3626
196.4854,99.3522
196.4151,99.3446
196.3316,99.3395
196.2309,99.3365
196.1090,99.3352
196.0445,99.3350
195.8752,99.3364
195.7302,99.3409
195.6073,99.3488
195.5039,99.3606
195.4175,99.3768
195.3458,99.3977
195.2864,99.4239
195.2367,99.4557
195.2032,99.4847
195.1538,99.5431
195.1153,99.6129
195.0869,99.6969
195.0679,99.7982
195.0574,99.9198
195.0546,100.0464
194.3879,100.0464
194.3879,100.0397
194.3880,99.9205
194.3886,99.8243
194.3899,99.7473
194.3919,99.6856
194.3951,99.6353
194.3996,99.5925
194.4055,99.5533
194.4131,99.5138
194.4174,99.4940
194.4561,99.3560
194.5079,99.2400
194.5747,99.1431
194.6585,99.0628
194.7611,98.9964
194.7885,98.9824
194.8612,98.9502
194.9398,98.9227
195.0269,98.8994
195.1247,98.8802
195.2355,98.8647
195.3616,98.8527
195.5055,98.8439
195.6694,98.8381
195.8557,98.8349
196.0512,98.8341
Z" /> 
<path style="fill:#FFFFFF; fill-opacity:1.0000; stroke:none;fill-rule:evenodd;"
d="M 190.5371,97.8441
190.7248,97.8456
190.8897,97.8482
191.0336,97.8520
191.1587,97.8570
191.2668,97.8633
191.3601,97.8710
191.4405,97.8802
191.4698,97.8843
191.6385,97.9169
191.7846,97.9616
191.9094,98.0199
192.0141,98.0932
192.1000,98.1829
192.1684,98.2905
192.2205,98.4174
192.2575,98.5650
192.2809,98.7349
192.2864,98.8052
192.2957,98.9482
191.9114,98.9482
191.5272,98.9482
191.5208,98.8486
191.5033,98.7438
191.4654,98.6566
191.4073,98.5871
191.3290,98.5354
191.2637,98.5104
191.2268,98.5003
191.1874,98.4917
191.1434,98.4845
191.0925,98.4785
191.0326,98.4737
190.9615,98.4701
190.8770,98.4675
190.7768,98.4658
190.6589,98.4650
190.5210,98.4649
190.3609,98.4656
190.1765,98.4668
190.1412,98.4671
189.9664,98.4686
189.8164,98.4701
189.6889,98.4718
189.5818,98.4736
189.4927,98.4756
189.4196,98.4780
189.3602,98.4808
189.3122,98.4839
189.2735,98.4877
189.2419,98.4920
189.2225,98.4954
189.1131,98.5232
189.0259,98.5609
188.9578,98.6119
188.9055,98.6793
188.8657,98.7663
188.8353,98.8762
188.8335,98.8844
188.8267,98.9308
188.8206,98.9999
188.8154,99.0875
188.8109,99.1894
188.8075,99.3015
188.8050,99.4194
188.8036,99.5390
188.8034,99.6561
188.8045,99.7664
188.8068,99.8659
188.8105,99.9501
188.8141,99.9989
188.8307,100.1372
188.8537,100.2517
188.8845,100.3451
188.9243,100.4201
188.9746,100.4794
189.0366,100.5255
189.0856,100.5506
189.1206,100.5651
189.1564,100.5776
189.1953,100.5882
189.2397,100.5970
189.2920,100.6043
189.3545,100.6103
189.4297,100.6151
189.5199,100.6190
189.6275,100.6221
189.7548,100.6245
189.9044,100.6266
190.0784,100.6285
190.0819,100.6285
190.2834,100.6301
190.4601,100.6307
190.6138,100.6302
190.7466,100.6283
190.8606,100.6250
190.9576,100.6200
191.0398,100.6133
191.1091,100.6047
191.1675,100.5940
191.2172,100.5811
191.2599,100.5658
191.2979,100.5480
191.3223,100.5341
191.3927,100.4778
191.4534,100.4031
191.4987,100.3181
191.5152,100.2682
191.5248,100.2202
191.5343,100.1564
191.5419,100.0880
191.5440,100.0627
191.5538,99.9319
190.8111,99.9319
190.0684,99.9319
190.0684,99.6759
190.0684,99.4199
191.1885,99.4199
192.3087,99.4199
192.3014,99.8679
192.2983,100.0245
192.2942,100.1574
192.2887,100.2700
192.2816,100.3654
192.2725,100.4470
192.2610,100.5181
192.2469,100.5820
192.2298,100.6419
192.2193,100.6734
192.1614,100.8068
192.0871,100.9194
191.9948,101.0127
191.8833,101.0879
191.7512,101.1466
191.7185,101.1576
191.6776,101.1704
191.6389,101.1816
191.6003,101.1913
191.5598,101.1995
191.5152,101.2065
191.4644,101.2123
191.4053,101.2171
191.3358,101.2209
191.2538,101.2240
191.1572,101.2263
191.0439,101.2281
190.9117,101.2294
190.7586,101.2304
190.5825,101.2312
190.4120,101.2319
190.2504,101.2323
190.0950,101.2327
189.9481,101.2329
189.8122,101.2329
189.6895,101.2328
189.5825,101.2326
189.4936,101.2322
189.4250,101.2317
189.3792,101.2311
189.3610,101.2306
189.2007,101.2207
189.0640,101.2100
188.9474,101.1979
188.8477,101.1838
188.7613,101.1672
188.6850,101.1475
188.6154,101.1240
188.5490,101.0961
188.5230,101.0838
188.3953,101.0084
188.2885,100.9162
188.2020,100.8066
188.1350,100.6785
188.1029,100.5890
188.0861,100.5314
188.0720,100.4750
188.0603,100.4170
188.0507,100.3545
188.0431,100.2847
188.0373,100.2048
188.0330,100.1119
188.0300,100.0033
188.0281,99.8759
188.0272,99.7271
188.0269,99.5681
188.0272,99.3965
188.0281,99.2491
188.0299,99.1229
188.0326,99.0151
188.0365,98.9229
188.0417,98.8434
188.0485,98.7738
188.0569,98.7112
188.0673,98.6529
188.0796,98.5958
188.0885,98.5593
188.1387,98.4117
188.2098,98.2807
188.3009,98.1672
188.4109,98.0723
188.5388,97.9970
188.6835,97.9424
188.7246,97.9315
188.8091,97.9135
188.9066,97.8979
189.0186,97.8844
189.1468,97.8729
189.2926,97.8635
189.4576,97.8560
189.6434,97.8504
189.8515,97.8465
190.0836,97.8442
190.3244,97.8436
Z" /> 
</g> 
</svg>
