  0
SECTION
  2
HEADER
  9
$ANGBASE
  50
0.0
  9
$ANGDIR
  70
1
  9
$MEASUREMENT
  70
1
  0
ENDSEC
  0
SECTION
  2
TABLES
  0
TABLE
  2
LTYPE
  70
4
  0
LTYPE
  5
40F
  2
CONTINUOUS
  70
0
  3
Solid line
  72
65
  73
0
  40
0.0
  0
LTYPE
  5
410
  2
DASHDOT
 70
0
  3
Dash Dot ____ _ ____ _
 72
65
 73
4
 40
2.0
 49
1.25
 49
-0.25
 49
0.25
 49
-0.25
  0
LTYPE
  5
411
  2
DASHED
 70
0
  3
Dashed __ __ __ __ __
 72
65
 73
2
 40
0.75
 49
0.5
 49
-0.25
  0
LTYPE
  5
43B
  2
DOTTED
 70
0
  3
Dotted .  .  .  .
 72
65
 73
2
 40
0.2
 49
0.0
 49
-0.2
  0
ENDTAB
  0
TABLE
  2
STYLE
  70
4
  0
STYLE
  2
KICAD
  70
0
  40
0
  41
1
  42
1
  50
0
  71
0
  3
isocp.shx
  0
STYLE
  2
KICADB
  70
0
  40
0
  41
1
  42
1
  50
0
  71
0
  3
isocp.shx
  0
STYLE
  2
KICADI
  70
0
  40
0
  41
1
  42
1
  50
15
  71
0
  3
isocp.shx
  0
STYLE
  2
KICADBI
  70
0
  40
0
  41
1
  42
1
  50
15
  71
0
  3
isocp.shx
  0
ENDTAB
  0
TABLE
  2
LAYER
  70
1
  0
LAYER
  2
BLACK
  70
0
  62
7
  6
CONTINUOUS
  0
ENDTAB
  0
ENDSEC
  0
SECTION
  2
ENTITIES
0
LINE
8
BLACK
6
CONTINUOUS
10
21.
20
-40.
11
41.
21
-40.
0
LINE
8
BLACK
6
CONTINUOUS
10
41.
20
-40.
11
41.
21
-90.
0
LINE
8
BLACK
6
CONTINUOUS
10
41.
20
-90.
11
21.
21
-90.
0
LINE
8
BLACK
6
CONTINUOUS
10
21.
20
-90.
11
21.
21
-40.
0
LINE
8
BLACK
6
CONTINUOUS
10
19.0000159999999987
20
-37.000001999999995
11
44.
21
-37.
0
LINE
8
BLACK
6
CONTINUOUS
10
43.9999940000000009
20
-93.000001999999995
11
19.0000099999999996
21
-93.0000039999999899
0
LINE
8
BLACK
6
CONTINUOUS
10
44.
20
-37.
11
43.9999940000000009
21
-93.000001999999995
0
LINE
8
BLACK
6
CONTINUOUS
10
65.9999969999999934
20
-114.9999959999999959
11
65.9999969999999934
21
-111.9999959999999959
0
LINE
8
BLACK
6
CONTINUOUS
10
47.
20
-124.9999979999999908
11
47.
21
-120.9999979999999908
0
LINE
8
BLACK
6
CONTINUOUS
10
191.
20
-121.0000009999999975
11
200.000001999999995
21
-120.9999809999999911
0
LINE
8
BLACK
6
CONTINUOUS
10
29.9999979999999979
20
-14.9999959999999994
11
191.
21
-14.9999969999999987
0
LINE
8
BLACK
6
CONTINUOUS
10
169.9999969999999792
20
-111.9999959999999959
11
163.9999969999999792
21
-111.9999959999999959
0
LINE
8
BLACK
6
CONTINUOUS
10
15.
20
-29.9999799999999972
11
14.9999959999999994
21
-99.9999929999999893
0
LINE
8
BLACK
6
CONTINUOUS
10
47.
20
-22.9999970000000005
11
47.
21
-18.9999970000000005
0
LINE
8
BLACK
6
CONTINUOUS
10
183.
20
-23.
11
47.
21
-22.9999970000000005
0
LINE
8
BLACK
6
CONTINUOUS
10
43.9881519999999995
20
-107.0000229999999988
11
43.988158999999996
21
-110.9999849999999952
0
ARC
8
BLACK
10
200.
20
-100.
40
14.9999960000008326
50
-90.00002292
51
0.00001910
0
LINE
8
BLACK
6
CONTINUOUS
10
183.
20
-125.0000009999999975
11
47.
21
-124.9999979999999908
0
LINE
8
BLACK
6
CONTINUOUS
10
214.9999959999999817
20
-99.9999649999999889
11
214.9999949999999842
21
-29.9999969999999969
0
LINE
8
BLACK
6
CONTINUOUS
10
182.988158999999996
20
-106.9999880000000019
11
182.988158999999996
21
-110.9999880000000019
0
LINE
8
BLACK
6
CONTINUOUS
10
163.9999969999999792
20
-114.9998250000000013
11
65.9999969999999934
21
-114.9999959999999959
0
LINE
8
BLACK
6
CONTINUOUS
10
29.9999959999999994
20
-114.9999949999999984
11
29.9999849999999988
21
-107.0000280000000004
0
LINE
8
BLACK
6
CONTINUOUS
10
22.9999679999999991
20
-29.9999959999999994
11
23.0000059999999991
21
-33.9999949999999984
0
LINE
8
BLACK
6
CONTINUOUS
10
210.9999899999999968
20
-36.9999880000000019
11
210.9999899999999968
21
-33.9999880000000019
0
LINE
8
BLACK
6
CONTINUOUS
10
44.
20
-124.9999979999999908
11
29.9881749999999982
21
-124.9999679999999955
0
LINE
8
BLACK
6
CONTINUOUS
10
47.
20
-130.999998000000005
11
47.
21
-126.9999979999999908
0
LINE
8
BLACK
6
CONTINUOUS
10
47.
20
-130.999998000000005
11
44.
21
-130.999998000000005
0
LINE
8
BLACK
6
CONTINUOUS
10
183.
20
-127.0000009999999975
11
183.
21
-131.0000009999999975
0
LINE
8
BLACK
6
CONTINUOUS
10
59.9999970000000005
20
-111.9999959999999959
11
59.9999970000000005
21
-114.9999959999999959
0
LINE
8
BLACK
6
CONTINUOUS
10
206.9999839999999836
20
-92.9999899999999968
11
206.9999899999999968
21
-36.9999880000000019
0
LINE
8
BLACK
6
CONTINUOUS
10
29.9999979999999979
20
-116.9999969999999934
11
191.
21
-116.9999979999999908
0
LINE
8
BLACK
6
CONTINUOUS
10
29.9881749999999982
20
-22.9999669999999981
11
29.9999979999999979
21
-14.9999959999999994
0
LINE
8
BLACK
6
CONTINUOUS
10
199.9999939999999867
20
-114.9999949999999984
11
199.9999829999999861
21
-107.0000280000000004
0
LINE
8
BLACK
6
CONTINUOUS
10
183.
20
-19.
11
183.
21
-23.
0
LINE
8
BLACK
6
CONTINUOUS
10
170.0118379999999831
20
-132.0000090000000057
11
164.0118379999999831
21
-132.0000090000000057
0
LINE
8
BLACK
6
CONTINUOUS
10
46.988158999999996
20
-110.9999849999999952
11
43.988158999999996
21
-110.9999849999999952
0
LINE
8
BLACK
6
CONTINUOUS
10
65.9999969999999934
20
-111.9999959999999959
11
59.9999970000000005
21
-111.9999959999999959
0
LINE
8
BLACK
6
CONTINUOUS
10
191.
20
-14.9999969999999987
11
191.
21
-19.
0
LINE
8
BLACK
6
CONTINUOUS
10
200.0000069999999823
20
-22.9999629999999975
11
199.9999959999999817
21
-14.9999959999999994
0
LINE
8
BLACK
6
CONTINUOUS
10
19.
20
-92.9999969999999934
11
19.
21
-95.9999969999999934
0
LINE
8
BLACK
6
CONTINUOUS
10
44.
20
-22.9999970000000005
11
29.9881749999999982
21
-22.9999669999999981
0
LINE
8
BLACK
6
CONTINUOUS
10
199.9999919999999918
20
-22.9999629999999975
11
186.0000069999999823
21
-22.999962
0
ARC
8
BLACK
10
200.
20
-100.
40
7.0000210000086422
50
-90.00013096
51
0.00009004
0
LINE
8
BLACK
6
CONTINUOUS
10
66.0118379999999974
20
-135.0000090000000057
11
66.0118379999999974
21
-132.0000090000000057
0
LINE
8
BLACK
6
CONTINUOUS
10
60.0118379999999974
20
-132.0000090000000057
11
60.0118379999999974
21
-135.0000090000000057
0
LINE
8
BLACK
6
CONTINUOUS
10
164.0118379999999831
20
-134.9998379999999827
11
66.0118379999999974
21
-135.0000090000000057
0
LINE
8
BLACK
6
CONTINUOUS
10
23.
20
-95.9999969999999934
11
22.9999690000000001
21
-99.9999859999999927
0
LINE
8
BLACK
6
CONTINUOUS
10
19.
20
-95.9999969999999934
11
23.
21
-95.9999969999999934
0
LINE
8
BLACK
6
CONTINUOUS
10
210.9999899999999968
20
-33.9999880000000019
11
206.9999899999999968
21
-33.9999880000000019
0
LINE
8
BLACK
6
CONTINUOUS
10
206.9999899999999968
20
-36.9999880000000019
11
210.9999899999999968
21
-36.9999880000000019
0
LINE
8
BLACK
6
CONTINUOUS
10
210.9999839999999836
20
-92.9999899999999968
11
206.9999839999999836
21
-92.9999899999999968
0
LINE
8
BLACK
6
CONTINUOUS
10
46.988158999999996
20
-106.9999849999999952
11
182.988158999999996
21
-106.9999880000000019
0
LINE
8
BLACK
6
CONTINUOUS
10
66.0118379999999974
20
-132.0000090000000057
11
60.0118379999999974
21
-132.0000090000000057
0
LINE
8
BLACK
6
CONTINUOUS
10
47.
20
-18.9999970000000005
11
44.
21
-18.9999970000000005
0
LINE
8
BLACK
6
CONTINUOUS
10
47.
20
-126.9999979999999908
11
183.
21
-127.0000009999999975
0
LINE
8
BLACK
6
CONTINUOUS
10
186.0000069999999823
20
-124.9999629999999939
11
186.
21
-121.0000009999999975
0
LINE
8
BLACK
6
CONTINUOUS
10
191.
20
-19.
11
200.000001999999995
21
-18.9999800000000008
0
LINE
8
BLACK
6
CONTINUOUS
10
186.0000069999999823
20
-22.999962
11
186.
21
-19.
0
LINE
8
BLACK
6
CONTINUOUS
10
44.
20
-120.9999979999999908
11
44.
21
-124.9999979999999908
0
LINE
8
BLACK
6
CONTINUOUS
10
169.9999969999999792
20
-114.9999949999999984
11
169.9999969999999792
21
-111.9999959999999959
0
LINE
8
BLACK
6
CONTINUOUS
10
185.988158999999996
20
-110.9999880000000019
11
185.988158999999996
21
-106.9999880000000019
0
LINE
8
BLACK
6
CONTINUOUS
10
199.9999969999999792
20
-114.9999949999999984
11
169.9999969999999792
21
-114.9999949999999984
0
LINE
8
BLACK
6
CONTINUOUS
10
200.0118379999999831
20
-135.0000079999999798
11
170.0118379999999831
21
-135.0000079999999798
0
LINE
8
BLACK
6
CONTINUOUS
10
191.
20
-116.9999979999999908
11
191.
21
-121.0000009999999975
0
LINE
8
BLACK
6
CONTINUOUS
10
210.9999839999999836
20
-95.9999899999999968
11
210.9999839999999836
21
-92.9999899999999968
0
ARC
8
BLACK
10
200.
20
-30.
40
7.0000380000045714
50
0.00000819
51
90.00006548
0
LINE
8
BLACK
6
CONTINUOUS
10
183.
20
-131.0000009999999975
11
186.
21
-131.0000009999999975
0
LINE
8
BLACK
6
CONTINUOUS
10
186.
20
-131.0000009999999975
11
186.
21
-127.0000009999999975
0
LINE
8
BLACK
6
CONTINUOUS
10
200.0000069999999823
20
-124.9999639999999914
11
199.9999959999999817
21
-121.
0
LINE
8
BLACK
6
CONTINUOUS
10
59.9999970000000005
20
-114.9999959999999959
11
29.9999959999999994
21
-114.9999949999999984
0
ARC
8
BLACK
10
200.
20
-30.
40
15.0000050000005327
50
0.00001146
51
90.00001528
0
LINE
8
BLACK
6
CONTINUOUS
10
183.
20
-19.
11
186.
21
-19.
0
LINE
8
BLACK
6
CONTINUOUS
10
30.0118369999999999
20
-135.0000079999999798
11
30.0118259999999992
21
-127.000040999999996
0
LINE
8
BLACK
6
CONTINUOUS
10
185.988158999999996
20
-106.9999880000000019
11
199.9999839999999836
21
-107.0000179999999972
0
LINE
8
BLACK
6
CONTINUOUS
10
182.988158999999996
20
-110.9999880000000019
11
185.988158999999996
21
-110.9999880000000019
0
LINE
8
BLACK
6
CONTINUOUS
10
23.0000059999999991
20
-33.9999949999999984
11
19.0000059999999991
21
-33.9999949999999984
0
LINE
8
BLACK
6
CONTINUOUS
10
206.9999839999999836
20
-95.9999899999999968
11
210.9999839999999836
21
-95.9999899999999968
0
LINE
8
BLACK
6
CONTINUOUS
10
206.9999899999999968
20
-33.9999880000000019
11
207.0000210000000038
21
-29.999998999999999
0
LINE
8
BLACK
6
CONTINUOUS
10
43.9999929999999964
20
-127.0000359999999944
11
44.
21
-130.999998000000005
0
LINE
8
BLACK
6
CONTINUOUS
10
19.0000059999999991
20
-33.9999949999999984
11
19.0000059999999991
21
-36.9999949999999984
0
ARC
8
BLACK
10
30.
20
-100.
40
14.9999950000005313
50
-180.00002674
51
-90.00001528
0
ARC
8
BLACK
10
30.
20
-100.
40
7.0000230000006427
50
-180.00011459
51
-90.00002456
0
LINE
8
BLACK
6
CONTINUOUS
10
163.9999969999999792
20
-111.9999959999999959
11
163.9999969999999792
21
-114.9998250000000013
0
LINE
8
BLACK
6
CONTINUOUS
10
183.
20
-121.0000009999999975
11
186.
21
-121.0000009999999975
0
LINE
8
BLACK
6
CONTINUOUS
10
186.
20
-127.0000009999999975
11
200.0118249999999875
21
-127.0000309999999928
0
LINE
8
BLACK
6
CONTINUOUS
10
44.
20
-18.9999970000000005
11
44.
21
-22.9999970000000005
0
ARC
8
BLACK
10
30.
20
-30.
40
7.0000320000011422
50
89.99995907
51
179.99996726
0
LINE
8
BLACK
6
CONTINUOUS
10
29.9999969999999969
20
-107.0000229999999988
11
43.9881519999999995
21
-107.0000229999999988
0
ARC
8
BLACK
10
29.9999969999999969
20
-29.9999959999999994
40
15.000001000000033
50
89.99999618
51
179.99999618
0
LINE
8
BLACK
6
CONTINUOUS
10
207.0000220000000013
20
-99.9999889999999994
11
206.9999839999999836
21
-95.9999899999999968
0
LINE
8
BLACK
6
CONTINUOUS
10
46.988158999999996
20
-110.9999849999999952
11
46.988158999999996
21
-106.9999849999999952
0
LINE
8
BLACK
6
CONTINUOUS
10
164.0118379999999831
20
-132.0000090000000057
11
164.0118379999999831
21
-134.9998379999999827
0
LINE
8
BLACK
6
CONTINUOUS
10
183.
20
-121.0000009999999975
11
183.
21
-125.0000009999999975
0
LINE
8
BLACK
6
CONTINUOUS
10
60.0118379999999974
20
-135.0000090000000057
11
30.0118369999999999
21
-135.0000079999999798
0
LINE
8
BLACK
6
CONTINUOUS
10
29.9881749999999982
20
-124.9999679999999955
11
29.9999979999999979
21
-116.9999969999999934
0
LINE
8
BLACK
6
CONTINUOUS
10
47.
20
-120.9999979999999908
11
44.
21
-120.9999979999999908
0
LINE
8
BLACK
6
CONTINUOUS
10
199.9999919999999918
20
-124.9999639999999914
11
186.0000069999999823
21
-124.9999629999999939
0
LINE
8
BLACK
6
CONTINUOUS
10
170.0118379999999831
20
-135.0000079999999798
11
170.0118379999999831
21
-132.0000090000000057
0
LINE
8
BLACK
6
CONTINUOUS
10
30.0118379999999974
20
-127.0000359999999944
11
43.9999929999999964
21
-127.0000359999999944
0
LINE
8
BLACK
6
CONTINUOUS
10
200.0118349999999907
20
-135.0000079999999798
11
200.0118239999999901
21
-127.000040999999996
0
LINE
8
BLACK
6
CONTINUOUS
10
117.2261259999999936
20
-132.3683699999999988
11
117.2261259999999936
21
-129.3683699999999988
0
LINE
8
BLACK
6
CONTINUOUS
10
117.2261259999999936
20
-129.3683699999999988
11
116.5118399999999923
21
-129.3683699999999988
0
LINE
8
BLACK
6
CONTINUOUS
10
116.5118399999999923
20
-129.3683699999999988
11
116.0832690000000014
21
-129.511226999999991
0
LINE
8
BLACK
6
CONTINUOUS
10
116.0832690000000014
20
-129.511226999999991
11
115.797553999999991
21
-129.7969410000000039
0
LINE
8
BLACK
6
CONTINUOUS
10
115.797553999999991
20
-129.7969410000000039
11
115.6546969999999988
21
-130.0826549999999884
0
LINE
8
BLACK
6
CONTINUOUS
10
115.6546969999999988
20
-130.0826549999999884
11
115.5118399999999923
21
-130.6540839999999832
0
LINE
8
BLACK
6
CONTINUOUS
10
115.5118399999999923
20
-130.6540839999999832
11
115.5118399999999923
21
-131.0826549999999884
0
LINE
8
BLACK
6
CONTINUOUS
10
115.5118399999999923
20
-131.0826549999999884
11
115.6546969999999988
21
-131.6540839999999832
0
LINE
8
BLACK
6
CONTINUOUS
10
115.6546969999999988
20
-131.6540839999999832
11
115.797553999999991
21
-131.9397979999999961
0
LINE
8
BLACK
6
CONTINUOUS
10
115.797553999999991
20
-131.9397979999999961
11
116.0832690000000014
21
-132.2255130000000065
0
LINE
8
BLACK
6
CONTINUOUS
10
116.0832690000000014
20
-132.2255130000000065
11
116.5118399999999923
21
-132.3683699999999988
0
LINE
8
BLACK
6
CONTINUOUS
10
116.5118399999999923
20
-132.3683699999999988
11
117.2261259999999936
21
-132.3683699999999988
0
LINE
8
BLACK
6
CONTINUOUS
10
112.9404119999999949
20
-129.3683699999999988
11
113.5118399999999923
21
-129.3683699999999988
0
LINE
8
BLACK
6
CONTINUOUS
10
113.5118399999999923
20
-129.3683699999999988
11
113.797553999999991
21
-129.511226999999991
0
LINE
8
BLACK
6
CONTINUOUS
10
113.797553999999991
20
-129.511226999999991
11
113.9404119999999949
21
-129.6540839999999832
0
LINE
8
BLACK
6
CONTINUOUS
10
113.9404119999999949
20
-129.6540839999999832
11
114.2261259999999936
21
-130.0826549999999884
0
LINE
8
BLACK
6
CONTINUOUS
10
114.2261259999999936
20
-130.0826549999999884
11
114.3689830000000001
21
-130.6540839999999832
0
LINE
8
BLACK
6
CONTINUOUS
10
114.3689830000000001
20
-130.6540839999999832
11
114.3689830000000001
21
-131.7969410000000039
0
LINE
8
BLACK
6
CONTINUOUS
10
114.3689830000000001
20
-131.7969410000000039
11
114.2261259999999936
21
-132.0826549999999884
0
LINE
8
BLACK
6
CONTINUOUS
10
114.2261259999999936
20
-132.0826549999999884
11
114.0832690000000014
21
-132.2255130000000065
0
LINE
8
BLACK
6
CONTINUOUS
10
114.0832690000000014
20
-132.2255130000000065
11
113.797553999999991
21
-132.3683699999999988
0
LINE
8
BLACK
6
CONTINUOUS
10
113.797553999999991
20
-132.3683699999999988
11
113.2261259999999936
21
-132.3683699999999988
0
LINE
8
BLACK
6
CONTINUOUS
10
113.2261259999999936
20
-132.3683699999999988
11
112.9404119999999949
21
-132.2255130000000065
0
LINE
8
BLACK
6
CONTINUOUS
10
112.9404119999999949
20
-132.2255130000000065
11
112.797553999999991
21
-132.0826549999999884
0
LINE
8
BLACK
6
CONTINUOUS
10
112.797553999999991
20
-132.0826549999999884
11
112.6546969999999988
21
-131.7969410000000039
0
LINE
8
BLACK
6
CONTINUOUS
10
112.6546969999999988
20
-131.7969410000000039
11
112.6546969999999988
21
-131.0826549999999884
0
LINE
8
BLACK
6
CONTINUOUS
10
112.6546969999999988
20
-131.0826549999999884
11
112.797553999999991
21
-130.7969410000000039
0
LINE
8
BLACK
6
CONTINUOUS
10
112.797553999999991
20
-130.7969410000000039
11
112.9404119999999949
21
-130.6540839999999832
0
LINE
8
BLACK
6
CONTINUOUS
10
112.9404119999999949
20
-130.6540839999999832
11
113.2261259999999936
21
-130.511226999999991
0
LINE
8
BLACK
6
CONTINUOUS
10
113.2261259999999936
20
-130.511226999999991
11
113.797553999999991
21
-130.511226999999991
0
LINE
8
BLACK
6
CONTINUOUS
10
113.797553999999991
20
-130.511226999999991
11
114.0832690000000014
21
-130.6540839999999832
0
LINE
8
BLACK
6
CONTINUOUS
10
114.0832690000000014
20
-130.6540839999999832
11
114.2261259999999936
21
-130.7969410000000039
0
LINE
8
BLACK
6
CONTINUOUS
10
114.2261259999999936
20
-130.7969410000000039
11
114.3689830000000001
21
-131.0826549999999884
0
LINE
8
BLACK
6
CONTINUOUS
10
115.6428559999999948
20
-119.5112149999999929
11
115.9285709999999909
21
-119.3683580000000006
0
LINE
8
BLACK
6
CONTINUOUS
10
115.9285709999999909
20
-119.3683580000000006
11
116.3571419999999961
21
-119.3683580000000006
0
LINE
8
BLACK
6
CONTINUOUS
10
116.3571419999999961
20
-119.3683580000000006
11
116.7857130000000012
21
-119.5112149999999929
0
LINE
8
BLACK
6
CONTINUOUS
10
116.7857130000000012
20
-119.5112149999999929
11
117.0714279999999974
21
-119.7969289999999916
0
LINE
8
BLACK
6
CONTINUOUS
10
117.0714279999999974
20
-119.7969289999999916
11
117.2142849999999896
21
-120.0826429999999903
0
LINE
8
BLACK
6
CONTINUOUS
10
117.2142849999999896
20
-120.0826429999999903
11
117.3571419999999961
21
-120.6540719999999993
0
LINE
8
BLACK
6
CONTINUOUS
10
117.3571419999999961
20
-120.6540719999999993
11
117.3571419999999961
21
-121.0826429999999903
0
LINE
8
BLACK
6
CONTINUOUS
10
117.3571419999999961
20
-121.0826429999999903
11
117.2142849999999896
21
-121.6540719999999993
0
LINE
8
BLACK
6
CONTINUOUS
10
117.2142849999999896
20
-121.6540719999999993
11
117.0714279999999974
21
-121.939785999999998
0
LINE
8
BLACK
6
CONTINUOUS
10
117.0714279999999974
20
-121.939785999999998
11
116.7857130000000012
21
-122.2255009999999942
0
LINE
8
BLACK
6
CONTINUOUS
10
116.7857130000000012
20
-122.2255009999999942
11
116.3571419999999961
21
-122.3683580000000006
0
LINE
8
BLACK
6
CONTINUOUS
10
116.3571419999999961
20
-122.3683580000000006
11
116.0714279999999974
21
-122.3683580000000006
0
LINE
8
BLACK
6
CONTINUOUS
10
116.0714279999999974
20
-122.3683580000000006
11
115.6428559999999948
21
-122.2255009999999942
0
LINE
8
BLACK
6
CONTINUOUS
10
115.6428559999999948
20
-122.2255009999999942
11
115.4999989999999883
21
-122.0826429999999903
0
LINE
8
BLACK
6
CONTINUOUS
10
115.4999989999999883
20
-122.0826429999999903
11
115.4999989999999883
21
-121.0826429999999903
0
LINE
8
BLACK
6
CONTINUOUS
10
115.4999989999999883
20
-121.0826429999999903
11
116.0714279999999974
21
-121.0826429999999903
0
LINE
8
BLACK
6
CONTINUOUS
10
112.9285709999999909
20
-119.3683580000000006
11
113.4999989999999883
21
-119.3683580000000006
0
LINE
8
BLACK
6
CONTINUOUS
10
113.4999989999999883
20
-119.3683580000000006
11
113.7857130000000012
21
-119.5112149999999929
0
LINE
8
BLACK
6
CONTINUOUS
10
113.7857130000000012
20
-119.5112149999999929
11
113.9285709999999909
21
-119.6540719999999993
0
LINE
8
BLACK
6
CONTINUOUS
10
113.9285709999999909
20
-119.6540719999999993
11
114.2142849999999896
21
-120.0826429999999903
0
LINE
8
BLACK
6
CONTINUOUS
10
114.2142849999999896
20
-120.0826429999999903
11
114.3571419999999961
21
-120.6540719999999993
0
LINE
8
BLACK
6
CONTINUOUS
10
114.3571419999999961
20
-120.6540719999999993
11
114.3571419999999961
21
-121.7969289999999916
0
LINE
8
BLACK
6
CONTINUOUS
10
114.3571419999999961
20
-121.7969289999999916
11
114.2142849999999896
21
-122.0826429999999903
0
LINE
8
BLACK
6
CONTINUOUS
10
114.2142849999999896
20
-122.0826429999999903
11
114.0714279999999974
21
-122.2255009999999942
0
LINE
8
BLACK
6
CONTINUOUS
10
114.0714279999999974
20
-122.2255009999999942
11
113.7857130000000012
21
-122.3683580000000006
0
LINE
8
BLACK
6
CONTINUOUS
10
113.7857130000000012
20
-122.3683580000000006
11
113.2142849999999896
21
-122.3683580000000006
0
LINE
8
BLACK
6
CONTINUOUS
10
113.2142849999999896
20
-122.3683580000000006
11
112.9285709999999909
21
-122.2255009999999942
0
LINE
8
BLACK
6
CONTINUOUS
10
112.9285709999999909
20
-122.2255009999999942
11
112.7857130000000012
21
-122.0826429999999903
0
LINE
8
BLACK
6
CONTINUOUS
10
112.7857130000000012
20
-122.0826429999999903
11
112.6428559999999948
21
-121.7969289999999916
0
LINE
8
BLACK
6
CONTINUOUS
10
112.6428559999999948
20
-121.7969289999999916
11
112.6428559999999948
21
-121.0826429999999903
0
LINE
8
BLACK
6
CONTINUOUS
10
112.6428559999999948
20
-121.0826429999999903
11
112.7857130000000012
21
-120.7969289999999916
0
LINE
8
BLACK
6
CONTINUOUS
10
112.7857130000000012
20
-120.7969289999999916
11
112.9285709999999909
21
-120.6540719999999993
0
LINE
8
BLACK
6
CONTINUOUS
10
112.9285709999999909
20
-120.6540719999999993
11
113.2142849999999896
21
-120.5112149999999929
0
LINE
8
BLACK
6
CONTINUOUS
10
113.2142849999999896
20
-120.5112149999999929
11
113.7857130000000012
21
-120.5112149999999929
0
LINE
8
BLACK
6
CONTINUOUS
10
113.7857130000000012
20
-120.5112149999999929
11
114.0714279999999974
21
-120.6540719999999993
0
LINE
8
BLACK
6
CONTINUOUS
10
114.0714279999999974
20
-120.6540719999999993
11
114.2142849999999896
21
-120.7969289999999916
0
LINE
8
BLACK
6
CONTINUOUS
10
114.2142849999999896
20
-120.7969289999999916
11
114.3571419999999961
21
-121.0826429999999903
0
LINE
8
BLACK
6
CONTINUOUS
10
117.2142849999999896
20
-112.3683569999999889
11
117.2142849999999896
21
-109.3683569999999889
0
LINE
8
BLACK
6
CONTINUOUS
10
117.2142849999999896
20
-109.3683569999999889
11
116.4999989999999883
21
-109.3683569999999889
0
LINE
8
BLACK
6
CONTINUOUS
10
116.4999989999999883
20
-109.3683569999999889
11
116.0714279999999974
21
-109.5112139999999954
0
LINE
8
BLACK
6
CONTINUOUS
10
116.0714279999999974
20
-109.5112139999999954
11
115.7857130000000012
21
-109.7969279999999941
0
LINE
8
BLACK
6
CONTINUOUS
10
115.7857130000000012
20
-109.7969279999999941
11
115.6428559999999948
21
-110.0826419999999928
0
LINE
8
BLACK
6
CONTINUOUS
10
115.6428559999999948
20
-110.0826419999999928
11
115.4999989999999883
21
-110.6540710000000018
0
LINE
8
BLACK
6
CONTINUOUS
10
115.4999989999999883
20
-110.6540710000000018
11
115.4999989999999883
21
-111.0826419999999928
0
LINE
8
BLACK
6
CONTINUOUS
10
115.4999989999999883
20
-111.0826419999999928
11
115.6428559999999948
21
-111.6540710000000018
0
LINE
8
BLACK
6
CONTINUOUS
10
115.6428559999999948
20
-111.6540710000000018
11
115.7857130000000012
21
-111.9397850000000005
0
LINE
8
BLACK
6
CONTINUOUS
10
115.7857130000000012
20
-111.9397850000000005
11
116.0714279999999974
21
-112.2254999999999967
0
LINE
8
BLACK
6
CONTINUOUS
10
116.0714279999999974
20
-112.2254999999999967
11
116.4999989999999883
21
-112.3683569999999889
0
LINE
8
BLACK
6
CONTINUOUS
10
116.4999989999999883
20
-112.3683569999999889
11
117.2142849999999896
21
-112.3683569999999889
0
LINE
8
BLACK
6
CONTINUOUS
10
112.9285709999999909
20
-109.3683569999999889
11
113.4999989999999883
21
-109.3683569999999889
0
LINE
8
BLACK
6
CONTINUOUS
10
113.4999989999999883
20
-109.3683569999999889
11
113.7857130000000012
21
-109.5112139999999954
0
LINE
8
BLACK
6
CONTINUOUS
10
113.7857130000000012
20
-109.5112139999999954
11
113.9285709999999909
21
-109.6540710000000018
0
LINE
8
BLACK
6
CONTINUOUS
10
113.9285709999999909
20
-109.6540710000000018
11
114.2142849999999896
21
-110.0826419999999928
0
LINE
8
BLACK
6
CONTINUOUS
10
114.2142849999999896
20
-110.0826419999999928
11
114.3571419999999961
21
-110.6540710000000018
0
LINE
8
BLACK
6
CONTINUOUS
10
114.3571419999999961
20
-110.6540710000000018
11
114.3571419999999961
21
-111.7969279999999941
0
LINE
8
BLACK
6
CONTINUOUS
10
114.3571419999999961
20
-111.7969279999999941
11
114.2142849999999896
21
-112.0826419999999928
0
LINE
8
BLACK
6
CONTINUOUS
10
114.2142849999999896
20
-112.0826419999999928
11
114.0714279999999974
21
-112.2254999999999967
0
LINE
8
BLACK
6
CONTINUOUS
10
114.0714279999999974
20
-112.2254999999999967
11
113.7857130000000012
21
-112.3683569999999889
0
LINE
8
BLACK
6
CONTINUOUS
10
113.7857130000000012
20
-112.3683569999999889
11
113.2142849999999896
21
-112.3683569999999889
0
LINE
8
BLACK
6
CONTINUOUS
10
113.2142849999999896
20
-112.3683569999999889
11
112.9285709999999909
21
-112.2254999999999967
0
LINE
8
BLACK
6
CONTINUOUS
10
112.9285709999999909
20
-112.2254999999999967
11
112.7857130000000012
21
-112.0826419999999928
0
LINE
8
BLACK
6
CONTINUOUS
10
112.7857130000000012
20
-112.0826419999999928
11
112.6428559999999948
21
-111.7969279999999941
0
LINE
8
BLACK
6
CONTINUOUS
10
112.6428559999999948
20
-111.7969279999999941
11
112.6428559999999948
21
-111.0826419999999928
0
LINE
8
BLACK
6
CONTINUOUS
10
112.6428559999999948
20
-111.0826419999999928
11
112.7857130000000012
21
-110.7969279999999941
0
LINE
8
BLACK
6
CONTINUOUS
10
112.7857130000000012
20
-110.7969279999999941
11
112.9285709999999909
21
-110.6540710000000018
0
LINE
8
BLACK
6
CONTINUOUS
10
112.9285709999999909
20
-110.6540710000000018
11
113.2142849999999896
21
-110.5112139999999954
0
LINE
8
BLACK
6
CONTINUOUS
10
113.2142849999999896
20
-110.5112139999999954
11
113.7857130000000012
21
-110.5112139999999954
0
LINE
8
BLACK
6
CONTINUOUS
10
113.7857130000000012
20
-110.5112139999999954
11
114.0714279999999974
21
-110.6540710000000018
0
LINE
8
BLACK
6
CONTINUOUS
10
114.0714279999999974
20
-110.6540710000000018
11
114.2142849999999896
21
-110.7969279999999941
0
LINE
8
BLACK
6
CONTINUOUS
10
114.2142849999999896
20
-110.7969279999999941
11
114.3571419999999961
21
-111.0826419999999928
0
LINE
8
BLACK
6
CONTINUOUS
10
115.6428559999999948
20
-17.5112139999999989
11
115.9285709999999909
21
-17.3683569999999996
0
LINE
8
BLACK
6
CONTINUOUS
10
115.9285709999999909
20
-17.3683569999999996
11
116.3571419999999961
21
-17.3683569999999996
0
LINE
8
BLACK
6
CONTINUOUS
10
116.3571419999999961
20
-17.3683569999999996
11
116.7857130000000012
21
-17.5112139999999989
0
LINE
8
BLACK
6
CONTINUOUS
10
116.7857130000000012
20
-17.5112139999999989
11
117.0714279999999974
21
-17.7969279999999976
0
LINE
8
BLACK
6
CONTINUOUS
10
117.0714279999999974
20
-17.7969279999999976
11
117.2142849999999896
21
-18.0826419999999999
0
LINE
8
BLACK
6
CONTINUOUS
10
117.2142849999999896
20
-18.0826419999999999
11
117.3571419999999961
21
-18.6540709999999983
0
LINE
8
BLACK
6
CONTINUOUS
10
117.3571419999999961
20
-18.6540709999999983
11
117.3571419999999961
21
-19.0826419999999999
0
LINE
8
BLACK
6
CONTINUOUS
10
117.3571419999999961
20
-19.0826419999999999
11
117.2142849999999896
21
-19.6540709999999983
0
LINE
8
BLACK
6
CONTINUOUS
10
117.2142849999999896
20
-19.6540709999999983
11
117.0714279999999974
21
-19.9397850000000005
0
LINE
8
BLACK
6
CONTINUOUS
10
117.0714279999999974
20
-19.9397850000000005
11
116.7857130000000012
21
-20.2255000000000003
0
LINE
8
BLACK
6
CONTINUOUS
10
116.7857130000000012
20
-20.2255000000000003
11
116.3571419999999961
21
-20.3683569999999996
0
LINE
8
BLACK
6
CONTINUOUS
10
116.3571419999999961
20
-20.3683569999999996
11
116.0714279999999974
21
-20.3683569999999996
0
LINE
8
BLACK
6
CONTINUOUS
10
116.0714279999999974
20
-20.3683569999999996
11
115.6428559999999948
21
-20.2255000000000003
0
LINE
8
BLACK
6
CONTINUOUS
10
115.6428559999999948
20
-20.2255000000000003
11
115.4999989999999883
21
-20.0826419999999999
0
LINE
8
BLACK
6
CONTINUOUS
10
115.4999989999999883
20
-20.0826419999999999
11
115.4999989999999883
21
-19.0826419999999999
0
LINE
8
BLACK
6
CONTINUOUS
10
115.4999989999999883
20
-19.0826419999999999
11
116.0714279999999974
21
-19.0826419999999999
0
LINE
8
BLACK
6
CONTINUOUS
10
112.9285709999999909
20
-17.3683569999999996
11
113.4999989999999883
21
-17.3683569999999996
0
LINE
8
BLACK
6
CONTINUOUS
10
113.4999989999999883
20
-17.3683569999999996
11
113.7857130000000012
21
-17.5112139999999989
0
LINE
8
BLACK
6
CONTINUOUS
10
113.7857130000000012
20
-17.5112139999999989
11
113.9285709999999909
21
-17.6540709999999983
0
LINE
8
BLACK
6
CONTINUOUS
10
113.9285709999999909
20
-17.6540709999999983
11
114.2142849999999896
21
-18.0826419999999999
0
LINE
8
BLACK
6
CONTINUOUS
10
114.2142849999999896
20
-18.0826419999999999
11
114.3571419999999961
21
-18.6540709999999983
0
LINE
8
BLACK
6
CONTINUOUS
10
114.3571419999999961
20
-18.6540709999999983
11
114.3571419999999961
21
-19.7969279999999976
0
LINE
8
BLACK
6
CONTINUOUS
10
114.3571419999999961
20
-19.7969279999999976
11
114.2142849999999896
21
-20.0826419999999999
0
LINE
8
BLACK
6
CONTINUOUS
10
114.2142849999999896
20
-20.0826419999999999
11
114.0714279999999974
21
-20.2255000000000003
0
LINE
8
BLACK
6
CONTINUOUS
10
114.0714279999999974
20
-20.2255000000000003
11
113.7857130000000012
21
-20.3683569999999996
0
LINE
8
BLACK
6
CONTINUOUS
10
113.7857130000000012
20
-20.3683569999999996
11
113.2142849999999896
21
-20.3683569999999996
0
LINE
8
BLACK
6
CONTINUOUS
10
113.2142849999999896
20
-20.3683569999999996
11
112.9285709999999909
21
-20.2255000000000003
0
LINE
8
BLACK
6
CONTINUOUS
10
112.9285709999999909
20
-20.2255000000000003
11
112.7857130000000012
21
-20.0826419999999999
0
LINE
8
BLACK
6
CONTINUOUS
10
112.7857130000000012
20
-20.0826419999999999
11
112.6428559999999948
21
-19.7969279999999976
0
LINE
8
BLACK
6
CONTINUOUS
10
112.6428559999999948
20
-19.7969279999999976
11
112.6428559999999948
21
-19.0826419999999999
0
LINE
8
BLACK
6
CONTINUOUS
10
112.6428559999999948
20
-19.0826419999999999
11
112.7857130000000012
21
-18.7969279999999976
0
LINE
8
BLACK
6
CONTINUOUS
10
112.7857130000000012
20
-18.7969279999999976
11
112.9285709999999909
21
-18.6540709999999983
0
LINE
8
BLACK
6
CONTINUOUS
10
112.9285709999999909
20
-18.6540709999999983
11
113.2142849999999896
21
-18.5112139999999989
0
LINE
8
BLACK
6
CONTINUOUS
10
113.2142849999999896
20
-18.5112139999999989
11
113.7857130000000012
21
-18.5112139999999989
0
LINE
8
BLACK
6
CONTINUOUS
10
113.7857130000000012
20
-18.5112139999999989
11
114.0714279999999974
21
-18.6540709999999983
0
LINE
8
BLACK
6
CONTINUOUS
10
114.0714279999999974
20
-18.6540709999999983
11
114.2142849999999896
21
-18.7969279999999976
0
LINE
8
BLACK
6
CONTINUOUS
10
114.2142849999999896
20
-18.7969279999999976
11
114.3571419999999961
21
-19.0826419999999999
  0
ENDSEC
  0
EOF
