  0
SECTION
  2
HEADER
  9
$ANGBASE
  50
0.0
  9
$ANGDIR
  70
1
  9
$MEASUREMENT
  70
1
  0
ENDSEC
  0
SECTION
  2
TABLES
  0
TABLE
  2
LTYPE
  70
4
  0
LTYPE
  5
40F
  2
CONTINUOUS
  70
0
  3
Solid line
  72
65
  73
0
  40
0.0
  0
LTYPE
  5
410
  2
DASHDOT
 70
0
  3
Dash Dot ____ _ ____ _
 72
65
 73
4
 40
2.0
 49
1.25
 49
-0.25
 49
0.25
 49
-0.25
  0
LTYPE
  5
411
  2
DASHED
 70
0
  3
Dashed __ __ __ __ __
 72
65
 73
2
 40
0.75
 49
0.5
 49
-0.25
  0
LTYPE
  5
43B
  2
DOTTED
 70
0
  3
Dotted .  .  .  .
 72
65
 73
2
 40
0.2
 49
0.0
 49
-0.2
  0
ENDTAB
  0
TABLE
  2
STYLE
  70
4
  0
STYLE
  2
KICAD
  70
0
  40
0
  41
1
  42
1
  50
0
  71
0
  3
isocp.shx
  0
STYLE
  2
KICADB
  70
0
  40
0
  41
1
  42
1
  50
0
  71
0
  3
isocp.shx
  0
STYLE
  2
KICADI
  70
0
  40
0
  41
1
  42
1
  50
15
  71
0
  3
isocp.shx
  0
STYLE
  2
KICADBI
  70
0
  40
0
  41
1
  42
1
  50
15
  71
0
  3
isocp.shx
  0
ENDTAB
  0
TABLE
  2
LAYER
  70
1
  0
LAYER
  2
BLACK
  70
0
  62
7
  6
CONTINUOUS
  0
ENDTAB
  0
ENDSEC
  0
SECTION
  2
ENTITIES
0
LINE
8
BLACK
6
CONTINUOUS
10
-135.3571320000000071
20
-136.0112139999999954
11
-135.0714179999999942
21
-135.8683570000000032
0
LINE
8
BLACK
6
CONTINUOUS
10
-135.0714179999999942
20
-135.8683570000000032
11
-134.6428459999999916
21
-135.8683570000000032
0
LINE
8
BLACK
6
CONTINUOUS
10
-134.6428459999999916
20
-135.8683570000000032
11
-134.2142749999999864
21
-136.0112139999999954
0
LINE
8
BLACK
6
CONTINUOUS
10
-134.2142749999999864
20
-136.0112139999999954
11
-133.9285600000000045
21
-136.2969279999999799
0
LINE
8
BLACK
6
CONTINUOUS
10
-133.9285600000000045
20
-136.2969279999999799
11
-133.7857029999999838
21
-136.5826419999999928
0
LINE
8
BLACK
6
CONTINUOUS
10
-133.7857029999999838
20
-136.5826419999999928
11
-133.6428459999999916
21
-137.1540709999999876
0
LINE
8
BLACK
6
CONTINUOUS
10
-133.6428459999999916
20
-137.1540709999999876
11
-133.6428459999999916
21
-137.5826419999999928
0
LINE
8
BLACK
6
CONTINUOUS
10
-133.6428459999999916
20
-137.5826419999999928
11
-133.7857029999999838
21
-138.1540709999999876
0
LINE
8
BLACK
6
CONTINUOUS
10
-133.7857029999999838
20
-138.1540709999999876
11
-133.9285600000000045
21
-138.4397850000000005
0
LINE
8
BLACK
6
CONTINUOUS
10
-133.9285600000000045
20
-138.4397850000000005
11
-134.2142749999999864
21
-138.7254999999999825
0
LINE
8
BLACK
6
CONTINUOUS
10
-134.2142749999999864
20
-138.7254999999999825
11
-134.6428459999999916
21
-138.8683570000000032
0
LINE
8
BLACK
6
CONTINUOUS
10
-134.6428459999999916
20
-138.8683570000000032
11
-134.9285600000000045
21
-138.8683570000000032
0
LINE
8
BLACK
6
CONTINUOUS
10
-134.9285600000000045
20
-138.8683570000000032
11
-135.3571320000000071
21
-138.7254999999999825
0
LINE
8
BLACK
6
CONTINUOUS
10
-135.3571320000000071
20
-138.7254999999999825
11
-135.4999889999999994
21
-138.5826419999999928
0
LINE
8
BLACK
6
CONTINUOUS
10
-135.4999889999999994
20
-138.5826419999999928
11
-135.4999889999999994
21
-137.5826419999999928
0
LINE
8
BLACK
6
CONTINUOUS
10
-135.4999889999999994
20
-137.5826419999999928
11
-134.9285600000000045
21
-137.5826419999999928
0
LINE
8
BLACK
6
CONTINUOUS
10
-136.6428459999999916
20
-136.1540709999999876
11
-136.7857029999999838
21
-136.0112139999999954
0
LINE
8
BLACK
6
CONTINUOUS
10
-136.7857029999999838
20
-136.0112139999999954
11
-137.0714179999999942
21
-135.8683570000000032
0
LINE
8
BLACK
6
CONTINUOUS
10
-137.0714179999999942
20
-135.8683570000000032
11
-137.7857029999999838
21
-135.8683570000000032
0
LINE
8
BLACK
6
CONTINUOUS
10
-137.7857029999999838
20
-135.8683570000000032
11
-138.0714179999999942
21
-136.0112139999999954
0
LINE
8
BLACK
6
CONTINUOUS
10
-138.0714179999999942
20
-136.0112139999999954
11
-138.2142749999999864
21
-136.1540709999999876
0
LINE
8
BLACK
6
CONTINUOUS
10
-138.2142749999999864
20
-136.1540709999999876
11
-138.3571320000000071
21
-136.4397850000000005
0
LINE
8
BLACK
6
CONTINUOUS
10
-138.3571320000000071
20
-136.4397850000000005
11
-138.3571320000000071
21
-136.7254999999999825
0
LINE
8
BLACK
6
CONTINUOUS
10
-138.3571320000000071
20
-136.7254999999999825
11
-138.2142749999999864
21
-137.1540709999999876
0
LINE
8
BLACK
6
CONTINUOUS
10
-138.2142749999999864
20
-137.1540709999999876
11
-136.4999889999999994
21
-138.8683570000000032
0
LINE
8
BLACK
6
CONTINUOUS
10
-136.4999889999999994
20
-138.8683570000000032
11
-138.3571320000000071
21
-138.8683570000000032
0
LINE
8
BLACK
6
CONTINUOUS
10
-133.8089489999999842
20
-132.8683619999999905
11
-133.8089489999999842
21
-129.8683619999999905
0
LINE
8
BLACK
6
CONTINUOUS
10
-133.8089489999999842
20
-129.8683619999999905
11
-134.5232349999999997
21
-129.8683619999999905
0
LINE
8
BLACK
6
CONTINUOUS
10
-134.5232349999999997
20
-129.8683619999999905
11
-134.9518060000000048
21
-130.0112189999999828
0
LINE
8
BLACK
6
CONTINUOUS
10
-134.9518060000000048
20
-130.0112189999999828
11
-135.2375209999999868
21
-130.2969329999999957
0
LINE
8
BLACK
6
CONTINUOUS
10
-135.2375209999999868
20
-130.2969329999999957
11
-135.3803780000000074
21
-130.5826469999999802
0
LINE
8
BLACK
6
CONTINUOUS
10
-135.3803780000000074
20
-130.5826469999999802
11
-135.5232349999999997
21
-131.1540760000000034
0
LINE
8
BLACK
6
CONTINUOUS
10
-135.5232349999999997
20
-131.1540760000000034
11
-135.5232349999999997
21
-131.5826469999999802
0
LINE
8
BLACK
6
CONTINUOUS
10
-135.5232349999999997
20
-131.5826469999999802
11
-135.3803780000000074
21
-132.1540760000000034
0
LINE
8
BLACK
6
CONTINUOUS
10
-135.3803780000000074
20
-132.1540760000000034
11
-135.2375209999999868
21
-132.4397899999999879
0
LINE
8
BLACK
6
CONTINUOUS
10
-135.2375209999999868
20
-132.4397899999999879
11
-134.9518060000000048
21
-132.7255049999999983
0
LINE
8
BLACK
6
CONTINUOUS
10
-134.9518060000000048
20
-132.7255049999999983
11
-134.5232349999999997
21
-132.8683619999999905
0
LINE
8
BLACK
6
CONTINUOUS
10
-134.5232349999999997
20
-132.8683619999999905
11
-133.8089489999999842
21
-132.8683619999999905
0
LINE
8
BLACK
6
CONTINUOUS
10
-136.6660919999999919
20
-130.1540760000000034
11
-136.8089489999999842
21
-130.0112189999999828
0
LINE
8
BLACK
6
CONTINUOUS
10
-136.8089489999999842
20
-130.0112189999999828
11
-137.0946639999999945
21
-129.8683619999999905
0
LINE
8
BLACK
6
CONTINUOUS
10
-137.0946639999999945
20
-129.8683619999999905
11
-137.8089489999999842
21
-129.8683619999999905
0
LINE
8
BLACK
6
CONTINUOUS
10
-137.8089489999999842
20
-129.8683619999999905
11
-138.0946639999999945
21
-130.0112189999999828
0
LINE
8
BLACK
6
CONTINUOUS
10
-138.0946639999999945
20
-130.0112189999999828
11
-138.2375209999999868
21
-130.1540760000000034
0
LINE
8
BLACK
6
CONTINUOUS
10
-138.2375209999999868
20
-130.1540760000000034
11
-138.3803780000000074
21
-130.4397899999999879
0
LINE
8
BLACK
6
CONTINUOUS
10
-138.3803780000000074
20
-130.4397899999999879
11
-138.3803780000000074
21
-130.7255049999999983
0
LINE
8
BLACK
6
CONTINUOUS
10
-138.3803780000000074
20
-130.7255049999999983
11
-138.2375209999999868
21
-131.1540760000000034
0
LINE
8
BLACK
6
CONTINUOUS
10
-138.2375209999999868
20
-131.1540760000000034
11
-136.5232349999999997
21
-132.8683619999999905
0
LINE
8
BLACK
6
CONTINUOUS
10
-136.5232349999999997
20
-132.8683619999999905
11
-138.3803780000000074
21
-132.8683619999999905
0
LINE
8
BLACK
6
CONTINUOUS
10
47.000003999999997
20
-141.0000009999999975
11
47.000003999999997
21
-137.0000009999999975
0
LINE
8
BLACK
6
CONTINUOUS
10
186.0000110000000006
20
-140.9999660000000006
11
186.0000110000000006
21
-137.
0
LINE
8
BLACK
6
CONTINUOUS
10
30.0000109999999971
20
-140.999970999999988
11
30.0000019999999985
21
-132.9999990000000025
0
LINE
8
BLACK
6
CONTINUOUS
10
44.000003999999997
20
-141.0000009999999975
11
30.0000089999999986
21
-140.999970999999988
0
LINE
8
BLACK
6
CONTINUOUS
10
200.0000119999999981
20
-140.9999669999999981
11
200.
21
-133.
0
LINE
8
BLACK
6
CONTINUOUS
10
44.000003999999997
20
-137.0000009999999975
11
44.000003999999997
21
-141.0000009999999975
0
LINE
8
BLACK
6
CONTINUOUS
10
199.9999959999999817
20
-140.9999669999999981
11
186.0000110000000006
21
-140.9999660000000006
0
LINE
8
BLACK
6
CONTINUOUS
10
115.6428669999999954
20
-134.0112139999999954
11
115.9285819999999916
21
-133.8683570000000032
0
LINE
8
BLACK
6
CONTINUOUS
10
115.9285819999999916
20
-133.8683570000000032
11
116.3571529999999967
21
-133.8683570000000032
0
LINE
8
BLACK
6
CONTINUOUS
10
116.3571529999999967
20
-133.8683570000000032
11
116.7857239999999877
21
-134.0112139999999954
0
LINE
8
BLACK
6
CONTINUOUS
10
116.7857239999999877
20
-134.0112139999999954
11
117.071438999999998
21
-134.2969279999999799
0
LINE
8
BLACK
6
CONTINUOUS
10
117.071438999999998
20
-134.2969279999999799
11
117.2142959999999903
21
-134.5826419999999928
0
LINE
8
BLACK
6
CONTINUOUS
10
117.2142959999999903
20
-134.5826419999999928
11
117.3571529999999967
21
-135.1540709999999876
0
LINE
8
BLACK
6
CONTINUOUS
10
117.3571529999999967
20
-135.1540709999999876
11
117.3571529999999967
21
-135.5826419999999928
0
LINE
8
BLACK
6
CONTINUOUS
10
117.3571529999999967
20
-135.5826419999999928
11
117.2142959999999903
21
-136.1540709999999876
0
LINE
8
BLACK
6
CONTINUOUS
10
117.2142959999999903
20
-136.1540709999999876
11
117.071438999999998
21
-136.4397850000000005
0
LINE
8
BLACK
6
CONTINUOUS
10
117.071438999999998
20
-136.4397850000000005
11
116.7857239999999877
21
-136.7254999999999825
0
LINE
8
BLACK
6
CONTINUOUS
10
116.7857239999999877
20
-136.7254999999999825
11
116.3571529999999967
21
-136.8683570000000032
0
LINE
8
BLACK
6
CONTINUOUS
10
116.3571529999999967
20
-136.8683570000000032
11
116.071438999999998
21
-136.8683570000000032
0
LINE
8
BLACK
6
CONTINUOUS
10
116.071438999999998
20
-136.8683570000000032
11
115.6428669999999954
21
-136.7254999999999825
0
LINE
8
BLACK
6
CONTINUOUS
10
115.6428669999999954
20
-136.7254999999999825
11
115.500009999999989
21
-136.5826419999999928
0
LINE
8
BLACK
6
CONTINUOUS
10
115.500009999999989
20
-136.5826419999999928
11
115.500009999999989
21
-135.5826419999999928
0
LINE
8
BLACK
6
CONTINUOUS
10
115.500009999999989
20
-135.5826419999999928
11
116.071438999999998
21
-135.5826419999999928
0
LINE
8
BLACK
6
CONTINUOUS
10
114.3571529999999967
20
-134.1540709999999876
11
114.2142959999999903
21
-134.0112139999999954
0
LINE
8
BLACK
6
CONTINUOUS
10
114.2142959999999903
20
-134.0112139999999954
11
113.9285819999999916
21
-133.8683570000000032
0
LINE
8
BLACK
6
CONTINUOUS
10
113.9285819999999916
20
-133.8683570000000032
11
113.2142959999999903
21
-133.8683570000000032
0
LINE
8
BLACK
6
CONTINUOUS
10
113.2142959999999903
20
-133.8683570000000032
11
112.9285819999999916
21
-134.0112139999999954
0
LINE
8
BLACK
6
CONTINUOUS
10
112.9285819999999916
20
-134.0112139999999954
11
112.7857240000000019
21
-134.1540709999999876
0
LINE
8
BLACK
6
CONTINUOUS
10
112.7857240000000019
20
-134.1540709999999876
11
112.6428669999999954
21
-134.4397850000000005
0
LINE
8
BLACK
6
CONTINUOUS
10
112.6428669999999954
20
-134.4397850000000005
11
112.6428669999999954
21
-134.7254999999999825
0
LINE
8
BLACK
6
CONTINUOUS
10
112.6428669999999954
20
-134.7254999999999825
11
112.7857240000000019
21
-135.1540709999999876
0
LINE
8
BLACK
6
CONTINUOUS
10
112.7857240000000019
20
-135.1540709999999876
11
114.500009999999989
21
-136.8683570000000032
0
LINE
8
BLACK
6
CONTINUOUS
10
114.500009999999989
20
-136.8683570000000032
11
112.6428669999999954
21
-136.8683570000000032
0
LINE
8
BLACK
6
CONTINUOUS
10
200.0000059999999849
20
-133.
11
30.0000019999999985
21
-132.9999990000000025
0
LINE
8
BLACK
6
CONTINUOUS
10
47.000003999999997
20
-137.0000009999999975
11
44.000003999999997
21
-137.0000009999999975
0
LINE
8
BLACK
6
CONTINUOUS
10
186.0000110000000006
20
-137.
11
183.0000039999999899
21
-137.0000039999999899
0
LINE
8
BLACK
6
CONTINUOUS
10
47.000003999999997
20
-141.0000009999999975
11
183.0000039999999899
21
-141.0000039999999899
0
LINE
8
BLACK
6
CONTINUOUS
10
183.0000039999999899
20
-137.0000039999999899
11
183.0000039999999899
21
-141.0000039999999899
0
LINE
8
BLACK
6
CONTINUOUS
10
239.
20
-23.1999999999999993
11
242.
21
-23.1999999999999993
0
LINE
8
BLACK
6
CONTINUOUS
10
200.0000009999999975
20
-22.9999669999999981
11
199.9999889999999994
21
-15.
0
LINE
8
BLACK
6
CONTINUOUS
10
152.9999929999999893
20
-45.0000009999999975
11
152.9999929999999893
21
-61.0000009999999975
0
LINE
8
BLACK
6
CONTINUOUS
10
44.
20
-161.
11
47.
21
-161.
0
LINE
8
BLACK
6
CONTINUOUS
10
242.
20
-115.1999999999999886
11
242.
21
-111.1999999999999886
0
LINE
8
BLACK
6
CONTINUOUS
10
22.999998999999999
20
-33.9999989999999954
11
18.999998999999999
21
-33.9999989999999954
0
LINE
8
BLACK
6
CONTINUOUS
10
155.
20
-167.
11
159.
21
-167.
0
ARC
8
BLACK
10
178.9999929999999893
20
-85.0000009999999975
40
2.
50
-180.00000000
51
-0.00000000
0
ARC
8
BLACK
10
106.9999929999999893
20
-61.0000009999999975
40
2.
50
-180.00000000
51
-0.00000000
0
LINE
8
BLACK
6
CONTINUOUS
10
117.
20
-155.
11
113.
21
-155.
0
LINE
8
BLACK
6
CONTINUOUS
10
126.9999929999999893
20
-43.0000009999999975
11
142.9999929999999893
21
-43.0000009999999975
0
ARC
8
BLACK
10
159.
20
-41.
40
2.0000010000122499
50
-269.99979946
51
-90.00020054
0
LINE
8
BLACK
6
CONTINUOUS
10
47.
20
-42.
11
47.
21
-88.
0
LINE
8
BLACK
6
CONTINUOUS
10
207.
20
-164.
11
207.
21
-167.
0
LINE
8
BLACK
6
CONTINUOUS
10
221.
20
-115.1999999999999886
11
221.
21
-111.1999999999999886
0
LINE
8
BLACK
6
CONTINUOUS
10
52.
20
-93.
11
178.
21
-93.
0
ARC
8
BLACK
10
106.9999929999999893
20
-45.0000009999999975
40
2.
50
0.00000000
51
180.00000000
0
LINE
8
BLACK
6
CONTINUOUS
10
47.0000069999999965
20
-110.9999619999999965
11
47.0000069999999965
21
-106.9999619999999965
0
LINE
8
BLACK
6
CONTINUOUS
10
178.
20
-37.
11
52.
21
-37.
0
ARC
8
BLACK
10
127.
20
-65.
40
2.0000010000122499
50
-269.99979946
51
-90.00020054
0
LINE
8
BLACK
6
CONTINUOUS
10
242.
20
-23.1999999999999993
11
221.
21
-23.1999999999999993
0
LINE
8
BLACK
6
CONTINUOUS
10
183.0000069999999823
20
-110.9999649999999889
11
186.0000069999999823
21
-110.9999649999999889
0
LINE
8
BLACK
6
CONTINUOUS
10
126.9999929999999893
20
-63.0000009999999975
11
142.9999929999999893
21
-63.0000009999999975
0
LINE
8
BLACK
6
CONTINUOUS
10
126.9999929999999893
20
-67.0000009999999975
11
142.9999929999999893
21
-67.0000009999999975
0
LINE
8
BLACK
6
CONTINUOUS
10
148.9999929999999893
20
-45.0000009999999975
11
148.9999929999999893
21
-61.0000009999999975
0
LINE
8
BLACK
6
CONTINUOUS
10
183.
20
-161.
11
186.
21
-161.
0
LINE
8
BLACK
6
CONTINUOUS
10
23.
20
-167.
11
19.
21
-167.
0
LINE
8
BLACK
6
CONTINUOUS
10
48.9999929999999964
20
-69.0000009999999975
11
48.9999929999999964
21
-85.0000009999999975
0
LINE
8
BLACK
6
CONTINUOUS
10
186.
20
-19.
11
182.9999929999999893
21
-19.0000040000000006
0
ARC
8
BLACK
10
200.
20
-30.
40
15.0000010000040316
50
-0.00000382
51
90.00004202
0
ARC
8
BLACK
10
178.9999929999999893
20
-69.0000009999999975
40
2.
50
0.00000000
51
180.00000000
0
LINE
8
BLACK
6
CONTINUOUS
10
210.9999770000000012
20
-92.9999940000000009
11
206.9999770000000012
21
-92.9999940000000009
0
ARC
8
BLACK
10
106.9999929999999893
20
-69.0000009999999975
40
2.
50
0.00000000
51
180.00000000
0
LINE
8
BLACK
6
CONTINUOUS
10
54.9999929999999964
20
-43.0000009999999975
11
70.9999930000000035
21
-43.0000009999999975
0
LINE
8
BLACK
6
CONTINUOUS
10
52.9999929999999964
20
-45.0000009999999975
11
52.9999929999999964
21
-61.0000009999999975
0
ARC
8
BLACK
10
143.
20
-41.
40
1.9999990000122498
50
-90.00020054
51
90.00020054
0
LINE
8
BLACK
6
CONTINUOUS
10
239.
20
-111.1999999999999886
11
239.
21
-71.2000000000000028
0
LINE
8
BLACK
6
CONTINUOUS
10
104.9999929999999893
20
-45.0000009999999975
11
104.9999929999999893
21
-61.0000009999999975
0
LINE
8
BLACK
6
CONTINUOUS
10
183.
20
-164.
11
183.
21
-161.
0
LINE
8
BLACK
6
CONTINUOUS
10
242.
20
-115.1999999999999886
11
221.
21
-115.1999999999999886
0
ARC
8
BLACK
10
52.
20
-88.
40
5.
50
-180.00000000
51
-90.00000000
0
LINE
8
BLACK
6
CONTINUOUS
10
233.
20
-100.1999959999999987
11
233.
21
-111.1999999999999886
0
LINE
8
BLACK
6
CONTINUOUS
10
23.
20
-164.
11
44.
21
-164.
0
LINE
8
BLACK
6
CONTINUOUS
10
242.
20
-67.2000000000000028
11
239.
21
-67.2000000000000028
0
ARC
8
BLACK
10
52.
20
-42.
40
5.
50
90.00000000
51
180.00000000
0
LINE
8
BLACK
6
CONTINUOUS
10
126.9999929999999893
20
-39.0000009999999975
11
142.9999929999999893
21
-39.0000009999999975
0
LINE
8
BLACK
6
CONTINUOUS
10
86.9999929999999893
20
-67.0000009999999975
11
102.9999929999999893
21
-67.0000009999999975
0
LINE
8
BLACK
6
CONTINUOUS
10
207.
20
-146.
11
207.
21
-158.
0
LINE
8
BLACK
6
CONTINUOUS
10
239.
20
-111.1999999999999886
11
242.
21
-111.1999999999999886
0
LINE
8
BLACK
6
CONTINUOUS
10
124.9999929999999893
20
-45.0000009999999975
11
124.9999929999999893
21
-61.0000009999999975
0
ARC
8
BLACK
10
70.9999600000000015
20
-41.
40
1.9999990002722499
50
-89.99905462
51
89.99905462
0
LINE
8
BLACK
6
CONTINUOUS
10
22.999998999999999
20
-36.9999989999999954
11
22.9999929999999999
21
-93.0000009999999975
0
ARC
8
BLACK
10
200.
20
-100.
40
14.9999890000000331
50
-90.00004966
51
0.00000382
0
ARC
8
BLACK
10
175.
20
-65.
40
1.9999990000122498
50
-90.00020054
51
90.00020054
0
LINE
8
BLACK
6
CONTINUOUS
10
30.0464829999999985
20
-115.0000009999999975
11
199.9999870000000044
21
-114.9999880000000019
0
LINE
8
BLACK
6
CONTINUOUS
10
86.9999929999999893
20
-87.0000009999999975
11
102.9999929999999893
21
-87.0000009999999975
0
LINE
8
BLACK
6
CONTINUOUS
10
176.9999929999999893
20
-69.0000009999999975
11
176.9999929999999893
21
-85.0000009999999975
0
ARC
8
BLACK
10
127.
20
-41.
40
2.0000010000122499
50
-269.99979946
51
-90.00020054
0
LINE
8
BLACK
6
CONTINUOUS
10
48.9999929999999964
20
-45.0000009999999975
11
48.9999929999999964
21
-61.0000009999999975
0
LINE
8
BLACK
6
CONTINUOUS
10
79.
20
-110.
11
151.
21
-110.
0
LINE
8
BLACK
6
CONTINUOUS
10
236.
20
-41.1999959999999987
11
236.
21
-38.1999959999999987
0
LINE
8
BLACK
6
CONTINUOUS
10
43.9999929999999964
20
-23.0000009999999975
11
29.9999979999999979
21
-22.9999709999999986
0
LINE
8
BLACK
6
CONTINUOUS
10
207.
20
-158.
11
117.
21
-158.
0
CIRCLE
8
BLACK
10
114.9999919999999918
20
-59.0000730000000004
40
2.
0
LINE
8
BLACK
6
CONTINUOUS
10
19.
20
-167.
11
19.
21
-146.
0
LINE
8
BLACK
6
CONTINUOUS
10
210.9999829999999861
20
-36.9999919999999989
11
210.9999829999999861
21
-33.9999919999999989
0
LINE
8
BLACK
6
CONTINUOUS
10
183.
20
-88.
11
183.
21
-42.
0
LINE
8
BLACK
6
CONTINUOUS
10
155.
20
-164.
11
155.
21
-167.
0
ARC
8
BLACK
10
178.9999929999999893
20
-61.0000009999999975
40
2.
50
-180.00000000
51
-0.00000000
0
ARC
8
BLACK
10
70.9999600000000015
20
-65.
40
1.9999990002722499
50
-89.99905462
51
89.99905462
0
LINE
8
BLACK
6
CONTINUOUS
10
86.9999929999999893
20
-43.0000009999999975
11
102.9999929999999893
21
-43.0000009999999975
0
ARC
8
BLACK
10
86.9999600000000015
20
-89.
40
2.0000010002722499
50
-270.00094538
51
-89.99905462
0
LINE
8
BLACK
6
CONTINUOUS
10
30.0000149999999977
20
-106.9999989999999883
11
44.
21
-107.
0
LINE
8
BLACK
6
CONTINUOUS
10
233.
20
-97.1999959999999987
11
233.
21
-71.2000000000000028
0
LINE
8
BLACK
6
CONTINUOUS
10
104.9999929999999893
20
-69.0000009999999975
11
104.9999929999999893
21
-85.0000009999999975
0
ARC
8
BLACK
10
54.9999599999999944
20
-65.
40
2.0000010002722499
50
-270.00094538
51
-89.99905462
0
LINE
8
BLACK
6
CONTINUOUS
10
23.
20
-164.
11
23.
21
-167.
0
LINE
8
BLACK
6
CONTINUOUS
10
236.
20
-97.1999959999999987
11
236.
21
-100.1999959999999987
0
LINE
8
BLACK
6
CONTINUOUS
10
72.9999930000000035
20
-69.0000009999999975
11
72.9999930000000035
21
-85.0000009999999975
0
ARC
8
BLACK
10
82.9999929999999893
20
-69.0000009999999975
40
2.
50
0.00000000
51
180.00000000
0
LINE
8
BLACK
6
CONTINUOUS
10
152.9999929999999893
20
-69.0000009999999975
11
152.9999929999999893
21
-85.0000009999999975
0
LINE
8
BLACK
6
CONTINUOUS
10
158.9999929999999893
20
-43.0000009999999975
11
174.9999929999999893
21
-43.0000009999999975
0
ARC
8
BLACK
10
178.
20
-42.
40
5.
50
0.00000000
51
90.00000000
0
ARC
8
BLACK
10
74.9999930000000035
20
-69.0000009999999975
40
2.
50
0.00000000
51
180.00000000
0
ARC
8
BLACK
10
29.9999900000000004
20
-100.
40
14.9999990000000327
50
-180.00001146
51
-90.00000382
0
LINE
8
BLACK
6
CONTINUOUS
10
54.9999929999999964
20
-67.0000009999999975
11
70.9999930000000035
21
-67.0000009999999975
0
LINE
8
BLACK
6
CONTINUOUS
10
221.
20
-111.1999999999999886
11
233.
21
-111.1999999999999886
0
LINE
8
BLACK
6
CONTINUOUS
10
144.9999929999999893
20
-45.0000009999999975
11
144.9999929999999893
21
-61.0000009999999975
0
ARC
8
BLACK
10
30.
20
-100.
40
7.000027000007143
50
-180.00008185
51
-90.00008185
0
ARC
8
BLACK
10
54.9999599999999944
20
-41.
40
2.0000010002722499
50
-270.00094538
51
-89.99905462
0
LINE
8
BLACK
6
CONTINUOUS
10
185.9999929999999893
20
-107.0000039999999899
11
185.9999929999999893
21
-111.0000039999999899
0
LINE
8
BLACK
6
CONTINUOUS
10
233.
20
-41.1999959999999987
11
233.
21
-67.2000000000000028
0
ARC
8
BLACK
10
146.9999929999999893
20
-69.0000009999999975
40
2.
50
0.00000000
51
180.00000000
0
LINE
8
BLACK
6
CONTINUOUS
10
158.9999929999999893
20
-67.0000009999999975
11
174.9999929999999893
21
-67.0000009999999975
0
ARC
8
BLACK
10
146.9999929999999893
20
-61.0000009999999975
40
2.
50
-180.00000000
51
-0.00000000
0
LINE
8
BLACK
6
CONTINUOUS
10
120.9999929999999893
20
-45.0000009999999975
11
120.9999929999999893
21
-61.0000009999999975
0
LINE
8
BLACK
6
CONTINUOUS
10
176.9999929999999893
20
-45.0000009999999975
11
176.9999929999999893
21
-61.0000009999999975
0
LINE
8
BLACK
6
CONTINUOUS
10
44.
20
-107.
11
44.0000069999999965
21
-110.9999619999999965
0
LINE
8
BLACK
6
CONTINUOUS
10
236.
20
-100.1999959999999987
11
233.
21
-100.1999959999999987
0
LINE
8
BLACK
6
CONTINUOUS
10
54.9999929999999964
20
-39.0000009999999975
11
70.9999930000000035
21
-39.0000009999999975
0
LINE
8
BLACK
6
CONTINUOUS
10
54.9999929999999964
20
-91.0000009999999975
11
70.9999930000000035
21
-91.0000009999999975
0
LINE
8
BLACK
6
CONTINUOUS
10
156.9999929999999893
20
-69.0000009999999975
11
156.9999929999999893
21
-85.0000009999999975
0
ARC
8
BLACK
10
122.9999929999999893
20
-85.0000009999999975
40
2.
50
-180.00000000
51
-0.00000000
0
LINE
8
BLACK
6
CONTINUOUS
10
239.
20
-71.2000000000000028
11
242.
21
-71.2000000000000028
0
CIRCLE
8
BLACK
10
150.9999919999999918
20
-41.0000730000000004
40
2.
0
ARC
8
BLACK
10
103.
20
-65.
40
1.9999990000122498
50
-90.00020054
51
90.00020054
0
ARC
8
BLACK
10
143.
20
-89.
40
1.9999990000122498
50
-90.00020054
51
90.00020054
0
LINE
8
BLACK
6
CONTINUOUS
10
54.9999929999999964
20
-87.0000009999999975
11
70.9999930000000035
21
-87.0000009999999975
0
LINE
8
BLACK
6
CONTINUOUS
10
206.9999770000000012
20
-92.9999940000000009
11
206.9999829999999861
21
-36.9999919999999989
0
ARC
8
BLACK
10
50.9999929999999964
20
-61.0000009999999975
40
2.
50
-180.00000000
51
-0.00000000
0
LINE
8
BLACK
6
CONTINUOUS
10
199.9999949999999842
20
-15.
11
29.9999909999999979
21
-14.999998999999999
0
LINE
8
BLACK
6
CONTINUOUS
10
22.9999929999999999
20
-96.0000009999999975
11
22.999962
21
-99.9999899999999968
0
LINE
8
BLACK
6
CONTINUOUS
10
239.
20
-27.1999999999999993
11
242.
21
-27.1999999999999993
0
ARC
8
BLACK
10
74.9999930000000035
20
-85.0000009999999975
40
2.
50
-180.00000000
51
-0.00000000
0
LINE
8
BLACK
6
CONTINUOUS
10
236.
20
-38.1999959999999987
11
233.
21
-38.1999959999999987
0
LINE
8
BLACK
6
CONTINUOUS
10
144.9999929999999893
20
-69.0000009999999975
11
144.9999929999999893
21
-85.0000009999999975
0
LINE
8
BLACK
6
CONTINUOUS
10
206.9999829999999861
20
-36.9999919999999989
11
210.9999829999999861
21
-36.9999919999999989
0
LINE
8
BLACK
6
CONTINUOUS
10
43.9999929999999964
20
-19.0000009999999975
11
43.9999929999999964
21
-23.0000009999999975
0
LINE
8
BLACK
6
CONTINUOUS
10
86.9999929999999893
20
-63.0000009999999975
11
102.9999929999999893
21
-63.0000009999999975
0
LINE
8
BLACK
6
CONTINUOUS
10
233.
20
-38.1999959999999987
11
233.
21
-27.1999999999999993
0
LINE
8
BLACK
6
CONTINUOUS
10
230.
20
-67.2000000000000028
11
230.
21
-71.2000000000000028
0
ARC
8
BLACK
10
175.
20
-89.
40
1.9999990000122498
50
-90.00020054
51
90.00020054
0
LINE
8
BLACK
6
CONTINUOUS
10
113.
20
-155.
11
113.
21
-158.
0
LINE
8
BLACK
6
CONTINUOUS
10
214.9999889999999994
20
-99.999968999999993
11
214.9999880000000019
21
-30.0000009999999975
0
LINE
8
BLACK
6
CONTINUOUS
10
46.9999929999999964
20
-23.0000009999999975
11
182.9999929999999893
21
-23.0000040000000006
0
ARC
8
BLACK
10
178.9999929999999893
20
-45.0000009999999975
40
2.
50
0.00000000
51
180.00000000
0
LINE
8
BLACK
6
CONTINUOUS
10
211.
20
-146.
11
207.
21
-146.
0
LINE
8
BLACK
6
CONTINUOUS
10
72.9999930000000035
20
-45.0000009999999975
11
72.9999930000000035
21
-61.0000009999999975
0
LINE
8
BLACK
6
CONTINUOUS
10
158.9999929999999893
20
-39.0000009999999975
11
174.9999929999999893
21
-39.0000009999999975
0
LINE
8
BLACK
6
CONTINUOUS
10
47.0000069999999965
20
-110.9999619999999965
11
44.0000069999999965
21
-110.9999619999999965
0
LINE
8
BLACK
6
CONTINUOUS
10
210.9999770000000012
20
-95.9999940000000009
11
210.9999770000000012
21
-92.9999940000000009
0
ARC
8
BLACK
10
146.9999929999999893
20
-45.0000009999999975
40
2.
50
0.00000000
51
180.00000000
0
LINE
8
BLACK
6
CONTINUOUS
10
84.9999929999999893
20
-69.0000009999999975
11
84.9999929999999893
21
-85.0000009999999975
0
ARC
8
BLACK
10
159.
20
-89.
40
2.0000010000122499
50
-269.99979946
51
-90.00020054
0
ARC
8
BLACK
10
159.
20
-65.
40
2.0000010000122499
50
-269.99979946
51
-90.00020054
0
LINE
8
BLACK
6
CONTINUOUS
10
207.
20
-164.
11
186.
21
-164.
0
LINE
8
BLACK
6
CONTINUOUS
10
156.9999929999999893
20
-45.0000009999999975
11
156.9999929999999893
21
-61.0000009999999975
0
LINE
8
BLACK
6
CONTINUOUS
10
84.9999929999999893
20
-45.0000009999999975
11
84.9999929999999893
21
-61.0000009999999975
0
LINE
8
BLACK
6
CONTINUOUS
10
126.9999929999999893
20
-87.0000009999999975
11
142.9999929999999893
21
-87.0000009999999975
0
ARC
8
BLACK
10
122.9999929999999893
20
-69.0000009999999975
40
2.
50
0.00000000
51
180.00000000
0
LINE
8
BLACK
6
CONTINUOUS
10
117.
20
-158.
11
117.
21
-155.
0
LINE
8
BLACK
6
CONTINUOUS
10
233.
20
-67.2000000000000028
11
230.
21
-67.2000000000000028
0
LINE
8
BLACK
6
CONTINUOUS
10
71.
20
-164.
11
71.
21
-167.
0
ARC
8
BLACK
10
74.9999930000000035
20
-61.0000009999999975
40
2.
50
-180.00000000
51
-0.00000000
0
LINE
8
BLACK
6
CONTINUOUS
10
71.
20
-164.
11
47.
21
-164.
0
LINE
8
BLACK
6
CONTINUOUS
10
80.9999929999999893
20
-69.0000009999999975
11
80.9999929999999893
21
-85.0000009999999975
0
ARC
8
BLACK
10
103.
20
-41.
40
1.9999990000122498
50
-90.00020054
51
90.00020054
0
LINE
8
BLACK
6
CONTINUOUS
10
155.
20
-164.
11
75.
21
-164.
0
ARC
8
BLACK
10
143.
20
-65.
40
1.9999990000122498
50
-90.00020054
51
90.00020054
0
LINE
8
BLACK
6
CONTINUOUS
10
233.
20
-41.1999959999999987
11
236.
21
-41.1999959999999987
0
LINE
8
BLACK
6
CONTINUOUS
10
76.9999930000000035
20
-45.0000009999999975
11
76.9999930000000035
21
-61.0000009999999975
0
LINE
8
BLACK
6
CONTINUOUS
10
18.9999929999999999
20
-96.0000009999999975
11
22.9999929999999999
21
-96.0000009999999975
0
LINE
8
BLACK
6
CONTINUOUS
10
108.9999929999999893
20
-45.0000009999999975
11
108.9999929999999893
21
-61.0000009999999975
0
LINE
8
BLACK
6
CONTINUOUS
10
182.9999929999999893
20
-19.0000040000000006
11
182.9999929999999893
21
-23.0000040000000006
0
LINE
8
BLACK
6
CONTINUOUS
10
18.999998999999999
20
-36.9999989999999954
11
22.999998999999999
21
-36.9999989999999954
0
ARC
8
BLACK
10
74.9999930000000035
20
-45.0000009999999975
40
2.
50
0.00000000
51
180.00000000
0
CIRCLE
8
BLACK
10
114.9999919999999918
20
-89.0000730000000004
40
2.
0
LINE
8
BLACK
6
CONTINUOUS
10
186.
20
-164.
11
186.
21
-161.
0
LINE
8
BLACK
6
CONTINUOUS
10
221.
20
-23.1999999999999993
11
221.
21
-27.1999999999999993
0
ARC
8
BLACK
10
127.
20
-89.
40
2.0000010000122499
50
-269.99979946
51
-90.00020054
0
ARC
8
BLACK
10
146.9999929999999893
20
-85.0000009999999975
40
2.
50
-180.00000000
51
-0.00000000
0
LINE
8
BLACK
6
CONTINUOUS
10
233.
20
-97.1999959999999987
11
236.
21
-97.1999959999999987
0
LINE
8
BLACK
6
CONTINUOUS
10
14.9999929999999999
20
-29.9999839999999978
11
14.9999889999999994
21
-99.9999969999999934
0
LINE
8
BLACK
6
CONTINUOUS
10
180.9999929999999893
20
-69.0000009999999975
11
180.9999929999999893
21
-85.0000009999999975
0
LINE
8
BLACK
6
CONTINUOUS
10
23.
20
-146.
11
23.
21
-158.
0
LINE
8
BLACK
6
CONTINUOUS
10
124.9999929999999893
20
-69.0000009999999975
11
124.9999929999999893
21
-85.0000009999999975
0
ARC
8
BLACK
10
154.9999929999999893
20
-45.0000009999999975
40
2.
50
0.00000000
51
180.00000000
0
LINE
8
BLACK
6
CONTINUOUS
10
151.
20
-107.
11
183.0000069999999823
21
-106.9999649999999889
0
LINE
8
BLACK
6
CONTINUOUS
10
18.999998999999999
20
-33.9999989999999954
11
18.999998999999999
21
-36.9999989999999954
0
ARC
8
BLACK
10
29.9999799999999972
20
-29.9999900000000004
40
7.0000190000071427
50
-270.00014733
51
-179.99991815
0
ARC
8
BLACK
10
175.
20
-41.
40
1.9999990000122498
50
-90.00020054
51
90.00020054
0
LINE
8
BLACK
6
CONTINUOUS
10
86.9999929999999893
20
-91.0000009999999975
11
102.9999929999999893
21
-91.0000009999999975
0
LINE
8
BLACK
6
CONTINUOUS
10
76.9999930000000035
20
-69.0000009999999975
11
76.9999930000000035
21
-85.0000009999999975
0
LINE
8
BLACK
6
CONTINUOUS
10
86.9999929999999893
20
-39.0000009999999975
11
102.9999929999999893
21
-39.0000009999999975
0
ARC
8
BLACK
10
54.9999599999999944
20
-89.
40
2.0000010002722499
50
-270.00094538
51
-89.99905462
0
ARC
8
BLACK
10
86.9999600000000015
20
-41.
40
2.0000010002722499
50
-270.00094538
51
-89.99905462
0
LINE
8
BLACK
6
CONTINUOUS
10
242.0000069999999823
20
-27.1999619999999993
11
242.
21
-23.1999999999999993
0
LINE
8
BLACK
6
CONTINUOUS
10
206.9999770000000012
20
-95.9999940000000009
11
210.9999770000000012
21
-95.9999940000000009
0
LINE
8
BLACK
6
CONTINUOUS
10
120.9999929999999893
20
-69.0000009999999975
11
120.9999929999999893
21
-85.0000009999999975
0
ARC
8
BLACK
10
122.9999929999999893
20
-61.0000009999999975
40
2.
50
-180.00000000
51
-0.00000000
0
LINE
8
BLACK
6
CONTINUOUS
10
151.
20
-110.
11
151.
21
-107.
0
LINE
8
BLACK
6
CONTINUOUS
10
158.9999929999999893
20
-87.0000009999999975
11
174.9999929999999893
21
-87.0000009999999975
0
LINE
8
BLACK
6
CONTINUOUS
10
211.
20
-167.
11
211.
21
-146.
0
LINE
8
BLACK
6
CONTINUOUS
10
158.9999929999999893
20
-63.0000009999999975
11
174.9999929999999893
21
-63.0000009999999975
0
LINE
8
BLACK
6
CONTINUOUS
10
186.
20
-22.9999660000000006
11
186.
21
-19.
0
CIRCLE
8
BLACK
10
114.9999919999999918
20
-71.0000730000000004
40
2.
0
ARC
8
BLACK
10
50.9999929999999964
20
-85.0000009999999975
40
2.
50
-180.00000000
51
-0.00000000
0
LINE
8
BLACK
6
CONTINUOUS
10
239.
20
-67.2000000000000028
11
239.
21
-27.1999999999999993
0
ARC
8
BLACK
10
50.9999929999999964
20
-45.0000009999999975
40
2.
50
0.00000000
51
180.00000000
0
LINE
8
BLACK
6
CONTINUOUS
10
46.9999929999999964
20
-23.0000009999999975
11
46.9999929999999964
21
-19.0000009999999975
0
LINE
8
BLACK
6
CONTINUOUS
10
44.
20
-164.
11
44.
21
-161.
0
LINE
8
BLACK
6
CONTINUOUS
10
22.9999929999999999
20
-93.0000009999999975
11
18.9999929999999999
21
-93.0000009999999975
0
LINE
8
BLACK
6
CONTINUOUS
10
207.
20
-167.
11
211.
21
-167.
0
LINE
8
BLACK
6
CONTINUOUS
10
242.
20
-27.1999999999999993
11
242.
21
-23.1999999999999993
0
LINE
8
BLACK
6
CONTINUOUS
10
47.0000069999999965
20
-106.9999619999999965
11
79.
21
-106.9999619999999965
0
ARC
8
BLACK
10
200.
20
-30.
40
7.000034000016071
50
-0.00002456
51
90.00012278
0
ARC
8
BLACK
10
103.
20
-89.
40
1.9999990000122498
50
-90.00020054
51
90.00020054
0
ARC
8
BLACK
10
200.
20
-100.
40
7.0000140000034996
50
-90.00018826
51
0.00005730
0
LINE
8
BLACK
6
CONTINUOUS
10
180.9999929999999893
20
-45.0000009999999975
11
180.9999929999999893
21
-61.0000009999999975
0
LINE
8
BLACK
6
CONTINUOUS
10
29.9999889999999994
20
-114.9999989999999883
11
29.9999779999999987
21
-107.0000319999999903
0
LINE
8
BLACK
6
CONTINUOUS
10
47.
20
-164.
11
47.
21
-161.
0
LINE
8
BLACK
6
CONTINUOUS
10
18.9999929999999999
20
-93.0000009999999975
11
18.9999929999999999
21
-96.0000009999999975
0
LINE
8
BLACK
6
CONTINUOUS
10
185.9999929999999893
20
-106.9999919999999918
11
199.9999770000000012
21
-107.0000220000000013
0
ARC
8
BLACK
10
50.9999929999999964
20
-69.0000009999999975
40
2.
50
0.00000000
51
180.00000000
0
LINE
8
BLACK
6
CONTINUOUS
10
207.0000149999999906
20
-99.9999929999999893
11
206.9999770000000012
21
-95.9999940000000009
0
LINE
8
BLACK
6
CONTINUOUS
10
23.
20
-158.
11
113.
21
-158.
0
LINE
8
BLACK
6
CONTINUOUS
10
22.999960999999999
20
-30.
11
22.999998999999999
21
-33.9999989999999954
0
LINE
8
BLACK
6
CONTINUOUS
10
206.9999829999999861
20
-33.9999919999999989
11
207.0000139999999931
21
-30.0000029999999995
0
ARC
8
BLACK
10
29.9999900000000004
20
-30.
40
15.000001000000033
50
89.99999618
51
179.99999618
0
LINE
8
BLACK
6
CONTINUOUS
10
183.0000069999999823
20
-106.9999649999999889
11
183.0000069999999823
21
-110.9999649999999889
0
LINE
8
BLACK
6
CONTINUOUS
10
221.
20
-27.1999999999999993
11
233.
21
-27.1999999999999993
0
LINE
8
BLACK
6
CONTINUOUS
10
230.
20
-71.2000000000000028
11
233.
21
-71.2000000000000028
0
LINE
8
BLACK
6
CONTINUOUS
10
80.9999929999999893
20
-45.0000009999999975
11
80.9999929999999893
21
-61.0000009999999975
0
LINE
8
BLACK
6
CONTINUOUS
10
199.999984999999981
20
-22.9999669999999981
11
186.
21
-22.9999660000000006
0
LINE
8
BLACK
6
CONTINUOUS
10
199.9999870000000044
20
-114.9999880000000019
11
199.9999760000000038
21
-107.0000209999999896
0
LINE
8
BLACK
6
CONTINUOUS
10
148.9999929999999893
20
-69.0000009999999975
11
148.9999929999999893
21
-85.0000009999999975
0
ARC
8
BLACK
10
106.9999929999999893
20
-85.0000009999999975
40
2.
50
-180.00000000
51
-0.00000000
0
ARC
8
BLACK
10
82.9999929999999893
20
-61.0000009999999975
40
2.
50
-180.00000000
51
-0.00000000
0
LINE
8
BLACK
6
CONTINUOUS
10
79.
20
-107.
11
79.
21
-110.
0
LINE
8
BLACK
6
CONTINUOUS
10
75.
20
-167.
11
75.
21
-164.
0
LINE
8
BLACK
6
CONTINUOUS
10
71.
20
-167.
11
75.
21
-167.
0
LINE
8
BLACK
6
CONTINUOUS
10
52.9999929999999964
20
-69.0000009999999975
11
52.9999929999999964
21
-85.0000009999999975
0
LINE
8
BLACK
6
CONTINUOUS
10
46.9999929999999964
20
-19.0000009999999975
11
43.9999929999999964
21
-19.0000009999999975
0
LINE
8
BLACK
6
CONTINUOUS
10
158.9999929999999893
20
-91.0000009999999975
11
174.9999929999999893
21
-91.0000009999999975
0
LINE
8
BLACK
6
CONTINUOUS
10
242.
20
-71.2000000000000028
11
242.
21
-67.2000000000000028
0
LINE
8
BLACK
6
CONTINUOUS
10
126.9999929999999893
20
-91.0000009999999975
11
142.9999929999999893
21
-91.0000009999999975
0
ARC
8
BLACK
10
82.9999929999999893
20
-45.0000009999999975
40
2.
50
0.00000000
51
180.00000000
0
ARC
8
BLACK
10
86.9999600000000015
20
-65.
40
2.0000010002722499
50
-270.00094538
51
-89.99905462
0
ARC
8
BLACK
10
82.9999929999999893
20
-85.0000009999999975
40
2.
50
-180.00000000
51
-0.00000000
0
ARC
8
BLACK
10
154.9999929999999893
20
-69.0000009999999975
40
2.
50
0.00000000
51
180.00000000
0
LINE
8
BLACK
6
CONTINUOUS
10
210.9999829999999861
20
-33.9999919999999989
11
206.9999829999999861
21
-33.9999919999999989
0
ARC
8
BLACK
10
178.
20
-88.
40
5.
50
-90.00000000
51
-0.00000000
0
LINE
8
BLACK
6
CONTINUOUS
10
108.9999929999999893
20
-69.0000009999999975
11
108.9999929999999893
21
-85.0000009999999975
0
LINE
8
BLACK
6
CONTINUOUS
10
30.
20
-22.9999709999999986
11
29.9999909999999979
21
-14.999998999999999
0
LINE
8
BLACK
6
CONTINUOUS
10
54.9999929999999964
20
-63.0000009999999975
11
70.9999930000000035
21
-63.0000009999999975
0
LINE
8
BLACK
6
CONTINUOUS
10
183.
20
-164.
11
159.
21
-164.
0
LINE
8
BLACK
6
CONTINUOUS
10
159.
20
-167.
11
159.
21
-164.
0
LINE
8
BLACK
6
CONTINUOUS
10
19.
20
-146.
11
23.
21
-146.
0
ARC
8
BLACK
10
70.9999600000000015
20
-89.
40
1.9999990002722499
50
-89.99905462
51
89.99905462
0
ARC
8
BLACK
10
154.9999929999999893
20
-61.0000009999999975
40
2.
50
-180.00000000
51
-0.00000000
0
ARC
8
BLACK
10
154.9999929999999893
20
-85.0000009999999975
40
2.
50
-180.00000000
51
-0.00000000
0
ARC
8
BLACK
10
122.9999929999999893
20
-45.0000009999999975
40
2.
50
0.00000000
51
180.00000000
0
LINE
8
BLACK
6
CONTINUOUS
10
115.6428559999999948
20
-16.0112139999999989
11
115.9285709999999909
21
-15.8683569999999996
0
LINE
8
BLACK
6
CONTINUOUS
10
115.9285709999999909
20
-15.8683569999999996
11
116.3571419999999961
21
-15.8683569999999996
0
LINE
8
BLACK
6
CONTINUOUS
10
116.3571419999999961
20
-15.8683569999999996
11
116.7857130000000012
21
-16.0112139999999989
0
LINE
8
BLACK
6
CONTINUOUS
10
116.7857130000000012
20
-16.0112139999999989
11
117.0714279999999974
21
-16.2969279999999976
0
LINE
8
BLACK
6
CONTINUOUS
10
117.0714279999999974
20
-16.2969279999999976
11
117.2142849999999896
21
-16.5826419999999999
0
LINE
8
BLACK
6
CONTINUOUS
10
117.2142849999999896
20
-16.5826419999999999
11
117.3571419999999961
21
-17.1540709999999983
0
LINE
8
BLACK
6
CONTINUOUS
10
117.3571419999999961
20
-17.1540709999999983
11
117.3571419999999961
21
-17.5826419999999999
0
LINE
8
BLACK
6
CONTINUOUS
10
117.3571419999999961
20
-17.5826419999999999
11
117.2142849999999896
21
-18.1540709999999983
0
LINE
8
BLACK
6
CONTINUOUS
10
117.2142849999999896
20
-18.1540709999999983
11
117.0714279999999974
21
-18.4397850000000005
0
LINE
8
BLACK
6
CONTINUOUS
10
117.0714279999999974
20
-18.4397850000000005
11
116.7857130000000012
21
-18.7255000000000003
0
LINE
8
BLACK
6
CONTINUOUS
10
116.7857130000000012
20
-18.7255000000000003
11
116.3571419999999961
21
-18.8683569999999996
0
LINE
8
BLACK
6
CONTINUOUS
10
116.3571419999999961
20
-18.8683569999999996
11
116.0714279999999974
21
-18.8683569999999996
0
LINE
8
BLACK
6
CONTINUOUS
10
116.0714279999999974
20
-18.8683569999999996
11
115.6428559999999948
21
-18.7255000000000003
0
LINE
8
BLACK
6
CONTINUOUS
10
115.6428559999999948
20
-18.7255000000000003
11
115.4999989999999883
21
-18.5826419999999999
0
LINE
8
BLACK
6
CONTINUOUS
10
115.4999989999999883
20
-18.5826419999999999
11
115.4999989999999883
21
-17.5826419999999999
0
LINE
8
BLACK
6
CONTINUOUS
10
115.4999989999999883
20
-17.5826419999999999
11
116.0714279999999974
21
-17.5826419999999999
0
LINE
8
BLACK
6
CONTINUOUS
10
114.3571419999999961
20
-16.1540709999999983
11
114.2142849999999896
21
-16.0112139999999989
0
LINE
8
BLACK
6
CONTINUOUS
10
114.2142849999999896
20
-16.0112139999999989
11
113.9285709999999909
21
-15.8683569999999996
0
LINE
8
BLACK
6
CONTINUOUS
10
113.9285709999999909
20
-15.8683569999999996
11
113.2142849999999896
21
-15.8683569999999996
0
LINE
8
BLACK
6
CONTINUOUS
10
113.2142849999999896
20
-15.8683569999999996
11
112.9285709999999909
21
-16.0112139999999989
0
LINE
8
BLACK
6
CONTINUOUS
10
112.9285709999999909
20
-16.0112139999999989
11
112.7857130000000012
21
-16.1540709999999983
0
LINE
8
BLACK
6
CONTINUOUS
10
112.7857130000000012
20
-16.1540709999999983
11
112.6428559999999948
21
-16.4397850000000005
0
LINE
8
BLACK
6
CONTINUOUS
10
112.6428559999999948
20
-16.4397850000000005
11
112.6428559999999948
21
-16.7255000000000003
0
LINE
8
BLACK
6
CONTINUOUS
10
112.6428559999999948
20
-16.7255000000000003
11
112.7857130000000012
21
-17.1540709999999983
0
LINE
8
BLACK
6
CONTINUOUS
10
112.7857130000000012
20
-17.1540709999999983
11
114.4999989999999883
21
-18.8683569999999996
0
LINE
8
BLACK
6
CONTINUOUS
10
114.4999989999999883
20
-18.8683569999999996
11
112.6428559999999948
21
-18.8683569999999996
0
LINE
8
BLACK
6
CONTINUOUS
10
117.2142849999999896
20
-113.8683569999999889
11
117.2142849999999896
21
-110.8683569999999889
0
LINE
8
BLACK
6
CONTINUOUS
10
117.2142849999999896
20
-110.8683569999999889
11
116.4999989999999883
21
-110.8683569999999889
0
LINE
8
BLACK
6
CONTINUOUS
10
116.4999989999999883
20
-110.8683569999999889
11
116.0714279999999974
21
-111.0112139999999954
0
LINE
8
BLACK
6
CONTINUOUS
10
116.0714279999999974
20
-111.0112139999999954
11
115.7857130000000012
21
-111.2969279999999941
0
LINE
8
BLACK
6
CONTINUOUS
10
115.7857130000000012
20
-111.2969279999999941
11
115.6428559999999948
21
-111.5826419999999928
0
LINE
8
BLACK
6
CONTINUOUS
10
115.6428559999999948
20
-111.5826419999999928
11
115.4999989999999883
21
-112.1540710000000018
0
LINE
8
BLACK
6
CONTINUOUS
10
115.4999989999999883
20
-112.1540710000000018
11
115.4999989999999883
21
-112.5826419999999928
0
LINE
8
BLACK
6
CONTINUOUS
10
115.4999989999999883
20
-112.5826419999999928
11
115.6428559999999948
21
-113.1540710000000018
0
LINE
8
BLACK
6
CONTINUOUS
10
115.6428559999999948
20
-113.1540710000000018
11
115.7857130000000012
21
-113.4397850000000005
0
LINE
8
BLACK
6
CONTINUOUS
10
115.7857130000000012
20
-113.4397850000000005
11
116.0714279999999974
21
-113.7254999999999967
0
LINE
8
BLACK
6
CONTINUOUS
10
116.0714279999999974
20
-113.7254999999999967
11
116.4999989999999883
21
-113.8683569999999889
0
LINE
8
BLACK
6
CONTINUOUS
10
116.4999989999999883
20
-113.8683569999999889
11
117.2142849999999896
21
-113.8683569999999889
0
LINE
8
BLACK
6
CONTINUOUS
10
114.3571419999999961
20
-111.1540710000000018
11
114.2142849999999896
21
-111.0112139999999954
0
LINE
8
BLACK
6
CONTINUOUS
10
114.2142849999999896
20
-111.0112139999999954
11
113.9285709999999909
21
-110.8683569999999889
0
LINE
8
BLACK
6
CONTINUOUS
10
113.9285709999999909
20
-110.8683569999999889
11
113.2142849999999896
21
-110.8683569999999889
0
LINE
8
BLACK
6
CONTINUOUS
10
113.2142849999999896
20
-110.8683569999999889
11
112.9285709999999909
21
-111.0112139999999954
0
LINE
8
BLACK
6
CONTINUOUS
10
112.9285709999999909
20
-111.0112139999999954
11
112.7857130000000012
21
-111.1540710000000018
0
LINE
8
BLACK
6
CONTINUOUS
10
112.7857130000000012
20
-111.1540710000000018
11
112.6428559999999948
21
-111.4397850000000005
0
LINE
8
BLACK
6
CONTINUOUS
10
112.6428559999999948
20
-111.4397850000000005
11
112.6428559999999948
21
-111.7254999999999967
0
LINE
8
BLACK
6
CONTINUOUS
10
112.6428559999999948
20
-111.7254999999999967
11
112.7857130000000012
21
-112.1540710000000018
0
LINE
8
BLACK
6
CONTINUOUS
10
112.7857130000000012
20
-112.1540710000000018
11
114.4999989999999883
21
-113.8683569999999889
0
LINE
8
BLACK
6
CONTINUOUS
10
114.4999989999999883
20
-113.8683569999999889
11
112.6428559999999948
21
-113.8683569999999889
0
LINE
8
BLACK
6
CONTINUOUS
10
182.9767719999999827
20
-123.9999699999999905
11
182.9767719999999827
21
-127.9999699999999905
0
LINE
8
BLACK
6
CONTINUOUS
10
46.9767719999999969
20
-127.9999669999999981
11
43.9767719999999969
21
-127.9999669999999981
0
LINE
8
BLACK
6
CONTINUOUS
10
29.9767539999999997
20
-132.0000039999999899
11
29.976742999999999
21
-124.0000369999999918
0
LINE
8
BLACK
6
CONTINUOUS
10
30.0232479999999988
20
-132.0000059999999849
11
199.9767520000000047
21
-131.9999929999999893
0
LINE
8
BLACK
6
CONTINUOUS
10
78.9767650000000003
20
-124.0000049999999874
11
78.9767650000000003
21
-127.0000049999999874
0
LINE
8
BLACK
6
CONTINUOUS
10
46.9767719999999969
20
-127.9999669999999981
11
46.9767719999999969
21
-123.9999669999999981
0
LINE
8
BLACK
6
CONTINUOUS
10
29.976779999999998
20
-124.0000039999999899
11
43.9767650000000003
21
-124.0000049999999874
0
LINE
8
BLACK
6
CONTINUOUS
10
150.9767650000000003
20
-124.0000049999999874
11
182.9767719999999827
21
-123.9999699999999905
0
LINE
8
BLACK
6
CONTINUOUS
10
185.9767579999999896
20
-123.9999969999999934
11
199.9767420000000016
21
-124.0000269999999887
0
LINE
8
BLACK
6
CONTINUOUS
10
46.9767719999999969
20
-123.9999669999999981
11
78.9767650000000003
21
-123.9999669999999981
0
LINE
8
BLACK
6
CONTINUOUS
10
185.9767579999999896
20
-124.0000089999999915
11
185.9767579999999896
21
-128.0000090000000057
0
LINE
8
BLACK
6
CONTINUOUS
10
78.9767650000000003
20
-127.0000049999999874
11
150.9767650000000003
21
-127.0000049999999874
0
LINE
8
BLACK
6
CONTINUOUS
10
43.9767650000000003
20
-124.0000049999999874
11
43.9767719999999969
21
-127.9999669999999981
0
LINE
8
BLACK
6
CONTINUOUS
10
182.9767719999999827
20
-127.9999699999999905
11
185.9767719999999827
21
-127.9999699999999905
0
LINE
8
BLACK
6
CONTINUOUS
10
117.19104999999999
20
-130.8683619999999905
11
117.19104999999999
21
-127.8683619999999905
0
LINE
8
BLACK
6
CONTINUOUS
10
117.19104999999999
20
-127.8683619999999905
11
116.4767639999999886
21
-127.8683619999999905
0
LINE
8
BLACK
6
CONTINUOUS
10
116.4767639999999886
20
-127.8683619999999905
11
116.0481929999999977
21
-128.0112189999999828
0
LINE
8
BLACK
6
CONTINUOUS
10
116.0481929999999977
20
-128.0112189999999828
11
115.7624780000000015
21
-128.2969329999999957
0
LINE
8
BLACK
6
CONTINUOUS
10
115.7624780000000015
20
-128.2969329999999957
11
115.6196209999999951
21
-128.5826469999999802
0
LINE
8
BLACK
6
CONTINUOUS
10
115.6196209999999951
20
-128.5826469999999802
11
115.4767639999999886
21
-129.1540760000000034
0
LINE
8
BLACK
6
CONTINUOUS
10
115.4767639999999886
20
-129.1540760000000034
11
115.4767639999999886
21
-129.5826469999999802
0
LINE
8
BLACK
6
CONTINUOUS
10
115.4767639999999886
20
-129.5826469999999802
11
115.6196209999999951
21
-130.1540760000000034
0
LINE
8
BLACK
6
CONTINUOUS
10
115.6196209999999951
20
-130.1540760000000034
11
115.7624780000000015
21
-130.4397899999999879
0
LINE
8
BLACK
6
CONTINUOUS
10
115.7624780000000015
20
-130.4397899999999879
11
116.0481929999999977
21
-130.7255049999999983
0
LINE
8
BLACK
6
CONTINUOUS
10
116.0481929999999977
20
-130.7255049999999983
11
116.4767639999999886
21
-130.8683619999999905
0
LINE
8
BLACK
6
CONTINUOUS
10
116.4767639999999886
20
-130.8683619999999905
11
117.19104999999999
21
-130.8683619999999905
0
LINE
8
BLACK
6
CONTINUOUS
10
114.3339069999999964
20
-128.1540760000000034
11
114.19104999999999
21
-128.0112189999999828
0
LINE
8
BLACK
6
CONTINUOUS
10
114.19104999999999
20
-128.0112189999999828
11
113.9053359999999913
21
-127.8683619999999905
0
LINE
8
BLACK
6
CONTINUOUS
10
113.9053359999999913
20
-127.8683619999999905
11
113.19104999999999
21
-127.8683619999999905
0
LINE
8
BLACK
6
CONTINUOUS
10
113.19104999999999
20
-127.8683619999999905
11
112.9053359999999913
21
-128.0112189999999828
0
LINE
8
BLACK
6
CONTINUOUS
10
112.9053359999999913
20
-128.0112189999999828
11
112.7624780000000015
21
-128.1540760000000034
0
LINE
8
BLACK
6
CONTINUOUS
10
112.7624780000000015
20
-128.1540760000000034
11
112.6196209999999951
21
-128.4397899999999879
0
LINE
8
BLACK
6
CONTINUOUS
10
112.6196209999999951
20
-128.4397899999999879
11
112.6196209999999951
21
-128.7255049999999983
0
LINE
8
BLACK
6
CONTINUOUS
10
112.6196209999999951
20
-128.7255049999999983
11
112.7624780000000015
21
-129.1540760000000034
0
LINE
8
BLACK
6
CONTINUOUS
10
112.7624780000000015
20
-129.1540760000000034
11
114.4767639999999886
21
-130.8683619999999905
0
LINE
8
BLACK
6
CONTINUOUS
10
114.4767639999999886
20
-130.8683619999999905
11
112.6196209999999951
21
-130.8683619999999905
0
LINE
8
BLACK
6
CONTINUOUS
10
199.9767520000000047
20
-131.9999929999999893
11
199.9767410000000041
21
-124.0000259999999912
0
LINE
8
BLACK
6
CONTINUOUS
10
150.9767650000000003
20
-127.0000049999999874
11
150.9767650000000003
21
-124.0000049999999874
  0
ENDSEC
  0
EOF
