<?xml version="1.0" standalone="no"?>
 <!DOCTYPE svg PUBLIC "-//W3C//DTD SVG 1.1//EN" 
 "http://www.w3.org/Graphics/SVG/1.1/DTD/svg11.dtd"> 
<svg
  xmlns:svg="http://www.w3.org/2000/svg"
  xmlns="http://www.w3.org/2000/svg"
  xmlns:xlink="http://www.w3.org/1999/xlink"
  version="1.1"
  width="297.0022mm" height="419.9890mm" viewBox="0.0000 0.0000 297.0022 419.9890">
<title>SVG Image created as 7_seg_led_tht_3mm-User_6.svg date 2026/01/05 23:17:46 </title>
  <desc>Image generated by PCBNEW </desc>
<g style="fill:#000000; fill-opacity:1.0000;stroke:#000000; stroke-opacity:1.0000;
stroke-linecap:round; stroke-linejoin:round;"
 transform="translate(0 0) scale(1 1)">
</g>
<g style="fill:#000000; fill-opacity:1.0000; 
stroke:#000000; stroke-width:0.0212; stroke-opacity:1; 
stroke-linecap:round; stroke-linejoin:round;">
<rect x="-144.214306" y="9.949995" width="1145.264306" height="331.600105" rx="0.000000" />
</g>
<g style="fill:none; 
stroke:#FFFFFF; stroke-width:0.1000; stroke-opacity:1; 
stroke-linecap:round; stroke-linejoin:round;">
<path d="M66.0000 115.0000
L66.0000 112.0000
" />
<path d="M47.0000 125.0000
L47.0000 121.0000
" />
<path d="M191.0000 121.0000
L200.0000 121.0000
" />
<path d="M30.0000 15.0000
L191.0000 15.0000
" />
<path d="M170.0000 112.0000
L164.0000 112.0000
" />
<path d="M15.0000 30.0000
L15.0000 100.0000
" />
<path d="M47.0000 23.0000
L47.0000 19.0000
" />
<path d="M183.0000 23.0000
L47.0000 23.0000
" />
<path d="M43.9882 107.0000
L43.9882 111.0000
" />
<path d="M200.0000 115.0000 A15.0000 15.0000 0.0 0 0 215.0000 100.0000" />
<path d="M183.0000 125.0000
L47.0000 125.0000
" />
<path d="M215.0000 100.0000
L215.0000 30.0000
" />
<path d="M182.9882 107.0000
L182.9882 111.0000
" />
<path d="M164.0000 114.9998
L66.0000 115.0000
" />
<path d="M30.0000 115.0000
L30.0000 107.0000
" />
<path d="M23.0000 30.0000
L23.0000 34.0000
" />
<path d="M211.0000 37.0000
L211.0000 34.0000
" />
<path d="M44.0000 125.0000
L29.9882 125.0000
" />
<path d="M47.0000 131.0000
L47.0000 127.0000
" />
<path d="M47.0000 131.0000
L44.0000 131.0000
" />
<path d="M183.0000 127.0000
L183.0000 131.0000
" />
<path d="M60.0000 112.0000
L60.0000 115.0000
" />
<path d="M207.0000 93.0000
L207.0000 37.0000
" />
<path d="M30.0000 117.0000
L191.0000 117.0000
" />
<path d="M29.9882 23.0000
L30.0000 15.0000
" />
<path d="M200.0000 115.0000
L200.0000 107.0000
" />
<path d="M183.0000 19.0000
L183.0000 23.0000
" />
<path d="M170.0118 132.0000
L164.0118 132.0000
" />
<path d="M46.9882 111.0000
L43.9882 111.0000
" />
<path d="M66.0000 112.0000
L60.0000 112.0000
" />
<path d="M191.0000 15.0000
L191.0000 19.0000
" />
<path d="M200.0000 23.0000
L200.0000 15.0000
" />
<path d="M19.0000 93.0000
L19.0000 96.0000
" />
<path d="M44.0000 23.0000
L29.9882 23.0000
" />
<path style="fill:none; 
stroke:#FFFFFF; stroke-width:0.1000; stroke-opacity:1; 
stroke-linecap:round; stroke-linejoin:round;fill:none"
d="M 21.0000,40.0000
41.0000,40.0000
41.0000,90.0000
21.0000,90.0000
Z" /> 
<path d="M19.0000 37.0000
L44.0000 37.0000
" />
<path d="M200.0000 23.0000
L186.0000 23.0000
" />
<path d="M200.0000 107.0000 A7.0000 7.0000 0.0 0 0 207.0000 100.0000" />
<path d="M66.0118 135.0000
L66.0118 132.0000
" />
<path d="M60.0118 132.0000
L60.0118 135.0000
" />
<path d="M164.0118 134.9998
L66.0118 135.0000
" />
<path d="M23.0000 96.0000
L23.0000 100.0000
" />
<path d="M19.0000 96.0000
L23.0000 96.0000
" />
<path d="M211.0000 34.0000
L207.0000 34.0000
" />
<path d="M207.0000 37.0000
L211.0000 37.0000
" />
<path d="M211.0000 93.0000
L207.0000 93.0000
" />
<path d="M46.9882 107.0000
L182.9882 107.0000
" />
<path d="M66.0118 132.0000
L60.0118 132.0000
" />
<path d="M47.0000 19.0000
L44.0000 19.0000
" />
<path d="M47.0000 127.0000
L183.0000 127.0000
" />
<path d="M186.0000 125.0000
L186.0000 121.0000
" />
<path d="M191.0000 19.0000
L200.0000 19.0000
" />
<path d="M186.0000 23.0000
L186.0000 19.0000
" />
<path d="M44.0000 121.0000
L44.0000 125.0000
" />
<path d="M170.0000 115.0000
L170.0000 112.0000
" />
<path d="M185.9882 111.0000
L185.9882 107.0000
" />
<path d="M200.0000 115.0000
L170.0000 115.0000
" />
<path d="M200.0118 135.0000
L170.0118 135.0000
" />
<path d="M191.0000 117.0000
L191.0000 121.0000
" />
<path d="M211.0000 96.0000
L211.0000 93.0000
" />
<path d="M207.0000 30.0000 A7.0000 7.0000 0.0 0 0 200.0000 23.0000" />
<path d="M183.0000 131.0000
L186.0000 131.0000
" />
<path d="M186.0000 131.0000
L186.0000 127.0000
" />
<path d="M44.0000 37.0000
L44.0000 93.0000
" />
<path d="M200.0000 125.0000
L200.0000 121.0000
" />
<path d="M60.0000 115.0000
L30.0000 115.0000
" />
<path d="M215.0000 30.0000 A15.0000 15.0000 0.0 0 0 200.0000 15.0000" />
<path d="M183.0000 19.0000
L186.0000 19.0000
" />
<path d="M44.0000 93.0000
L19.0000 93.0000
" />
<path d="M30.0118 135.0000
L30.0118 127.0000
" />
<path d="M185.9882 107.0000
L200.0000 107.0000
" />
<path d="M182.9882 111.0000
L185.9882 111.0000
" />
<path d="M23.0000 34.0000
L19.0000 34.0000
" />
<path d="M207.0000 96.0000
L211.0000 96.0000
" />
<path d="M207.0000 34.0000
L207.0000 30.0000
" />
<path d="M44.0000 127.0000
L44.0000 131.0000
" />
<path d="M19.0000 34.0000
L19.0000 37.0000
" />
<path d="M15.0000 100.0000 A15.0000 15.0000 0.0 0 0 30.0000 115.0000" />
<path d="M23.0000 100.0000 A7.0000 7.0000 0.0 0 0 30.0000 107.0000" />
<path d="M164.0000 112.0000
L164.0000 114.9998
" />
<path d="M183.0000 121.0000
L186.0000 121.0000
" />
<path d="M186.0000 127.0000
L200.0118 127.0000
" />
<path d="M44.0000 19.0000
L44.0000 23.0000
" />
<path d="M30.0000 23.0000 A7.0000 7.0000 0.0 0 0 23.0000 30.0000" />
<path d="M30.0000 107.0000
L43.9882 107.0000
" />
<path d="M30.0000 15.0000 A15.0000 15.0000 0.0 0 0 15.0000 30.0000" />
<path d="M207.0000 100.0000
L207.0000 96.0000
" />
<path d="M46.9882 111.0000
L46.9882 107.0000
" />
<path d="M164.0118 132.0000
L164.0118 134.9998
" />
<path d="M183.0000 121.0000
L183.0000 125.0000
" />
<path d="M60.0118 135.0000
L30.0118 135.0000
" />
<path d="M29.9882 125.0000
L30.0000 117.0000
" />
<path d="M47.0000 121.0000
L44.0000 121.0000
" />
<path d="M200.0000 125.0000
L186.0000 125.0000
" />
<path d="M170.0118 135.0000
L170.0118 132.0000
" />
<path d="M30.0118 127.0000
L44.0000 127.0000
" />
<path d="M200.0118 135.0000
L200.0118 127.0000
" />
</g>
<g style="fill:none; 
stroke:#FFFFFF; stroke-width:0.3750; stroke-opacity:1; 
stroke-linecap:round; stroke-linejoin:round;">
<text x="115.0118" y="132.5000"
transform="scale(-1 1) translate(-230.023682 0)"
textLength="6.3821" font-size="4.0000" lengthAdjust="spacingAndGlyphs"
text-anchor="middle" opacity="0" stroke-opacity="0">D6</text>
<g class="stroked-text"><desc>D6</desc>
<path d="M117.2261 132.3684
L117.2261 129.3684
" />
<path d="M117.2261 129.3684
L116.5118 129.3684
" />
<path d="M116.5118 129.3684
L116.0833 129.5112
" />
<path d="M116.0833 129.5112
L115.7976 129.7969
" />
<path d="M115.7976 129.7969
L115.6547 130.0827
" />
<path d="M115.6547 130.0827
L115.5118 130.6541
" />
<path d="M115.5118 130.6541
L115.5118 131.0827
" />
<path d="M115.5118 131.0827
L115.6547 131.6541
" />
<path d="M115.6547 131.6541
L115.7976 131.9398
" />
<path d="M115.7976 131.9398
L116.0833 132.2255
" />
<path d="M116.0833 132.2255
L116.5118 132.3684
" />
<path d="M116.5118 132.3684
L117.2261 132.3684
" />
<path d="M112.9404 129.3684
L113.5118 129.3684
" />
<path d="M113.5118 129.3684
L113.7976 129.5112
" />
<path d="M113.7976 129.5112
L113.9404 129.6541
" />
<path d="M113.9404 129.6541
L114.2261 130.0827
" />
<path d="M114.2261 130.0827
L114.3690 130.6541
" />
<path d="M114.3690 130.6541
L114.3690 131.7969
" />
<path d="M114.3690 131.7969
L114.2261 132.0827
" />
<path d="M114.2261 132.0827
L114.0833 132.2255
" />
<path d="M114.0833 132.2255
L113.7976 132.3684
" />
<path d="M113.7976 132.3684
L113.2261 132.3684
" />
<path d="M113.2261 132.3684
L112.9404 132.2255
" />
<path d="M112.9404 132.2255
L112.7976 132.0827
" />
<path d="M112.7976 132.0827
L112.6547 131.7969
" />
<path d="M112.6547 131.7969
L112.6547 131.0827
" />
<path d="M112.6547 131.0827
L112.7976 130.7969
" />
<path d="M112.7976 130.7969
L112.9404 130.6541
" />
<path d="M112.9404 130.6541
L113.2261 130.5112
" />
<path d="M113.2261 130.5112
L113.7976 130.5112
" />
<path d="M113.7976 130.5112
L114.0833 130.6541
" />
<path d="M114.0833 130.6541
L114.2261 130.7969
" />
<path d="M114.2261 130.7969
L114.3690 131.0827
" />
</g><text x="115.0000" y="122.5000"
transform="scale(-1 1) translate(-230.000000 0)"
textLength="6.3821" font-size="4.0000" lengthAdjust="spacingAndGlyphs"
text-anchor="middle" opacity="0" stroke-opacity="0">G6</text>
<g class="stroked-text"><desc>G6</desc>
<path d="M115.6429 119.5112
L115.9286 119.3684
" />
<path d="M115.9286 119.3684
L116.3571 119.3684
" />
<path d="M116.3571 119.3684
L116.7857 119.5112
" />
<path d="M116.7857 119.5112
L117.0714 119.7969
" />
<path d="M117.0714 119.7969
L117.2143 120.0826
" />
<path d="M117.2143 120.0826
L117.3571 120.6541
" />
<path d="M117.3571 120.6541
L117.3571 121.0826
" />
<path d="M117.3571 121.0826
L117.2143 121.6541
" />
<path d="M117.2143 121.6541
L117.0714 121.9398
" />
<path d="M117.0714 121.9398
L116.7857 122.2255
" />
<path d="M116.7857 122.2255
L116.3571 122.3684
" />
<path d="M116.3571 122.3684
L116.0714 122.3684
" />
<path d="M116.0714 122.3684
L115.6429 122.2255
" />
<path d="M115.6429 122.2255
L115.5000 122.0826
" />
<path d="M115.5000 122.0826
L115.5000 121.0826
" />
<path d="M115.5000 121.0826
L116.0714 121.0826
" />
<path d="M112.9286 119.3684
L113.5000 119.3684
" />
<path d="M113.5000 119.3684
L113.7857 119.5112
" />
<path d="M113.7857 119.5112
L113.9286 119.6541
" />
<path d="M113.9286 119.6541
L114.2143 120.0826
" />
<path d="M114.2143 120.0826
L114.3571 120.6541
" />
<path d="M114.3571 120.6541
L114.3571 121.7969
" />
<path d="M114.3571 121.7969
L114.2143 122.0826
" />
<path d="M114.2143 122.0826
L114.0714 122.2255
" />
<path d="M114.0714 122.2255
L113.7857 122.3684
" />
<path d="M113.7857 122.3684
L113.2143 122.3684
" />
<path d="M113.2143 122.3684
L112.9286 122.2255
" />
<path d="M112.9286 122.2255
L112.7857 122.0826
" />
<path d="M112.7857 122.0826
L112.6429 121.7969
" />
<path d="M112.6429 121.7969
L112.6429 121.0826
" />
<path d="M112.6429 121.0826
L112.7857 120.7969
" />
<path d="M112.7857 120.7969
L112.9286 120.6541
" />
<path d="M112.9286 120.6541
L113.2143 120.5112
" />
<path d="M113.2143 120.5112
L113.7857 120.5112
" />
<path d="M113.7857 120.5112
L114.0714 120.6541
" />
<path d="M114.0714 120.6541
L114.2143 120.7969
" />
<path d="M114.2143 120.7969
L114.3571 121.0826
" />
</g><text x="115.0000" y="112.5000"
transform="scale(-1 1) translate(-230.000000 0)"
textLength="6.3821" font-size="4.0000" lengthAdjust="spacingAndGlyphs"
text-anchor="middle" opacity="0" stroke-opacity="0">D6</text>
<g class="stroked-text"><desc>D6</desc>
<path d="M117.2143 112.3684
L117.2143 109.3684
" />
<path d="M117.2143 109.3684
L116.5000 109.3684
" />
<path d="M116.5000 109.3684
L116.0714 109.5112
" />
<path d="M116.0714 109.5112
L115.7857 109.7969
" />
<path d="M115.7857 109.7969
L115.6429 110.0826
" />
<path d="M115.6429 110.0826
L115.5000 110.6541
" />
<path d="M115.5000 110.6541
L115.5000 111.0826
" />
<path d="M115.5000 111.0826
L115.6429 111.6541
" />
<path d="M115.6429 111.6541
L115.7857 111.9398
" />
<path d="M115.7857 111.9398
L116.0714 112.2255
" />
<path d="M116.0714 112.2255
L116.5000 112.3684
" />
<path d="M116.5000 112.3684
L117.2143 112.3684
" />
<path d="M112.9286 109.3684
L113.5000 109.3684
" />
<path d="M113.5000 109.3684
L113.7857 109.5112
" />
<path d="M113.7857 109.5112
L113.9286 109.6541
" />
<path d="M113.9286 109.6541
L114.2143 110.0826
" />
<path d="M114.2143 110.0826
L114.3571 110.6541
" />
<path d="M114.3571 110.6541
L114.3571 111.7969
" />
<path d="M114.3571 111.7969
L114.2143 112.0826
" />
<path d="M114.2143 112.0826
L114.0714 112.2255
" />
<path d="M114.0714 112.2255
L113.7857 112.3684
" />
<path d="M113.7857 112.3684
L113.2143 112.3684
" />
<path d="M113.2143 112.3684
L112.9286 112.2255
" />
<path d="M112.9286 112.2255
L112.7857 112.0826
" />
<path d="M112.7857 112.0826
L112.6429 111.7969
" />
<path d="M112.6429 111.7969
L112.6429 111.0826
" />
<path d="M112.6429 111.0826
L112.7857 110.7969
" />
<path d="M112.7857 110.7969
L112.9286 110.6541
" />
<path d="M112.9286 110.6541
L113.2143 110.5112
" />
<path d="M113.2143 110.5112
L113.7857 110.5112
" />
<path d="M113.7857 110.5112
L114.0714 110.6541
" />
<path d="M114.0714 110.6541
L114.2143 110.7969
" />
<path d="M114.2143 110.7969
L114.3571 111.0826
" />
</g><text x="115.0000" y="20.5000"
transform="scale(-1 1) translate(-230.000000 0)"
textLength="6.3821" font-size="4.0000" lengthAdjust="spacingAndGlyphs"
text-anchor="middle" opacity="0" stroke-opacity="0">G6</text>
<g class="stroked-text"><desc>G6</desc>
<path d="M115.6429 17.5112
L115.9286 17.3684
" />
<path d="M115.9286 17.3684
L116.3571 17.3684
" />
<path d="M116.3571 17.3684
L116.7857 17.5112
" />
<path d="M116.7857 17.5112
L117.0714 17.7969
" />
<path d="M117.0714 17.7969
L117.2143 18.0826
" />
<path d="M117.2143 18.0826
L117.3571 18.6541
" />
<path d="M117.3571 18.6541
L117.3571 19.0826
" />
<path d="M117.3571 19.0826
L117.2143 19.6541
" />
<path d="M117.2143 19.6541
L117.0714 19.9398
" />
<path d="M117.0714 19.9398
L116.7857 20.2255
" />
<path d="M116.7857 20.2255
L116.3571 20.3684
" />
<path d="M116.3571 20.3684
L116.0714 20.3684
" />
<path d="M116.0714 20.3684
L115.6429 20.2255
" />
<path d="M115.6429 20.2255
L115.5000 20.0826
" />
<path d="M115.5000 20.0826
L115.5000 19.0826
" />
<path d="M115.5000 19.0826
L116.0714 19.0826
" />
<path d="M112.9286 17.3684
L113.5000 17.3684
" />
<path d="M113.5000 17.3684
L113.7857 17.5112
" />
<path d="M113.7857 17.5112
L113.9286 17.6541
" />
<path d="M113.9286 17.6541
L114.2143 18.0826
" />
<path d="M114.2143 18.0826
L114.3571 18.6541
" />
<path d="M114.3571 18.6541
L114.3571 19.7969
" />
<path d="M114.3571 19.7969
L114.2143 20.0826
" />
<path d="M114.2143 20.0826
L114.0714 20.2255
" />
<path d="M114.0714 20.2255
L113.7857 20.3684
" />
<path d="M113.7857 20.3684
L113.2143 20.3684
" />
<path d="M113.2143 20.3684
L112.9286 20.2255
" />
<path d="M112.9286 20.2255
L112.7857 20.0826
" />
<path d="M112.7857 20.0826
L112.6429 19.7969
" />
<path d="M112.6429 19.7969
L112.6429 19.0826
" />
<path d="M112.6429 19.0826
L112.7857 18.7969
" />
<path d="M112.7857 18.7969
L112.9286 18.6541
" />
<path d="M112.9286 18.6541
L113.2143 18.5112
" />
<path d="M113.2143 18.5112
L113.7857 18.5112
" />
<path d="M113.7857 18.5112
L114.0714 18.6541
" />
<path d="M114.0714 18.6541
L114.2143 18.7969
" />
<path d="M114.2143 18.7969
L114.3571 19.0826
" />
</g></g> 
</svg>
