<?xml version="1.0" standalone="no"?>
 <!DOCTYPE svg PUBLIC "-//W3C//DTD SVG 1.1//EN" 
 "http://www.w3.org/Graphics/SVG/1.1/DTD/svg11.dtd"> 
<svg
  xmlns:svg="http://www.w3.org/2000/svg"
  xmlns="http://www.w3.org/2000/svg"
  xmlns:xlink="http://www.w3.org/1999/xlink"
  version="1.1"
  width="297.0022mm" height="419.9890mm" viewBox="0.0000 0.0000 297.0022 419.9890">
<title>SVG Image created as 7_seg_led_tht_3mm-User_3.svg date 2026/01/05 23:17:46 </title>
  <desc>Image generated by PCBNEW </desc>
<g style="fill:#000000; fill-opacity:1.0000;stroke:#000000; stroke-opacity:1.0000;
stroke-linecap:round; stroke-linejoin:round;"
 transform="translate(0 0) scale(1 1)">
</g>
<g style="fill:#000000; fill-opacity:1.0000; 
stroke:#000000; stroke-width:0.0212; stroke-opacity:1; 
stroke-linecap:round; stroke-linejoin:round;">
<rect x="-144.214306" y="9.949995" width="1145.264306" height="331.600105" rx="0.000000" />
</g>
<g style="fill:none; 
stroke:#FFFFFF; stroke-width:0.1000; stroke-opacity:1; 
stroke-linecap:round; stroke-linejoin:round;">
<path d="M77.0000 45.0000
L77.0000 61.0000
" />
<path d="M159.0000 87.0000 A2.0000 2.0000 0.0 1 0 159.0000 91.0000" />
<path d="M159.0000 91.0000
L175.0000 91.0000
" />
<path d="M55.0000 87.0000 A2.0000 2.0000 0.0 1 0 55.0000 91.0000" />
<path d="M159.0000 43.0000
L175.0000 43.0000
" />
<path d="M55.0000 63.0000 A2.0000 2.0000 0.0 1 0 55.0000 67.0000" />
<path d="M181.0000 45.0000
L181.0000 61.0000
" />
<path d="M159.0000 63.0000
L175.0000 63.0000
" />
<path d="M211.0000 93.0000
L207.0000 93.0000
" />
<path d="M47.0000 23.0000
L47.0000 19.0000
" />
<path d="M71.0000 67.0000 A2.0000 2.0000 0.0 0 0 71.0000 63.0000" />
<path d="M85.0000 69.0000 A2.0000 2.0000 0.0 0 0 81.0000 69.0000" />
<path d="M66.0000 112.0000
L60.0000 112.0000
" />
<path d="M49.0000 61.0000 A2.0000 2.0000 0.0 0 0 53.0000 61.0000" />
<path d="M207.0000 100.0000
L207.0000 96.0000
" />
<path d="M207.0000 34.0000
L207.0000 30.0000
" />
<path d="M159.0000 63.0000 A2.0000 2.0000 0.0 1 0 159.0000 67.0000" />
<path d="M109.0000 69.0000 A2.0000 2.0000 0.0 0 0 105.0000 69.0000" />
<path d="M85.0000 69.0000
L85.0000 85.0000
" />
<path d="M143.0000 91.0000 A2.0000 2.0000 0.0 0 0 143.0000 87.0000" />
<path d="M183.0000 19.0000
L183.0000 23.0000
" />
<path d="M211.0000 96.0000
L211.0000 93.0000
" />
<path d="M44.0000 19.0000
L44.0000 23.0000
" />
<path d="M175.0000 67.0000 A2.0000 2.0000 0.0 0 0 175.0000 63.0000" />
<path d="M143.0000 67.0000 A2.0000 2.0000 0.0 0 0 143.0000 63.0000" />
<path d="M153.0000 85.0000 A2.0000 2.0000 0.0 0 0 157.0000 85.0000" />
<path d="M127.0000 63.0000 A2.0000 2.0000 0.0 1 0 127.0000 67.0000" />
<path d="M55.0000 39.0000 A2.0000 2.0000 0.0 1 0 55.0000 43.0000" />
<path d="M125.0000 45.0000
L125.0000 61.0000
" />
<path d="M127.0000 67.0000
L143.0000 67.0000
" />
<path d="M149.0000 45.0000
L149.0000 61.0000
" />
<path d="M105.0000 69.0000
L105.0000 85.0000
" />
<path d="M153.0000 45.0000
L153.0000 61.0000
" />
<path d="M87.0000 63.0000 A2.0000 2.0000 0.0 1 0 87.0000 67.0000" />
<path d="M127.0000 43.0000
L143.0000 43.0000
" />
<path d="M19.0000 96.0000
L23.0000 96.0000
" />
<path d="M200.0000 115.0000 A15.0000 15.0000 0.0 0 0 215.0000 100.0000" />
<path d="M71.0000 91.0000 A2.0000 2.0000 0.0 0 0 71.0000 87.0000" />
<path d="M23.0000 30.0000
L23.0000 34.0000
" />
<path d="M182.9882 107.0000
L182.9882 111.0000
" />
<path d="M175.0000 91.0000 A2.0000 2.0000 0.0 0 0 175.0000 87.0000" />
<path d="M23.0000 100.0000 A7.0000 7.0000 0.0 0 0 30.0000 107.0000" />
<path d="M186.0000 111.0000
L186.0000 107.0000
" />
<path d="M55.0000 43.0000
L71.0000 43.0000
" />
<path d="M121.0000 85.0000 A2.0000 2.0000 0.0 0 0 125.0000 85.0000" />
<path d="M211.0000 37.0000
L211.0000 34.0000
" />
<path d="M164.0000 114.9998
L66.0000 115.0000
" />
<path d="M60.0000 115.0000
L30.0000 115.0000
" />
<path d="M55.0000 39.0000
L71.0000 39.0000
" />
<path d="M87.0000 39.0000 A2.0000 2.0000 0.0 1 0 87.0000 43.0000" />
<path d="M127.0000 63.0000
L143.0000 63.0000
" />
<path d="M85.0000 45.0000
L85.0000 61.0000
" />
<path d="M47.0000 19.0000
L44.0000 19.0000
" />
<path d="M109.0000 45.0000 A2.0000 2.0000 0.0 0 0 105.0000 45.0000" />
<path d="M127.0000 39.0000
L143.0000 39.0000
" />
<path d="M200.0000 115.0000
L170.0000 115.0000
" />
<path d="M19.0000 93.0000
L19.0000 96.0000
" />
<path d="M81.0000 61.0000 A2.0000 2.0000 0.0 0 0 85.0000 61.0000" />
<path d="M127.0000 87.0000
L143.0000 87.0000
" />
<path d="M183.0000 19.0000
L186.0000 19.0000
" />
<path d="M186.0000 23.0000
L186.0000 19.0000
" />
<path d="M207.0000 37.0000
L211.0000 37.0000
" />
<path d="M105.0000 61.0000 A2.0000 2.0000 0.0 0 0 109.0000 61.0000" />
<path d="M159.0000 39.0000
L175.0000 39.0000
" />
<path d="M19.0000 37.0000
L23.0000 37.0000
" />
<path d="M125.0000 69.0000 A2.0000 2.0000 0.0 0 0 121.0000 69.0000" />
<path d="M200.0000 107.0000 A7.0000 7.0000 0.0 0 0 207.0000 100.0000" />
<path d="M177.0000 61.0000 A2.0000 2.0000 0.0 0 0 181.0000 61.0000" />
<path d="M200.0000 15.0000
L30.0000 15.0000
" />
<path d="M55.0000 91.0000
L71.0000 91.0000
" />
<path d="M127.0000 39.0000 A2.0000 2.0000 0.0 1 0 127.0000 43.0000" />
<path d="M85.0000 45.0000 A2.0000 2.0000 0.0 0 0 81.0000 45.0000" />
<path d="M55.0000 87.0000
L71.0000 87.0000
" />
<circle cx="151.0000" cy="41.0001" r="2.0000" /> 
<path d="M47.0000 88.0000 A5.0000 5.0000 0.0 0 0 52.0000 93.0000" />
<path d="M164.0000 112.0000
L164.0000 114.9998
" />
<path d="M182.9882 111.0000
L185.9882 111.0000
" />
<circle cx="115.0000" cy="89.0001" r="2.0000" /> 
<path d="M183.0000 23.0000
L47.0000 23.0000
" />
<path d="M49.0000 69.0000
L49.0000 85.0000
" />
<path d="M181.0000 69.0000 A2.0000 2.0000 0.0 0 0 177.0000 69.0000" />
<path d="M200.0000 23.0000
L200.0000 15.0000
" />
<path d="M87.0000 87.0000 A2.0000 2.0000 0.0 1 0 87.0000 91.0000" />
<path d="M66.0000 115.0000
L66.0000 112.0000
" />
<path d="M177.0000 69.0000
L177.0000 85.0000
" />
<path d="M157.0000 45.0000
L157.0000 61.0000
" />
<path d="M200.0000 23.0000
L186.0000 23.0000
" />
<path d="M23.0000 93.0000
L19.0000 93.0000
" />
<path d="M87.0000 67.0000
L103.0000 67.0000
" />
<path d="M23.0000 96.0000
L23.0000 100.0000
" />
<path d="M109.0000 45.0000
L109.0000 61.0000
" />
<path d="M49.0000 85.0000 A2.0000 2.0000 0.0 0 0 53.0000 85.0000" />
<path d="M149.0000 69.0000
L149.0000 85.0000
" />
<path d="M181.0000 45.0000 A2.0000 2.0000 0.0 0 0 177.0000 45.0000" />
<path d="M186.0000 107.0000
L200.0000 107.0000
" />
<path d="M87.0000 91.0000
L103.0000 91.0000
" />
<path d="M30.0000 115.0000
L30.0000 107.0000
" />
<path d="M77.0000 45.0000 A2.0000 2.0000 0.0 0 0 73.0000 45.0000" />
<path d="M53.0000 45.0000 A2.0000 2.0000 0.0 0 0 49.0000 45.0000" />
<path d="M157.0000 69.0000
L157.0000 85.0000
" />
<path d="M103.0000 91.0000 A2.0000 2.0000 0.0 0 0 103.0000 87.0000" />
<path d="M73.0000 45.0000
L73.0000 61.0000
" />
<path d="M103.0000 67.0000 A2.0000 2.0000 0.0 0 0 103.0000 63.0000" />
<path d="M60.0000 112.0000
L60.0000 115.0000
" />
<path d="M47.0000 42.0000
L47.0000 88.0000
" />
<path d="M125.0000 69.0000
L125.0000 85.0000
" />
<path d="M77.0000 69.0000
L77.0000 85.0000
" />
<path d="M71.0000 43.0000 A2.0000 2.0000 0.0 0 0 71.0000 39.0000" />
<path d="M87.0000 87.0000
L103.0000 87.0000
" />
<path d="M30.0000 23.0000
L30.0000 15.0000
" />
<path d="M127.0000 87.0000 A2.0000 2.0000 0.0 1 0 127.0000 91.0000" />
<path d="M73.0000 85.0000 A2.0000 2.0000 0.0 0 0 77.0000 85.0000" />
<path d="M145.0000 61.0000 A2.0000 2.0000 0.0 0 0 149.0000 61.0000" />
<path d="M43.9882 107.0000
L43.9882 111.0000
" />
<path d="M81.0000 45.0000
L81.0000 61.0000
" />
<path d="M55.0000 67.0000
L71.0000 67.0000
" />
<circle cx="115.0000" cy="59.0001" r="2.0000" /> 
<path d="M153.0000 61.0000 A2.0000 2.0000 0.0 0 0 157.0000 61.0000" />
<path d="M30.0000 15.0000 A15.0000 15.0000 0.0 0 0 15.0000 30.0000" />
<path d="M30.0000 23.0000 A7.0000 7.0000 0.0 0 0 23.0000 30.0000" />
<path d="M87.0000 43.0000
L103.0000 43.0000
" />
<path d="M87.0000 63.0000
L103.0000 63.0000
" />
<path d="M52.0000 37.0000 A5.0000 5.0000 0.0 0 0 47.0000 42.0000" />
<path d="M53.0000 69.0000 A2.0000 2.0000 0.0 0 0 49.0000 69.0000" />
<path d="M87.0000 39.0000
L103.0000 39.0000
" />
<path d="M157.0000 45.0000 A2.0000 2.0000 0.0 0 0 153.0000 45.0000" />
<path d="M159.0000 87.0000
L175.0000 87.0000
" />
<path d="M77.0000 69.0000 A2.0000 2.0000 0.0 0 0 73.0000 69.0000" />
<path d="M153.0000 69.0000
L153.0000 85.0000
" />
<path d="M177.0000 85.0000 A2.0000 2.0000 0.0 0 0 181.0000 85.0000" />
<path d="M125.0000 45.0000 A2.0000 2.0000 0.0 0 0 121.0000 45.0000" />
<path d="M200.0000 115.0000
L200.0000 107.0000
" />
<path d="M53.0000 69.0000
L53.0000 85.0000
" />
<path d="M23.0000 34.0000
L19.0000 34.0000
" />
<path d="M121.0000 61.0000 A2.0000 2.0000 0.0 0 0 125.0000 61.0000" />
<path d="M149.0000 45.0000 A2.0000 2.0000 0.0 0 0 145.0000 45.0000" />
<path d="M49.0000 45.0000
L49.0000 61.0000
" />
<path d="M53.0000 45.0000
L53.0000 61.0000
" />
<path d="M73.0000 61.0000 A2.0000 2.0000 0.0 0 0 77.0000 61.0000" />
<path d="M183.0000 42.0000 A5.0000 5.0000 0.0 0 0 178.0000 37.0000" />
<path d="M109.0000 69.0000
L109.0000 85.0000
" />
<path d="M159.0000 39.0000 A2.0000 2.0000 0.0 1 0 159.0000 43.0000" />
<path d="M105.0000 45.0000
L105.0000 61.0000
" />
<path d="M170.0000 112.0000
L164.0000 112.0000
" />
<path d="M15.0000 100.0000 A15.0000 15.0000 0.0 0 0 30.0000 115.0000" />
<path d="M29.9882 107.0000
L43.9882 107.0000
" />
<path d="M121.0000 45.0000
L121.0000 61.0000
" />
<path d="M178.0000 37.0000
L52.0000 37.0000
" />
<path d="M175.0000 43.0000 A2.0000 2.0000 0.0 0 0 175.0000 39.0000" />
<path d="M121.0000 69.0000
L121.0000 85.0000
" />
<path d="M145.0000 69.0000
L145.0000 85.0000
" />
<path d="M159.0000 67.0000
L175.0000 67.0000
" />
<path d="M103.0000 43.0000 A2.0000 2.0000 0.0 0 0 103.0000 39.0000" />
<path d="M215.0000 30.0000 A15.0000 15.0000 0.0 0 0 200.0000 15.0000" />
<path d="M211.0000 34.0000
L207.0000 34.0000
" />
<path d="M15.0000 30.0000
L15.0000 100.0000
" />
<path d="M207.0000 96.0000
L211.0000 96.0000
" />
<path d="M52.0000 93.0000
L177.9900 93.0000
" />
<path d="M170.0000 115.0000
L170.0000 112.0000
" />
<path d="M127.0000 91.0000
L143.0000 91.0000
" />
<path d="M177.0000 45.0000
L177.0000 61.0000
" />
<path d="M181.0000 69.0000
L181.0000 85.0000
" />
<path d="M145.0000 85.0000 A2.0000 2.0000 0.0 0 0 149.0000 85.0000" />
<path d="M46.9882 111.0000
L46.9882 107.0000
" />
<path d="M178.0000 93.0000 A5.0000 5.0000 0.0 0 0 183.0000 88.0000" />
<path d="M183.0000 88.0000
L183.0000 42.0000
" />
<path d="M149.0000 69.0000 A2.0000 2.0000 0.0 0 0 145.0000 69.0000" />
<path d="M44.0000 23.0000
L30.0000 23.0000
" />
<path d="M23.0000 37.0000
L23.0000 93.0000
" />
<path d="M81.0000 69.0000
L81.0000 85.0000
" />
<path d="M105.0000 85.0000 A2.0000 2.0000 0.0 0 0 109.0000 85.0000" />
<path d="M145.0000 45.0000
L145.0000 61.0000
" />
<path d="M55.0000 63.0000
L71.0000 63.0000
" />
<path d="M207.0000 93.0000
L207.0000 37.0000
" />
<path d="M215.0000 100.0000
L215.0000 30.0000
" />
<path d="M46.9882 111.0000
L43.9882 111.0000
" />
<path d="M19.0000 34.0000
L19.0000 37.0000
" />
<path d="M47.0000 107.0000
L182.9882 107.0000
" />
<path d="M207.0000 30.0000 A7.0000 7.0000 0.0 0 0 200.0000 23.0000" />
<path d="M81.0000 85.0000 A2.0000 2.0000 0.0 0 0 85.0000 85.0000" />
<path d="M157.0000 69.0000 A2.0000 2.0000 0.0 0 0 153.0000 69.0000" />
<circle cx="115.0000" cy="71.0001" r="2.0000" /> 
<path d="M73.0000 69.0000
L73.0000 85.0000
" />
<path d="M143.0000 43.0000 A2.0000 2.0000 0.0 0 0 143.0000 39.0000" />
</g>
<g style="fill:none; 
stroke:#FFFFFF; stroke-width:0.3750; stroke-opacity:1; 
stroke-linecap:round; stroke-linejoin:round;">
<text x="115.0000" y="20.5000"
transform="scale(-1 1) translate(-230.000000 0)"
textLength="6.3821" font-size="4.0000" lengthAdjust="spacingAndGlyphs"
text-anchor="middle" opacity="0" stroke-opacity="0">G3</text>
<g class="stroked-text"><desc>G3</desc>
<path d="M115.6429 17.5112
L115.9286 17.3684
" />
<path d="M115.9286 17.3684
L116.3571 17.3684
" />
<path d="M116.3571 17.3684
L116.7857 17.5112
" />
<path d="M116.7857 17.5112
L117.0714 17.7969
" />
<path d="M117.0714 17.7969
L117.2143 18.0826
" />
<path d="M117.2143 18.0826
L117.3571 18.6541
" />
<path d="M117.3571 18.6541
L117.3571 19.0826
" />
<path d="M117.3571 19.0826
L117.2143 19.6541
" />
<path d="M117.2143 19.6541
L117.0714 19.9398
" />
<path d="M117.0714 19.9398
L116.7857 20.2255
" />
<path d="M116.7857 20.2255
L116.3571 20.3684
" />
<path d="M116.3571 20.3684
L116.0714 20.3684
" />
<path d="M116.0714 20.3684
L115.6429 20.2255
" />
<path d="M115.6429 20.2255
L115.5000 20.0826
" />
<path d="M115.5000 20.0826
L115.5000 19.0826
" />
<path d="M115.5000 19.0826
L116.0714 19.0826
" />
<path d="M114.5000 17.3684
L112.6429 17.3684
" />
<path d="M112.6429 17.3684
L113.6429 18.5112
" />
<path d="M113.6429 18.5112
L113.2143 18.5112
" />
<path d="M113.2143 18.5112
L112.9286 18.6541
" />
<path d="M112.9286 18.6541
L112.7857 18.7969
" />
<path d="M112.7857 18.7969
L112.6429 19.0826
" />
<path d="M112.6429 19.0826
L112.6429 19.7969
" />
<path d="M112.6429 19.7969
L112.7857 20.0826
" />
<path d="M112.7857 20.0826
L112.9286 20.2255
" />
<path d="M112.9286 20.2255
L113.2143 20.3684
" />
<path d="M113.2143 20.3684
L114.0714 20.3684
" />
<path d="M114.0714 20.3684
L114.3571 20.2255
" />
<path d="M114.3571 20.2255
L114.5000 20.0826
" />
</g><text x="115.0000" y="112.5000"
transform="scale(-1 1) translate(-230.000000 0)"
textLength="6.3821" font-size="4.0000" lengthAdjust="spacingAndGlyphs"
text-anchor="middle" opacity="0" stroke-opacity="0">D3</text>
<g class="stroked-text"><desc>D3</desc>
<path d="M117.2143 112.3684
L117.2143 109.3684
" />
<path d="M117.2143 109.3684
L116.5000 109.3684
" />
<path d="M116.5000 109.3684
L116.0714 109.5112
" />
<path d="M116.0714 109.5112
L115.7857 109.7969
" />
<path d="M115.7857 109.7969
L115.6429 110.0826
" />
<path d="M115.6429 110.0826
L115.5000 110.6541
" />
<path d="M115.5000 110.6541
L115.5000 111.0826
" />
<path d="M115.5000 111.0826
L115.6429 111.6541
" />
<path d="M115.6429 111.6541
L115.7857 111.9398
" />
<path d="M115.7857 111.9398
L116.0714 112.2255
" />
<path d="M116.0714 112.2255
L116.5000 112.3684
" />
<path d="M116.5000 112.3684
L117.2143 112.3684
" />
<path d="M114.5000 109.3684
L112.6429 109.3684
" />
<path d="M112.6429 109.3684
L113.6429 110.5112
" />
<path d="M113.6429 110.5112
L113.2143 110.5112
" />
<path d="M113.2143 110.5112
L112.9286 110.6541
" />
<path d="M112.9286 110.6541
L112.7857 110.7969
" />
<path d="M112.7857 110.7969
L112.6429 111.0826
" />
<path d="M112.6429 111.0826
L112.6429 111.7969
" />
<path d="M112.6429 111.7969
L112.7857 112.0826
" />
<path d="M112.7857 112.0826
L112.9286 112.2255
" />
<path d="M112.9286 112.2255
L113.2143 112.3684
" />
<path d="M113.2143 112.3684
L114.0714 112.3684
" />
<path d="M114.0714 112.3684
L114.3571 112.2255
" />
<path d="M114.3571 112.2255
L114.5000 112.0826
" />
</g></g> 
</svg>
