  0
SECTION
  2
HEADER
  9
$ANGBASE
  50
0.0
  9
$ANGDIR
  70
1
  9
$MEASUREMENT
  70
1
  0
ENDSEC
  0
SECTION
  2
TABLES
  0
TABLE
  2
LTYPE
  70
4
  0
LTYPE
  5
40F
  2
CONTINUOUS
  70
0
  3
Solid line
  72
65
  73
0
  40
0.0
  0
LTYPE
  5
410
  2
DASHDOT
 70
0
  3
Dash Dot ____ _ ____ _
 72
65
 73
4
 40
2.0
 49
1.25
 49
-0.25
 49
0.25
 49
-0.25
  0
LTYPE
  5
411
  2
DASHED
 70
0
  3
Dashed __ __ __ __ __
 72
65
 73
2
 40
0.75
 49
0.5
 49
-0.25
  0
LTYPE
  5
43B
  2
DOTTED
 70
0
  3
Dotted .  .  .  .
 72
65
 73
2
 40
0.2
 49
0.0
 49
-0.2
  0
ENDTAB
  0
TABLE
  2
STYLE
  70
4
  0
STYLE
  2
KICAD
  70
0
  40
0
  41
1
  42
1
  50
0
  71
0
  3
isocp.shx
  0
STYLE
  2
KICADB
  70
0
  40
0
  41
1
  42
1
  50
0
  71
0
  3
isocp.shx
  0
STYLE
  2
KICADI
  70
0
  40
0
  41
1
  42
1
  50
15
  71
0
  3
isocp.shx
  0
STYLE
  2
KICADBI
  70
0
  40
0
  41
1
  42
1
  50
15
  71
0
  3
isocp.shx
  0
ENDTAB
  0
TABLE
  2
LAYER
  70
1
  0
LAYER
  2
BLACK
  70
0
  62
7
  6
CONTINUOUS
  0
ENDTAB
  0
ENDSEC
  0
SECTION
  2
ENTITIES
0
LINE
8
BLACK
6
CONTINUOUS
10
-19.9999919999999989
20
-34.0000080000000011
11
-19.9999919999999989
21
-37.0000080000000011
0
LINE
8
BLACK
6
CONTINUOUS
10
-9.0118229999999997
20
-22.9999799999999972
11
-9.
21
-15.0000089999999986
0
ARC
8
BLACK
10
-9.
20
-100.000009999999989
40
14.9999980000001329
50
-180.00001528
51
-90.00000764
0
LINE
8
BLACK
6
CONTINUOUS
10
-15.9999979999999997
20
-96.000009999999989
11
-16.0000289999999978
21
-99.9999990000000025
0
LINE
8
BLACK
6
CONTINUOUS
10
-23.9999979999999979
20
-29.9999929999999999
11
-24.0000019999999985
21
-100.0000059999999991
0
ARC
8
BLACK
10
-9.
20
-30.0000099999999996
40
7.0000300000000717
50
89.99994270
51
179.99999181
0
LINE
8
BLACK
6
CONTINUOUS
10
-9.0000020000000003
20
-115.000007999999994
11
-9.0000129999999992
21
-107.000040999999996
0
LINE
8
BLACK
6
CONTINUOUS
10
-19.9999979999999979
20
-96.000009999999989
11
-15.9999979999999997
21
-96.000009999999989
0
ARC
8
BLACK
10
-9.
20
-30.0000099999999996
40
15.0000020000001335
50
90.00000000
51
179.99999236
0
ARC
8
BLACK
10
-9.
20
-100.
40
7.0000360000000716
50
-180.00000819
51
-90.00000819
0
LINE
8
BLACK
6
CONTINUOUS
10
-16.0000299999999989
20
-30.0000089999999986
11
-15.9999919999999989
21
-34.0000080000000011
0
LINE
8
BLACK
6
CONTINUOUS
10
-19.9999919999999989
20
-37.0000080000000011
11
4.9999919999999998
21
-37.0000059999999991
0
LINE
8
BLACK
6
CONTINUOUS
10
-19.9999979999999979
20
-93.000009999999989
11
-19.9999979999999979
21
-96.000009999999989
0
LINE
8
BLACK
6
CONTINUOUS
10
-15.9999919999999989
20
-34.0000080000000011
11
-19.9999919999999989
21
-34.0000080000000011
0
LINE
8
BLACK
6
CONTINUOUS
10
4.9999859999999998
20
-93.000007999999994
11
-19.9999979999999979
21
-93.000009999999989
0
LINE
8
BLACK
6
CONTINUOUS
10
4.9999919999999998
20
-37.0000059999999991
11
4.9999859999999998
21
-93.000007999999994
0
LINE
8
BLACK
6
CONTINUOUS
10
19.0000159999999987
20
-37.000001999999995
11
44.
21
-37.
0
LINE
8
BLACK
6
CONTINUOUS
10
164.0000069999999823
20
-136.0000029999999924
11
164.0000069999999823
21
-138.9998319999999978
0
LINE
8
BLACK
6
CONTINUOUS
10
60.0000069999999965
20
-136.0000029999999924
11
60.0000069999999965
21
-139.0000029999999924
0
LINE
8
BLACK
6
CONTINUOUS
10
47.0118409999999969
20
-129.0000100000000032
11
47.0118409999999969
21
-125.000009999999989
0
LINE
8
BLACK
6
CONTINUOUS
10
22.9999779999999987
20
-30.0000029999999995
11
23.0000159999999987
21
-34.000001999999995
0
LINE
8
BLACK
6
CONTINUOUS
10
46.9881689999999992
20
-110.9999919999999918
11
46.9881689999999992
21
-106.9999919999999918
0
LINE
8
BLACK
6
CONTINUOUS
10
66.0000069999999965
20
-136.0000029999999924
11
60.0000069999999965
21
-136.0000029999999924
0
LINE
8
BLACK
6
CONTINUOUS
10
44.0118409999999969
20
-129.0000100000000032
11
30.0000159999999987
21
-128.9999799999999937
0
LINE
8
BLACK
6
CONTINUOUS
10
30.0000059999999991
20
-115.000001999999995
11
29.9999949999999984
21
-107.0000349999999969
0
LINE
8
BLACK
6
CONTINUOUS
10
47.0000099999999961
20
-19.0000040000000006
11
44.0000099999999961
21
-19.0000040000000006
0
ARC
8
BLACK
10
30.
20
-30.
40
7.0000220000006426
50
-270.00012278
51
-179.99997544
0
LINE
8
BLACK
6
CONTINUOUS
10
15.0000099999999996
20
-29.9999869999999973
11
15.0000059999999991
21
-100.
0
LINE
8
BLACK
6
CONTINUOUS
10
23.0000099999999996
20
-96.0000039999999899
11
22.9999789999999997
21
-99.9999929999999893
0
LINE
8
BLACK
6
CONTINUOUS
10
207.
20
-33.9999949999999984
11
207.0000309999999786
21
-30.0000059999999991
0
LINE
8
BLACK
6
CONTINUOUS
10
182.9881689999999992
20
-130.9999949999999842
11
182.9881689999999992
21
-134.9999949999999842
0
LINE
8
BLACK
6
CONTINUOUS
10
206.9999939999999867
20
-95.9999969999999934
11
210.9999939999999867
21
-95.9999969999999934
0
ARC
8
BLACK
10
30.
20
-100.
40
7.0000300000034992
50
-180.00005730
51
-89.99994270
0
LINE
8
BLACK
6
CONTINUOUS
10
207.
20
-36.9999949999999984
11
211.
21
-36.9999949999999984
0
LINE
8
BLACK
6
CONTINUOUS
10
191.0000110000000006
20
-22.9999709999999986
11
191.
21
-15.0000039999999988
0
LINE
8
BLACK
6
CONTINUOUS
10
46.9881689999999992
20
-110.9999919999999918
11
43.9881689999999992
21
-110.9999919999999918
0
LINE
8
BLACK
6
CONTINUOUS
10
66.0000069999999965
20
-112.0000029999999924
11
60.0000069999999965
21
-112.0000029999999924
0
LINE
8
BLACK
6
CONTINUOUS
10
46.9881689999999992
20
-130.9999919999999918
11
182.9881689999999992
21
-130.9999949999999842
0
ARC
8
BLACK
10
30.0000070000000001
20
-30.0000029999999995
40
15.000001000000033
50
89.99999618
51
179.99999618
0
LINE
8
BLACK
6
CONTINUOUS
10
191.
20
-15.0000039999999988
11
30.0000079999999976
21
-15.0000029999999995
0
LINE
8
BLACK
6
CONTINUOUS
10
182.9881689999999992
20
-106.9999949999999984
11
182.9881689999999992
21
-110.9999949999999984
0
LINE
8
BLACK
6
CONTINUOUS
10
200.0000069999999823
20
-139.000001999999995
11
170.0000069999999823
21
-139.000001999999995
0
LINE
8
BLACK
6
CONTINUOUS
10
46.9881689999999992
20
-134.9999919999999918
11
43.9881689999999992
21
-134.9999919999999918
0
LINE
8
BLACK
6
CONTINUOUS
10
19.0000099999999996
20
-96.0000039999999899
11
23.0000099999999996
21
-96.0000039999999899
0
LINE
8
BLACK
6
CONTINUOUS
10
60.0000069999999965
20
-115.0000029999999924
11
30.0000059999999991
21
-115.000001999999995
0
LINE
8
BLACK
6
CONTINUOUS
10
47.0000099999999961
20
-23.0000040000000006
11
47.0000099999999961
21
-19.0000040000000006
0
LINE
8
BLACK
6
CONTINUOUS
10
200.0000039999999899
20
-139.000001999999995
11
199.9999929999999893
21
-131.0000349999999969
0
LINE
8
BLACK
6
CONTINUOUS
10
43.9881619999999955
20
-107.0000299999999953
11
43.9881689999999992
21
-110.9999919999999918
0
LINE
8
BLACK
6
CONTINUOUS
10
191.0000110000000006
20
-22.9999709999999986
11
186.0000169999999855
21
-22.9999690000000001
0
LINE
8
BLACK
6
CONTINUOUS
10
191.0118310000000008
20
-121.000009999999989
11
30.0118389999999984
21
-121.0000089999999915
0
LINE
8
BLACK
6
CONTINUOUS
10
185.9881689999999992
20
-106.9999949999999984
11
199.9999939999999867
21
-107.0000249999999937
0
LINE
8
BLACK
6
CONTINUOUS
10
183.011841000000004
20
-129.0000129999999956
11
47.0118409999999969
21
-129.0000100000000032
0
LINE
8
BLACK
6
CONTINUOUS
10
185.9881689999999992
20
-110.9999949999999984
11
185.9881689999999992
21
-106.9999949999999984
0
LINE
8
BLACK
6
CONTINUOUS
10
44.0118409999999969
20
-125.000009999999989
11
44.0118409999999969
21
-129.0000100000000032
0
LINE
8
BLACK
6
CONTINUOUS
10
30.0000159999999987
20
-128.9999799999999937
11
30.0118389999999984
21
-121.0000089999999915
0
LINE
8
BLACK
6
CONTINUOUS
10
44.
20
-37.
11
43.9999940000000009
21
-93.000001999999995
0
LINE
8
BLACK
6
CONTINUOUS
10
170.0000069999999823
20
-136.0000029999999924
11
164.0000069999999823
21
-136.0000029999999924
0
LINE
8
BLACK
6
CONTINUOUS
10
164.0000069999999823
20
-114.9998319999999978
11
66.0000069999999965
21
-115.0000029999999924
0
LINE
8
BLACK
6
CONTINUOUS
10
183.0000100000000032
20
-19.0000070000000001
11
186.0000100000000032
21
-19.0000070000000001
0
LINE
8
BLACK
6
CONTINUOUS
10
206.9999939999999867
20
-92.9999969999999934
11
207.
21
-36.9999949999999984
0
LINE
8
BLACK
6
CONTINUOUS
10
43.9999940000000009
20
-93.000001999999995
11
19.0000099999999996
21
-93.0000039999999899
0
LINE
8
BLACK
6
CONTINUOUS
10
210.9999939999999867
20
-92.9999969999999934
11
206.9999939999999867
21
-92.9999969999999934
0
LINE
8
BLACK
6
CONTINUOUS
10
23.0000159999999987
20
-34.000001999999995
11
19.0000159999999987
21
-34.000001999999995
0
LINE
8
BLACK
6
CONTINUOUS
10
200.0000039999999899
20
-115.000001999999995
11
199.9999929999999893
21
-107.0000349999999969
0
LINE
8
BLACK
6
CONTINUOUS
10
44.0000099999999961
20
-23.0000040000000006
11
29.9881849999999979
21
-22.9999739999999981
0
LINE
8
BLACK
6
CONTINUOUS
10
182.9881689999999992
20
-134.9999949999999842
11
185.9881689999999992
21
-134.9999949999999842
0
LINE
8
BLACK
6
CONTINUOUS
10
19.0000099999999996
20
-93.0000039999999899
11
19.0000099999999996
21
-96.0000039999999899
0
LINE
8
BLACK
6
CONTINUOUS
10
44.0000099999999961
20
-19.0000040000000006
11
44.0000099999999961
21
-23.0000040000000006
0
LINE
8
BLACK
6
CONTINUOUS
10
66.0000069999999965
20
-139.0000029999999924
11
66.0000069999999965
21
-136.0000029999999924
0
LINE
8
BLACK
6
CONTINUOUS
10
60.0000069999999965
20
-112.0000029999999924
11
60.0000069999999965
21
-115.0000029999999924
0
LINE
8
BLACK
6
CONTINUOUS
10
185.9881689999999992
20
-130.9999949999999842
11
199.9999939999999867
21
-131.0000249999999937
0
LINE
8
BLACK
6
CONTINUOUS
10
183.011841000000004
20
-125.0000129999999956
11
186.011841000000004
21
-125.0000129999999956
0
LINE
8
BLACK
6
CONTINUOUS
10
200.0000169999999855
20
-22.9999699999999976
11
200.0000059999999849
21
-15.0000029999999995
0
LINE
8
BLACK
6
CONTINUOUS
10
182.9881689999999992
20
-110.9999949999999984
11
185.9881689999999992
21
-110.9999949999999984
0
ARC
8
BLACK
10
200.
20
-30.
40
14.9999980000011988
50
-0.00001528
51
89.99997708
0
LINE
8
BLACK
6
CONTINUOUS
10
200.0000069999999823
20
-115.000001999999995
11
170.0000069999999823
21
-115.000001999999995
0
ARC
8
BLACK
10
200.
20
-100.
40
7.0000310000011421
50
-90.00004911
51
0.00003274
0
ARC
8
BLACK
10
200.
20
-30.
40
7.0000310000002859
50
-0.00004911
51
89.99998363
0
LINE
8
BLACK
6
CONTINUOUS
10
19.0000159999999987
20
-34.000001999999995
11
19.0000159999999987
21
-37.000001999999995
0
LINE
8
BLACK
6
CONTINUOUS
10
207.0000320000000045
20
-99.9999959999999959
11
206.9999939999999867
21
-95.9999969999999934
0
LINE
8
BLACK
6
CONTINUOUS
10
164.0000069999999823
20
-112.0000029999999924
11
164.0000069999999823
21
-114.9998319999999978
0
LINE
8
BLACK
6
CONTINUOUS
10
183.0000100000000032
20
-23.0000070000000001
11
47.0000099999999961
21
-23.0000040000000006
0
LINE
8
BLACK
6
CONTINUOUS
10
211.
20
-36.9999949999999984
11
211.
21
-33.9999949999999984
0
LINE
8
BLACK
6
CONTINUOUS
10
30.0000059999999991
20
-139.000001999999995
11
29.9999949999999984
21
-131.0000349999999969
0
ARC
8
BLACK
10
30.0000099999999996
20
-100.
40
15.0000020000005314
50
-180.00000000
51
-90.00001528
0
LINE
8
BLACK
6
CONTINUOUS
10
191.0118420000000015
20
-128.9999770000000012
11
191.0118310000000008
21
-121.000009999999989
0
LINE
8
BLACK
6
CONTINUOUS
10
191.0118420000000015
20
-128.9999770000000012
11
186.0118479999999863
21
-128.9999750000000063
0
LINE
8
BLACK
6
CONTINUOUS
10
186.0000169999999855
20
-22.9999690000000001
11
186.0000100000000032
21
-19.0000070000000001
0
LINE
8
BLACK
6
CONTINUOUS
10
29.9881849999999979
20
-22.9999739999999981
11
30.0000079999999976
21
-15.0000029999999995
0
LINE
8
BLACK
6
CONTINUOUS
10
183.011841000000004
20
-125.0000129999999956
11
183.011841000000004
21
-129.0000129999999956
0
LINE
8
BLACK
6
CONTINUOUS
10
185.9881689999999992
20
-134.9999949999999842
11
185.9881689999999992
21
-130.9999949999999842
0
LINE
8
BLACK
6
CONTINUOUS
10
215.0000059999999849
20
-99.9999719999999996
11
215.0000049999999874
21
-30.000003999999997
0
LINE
8
BLACK
6
CONTINUOUS
10
29.9881770000000003
20
-131.0000289999999836
11
43.9881619999999955
21
-131.0000299999999811
0
LINE
8
BLACK
6
CONTINUOUS
10
60.0000069999999965
20
-139.0000029999999924
11
30.0000059999999991
21
-139.000001999999995
0
LINE
8
BLACK
6
CONTINUOUS
10
46.9881689999999992
20
-134.9999919999999918
11
46.9881689999999992
21
-130.9999919999999918
0
LINE
8
BLACK
6
CONTINUOUS
10
210.9999939999999867
20
-95.9999969999999934
11
210.9999939999999867
21
-92.9999969999999934
0
LINE
8
BLACK
6
CONTINUOUS
10
46.9881689999999992
20
-106.9999919999999918
11
182.9881689999999992
21
-106.9999949999999984
0
LINE
8
BLACK
6
CONTINUOUS
10
211.
20
-33.9999949999999984
11
207.
21
-33.9999949999999984
0
LINE
8
BLACK
6
CONTINUOUS
10
170.0000069999999823
20
-115.000001999999995
11
170.0000069999999823
21
-112.0000029999999924
0
LINE
8
BLACK
6
CONTINUOUS
10
170.0000069999999823
20
-139.000001999999995
11
170.0000069999999823
21
-136.0000029999999924
0
LINE
8
BLACK
6
CONTINUOUS
10
164.0000069999999823
20
-138.9998319999999978
11
66.0000069999999965
21
-139.0000029999999924
0
ARC
8
BLACK
10
200.
20
-100.
40
15.0000060000001341
50
-89.99998472
51
-0.00000764
0
LINE
8
BLACK
6
CONTINUOUS
10
43.9881619999999955
20
-131.0000299999999811
11
43.9881689999999992
21
-134.9999919999999918
0
LINE
8
BLACK
6
CONTINUOUS
10
183.0000100000000032
20
-19.0000070000000001
11
183.0000100000000032
21
-23.0000070000000001
0
LINE
8
BLACK
6
CONTINUOUS
10
186.0118479999999863
20
-128.9999750000000063
11
186.011841000000004
21
-125.0000129999999956
0
LINE
8
BLACK
6
CONTINUOUS
10
66.0000069999999965
20
-115.0000029999999924
11
66.0000069999999965
21
-112.0000029999999924
0
LINE
8
BLACK
6
CONTINUOUS
10
29.9881770000000003
20
-107.0000289999999978
11
43.9881619999999955
21
-107.0000299999999953
0
LINE
8
BLACK
6
CONTINUOUS
10
170.0000069999999823
20
-112.0000029999999924
11
164.0000069999999823
21
-112.0000029999999924
0
LINE
8
BLACK
6
CONTINUOUS
10
47.0118409999999969
20
-125.000009999999989
11
44.0118409999999969
21
-125.000009999999989
0
LINE
8
BLACK
6
CONTINUOUS
10
117.2142849999999896
20
-112.3683569999999889
11
117.2142849999999896
21
-109.3683569999999889
0
LINE
8
BLACK
6
CONTINUOUS
10
117.2142849999999896
20
-109.3683569999999889
11
116.4999989999999883
21
-109.3683569999999889
0
LINE
8
BLACK
6
CONTINUOUS
10
116.4999989999999883
20
-109.3683569999999889
11
116.0714279999999974
21
-109.5112139999999954
0
LINE
8
BLACK
6
CONTINUOUS
10
116.0714279999999974
20
-109.5112139999999954
11
115.7857130000000012
21
-109.7969279999999941
0
LINE
8
BLACK
6
CONTINUOUS
10
115.7857130000000012
20
-109.7969279999999941
11
115.6428559999999948
21
-110.0826419999999928
0
LINE
8
BLACK
6
CONTINUOUS
10
115.6428559999999948
20
-110.0826419999999928
11
115.4999989999999883
21
-110.6540710000000018
0
LINE
8
BLACK
6
CONTINUOUS
10
115.4999989999999883
20
-110.6540710000000018
11
115.4999989999999883
21
-111.0826419999999928
0
LINE
8
BLACK
6
CONTINUOUS
10
115.4999989999999883
20
-111.0826419999999928
11
115.6428559999999948
21
-111.6540710000000018
0
LINE
8
BLACK
6
CONTINUOUS
10
115.6428559999999948
20
-111.6540710000000018
11
115.7857130000000012
21
-111.9397850000000005
0
LINE
8
BLACK
6
CONTINUOUS
10
115.7857130000000012
20
-111.9397850000000005
11
116.0714279999999974
21
-112.2254999999999967
0
LINE
8
BLACK
6
CONTINUOUS
10
116.0714279999999974
20
-112.2254999999999967
11
116.4999989999999883
21
-112.3683569999999889
0
LINE
8
BLACK
6
CONTINUOUS
10
116.4999989999999883
20
-112.3683569999999889
11
117.2142849999999896
21
-112.3683569999999889
0
LINE
8
BLACK
6
CONTINUOUS
10
112.7857130000000012
20
-109.3683569999999889
11
114.2142849999999896
21
-109.3683569999999889
0
LINE
8
BLACK
6
CONTINUOUS
10
114.2142849999999896
20
-109.3683569999999889
11
114.3571419999999961
21
-110.7969279999999941
0
LINE
8
BLACK
6
CONTINUOUS
10
114.3571419999999961
20
-110.7969279999999941
11
114.2142849999999896
21
-110.6540710000000018
0
LINE
8
BLACK
6
CONTINUOUS
10
114.2142849999999896
20
-110.6540710000000018
11
113.9285709999999909
21
-110.5112139999999954
0
LINE
8
BLACK
6
CONTINUOUS
10
113.9285709999999909
20
-110.5112139999999954
11
113.2142849999999896
21
-110.5112139999999954
0
LINE
8
BLACK
6
CONTINUOUS
10
113.2142849999999896
20
-110.5112139999999954
11
112.9285709999999909
21
-110.6540710000000018
0
LINE
8
BLACK
6
CONTINUOUS
10
112.9285709999999909
20
-110.6540710000000018
11
112.7857130000000012
21
-110.7969279999999941
0
LINE
8
BLACK
6
CONTINUOUS
10
112.7857130000000012
20
-110.7969279999999941
11
112.6428559999999948
21
-111.0826419999999928
0
LINE
8
BLACK
6
CONTINUOUS
10
112.6428559999999948
20
-111.0826419999999928
11
112.6428559999999948
21
-111.7969279999999941
0
LINE
8
BLACK
6
CONTINUOUS
10
112.6428559999999948
20
-111.7969279999999941
11
112.7857130000000012
21
-112.0826419999999928
0
LINE
8
BLACK
6
CONTINUOUS
10
112.7857130000000012
20
-112.0826419999999928
11
112.9285709999999909
21
-112.2254999999999967
0
LINE
8
BLACK
6
CONTINUOUS
10
112.9285709999999909
20
-112.2254999999999967
11
113.2142849999999896
21
-112.3683569999999889
0
LINE
8
BLACK
6
CONTINUOUS
10
113.2142849999999896
20
-112.3683569999999889
11
113.9285709999999909
21
-112.3683569999999889
0
LINE
8
BLACK
6
CONTINUOUS
10
113.9285709999999909
20
-112.3683569999999889
11
114.2142849999999896
21
-112.2254999999999967
0
LINE
8
BLACK
6
CONTINUOUS
10
114.2142849999999896
20
-112.2254999999999967
11
114.3571419999999961
21
-112.0826419999999928
0
LINE
8
BLACK
6
CONTINUOUS
10
117.2142849999999896
20
-136.3683570000000032
11
117.2142849999999896
21
-133.3683570000000032
0
LINE
8
BLACK
6
CONTINUOUS
10
117.2142849999999896
20
-133.3683570000000032
11
116.4999989999999883
21
-133.3683570000000032
0
LINE
8
BLACK
6
CONTINUOUS
10
116.4999989999999883
20
-133.3683570000000032
11
116.0714279999999974
21
-133.5112139999999954
0
LINE
8
BLACK
6
CONTINUOUS
10
116.0714279999999974
20
-133.5112139999999954
11
115.7857130000000012
21
-133.7969279999999799
0
LINE
8
BLACK
6
CONTINUOUS
10
115.7857130000000012
20
-133.7969279999999799
11
115.6428559999999948
21
-134.0826419999999928
0
LINE
8
BLACK
6
CONTINUOUS
10
115.6428559999999948
20
-134.0826419999999928
11
115.4999989999999883
21
-134.6540709999999876
0
LINE
8
BLACK
6
CONTINUOUS
10
115.4999989999999883
20
-134.6540709999999876
11
115.4999989999999883
21
-135.0826419999999928
0
LINE
8
BLACK
6
CONTINUOUS
10
115.4999989999999883
20
-135.0826419999999928
11
115.6428559999999948
21
-135.6540709999999876
0
LINE
8
BLACK
6
CONTINUOUS
10
115.6428559999999948
20
-135.6540709999999876
11
115.7857130000000012
21
-135.9397850000000005
0
LINE
8
BLACK
6
CONTINUOUS
10
115.7857130000000012
20
-135.9397850000000005
11
116.0714279999999974
21
-136.2254999999999825
0
LINE
8
BLACK
6
CONTINUOUS
10
116.0714279999999974
20
-136.2254999999999825
11
116.4999989999999883
21
-136.3683570000000032
0
LINE
8
BLACK
6
CONTINUOUS
10
116.4999989999999883
20
-136.3683570000000032
11
117.2142849999999896
21
-136.3683570000000032
0
LINE
8
BLACK
6
CONTINUOUS
10
112.7857130000000012
20
-133.3683570000000032
11
114.2142849999999896
21
-133.3683570000000032
0
LINE
8
BLACK
6
CONTINUOUS
10
114.2142849999999896
20
-133.3683570000000032
11
114.3571419999999961
21
-134.7969279999999799
0
LINE
8
BLACK
6
CONTINUOUS
10
114.3571419999999961
20
-134.7969279999999799
11
114.2142849999999896
21
-134.6540709999999876
0
LINE
8
BLACK
6
CONTINUOUS
10
114.2142849999999896
20
-134.6540709999999876
11
113.9285709999999909
21
-134.5112139999999954
0
LINE
8
BLACK
6
CONTINUOUS
10
113.9285709999999909
20
-134.5112139999999954
11
113.2142849999999896
21
-134.5112139999999954
0
LINE
8
BLACK
6
CONTINUOUS
10
113.2142849999999896
20
-134.5112139999999954
11
112.9285709999999909
21
-134.6540709999999876
0
LINE
8
BLACK
6
CONTINUOUS
10
112.9285709999999909
20
-134.6540709999999876
11
112.7857130000000012
21
-134.7969279999999799
0
LINE
8
BLACK
6
CONTINUOUS
10
112.7857130000000012
20
-134.7969279999999799
11
112.6428559999999948
21
-135.0826419999999928
0
LINE
8
BLACK
6
CONTINUOUS
10
112.6428559999999948
20
-135.0826419999999928
11
112.6428559999999948
21
-135.7969279999999799
0
LINE
8
BLACK
6
CONTINUOUS
10
112.6428559999999948
20
-135.7969279999999799
11
112.7857130000000012
21
-136.0826419999999928
0
LINE
8
BLACK
6
CONTINUOUS
10
112.7857130000000012
20
-136.0826419999999928
11
112.9285709999999909
21
-136.2254999999999825
0
LINE
8
BLACK
6
CONTINUOUS
10
112.9285709999999909
20
-136.2254999999999825
11
113.2142849999999896
21
-136.3683570000000032
0
LINE
8
BLACK
6
CONTINUOUS
10
113.2142849999999896
20
-136.3683570000000032
11
113.9285709999999909
21
-136.3683570000000032
0
LINE
8
BLACK
6
CONTINUOUS
10
113.9285709999999909
20
-136.3683570000000032
11
114.2142849999999896
21
-136.2254999999999825
0
LINE
8
BLACK
6
CONTINUOUS
10
114.2142849999999896
20
-136.2254999999999825
11
114.3571419999999961
21
-136.0826419999999928
0
LINE
8
BLACK
6
CONTINUOUS
10
115.6546869999999956
20
-123.5112199999999945
11
115.9404019999999917
21
-123.368362999999988
0
LINE
8
BLACK
6
CONTINUOUS
10
115.9404019999999917
20
-123.368362999999988
11
116.3689729999999969
21
-123.368362999999988
0
LINE
8
BLACK
6
CONTINUOUS
10
116.3689729999999969
20
-123.368362999999988
11
116.7975439999999878
21
-123.5112199999999945
0
LINE
8
BLACK
6
CONTINUOUS
10
116.7975439999999878
20
-123.5112199999999945
11
117.0832589999999982
21
-123.7969339999999931
0
LINE
8
BLACK
6
CONTINUOUS
10
117.0832589999999982
20
-123.7969339999999931
11
117.2261159999999904
21
-124.0826479999999918
0
LINE
8
BLACK
6
CONTINUOUS
10
117.2261159999999904
20
-124.0826479999999918
11
117.3689729999999969
21
-124.6540770000000009
0
LINE
8
BLACK
6
CONTINUOUS
10
117.3689729999999969
20
-124.6540770000000009
11
117.3689729999999969
21
-125.0826479999999918
0
LINE
8
BLACK
6
CONTINUOUS
10
117.3689729999999969
20
-125.0826479999999918
11
117.2261159999999904
21
-125.6540770000000009
0
LINE
8
BLACK
6
CONTINUOUS
10
117.2261159999999904
20
-125.6540770000000009
11
117.0832589999999982
21
-125.9397909999999996
0
LINE
8
BLACK
6
CONTINUOUS
10
117.0832589999999982
20
-125.9397909999999996
11
116.7975439999999878
21
-126.2255059999999958
0
LINE
8
BLACK
6
CONTINUOUS
10
116.7975439999999878
20
-126.2255059999999958
11
116.3689729999999969
21
-126.368362999999988
0
LINE
8
BLACK
6
CONTINUOUS
10
116.3689729999999969
20
-126.368362999999988
11
116.0832589999999982
21
-126.368362999999988
0
LINE
8
BLACK
6
CONTINUOUS
10
116.0832589999999982
20
-126.368362999999988
11
115.6546869999999956
21
-126.2255059999999958
0
LINE
8
BLACK
6
CONTINUOUS
10
115.6546869999999956
20
-126.2255059999999958
11
115.5118299999999891
21
-126.0826479999999918
0
LINE
8
BLACK
6
CONTINUOUS
10
115.5118299999999891
20
-126.0826479999999918
11
115.5118299999999891
21
-125.0826479999999918
0
LINE
8
BLACK
6
CONTINUOUS
10
115.5118299999999891
20
-125.0826479999999918
11
116.0832589999999982
21
-125.0826479999999918
0
LINE
8
BLACK
6
CONTINUOUS
10
112.7975439999999878
20
-123.368362999999988
11
114.2261159999999904
21
-123.368362999999988
0
LINE
8
BLACK
6
CONTINUOUS
10
114.2261159999999904
20
-123.368362999999988
11
114.3689729999999969
21
-124.7969339999999931
0
LINE
8
BLACK
6
CONTINUOUS
10
114.3689729999999969
20
-124.7969339999999931
11
114.2261159999999904
21
-124.6540770000000009
0
LINE
8
BLACK
6
CONTINUOUS
10
114.2261159999999904
20
-124.6540770000000009
11
113.9404019999999917
21
-124.5112199999999945
0
LINE
8
BLACK
6
CONTINUOUS
10
113.9404019999999917
20
-124.5112199999999945
11
113.2261159999999904
21
-124.5112199999999945
0
LINE
8
BLACK
6
CONTINUOUS
10
113.2261159999999904
20
-124.5112199999999945
11
112.9404019999999917
21
-124.6540770000000009
0
LINE
8
BLACK
6
CONTINUOUS
10
112.9404019999999917
20
-124.6540770000000009
11
112.7975439999999878
21
-124.7969339999999931
0
LINE
8
BLACK
6
CONTINUOUS
10
112.7975439999999878
20
-124.7969339999999931
11
112.6546869999999956
21
-125.0826479999999918
0
LINE
8
BLACK
6
CONTINUOUS
10
112.6546869999999956
20
-125.0826479999999918
11
112.6546869999999956
21
-125.7969339999999931
0
LINE
8
BLACK
6
CONTINUOUS
10
112.6546869999999956
20
-125.7969339999999931
11
112.7975439999999878
21
-126.0826479999999918
0
LINE
8
BLACK
6
CONTINUOUS
10
112.7975439999999878
20
-126.0826479999999918
11
112.9404019999999917
21
-126.2255059999999958
0
LINE
8
BLACK
6
CONTINUOUS
10
112.9404019999999917
20
-126.2255059999999958
11
113.2261159999999904
21
-126.368362999999988
0
LINE
8
BLACK
6
CONTINUOUS
10
113.2261159999999904
20
-126.368362999999988
11
113.9404019999999917
21
-126.368362999999988
0
LINE
8
BLACK
6
CONTINUOUS
10
113.9404019999999917
20
-126.368362999999988
11
114.2261159999999904
21
-126.2255059999999958
0
LINE
8
BLACK
6
CONTINUOUS
10
114.2261159999999904
20
-126.2255059999999958
11
114.3689729999999969
21
-126.0826479999999918
0
LINE
8
BLACK
6
CONTINUOUS
10
115.6428559999999948
20
-17.5112139999999989
11
115.9285709999999909
21
-17.3683569999999996
0
LINE
8
BLACK
6
CONTINUOUS
10
115.9285709999999909
20
-17.3683569999999996
11
116.3571419999999961
21
-17.3683569999999996
0
LINE
8
BLACK
6
CONTINUOUS
10
116.3571419999999961
20
-17.3683569999999996
11
116.7857130000000012
21
-17.5112139999999989
0
LINE
8
BLACK
6
CONTINUOUS
10
116.7857130000000012
20
-17.5112139999999989
11
117.0714279999999974
21
-17.7969279999999976
0
LINE
8
BLACK
6
CONTINUOUS
10
117.0714279999999974
20
-17.7969279999999976
11
117.2142849999999896
21
-18.0826419999999999
0
LINE
8
BLACK
6
CONTINUOUS
10
117.2142849999999896
20
-18.0826419999999999
11
117.3571419999999961
21
-18.6540709999999983
0
LINE
8
BLACK
6
CONTINUOUS
10
117.3571419999999961
20
-18.6540709999999983
11
117.3571419999999961
21
-19.0826419999999999
0
LINE
8
BLACK
6
CONTINUOUS
10
117.3571419999999961
20
-19.0826419999999999
11
117.2142849999999896
21
-19.6540709999999983
0
LINE
8
BLACK
6
CONTINUOUS
10
117.2142849999999896
20
-19.6540709999999983
11
117.0714279999999974
21
-19.9397850000000005
0
LINE
8
BLACK
6
CONTINUOUS
10
117.0714279999999974
20
-19.9397850000000005
11
116.7857130000000012
21
-20.2255000000000003
0
LINE
8
BLACK
6
CONTINUOUS
10
116.7857130000000012
20
-20.2255000000000003
11
116.3571419999999961
21
-20.3683569999999996
0
LINE
8
BLACK
6
CONTINUOUS
10
116.3571419999999961
20
-20.3683569999999996
11
116.0714279999999974
21
-20.3683569999999996
0
LINE
8
BLACK
6
CONTINUOUS
10
116.0714279999999974
20
-20.3683569999999996
11
115.6428559999999948
21
-20.2255000000000003
0
LINE
8
BLACK
6
CONTINUOUS
10
115.6428559999999948
20
-20.2255000000000003
11
115.4999989999999883
21
-20.0826419999999999
0
LINE
8
BLACK
6
CONTINUOUS
10
115.4999989999999883
20
-20.0826419999999999
11
115.4999989999999883
21
-19.0826419999999999
0
LINE
8
BLACK
6
CONTINUOUS
10
115.4999989999999883
20
-19.0826419999999999
11
116.0714279999999974
21
-19.0826419999999999
0
LINE
8
BLACK
6
CONTINUOUS
10
112.7857130000000012
20
-17.3683569999999996
11
114.2142849999999896
21
-17.3683569999999996
0
LINE
8
BLACK
6
CONTINUOUS
10
114.2142849999999896
20
-17.3683569999999996
11
114.3571419999999961
21
-18.7969279999999976
0
LINE
8
BLACK
6
CONTINUOUS
10
114.3571419999999961
20
-18.7969279999999976
11
114.2142849999999896
21
-18.6540709999999983
0
LINE
8
BLACK
6
CONTINUOUS
10
114.2142849999999896
20
-18.6540709999999983
11
113.9285709999999909
21
-18.5112139999999989
0
LINE
8
BLACK
6
CONTINUOUS
10
113.9285709999999909
20
-18.5112139999999989
11
113.2142849999999896
21
-18.5112139999999989
0
LINE
8
BLACK
6
CONTINUOUS
10
113.2142849999999896
20
-18.5112139999999989
11
112.9285709999999909
21
-18.6540709999999983
0
LINE
8
BLACK
6
CONTINUOUS
10
112.9285709999999909
20
-18.6540709999999983
11
112.7857130000000012
21
-18.7969279999999976
0
LINE
8
BLACK
6
CONTINUOUS
10
112.7857130000000012
20
-18.7969279999999976
11
112.6428559999999948
21
-19.0826419999999999
0
LINE
8
BLACK
6
CONTINUOUS
10
112.6428559999999948
20
-19.0826419999999999
11
112.6428559999999948
21
-19.7969279999999976
0
LINE
8
BLACK
6
CONTINUOUS
10
112.6428559999999948
20
-19.7969279999999976
11
112.7857130000000012
21
-20.0826419999999999
0
LINE
8
BLACK
6
CONTINUOUS
10
112.7857130000000012
20
-20.0826419999999999
11
112.9285709999999909
21
-20.2255000000000003
0
LINE
8
BLACK
6
CONTINUOUS
10
112.9285709999999909
20
-20.2255000000000003
11
113.2142849999999896
21
-20.3683569999999996
0
LINE
8
BLACK
6
CONTINUOUS
10
113.2142849999999896
20
-20.3683569999999996
11
113.9285709999999909
21
-20.3683569999999996
0
LINE
8
BLACK
6
CONTINUOUS
10
113.9285709999999909
20
-20.3683569999999996
11
114.2142849999999896
21
-20.2255000000000003
0
LINE
8
BLACK
6
CONTINUOUS
10
114.2142849999999896
20
-20.2255000000000003
11
114.3571419999999961
21
-20.0826419999999999
  0
ENDSEC
  0
EOF
