%TF.GenerationSoftware,KiCad,Pcbnew,9.0.6-9.0.6~ubuntu24.04.1*%
%TF.CreationDate,2025-12-13T15:08:56+01:00*%
%TF.ProjectId,7_seg_led_tht_3mm,375f7365-675f-46c6-9564-5f7468745f33,1.0*%
%TF.SameCoordinates,Original*%
%TF.FileFunction,Profile,NP*%
%FSLAX46Y46*%
G04 Gerber Fmt 4.6, Leading zero omitted, Abs format (unit mm)*
G04 Created by KiCad (PCBNEW 9.0.6-9.0.6~ubuntu24.04.1) date 2025-12-13 15:08:56*
%MOMM*%
%LPD*%
G01*
G04 APERTURE LIST*
%TA.AperFunction,Profile*%
%ADD10C,0.050000*%
%TD*%
G04 APERTURE END LIST*
D10*
X208500004Y-79499932D02*
G75*
G02*
X209500004Y-79499932I500000J0D01*
G01*
X184500004Y-106499932D02*
X184500004Y-103499932D01*
X184500004Y-79499932D02*
G75*
G02*
X185500004Y-79499932I500000J0D01*
G01*
X195500004Y-117499932D02*
G75*
G02*
X195500004Y-116499932I0J500000D01*
G01*
X184500004Y-103499932D02*
G75*
G02*
X185500004Y-103499932I500000J0D01*
G01*
X209500004Y-106499932D02*
X209500004Y-103499932D01*
X185500004Y-82499932D02*
X185500004Y-79499932D01*
X184500004Y-82499932D02*
X184500004Y-79499932D01*
X209500004Y-82499932D02*
G75*
G02*
X208500004Y-82499932I-500000J0D01*
G01*
X208500004Y-103499932D02*
G75*
G02*
X209500004Y-103499932I500000J0D01*
G01*
X185500004Y-82499932D02*
G75*
G02*
X184500004Y-82499932I-500000J0D01*
G01*
X195500004Y-69499932D02*
X198500004Y-69499932D01*
X208500004Y-106499932D02*
X208500004Y-103499932D01*
X185500004Y-106499932D02*
X185500004Y-103499932D01*
X208500004Y-82499932D02*
X208500004Y-79499932D01*
X195500004Y-93499932D02*
G75*
G02*
X195500004Y-92499932I0J500000D01*
G01*
X195500004Y-93499932D02*
X198500004Y-93499932D01*
X198500004Y-92499932D02*
G75*
G02*
X198500004Y-93499932I0J-500000D01*
G01*
X198500004Y-68499932D02*
G75*
G02*
X198500004Y-69499932I0J-500000D01*
G01*
X209500004Y-82499932D02*
X209500004Y-79499932D01*
X195500004Y-117499932D02*
X198500004Y-117499932D01*
X195500004Y-116499932D02*
X198500004Y-116499932D01*
X209500004Y-106499932D02*
G75*
G02*
X208500004Y-106499932I-500000J0D01*
G01*
X195500004Y-68499932D02*
X198500004Y-68499932D01*
X198500004Y-116499932D02*
G75*
G02*
X198500004Y-117499932I0J-500000D01*
G01*
X195500004Y-69499932D02*
G75*
G02*
X195500004Y-68499932I0J500000D01*
G01*
X195500004Y-92499932D02*
X198500004Y-92499932D01*
X185500004Y-106499932D02*
G75*
G02*
X184500004Y-106499932I-500000J0D01*
G01*
X176500004Y-79499932D02*
G75*
G02*
X177500004Y-79499932I500000J0D01*
G01*
X152500004Y-106499932D02*
X152500004Y-103499932D01*
X152500004Y-79499932D02*
G75*
G02*
X153500004Y-79499932I500000J0D01*
G01*
X163500004Y-117499932D02*
G75*
G02*
X163500004Y-116499932I0J500000D01*
G01*
X152500004Y-103499932D02*
G75*
G02*
X153500004Y-103499932I500000J0D01*
G01*
X177500004Y-106499932D02*
X177500004Y-103499932D01*
X153500004Y-82499932D02*
X153500004Y-79499932D01*
X152500004Y-82499932D02*
X152500004Y-79499932D01*
X177500004Y-82499932D02*
G75*
G02*
X176500004Y-82499932I-500000J0D01*
G01*
X176500004Y-103499932D02*
G75*
G02*
X177500004Y-103499932I500000J0D01*
G01*
X153500004Y-82499932D02*
G75*
G02*
X152500004Y-82499932I-500000J0D01*
G01*
X163500004Y-69499932D02*
X166500004Y-69499932D01*
X176500004Y-106499932D02*
X176500004Y-103499932D01*
X153500004Y-106499932D02*
X153500004Y-103499932D01*
X176500004Y-82499932D02*
X176500004Y-79499932D01*
X163500004Y-93499932D02*
G75*
G02*
X163500004Y-92499932I0J500000D01*
G01*
X163500004Y-93499932D02*
X166500004Y-93499932D01*
X166500004Y-92499932D02*
G75*
G02*
X166500004Y-93499932I0J-500000D01*
G01*
X166500004Y-68499932D02*
G75*
G02*
X166500004Y-69499932I0J-500000D01*
G01*
X177500004Y-82499932D02*
X177500004Y-79499932D01*
X163500004Y-117499932D02*
X166500004Y-117499932D01*
X163500004Y-116499932D02*
X166500004Y-116499932D01*
X177500004Y-106499932D02*
G75*
G02*
X176500004Y-106499932I-500000J0D01*
G01*
X163500004Y-68499932D02*
X166500004Y-68499932D01*
X166500004Y-116499932D02*
G75*
G02*
X166500004Y-117499932I0J-500000D01*
G01*
X163500004Y-69499932D02*
G75*
G02*
X163500004Y-68499932I0J500000D01*
G01*
X163500004Y-92499932D02*
X166500004Y-92499932D01*
X153500004Y-106499932D02*
G75*
G02*
X152500004Y-106499932I-500000J0D01*
G01*
X136500004Y-79499932D02*
G75*
G02*
X137500004Y-79499932I500000J0D01*
G01*
X112500004Y-106499932D02*
X112500004Y-103499932D01*
X112500004Y-79499932D02*
G75*
G02*
X113500004Y-79499932I500000J0D01*
G01*
X123500004Y-117499932D02*
G75*
G02*
X123500004Y-116499932I0J500000D01*
G01*
X112500004Y-103499932D02*
G75*
G02*
X113500004Y-103499932I500000J0D01*
G01*
X137500004Y-106499932D02*
X137500004Y-103499932D01*
X113500004Y-82499932D02*
X113500004Y-79499932D01*
X112500004Y-82499932D02*
X112500004Y-79499932D01*
X137500004Y-82499932D02*
G75*
G02*
X136500004Y-82499932I-500000J0D01*
G01*
X136500004Y-103499932D02*
G75*
G02*
X137500004Y-103499932I500000J0D01*
G01*
X113500004Y-82499932D02*
G75*
G02*
X112500004Y-82499932I-500000J0D01*
G01*
X123500004Y-69499932D02*
X126500004Y-69499932D01*
X136500004Y-106499932D02*
X136500004Y-103499932D01*
X113500004Y-106499932D02*
X113500004Y-103499932D01*
X136500004Y-82499932D02*
X136500004Y-79499932D01*
X123500004Y-93499932D02*
G75*
G02*
X123500004Y-92499932I0J500000D01*
G01*
X123500004Y-93499932D02*
X126500004Y-93499932D01*
X126500004Y-92499932D02*
G75*
G02*
X126500004Y-93499932I0J-500000D01*
G01*
X126500004Y-68499932D02*
G75*
G02*
X126500004Y-69499932I0J-500000D01*
G01*
X137500004Y-82499932D02*
X137500004Y-79499932D01*
X123500004Y-117499932D02*
X126500004Y-117499932D01*
X123500004Y-116499932D02*
X126500004Y-116499932D01*
X137500004Y-106499932D02*
G75*
G02*
X136500004Y-106499932I-500000J0D01*
G01*
X123500004Y-68499932D02*
X126500004Y-68499932D01*
X126500004Y-116499932D02*
G75*
G02*
X126500004Y-117499932I0J-500000D01*
G01*
X123500004Y-69499932D02*
G75*
G02*
X123500004Y-68499932I0J500000D01*
G01*
X123500004Y-92499932D02*
X126500004Y-92499932D01*
X113500004Y-106499932D02*
G75*
G02*
X112500004Y-106499932I-500000J0D01*
G01*
X91500004Y-93499932D02*
X94500004Y-93499932D01*
X94500004Y-92499932D02*
G75*
G02*
X94500004Y-93499932I0J-500000D01*
G01*
X91500004Y-92499932D02*
X94500004Y-92499932D01*
X91500004Y-93499932D02*
G75*
G02*
X91500004Y-92499932I0J500000D01*
G01*
X105500004Y-82499932D02*
X105500004Y-79499932D01*
X104500004Y-79499932D02*
G75*
G02*
X105500004Y-79499932I500000J0D01*
G01*
X104500004Y-82499932D02*
X104500004Y-79499932D01*
X105500004Y-82499932D02*
G75*
G02*
X104500004Y-82499932I-500000J0D01*
G01*
X105500004Y-106499932D02*
X105500004Y-103499932D01*
X104500004Y-103499932D02*
G75*
G02*
X105500004Y-103499932I500000J0D01*
G01*
X104500004Y-106499932D02*
X104500004Y-103499932D01*
X105500004Y-106499932D02*
G75*
G02*
X104500004Y-106499932I-500000J0D01*
G01*
X91500004Y-117499932D02*
X94500004Y-117499932D01*
X94500004Y-116499932D02*
G75*
G02*
X94500004Y-117499932I0J-500000D01*
G01*
X91500004Y-116499932D02*
X94500004Y-116499932D01*
X91500004Y-117499932D02*
G75*
G02*
X91500004Y-116499932I0J500000D01*
G01*
X81500004Y-106499932D02*
X81500004Y-103499932D01*
X80500004Y-103499932D02*
G75*
G02*
X81500004Y-103499932I500000J0D01*
G01*
X80500004Y-106499932D02*
X80500004Y-103499932D01*
X81500004Y-106499932D02*
G75*
G02*
X80500004Y-106499932I-500000J0D01*
G01*
X81500004Y-82499932D02*
X81500004Y-79499932D01*
X80500004Y-79499932D02*
G75*
G02*
X81500004Y-79499932I500000J0D01*
G01*
X80500004Y-82499932D02*
X80500004Y-79499932D01*
X81500004Y-82499932D02*
G75*
G02*
X80500004Y-82499932I-500000J0D01*
G01*
X94500004Y-68499932D02*
G75*
G02*
X94500004Y-69499932I0J-500000D01*
G01*
X91500004Y-68499932D02*
X94500004Y-68499932D01*
X91500004Y-69499932D02*
X94500004Y-69499932D01*
X91500004Y-69499932D02*
G75*
G02*
X91500004Y-68499932I0J500000D01*
G01*
X138500000Y-110700000D02*
G75*
G02*
X138500000Y-111700000I0J-500000D01*
G01*
X186500000Y-74300000D02*
X183500000Y-74300000D01*
X151500000Y-99300000D02*
G75*
G02*
X151500000Y-98300000I0J500000D01*
G01*
X114500000Y-74300000D02*
G75*
G02*
X114500000Y-75300000I0J-500000D01*
G01*
X106500000Y-74300000D02*
X103500000Y-74300000D01*
X130700000Y-91500000D02*
X130700000Y-94500000D01*
X79500000Y-75300000D02*
G75*
G02*
X79500000Y-74300000I0J500000D01*
G01*
X103500000Y-75300000D02*
G75*
G02*
X103500000Y-74300000I0J500000D01*
G01*
X202700000Y-67500000D02*
G75*
G02*
X203700000Y-67500000I500000J0D01*
G01*
X118300000Y-67500000D02*
X118300000Y-70500000D01*
X118300000Y-115500000D02*
G75*
G02*
X119300000Y-115500000I500000J0D01*
G01*
X114500000Y-99300000D02*
X111500000Y-99300000D01*
X186500000Y-98300000D02*
X183500000Y-98300000D01*
X154500000Y-99300000D02*
X151500000Y-99300000D01*
X207500000Y-87700000D02*
X210500000Y-87700000D01*
X103500000Y-86700000D02*
X106500000Y-86700000D01*
X119300000Y-118500000D02*
G75*
G02*
X118300000Y-118500000I-500000J0D01*
G01*
X175500000Y-86700000D02*
X178500000Y-86700000D01*
X86300000Y-115500000D02*
X86300000Y-118500000D01*
X170700000Y-91500000D02*
G75*
G02*
X171700000Y-91500000I500000J0D01*
G01*
X82500000Y-74300000D02*
G75*
G02*
X82500000Y-75300000I0J-500000D01*
G01*
X111500000Y-75300000D02*
G75*
G02*
X111500000Y-74300000I0J500000D01*
G01*
X158300000Y-115500000D02*
X158300000Y-118500000D01*
X154500000Y-98300000D02*
G75*
G02*
X154500000Y-99300000I0J-500000D01*
G01*
X114500000Y-75300000D02*
X111500000Y-75300000D01*
X82500000Y-75300000D02*
X79500000Y-75300000D01*
X130700000Y-118500000D02*
X130700000Y-115500000D01*
X191300000Y-94500000D02*
X191300000Y-91500000D01*
X135500000Y-110700000D02*
X138500000Y-110700000D01*
X151500000Y-87700000D02*
G75*
G02*
X151500000Y-86700000I0J500000D01*
G01*
X210500000Y-74300000D02*
X207500000Y-74300000D01*
X114500000Y-86700000D02*
G75*
G02*
X114500000Y-87700000I0J-500000D01*
G01*
X106500000Y-98300000D02*
G75*
G02*
X106500000Y-99300000I0J-500000D01*
G01*
X111500000Y-110700000D02*
X114500000Y-110700000D01*
X203700000Y-118500000D02*
G75*
G02*
X202700000Y-118500000I-500000J0D01*
G01*
X99700000Y-94500000D02*
G75*
G02*
X98700000Y-94500000I-500000J0D01*
G01*
X86300000Y-67500000D02*
G75*
G02*
X87300000Y-67500000I500000J0D01*
G01*
X87300000Y-115500000D02*
X87300000Y-118500000D01*
X151500000Y-86700000D02*
X154500000Y-86700000D01*
X103500000Y-99300000D02*
G75*
G02*
X103500000Y-98300000I0J500000D01*
G01*
X135500000Y-99300000D02*
G75*
G02*
X135500000Y-98300000I0J500000D01*
G01*
X111500000Y-87700000D02*
X114500000Y-87700000D01*
X186500000Y-75300000D02*
X183500000Y-75300000D01*
X99700000Y-70500000D02*
X99700000Y-67500000D01*
X171700000Y-91500000D02*
X171700000Y-94500000D01*
X191300000Y-70500000D02*
G75*
G02*
X190300000Y-70500000I-500000J0D01*
G01*
X191300000Y-118500000D02*
G75*
G02*
X190300000Y-118500000I-500000J0D01*
G01*
X170700000Y-67500000D02*
G75*
G02*
X171700000Y-67500000I500000J0D01*
G01*
X82500000Y-99300000D02*
X79500000Y-99300000D01*
X190300000Y-115500000D02*
G75*
G02*
X191300000Y-115500000I500000J0D01*
G01*
X98700000Y-91500000D02*
G75*
G02*
X99700000Y-91500000I500000J0D01*
G01*
X135500000Y-75300000D02*
G75*
G02*
X135500000Y-74300000I0J500000D01*
G01*
X175500000Y-87700000D02*
X178500000Y-87700000D01*
X186500000Y-110700000D02*
G75*
G02*
X186500000Y-111700000I0J-500000D01*
G01*
X183500000Y-99300000D02*
G75*
G02*
X183500000Y-98300000I0J500000D01*
G01*
X114500000Y-110700000D02*
G75*
G02*
X114500000Y-111700000I0J-500000D01*
G01*
X186500000Y-74300000D02*
G75*
G02*
X186500000Y-75300000I0J-500000D01*
G01*
X207500000Y-110700000D02*
X210500000Y-110700000D01*
X191300000Y-94500000D02*
G75*
G02*
X190300000Y-94500000I-500000J0D01*
G01*
X75000000Y-65000000D02*
X235000000Y-65000000D01*
X235000000Y-125000000D01*
X75000000Y-125000000D01*
X75000000Y-65000000D01*
X82500000Y-98300000D02*
G75*
G02*
X82500000Y-99300000I0J-500000D01*
G01*
X183500000Y-111700000D02*
X186500000Y-111700000D01*
X131700000Y-70500000D02*
G75*
G02*
X130700000Y-70500000I-500000J0D01*
G01*
X86300000Y-67500000D02*
X86300000Y-70500000D01*
X138500000Y-98300000D02*
G75*
G02*
X138500000Y-99300000I0J-500000D01*
G01*
X119300000Y-94500000D02*
X119300000Y-91500000D01*
X190300000Y-67500000D02*
X190300000Y-70500000D01*
X186500000Y-98300000D02*
G75*
G02*
X186500000Y-99300000I0J-500000D01*
G01*
X186500000Y-86700000D02*
G75*
G02*
X186500000Y-87700000I0J-500000D01*
G01*
X178500000Y-98300000D02*
G75*
G02*
X178500000Y-99300000I0J-500000D01*
G01*
X191300000Y-115500000D02*
X191300000Y-118500000D01*
X183500000Y-87700000D02*
X186500000Y-87700000D01*
X135500000Y-87700000D02*
X138500000Y-87700000D01*
X203700000Y-70500000D02*
X203700000Y-67500000D01*
X178500000Y-110700000D02*
G75*
G02*
X178500000Y-111700000I0J-500000D01*
G01*
X130700000Y-70500000D02*
X130700000Y-67500000D01*
X158300000Y-91500000D02*
G75*
G02*
X159300000Y-91500000I500000J0D01*
G01*
X151500000Y-87700000D02*
X154500000Y-87700000D01*
X106500000Y-98300000D02*
X103500000Y-98300000D01*
X87300000Y-94500000D02*
X87300000Y-91500000D01*
X207500000Y-111700000D02*
X210500000Y-111700000D01*
X119300000Y-67500000D02*
X119300000Y-70500000D01*
X106500000Y-99300000D02*
X103500000Y-99300000D01*
X175500000Y-111700000D02*
X178500000Y-111700000D01*
X118300000Y-115500000D02*
X118300000Y-118500000D01*
X99700000Y-118500000D02*
X99700000Y-115500000D01*
X170700000Y-91500000D02*
X170700000Y-94500000D01*
X210500000Y-98300000D02*
G75*
G02*
X210500000Y-99300000I0J-500000D01*
G01*
X138500000Y-99300000D02*
X135500000Y-99300000D01*
X159300000Y-67500000D02*
X159300000Y-70500000D01*
X151500000Y-111700000D02*
G75*
G02*
X151500000Y-110700000I0J500000D01*
G01*
X135500000Y-87700000D02*
G75*
G02*
X135500000Y-86700000I0J500000D01*
G01*
X175500000Y-110700000D02*
X178500000Y-110700000D01*
X138500000Y-98300000D02*
X135500000Y-98300000D01*
X158300000Y-67500000D02*
G75*
G02*
X159300000Y-67500000I500000J0D01*
G01*
X135500000Y-86700000D02*
X138500000Y-86700000D01*
X114500000Y-74300000D02*
X111500000Y-74300000D01*
X203700000Y-94500000D02*
G75*
G02*
X202700000Y-94500000I-500000J0D01*
G01*
X178500000Y-74300000D02*
X175500000Y-74300000D01*
X158300000Y-67500000D02*
X158300000Y-70500000D01*
X131700000Y-94500000D02*
G75*
G02*
X130700000Y-94500000I-500000J0D01*
G01*
X138500000Y-86700000D02*
G75*
G02*
X138500000Y-87700000I0J-500000D01*
G01*
X131700000Y-70500000D02*
X131700000Y-67500000D01*
X207500000Y-87700000D02*
G75*
G02*
X207500000Y-86700000I0J500000D01*
G01*
X202700000Y-91500000D02*
G75*
G02*
X203700000Y-91500000I500000J0D01*
G01*
X159300000Y-94500000D02*
X159300000Y-91500000D01*
X82500000Y-98300000D02*
X79500000Y-98300000D01*
X79500000Y-87700000D02*
X82500000Y-87700000D01*
X171700000Y-94500000D02*
G75*
G02*
X170700000Y-94500000I-500000J0D01*
G01*
X202700000Y-118500000D02*
X202700000Y-115500000D01*
X103500000Y-111700000D02*
X106500000Y-111700000D01*
X186500000Y-99300000D02*
X183500000Y-99300000D01*
X210500000Y-99300000D02*
X207500000Y-99300000D01*
X190300000Y-115500000D02*
X190300000Y-118500000D01*
X175500000Y-75300000D02*
G75*
G02*
X175500000Y-74300000I0J500000D01*
G01*
X170700000Y-118500000D02*
X170700000Y-115500000D01*
X130700000Y-91500000D02*
G75*
G02*
X131700000Y-91500000I500000J0D01*
G01*
X130700000Y-67500000D02*
G75*
G02*
X131700000Y-67500000I500000J0D01*
G01*
X138500000Y-74300000D02*
G75*
G02*
X138500000Y-75300000I0J-500000D01*
G01*
X158300000Y-115500000D02*
G75*
G02*
X159300000Y-115500000I500000J0D01*
G01*
X86300000Y-115500000D02*
G75*
G02*
X87300000Y-115500000I500000J0D01*
G01*
X79500000Y-87700000D02*
G75*
G02*
X79500000Y-86700000I0J500000D01*
G01*
X191300000Y-67500000D02*
X191300000Y-70500000D01*
X82500000Y-110700000D02*
G75*
G02*
X82500000Y-111700000I0J-500000D01*
G01*
X106500000Y-110700000D02*
G75*
G02*
X106500000Y-111700000I0J-500000D01*
G01*
X138500000Y-74300000D02*
X135500000Y-74300000D01*
X87300000Y-67500000D02*
X87300000Y-70500000D01*
X98700000Y-67500000D02*
G75*
G02*
X99700000Y-67500000I500000J0D01*
G01*
X183500000Y-87700000D02*
G75*
G02*
X183500000Y-86700000I0J500000D01*
G01*
X79500000Y-86700000D02*
X82500000Y-86700000D01*
X106500000Y-75300000D02*
X103500000Y-75300000D01*
X207500000Y-99300000D02*
G75*
G02*
X207500000Y-98300000I0J500000D01*
G01*
X159300000Y-118500000D02*
G75*
G02*
X158300000Y-118500000I-500000J0D01*
G01*
X178500000Y-74300000D02*
G75*
G02*
X178500000Y-75300000I0J-500000D01*
G01*
X154500000Y-74300000D02*
X151500000Y-74300000D01*
X98700000Y-118500000D02*
X98700000Y-115500000D01*
X135500000Y-111700000D02*
X138500000Y-111700000D01*
X207500000Y-86700000D02*
X210500000Y-86700000D01*
X183500000Y-75300000D02*
G75*
G02*
X183500000Y-74300000I0J500000D01*
G01*
X207500000Y-75300000D02*
G75*
G02*
X207500000Y-74300000I0J500000D01*
G01*
X114500000Y-98300000D02*
G75*
G02*
X114500000Y-99300000I0J-500000D01*
G01*
X154500000Y-86700000D02*
G75*
G02*
X154500000Y-87700000I0J-500000D01*
G01*
X98700000Y-115500000D02*
G75*
G02*
X99700000Y-115500000I500000J0D01*
G01*
X159300000Y-115500000D02*
X159300000Y-118500000D01*
X154500000Y-75300000D02*
X151500000Y-75300000D01*
X151500000Y-111700000D02*
X154500000Y-111700000D01*
X178500000Y-86700000D02*
G75*
G02*
X178500000Y-87700000I0J-500000D01*
G01*
X111500000Y-86700000D02*
X114500000Y-86700000D01*
X79500000Y-99300000D02*
G75*
G02*
X79500000Y-98300000I0J500000D01*
G01*
X190300000Y-94500000D02*
X190300000Y-91500000D01*
X154500000Y-98300000D02*
X151500000Y-98300000D01*
X170700000Y-115500000D02*
G75*
G02*
X171700000Y-115500000I500000J0D01*
G01*
X190300000Y-67500000D02*
G75*
G02*
X191300000Y-67500000I500000J0D01*
G01*
X202700000Y-70500000D02*
X202700000Y-67500000D01*
X103500000Y-87700000D02*
G75*
G02*
X103500000Y-86700000I0J500000D01*
G01*
X171700000Y-118500000D02*
G75*
G02*
X170700000Y-118500000I-500000J0D01*
G01*
X202700000Y-115500000D02*
G75*
G02*
X203700000Y-115500000I500000J0D01*
G01*
X99700000Y-91500000D02*
X99700000Y-94500000D01*
X183500000Y-111700000D02*
G75*
G02*
X183500000Y-110700000I0J500000D01*
G01*
X118300000Y-67500000D02*
G75*
G02*
X119300000Y-67500000I500000J0D01*
G01*
X111500000Y-99300000D02*
G75*
G02*
X111500000Y-98300000I0J500000D01*
G01*
X154500000Y-110700000D02*
G75*
G02*
X154500000Y-111700000I0J-500000D01*
G01*
X210500000Y-86700000D02*
G75*
G02*
X210500000Y-87700000I0J-500000D01*
G01*
X130700000Y-115500000D02*
G75*
G02*
X131700000Y-115500000I500000J0D01*
G01*
X151500000Y-110700000D02*
X154500000Y-110700000D01*
X131700000Y-118500000D02*
G75*
G02*
X130700000Y-118500000I-500000J0D01*
G01*
X210500000Y-75300000D02*
X207500000Y-75300000D01*
X98700000Y-70500000D02*
X98700000Y-67500000D01*
X103500000Y-87700000D02*
X106500000Y-87700000D01*
X86300000Y-91500000D02*
G75*
G02*
X87300000Y-91500000I500000J0D01*
G01*
X87300000Y-118500000D02*
G75*
G02*
X86300000Y-118500000I-500000J0D01*
G01*
X118300000Y-91500000D02*
G75*
G02*
X119300000Y-91500000I500000J0D01*
G01*
X178500000Y-99300000D02*
X175500000Y-99300000D01*
X111500000Y-87700000D02*
G75*
G02*
X111500000Y-86700000I0J500000D01*
G01*
X183500000Y-86700000D02*
X186500000Y-86700000D01*
X170700000Y-70500000D02*
X170700000Y-67500000D01*
X159300000Y-94500000D02*
G75*
G02*
X158300000Y-94500000I-500000J0D01*
G01*
X79500000Y-110700000D02*
X82500000Y-110700000D01*
X183500000Y-110700000D02*
X186500000Y-110700000D01*
X119300000Y-115500000D02*
X119300000Y-118500000D01*
X135500000Y-111700000D02*
G75*
G02*
X135500000Y-110700000I0J500000D01*
G01*
X82500000Y-86700000D02*
G75*
G02*
X82500000Y-87700000I0J-500000D01*
G01*
X118300000Y-94500000D02*
X118300000Y-91500000D01*
X178500000Y-98300000D02*
X175500000Y-98300000D01*
X111500000Y-111700000D02*
G75*
G02*
X111500000Y-110700000I0J500000D01*
G01*
X171700000Y-70500000D02*
G75*
G02*
X170700000Y-70500000I-500000J0D01*
G01*
X210500000Y-110700000D02*
G75*
G02*
X210500000Y-111700000I0J-500000D01*
G01*
X79500000Y-111700000D02*
G75*
G02*
X79500000Y-110700000I0J500000D01*
G01*
X171700000Y-118500000D02*
X171700000Y-115500000D01*
X87300000Y-94500000D02*
G75*
G02*
X86300000Y-94500000I-500000J0D01*
G01*
X119300000Y-70500000D02*
G75*
G02*
X118300000Y-70500000I-500000J0D01*
G01*
X203700000Y-118500000D02*
X203700000Y-115500000D01*
X111500000Y-111700000D02*
X114500000Y-111700000D01*
X99700000Y-70500000D02*
G75*
G02*
X98700000Y-70500000I-500000J0D01*
G01*
X158300000Y-94500000D02*
X158300000Y-91500000D01*
X210500000Y-98300000D02*
X207500000Y-98300000D01*
X210500000Y-74300000D02*
G75*
G02*
X210500000Y-75300000I0J-500000D01*
G01*
X82500000Y-74300000D02*
X79500000Y-74300000D01*
X131700000Y-118500000D02*
X131700000Y-115500000D01*
X86300000Y-94500000D02*
X86300000Y-91500000D01*
X202700000Y-91500000D02*
X202700000Y-94500000D01*
X175500000Y-111700000D02*
G75*
G02*
X175500000Y-110700000I0J500000D01*
G01*
X159300000Y-70500000D02*
G75*
G02*
X158300000Y-70500000I-500000J0D01*
G01*
X87300000Y-70500000D02*
G75*
G02*
X86300000Y-70500000I-500000J0D01*
G01*
X203700000Y-70500000D02*
G75*
G02*
X202700000Y-70500000I-500000J0D01*
G01*
X99700000Y-118500000D02*
G75*
G02*
X98700000Y-118500000I-500000J0D01*
G01*
X138500000Y-75300000D02*
X135500000Y-75300000D01*
X98700000Y-91500000D02*
X98700000Y-94500000D01*
X190300000Y-91500000D02*
G75*
G02*
X191300000Y-91500000I500000J0D01*
G01*
X114500000Y-98300000D02*
X111500000Y-98300000D01*
X151500000Y-75300000D02*
G75*
G02*
X151500000Y-74300000I0J500000D01*
G01*
X106500000Y-86700000D02*
G75*
G02*
X106500000Y-87700000I0J-500000D01*
G01*
X106500000Y-74300000D02*
G75*
G02*
X106500000Y-75300000I0J-500000D01*
G01*
X171700000Y-70500000D02*
X171700000Y-67500000D01*
X178500000Y-75300000D02*
X175500000Y-75300000D01*
X175500000Y-87700000D02*
G75*
G02*
X175500000Y-86700000I0J500000D01*
G01*
X103500000Y-111700000D02*
G75*
G02*
X103500000Y-110700000I0J500000D01*
G01*
X79500000Y-111700000D02*
X82500000Y-111700000D01*
X203700000Y-91500000D02*
X203700000Y-94500000D01*
X207500000Y-111700000D02*
G75*
G02*
X207500000Y-110700000I0J500000D01*
G01*
X103500000Y-110700000D02*
X106500000Y-110700000D01*
X119300000Y-94500000D02*
G75*
G02*
X118300000Y-94500000I-500000J0D01*
G01*
X175500000Y-99300000D02*
G75*
G02*
X175500000Y-98300000I0J500000D01*
G01*
X154500000Y-74300000D02*
G75*
G02*
X154500000Y-75300000I0J-500000D01*
G01*
X131700000Y-91500000D02*
X131700000Y-94500000D01*
M02*
