%TF.GenerationSoftware,KiCad,Pcbnew,9.0.6-9.0.6~ubuntu24.04.1*%
%TF.CreationDate,2025-12-13T15:08:55+01:00*%
%TF.ProjectId,7_seg_led_tht_3mm,375f7365-675f-46c6-9564-5f7468745f33,1.0*%
%TF.SameCoordinates,Original*%
%TF.FileFunction,Legend,Bot*%
%TF.FilePolarity,Positive*%
%FSLAX46Y46*%
G04 Gerber Fmt 4.6, Leading zero omitted, Abs format (unit mm)*
G04 Created by KiCad (PCBNEW 9.0.6-9.0.6~ubuntu24.04.1) date 2025-12-13 15:08:55*
%MOMM*%
%LPD*%
G01*
G04 APERTURE LIST*
G04 Aperture macros list*
%AMRoundRect*
0 Rectangle with rounded corners*
0 $1 Rounding radius*
0 $2 $3 $4 $5 $6 $7 $8 $9 X,Y pos of 4 corners*
0 Add a 4 corners polygon primitive as box body*
4,1,4,$2,$3,$4,$5,$6,$7,$8,$9,$2,$3,0*
0 Add four circle primitives for the rounded corners*
1,1,$1+$1,$2,$3*
1,1,$1+$1,$4,$5*
1,1,$1+$1,$6,$7*
1,1,$1+$1,$8,$9*
0 Add four rect primitives between the rounded corners*
20,1,$1+$1,$2,$3,$4,$5,0*
20,1,$1+$1,$4,$5,$6,$7,0*
20,1,$1+$1,$6,$7,$8,$9,0*
20,1,$1+$1,$8,$9,$2,$3,0*%
%AMFreePoly0*
4,1,23,0.500000,-0.750000,0.000000,-0.750000,0.000000,-0.745722,-0.065263,-0.745722,-0.191342,-0.711940,-0.304381,-0.646677,-0.396677,-0.554381,-0.461940,-0.441342,-0.495722,-0.315263,-0.495722,-0.250000,-0.500000,-0.250000,-0.500000,0.250000,-0.495722,0.250000,-0.495722,0.315263,-0.461940,0.441342,-0.396677,0.554381,-0.304381,0.646677,-0.191342,0.711940,-0.065263,0.745722,0.000000,0.745722,
0.000000,0.750000,0.500000,0.750000,0.500000,-0.750000,0.500000,-0.750000,$1*%
%AMFreePoly1*
4,1,23,0.000000,0.745722,0.065263,0.745722,0.191342,0.711940,0.304381,0.646677,0.396677,0.554381,0.461940,0.441342,0.495722,0.315263,0.495722,0.250000,0.500000,0.250000,0.500000,-0.250000,0.495722,-0.250000,0.495722,-0.315263,0.461940,-0.441342,0.396677,-0.554381,0.304381,-0.646677,0.191342,-0.711940,0.065263,-0.745722,0.000000,-0.745722,0.000000,-0.750000,-0.500000,-0.750000,
-0.500000,0.750000,0.000000,0.750000,0.000000,0.745722,0.000000,0.745722,$1*%
G04 Aperture macros list end*
%ADD10C,0.250000*%
%ADD11C,0.150000*%
%ADD12C,0.010000*%
%ADD13C,0.120000*%
%ADD14C,0.000000*%
%ADD15C,0.100000*%
%ADD16C,0.200000*%
%ADD17R,1.700000X1.700000*%
%ADD18C,1.700000*%
%ADD19C,1.000000*%
%ADD20R,1.800000X1.800000*%
%ADD21C,1.800000*%
%ADD22R,1.350000X1.350000*%
%ADD23C,1.350000*%
%ADD24RoundRect,0.225000X-0.250000X0.225000X-0.250000X-0.225000X0.250000X-0.225000X0.250000X0.225000X0*%
%ADD25FreePoly0,270.000000*%
%ADD26FreePoly1,270.000000*%
%ADD27RoundRect,0.225000X0.225000X0.250000X-0.225000X0.250000X-0.225000X-0.250000X0.225000X-0.250000X0*%
%ADD28RoundRect,0.250000X0.262500X0.450000X-0.262500X0.450000X-0.262500X-0.450000X0.262500X-0.450000X0*%
%ADD29RoundRect,0.250000X1.000000X0.900000X-1.000000X0.900000X-1.000000X-0.900000X1.000000X-0.900000X0*%
%ADD30RoundRect,0.250000X-0.250000X-0.475000X0.250000X-0.475000X0.250000X0.475000X-0.250000X0.475000X0*%
%ADD31RoundRect,0.200000X-0.200000X-0.275000X0.200000X-0.275000X0.200000X0.275000X-0.200000X0.275000X0*%
%ADD32RoundRect,0.250000X-0.262500X-0.450000X0.262500X-0.450000X0.262500X0.450000X-0.262500X0.450000X0*%
%ADD33FreePoly0,90.000000*%
%ADD34FreePoly1,90.000000*%
%ADD35RoundRect,0.250000X-0.450000X0.262500X-0.450000X-0.262500X0.450000X-0.262500X0.450000X0.262500X0*%
%ADD36RoundRect,0.250000X0.450000X-0.262500X0.450000X0.262500X-0.450000X0.262500X-0.450000X-0.262500X0*%
%ADD37R,2.100000X1.400000*%
%ADD38FreePoly0,0.000000*%
%ADD39FreePoly1,0.000000*%
%ADD40C,0.660000*%
%ADD41O,1.000000X0.580000*%
%ADD42RoundRect,0.075000X0.075000X0.425000X-0.075000X0.425000X-0.075000X-0.425000X0.075000X-0.425000X0*%
%ADD43C,1.100000*%
%ADD44FreePoly0,180.000000*%
%ADD45FreePoly1,180.000000*%
%ADD46RoundRect,0.200000X0.275000X-0.200000X0.275000X0.200000X-0.275000X0.200000X-0.275000X-0.200000X0*%
%ADD47RoundRect,0.250000X-0.475000X0.250000X-0.475000X-0.250000X0.475000X-0.250000X0.475000X0.250000X0*%
%ADD48RoundRect,0.150000X0.150000X-0.587500X0.150000X0.587500X-0.150000X0.587500X-0.150000X-0.587500X0*%
%ADD49RoundRect,0.200000X0.200000X0.275000X-0.200000X0.275000X-0.200000X-0.275000X0.200000X-0.275000X0*%
%ADD50RoundRect,0.150000X0.725000X0.150000X-0.725000X0.150000X-0.725000X-0.150000X0.725000X-0.150000X0*%
%ADD51RoundRect,0.150000X0.587500X0.150000X-0.587500X0.150000X-0.587500X-0.150000X0.587500X-0.150000X0*%
%ADD52RoundRect,0.150000X-0.150000X0.587500X-0.150000X-0.587500X0.150000X-0.587500X0.150000X0.587500X0*%
%ADD53RoundRect,0.225000X-0.225000X-0.250000X0.225000X-0.250000X0.225000X0.250000X-0.225000X0.250000X0*%
%ADD54RoundRect,0.200000X-0.275000X0.200000X-0.275000X-0.200000X0.275000X-0.200000X0.275000X0.200000X0*%
%ADD55RoundRect,0.150000X0.150000X-0.512500X0.150000X0.512500X-0.150000X0.512500X-0.150000X-0.512500X0*%
%ADD56RoundRect,0.150000X-0.587500X-0.150000X0.587500X-0.150000X0.587500X0.150000X-0.587500X0.150000X0*%
%ADD57C,3.200000*%
%ADD58RoundRect,0.250000X0.250000X0.475000X-0.250000X0.475000X-0.250000X-0.475000X0.250000X-0.475000X0*%
%ADD59RoundRect,0.125000X0.625000X0.125000X-0.625000X0.125000X-0.625000X-0.125000X0.625000X-0.125000X0*%
%ADD60RoundRect,0.125000X0.125000X0.625000X-0.125000X0.625000X-0.125000X-0.625000X0.125000X-0.625000X0*%
G04 APERTURE END LIST*
D10*
X198740288Y-119644831D02*
X198168860Y-119644831D01*
X198454574Y-120644831D02*
X198454574Y-119644831D01*
X197311717Y-119692450D02*
X197406955Y-119644831D01*
X197406955Y-119644831D02*
X197549812Y-119644831D01*
X197549812Y-119644831D02*
X197692669Y-119692450D01*
X197692669Y-119692450D02*
X197787907Y-119787688D01*
X197787907Y-119787688D02*
X197835526Y-119882926D01*
X197835526Y-119882926D02*
X197883145Y-120073402D01*
X197883145Y-120073402D02*
X197883145Y-120216259D01*
X197883145Y-120216259D02*
X197835526Y-120406735D01*
X197835526Y-120406735D02*
X197787907Y-120501973D01*
X197787907Y-120501973D02*
X197692669Y-120597212D01*
X197692669Y-120597212D02*
X197549812Y-120644831D01*
X197549812Y-120644831D02*
X197454574Y-120644831D01*
X197454574Y-120644831D02*
X197311717Y-120597212D01*
X197311717Y-120597212D02*
X197264098Y-120549592D01*
X197264098Y-120549592D02*
X197264098Y-120216259D01*
X197264098Y-120216259D02*
X197454574Y-120216259D01*
X196359336Y-120644831D02*
X196835526Y-120644831D01*
X196835526Y-120644831D02*
X196835526Y-119644831D01*
X195454574Y-120549592D02*
X195502193Y-120597212D01*
X195502193Y-120597212D02*
X195645050Y-120644831D01*
X195645050Y-120644831D02*
X195740288Y-120644831D01*
X195740288Y-120644831D02*
X195883145Y-120597212D01*
X195883145Y-120597212D02*
X195978383Y-120501973D01*
X195978383Y-120501973D02*
X196026002Y-120406735D01*
X196026002Y-120406735D02*
X196073621Y-120216259D01*
X196073621Y-120216259D02*
X196073621Y-120073402D01*
X196073621Y-120073402D02*
X196026002Y-119882926D01*
X196026002Y-119882926D02*
X195978383Y-119787688D01*
X195978383Y-119787688D02*
X195883145Y-119692450D01*
X195883145Y-119692450D02*
X195740288Y-119644831D01*
X195740288Y-119644831D02*
X195645050Y-119644831D01*
X195645050Y-119644831D02*
X195502193Y-119692450D01*
X195502193Y-119692450D02*
X195454574Y-119740069D01*
X198073622Y-122254775D02*
X198645050Y-122254775D01*
X198359336Y-122254775D02*
X198359336Y-121254775D01*
X198359336Y-121254775D02*
X198454574Y-121397632D01*
X198454574Y-121397632D02*
X198549812Y-121492870D01*
X198549812Y-121492870D02*
X198645050Y-121540489D01*
X197645050Y-122159536D02*
X197597431Y-122207156D01*
X197597431Y-122207156D02*
X197645050Y-122254775D01*
X197645050Y-122254775D02*
X197692669Y-122207156D01*
X197692669Y-122207156D02*
X197645050Y-122159536D01*
X197645050Y-122159536D02*
X197645050Y-122254775D01*
X196978384Y-121254775D02*
X196883146Y-121254775D01*
X196883146Y-121254775D02*
X196787908Y-121302394D01*
X196787908Y-121302394D02*
X196740289Y-121350013D01*
X196740289Y-121350013D02*
X196692670Y-121445251D01*
X196692670Y-121445251D02*
X196645051Y-121635727D01*
X196645051Y-121635727D02*
X196645051Y-121873822D01*
X196645051Y-121873822D02*
X196692670Y-122064298D01*
X196692670Y-122064298D02*
X196740289Y-122159536D01*
X196740289Y-122159536D02*
X196787908Y-122207156D01*
X196787908Y-122207156D02*
X196883146Y-122254775D01*
X196883146Y-122254775D02*
X196978384Y-122254775D01*
X196978384Y-122254775D02*
X197073622Y-122207156D01*
X197073622Y-122207156D02*
X197121241Y-122159536D01*
X197121241Y-122159536D02*
X197168860Y-122064298D01*
X197168860Y-122064298D02*
X197216479Y-121873822D01*
X197216479Y-121873822D02*
X197216479Y-121635727D01*
X197216479Y-121635727D02*
X197168860Y-121445251D01*
X197168860Y-121445251D02*
X197121241Y-121350013D01*
X197121241Y-121350013D02*
X197073622Y-121302394D01*
X197073622Y-121302394D02*
X196978384Y-121254775D01*
X198645050Y-122959957D02*
X198597431Y-122912338D01*
X198597431Y-122912338D02*
X198502193Y-122864719D01*
X198502193Y-122864719D02*
X198264098Y-122864719D01*
X198264098Y-122864719D02*
X198168860Y-122912338D01*
X198168860Y-122912338D02*
X198121241Y-122959957D01*
X198121241Y-122959957D02*
X198073622Y-123055195D01*
X198073622Y-123055195D02*
X198073622Y-123150433D01*
X198073622Y-123150433D02*
X198121241Y-123293290D01*
X198121241Y-123293290D02*
X198692669Y-123864719D01*
X198692669Y-123864719D02*
X198073622Y-123864719D01*
X197454574Y-122864719D02*
X197359336Y-122864719D01*
X197359336Y-122864719D02*
X197264098Y-122912338D01*
X197264098Y-122912338D02*
X197216479Y-122959957D01*
X197216479Y-122959957D02*
X197168860Y-123055195D01*
X197168860Y-123055195D02*
X197121241Y-123245671D01*
X197121241Y-123245671D02*
X197121241Y-123483766D01*
X197121241Y-123483766D02*
X197168860Y-123674242D01*
X197168860Y-123674242D02*
X197216479Y-123769480D01*
X197216479Y-123769480D02*
X197264098Y-123817100D01*
X197264098Y-123817100D02*
X197359336Y-123864719D01*
X197359336Y-123864719D02*
X197454574Y-123864719D01*
X197454574Y-123864719D02*
X197549812Y-123817100D01*
X197549812Y-123817100D02*
X197597431Y-123769480D01*
X197597431Y-123769480D02*
X197645050Y-123674242D01*
X197645050Y-123674242D02*
X197692669Y-123483766D01*
X197692669Y-123483766D02*
X197692669Y-123245671D01*
X197692669Y-123245671D02*
X197645050Y-123055195D01*
X197645050Y-123055195D02*
X197597431Y-122959957D01*
X197597431Y-122959957D02*
X197549812Y-122912338D01*
X197549812Y-122912338D02*
X197454574Y-122864719D01*
X196740288Y-122959957D02*
X196692669Y-122912338D01*
X196692669Y-122912338D02*
X196597431Y-122864719D01*
X196597431Y-122864719D02*
X196359336Y-122864719D01*
X196359336Y-122864719D02*
X196264098Y-122912338D01*
X196264098Y-122912338D02*
X196216479Y-122959957D01*
X196216479Y-122959957D02*
X196168860Y-123055195D01*
X196168860Y-123055195D02*
X196168860Y-123150433D01*
X196168860Y-123150433D02*
X196216479Y-123293290D01*
X196216479Y-123293290D02*
X196787907Y-123864719D01*
X196787907Y-123864719D02*
X196168860Y-123864719D01*
X195264098Y-122864719D02*
X195740288Y-122864719D01*
X195740288Y-122864719D02*
X195787907Y-123340909D01*
X195787907Y-123340909D02*
X195740288Y-123293290D01*
X195740288Y-123293290D02*
X195645050Y-123245671D01*
X195645050Y-123245671D02*
X195406955Y-123245671D01*
X195406955Y-123245671D02*
X195311717Y-123293290D01*
X195311717Y-123293290D02*
X195264098Y-123340909D01*
X195264098Y-123340909D02*
X195216479Y-123436147D01*
X195216479Y-123436147D02*
X195216479Y-123674242D01*
X195216479Y-123674242D02*
X195264098Y-123769480D01*
X195264098Y-123769480D02*
X195311717Y-123817100D01*
X195311717Y-123817100D02*
X195406955Y-123864719D01*
X195406955Y-123864719D02*
X195645050Y-123864719D01*
X195645050Y-123864719D02*
X195740288Y-123817100D01*
X195740288Y-123817100D02*
X195787907Y-123769480D01*
X194787907Y-123483766D02*
X194026003Y-123483766D01*
X193026003Y-123864719D02*
X193597431Y-123864719D01*
X193311717Y-123864719D02*
X193311717Y-122864719D01*
X193311717Y-122864719D02*
X193406955Y-123007576D01*
X193406955Y-123007576D02*
X193502193Y-123102814D01*
X193502193Y-123102814D02*
X193597431Y-123150433D01*
X192645050Y-122959957D02*
X192597431Y-122912338D01*
X192597431Y-122912338D02*
X192502193Y-122864719D01*
X192502193Y-122864719D02*
X192264098Y-122864719D01*
X192264098Y-122864719D02*
X192168860Y-122912338D01*
X192168860Y-122912338D02*
X192121241Y-122959957D01*
X192121241Y-122959957D02*
X192073622Y-123055195D01*
X192073622Y-123055195D02*
X192073622Y-123150433D01*
X192073622Y-123150433D02*
X192121241Y-123293290D01*
X192121241Y-123293290D02*
X192692669Y-123864719D01*
X192692669Y-123864719D02*
X192073622Y-123864719D01*
X191645050Y-123483766D02*
X190883146Y-123483766D01*
X189883146Y-123864719D02*
X190454574Y-123864719D01*
X190168860Y-123864719D02*
X190168860Y-122864719D01*
X190168860Y-122864719D02*
X190264098Y-123007576D01*
X190264098Y-123007576D02*
X190359336Y-123102814D01*
X190359336Y-123102814D02*
X190454574Y-123150433D01*
X189549812Y-122864719D02*
X188930765Y-122864719D01*
X188930765Y-122864719D02*
X189264098Y-123245671D01*
X189264098Y-123245671D02*
X189121241Y-123245671D01*
X189121241Y-123245671D02*
X189026003Y-123293290D01*
X189026003Y-123293290D02*
X188978384Y-123340909D01*
X188978384Y-123340909D02*
X188930765Y-123436147D01*
X188930765Y-123436147D02*
X188930765Y-123674242D01*
X188930765Y-123674242D02*
X188978384Y-123769480D01*
X188978384Y-123769480D02*
X189026003Y-123817100D01*
X189026003Y-123817100D02*
X189121241Y-123864719D01*
X189121241Y-123864719D02*
X189406955Y-123864719D01*
X189406955Y-123864719D02*
X189502193Y-123817100D01*
X189502193Y-123817100D02*
X189549812Y-123769480D01*
D11*
X223678218Y-103841100D02*
X224154409Y-103841100D01*
X223154409Y-103507767D02*
X223678218Y-103841100D01*
X223678218Y-103841100D02*
X223154409Y-104174433D01*
X224154409Y-105031576D02*
X224154409Y-104460148D01*
X224154409Y-104745862D02*
X223154409Y-104745862D01*
X223154409Y-104745862D02*
X223297266Y-104650624D01*
X223297266Y-104650624D02*
X223392504Y-104555386D01*
X223392504Y-104555386D02*
X223440123Y-104460148D01*
D12*
%TO.C,REF\u002A\u002A*%
X173782840Y-117342295D02*
X173797027Y-117355964D01*
X173838396Y-117397651D01*
X173893111Y-117454404D01*
X173958514Y-117523329D01*
X174031947Y-117601531D01*
X174110750Y-117686114D01*
X174192264Y-117774185D01*
X174273831Y-117862848D01*
X174352792Y-117949208D01*
X174426487Y-118030371D01*
X174492258Y-118103442D01*
X174547445Y-118165526D01*
X174589390Y-118213727D01*
X174615435Y-118245152D01*
X174622919Y-118256906D01*
X174620350Y-118258204D01*
X174595789Y-118271910D01*
X174547208Y-118299545D01*
X174476656Y-118339930D01*
X174386177Y-118391887D01*
X174277819Y-118454237D01*
X174153628Y-118525803D01*
X174015649Y-118605407D01*
X173865930Y-118691870D01*
X173706517Y-118784015D01*
X173539455Y-118880664D01*
X173477012Y-118916799D01*
X173312887Y-119011738D01*
X173157362Y-119101646D01*
X173012458Y-119185356D01*
X172880199Y-119261703D01*
X172762608Y-119329521D01*
X172661706Y-119387643D01*
X172579517Y-119434903D01*
X172518063Y-119470135D01*
X172479368Y-119492174D01*
X172465453Y-119499852D01*
X172466079Y-119495763D01*
X172477497Y-119472262D01*
X172498497Y-119434718D01*
X172511380Y-119412496D01*
X172538776Y-119365105D01*
X172579091Y-119295309D01*
X172631013Y-119205376D01*
X172693235Y-119097574D01*
X172764447Y-118974172D01*
X172843339Y-118837438D01*
X172928602Y-118689641D01*
X173018928Y-118533049D01*
X173113006Y-118369932D01*
X173205125Y-118210255D01*
X173294684Y-118055119D01*
X173378897Y-117909344D01*
X173456501Y-117775115D01*
X173526229Y-117654617D01*
X173586818Y-117550034D01*
X173637002Y-117463551D01*
X173675516Y-117397353D01*
X173701096Y-117353625D01*
X173712476Y-117334551D01*
X173735824Y-117298133D01*
X173782840Y-117342295D01*
G36*
X173782840Y-117342295D02*
G01*
X173797027Y-117355964D01*
X173838396Y-117397651D01*
X173893111Y-117454404D01*
X173958514Y-117523329D01*
X174031947Y-117601531D01*
X174110750Y-117686114D01*
X174192264Y-117774185D01*
X174273831Y-117862848D01*
X174352792Y-117949208D01*
X174426487Y-118030371D01*
X174492258Y-118103442D01*
X174547445Y-118165526D01*
X174589390Y-118213727D01*
X174615435Y-118245152D01*
X174622919Y-118256906D01*
X174620350Y-118258204D01*
X174595789Y-118271910D01*
X174547208Y-118299545D01*
X174476656Y-118339930D01*
X174386177Y-118391887D01*
X174277819Y-118454237D01*
X174153628Y-118525803D01*
X174015649Y-118605407D01*
X173865930Y-118691870D01*
X173706517Y-118784015D01*
X173539455Y-118880664D01*
X173477012Y-118916799D01*
X173312887Y-119011738D01*
X173157362Y-119101646D01*
X173012458Y-119185356D01*
X172880199Y-119261703D01*
X172762608Y-119329521D01*
X172661706Y-119387643D01*
X172579517Y-119434903D01*
X172518063Y-119470135D01*
X172479368Y-119492174D01*
X172465453Y-119499852D01*
X172466079Y-119495763D01*
X172477497Y-119472262D01*
X172498497Y-119434718D01*
X172511380Y-119412496D01*
X172538776Y-119365105D01*
X172579091Y-119295309D01*
X172631013Y-119205376D01*
X172693235Y-119097574D01*
X172764447Y-118974172D01*
X172843339Y-118837438D01*
X172928602Y-118689641D01*
X173018928Y-118533049D01*
X173113006Y-118369932D01*
X173205125Y-118210255D01*
X173294684Y-118055119D01*
X173378897Y-117909344D01*
X173456501Y-117775115D01*
X173526229Y-117654617D01*
X173586818Y-117550034D01*
X173637002Y-117463551D01*
X173675516Y-117397353D01*
X173701096Y-117353625D01*
X173712476Y-117334551D01*
X173735824Y-117298133D01*
X173782840Y-117342295D01*
G37*
X175545564Y-114173107D02*
X175557097Y-114190443D01*
X175582504Y-114232094D01*
X175620511Y-114295843D01*
X175669841Y-114379477D01*
X175729217Y-114480781D01*
X175797363Y-114597541D01*
X175873004Y-114727540D01*
X175954863Y-114868565D01*
X176041664Y-115018400D01*
X176132130Y-115174832D01*
X176224986Y-115335645D01*
X176318955Y-115498625D01*
X176412761Y-115661556D01*
X176505128Y-115822224D01*
X176594780Y-115978414D01*
X176680440Y-116127912D01*
X176760832Y-116268503D01*
X176834681Y-116397972D01*
X176900709Y-116514104D01*
X176957641Y-116614684D01*
X177004201Y-116697499D01*
X177039112Y-116760332D01*
X177061098Y-116800969D01*
X177068883Y-116817196D01*
X177068891Y-116817320D01*
X177056337Y-116834348D01*
X177020262Y-116863211D01*
X176964421Y-116901179D01*
X176892565Y-116945519D01*
X176844377Y-116973884D01*
X176775036Y-117013328D01*
X176726738Y-117038186D01*
X176696246Y-117049856D01*
X176680324Y-117049738D01*
X176675736Y-117039229D01*
X176675386Y-117037515D01*
X176662272Y-117016614D01*
X176634004Y-116981071D01*
X176595790Y-116937515D01*
X176578159Y-116918807D01*
X176523486Y-116868444D01*
X176463026Y-116825397D01*
X176393186Y-116788405D01*
X176310374Y-116756205D01*
X176210996Y-116727534D01*
X176091459Y-116701130D01*
X175948170Y-116675732D01*
X175777535Y-116650077D01*
X175581138Y-116621159D01*
X175391278Y-116590105D01*
X175225264Y-116558976D01*
X175079386Y-116526874D01*
X174949931Y-116492901D01*
X174833187Y-116456158D01*
X174725444Y-116415749D01*
X174622989Y-116370775D01*
X174547692Y-116333686D01*
X174475769Y-116294657D01*
X174418890Y-116259814D01*
X174381503Y-116231897D01*
X174368053Y-116213646D01*
X174368450Y-116212302D01*
X174379284Y-116190794D01*
X174403849Y-116145754D01*
X174440689Y-116079704D01*
X174488351Y-115995165D01*
X174545380Y-115894659D01*
X174610322Y-115780708D01*
X174681723Y-115655833D01*
X174758128Y-115522556D01*
X174838083Y-115383399D01*
X174920134Y-115240883D01*
X175002826Y-115097530D01*
X175084705Y-114955862D01*
X175164317Y-114818400D01*
X175240208Y-114687666D01*
X175310923Y-114566182D01*
X175375008Y-114456470D01*
X175431008Y-114361050D01*
X175477470Y-114282446D01*
X175512939Y-114223177D01*
X175535961Y-114185767D01*
X175545081Y-114172737D01*
X175545564Y-114173107D01*
G36*
X175545564Y-114173107D02*
G01*
X175557097Y-114190443D01*
X175582504Y-114232094D01*
X175620511Y-114295843D01*
X175669841Y-114379477D01*
X175729217Y-114480781D01*
X175797363Y-114597541D01*
X175873004Y-114727540D01*
X175954863Y-114868565D01*
X176041664Y-115018400D01*
X176132130Y-115174832D01*
X176224986Y-115335645D01*
X176318955Y-115498625D01*
X176412761Y-115661556D01*
X176505128Y-115822224D01*
X176594780Y-115978414D01*
X176680440Y-116127912D01*
X176760832Y-116268503D01*
X176834681Y-116397972D01*
X176900709Y-116514104D01*
X176957641Y-116614684D01*
X177004201Y-116697499D01*
X177039112Y-116760332D01*
X177061098Y-116800969D01*
X177068883Y-116817196D01*
X177068891Y-116817320D01*
X177056337Y-116834348D01*
X177020262Y-116863211D01*
X176964421Y-116901179D01*
X176892565Y-116945519D01*
X176844377Y-116973884D01*
X176775036Y-117013328D01*
X176726738Y-117038186D01*
X176696246Y-117049856D01*
X176680324Y-117049738D01*
X176675736Y-117039229D01*
X176675386Y-117037515D01*
X176662272Y-117016614D01*
X176634004Y-116981071D01*
X176595790Y-116937515D01*
X176578159Y-116918807D01*
X176523486Y-116868444D01*
X176463026Y-116825397D01*
X176393186Y-116788405D01*
X176310374Y-116756205D01*
X176210996Y-116727534D01*
X176091459Y-116701130D01*
X175948170Y-116675732D01*
X175777535Y-116650077D01*
X175581138Y-116621159D01*
X175391278Y-116590105D01*
X175225264Y-116558976D01*
X175079386Y-116526874D01*
X174949931Y-116492901D01*
X174833187Y-116456158D01*
X174725444Y-116415749D01*
X174622989Y-116370775D01*
X174547692Y-116333686D01*
X174475769Y-116294657D01*
X174418890Y-116259814D01*
X174381503Y-116231897D01*
X174368053Y-116213646D01*
X174368450Y-116212302D01*
X174379284Y-116190794D01*
X174403849Y-116145754D01*
X174440689Y-116079704D01*
X174488351Y-115995165D01*
X174545380Y-115894659D01*
X174610322Y-115780708D01*
X174681723Y-115655833D01*
X174758128Y-115522556D01*
X174838083Y-115383399D01*
X174920134Y-115240883D01*
X175002826Y-115097530D01*
X175084705Y-114955862D01*
X175164317Y-114818400D01*
X175240208Y-114687666D01*
X175310923Y-114566182D01*
X175375008Y-114456470D01*
X175431008Y-114361050D01*
X175477470Y-114282446D01*
X175512939Y-114223177D01*
X175535961Y-114185767D01*
X175545081Y-114172737D01*
X175545564Y-114173107D01*
G37*
X177410051Y-117395972D02*
X177415806Y-117404557D01*
X177436369Y-117438278D01*
X177470183Y-117495132D01*
X177515954Y-117572900D01*
X177572387Y-117669364D01*
X177638188Y-117782303D01*
X177712062Y-117909500D01*
X177792715Y-118048735D01*
X177878852Y-118197789D01*
X177969179Y-118354444D01*
X177993951Y-118397453D01*
X178091904Y-118567507D01*
X178190513Y-118738686D01*
X178287764Y-118907494D01*
X178381642Y-119070435D01*
X178470135Y-119224014D01*
X178551226Y-119364733D01*
X178622902Y-119489098D01*
X178683148Y-119593612D01*
X178729951Y-119674779D01*
X178951034Y-120058103D01*
X175851080Y-120058103D01*
X175722925Y-120058091D01*
X175417504Y-120057974D01*
X175121436Y-120057734D01*
X174836163Y-120057376D01*
X174563127Y-120056908D01*
X174303769Y-120056335D01*
X174059531Y-120055664D01*
X173831853Y-120054900D01*
X173622178Y-120054051D01*
X173431947Y-120053121D01*
X173262601Y-120052118D01*
X173115582Y-120051047D01*
X172992331Y-120049915D01*
X172894290Y-120048728D01*
X172822900Y-120047491D01*
X172779602Y-120046212D01*
X172765839Y-120044895D01*
X172776058Y-120038236D01*
X172811315Y-120017015D01*
X172869225Y-119982852D01*
X172947434Y-119937103D01*
X173043587Y-119881122D01*
X173155327Y-119816265D01*
X173280300Y-119743886D01*
X173416150Y-119665341D01*
X173560522Y-119581986D01*
X173711060Y-119495175D01*
X173865409Y-119406264D01*
X174021214Y-119316608D01*
X174176120Y-119227561D01*
X174327770Y-119140480D01*
X174473810Y-119056720D01*
X174611885Y-118977635D01*
X174739638Y-118904581D01*
X174854715Y-118838913D01*
X174954760Y-118781986D01*
X175037418Y-118735156D01*
X175100333Y-118699778D01*
X175141151Y-118677206D01*
X175157515Y-118668796D01*
X175168193Y-118670881D01*
X175200362Y-118689840D01*
X175246225Y-118724964D01*
X175300744Y-118772601D01*
X175349849Y-118820288D01*
X175412393Y-118885248D01*
X175482372Y-118961087D01*
X175556200Y-119043630D01*
X175630289Y-119128700D01*
X175701052Y-119212122D01*
X175764902Y-119289721D01*
X175818251Y-119357321D01*
X175857513Y-119410746D01*
X175879099Y-119445821D01*
X175893510Y-119471437D01*
X175932647Y-119524448D01*
X175982962Y-119580844D01*
X176037280Y-119633394D01*
X176088428Y-119674862D01*
X176129231Y-119698018D01*
X176174296Y-119703370D01*
X176234430Y-119688577D01*
X176291583Y-119654658D01*
X176335937Y-119605985D01*
X176343617Y-119593357D01*
X176353396Y-119572675D01*
X176359769Y-119547786D01*
X176363146Y-119513341D01*
X176363935Y-119463994D01*
X176362545Y-119394396D01*
X176359385Y-119299200D01*
X176357120Y-119244134D01*
X176352308Y-119157049D01*
X176346629Y-119080831D01*
X176340612Y-119022181D01*
X176334787Y-118987798D01*
X176320683Y-118948520D01*
X176278870Y-118871172D01*
X176213899Y-118779523D01*
X176124974Y-118672499D01*
X176011304Y-118549022D01*
X175961976Y-118496998D01*
X175904942Y-118435628D01*
X175857868Y-118383597D01*
X175824628Y-118345198D01*
X175809093Y-118324728D01*
X175807496Y-118321478D01*
X175805581Y-118307485D01*
X175815149Y-118291971D01*
X175840119Y-118271591D01*
X175884410Y-118243003D01*
X175951942Y-118202864D01*
X176009351Y-118169354D01*
X176114996Y-118108055D01*
X176198175Y-118060441D01*
X176261682Y-118024965D01*
X176308310Y-118000081D01*
X176340854Y-117984245D01*
X176362108Y-117975909D01*
X176384101Y-117966660D01*
X176396955Y-117954239D01*
X176398158Y-117951310D01*
X176416965Y-117935016D01*
X176451339Y-117914030D01*
X176505723Y-117884742D01*
X176545878Y-117922124D01*
X176560061Y-117937268D01*
X176593059Y-117978425D01*
X176633350Y-118033377D01*
X176675186Y-118094463D01*
X176764340Y-118229421D01*
X176760841Y-118579294D01*
X176757343Y-118929167D01*
X176706397Y-118978665D01*
X176689278Y-118996311D01*
X176634380Y-119075592D01*
X176602334Y-119169867D01*
X176591416Y-119283712D01*
X176594127Y-119344711D01*
X176613265Y-119452310D01*
X176648145Y-119550515D01*
X176695746Y-119629314D01*
X176728799Y-119658046D01*
X176787553Y-119679869D01*
X176854065Y-119682386D01*
X176919820Y-119666760D01*
X176976305Y-119634152D01*
X177015007Y-119585725D01*
X177016274Y-119583100D01*
X177039667Y-119535157D01*
X177064443Y-119485054D01*
X177085476Y-119438019D01*
X177115648Y-119358742D01*
X177148936Y-119261004D01*
X177184183Y-119149160D01*
X177220233Y-119027566D01*
X177255929Y-118900577D01*
X177290114Y-118772548D01*
X177321631Y-118647834D01*
X177349324Y-118530791D01*
X177372036Y-118425775D01*
X177388610Y-118337141D01*
X177397889Y-118269244D01*
X177398718Y-118226439D01*
X177396851Y-118216714D01*
X177378662Y-118167488D01*
X177344911Y-118101631D01*
X177298559Y-118025097D01*
X177280768Y-117997517D01*
X177209286Y-117885054D01*
X177148524Y-117786704D01*
X177099821Y-117704764D01*
X177064518Y-117641537D01*
X177043956Y-117599322D01*
X177039473Y-117580419D01*
X177039992Y-117579752D01*
X177058549Y-117566137D01*
X177098206Y-117541251D01*
X177153530Y-117508408D01*
X177219088Y-117470920D01*
X177224630Y-117467808D01*
X177295811Y-117428644D01*
X177345385Y-117403668D01*
X177377910Y-117391090D01*
X177397946Y-117389121D01*
X177410051Y-117395972D01*
G36*
X177410051Y-117395972D02*
G01*
X177415806Y-117404557D01*
X177436369Y-117438278D01*
X177470183Y-117495132D01*
X177515954Y-117572900D01*
X177572387Y-117669364D01*
X177638188Y-117782303D01*
X177712062Y-117909500D01*
X177792715Y-118048735D01*
X177878852Y-118197789D01*
X177969179Y-118354444D01*
X177993951Y-118397453D01*
X178091904Y-118567507D01*
X178190513Y-118738686D01*
X178287764Y-118907494D01*
X178381642Y-119070435D01*
X178470135Y-119224014D01*
X178551226Y-119364733D01*
X178622902Y-119489098D01*
X178683148Y-119593612D01*
X178729951Y-119674779D01*
X178951034Y-120058103D01*
X175851080Y-120058103D01*
X175722925Y-120058091D01*
X175417504Y-120057974D01*
X175121436Y-120057734D01*
X174836163Y-120057376D01*
X174563127Y-120056908D01*
X174303769Y-120056335D01*
X174059531Y-120055664D01*
X173831853Y-120054900D01*
X173622178Y-120054051D01*
X173431947Y-120053121D01*
X173262601Y-120052118D01*
X173115582Y-120051047D01*
X172992331Y-120049915D01*
X172894290Y-120048728D01*
X172822900Y-120047491D01*
X172779602Y-120046212D01*
X172765839Y-120044895D01*
X172776058Y-120038236D01*
X172811315Y-120017015D01*
X172869225Y-119982852D01*
X172947434Y-119937103D01*
X173043587Y-119881122D01*
X173155327Y-119816265D01*
X173280300Y-119743886D01*
X173416150Y-119665341D01*
X173560522Y-119581986D01*
X173711060Y-119495175D01*
X173865409Y-119406264D01*
X174021214Y-119316608D01*
X174176120Y-119227561D01*
X174327770Y-119140480D01*
X174473810Y-119056720D01*
X174611885Y-118977635D01*
X174739638Y-118904581D01*
X174854715Y-118838913D01*
X174954760Y-118781986D01*
X175037418Y-118735156D01*
X175100333Y-118699778D01*
X175141151Y-118677206D01*
X175157515Y-118668796D01*
X175168193Y-118670881D01*
X175200362Y-118689840D01*
X175246225Y-118724964D01*
X175300744Y-118772601D01*
X175349849Y-118820288D01*
X175412393Y-118885248D01*
X175482372Y-118961087D01*
X175556200Y-119043630D01*
X175630289Y-119128700D01*
X175701052Y-119212122D01*
X175764902Y-119289721D01*
X175818251Y-119357321D01*
X175857513Y-119410746D01*
X175879099Y-119445821D01*
X175893510Y-119471437D01*
X175932647Y-119524448D01*
X175982962Y-119580844D01*
X176037280Y-119633394D01*
X176088428Y-119674862D01*
X176129231Y-119698018D01*
X176174296Y-119703370D01*
X176234430Y-119688577D01*
X176291583Y-119654658D01*
X176335937Y-119605985D01*
X176343617Y-119593357D01*
X176353396Y-119572675D01*
X176359769Y-119547786D01*
X176363146Y-119513341D01*
X176363935Y-119463994D01*
X176362545Y-119394396D01*
X176359385Y-119299200D01*
X176357120Y-119244134D01*
X176352308Y-119157049D01*
X176346629Y-119080831D01*
X176340612Y-119022181D01*
X176334787Y-118987798D01*
X176320683Y-118948520D01*
X176278870Y-118871172D01*
X176213899Y-118779523D01*
X176124974Y-118672499D01*
X176011304Y-118549022D01*
X175961976Y-118496998D01*
X175904942Y-118435628D01*
X175857868Y-118383597D01*
X175824628Y-118345198D01*
X175809093Y-118324728D01*
X175807496Y-118321478D01*
X175805581Y-118307485D01*
X175815149Y-118291971D01*
X175840119Y-118271591D01*
X175884410Y-118243003D01*
X175951942Y-118202864D01*
X176009351Y-118169354D01*
X176114996Y-118108055D01*
X176198175Y-118060441D01*
X176261682Y-118024965D01*
X176308310Y-118000081D01*
X176340854Y-117984245D01*
X176362108Y-117975909D01*
X176384101Y-117966660D01*
X176396955Y-117954239D01*
X176398158Y-117951310D01*
X176416965Y-117935016D01*
X176451339Y-117914030D01*
X176505723Y-117884742D01*
X176545878Y-117922124D01*
X176560061Y-117937268D01*
X176593059Y-117978425D01*
X176633350Y-118033377D01*
X176675186Y-118094463D01*
X176764340Y-118229421D01*
X176760841Y-118579294D01*
X176757343Y-118929167D01*
X176706397Y-118978665D01*
X176689278Y-118996311D01*
X176634380Y-119075592D01*
X176602334Y-119169867D01*
X176591416Y-119283712D01*
X176594127Y-119344711D01*
X176613265Y-119452310D01*
X176648145Y-119550515D01*
X176695746Y-119629314D01*
X176728799Y-119658046D01*
X176787553Y-119679869D01*
X176854065Y-119682386D01*
X176919820Y-119666760D01*
X176976305Y-119634152D01*
X177015007Y-119585725D01*
X177016274Y-119583100D01*
X177039667Y-119535157D01*
X177064443Y-119485054D01*
X177085476Y-119438019D01*
X177115648Y-119358742D01*
X177148936Y-119261004D01*
X177184183Y-119149160D01*
X177220233Y-119027566D01*
X177255929Y-118900577D01*
X177290114Y-118772548D01*
X177321631Y-118647834D01*
X177349324Y-118530791D01*
X177372036Y-118425775D01*
X177388610Y-118337141D01*
X177397889Y-118269244D01*
X177398718Y-118226439D01*
X177396851Y-118216714D01*
X177378662Y-118167488D01*
X177344911Y-118101631D01*
X177298559Y-118025097D01*
X177280768Y-117997517D01*
X177209286Y-117885054D01*
X177148524Y-117786704D01*
X177099821Y-117704764D01*
X177064518Y-117641537D01*
X177043956Y-117599322D01*
X177039473Y-117580419D01*
X177039992Y-117579752D01*
X177058549Y-117566137D01*
X177098206Y-117541251D01*
X177153530Y-117508408D01*
X177219088Y-117470920D01*
X177224630Y-117467808D01*
X177295811Y-117428644D01*
X177345385Y-117403668D01*
X177377910Y-117391090D01*
X177397946Y-117389121D01*
X177410051Y-117395972D01*
G37*
X186523768Y-113984544D02*
X186612454Y-113986345D01*
X186699423Y-113989144D01*
X186779786Y-113992862D01*
X186848650Y-113997422D01*
X186901124Y-114002745D01*
X187091925Y-114034173D01*
X187365627Y-114101085D01*
X187629791Y-114191903D01*
X187883051Y-114305829D01*
X188124045Y-114442065D01*
X188351406Y-114599814D01*
X188563771Y-114778276D01*
X188759774Y-114976655D01*
X188938052Y-115194150D01*
X189016876Y-115304949D01*
X189164358Y-115545569D01*
X189288085Y-115797646D01*
X189387799Y-116060546D01*
X189463245Y-116333638D01*
X189514166Y-116616286D01*
X189517967Y-116648404D01*
X189525338Y-116741946D01*
X189530070Y-116851786D01*
X189532165Y-116970819D01*
X189531622Y-117091941D01*
X189528441Y-117208050D01*
X189522622Y-117312039D01*
X189514166Y-117396807D01*
X189500949Y-117485641D01*
X189442812Y-117762315D01*
X189360962Y-118029002D01*
X189256389Y-118284505D01*
X189130083Y-118527630D01*
X188983034Y-118757179D01*
X188816231Y-118971958D01*
X188630664Y-119170770D01*
X188427324Y-119352419D01*
X188207199Y-119515709D01*
X187971281Y-119659445D01*
X187720557Y-119782430D01*
X187456020Y-119883468D01*
X187374938Y-119908599D01*
X187247342Y-119943015D01*
X187114876Y-119973638D01*
X186987275Y-119998273D01*
X186874275Y-120014721D01*
X186873766Y-120014779D01*
X186828421Y-120018463D01*
X186765913Y-120021595D01*
X186691087Y-120024129D01*
X186608787Y-120026015D01*
X186523858Y-120027206D01*
X186441146Y-120027655D01*
X186365494Y-120027314D01*
X186301748Y-120026135D01*
X186254753Y-120024070D01*
X186229353Y-120021073D01*
X186199587Y-120013096D01*
X186199587Y-119096118D01*
X186474093Y-119096436D01*
X186529237Y-119096284D01*
X186654746Y-119093612D01*
X186762898Y-119086948D01*
X186860134Y-119075395D01*
X186952897Y-119058061D01*
X187047627Y-119034050D01*
X187150767Y-119002467D01*
X187334256Y-118933268D01*
X187542311Y-118829863D01*
X187735849Y-118705651D01*
X187913583Y-118562100D01*
X188074223Y-118400680D01*
X188216482Y-118222860D01*
X188339073Y-118030109D01*
X188440705Y-117823897D01*
X188520093Y-117605691D01*
X188575947Y-117376963D01*
X188577185Y-117370165D01*
X188589153Y-117280503D01*
X188597120Y-117173769D01*
X188601078Y-117057166D01*
X188601019Y-116937897D01*
X188596938Y-116823166D01*
X188588827Y-116720176D01*
X188576678Y-116636129D01*
X188556519Y-116543561D01*
X188488460Y-116314125D01*
X188397238Y-116096326D01*
X188283531Y-115891452D01*
X188148019Y-115700793D01*
X187991382Y-115525637D01*
X187932103Y-115468340D01*
X187779706Y-115339258D01*
X187617066Y-115227909D01*
X187436515Y-115128811D01*
X187360807Y-115092843D01*
X187178172Y-115018771D01*
X186997584Y-114965007D01*
X186813145Y-114930314D01*
X186618957Y-114913455D01*
X186409123Y-114913191D01*
X186199587Y-114920462D01*
X186199587Y-113999997D01*
X186229353Y-113992020D01*
X186249701Y-113988877D01*
X186296334Y-113985907D01*
X186360817Y-113984247D01*
X186438259Y-113983819D01*
X186523768Y-113984544D01*
G36*
X186523768Y-113984544D02*
G01*
X186612454Y-113986345D01*
X186699423Y-113989144D01*
X186779786Y-113992862D01*
X186848650Y-113997422D01*
X186901124Y-114002745D01*
X187091925Y-114034173D01*
X187365627Y-114101085D01*
X187629791Y-114191903D01*
X187883051Y-114305829D01*
X188124045Y-114442065D01*
X188351406Y-114599814D01*
X188563771Y-114778276D01*
X188759774Y-114976655D01*
X188938052Y-115194150D01*
X189016876Y-115304949D01*
X189164358Y-115545569D01*
X189288085Y-115797646D01*
X189387799Y-116060546D01*
X189463245Y-116333638D01*
X189514166Y-116616286D01*
X189517967Y-116648404D01*
X189525338Y-116741946D01*
X189530070Y-116851786D01*
X189532165Y-116970819D01*
X189531622Y-117091941D01*
X189528441Y-117208050D01*
X189522622Y-117312039D01*
X189514166Y-117396807D01*
X189500949Y-117485641D01*
X189442812Y-117762315D01*
X189360962Y-118029002D01*
X189256389Y-118284505D01*
X189130083Y-118527630D01*
X188983034Y-118757179D01*
X188816231Y-118971958D01*
X188630664Y-119170770D01*
X188427324Y-119352419D01*
X188207199Y-119515709D01*
X187971281Y-119659445D01*
X187720557Y-119782430D01*
X187456020Y-119883468D01*
X187374938Y-119908599D01*
X187247342Y-119943015D01*
X187114876Y-119973638D01*
X186987275Y-119998273D01*
X186874275Y-120014721D01*
X186873766Y-120014779D01*
X186828421Y-120018463D01*
X186765913Y-120021595D01*
X186691087Y-120024129D01*
X186608787Y-120026015D01*
X186523858Y-120027206D01*
X186441146Y-120027655D01*
X186365494Y-120027314D01*
X186301748Y-120026135D01*
X186254753Y-120024070D01*
X186229353Y-120021073D01*
X186199587Y-120013096D01*
X186199587Y-119096118D01*
X186474093Y-119096436D01*
X186529237Y-119096284D01*
X186654746Y-119093612D01*
X186762898Y-119086948D01*
X186860134Y-119075395D01*
X186952897Y-119058061D01*
X187047627Y-119034050D01*
X187150767Y-119002467D01*
X187334256Y-118933268D01*
X187542311Y-118829863D01*
X187735849Y-118705651D01*
X187913583Y-118562100D01*
X188074223Y-118400680D01*
X188216482Y-118222860D01*
X188339073Y-118030109D01*
X188440705Y-117823897D01*
X188520093Y-117605691D01*
X188575947Y-117376963D01*
X188577185Y-117370165D01*
X188589153Y-117280503D01*
X188597120Y-117173769D01*
X188601078Y-117057166D01*
X188601019Y-116937897D01*
X188596938Y-116823166D01*
X188588827Y-116720176D01*
X188576678Y-116636129D01*
X188556519Y-116543561D01*
X188488460Y-116314125D01*
X188397238Y-116096326D01*
X188283531Y-115891452D01*
X188148019Y-115700793D01*
X187991382Y-115525637D01*
X187932103Y-115468340D01*
X187779706Y-115339258D01*
X187617066Y-115227909D01*
X187436515Y-115128811D01*
X187360807Y-115092843D01*
X187178172Y-115018771D01*
X186997584Y-114965007D01*
X186813145Y-114930314D01*
X186618957Y-114913455D01*
X186409123Y-114913191D01*
X186199587Y-114920462D01*
X186199587Y-113999997D01*
X186229353Y-113992020D01*
X186249701Y-113988877D01*
X186296334Y-113985907D01*
X186360817Y-113984247D01*
X186438259Y-113983819D01*
X186523768Y-113984544D01*
G37*
X181347791Y-113983940D02*
X181459317Y-113984900D01*
X181592619Y-113989288D01*
X181712484Y-113997913D01*
X181826304Y-114011524D01*
X181941474Y-114030870D01*
X182065385Y-114056701D01*
X182165695Y-114081199D01*
X182422404Y-114162254D01*
X182672495Y-114267449D01*
X182913519Y-114395257D01*
X183143031Y-114544146D01*
X183358582Y-114712588D01*
X183557724Y-114899053D01*
X183738011Y-115102011D01*
X183741431Y-115106257D01*
X183902928Y-115328109D01*
X184043883Y-115565809D01*
X184163613Y-115817741D01*
X184261435Y-116082286D01*
X184336665Y-116357826D01*
X184388621Y-116642744D01*
X184394666Y-116700684D01*
X184399838Y-116787230D01*
X184402985Y-116887857D01*
X184404109Y-116995941D01*
X184403212Y-117104855D01*
X184400296Y-117207978D01*
X184395363Y-117298683D01*
X184388414Y-117370348D01*
X184385869Y-117389087D01*
X184334592Y-117667024D01*
X184259293Y-117938464D01*
X184160979Y-118201021D01*
X184040656Y-118452310D01*
X183899331Y-118689944D01*
X183738011Y-118911539D01*
X183701464Y-118955791D01*
X183567654Y-119101914D01*
X183416577Y-119246363D01*
X183254790Y-119383477D01*
X183088848Y-119507599D01*
X182925307Y-119613067D01*
X182869505Y-119645000D01*
X182656319Y-119752397D01*
X182430579Y-119845216D01*
X182198618Y-119921308D01*
X181966767Y-119978526D01*
X181741358Y-120014721D01*
X181734293Y-120015458D01*
X181685825Y-120018913D01*
X181617846Y-120022058D01*
X181536113Y-120024698D01*
X181446380Y-120026641D01*
X181354405Y-120027694D01*
X181066671Y-120029411D01*
X181066671Y-119096708D01*
X181354405Y-119096731D01*
X181425145Y-119096596D01*
X181510836Y-119095701D01*
X181579123Y-119093634D01*
X181635395Y-119090010D01*
X181685046Y-119084445D01*
X181733466Y-119076554D01*
X181786048Y-119065953D01*
X181791749Y-119064726D01*
X182025266Y-119001138D01*
X182246313Y-118914556D01*
X182453895Y-118805651D01*
X182647014Y-118675095D01*
X182824671Y-118523562D01*
X182985870Y-118351723D01*
X183129612Y-118160251D01*
X183139068Y-118145899D01*
X183195444Y-118051501D01*
X183251722Y-117943824D01*
X183304819Y-117829810D01*
X183351652Y-117716401D01*
X183389140Y-117610543D01*
X183414200Y-117519176D01*
X183423565Y-117476182D01*
X181661983Y-117476182D01*
X181661983Y-116536911D01*
X183423565Y-116536911D01*
X183414200Y-116493916D01*
X183408106Y-116468320D01*
X183380629Y-116377420D01*
X183342322Y-116273634D01*
X183296168Y-116163798D01*
X183245149Y-116054752D01*
X183192248Y-115953334D01*
X183140450Y-115866381D01*
X183115811Y-115829311D01*
X182975551Y-115646362D01*
X182815955Y-115480350D01*
X182638784Y-115332476D01*
X182445803Y-115203941D01*
X182238772Y-115095944D01*
X182019455Y-115009686D01*
X181789615Y-114946368D01*
X181755715Y-114939240D01*
X181709016Y-114930940D01*
X181661528Y-114924928D01*
X181608116Y-114920846D01*
X181543649Y-114918340D01*
X181462994Y-114917052D01*
X181361019Y-114916627D01*
X181066669Y-114916338D01*
X181066671Y-113983682D01*
X181347791Y-113983940D01*
G36*
X181347791Y-113983940D02*
G01*
X181459317Y-113984900D01*
X181592619Y-113989288D01*
X181712484Y-113997913D01*
X181826304Y-114011524D01*
X181941474Y-114030870D01*
X182065385Y-114056701D01*
X182165695Y-114081199D01*
X182422404Y-114162254D01*
X182672495Y-114267449D01*
X182913519Y-114395257D01*
X183143031Y-114544146D01*
X183358582Y-114712588D01*
X183557724Y-114899053D01*
X183738011Y-115102011D01*
X183741431Y-115106257D01*
X183902928Y-115328109D01*
X184043883Y-115565809D01*
X184163613Y-115817741D01*
X184261435Y-116082286D01*
X184336665Y-116357826D01*
X184388621Y-116642744D01*
X184394666Y-116700684D01*
X184399838Y-116787230D01*
X184402985Y-116887857D01*
X184404109Y-116995941D01*
X184403212Y-117104855D01*
X184400296Y-117207978D01*
X184395363Y-117298683D01*
X184388414Y-117370348D01*
X184385869Y-117389087D01*
X184334592Y-117667024D01*
X184259293Y-117938464D01*
X184160979Y-118201021D01*
X184040656Y-118452310D01*
X183899331Y-118689944D01*
X183738011Y-118911539D01*
X183701464Y-118955791D01*
X183567654Y-119101914D01*
X183416577Y-119246363D01*
X183254790Y-119383477D01*
X183088848Y-119507599D01*
X182925307Y-119613067D01*
X182869505Y-119645000D01*
X182656319Y-119752397D01*
X182430579Y-119845216D01*
X182198618Y-119921308D01*
X181966767Y-119978526D01*
X181741358Y-120014721D01*
X181734293Y-120015458D01*
X181685825Y-120018913D01*
X181617846Y-120022058D01*
X181536113Y-120024698D01*
X181446380Y-120026641D01*
X181354405Y-120027694D01*
X181066671Y-120029411D01*
X181066671Y-119096708D01*
X181354405Y-119096731D01*
X181425145Y-119096596D01*
X181510836Y-119095701D01*
X181579123Y-119093634D01*
X181635395Y-119090010D01*
X181685046Y-119084445D01*
X181733466Y-119076554D01*
X181786048Y-119065953D01*
X181791749Y-119064726D01*
X182025266Y-119001138D01*
X182246313Y-118914556D01*
X182453895Y-118805651D01*
X182647014Y-118675095D01*
X182824671Y-118523562D01*
X182985870Y-118351723D01*
X183129612Y-118160251D01*
X183139068Y-118145899D01*
X183195444Y-118051501D01*
X183251722Y-117943824D01*
X183304819Y-117829810D01*
X183351652Y-117716401D01*
X183389140Y-117610543D01*
X183414200Y-117519176D01*
X183423565Y-117476182D01*
X181661983Y-117476182D01*
X181661983Y-116536911D01*
X183423565Y-116536911D01*
X183414200Y-116493916D01*
X183408106Y-116468320D01*
X183380629Y-116377420D01*
X183342322Y-116273634D01*
X183296168Y-116163798D01*
X183245149Y-116054752D01*
X183192248Y-115953334D01*
X183140450Y-115866381D01*
X183115811Y-115829311D01*
X182975551Y-115646362D01*
X182815955Y-115480350D01*
X182638784Y-115332476D01*
X182445803Y-115203941D01*
X182238772Y-115095944D01*
X182019455Y-115009686D01*
X181789615Y-114946368D01*
X181755715Y-114939240D01*
X181709016Y-114930940D01*
X181661528Y-114924928D01*
X181608116Y-114920846D01*
X181543649Y-114918340D01*
X181462994Y-114917052D01*
X181361019Y-114916627D01*
X181066669Y-114916338D01*
X181066671Y-113983682D01*
X181347791Y-113983940D01*
G37*
D13*
%TO.C,Y1*%
X225175590Y-105172291D02*
G75*
G02*
X225175590Y-103462291I753924J855000D01*
G01*
X226683590Y-103462291D02*
G75*
G02*
X226683590Y-105172291I-753924J-855000D01*
G01*
%TO.C,C19*%
X178490000Y-92859420D02*
X178490000Y-93140580D01*
X179510000Y-92859420D02*
X179510000Y-93140580D01*
D14*
%TO.C,G\u002A\u002A\u002A*%
G36*
X222562105Y-74030891D02*
G01*
X222562105Y-74957708D01*
X222379719Y-74957708D01*
X222197334Y-74957708D01*
X222197334Y-74030891D01*
X222197334Y-73104074D01*
X222379719Y-73104074D01*
X222562105Y-73104074D01*
X222562105Y-74030891D01*
G37*
G36*
X231249620Y-73219461D02*
G01*
X231249620Y-73342292D01*
X231152844Y-73342292D01*
X231056067Y-73342292D01*
X231056067Y-73219461D01*
X231056067Y-73096629D01*
X231152844Y-73096629D01*
X231249620Y-73096629D01*
X231249620Y-73219461D01*
G37*
G36*
X231249620Y-74302608D02*
G01*
X231249620Y-74957708D01*
X231152844Y-74957708D01*
X231056067Y-74957708D01*
X231056067Y-74302608D01*
X231056067Y-73647509D01*
X231152844Y-73647509D01*
X231249620Y-73647509D01*
X231249620Y-74302608D01*
G37*
G36*
X233639244Y-73204572D02*
G01*
X233639244Y-73297626D01*
X233170253Y-73297626D01*
X232701261Y-73297626D01*
X232701261Y-74127667D01*
X232701261Y-74957708D01*
X232589596Y-74957708D01*
X232477931Y-74957708D01*
X232477931Y-74127667D01*
X232477931Y-73297626D01*
X232008940Y-73297626D01*
X231539948Y-73297626D01*
X231539948Y-73204572D01*
X231539948Y-73111518D01*
X232589596Y-73111518D01*
X233639244Y-73111518D01*
X233639244Y-73204572D01*
G37*
G36*
X219826021Y-73690192D02*
G01*
X219822244Y-73699441D01*
X219813156Y-73721939D01*
X219799327Y-73756283D01*
X219781177Y-73801429D01*
X219759123Y-73856335D01*
X219733584Y-73919960D01*
X219704978Y-73991261D01*
X219673724Y-74069197D01*
X219640239Y-74152724D01*
X219604942Y-74240801D01*
X219568252Y-74332386D01*
X219533896Y-74418127D01*
X219498896Y-74505418D01*
X219465828Y-74587830D01*
X219435091Y-74664369D01*
X219407086Y-74734041D01*
X219382213Y-74795853D01*
X219360871Y-74848811D01*
X219343461Y-74891920D01*
X219330382Y-74924187D01*
X219322034Y-74944619D01*
X219318818Y-74952222D01*
X219313852Y-74953233D01*
X219295540Y-74954354D01*
X219265422Y-74955241D01*
X219225236Y-74955869D01*
X219176721Y-74956212D01*
X219121614Y-74956245D01*
X219061652Y-74955944D01*
X218807919Y-74953986D01*
X218643409Y-74498167D01*
X218629624Y-74459989D01*
X218598455Y-74373823D01*
X218571770Y-74300382D01*
X218549202Y-74238737D01*
X218530384Y-74187960D01*
X218514950Y-74147121D01*
X218502531Y-74115293D01*
X218492761Y-74091546D01*
X218485272Y-74074951D01*
X218479698Y-74064580D01*
X218475671Y-74059505D01*
X218472825Y-74058796D01*
X218470791Y-74061525D01*
X218470538Y-74062146D01*
X218466003Y-74074278D01*
X218457008Y-74099008D01*
X218444005Y-74135079D01*
X218427442Y-74181231D01*
X218407772Y-74236206D01*
X218385444Y-74298745D01*
X218360908Y-74367589D01*
X218334615Y-74441480D01*
X218307016Y-74519160D01*
X218151349Y-74957619D01*
X217894297Y-74957663D01*
X217637246Y-74957708D01*
X217376141Y-74309933D01*
X217115036Y-73662158D01*
X217311801Y-73664139D01*
X217508567Y-73666119D01*
X217700683Y-74174574D01*
X217729575Y-74250983D01*
X217759542Y-74330111D01*
X217787614Y-74404109D01*
X217813373Y-74471878D01*
X217836397Y-74532316D01*
X217856267Y-74584324D01*
X217872564Y-74626801D01*
X217884868Y-74658647D01*
X217892759Y-74678763D01*
X217895817Y-74686047D01*
X217898631Y-74680178D01*
X217906200Y-74661405D01*
X217918100Y-74630785D01*
X217933924Y-74589402D01*
X217953262Y-74538337D01*
X217975705Y-74478675D01*
X218000847Y-74411497D01*
X218028277Y-74337887D01*
X218057587Y-74258927D01*
X218088368Y-74175701D01*
X218277902Y-73662338D01*
X218477775Y-73664229D01*
X218677648Y-73666119D01*
X218868105Y-74177792D01*
X218897662Y-74257077D01*
X218927213Y-74336094D01*
X218954881Y-74409822D01*
X218980255Y-74477175D01*
X219002923Y-74537071D01*
X219022474Y-74588425D01*
X219038496Y-74630153D01*
X219050579Y-74661172D01*
X219058310Y-74680399D01*
X219061279Y-74686748D01*
X219063792Y-74680649D01*
X219071107Y-74661604D01*
X219082794Y-74630703D01*
X219098439Y-74589049D01*
X219117632Y-74537745D01*
X219139959Y-74477894D01*
X219165010Y-74410598D01*
X219192371Y-74336961D01*
X219221633Y-74258086D01*
X219252381Y-74175075D01*
X219440767Y-73666119D01*
X219639277Y-73664136D01*
X219837788Y-73662153D01*
X219826021Y-73690192D01*
G37*
G36*
X227408354Y-74957708D02*
G01*
X227311577Y-74957708D01*
X227214801Y-74957708D01*
X227214801Y-74867164D01*
X227214801Y-74776621D01*
X227185084Y-74818120D01*
X227181671Y-74822792D01*
X227146209Y-74862174D01*
X227102812Y-74895042D01*
X227050185Y-74921949D01*
X226987033Y-74943448D01*
X226912061Y-74960093D01*
X226823975Y-74972436D01*
X226818104Y-74973018D01*
X226784052Y-74975143D01*
X226738378Y-74976590D01*
X226683492Y-74977397D01*
X226621804Y-74977603D01*
X226555723Y-74977245D01*
X226487660Y-74976362D01*
X226420024Y-74974991D01*
X226355225Y-74973171D01*
X226295673Y-74970940D01*
X226243778Y-74968335D01*
X226201949Y-74965394D01*
X226172597Y-74962157D01*
X226154133Y-74959225D01*
X226066259Y-74940633D01*
X225990987Y-74915927D01*
X225927239Y-74884484D01*
X225873939Y-74845682D01*
X225830011Y-74798899D01*
X225794377Y-74743511D01*
X225783272Y-74720514D01*
X225760939Y-74658316D01*
X225743274Y-74585523D01*
X225730278Y-74504608D01*
X225721950Y-74418045D01*
X225718291Y-74328307D01*
X225718998Y-74264989D01*
X225928926Y-74264989D01*
X225929035Y-74348132D01*
X225933620Y-74427586D01*
X225942378Y-74501170D01*
X225955002Y-74566703D01*
X225971188Y-74622004D01*
X225990631Y-74664894D01*
X226014514Y-74698424D01*
X226048678Y-74730037D01*
X226091639Y-74755584D01*
X226144505Y-74775472D01*
X226208382Y-74790104D01*
X226284376Y-74799888D01*
X226373594Y-74805228D01*
X226389377Y-74805765D01*
X226434144Y-74807320D01*
X226476504Y-74808834D01*
X226512298Y-74810156D01*
X226537369Y-74811136D01*
X226566125Y-74811762D01*
X226608299Y-74811593D01*
X226657103Y-74810596D01*
X226709465Y-74808903D01*
X226762309Y-74806648D01*
X226812562Y-74803963D01*
X226857149Y-74800983D01*
X226892996Y-74797841D01*
X226917029Y-74794669D01*
X226973218Y-74782513D01*
X227034933Y-74762709D01*
X227084846Y-74737232D01*
X227124492Y-74704751D01*
X227155406Y-74663937D01*
X227179123Y-74613461D01*
X227197177Y-74551993D01*
X227200749Y-74532854D01*
X227205433Y-74492275D01*
X227208906Y-74441862D01*
X227211158Y-74384686D01*
X227212180Y-74323818D01*
X227211964Y-74262329D01*
X227210501Y-74203290D01*
X227207781Y-74149772D01*
X227203798Y-74104845D01*
X227198541Y-74071582D01*
X227182423Y-74009925D01*
X227161228Y-73954649D01*
X227134673Y-73910759D01*
X227100984Y-73876491D01*
X227058385Y-73850080D01*
X227005103Y-73829759D01*
X226939362Y-73813764D01*
X226900322Y-73807908D01*
X226848188Y-73803096D01*
X226786157Y-73799462D01*
X226716703Y-73796991D01*
X226642302Y-73795672D01*
X226565428Y-73795492D01*
X226488557Y-73796438D01*
X226414163Y-73798497D01*
X226344721Y-73801656D01*
X226282706Y-73805903D01*
X226230593Y-73811226D01*
X226190856Y-73817610D01*
X226139189Y-73830927D01*
X226088173Y-73851059D01*
X226045754Y-73877409D01*
X226011189Y-73911160D01*
X225983735Y-73953495D01*
X225962647Y-74005596D01*
X225947182Y-74068645D01*
X225936597Y-74143827D01*
X225930148Y-74232322D01*
X225928926Y-74264989D01*
X225718998Y-74264989D01*
X225719301Y-74237867D01*
X225724979Y-74149199D01*
X225735326Y-74064775D01*
X225750341Y-73987070D01*
X225770024Y-73918555D01*
X225794377Y-73861706D01*
X225807126Y-73839375D01*
X225844632Y-73788473D01*
X225890269Y-73745709D01*
X225945234Y-73710396D01*
X226010726Y-73681850D01*
X226087945Y-73659385D01*
X226178089Y-73642315D01*
X226195735Y-73640028D01*
X226239328Y-73636152D01*
X226293371Y-73633013D01*
X226355562Y-73630610D01*
X226423599Y-73628943D01*
X226495180Y-73628014D01*
X226568004Y-73627823D01*
X226639769Y-73628370D01*
X226708173Y-73629655D01*
X226770913Y-73631679D01*
X226825689Y-73634443D01*
X226870199Y-73637946D01*
X226902140Y-73642189D01*
X226919616Y-73645557D01*
X226994445Y-73663705D01*
X227056679Y-73685962D01*
X227107941Y-73713153D01*
X227149855Y-73746105D01*
X227184045Y-73785645D01*
X227214801Y-73828596D01*
X227214801Y-73462613D01*
X227214801Y-73096629D01*
X227311577Y-73096629D01*
X227408354Y-73096629D01*
X227408354Y-74027169D01*
X227408354Y-74323818D01*
X227408354Y-74957708D01*
G37*
G36*
X221820930Y-74338529D02*
G01*
X221820757Y-74399087D01*
X221820291Y-74447763D01*
X221819417Y-74486698D01*
X221818020Y-74518029D01*
X221815987Y-74543896D01*
X221813204Y-74566436D01*
X221809557Y-74587789D01*
X221804930Y-74610094D01*
X221799505Y-74633268D01*
X221775999Y-74708259D01*
X221745261Y-74771604D01*
X221706181Y-74824349D01*
X221657651Y-74867540D01*
X221598562Y-74902223D01*
X221527804Y-74929443D01*
X221444269Y-74950247D01*
X221428612Y-74953239D01*
X221384169Y-74960833D01*
X221338824Y-74967547D01*
X221300294Y-74972203D01*
X221295905Y-74972585D01*
X221270081Y-74973946D01*
X221231940Y-74975086D01*
X221183527Y-74975981D01*
X221126889Y-74976605D01*
X221064071Y-74976935D01*
X220997118Y-74976946D01*
X220928078Y-74976614D01*
X220870548Y-74976075D01*
X220767634Y-74974354D01*
X220677587Y-74971620D01*
X220599076Y-74967709D01*
X220530773Y-74962455D01*
X220471350Y-74955691D01*
X220419477Y-74947253D01*
X220373825Y-74936974D01*
X220333065Y-74924689D01*
X220295868Y-74910233D01*
X220260906Y-74893439D01*
X220246465Y-74885601D01*
X220193921Y-74851225D01*
X220152035Y-74812113D01*
X220118969Y-74765818D01*
X220092888Y-74709897D01*
X220071956Y-74641905D01*
X220058089Y-74574008D01*
X220047547Y-74492991D01*
X220040923Y-74403701D01*
X220038805Y-74325324D01*
X220414918Y-74325324D01*
X220415713Y-74377063D01*
X220417642Y-74424506D01*
X220420702Y-74464137D01*
X220424889Y-74492438D01*
X220425683Y-74495964D01*
X220442679Y-74551375D01*
X220466595Y-74595936D01*
X220498862Y-74630846D01*
X220540911Y-74657307D01*
X220594174Y-74676520D01*
X220660083Y-74689684D01*
X220668808Y-74690780D01*
X220701135Y-74693485D01*
X220744479Y-74695848D01*
X220796025Y-74697827D01*
X220852963Y-74699377D01*
X220912478Y-74700456D01*
X220971759Y-74701020D01*
X221027993Y-74701025D01*
X221078366Y-74700428D01*
X221120066Y-74699186D01*
X221150281Y-74697255D01*
X221176707Y-74694384D01*
X221244273Y-74683310D01*
X221300498Y-74667113D01*
X221346288Y-74644644D01*
X221382548Y-74614754D01*
X221410185Y-74576294D01*
X221430103Y-74528115D01*
X221443209Y-74469068D01*
X221450409Y-74398004D01*
X221452607Y-74313775D01*
X221451048Y-74243830D01*
X221445246Y-74176620D01*
X221434736Y-74120645D01*
X221419074Y-74074233D01*
X221397820Y-74035716D01*
X221370532Y-74003426D01*
X221351996Y-73987391D01*
X221324558Y-73969834D01*
X221291710Y-73955392D01*
X221252108Y-73943825D01*
X221204409Y-73934895D01*
X221147266Y-73928361D01*
X221079338Y-73923986D01*
X220999279Y-73921529D01*
X220905745Y-73920753D01*
X220870085Y-73920819D01*
X220802744Y-73921532D01*
X220747095Y-73923196D01*
X220700961Y-73926017D01*
X220662167Y-73930204D01*
X220628535Y-73935966D01*
X220597889Y-73943510D01*
X220568052Y-73953045D01*
X220542239Y-73963712D01*
X220499475Y-73991360D01*
X220466162Y-74028922D01*
X220441453Y-74077490D01*
X220424503Y-74138154D01*
X220423164Y-74145749D01*
X220419381Y-74179502D01*
X220416749Y-74223027D01*
X220415262Y-74272807D01*
X220414918Y-74325324D01*
X220038805Y-74325324D01*
X220038371Y-74309269D01*
X220040045Y-74212822D01*
X220046100Y-74117490D01*
X220047149Y-74106005D01*
X220055962Y-74032213D01*
X220067734Y-73970550D01*
X220083296Y-73918714D01*
X220103480Y-73874407D01*
X220129115Y-73835327D01*
X220161032Y-73799175D01*
X220180554Y-73780935D01*
X220228364Y-73745659D01*
X220284434Y-73716245D01*
X220350324Y-73692072D01*
X220427595Y-73672517D01*
X220517806Y-73656958D01*
X220520233Y-73656618D01*
X220547675Y-73653208D01*
X220577274Y-73650445D01*
X220610851Y-73648266D01*
X220650222Y-73646610D01*
X220697206Y-73645415D01*
X220753622Y-73644621D01*
X220821288Y-73644165D01*
X220902023Y-73643987D01*
X221010034Y-73644439D01*
X221112941Y-73646202D01*
X221203492Y-73649433D01*
X221282977Y-73654286D01*
X221352682Y-73660910D01*
X221413895Y-73669458D01*
X221467904Y-73680081D01*
X221515998Y-73692929D01*
X221559464Y-73708154D01*
X221599590Y-73725908D01*
X221614755Y-73733677D01*
X221671449Y-73770356D01*
X221717719Y-73814716D01*
X221754630Y-73868226D01*
X221783247Y-73932352D01*
X221804634Y-74008564D01*
X221806986Y-74019521D01*
X221811206Y-74041324D01*
X221814486Y-74062976D01*
X221816943Y-74086628D01*
X221818693Y-74114426D01*
X221819851Y-74148520D01*
X221820535Y-74191056D01*
X221820860Y-74244185D01*
X221820942Y-74310053D01*
X221820940Y-74313775D01*
X221820930Y-74338529D01*
G37*
G36*
X229865425Y-73626213D02*
G01*
X229924039Y-73627761D01*
X229975953Y-73630135D01*
X230017892Y-73633334D01*
X230070715Y-73639778D01*
X230149744Y-73655025D01*
X230216746Y-73676316D01*
X230272989Y-73704341D01*
X230319740Y-73739789D01*
X230358266Y-73783350D01*
X230389836Y-73835714D01*
X230415856Y-73887727D01*
X230415856Y-73767618D01*
X230415856Y-73647509D01*
X230512633Y-73647509D01*
X230609409Y-73647509D01*
X230609409Y-74302608D01*
X230609409Y-74957708D01*
X230513069Y-74957708D01*
X230416729Y-74957708D01*
X230414380Y-74524077D01*
X230414331Y-74514901D01*
X230413831Y-74425009D01*
X230413352Y-74348638D01*
X230412844Y-74284537D01*
X230412255Y-74231457D01*
X230411535Y-74188146D01*
X230410635Y-74153354D01*
X230409505Y-74125832D01*
X230408093Y-74104329D01*
X230406349Y-74087594D01*
X230404224Y-74074377D01*
X230401668Y-74063428D01*
X230398629Y-74053497D01*
X230395057Y-74043332D01*
X230370242Y-73987022D01*
X230336775Y-73937404D01*
X230294399Y-73897094D01*
X230241330Y-73864422D01*
X230175789Y-73837717D01*
X230132576Y-73824755D01*
X230083175Y-73813697D01*
X230029007Y-73805584D01*
X229967569Y-73800129D01*
X229896356Y-73797044D01*
X229812867Y-73796042D01*
X229812772Y-73796042D01*
X229715887Y-73797698D01*
X229632551Y-73803130D01*
X229561788Y-73812844D01*
X229502623Y-73827345D01*
X229454079Y-73847141D01*
X229415182Y-73872737D01*
X229384955Y-73904641D01*
X229362423Y-73943358D01*
X229346609Y-73989395D01*
X229336540Y-74043258D01*
X229335606Y-74054151D01*
X229334337Y-74081251D01*
X229333156Y-74120611D01*
X229332086Y-74170687D01*
X229331150Y-74229935D01*
X229330372Y-74296814D01*
X229329774Y-74369779D01*
X229329382Y-74447289D01*
X229329216Y-74527799D01*
X229328987Y-74957708D01*
X229232794Y-74957708D01*
X229136602Y-74957708D01*
X229133604Y-74531521D01*
X229133385Y-74500927D01*
X229132698Y-74413272D01*
X229131991Y-74338871D01*
X229131221Y-74276482D01*
X229130347Y-74224861D01*
X229129327Y-74182767D01*
X229128120Y-74148957D01*
X229126684Y-74122187D01*
X229124978Y-74101216D01*
X229122958Y-74084801D01*
X229120585Y-74071699D01*
X229117816Y-74060668D01*
X229109298Y-74034301D01*
X229084538Y-73980754D01*
X229051385Y-73934703D01*
X229009134Y-73895834D01*
X228957080Y-73863831D01*
X228894519Y-73838380D01*
X228820744Y-73819165D01*
X228735052Y-73805871D01*
X228636738Y-73798184D01*
X228525096Y-73795788D01*
X228442785Y-73797163D01*
X228358039Y-73802352D01*
X228285999Y-73811887D01*
X228225697Y-73826278D01*
X228176163Y-73846039D01*
X228136429Y-73871679D01*
X228105527Y-73903709D01*
X228082487Y-73942642D01*
X228066340Y-73988988D01*
X228056117Y-74043258D01*
X228055184Y-74054151D01*
X228053915Y-74081251D01*
X228052734Y-74120611D01*
X228051664Y-74170687D01*
X228050728Y-74229935D01*
X228049950Y-74296814D01*
X228049352Y-74369779D01*
X228048960Y-74447289D01*
X228048794Y-74527799D01*
X228048565Y-74957708D01*
X227951493Y-74957708D01*
X227854421Y-74957708D01*
X227856795Y-74457078D01*
X227857113Y-74392394D01*
X227857617Y-74301474D01*
X227858151Y-74223589D01*
X227858747Y-74157603D01*
X227859438Y-74102381D01*
X227860255Y-74056786D01*
X227861230Y-74019683D01*
X227862396Y-73989936D01*
X227863784Y-73966408D01*
X227865428Y-73947965D01*
X227867358Y-73933470D01*
X227869606Y-73921788D01*
X227872206Y-73911782D01*
X227890155Y-73859918D01*
X227918540Y-73803646D01*
X227954467Y-73756519D01*
X227999033Y-73717792D01*
X228053337Y-73686722D01*
X228118478Y-73662566D01*
X228195555Y-73644581D01*
X228285665Y-73632023D01*
X228288012Y-73631785D01*
X228328914Y-73628891D01*
X228380418Y-73627037D01*
X228439692Y-73626168D01*
X228503906Y-73626228D01*
X228570228Y-73627161D01*
X228635827Y-73628909D01*
X228697871Y-73631417D01*
X228753531Y-73634628D01*
X228799973Y-73638486D01*
X228834368Y-73642935D01*
X228911729Y-73659349D01*
X228983849Y-73682545D01*
X229044487Y-73712066D01*
X229095017Y-73748747D01*
X229136816Y-73793419D01*
X229171258Y-73846915D01*
X229193219Y-73887842D01*
X229216428Y-73839211D01*
X229224704Y-73822801D01*
X229258240Y-73771130D01*
X229299553Y-73728426D01*
X229349865Y-73693972D01*
X229410397Y-73667048D01*
X229482372Y-73646936D01*
X229567009Y-73632916D01*
X229586430Y-73630979D01*
X229629439Y-73628348D01*
X229682116Y-73626559D01*
X229741189Y-73625609D01*
X229803383Y-73625494D01*
X229865425Y-73626213D01*
G37*
G36*
X224198909Y-73097144D02*
G01*
X224327097Y-73098383D01*
X224442086Y-73100541D01*
X224544737Y-73103665D01*
X224635909Y-73107802D01*
X224716464Y-73112999D01*
X224787262Y-73119304D01*
X224849162Y-73126763D01*
X224903024Y-73135425D01*
X224949709Y-73145336D01*
X224972392Y-73151352D01*
X225052329Y-73181529D01*
X225122978Y-73223121D01*
X225183758Y-73275553D01*
X225234091Y-73338256D01*
X225273396Y-73410655D01*
X225301094Y-73492180D01*
X225306020Y-73512376D01*
X225312842Y-73543874D01*
X225318539Y-73576120D01*
X225323206Y-73610683D01*
X225326940Y-73649136D01*
X225329837Y-73693049D01*
X225331992Y-73743993D01*
X225333501Y-73803539D01*
X225334460Y-73873259D01*
X225334965Y-73954723D01*
X225335112Y-74049502D01*
X225334978Y-74137336D01*
X225334458Y-74219560D01*
X225333436Y-74289913D01*
X225331795Y-74349963D01*
X225329417Y-74401278D01*
X225326187Y-74445424D01*
X225321988Y-74483970D01*
X225316704Y-74518483D01*
X225310217Y-74550530D01*
X225302411Y-74581680D01*
X225293171Y-74613500D01*
X225275390Y-74662978D01*
X225238393Y-74733707D01*
X225190588Y-74794308D01*
X225131600Y-74845220D01*
X225061054Y-74886887D01*
X225046711Y-74893668D01*
X225010028Y-74909056D01*
X224971545Y-74922047D01*
X224929390Y-74932966D01*
X224881696Y-74942142D01*
X224826592Y-74949903D01*
X224762208Y-74956575D01*
X224686676Y-74962486D01*
X224598125Y-74967963D01*
X224588050Y-74968268D01*
X224562742Y-74968606D01*
X224524857Y-74968874D01*
X224475705Y-74969071D01*
X224416595Y-74969195D01*
X224348835Y-74969245D01*
X224273734Y-74969218D01*
X224192600Y-74969115D01*
X224106742Y-74968932D01*
X224017468Y-74968669D01*
X223923287Y-74968330D01*
X223825975Y-74967887D01*
X223741392Y-74967330D01*
X223668375Y-74966592D01*
X223605761Y-74965607D01*
X223552384Y-74964310D01*
X223507081Y-74962634D01*
X223468689Y-74960513D01*
X223436043Y-74957880D01*
X223407980Y-74954671D01*
X223383335Y-74950818D01*
X223360946Y-74946255D01*
X223339647Y-74940917D01*
X223318276Y-74934736D01*
X223295668Y-74927648D01*
X223277628Y-74921561D01*
X223204600Y-74889156D01*
X223143003Y-74847567D01*
X223092059Y-74796040D01*
X223050985Y-74733821D01*
X223019003Y-74660154D01*
X223013205Y-74642737D01*
X223003752Y-74609650D01*
X222995955Y-74574372D01*
X222989631Y-74535088D01*
X222984595Y-74489987D01*
X222980661Y-74437255D01*
X222977646Y-74375078D01*
X222975363Y-74301643D01*
X222973629Y-74215138D01*
X222969606Y-73967614D01*
X223588452Y-73967614D01*
X224207298Y-73967614D01*
X224207298Y-74109056D01*
X224207298Y-74250498D01*
X223796976Y-74250498D01*
X223386653Y-74250498D01*
X223392072Y-74322768D01*
X223393242Y-74336706D01*
X223397450Y-74374527D01*
X223402657Y-74409772D01*
X223408000Y-74436294D01*
X223417125Y-74463835D01*
X223442103Y-74510790D01*
X223475677Y-74552088D01*
X223514546Y-74583181D01*
X223528042Y-74590841D01*
X223549011Y-74600695D01*
X223572644Y-74609150D01*
X223600052Y-74616291D01*
X223632346Y-74622201D01*
X223670636Y-74626965D01*
X223716033Y-74630668D01*
X223769648Y-74633395D01*
X223832590Y-74635229D01*
X223905972Y-74636256D01*
X223990902Y-74636560D01*
X224088493Y-74636225D01*
X224199854Y-74635336D01*
X224201758Y-74635318D01*
X224297911Y-74634296D01*
X224380513Y-74633150D01*
X224450878Y-74631779D01*
X224510319Y-74630078D01*
X224560151Y-74627946D01*
X224601686Y-74625279D01*
X224636239Y-74621976D01*
X224665124Y-74617933D01*
X224689653Y-74613047D01*
X224711141Y-74607217D01*
X224730901Y-74600338D01*
X224750246Y-74592310D01*
X224777320Y-74578459D01*
X224811564Y-74552951D01*
X224839335Y-74520222D01*
X224861360Y-74478793D01*
X224878368Y-74427184D01*
X224891085Y-74363916D01*
X224900240Y-74287512D01*
X224902210Y-74260554D01*
X224904267Y-74214004D01*
X224905560Y-74159082D01*
X224906130Y-74098115D01*
X224906017Y-74033427D01*
X224905262Y-73967345D01*
X224903906Y-73902194D01*
X224901988Y-73840300D01*
X224899550Y-73783987D01*
X224896631Y-73735583D01*
X224893273Y-73697411D01*
X224889516Y-73671798D01*
X224888532Y-73667238D01*
X224871741Y-73606531D01*
X224849774Y-73558452D01*
X224820856Y-73521223D01*
X224783209Y-73493069D01*
X224735059Y-73472212D01*
X224674629Y-73456877D01*
X224663923Y-73454978D01*
X224646445Y-73452605D01*
X224625066Y-73450555D01*
X224598565Y-73448789D01*
X224565721Y-73447270D01*
X224525314Y-73445961D01*
X224476122Y-73444823D01*
X224416925Y-73443820D01*
X224346502Y-73442913D01*
X224263632Y-73442066D01*
X224167094Y-73441239D01*
X224147584Y-73441086D01*
X224045681Y-73440396D01*
X223957240Y-73440042D01*
X223881050Y-73440068D01*
X223815901Y-73440522D01*
X223760582Y-73441451D01*
X223713884Y-73442901D01*
X223674595Y-73444920D01*
X223641505Y-73447553D01*
X223613405Y-73450847D01*
X223589083Y-73454849D01*
X223567330Y-73459607D01*
X223546934Y-73465165D01*
X223510862Y-73478996D01*
X223467606Y-73507534D01*
X223435485Y-73545936D01*
X223414559Y-73594123D01*
X223404887Y-73652016D01*
X223401355Y-73707063D01*
X223189074Y-73707063D01*
X222976794Y-73707063D01*
X222981903Y-73628032D01*
X222984957Y-73589170D01*
X222997868Y-73495359D01*
X223018361Y-73413797D01*
X223047138Y-73343690D01*
X223084902Y-73284246D01*
X223132354Y-73234675D01*
X223190196Y-73194185D01*
X223259132Y-73161983D01*
X223339862Y-73137278D01*
X223433090Y-73119278D01*
X223449246Y-73117000D01*
X223493674Y-73111938D01*
X223545209Y-73107679D01*
X223604963Y-73104183D01*
X223674044Y-73101411D01*
X223753564Y-73099324D01*
X223844633Y-73097882D01*
X223948360Y-73097045D01*
X224065856Y-73096774D01*
X224198909Y-73097144D01*
G37*
D13*
%TO.C,JP6*%
X195200000Y-112050000D02*
X195200000Y-113450000D01*
X195900000Y-114150000D02*
X196500000Y-114150000D01*
X196500000Y-111350000D02*
X195900000Y-111350000D01*
X197200000Y-113450000D02*
X197200000Y-112050000D01*
X195200000Y-112050000D02*
G75*
G02*
X195900000Y-111350000I699999J1D01*
G01*
X195900000Y-114150000D02*
G75*
G02*
X195200000Y-113450000I0J700000D01*
G01*
X196500000Y-111350000D02*
G75*
G02*
X197200000Y-112050000I1J-699999D01*
G01*
X197200000Y-113450000D02*
G75*
G02*
X196500000Y-114150000I-700000J0D01*
G01*
%TO.C,C15*%
X122940580Y-76890000D02*
X122659420Y-76890000D01*
X122940580Y-77910000D02*
X122659420Y-77910000D01*
%TO.C,R66*%
X117477064Y-101265000D02*
X117022936Y-101265000D01*
X117477064Y-102735000D02*
X117022936Y-102735000D01*
%TO.C,D1*%
X222260000Y-113650000D02*
X216450000Y-113650000D01*
X222260000Y-113650000D02*
X222260000Y-117950000D01*
X222260000Y-117950000D02*
X216450000Y-117950000D01*
%TO.C,C3*%
X229188748Y-114765000D02*
X229711252Y-114765000D01*
X229188748Y-116235000D02*
X229711252Y-116235000D01*
%TO.C,R35*%
X173062742Y-99277500D02*
X173537258Y-99277500D01*
X173062742Y-100322500D02*
X173537258Y-100322500D01*
%TO.C,R12*%
X204522936Y-107265000D02*
X204977064Y-107265000D01*
X204522936Y-108735000D02*
X204977064Y-108735000D01*
%TO.C,C18*%
X210490000Y-92859420D02*
X210490000Y-93140580D01*
X211510000Y-92859420D02*
X211510000Y-93140580D01*
%TO.C,JP27*%
X92750000Y-72600000D02*
X92750000Y-74000000D01*
X93450000Y-74700000D02*
X94050000Y-74700000D01*
X94050000Y-71900000D02*
X93450000Y-71900000D01*
X94750000Y-74000000D02*
X94750000Y-72600000D01*
X92750000Y-72600000D02*
G75*
G02*
X93450000Y-71900000I700000J0D01*
G01*
X93450000Y-74700000D02*
G75*
G02*
X92750000Y-74000000I-1J699999D01*
G01*
X94050000Y-71900000D02*
G75*
G02*
X94750000Y-72600000I0J-700000D01*
G01*
X94750000Y-74000000D02*
G75*
G02*
X94050000Y-74700000I-699999J-1D01*
G01*
%TO.C,R52*%
X143265000Y-82772936D02*
X143265000Y-83227064D01*
X144735000Y-82772936D02*
X144735000Y-83227064D01*
%TO.C,C16*%
X90940580Y-75290000D02*
X90659420Y-75290000D01*
X90940580Y-76310000D02*
X90659420Y-76310000D01*
%TO.C,R69*%
X117477064Y-78865000D02*
X117022936Y-78865000D01*
X117477064Y-80335000D02*
X117022936Y-80335000D01*
%TO.C,R97*%
X96290000Y-97352064D02*
X96290000Y-96897936D01*
X97760000Y-97352064D02*
X97760000Y-96897936D01*
%TO.C,R19*%
X189477064Y-101165000D02*
X189022936Y-101165000D01*
X189477064Y-102635000D02*
X189022936Y-102635000D01*
D15*
%TO.C,SW3*%
X216700000Y-100250000D02*
X216700000Y-100250000D01*
X216800000Y-100250000D02*
X216800000Y-100250000D01*
D16*
X219900000Y-95000000D02*
X219900000Y-101000000D01*
X219900000Y-101000000D02*
X225900000Y-101000000D01*
X225900000Y-95000000D02*
X219900000Y-95000000D01*
X225900000Y-101000000D02*
X225900000Y-95000000D01*
D15*
X216700000Y-100250000D02*
G75*
G02*
X216800000Y-100250000I50000J0D01*
G01*
X216800000Y-100250000D02*
G75*
G02*
X216700000Y-100250000I-50000J0D01*
G01*
D13*
%TO.C,JP20*%
X131350000Y-81450000D02*
X131350000Y-82050000D01*
X132050000Y-82750000D02*
X133450000Y-82750000D01*
X133450000Y-80750000D02*
X132050000Y-80750000D01*
X134150000Y-82050000D02*
X134150000Y-81450000D01*
X131350000Y-81450000D02*
G75*
G02*
X132050000Y-80750000I699999J1D01*
G01*
X132050000Y-82750000D02*
G75*
G02*
X131350000Y-82050000I-1J699999D01*
G01*
X133450000Y-80750000D02*
G75*
G02*
X134150000Y-81450000I0J-700000D01*
G01*
X134150000Y-82050000D02*
G75*
G02*
X133450000Y-82750000I-700000J0D01*
G01*
%TO.C,J1*%
X218620000Y-119480000D02*
X218620000Y-120380000D01*
X218620000Y-119480000D02*
X219420000Y-119480000D01*
X218620000Y-123520000D02*
X218620000Y-122620000D01*
X218620000Y-123520000D02*
X219420000Y-123520000D01*
X227160000Y-119480000D02*
X226360000Y-119480000D01*
X227160000Y-119480000D02*
X227160000Y-120380000D01*
X227160000Y-123520000D02*
X226360000Y-123520000D01*
X227160000Y-123520000D02*
X227160000Y-122620000D01*
X227310000Y-119330000D02*
X226810000Y-119330000D01*
X227310000Y-119330000D02*
X227310000Y-119830000D01*
%TO.C,JP32*%
X83850000Y-81500000D02*
X83850000Y-82100000D01*
X84550000Y-82800000D02*
X85950000Y-82800000D01*
X85950000Y-80800000D02*
X84550000Y-80800000D01*
X86650000Y-82100000D02*
X86650000Y-81500000D01*
X83850000Y-81500000D02*
G75*
G02*
X84550000Y-80800000I700000J0D01*
G01*
X84550000Y-82800000D02*
G75*
G02*
X83850000Y-82100000I0J700000D01*
G01*
X85950000Y-80800000D02*
G75*
G02*
X86650000Y-81500000I1J-699999D01*
G01*
X86650000Y-82100000D02*
G75*
G02*
X85950000Y-82800000I-699999J-1D01*
G01*
%TO.C,R6*%
X191227500Y-73487258D02*
X191227500Y-73012742D01*
X192272500Y-73487258D02*
X192272500Y-73012742D01*
%TO.C,JP9*%
X195775000Y-96475000D02*
X195775000Y-97875000D01*
X196475000Y-98575000D02*
X197075000Y-98575000D01*
X197075000Y-95775000D02*
X196475000Y-95775000D01*
X197775000Y-97875000D02*
X197775000Y-96475000D01*
X195775000Y-96475000D02*
G75*
G02*
X196475000Y-95775000I700000J0D01*
G01*
X196475000Y-98575000D02*
G75*
G02*
X195775000Y-97875000I-1J699999D01*
G01*
X197075000Y-95775000D02*
G75*
G02*
X197775000Y-96475000I0J-700000D01*
G01*
X197775000Y-97875000D02*
G75*
G02*
X197075000Y-98575000I-699999J-1D01*
G01*
%TO.C,C2*%
X224665000Y-116188748D02*
X224665000Y-116711252D01*
X226135000Y-116188748D02*
X226135000Y-116711252D01*
%TO.C,C14*%
X122940580Y-75290000D02*
X122659420Y-75290000D01*
X122940580Y-76310000D02*
X122659420Y-76310000D01*
%TO.C,Q22*%
X115690000Y-84340000D02*
X115690000Y-85860000D01*
X115690000Y-85860000D02*
X115740000Y-85860000D01*
X116690000Y-84340000D02*
X115690000Y-84340000D01*
X116860000Y-85860000D02*
X117640000Y-85860000D01*
X118760000Y-85860000D02*
X118810000Y-85860000D01*
X118810000Y-84340000D02*
X117810000Y-84340000D01*
X118810000Y-85860000D02*
X118810000Y-84340000D01*
X117630000Y-86400000D02*
X117300000Y-86640000D01*
X117300000Y-86160000D01*
X117630000Y-86400000D01*
G36*
X117630000Y-86400000D02*
G01*
X117300000Y-86640000D01*
X117300000Y-86160000D01*
X117630000Y-86400000D01*
G37*
%TO.C,R16*%
X193165000Y-112522936D02*
X193165000Y-112977064D01*
X194635000Y-112522936D02*
X194635000Y-112977064D01*
%TO.C,R22*%
X189527064Y-78765000D02*
X189072936Y-78765000D01*
X189527064Y-80235000D02*
X189072936Y-80235000D01*
%TO.C,R17*%
X189437258Y-109677500D02*
X188962742Y-109677500D01*
X189437258Y-110722500D02*
X188962742Y-110722500D01*
%TO.C,JP14*%
X163250000Y-112050000D02*
X163250000Y-113450000D01*
X163950000Y-114150000D02*
X164550000Y-114150000D01*
X164550000Y-111350000D02*
X163950000Y-111350000D01*
X165250000Y-113450000D02*
X165250000Y-112050000D01*
X163250000Y-112050000D02*
G75*
G02*
X163950000Y-111350000I699999J1D01*
G01*
X163950000Y-114150000D02*
G75*
G02*
X163250000Y-113450000I0J700000D01*
G01*
X164550000Y-111350000D02*
G75*
G02*
X165250000Y-112050000I1J-699999D01*
G01*
X165250000Y-113450000D02*
G75*
G02*
X164550000Y-114150000I-700000J0D01*
G01*
%TO.C,R87*%
X87265000Y-112522936D02*
X87265000Y-112977064D01*
X88735000Y-112522936D02*
X88735000Y-112977064D01*
%TO.C,C9*%
X223390000Y-108159420D02*
X223390000Y-108440580D01*
X224410000Y-108159420D02*
X224410000Y-108440580D01*
%TO.C,JP3*%
X196750000Y-72550000D02*
X196750000Y-73950000D01*
X197450000Y-74650000D02*
X198050000Y-74650000D01*
X198050000Y-71850000D02*
X197450000Y-71850000D01*
X198750000Y-73950000D02*
X198750000Y-72550000D01*
X196750000Y-72550000D02*
G75*
G02*
X197450000Y-71850000I700000J0D01*
G01*
X197450000Y-74650000D02*
G75*
G02*
X196750000Y-73950000I-1J699999D01*
G01*
X198050000Y-71850000D02*
G75*
G02*
X198750000Y-72550000I0J-700000D01*
G01*
X198750000Y-73950000D02*
G75*
G02*
X198050000Y-74650000I-699999J-1D01*
G01*
%TO.C,U4*%
X162940000Y-78340000D02*
X162940000Y-78395000D01*
X162940000Y-88405000D02*
X162940000Y-88460000D01*
X162940000Y-88460000D02*
X167060000Y-88460000D01*
X167060000Y-78340000D02*
X162940000Y-78340000D01*
X167060000Y-78395000D02*
X167060000Y-78340000D01*
X167060000Y-88460000D02*
X167060000Y-88405000D01*
X167600000Y-78390000D02*
X167360000Y-78060000D01*
X167840000Y-78060000D01*
X167600000Y-78390000D01*
G36*
X167600000Y-78390000D02*
G01*
X167360000Y-78060000D01*
X167840000Y-78060000D01*
X167600000Y-78390000D01*
G37*
%TO.C,Q8*%
X184240000Y-69240000D02*
X184240000Y-70240000D01*
X184240000Y-71360000D02*
X184240000Y-72360000D01*
X184240000Y-72360000D02*
X185760000Y-72360000D01*
X185760000Y-69240000D02*
X184240000Y-69240000D01*
X185760000Y-69290000D02*
X185760000Y-69240000D01*
X185760000Y-71190000D02*
X185760000Y-70410000D01*
X185760000Y-72360000D02*
X185760000Y-72310000D01*
X186540000Y-70750000D02*
X186060000Y-70750000D01*
X186300000Y-70420000D01*
X186540000Y-70750000D01*
G36*
X186540000Y-70750000D02*
G01*
X186060000Y-70750000D01*
X186300000Y-70420000D01*
X186540000Y-70750000D01*
G37*
%TO.C,Q10*%
X171190000Y-77740000D02*
X171190000Y-79260000D01*
X171190000Y-79260000D02*
X172190000Y-79260000D01*
X171240000Y-77740000D02*
X171190000Y-77740000D01*
X173140000Y-77740000D02*
X172360000Y-77740000D01*
X173310000Y-79260000D02*
X174310000Y-79260000D01*
X174310000Y-77740000D02*
X174260000Y-77740000D01*
X174310000Y-79260000D02*
X174310000Y-77740000D01*
X172700000Y-77440000D02*
X172370000Y-77200000D01*
X172700000Y-76960000D01*
X172700000Y-77440000D01*
G36*
X172700000Y-77440000D02*
G01*
X172370000Y-77200000D01*
X172700000Y-76960000D01*
X172700000Y-77440000D01*
G37*
%TO.C,R56*%
X132512742Y-74977500D02*
X132987258Y-74977500D01*
X132512742Y-76022500D02*
X132987258Y-76022500D01*
%TO.C,R58*%
X132522936Y-83265000D02*
X132977064Y-83265000D01*
X132522936Y-84735000D02*
X132977064Y-84735000D01*
%TO.C,Q11*%
X171190000Y-101740000D02*
X171190000Y-103260000D01*
X171190000Y-103260000D02*
X172190000Y-103260000D01*
X171240000Y-101740000D02*
X171190000Y-101740000D01*
X173140000Y-101740000D02*
X172360000Y-101740000D01*
X173310000Y-103260000D02*
X174310000Y-103260000D01*
X174310000Y-101740000D02*
X174260000Y-101740000D01*
X174310000Y-103260000D02*
X174310000Y-101740000D01*
X172700000Y-101440000D02*
X172370000Y-101200000D01*
X172700000Y-100960000D01*
X172700000Y-101440000D01*
G36*
X172700000Y-101440000D02*
G01*
X172370000Y-101200000D01*
X172700000Y-100960000D01*
X172700000Y-101440000D01*
G37*
%TO.C,R64*%
X121265000Y-112522936D02*
X121265000Y-112977064D01*
X122735000Y-112522936D02*
X122735000Y-112977064D01*
%TO.C,R80*%
X100512742Y-75227500D02*
X100987258Y-75227500D01*
X100512742Y-76272500D02*
X100987258Y-76272500D01*
%TO.C,R27*%
X181627064Y-71565000D02*
X181172936Y-71565000D01*
X181627064Y-73035000D02*
X181172936Y-73035000D01*
%TO.C,Q21*%
X115690000Y-106740000D02*
X115690000Y-108260000D01*
X115690000Y-108260000D02*
X115740000Y-108260000D01*
X116690000Y-106740000D02*
X115690000Y-106740000D01*
X116860000Y-108260000D02*
X117640000Y-108260000D01*
X118760000Y-108260000D02*
X118810000Y-108260000D01*
X118810000Y-106740000D02*
X117810000Y-106740000D01*
X118810000Y-108260000D02*
X118810000Y-106740000D01*
X117630000Y-108800000D02*
X117300000Y-109040000D01*
X117300000Y-108560000D01*
X117630000Y-108800000D01*
G36*
X117630000Y-108800000D02*
G01*
X117300000Y-109040000D01*
X117300000Y-108560000D01*
X117630000Y-108800000D01*
G37*
%TO.C,R29*%
X169365000Y-73477064D02*
X169365000Y-73022936D01*
X170835000Y-73477064D02*
X170835000Y-73022936D01*
%TO.C,R89*%
X85487258Y-109927500D02*
X85012742Y-109927500D01*
X85487258Y-110972500D02*
X85012742Y-110972500D01*
%TO.C,JP26*%
X139350000Y-113450000D02*
X139350000Y-114050000D01*
X140050000Y-114750000D02*
X141450000Y-114750000D01*
X141450000Y-112750000D02*
X140050000Y-112750000D01*
X142150000Y-114050000D02*
X142150000Y-113450000D01*
X139350000Y-113450000D02*
G75*
G02*
X140050000Y-112750000I699999J1D01*
G01*
X140050000Y-114750000D02*
G75*
G02*
X139350000Y-114050000I-1J699999D01*
G01*
X141450000Y-112750000D02*
G75*
G02*
X142150000Y-113450000I0J-700000D01*
G01*
X142150000Y-114050000D02*
G75*
G02*
X141450000Y-114750000I-700000J0D01*
G01*
%TO.C,R92*%
X85487258Y-87277500D02*
X85012742Y-87277500D01*
X85487258Y-88322500D02*
X85012742Y-88322500D01*
%TO.C,C7*%
X229139014Y-104757291D02*
X229420174Y-104757291D01*
X229139014Y-105777291D02*
X229420174Y-105777291D01*
%TO.C,JP33*%
X91725000Y-96425000D02*
X91725000Y-97825000D01*
X92425000Y-98525000D02*
X93025000Y-98525000D01*
X93025000Y-95725000D02*
X92425000Y-95725000D01*
X93725000Y-97825000D02*
X93725000Y-96425000D01*
X91725000Y-96425000D02*
G75*
G02*
X92425000Y-95725000I700000J0D01*
G01*
X92425000Y-98525000D02*
G75*
G02*
X91725000Y-97825000I-1J699999D01*
G01*
X93025000Y-95725000D02*
G75*
G02*
X93725000Y-96425000I0J-700000D01*
G01*
X93725000Y-97825000D02*
G75*
G02*
X93025000Y-98525000I-699999J-1D01*
G01*
%TO.C,R86*%
X97977500Y-112512742D02*
X97977500Y-112987258D01*
X99022500Y-112512742D02*
X99022500Y-112987258D01*
%TO.C,Q4*%
X198690000Y-111190000D02*
X198690000Y-112190000D01*
X198690000Y-113310000D02*
X198690000Y-114310000D01*
X198690000Y-114310000D02*
X200210000Y-114310000D01*
X200210000Y-111190000D02*
X198690000Y-111190000D01*
X200210000Y-111240000D02*
X200210000Y-111190000D01*
X200210000Y-113140000D02*
X200210000Y-112360000D01*
X200210000Y-114310000D02*
X200210000Y-114260000D01*
X200990000Y-112700000D02*
X200510000Y-112700000D01*
X200750000Y-112370000D01*
X200990000Y-112700000D01*
G36*
X200990000Y-112700000D02*
G01*
X200510000Y-112700000D01*
X200750000Y-112370000D01*
X200990000Y-112700000D01*
G37*
%TO.C,R51*%
X145265000Y-82772936D02*
X145265000Y-83227064D01*
X146735000Y-82772936D02*
X146735000Y-83227064D01*
%TO.C,JP17*%
X163800000Y-96325000D02*
X163800000Y-97725000D01*
X164500000Y-98425000D02*
X165100000Y-98425000D01*
X165100000Y-95625000D02*
X164500000Y-95625000D01*
X165800000Y-97725000D02*
X165800000Y-96325000D01*
X163800000Y-96325000D02*
G75*
G02*
X164500000Y-95625000I700000J0D01*
G01*
X164500000Y-98425000D02*
G75*
G02*
X163800000Y-97725000I-1J699999D01*
G01*
X165100000Y-95625000D02*
G75*
G02*
X165800000Y-96325000I0J-700000D01*
G01*
X165800000Y-97725000D02*
G75*
G02*
X165100000Y-98425000I-699999J-1D01*
G01*
%TO.C,C1*%
X222615000Y-116188748D02*
X222615000Y-116711252D01*
X224085000Y-116188748D02*
X224085000Y-116711252D01*
%TO.C,JP24*%
X115850000Y-81550000D02*
X115850000Y-82150000D01*
X116550000Y-82850000D02*
X117950000Y-82850000D01*
X117950000Y-80850000D02*
X116550000Y-80850000D01*
X118650000Y-82150000D02*
X118650000Y-81550000D01*
X115850000Y-81550000D02*
G75*
G02*
X116550000Y-80850000I700000J0D01*
G01*
X116550000Y-82850000D02*
G75*
G02*
X115850000Y-82150000I0J700000D01*
G01*
X117950000Y-80850000D02*
G75*
G02*
X118650000Y-81550000I1J-699999D01*
G01*
X118650000Y-82150000D02*
G75*
G02*
X117950000Y-82850000I-699999J-1D01*
G01*
%TO.C,R33*%
X172522936Y-83265000D02*
X172977064Y-83265000D01*
X172522936Y-84735000D02*
X172977064Y-84735000D01*
%TO.C,U1*%
X227902500Y-111490000D02*
X227902500Y-113310000D01*
X227902500Y-113310000D02*
X227952500Y-113310000D01*
X227952500Y-111490000D02*
X227902500Y-111490000D01*
X229852500Y-111490000D02*
X229072500Y-111490000D01*
X230972500Y-113310000D02*
X231022500Y-113310000D01*
X231022500Y-111490000D02*
X230972500Y-111490000D01*
X231022500Y-113310000D02*
X231022500Y-111490000D01*
X231302500Y-114090000D02*
X230972500Y-113850000D01*
X231302500Y-113610000D01*
X231302500Y-114090000D01*
G36*
X231302500Y-114090000D02*
G01*
X230972500Y-113850000D01*
X231302500Y-113610000D01*
X231302500Y-114090000D01*
G37*
%TO.C,R13*%
X204522936Y-109265000D02*
X204977064Y-109265000D01*
X204522936Y-110735000D02*
X204977064Y-110735000D01*
%TO.C,R81*%
X100522936Y-83265000D02*
X100977064Y-83265000D01*
X100522936Y-84735000D02*
X100977064Y-84735000D01*
%TO.C,JP19*%
X124800000Y-72550000D02*
X124800000Y-73950000D01*
X125500000Y-74650000D02*
X126100000Y-74650000D01*
X126100000Y-71850000D02*
X125500000Y-71850000D01*
X126800000Y-73950000D02*
X126800000Y-72550000D01*
X124800000Y-72550000D02*
G75*
G02*
X125500000Y-71850000I700000J0D01*
G01*
X125500000Y-74650000D02*
G75*
G02*
X124800000Y-73950000I-1J699999D01*
G01*
X126100000Y-71850000D02*
G75*
G02*
X126800000Y-72550000I0J-700000D01*
G01*
X126800000Y-73950000D02*
G75*
G02*
X126100000Y-74650000I-699999J-1D01*
G01*
%TO.C,C13*%
X162940580Y-76890000D02*
X162659420Y-76890000D01*
X162940580Y-77910000D02*
X162659420Y-77910000D01*
%TO.C,R63*%
X119265000Y-112522936D02*
X119265000Y-112977064D01*
X120735000Y-112522936D02*
X120735000Y-112977064D01*
%TO.C,JP30*%
X91250000Y-112050000D02*
X91250000Y-113450000D01*
X91950000Y-114150000D02*
X92550000Y-114150000D01*
X92550000Y-111350000D02*
X91950000Y-111350000D01*
X93250000Y-113450000D02*
X93250000Y-112050000D01*
X91250000Y-112050000D02*
G75*
G02*
X91950000Y-111350000I699999J1D01*
G01*
X91950000Y-114150000D02*
G75*
G02*
X91250000Y-113450000I0J700000D01*
G01*
X92550000Y-111350000D02*
G75*
G02*
X93250000Y-112050000I1J-699999D01*
G01*
X93250000Y-113450000D02*
G75*
G02*
X92550000Y-114150000I-700000J0D01*
G01*
%TO.C,R76*%
X140522936Y-117265000D02*
X140977064Y-117265000D01*
X140522936Y-118735000D02*
X140977064Y-118735000D01*
D15*
%TO.C,SW1*%
X216700000Y-82050000D02*
X216700000Y-82050000D01*
X216800000Y-82050000D02*
X216800000Y-82050000D01*
D16*
X219900000Y-76800000D02*
X219900000Y-82800000D01*
X219900000Y-82800000D02*
X225900000Y-82800000D01*
X225900000Y-76800000D02*
X219900000Y-76800000D01*
X225900000Y-82800000D02*
X225900000Y-76800000D01*
D15*
X216700000Y-82050000D02*
G75*
G02*
X216800000Y-82050000I50000J0D01*
G01*
X216800000Y-82050000D02*
G75*
G02*
X216700000Y-82050000I-50000J0D01*
G01*
D13*
%TO.C,R44*%
X157487258Y-87477500D02*
X157012742Y-87477500D01*
X157487258Y-88522500D02*
X157012742Y-88522500D01*
%TO.C,Q28*%
X94740000Y-111190000D02*
X94740000Y-112190000D01*
X94740000Y-113310000D02*
X94740000Y-114310000D01*
X94740000Y-114310000D02*
X96260000Y-114310000D01*
X96260000Y-111190000D02*
X94740000Y-111190000D01*
X96260000Y-111240000D02*
X96260000Y-111190000D01*
X96260000Y-113140000D02*
X96260000Y-112360000D01*
X96260000Y-114310000D02*
X96260000Y-114260000D01*
X97040000Y-112700000D02*
X96560000Y-112700000D01*
X96800000Y-112370000D01*
X97040000Y-112700000D01*
G36*
X97040000Y-112700000D02*
G01*
X96560000Y-112700000D01*
X96800000Y-112370000D01*
X97040000Y-112700000D01*
G37*
%TO.C,Q26*%
X99190000Y-77740000D02*
X99190000Y-79260000D01*
X99190000Y-79260000D02*
X100190000Y-79260000D01*
X99240000Y-77740000D02*
X99190000Y-77740000D01*
X101140000Y-77740000D02*
X100360000Y-77740000D01*
X101310000Y-79260000D02*
X102310000Y-79260000D01*
X102310000Y-77740000D02*
X102260000Y-77740000D01*
X102310000Y-79260000D02*
X102310000Y-77740000D01*
X100700000Y-77440000D02*
X100370000Y-77200000D01*
X100700000Y-76960000D01*
X100700000Y-77440000D01*
G36*
X100700000Y-77440000D02*
G01*
X100370000Y-77200000D01*
X100700000Y-76960000D01*
X100700000Y-77440000D01*
G37*
%TO.C,R71*%
X119277500Y-97437258D02*
X119277500Y-96962742D01*
X120322500Y-97437258D02*
X120322500Y-96962742D01*
%TO.C,JP31*%
X83850000Y-103900000D02*
X83850000Y-104500000D01*
X84550000Y-105200000D02*
X85950000Y-105200000D01*
X85950000Y-103200000D02*
X84550000Y-103200000D01*
X86650000Y-104500000D02*
X86650000Y-103900000D01*
X83850000Y-103900000D02*
G75*
G02*
X84550000Y-103200000I700000J0D01*
G01*
X84550000Y-105200000D02*
G75*
G02*
X83850000Y-104500000I0J700000D01*
G01*
X85950000Y-103200000D02*
G75*
G02*
X86650000Y-103900000I1J-699999D01*
G01*
X86650000Y-104500000D02*
G75*
G02*
X85950000Y-105200000I-699999J-1D01*
G01*
%TO.C,R93*%
X85477064Y-76815000D02*
X85022936Y-76815000D01*
X85477064Y-78285000D02*
X85022936Y-78285000D01*
%TO.C,R34*%
X172522936Y-85265000D02*
X172977064Y-85265000D01*
X172522936Y-86735000D02*
X172977064Y-86735000D01*
%TO.C,U3*%
X194940000Y-78340000D02*
X194940000Y-78395000D01*
X194940000Y-88405000D02*
X194940000Y-88460000D01*
X194940000Y-88460000D02*
X199060000Y-88460000D01*
X199060000Y-78340000D02*
X194940000Y-78340000D01*
X199060000Y-78395000D02*
X199060000Y-78340000D01*
X199060000Y-88460000D02*
X199060000Y-88405000D01*
X199600000Y-78390000D02*
X199360000Y-78060000D01*
X199840000Y-78060000D01*
X199600000Y-78390000D01*
G36*
X199600000Y-78390000D02*
G01*
X199360000Y-78060000D01*
X199840000Y-78060000D01*
X199600000Y-78390000D01*
G37*
%TO.C,R24*%
X198290000Y-97402064D02*
X198290000Y-96947936D01*
X199760000Y-97402064D02*
X199760000Y-96947936D01*
%TO.C,R48*%
X166365000Y-97252064D02*
X166365000Y-96797936D01*
X167835000Y-97252064D02*
X167835000Y-96797936D01*
%TO.C,Q31*%
X88765000Y-95515000D02*
X88765000Y-95565000D01*
X88765000Y-96685000D02*
X88765000Y-97465000D01*
X88765000Y-98585000D02*
X88765000Y-98635000D01*
X88765000Y-98635000D02*
X90285000Y-98635000D01*
X90285000Y-95515000D02*
X88765000Y-95515000D01*
X90285000Y-96515000D02*
X90285000Y-95515000D01*
X90285000Y-98635000D02*
X90285000Y-97635000D01*
X88225000Y-97455000D02*
X87985000Y-97125000D01*
X88465000Y-97125000D01*
X88225000Y-97455000D01*
G36*
X88225000Y-97455000D02*
G01*
X87985000Y-97125000D01*
X88465000Y-97125000D01*
X88225000Y-97455000D01*
G37*
%TO.C,R38*%
X169977500Y-112512742D02*
X169977500Y-112987258D01*
X171022500Y-112512742D02*
X171022500Y-112987258D01*
%TO.C,R15*%
X191165000Y-112522936D02*
X191165000Y-112977064D01*
X192635000Y-112522936D02*
X192635000Y-112977064D01*
%TO.C,R61*%
X132472936Y-107265000D02*
X132927064Y-107265000D01*
X132472936Y-108735000D02*
X132927064Y-108735000D01*
%TO.C,R74*%
X141037742Y-107002500D02*
X141512258Y-107002500D01*
X141037742Y-108047500D02*
X141512258Y-108047500D01*
%TO.C,R30*%
X159027500Y-73487258D02*
X159027500Y-73012742D01*
X160072500Y-73487258D02*
X160072500Y-73012742D01*
%TO.C,R39*%
X161315000Y-112522936D02*
X161315000Y-112977064D01*
X162785000Y-112522936D02*
X162785000Y-112977064D01*
%TO.C,R59*%
X132762742Y-99177500D02*
X133237258Y-99177500D01*
X132762742Y-100222500D02*
X133237258Y-100222500D01*
%TO.C,R106*%
X158772936Y-122765000D02*
X159227064Y-122765000D01*
X158772936Y-124235000D02*
X159227064Y-124235000D01*
%TO.C,R105*%
X151772936Y-122765000D02*
X152227064Y-122765000D01*
X151772936Y-124235000D02*
X152227064Y-124235000D01*
%TO.C,R60*%
X132472936Y-109315000D02*
X132927064Y-109315000D01*
X132472936Y-110785000D02*
X132927064Y-110785000D01*
%TO.C,U6*%
X90940000Y-78340000D02*
X90940000Y-78395000D01*
X90940000Y-88405000D02*
X90940000Y-88460000D01*
X90940000Y-88460000D02*
X95060000Y-88460000D01*
X95060000Y-78340000D02*
X90940000Y-78340000D01*
X95060000Y-78395000D02*
X95060000Y-78340000D01*
X95060000Y-88460000D02*
X95060000Y-88405000D01*
X95600000Y-78390000D02*
X95360000Y-78060000D01*
X95840000Y-78060000D01*
X95600000Y-78390000D01*
G36*
X95600000Y-78390000D02*
G01*
X95360000Y-78060000D01*
X95840000Y-78060000D01*
X95600000Y-78390000D01*
G37*
%TO.C,R73*%
X129365000Y-97477064D02*
X129365000Y-97022936D01*
X130835000Y-97477064D02*
X130835000Y-97022936D01*
%TO.C,JP23*%
X115850000Y-103950000D02*
X115850000Y-104550000D01*
X116550000Y-105250000D02*
X117950000Y-105250000D01*
X117950000Y-103250000D02*
X116550000Y-103250000D01*
X118650000Y-104550000D02*
X118650000Y-103950000D01*
X115850000Y-103950000D02*
G75*
G02*
X116550000Y-103250000I700000J0D01*
G01*
X116550000Y-105250000D02*
G75*
G02*
X115850000Y-104550000I0J700000D01*
G01*
X117950000Y-103250000D02*
G75*
G02*
X118650000Y-103950000I1J-699999D01*
G01*
X118650000Y-104550000D02*
G75*
G02*
X117950000Y-105250000I-699999J-1D01*
G01*
%TO.C,R103*%
X137772936Y-122765000D02*
X138227064Y-122765000D01*
X137772936Y-124235000D02*
X138227064Y-124235000D01*
%TO.C,Q1*%
X193740000Y-71690000D02*
X193740000Y-71740000D01*
X193740000Y-72860000D02*
X193740000Y-73640000D01*
X193740000Y-74760000D02*
X193740000Y-74810000D01*
X193740000Y-74810000D02*
X195260000Y-74810000D01*
X195260000Y-71690000D02*
X193740000Y-71690000D01*
X195260000Y-72690000D02*
X195260000Y-71690000D01*
X195260000Y-74810000D02*
X195260000Y-73810000D01*
X193200000Y-73630000D02*
X192960000Y-73300000D01*
X193440000Y-73300000D01*
X193200000Y-73630000D01*
G36*
X193200000Y-73630000D02*
G01*
X192960000Y-73300000D01*
X193440000Y-73300000D01*
X193200000Y-73630000D01*
G37*
%TO.C,R96*%
X94290000Y-97352064D02*
X94290000Y-96897936D01*
X95760000Y-97352064D02*
X95760000Y-96897936D01*
%TO.C,R109*%
X180415000Y-122262742D02*
X180415000Y-122737258D01*
X181460000Y-122262742D02*
X181460000Y-122737258D01*
%TO.C,R111*%
X213177500Y-93287258D02*
X213177500Y-92812742D01*
X214222500Y-93287258D02*
X214222500Y-92812742D01*
%TO.C,Q5*%
X187690000Y-106690000D02*
X187690000Y-108210000D01*
X187690000Y-108210000D02*
X187740000Y-108210000D01*
X188690000Y-106690000D02*
X187690000Y-106690000D01*
X188860000Y-108210000D02*
X189640000Y-108210000D01*
X190760000Y-108210000D02*
X190810000Y-108210000D01*
X190810000Y-106690000D02*
X189810000Y-106690000D01*
X190810000Y-108210000D02*
X190810000Y-106690000D01*
X189630000Y-108750000D02*
X189300000Y-108990000D01*
X189300000Y-108510000D01*
X189630000Y-108750000D01*
G36*
X189630000Y-108750000D02*
G01*
X189300000Y-108990000D01*
X189300000Y-108510000D01*
X189630000Y-108750000D01*
G37*
%TO.C,J3*%
X215480000Y-68005000D02*
X215480000Y-65345000D01*
X218080000Y-65345000D02*
X215480000Y-65345000D01*
X218080000Y-68005000D02*
X215480000Y-68005000D01*
X218080000Y-68005000D02*
X218080000Y-65345000D01*
X220680000Y-65345000D02*
X219350000Y-65345000D01*
X220680000Y-66675000D02*
X220680000Y-65345000D01*
%TO.C,Q17*%
X121790000Y-71690000D02*
X121790000Y-71740000D01*
X121790000Y-72860000D02*
X121790000Y-73640000D01*
X121790000Y-74760000D02*
X121790000Y-74810000D01*
X121790000Y-74810000D02*
X123310000Y-74810000D01*
X123310000Y-71690000D02*
X121790000Y-71690000D01*
X123310000Y-72690000D02*
X123310000Y-71690000D01*
X123310000Y-74810000D02*
X123310000Y-73810000D01*
X121250000Y-73630000D02*
X121010000Y-73300000D01*
X121490000Y-73300000D01*
X121250000Y-73630000D01*
G36*
X121250000Y-73630000D02*
G01*
X121010000Y-73300000D01*
X121490000Y-73300000D01*
X121250000Y-73630000D01*
G37*
%TO.C,JP8*%
X187900000Y-81500000D02*
X187900000Y-82100000D01*
X188600000Y-82800000D02*
X190000000Y-82800000D01*
X190000000Y-80800000D02*
X188600000Y-80800000D01*
X190700000Y-82100000D02*
X190700000Y-81500000D01*
X187900000Y-81500000D02*
G75*
G02*
X188600000Y-80800000I700000J0D01*
G01*
X188600000Y-82800000D02*
G75*
G02*
X187900000Y-82100000I0J700000D01*
G01*
X190000000Y-80800000D02*
G75*
G02*
X190700000Y-81500000I1J-699999D01*
G01*
X190700000Y-82100000D02*
G75*
G02*
X190000000Y-82800000I-699999J-1D01*
G01*
%TO.C,R20*%
X189537258Y-87277500D02*
X189062742Y-87277500D01*
X189537258Y-88322500D02*
X189062742Y-88322500D01*
%TO.C,Q25*%
X89740000Y-71740000D02*
X89740000Y-71790000D01*
X89740000Y-72910000D02*
X89740000Y-73690000D01*
X89740000Y-74810000D02*
X89740000Y-74860000D01*
X89740000Y-74860000D02*
X91260000Y-74860000D01*
X91260000Y-71740000D02*
X89740000Y-71740000D01*
X91260000Y-72740000D02*
X91260000Y-71740000D01*
X91260000Y-74860000D02*
X91260000Y-73860000D01*
X89200000Y-73680000D02*
X88960000Y-73350000D01*
X89440000Y-73350000D01*
X89200000Y-73680000D01*
G36*
X89200000Y-73680000D02*
G01*
X88960000Y-73350000D01*
X89440000Y-73350000D01*
X89200000Y-73680000D01*
G37*
%TO.C,JP18*%
X143600000Y-79650000D02*
X143600000Y-80250000D01*
X144300000Y-80950000D02*
X145700000Y-80950000D01*
X145700000Y-78950000D02*
X144300000Y-78950000D01*
X146400000Y-80250000D02*
X146400000Y-79650000D01*
X143600000Y-79650000D02*
G75*
G02*
X144300000Y-78950000I699999J1D01*
G01*
X144300000Y-80950000D02*
G75*
G02*
X143600000Y-80250000I-1J699999D01*
G01*
X145700000Y-78950000D02*
G75*
G02*
X146400000Y-79650000I0J-700000D01*
G01*
X146400000Y-80250000D02*
G75*
G02*
X145700000Y-80950000I-700000J0D01*
G01*
%TO.C,R90*%
X85477064Y-99165000D02*
X85022936Y-99165000D01*
X85477064Y-100635000D02*
X85022936Y-100635000D01*
%TO.C,R88*%
X89265000Y-112522936D02*
X89265000Y-112977064D01*
X90735000Y-112522936D02*
X90735000Y-112977064D01*
%TO.C,J4*%
X221630000Y-68005000D02*
X221630000Y-65345000D01*
X224230000Y-65345000D02*
X221630000Y-65345000D01*
X224230000Y-68005000D02*
X221630000Y-68005000D01*
X224230000Y-68005000D02*
X224230000Y-65345000D01*
X226830000Y-65345000D02*
X225500000Y-65345000D01*
X226830000Y-66675000D02*
X226830000Y-65345000D01*
%TO.C,C8*%
X225015000Y-108038748D02*
X225015000Y-108561252D01*
X226485000Y-108038748D02*
X226485000Y-108561252D01*
%TO.C,Q23*%
X121790000Y-95690000D02*
X121790000Y-95740000D01*
X121790000Y-96860000D02*
X121790000Y-97640000D01*
X121790000Y-98760000D02*
X121790000Y-98810000D01*
X121790000Y-98810000D02*
X123310000Y-98810000D01*
X123310000Y-95690000D02*
X121790000Y-95690000D01*
X123310000Y-96690000D02*
X123310000Y-95690000D01*
X123310000Y-98810000D02*
X123310000Y-97810000D01*
X121250000Y-97630000D02*
X121010000Y-97300000D01*
X121490000Y-97300000D01*
X121250000Y-97630000D01*
G36*
X121250000Y-97630000D02*
G01*
X121010000Y-97300000D01*
X121490000Y-97300000D01*
X121250000Y-97630000D01*
G37*
%TO.C,JP29*%
X99350000Y-105500000D02*
X99350000Y-106100000D01*
X100050000Y-106800000D02*
X101450000Y-106800000D01*
X101450000Y-104800000D02*
X100050000Y-104800000D01*
X102150000Y-106100000D02*
X102150000Y-105500000D01*
X99350000Y-105500000D02*
G75*
G02*
X100050000Y-104800000I699999J1D01*
G01*
X100050000Y-106800000D02*
G75*
G02*
X99350000Y-106100000I-1J699999D01*
G01*
X101450000Y-104800000D02*
G75*
G02*
X102150000Y-105500000I0J-700000D01*
G01*
X102150000Y-106100000D02*
G75*
G02*
X101450000Y-106800000I-700000J0D01*
G01*
%TO.C,R25*%
X200290000Y-97402064D02*
X200290000Y-96947936D01*
X201760000Y-97402064D02*
X201760000Y-96947936D01*
%TO.C,R8*%
X204512742Y-74977500D02*
X204987258Y-74977500D01*
X204512742Y-76022500D02*
X204987258Y-76022500D01*
%TO.C,JP5*%
X203350000Y-105450000D02*
X203350000Y-106050000D01*
X204050000Y-106750000D02*
X205450000Y-106750000D01*
X205450000Y-104750000D02*
X204050000Y-104750000D01*
X206150000Y-106050000D02*
X206150000Y-105450000D01*
X203350000Y-105450000D02*
G75*
G02*
X204050000Y-104750000I699999J1D01*
G01*
X204050000Y-106750000D02*
G75*
G02*
X203350000Y-106050000I-1J699999D01*
G01*
X205450000Y-104750000D02*
G75*
G02*
X206150000Y-105450000I0J-700000D01*
G01*
X206150000Y-106050000D02*
G75*
G02*
X205450000Y-106750000I-700000J0D01*
G01*
%TO.C,R107*%
X173272936Y-122765000D02*
X173727064Y-122765000D01*
X173272936Y-124235000D02*
X173727064Y-124235000D01*
%TO.C,C12*%
X162940580Y-75290000D02*
X162659420Y-75290000D01*
X162940580Y-76310000D02*
X162659420Y-76310000D01*
%TO.C,R41*%
X157537258Y-109677500D02*
X157062742Y-109677500D01*
X157537258Y-110722500D02*
X157062742Y-110722500D01*
%TO.C,R40*%
X159265000Y-112522936D02*
X159265000Y-112977064D01*
X160735000Y-112522936D02*
X160735000Y-112977064D01*
%TO.C,C20*%
X138490000Y-92859420D02*
X138490000Y-93140580D01*
X139510000Y-92859420D02*
X139510000Y-93140580D01*
%TO.C,R95*%
X86252500Y-97312258D02*
X86252500Y-96837742D01*
X87297500Y-97312258D02*
X87297500Y-96837742D01*
%TO.C,Q13*%
X155740000Y-106690000D02*
X155740000Y-108210000D01*
X155740000Y-108210000D02*
X155790000Y-108210000D01*
X156740000Y-106690000D02*
X155740000Y-106690000D01*
X156910000Y-108210000D02*
X157690000Y-108210000D01*
X158810000Y-108210000D02*
X158860000Y-108210000D01*
X158860000Y-106690000D02*
X157860000Y-106690000D01*
X158860000Y-108210000D02*
X158860000Y-106690000D01*
X157680000Y-108750000D02*
X157350000Y-108990000D01*
X157350000Y-108510000D01*
X157680000Y-108750000D01*
G36*
X157680000Y-108750000D02*
G01*
X157350000Y-108990000D01*
X157350000Y-108510000D01*
X157680000Y-108750000D01*
G37*
%TO.C,JP16*%
X155850000Y-81450000D02*
X155850000Y-82050000D01*
X156550000Y-82750000D02*
X157950000Y-82750000D01*
X157950000Y-80750000D02*
X156550000Y-80750000D01*
X158650000Y-82050000D02*
X158650000Y-81450000D01*
X155850000Y-81450000D02*
G75*
G02*
X156550000Y-80750000I700000J0D01*
G01*
X156550000Y-82750000D02*
G75*
G02*
X155850000Y-82050000I0J700000D01*
G01*
X157950000Y-80750000D02*
G75*
G02*
X158650000Y-81450000I1J-699999D01*
G01*
X158650000Y-82050000D02*
G75*
G02*
X157950000Y-82750000I-699999J-1D01*
G01*
%TO.C,Q19*%
X131140000Y-101690000D02*
X131140000Y-103210000D01*
X131140000Y-103210000D02*
X132140000Y-103210000D01*
X131190000Y-101690000D02*
X131140000Y-101690000D01*
X133090000Y-101690000D02*
X132310000Y-101690000D01*
X133260000Y-103210000D02*
X134260000Y-103210000D01*
X134260000Y-101690000D02*
X134210000Y-101690000D01*
X134260000Y-103210000D02*
X134260000Y-101690000D01*
X132650000Y-101390000D02*
X132320000Y-101150000D01*
X132650000Y-100910000D01*
X132650000Y-101390000D01*
G36*
X132650000Y-101390000D02*
G01*
X132320000Y-101150000D01*
X132650000Y-100910000D01*
X132650000Y-101390000D01*
G37*
%TO.C,R14*%
X201927500Y-112512742D02*
X201927500Y-112987258D01*
X202972500Y-112512742D02*
X202972500Y-112987258D01*
%TO.C,R1*%
X224902500Y-70362258D02*
X224902500Y-69887742D01*
X225947500Y-70362258D02*
X225947500Y-69887742D01*
%TO.C,R85*%
X100522936Y-107365000D02*
X100977064Y-107365000D01*
X100522936Y-108835000D02*
X100977064Y-108835000D01*
%TO.C,R78*%
X87227500Y-73537258D02*
X87227500Y-73062742D01*
X88272500Y-73537258D02*
X88272500Y-73062742D01*
%TO.C,Q9*%
X161790000Y-71690000D02*
X161790000Y-71740000D01*
X161790000Y-72860000D02*
X161790000Y-73640000D01*
X161790000Y-74760000D02*
X161790000Y-74810000D01*
X161790000Y-74810000D02*
X163310000Y-74810000D01*
X163310000Y-71690000D02*
X161790000Y-71690000D01*
X163310000Y-72690000D02*
X163310000Y-71690000D01*
X163310000Y-74810000D02*
X163310000Y-73810000D01*
X161250000Y-73630000D02*
X161010000Y-73300000D01*
X161490000Y-73300000D01*
X161250000Y-73630000D01*
G36*
X161250000Y-73630000D02*
G01*
X161010000Y-73300000D01*
X161490000Y-73300000D01*
X161250000Y-73630000D01*
G37*
%TO.C,JP13*%
X171350000Y-105450000D02*
X171350000Y-106050000D01*
X172050000Y-106750000D02*
X173450000Y-106750000D01*
X173450000Y-104750000D02*
X172050000Y-104750000D01*
X174150000Y-106050000D02*
X174150000Y-105450000D01*
X171350000Y-105450000D02*
G75*
G02*
X172050000Y-104750000I699999J1D01*
G01*
X172050000Y-106750000D02*
G75*
G02*
X171350000Y-106050000I-1J699999D01*
G01*
X173450000Y-104750000D02*
G75*
G02*
X174150000Y-105450000I0J-700000D01*
G01*
X174150000Y-106050000D02*
G75*
G02*
X173450000Y-106750000I-700000J0D01*
G01*
%TO.C,R75*%
X140522936Y-115265000D02*
X140977064Y-115265000D01*
X140522936Y-116735000D02*
X140977064Y-116735000D01*
%TO.C,C17*%
X90940580Y-76890000D02*
X90659420Y-76890000D01*
X90940580Y-77910000D02*
X90659420Y-77910000D01*
%TO.C,R11*%
X204512742Y-99227500D02*
X204987258Y-99227500D01*
X204512742Y-100272500D02*
X204987258Y-100272500D01*
%TO.C,Q2*%
X203190000Y-77740000D02*
X203190000Y-79260000D01*
X203190000Y-79260000D02*
X204190000Y-79260000D01*
X203240000Y-77740000D02*
X203190000Y-77740000D01*
X205140000Y-77740000D02*
X204360000Y-77740000D01*
X205310000Y-79260000D02*
X206310000Y-79260000D01*
X206310000Y-77740000D02*
X206260000Y-77740000D01*
X206310000Y-79260000D02*
X206310000Y-77740000D01*
X204700000Y-77440000D02*
X204370000Y-77200000D01*
X204700000Y-76960000D01*
X204700000Y-77440000D01*
G36*
X204700000Y-77440000D02*
G01*
X204370000Y-77200000D01*
X204700000Y-76960000D01*
X204700000Y-77440000D01*
G37*
%TO.C,R55*%
X129365000Y-73477064D02*
X129365000Y-73022936D01*
X130835000Y-73477064D02*
X130835000Y-73022936D01*
%TO.C,Q29*%
X83690000Y-106690000D02*
X83690000Y-108210000D01*
X83690000Y-108210000D02*
X83740000Y-108210000D01*
X84690000Y-106690000D02*
X83690000Y-106690000D01*
X84860000Y-108210000D02*
X85640000Y-108210000D01*
X86760000Y-108210000D02*
X86810000Y-108210000D01*
X86810000Y-106690000D02*
X85810000Y-106690000D01*
X86810000Y-108210000D02*
X86810000Y-106690000D01*
X85630000Y-108750000D02*
X85300000Y-108990000D01*
X85300000Y-108510000D01*
X85630000Y-108750000D01*
G36*
X85630000Y-108750000D02*
G01*
X85300000Y-108990000D01*
X85300000Y-108510000D01*
X85630000Y-108750000D01*
G37*
%TO.C,R49*%
X168365000Y-97252064D02*
X168365000Y-96797936D01*
X169835000Y-97252064D02*
X169835000Y-96797936D01*
%TO.C,JP28*%
X99350000Y-81450000D02*
X99350000Y-82050000D01*
X100050000Y-82750000D02*
X101450000Y-82750000D01*
X101450000Y-80750000D02*
X100050000Y-80750000D01*
X102150000Y-82050000D02*
X102150000Y-81450000D01*
X99350000Y-81450000D02*
G75*
G02*
X100050000Y-80750000I699999J1D01*
G01*
X100050000Y-82750000D02*
G75*
G02*
X99350000Y-82050000I-1J699999D01*
G01*
X101450000Y-80750000D02*
G75*
G02*
X102150000Y-81450000I0J-700000D01*
G01*
X102150000Y-82050000D02*
G75*
G02*
X101450000Y-82750000I-700000J0D01*
G01*
%TO.C,R43*%
X157527064Y-101165000D02*
X157072936Y-101165000D01*
X157527064Y-102635000D02*
X157072936Y-102635000D01*
%TO.C,Q24*%
X139190000Y-109740000D02*
X139190000Y-111260000D01*
X139190000Y-111260000D02*
X140190000Y-111260000D01*
X139240000Y-109740000D02*
X139190000Y-109740000D01*
X141140000Y-109740000D02*
X140360000Y-109740000D01*
X141310000Y-111260000D02*
X142310000Y-111260000D01*
X142310000Y-109740000D02*
X142260000Y-109740000D01*
X142310000Y-111260000D02*
X142310000Y-109740000D01*
X140700000Y-109440000D02*
X140370000Y-109200000D01*
X140700000Y-108960000D01*
X140700000Y-109440000D01*
G36*
X140700000Y-109440000D02*
G01*
X140370000Y-109200000D01*
X140700000Y-108960000D01*
X140700000Y-109440000D01*
G37*
%TO.C,R57*%
X132522936Y-85265000D02*
X132977064Y-85265000D01*
X132522936Y-86735000D02*
X132977064Y-86735000D01*
%TO.C,JP12*%
X171350000Y-81450000D02*
X171350000Y-82050000D01*
X172050000Y-82750000D02*
X173450000Y-82750000D01*
X173450000Y-80750000D02*
X172050000Y-80750000D01*
X174150000Y-82050000D02*
X174150000Y-81450000D01*
X171350000Y-81450000D02*
G75*
G02*
X172050000Y-80750000I699999J1D01*
G01*
X172050000Y-82750000D02*
G75*
G02*
X171350000Y-82050000I-1J699999D01*
G01*
X173450000Y-80750000D02*
G75*
G02*
X174150000Y-81450000I0J-700000D01*
G01*
X174150000Y-82050000D02*
G75*
G02*
X173450000Y-82750000I-700000J0D01*
G01*
%TO.C,U5*%
X122940000Y-78340000D02*
X122940000Y-78395000D01*
X122940000Y-88405000D02*
X122940000Y-88460000D01*
X122940000Y-88460000D02*
X127060000Y-88460000D01*
X127060000Y-78340000D02*
X122940000Y-78340000D01*
X127060000Y-78395000D02*
X127060000Y-78340000D01*
X127060000Y-88460000D02*
X127060000Y-88405000D01*
X127600000Y-78390000D02*
X127360000Y-78060000D01*
X127840000Y-78060000D01*
X127600000Y-78390000D01*
G36*
X127600000Y-78390000D02*
G01*
X127360000Y-78060000D01*
X127840000Y-78060000D01*
X127600000Y-78390000D01*
G37*
%TO.C,R101*%
X130772936Y-122765000D02*
X131227064Y-122765000D01*
X130772936Y-124235000D02*
X131227064Y-124235000D01*
%TO.C,R108*%
X165772936Y-122765000D02*
X166227064Y-122765000D01*
X165772936Y-124235000D02*
X166227064Y-124235000D01*
%TO.C,R18*%
X189477064Y-99165000D02*
X189022936Y-99165000D01*
X189477064Y-100635000D02*
X189022936Y-100635000D01*
%TO.C,R67*%
X117477064Y-99265000D02*
X117022936Y-99265000D01*
X117477064Y-100735000D02*
X117022936Y-100735000D01*
%TO.C,JP25*%
X124800000Y-96550000D02*
X124800000Y-97950000D01*
X125500000Y-98650000D02*
X126100000Y-98650000D01*
X126100000Y-95850000D02*
X125500000Y-95850000D01*
X126800000Y-97950000D02*
X126800000Y-96550000D01*
X124800000Y-96550000D02*
G75*
G02*
X125500000Y-95850000I700000J0D01*
G01*
X125500000Y-98650000D02*
G75*
G02*
X124800000Y-97950000I-1J699999D01*
G01*
X126100000Y-95850000D02*
G75*
G02*
X126800000Y-96550000I0J-700000D01*
G01*
X126800000Y-97950000D02*
G75*
G02*
X126100000Y-98650000I-699999J-1D01*
G01*
%TO.C,R5*%
X199265000Y-73477064D02*
X199265000Y-73022936D01*
X200735000Y-73477064D02*
X200735000Y-73022936D01*
%TO.C,JP7*%
X187850000Y-103900000D02*
X187850000Y-104500000D01*
X188550000Y-105200000D02*
X189950000Y-105200000D01*
X189950000Y-103200000D02*
X188550000Y-103200000D01*
X190650000Y-104500000D02*
X190650000Y-103900000D01*
X187850000Y-103900000D02*
G75*
G02*
X188550000Y-103200000I700000J0D01*
G01*
X188550000Y-105200000D02*
G75*
G02*
X187850000Y-104500000I0J700000D01*
G01*
X189950000Y-103200000D02*
G75*
G02*
X190650000Y-103900000I1J-699999D01*
G01*
X190650000Y-104500000D02*
G75*
G02*
X189950000Y-105200000I-699999J-1D01*
G01*
%TO.C,JP10*%
X183600000Y-67500000D02*
X183600000Y-68100000D01*
X184300000Y-68800000D02*
X185700000Y-68800000D01*
X185700000Y-66800000D02*
X184300000Y-66800000D01*
X186400000Y-68100000D02*
X186400000Y-67500000D01*
X183600000Y-67500000D02*
G75*
G02*
X184300000Y-66800000I700000J0D01*
G01*
X184300000Y-68800000D02*
G75*
G02*
X183600000Y-68100000I0J700000D01*
G01*
X185700000Y-66800000D02*
G75*
G02*
X186400000Y-67500000I1J-699999D01*
G01*
X186400000Y-68100000D02*
G75*
G02*
X185700000Y-68800000I-699999J-1D01*
G01*
%TO.C,R53*%
X127365000Y-73477064D02*
X127365000Y-73022936D01*
X128835000Y-73477064D02*
X128835000Y-73022936D01*
%TO.C,R4*%
X220737262Y-70477432D02*
X220262746Y-70477432D01*
X220737262Y-71522432D02*
X220262746Y-71522432D01*
%TO.C,C10*%
X194940580Y-75290000D02*
X194659420Y-75290000D01*
X194940580Y-76310000D02*
X194659420Y-76310000D01*
%TO.C,C11*%
X194940580Y-76890000D02*
X194659420Y-76890000D01*
X194940580Y-77910000D02*
X194659420Y-77910000D01*
%TO.C,C4*%
X229711252Y-108515000D02*
X229188748Y-108515000D01*
X229711252Y-109985000D02*
X229188748Y-109985000D01*
%TO.C,R54*%
X119027500Y-73487258D02*
X119027500Y-73012742D01*
X120072500Y-73487258D02*
X120072500Y-73012742D01*
%TO.C,Q27*%
X99190000Y-101790000D02*
X99190000Y-103310000D01*
X99190000Y-103310000D02*
X100190000Y-103310000D01*
X99240000Y-101790000D02*
X99190000Y-101790000D01*
X101140000Y-101790000D02*
X100360000Y-101790000D01*
X101310000Y-103310000D02*
X102310000Y-103310000D01*
X102310000Y-101790000D02*
X102260000Y-101790000D01*
X102310000Y-103310000D02*
X102310000Y-101790000D01*
X100700000Y-101490000D02*
X100370000Y-101250000D01*
X100700000Y-101010000D01*
X100700000Y-101490000D01*
G36*
X100700000Y-101490000D02*
G01*
X100370000Y-101250000D01*
X100700000Y-101010000D01*
X100700000Y-101490000D01*
G37*
%TO.C,R91*%
X85477064Y-101165000D02*
X85022936Y-101165000D01*
X85477064Y-102635000D02*
X85022936Y-102635000D01*
%TO.C,R104*%
X144772936Y-122765000D02*
X145227064Y-122765000D01*
X144772936Y-124235000D02*
X145227064Y-124235000D01*
%TO.C,R77*%
X97365000Y-73527064D02*
X97365000Y-73072936D01*
X98835000Y-73527064D02*
X98835000Y-73072936D01*
D15*
%TO.C,SW2*%
X216700000Y-91150000D02*
X216700000Y-91150000D01*
X216800000Y-91150000D02*
X216800000Y-91150000D01*
D16*
X219900000Y-85900000D02*
X219900000Y-91900000D01*
X219900000Y-91900000D02*
X225900000Y-91900000D01*
X225900000Y-85900000D02*
X219900000Y-85900000D01*
X225900000Y-91900000D02*
X225900000Y-85900000D01*
D15*
X216700000Y-91150000D02*
G75*
G02*
X216800000Y-91150000I50000J0D01*
G01*
X216800000Y-91150000D02*
G75*
G02*
X216700000Y-91150000I-50000J0D01*
G01*
D13*
%TO.C,R50*%
X144762742Y-73377500D02*
X145237258Y-73377500D01*
X144762742Y-74422500D02*
X145237258Y-74422500D01*
%TO.C,R62*%
X129727500Y-112512742D02*
X129727500Y-112987258D01*
X130772500Y-112512742D02*
X130772500Y-112987258D01*
%TO.C,Q3*%
X203190000Y-101740000D02*
X203190000Y-103260000D01*
X203190000Y-103260000D02*
X204190000Y-103260000D01*
X203240000Y-101740000D02*
X203190000Y-101740000D01*
X205140000Y-101740000D02*
X204360000Y-101740000D01*
X205310000Y-103260000D02*
X206310000Y-103260000D01*
X206310000Y-101740000D02*
X206260000Y-101740000D01*
X206310000Y-103260000D02*
X206310000Y-101740000D01*
X204700000Y-101440000D02*
X204370000Y-101200000D01*
X204700000Y-100960000D01*
X204700000Y-101440000D01*
G36*
X204700000Y-101440000D02*
G01*
X204370000Y-101200000D01*
X204700000Y-100960000D01*
X204700000Y-101440000D01*
G37*
%TO.C,R37*%
X172522936Y-107265000D02*
X172977064Y-107265000D01*
X172522936Y-108735000D02*
X172977064Y-108735000D01*
%TO.C,Q16*%
X143440000Y-75890000D02*
X143440000Y-77410000D01*
X143440000Y-77410000D02*
X144440000Y-77410000D01*
X143490000Y-75890000D02*
X143440000Y-75890000D01*
X145390000Y-75890000D02*
X144610000Y-75890000D01*
X145560000Y-77410000D02*
X146560000Y-77410000D01*
X146560000Y-75890000D02*
X146510000Y-75890000D01*
X146560000Y-77410000D02*
X146560000Y-75890000D01*
X144950000Y-75590000D02*
X144620000Y-75350000D01*
X144950000Y-75110000D01*
X144950000Y-75590000D01*
G36*
X144950000Y-75590000D02*
G01*
X144620000Y-75350000D01*
X144950000Y-75110000D01*
X144950000Y-75590000D01*
G37*
%TO.C,R102*%
X123772936Y-122765000D02*
X124227064Y-122765000D01*
X123772936Y-124235000D02*
X124227064Y-124235000D01*
%TO.C,R79*%
X95315000Y-73527064D02*
X95315000Y-73072936D01*
X96785000Y-73527064D02*
X96785000Y-73072936D01*
%TO.C,Q7*%
X192765000Y-95615000D02*
X192765000Y-95665000D01*
X192765000Y-96785000D02*
X192765000Y-97565000D01*
X192765000Y-98685000D02*
X192765000Y-98735000D01*
X192765000Y-98735000D02*
X194285000Y-98735000D01*
X194285000Y-95615000D02*
X192765000Y-95615000D01*
X194285000Y-96615000D02*
X194285000Y-95615000D01*
X194285000Y-98735000D02*
X194285000Y-97735000D01*
X192225000Y-97555000D02*
X191985000Y-97225000D01*
X192465000Y-97225000D01*
X192225000Y-97555000D01*
G36*
X192225000Y-97555000D02*
G01*
X191985000Y-97225000D01*
X192465000Y-97225000D01*
X192225000Y-97555000D01*
G37*
%TO.C,JP4*%
X203350000Y-81450000D02*
X203350000Y-82050000D01*
X204050000Y-82750000D02*
X205450000Y-82750000D01*
X205450000Y-80750000D02*
X204050000Y-80750000D01*
X206150000Y-82050000D02*
X206150000Y-81450000D01*
X203350000Y-81450000D02*
G75*
G02*
X204050000Y-80750000I699999J1D01*
G01*
X204050000Y-82750000D02*
G75*
G02*
X203350000Y-82050000I-1J699999D01*
G01*
X205450000Y-80750000D02*
G75*
G02*
X206150000Y-81450000I0J-700000D01*
G01*
X206150000Y-82050000D02*
G75*
G02*
X205450000Y-82750000I-700000J0D01*
G01*
%TO.C,Q6*%
X187740000Y-84290000D02*
X187740000Y-85810000D01*
X187740000Y-85810000D02*
X187790000Y-85810000D01*
X188740000Y-84290000D02*
X187740000Y-84290000D01*
X188910000Y-85810000D02*
X189690000Y-85810000D01*
X190810000Y-85810000D02*
X190860000Y-85810000D01*
X190860000Y-84290000D02*
X189860000Y-84290000D01*
X190860000Y-85810000D02*
X190860000Y-84290000D01*
X189680000Y-86350000D02*
X189350000Y-86590000D01*
X189350000Y-86110000D01*
X189680000Y-86350000D01*
G36*
X189680000Y-86350000D02*
G01*
X189350000Y-86590000D01*
X189350000Y-86110000D01*
X189680000Y-86350000D01*
G37*
%TO.C,R110*%
X182415000Y-122737258D02*
X182415000Y-122262742D01*
X183460000Y-122737258D02*
X183460000Y-122262742D01*
%TO.C,R31*%
X167365000Y-73477064D02*
X167365000Y-73022936D01*
X168835000Y-73477064D02*
X168835000Y-73022936D01*
%TO.C,R70*%
X117477064Y-76865000D02*
X117022936Y-76865000D01*
X117477064Y-78335000D02*
X117022936Y-78335000D01*
%TO.C,Q20*%
X126740000Y-111190000D02*
X126740000Y-112190000D01*
X126740000Y-113310000D02*
X126740000Y-114310000D01*
X126740000Y-114310000D02*
X128260000Y-114310000D01*
X128260000Y-111190000D02*
X126740000Y-111190000D01*
X128260000Y-111240000D02*
X128260000Y-111190000D01*
X128260000Y-113140000D02*
X128260000Y-112360000D01*
X128260000Y-114310000D02*
X128260000Y-114260000D01*
X129040000Y-112700000D02*
X128560000Y-112700000D01*
X128800000Y-112370000D01*
X129040000Y-112700000D01*
G36*
X129040000Y-112700000D02*
G01*
X128560000Y-112700000D01*
X128800000Y-112370000D01*
X129040000Y-112700000D01*
G37*
%TO.C,R2*%
X214727500Y-93287258D02*
X214727500Y-92812742D01*
X215772500Y-93287258D02*
X215772500Y-92812742D01*
%TO.C,R21*%
X189527064Y-76715000D02*
X189072936Y-76715000D01*
X189527064Y-78185000D02*
X189072936Y-78185000D01*
%TO.C,JP11*%
X164800000Y-72550000D02*
X164800000Y-73950000D01*
X165500000Y-74650000D02*
X166100000Y-74650000D01*
X166100000Y-71850000D02*
X165500000Y-71850000D01*
X166800000Y-73950000D02*
X166800000Y-72550000D01*
X164800000Y-72550000D02*
G75*
G02*
X165500000Y-71850000I700000J0D01*
G01*
X165500000Y-74650000D02*
G75*
G02*
X164800000Y-73950000I-1J699999D01*
G01*
X166100000Y-71850000D02*
G75*
G02*
X166800000Y-72550000I0J-700000D01*
G01*
X166800000Y-73950000D02*
G75*
G02*
X166100000Y-74650000I-699999J-1D01*
G01*
%TO.C,JP22*%
X123250000Y-112050000D02*
X123250000Y-113450000D01*
X123950000Y-114150000D02*
X124550000Y-114150000D01*
X124550000Y-111350000D02*
X123950000Y-111350000D01*
X125250000Y-113450000D02*
X125250000Y-112050000D01*
X123250000Y-112050000D02*
G75*
G02*
X123950000Y-111350000I699999J1D01*
G01*
X123950000Y-114150000D02*
G75*
G02*
X123250000Y-113450000I0J700000D01*
G01*
X124550000Y-111350000D02*
G75*
G02*
X125250000Y-112050000I1J-699999D01*
G01*
X125250000Y-113450000D02*
G75*
G02*
X124550000Y-114150000I-700000J0D01*
G01*
%TO.C,Q12*%
X166690000Y-111190000D02*
X166690000Y-112190000D01*
X166690000Y-113310000D02*
X166690000Y-114310000D01*
X166690000Y-114310000D02*
X168210000Y-114310000D01*
X168210000Y-111190000D02*
X166690000Y-111190000D01*
X168210000Y-111240000D02*
X168210000Y-111190000D01*
X168210000Y-113140000D02*
X168210000Y-112360000D01*
X168210000Y-114310000D02*
X168210000Y-114260000D01*
X168990000Y-112700000D02*
X168510000Y-112700000D01*
X168750000Y-112370000D01*
X168990000Y-112700000D01*
G36*
X168990000Y-112700000D02*
G01*
X168510000Y-112700000D01*
X168750000Y-112370000D01*
X168990000Y-112700000D01*
G37*
%TO.C,R46*%
X157477064Y-78765000D02*
X157022936Y-78765000D01*
X157477064Y-80235000D02*
X157022936Y-80235000D01*
%TO.C,C21*%
X106490000Y-92859420D02*
X106490000Y-93140580D01*
X107510000Y-92859420D02*
X107510000Y-93140580D01*
%TO.C,R9*%
X204522936Y-83265000D02*
X204977064Y-83265000D01*
X204522936Y-84735000D02*
X204977064Y-84735000D01*
%TO.C,R65*%
X117487258Y-109727500D02*
X117012742Y-109727500D01*
X117487258Y-110772500D02*
X117012742Y-110772500D01*
%TO.C,R32*%
X172512742Y-75227500D02*
X172987258Y-75227500D01*
X172512742Y-76272500D02*
X172987258Y-76272500D01*
%TO.C,R72*%
X127365000Y-97477064D02*
X127365000Y-97022936D01*
X128835000Y-97477064D02*
X128835000Y-97022936D01*
%TO.C,Q15*%
X160790000Y-95465000D02*
X160790000Y-95515000D01*
X160790000Y-96635000D02*
X160790000Y-97415000D01*
X160790000Y-98535000D02*
X160790000Y-98585000D01*
X160790000Y-98585000D02*
X162310000Y-98585000D01*
X162310000Y-95465000D02*
X160790000Y-95465000D01*
X162310000Y-96465000D02*
X162310000Y-95465000D01*
X162310000Y-98585000D02*
X162310000Y-97585000D01*
X160250000Y-97405000D02*
X160010000Y-97075000D01*
X160490000Y-97075000D01*
X160250000Y-97405000D01*
G36*
X160250000Y-97405000D02*
G01*
X160010000Y-97075000D01*
X160490000Y-97075000D01*
X160250000Y-97405000D01*
G37*
%TO.C,R47*%
X158277500Y-97212258D02*
X158277500Y-96737742D01*
X159322500Y-97212258D02*
X159322500Y-96737742D01*
%TO.C,R42*%
X157527064Y-99115000D02*
X157072936Y-99115000D01*
X157527064Y-100585000D02*
X157072936Y-100585000D01*
%TO.C,Q33*%
X177177500Y-120940000D02*
X177177500Y-121940000D01*
X177177500Y-123060000D02*
X177177500Y-124060000D01*
X177177500Y-124060000D02*
X178697500Y-124060000D01*
X178697500Y-120940000D02*
X177177500Y-120940000D01*
X178697500Y-120990000D02*
X178697500Y-120940000D01*
X178697500Y-122890000D02*
X178697500Y-122110000D01*
X178697500Y-124060000D02*
X178697500Y-124010000D01*
X179477500Y-122450000D02*
X178997500Y-122450000D01*
X179237500Y-122120000D01*
X179477500Y-122450000D01*
G36*
X179477500Y-122450000D02*
G01*
X178997500Y-122450000D01*
X179237500Y-122120000D01*
X179477500Y-122450000D01*
G37*
%TO.C,JP21*%
X131300000Y-105400000D02*
X131300000Y-106000000D01*
X132000000Y-106700000D02*
X133400000Y-106700000D01*
X133400000Y-104700000D02*
X132000000Y-104700000D01*
X134100000Y-106000000D02*
X134100000Y-105400000D01*
X131300000Y-105400000D02*
G75*
G02*
X132000000Y-104700000I699999J1D01*
G01*
X132000000Y-106700000D02*
G75*
G02*
X131300000Y-106000000I-1J699999D01*
G01*
X133400000Y-104700000D02*
G75*
G02*
X134100000Y-105400000I0J-700000D01*
G01*
X134100000Y-106000000D02*
G75*
G02*
X133400000Y-106700000I-700000J0D01*
G01*
%TO.C,Q14*%
X155690000Y-84240000D02*
X155690000Y-85760000D01*
X155690000Y-85760000D02*
X155740000Y-85760000D01*
X156690000Y-84240000D02*
X155690000Y-84240000D01*
X156860000Y-85760000D02*
X157640000Y-85760000D01*
X158760000Y-85760000D02*
X158810000Y-85760000D01*
X158810000Y-84240000D02*
X157810000Y-84240000D01*
X158810000Y-85760000D02*
X158810000Y-84240000D01*
X157630000Y-86300000D02*
X157300000Y-86540000D01*
X157300000Y-86060000D01*
X157630000Y-86300000D01*
G36*
X157630000Y-86300000D02*
G01*
X157300000Y-86540000D01*
X157300000Y-86060000D01*
X157630000Y-86300000D01*
G37*
%TO.C,R94*%
X85477064Y-78815000D02*
X85022936Y-78815000D01*
X85477064Y-80285000D02*
X85022936Y-80285000D01*
%TO.C,R82*%
X100522936Y-85265000D02*
X100977064Y-85265000D01*
X100522936Y-86735000D02*
X100977064Y-86735000D01*
%TO.C,Q18*%
X131190000Y-77740000D02*
X131190000Y-79260000D01*
X131190000Y-79260000D02*
X132190000Y-79260000D01*
X131240000Y-77740000D02*
X131190000Y-77740000D01*
X133140000Y-77740000D02*
X132360000Y-77740000D01*
X133310000Y-79260000D02*
X134310000Y-79260000D01*
X134310000Y-77740000D02*
X134260000Y-77740000D01*
X134310000Y-79260000D02*
X134310000Y-77740000D01*
X132700000Y-77440000D02*
X132370000Y-77200000D01*
X132700000Y-76960000D01*
X132700000Y-77440000D01*
G36*
X132700000Y-77440000D02*
G01*
X132370000Y-77200000D01*
X132700000Y-76960000D01*
X132700000Y-77440000D01*
G37*
%TO.C,R23*%
X190002500Y-97412258D02*
X190002500Y-96937742D01*
X191047500Y-97412258D02*
X191047500Y-96937742D01*
%TO.C,C6*%
X229139014Y-102832291D02*
X229420174Y-102832291D01*
X229139014Y-103852291D02*
X229420174Y-103852291D01*
%TO.C,R83*%
X100562742Y-99277500D02*
X101037258Y-99277500D01*
X100562742Y-100322500D02*
X101037258Y-100322500D01*
%TO.C,JP15*%
X155900000Y-103900000D02*
X155900000Y-104500000D01*
X156600000Y-105200000D02*
X158000000Y-105200000D01*
X158000000Y-103200000D02*
X156600000Y-103200000D01*
X158700000Y-104500000D02*
X158700000Y-103900000D01*
X155900000Y-103900000D02*
G75*
G02*
X156600000Y-103200000I700000J0D01*
G01*
X156600000Y-105200000D02*
G75*
G02*
X155900000Y-104500000I0J700000D01*
G01*
X158000000Y-103200000D02*
G75*
G02*
X158700000Y-103900000I1J-699999D01*
G01*
X158700000Y-104500000D02*
G75*
G02*
X158000000Y-105200000I-699999J-1D01*
G01*
%TO.C,R84*%
X100522936Y-109365000D02*
X100977064Y-109365000D01*
X100522936Y-110835000D02*
X100977064Y-110835000D01*
%TO.C,R7*%
X201265000Y-73477064D02*
X201265000Y-73022936D01*
X202735000Y-73477064D02*
X202735000Y-73022936D01*
%TO.C,U2*%
X214090000Y-104040000D02*
X214090000Y-104340000D01*
X214090000Y-110960000D02*
X214090000Y-111260000D01*
X214090000Y-111260000D02*
X214390000Y-111260000D01*
X214390000Y-104040000D02*
X214090000Y-104040000D01*
X221010000Y-111260000D02*
X221310000Y-111260000D01*
X221310000Y-104040000D02*
X221010000Y-104040000D01*
X221310000Y-104340000D02*
X221310000Y-104040000D01*
X221310000Y-111260000D02*
X221310000Y-110960000D01*
X221950000Y-104330000D02*
X221610000Y-103860000D01*
X222290000Y-103860000D01*
X221950000Y-104330000D01*
G36*
X221950000Y-104330000D02*
G01*
X221610000Y-103860000D01*
X222290000Y-103860000D01*
X221950000Y-104330000D01*
G37*
%TO.C,R3*%
X225987258Y-110277500D02*
X225512742Y-110277500D01*
X225987258Y-111322500D02*
X225512742Y-111322500D01*
%TO.C,Q30*%
X83690000Y-84290000D02*
X83690000Y-85810000D01*
X83690000Y-85810000D02*
X83740000Y-85810000D01*
X84690000Y-84290000D02*
X83690000Y-84290000D01*
X84860000Y-85810000D02*
X85640000Y-85810000D01*
X86760000Y-85810000D02*
X86810000Y-85810000D01*
X86810000Y-84290000D02*
X85810000Y-84290000D01*
X86810000Y-85810000D02*
X86810000Y-84290000D01*
X85630000Y-86350000D02*
X85300000Y-86590000D01*
X85300000Y-86110000D01*
X85630000Y-86350000D01*
G36*
X85630000Y-86350000D02*
G01*
X85300000Y-86590000D01*
X85300000Y-86110000D01*
X85630000Y-86350000D01*
G37*
%TO.C,R36*%
X172522936Y-109265000D02*
X172977064Y-109265000D01*
X172522936Y-110735000D02*
X172977064Y-110735000D01*
%TO.C,R10*%
X204522936Y-85265000D02*
X204977064Y-85265000D01*
X204522936Y-86735000D02*
X204977064Y-86735000D01*
%TO.C,R68*%
X117487258Y-87577500D02*
X117012742Y-87577500D01*
X117487258Y-88622500D02*
X117012742Y-88622500D01*
%TO.C,R45*%
X157477064Y-76765000D02*
X157022936Y-76765000D01*
X157477064Y-78235000D02*
X157022936Y-78235000D01*
%TO.C,R26*%
X185237258Y-72777500D02*
X184762742Y-72777500D01*
X185237258Y-73822500D02*
X184762742Y-73822500D01*
%TD*%
%LPC*%
%TO.C,JP6*%
G36*
X195450000Y-112600000D02*
G01*
X196950000Y-112600000D01*
X196950000Y-112900000D01*
X195450000Y-112900000D01*
X195450000Y-112600000D01*
G37*
%TO.C,JP27*%
G36*
X94500000Y-73450000D02*
G01*
X93000000Y-73450000D01*
X93000000Y-73150000D01*
X94500000Y-73150000D01*
X94500000Y-73450000D01*
G37*
%TO.C,JP20*%
G36*
X132600000Y-82500000D02*
G01*
X132900000Y-82500000D01*
X132900000Y-81000000D01*
X132600000Y-81000000D01*
X132600000Y-82500000D01*
G37*
%TO.C,JP32*%
G36*
X85400000Y-81050000D02*
G01*
X85100000Y-81050000D01*
X85100000Y-82550000D01*
X85400000Y-82550000D01*
X85400000Y-81050000D01*
G37*
%TO.C,JP9*%
G36*
X197525000Y-97325000D02*
G01*
X196025000Y-97325000D01*
X196025000Y-97025000D01*
X197525000Y-97025000D01*
X197525000Y-97325000D01*
G37*
%TO.C,JP14*%
G36*
X163500000Y-112600000D02*
G01*
X165000000Y-112600000D01*
X165000000Y-112900000D01*
X163500000Y-112900000D01*
X163500000Y-112600000D01*
G37*
%TO.C,JP3*%
G36*
X198500000Y-73400000D02*
G01*
X197000000Y-73400000D01*
X197000000Y-73100000D01*
X198500000Y-73100000D01*
X198500000Y-73400000D01*
G37*
%TO.C,JP26*%
G36*
X140600000Y-114500000D02*
G01*
X140900000Y-114500000D01*
X140900000Y-113000000D01*
X140600000Y-113000000D01*
X140600000Y-114500000D01*
G37*
%TO.C,JP33*%
G36*
X93475000Y-97275000D02*
G01*
X91975000Y-97275000D01*
X91975000Y-96975000D01*
X93475000Y-96975000D01*
X93475000Y-97275000D01*
G37*
%TO.C,JP17*%
G36*
X165550000Y-97175000D02*
G01*
X164050000Y-97175000D01*
X164050000Y-96875000D01*
X165550000Y-96875000D01*
X165550000Y-97175000D01*
G37*
%TO.C,JP24*%
G36*
X117400000Y-81100000D02*
G01*
X117100000Y-81100000D01*
X117100000Y-82600000D01*
X117400000Y-82600000D01*
X117400000Y-81100000D01*
G37*
%TO.C,JP19*%
G36*
X126550000Y-73400000D02*
G01*
X125050000Y-73400000D01*
X125050000Y-73100000D01*
X126550000Y-73100000D01*
X126550000Y-73400000D01*
G37*
%TO.C,JP30*%
G36*
X91500000Y-112600000D02*
G01*
X93000000Y-112600000D01*
X93000000Y-112900000D01*
X91500000Y-112900000D01*
X91500000Y-112600000D01*
G37*
%TO.C,JP31*%
G36*
X85400000Y-103450000D02*
G01*
X85100000Y-103450000D01*
X85100000Y-104950000D01*
X85400000Y-104950000D01*
X85400000Y-103450000D01*
G37*
%TO.C,JP23*%
G36*
X117400000Y-103500000D02*
G01*
X117100000Y-103500000D01*
X117100000Y-105000000D01*
X117400000Y-105000000D01*
X117400000Y-103500000D01*
G37*
%TO.C,JP8*%
G36*
X189450000Y-81050000D02*
G01*
X189150000Y-81050000D01*
X189150000Y-82550000D01*
X189450000Y-82550000D01*
X189450000Y-81050000D01*
G37*
%TO.C,JP18*%
G36*
X144850000Y-80700000D02*
G01*
X145150000Y-80700000D01*
X145150000Y-79200000D01*
X144850000Y-79200000D01*
X144850000Y-80700000D01*
G37*
%TO.C,JP29*%
G36*
X100600000Y-106550000D02*
G01*
X100900000Y-106550000D01*
X100900000Y-105050000D01*
X100600000Y-105050000D01*
X100600000Y-106550000D01*
G37*
%TO.C,JP5*%
G36*
X204600000Y-106500000D02*
G01*
X204900000Y-106500000D01*
X204900000Y-105000000D01*
X204600000Y-105000000D01*
X204600000Y-106500000D01*
G37*
%TO.C,JP16*%
G36*
X157400000Y-81000000D02*
G01*
X157100000Y-81000000D01*
X157100000Y-82500000D01*
X157400000Y-82500000D01*
X157400000Y-81000000D01*
G37*
%TO.C,JP13*%
G36*
X172600000Y-106500000D02*
G01*
X172900000Y-106500000D01*
X172900000Y-105000000D01*
X172600000Y-105000000D01*
X172600000Y-106500000D01*
G37*
%TO.C,JP28*%
G36*
X100600000Y-82500000D02*
G01*
X100900000Y-82500000D01*
X100900000Y-81000000D01*
X100600000Y-81000000D01*
X100600000Y-82500000D01*
G37*
%TO.C,JP12*%
G36*
X172600000Y-82500000D02*
G01*
X172900000Y-82500000D01*
X172900000Y-81000000D01*
X172600000Y-81000000D01*
X172600000Y-82500000D01*
G37*
%TO.C,JP25*%
G36*
X126550000Y-97400000D02*
G01*
X125050000Y-97400000D01*
X125050000Y-97100000D01*
X126550000Y-97100000D01*
X126550000Y-97400000D01*
G37*
%TO.C,JP7*%
G36*
X189400000Y-103450000D02*
G01*
X189100000Y-103450000D01*
X189100000Y-104950000D01*
X189400000Y-104950000D01*
X189400000Y-103450000D01*
G37*
%TO.C,JP10*%
G36*
X185150000Y-67050000D02*
G01*
X184850000Y-67050000D01*
X184850000Y-68550000D01*
X185150000Y-68550000D01*
X185150000Y-67050000D01*
G37*
%TO.C,JP4*%
G36*
X204600000Y-82500000D02*
G01*
X204900000Y-82500000D01*
X204900000Y-81000000D01*
X204600000Y-81000000D01*
X204600000Y-82500000D01*
G37*
%TO.C,JP11*%
G36*
X166550000Y-73400000D02*
G01*
X165050000Y-73400000D01*
X165050000Y-73100000D01*
X166550000Y-73100000D01*
X166550000Y-73400000D01*
G37*
%TO.C,JP22*%
G36*
X123500000Y-112600000D02*
G01*
X125000000Y-112600000D01*
X125000000Y-112900000D01*
X123500000Y-112900000D01*
X123500000Y-112600000D01*
G37*
%TO.C,JP21*%
G36*
X132550000Y-106450000D02*
G01*
X132850000Y-106450000D01*
X132850000Y-104950000D01*
X132550000Y-104950000D01*
X132550000Y-106450000D01*
G37*
%TO.C,JP15*%
G36*
X157450000Y-103450000D02*
G01*
X157150000Y-103450000D01*
X157150000Y-104950000D01*
X157450000Y-104950000D01*
X157450000Y-103450000D01*
G37*
%TD*%
D17*
%TO.C,J5*%
X232900004Y-113979932D03*
D18*
X232900004Y-111439932D03*
X232900004Y-108899932D03*
X232900004Y-106359932D03*
X232900004Y-103819932D03*
%TD*%
D19*
%TO.C,Y1*%
X225929590Y-103367291D03*
X225929590Y-105267291D03*
%TD*%
D20*
%TO.C,D5*%
X207730000Y-77000000D03*
D21*
X210270000Y-77000000D03*
%TD*%
D20*
%TO.C,D47*%
X121000000Y-94270000D03*
D21*
X121000000Y-91730000D03*
%TD*%
D20*
%TO.C,D44*%
X114270000Y-101000000D03*
D21*
X111730000Y-101000000D03*
%TD*%
D20*
%TO.C,D28*%
X154270000Y-109000000D03*
D21*
X151730000Y-109000000D03*
%TD*%
D20*
%TO.C,D23*%
X175730000Y-109000000D03*
D21*
X178270000Y-109000000D03*
%TD*%
D20*
%TO.C,D30*%
X154270000Y-85000000D03*
D21*
X151730000Y-85000000D03*
%TD*%
D20*
%TO.C,D17*%
X182270000Y-69000000D03*
D21*
X179730000Y-69000000D03*
%TD*%
D20*
%TO.C,D42*%
X129000000Y-115730000D03*
D21*
X129000000Y-118270000D03*
%TD*%
D22*
%TO.C,D68*%
X135500000Y-123500000D03*
D23*
X133500000Y-123500000D03*
%TD*%
D20*
%TO.C,D20*%
X161000000Y-70270000D03*
D21*
X161000000Y-67730000D03*
%TD*%
D20*
%TO.C,D49*%
X143730000Y-109000000D03*
D21*
X146270000Y-109000000D03*
%TD*%
D22*
%TO.C,D67*%
X128500000Y-123500000D03*
D23*
X126500000Y-123500000D03*
%TD*%
D20*
%TO.C,D54*%
X103730000Y-85000000D03*
D21*
X106270000Y-85000000D03*
%TD*%
D20*
%TO.C,D11*%
X186270000Y-101000000D03*
D21*
X183730000Y-101000000D03*
%TD*%
D20*
%TO.C,D16*%
X201000000Y-94270000D03*
D21*
X201000000Y-91730000D03*
%TD*%
D20*
%TO.C,D63*%
X89000000Y-94270000D03*
D21*
X89000000Y-91730000D03*
%TD*%
D20*
%TO.C,D27*%
X154270000Y-101000000D03*
D21*
X151730000Y-101000000D03*
%TD*%
D20*
%TO.C,D46*%
X114270000Y-77000000D03*
D21*
X111730000Y-77000000D03*
%TD*%
D20*
%TO.C,D12*%
X186270000Y-109000000D03*
D21*
X183730000Y-109000000D03*
%TD*%
D20*
%TO.C,D33*%
X146270000Y-99000000D03*
D21*
X143730000Y-99000000D03*
%TD*%
D20*
%TO.C,D8*%
X207730000Y-109000000D03*
D21*
X210270000Y-109000000D03*
%TD*%
D20*
%TO.C,D39*%
X135730000Y-109000000D03*
D21*
X138270000Y-109000000D03*
%TD*%
D20*
%TO.C,D45*%
X114270000Y-85000000D03*
D21*
X111730000Y-85000000D03*
%TD*%
D20*
%TO.C,D55*%
X103730000Y-109000000D03*
D21*
X106270000Y-109000000D03*
%TD*%
D20*
%TO.C,D25*%
X169000000Y-115730000D03*
D21*
X169000000Y-118270000D03*
%TD*%
D20*
%TO.C,D52*%
X89000000Y-70270000D03*
D21*
X89000000Y-67730000D03*
%TD*%
D20*
%TO.C,D59*%
X82270000Y-101000000D03*
D21*
X79730000Y-101000000D03*
%TD*%
D22*
%TO.C,D72*%
X170500000Y-123500000D03*
D23*
X168500000Y-123500000D03*
%TD*%
D20*
%TO.C,D34*%
X146270000Y-87000000D03*
D21*
X143730000Y-87000000D03*
%TD*%
D20*
%TO.C,D22*%
X175730000Y-85000000D03*
D21*
X178270000Y-85000000D03*
%TD*%
D20*
%TO.C,D38*%
X135730000Y-77000000D03*
D21*
X138270000Y-77000000D03*
%TD*%
D20*
%TO.C,D15*%
X193000000Y-94270000D03*
D21*
X193000000Y-91730000D03*
%TD*%
D20*
%TO.C,D43*%
X114270000Y-109000000D03*
D21*
X111730000Y-109000000D03*
%TD*%
D20*
%TO.C,D4*%
X201000000Y-70270000D03*
D21*
X201000000Y-67730000D03*
%TD*%
D20*
%TO.C,D36*%
X129000000Y-70270000D03*
D21*
X129000000Y-67730000D03*
%TD*%
D20*
%TO.C,D21*%
X175730000Y-77000000D03*
D21*
X178270000Y-77000000D03*
%TD*%
D20*
%TO.C,D53*%
X103730000Y-77000000D03*
D21*
X106270000Y-77000000D03*
%TD*%
D20*
%TO.C,D31*%
X161000000Y-94270000D03*
D21*
X161000000Y-91730000D03*
%TD*%
D20*
%TO.C,D40*%
X135730000Y-101000000D03*
D21*
X138270000Y-101000000D03*
%TD*%
D20*
%TO.C,D13*%
X186270000Y-77000000D03*
D21*
X183730000Y-77000000D03*
%TD*%
D22*
%TO.C,D71*%
X156500000Y-123500000D03*
D23*
X154500000Y-123500000D03*
%TD*%
D20*
%TO.C,D41*%
X121000000Y-115730000D03*
D21*
X121000000Y-118270000D03*
%TD*%
D20*
%TO.C,D6*%
X207730000Y-85000000D03*
D21*
X210270000Y-85000000D03*
%TD*%
D20*
%TO.C,D61*%
X82270000Y-77000000D03*
D21*
X79730000Y-77000000D03*
%TD*%
D22*
%TO.C,D2*%
X121500000Y-123500000D03*
D23*
X119500000Y-123500000D03*
%TD*%
D20*
%TO.C,D56*%
X103730000Y-101000000D03*
D21*
X106270000Y-101000000D03*
%TD*%
D20*
%TO.C,D35*%
X121000000Y-70270000D03*
D21*
X121000000Y-67730000D03*
%TD*%
D20*
%TO.C,D3*%
X193000000Y-70270000D03*
D21*
X193000000Y-67730000D03*
%TD*%
D20*
%TO.C,D37*%
X135730000Y-85000000D03*
D21*
X138270000Y-85000000D03*
%TD*%
D20*
%TO.C,D48*%
X129000000Y-94270000D03*
D21*
X129000000Y-91730000D03*
%TD*%
D20*
%TO.C,D10*%
X201000000Y-115730000D03*
D21*
X201000000Y-118270000D03*
%TD*%
D22*
%TO.C,D69*%
X142500000Y-123500000D03*
D23*
X140500000Y-123500000D03*
%TD*%
D20*
%TO.C,D29*%
X154270000Y-77000000D03*
D21*
X151730000Y-77000000D03*
%TD*%
D20*
%TO.C,D58*%
X97000000Y-115730000D03*
D21*
X97000000Y-118270000D03*
%TD*%
D20*
%TO.C,D60*%
X82270000Y-109000000D03*
D21*
X79730000Y-109000000D03*
%TD*%
D20*
%TO.C,D19*%
X169000000Y-70270000D03*
D21*
X169000000Y-67730000D03*
%TD*%
D20*
%TO.C,D14*%
X186270000Y-85000000D03*
D21*
X183730000Y-85000000D03*
%TD*%
D20*
%TO.C,D7*%
X207730000Y-101000000D03*
D21*
X210270000Y-101000000D03*
%TD*%
D20*
%TO.C,D24*%
X175730000Y-101000000D03*
D21*
X178270000Y-101000000D03*
%TD*%
D20*
%TO.C,D51*%
X97000000Y-70270000D03*
D21*
X97000000Y-67730000D03*
%TD*%
D20*
%TO.C,D9*%
X193000000Y-115730000D03*
D21*
X193000000Y-118270000D03*
%TD*%
D20*
%TO.C,D57*%
X89000000Y-115730000D03*
D21*
X89000000Y-118270000D03*
%TD*%
D22*
%TO.C,D70*%
X149500000Y-123500000D03*
D23*
X147500000Y-123500000D03*
%TD*%
D20*
%TO.C,D50*%
X143730000Y-117000000D03*
D21*
X146270000Y-117000000D03*
%TD*%
D20*
%TO.C,D26*%
X161000000Y-115730000D03*
D21*
X161000000Y-118270000D03*
%TD*%
D22*
%TO.C,D73*%
X163500000Y-123500000D03*
D23*
X161500000Y-123500000D03*
%TD*%
D20*
%TO.C,D64*%
X97000000Y-94270000D03*
D21*
X97000000Y-91730000D03*
%TD*%
D20*
%TO.C,D32*%
X169000000Y-94270000D03*
D21*
X169000000Y-91730000D03*
%TD*%
D20*
%TO.C,D62*%
X82270000Y-85000000D03*
D21*
X79730000Y-85000000D03*
%TD*%
D24*
%TO.C,C19*%
X179000000Y-92225000D03*
X179000000Y-93775000D03*
%TD*%
D25*
%TO.C,JP6*%
X196200000Y-112100000D03*
D26*
X196200000Y-113400000D03*
%TD*%
D27*
%TO.C,C15*%
X123575000Y-77400000D03*
X122025000Y-77400000D03*
%TD*%
D28*
%TO.C,R66*%
X118162500Y-102000000D03*
X116337500Y-102000000D03*
%TD*%
D29*
%TO.C,D1*%
X220750000Y-115800000D03*
X216450000Y-115800000D03*
%TD*%
D30*
%TO.C,C3*%
X228500000Y-115500000D03*
X230400000Y-115500000D03*
%TD*%
D31*
%TO.C,R35*%
X172475000Y-99800000D03*
X174125000Y-99800000D03*
%TD*%
D32*
%TO.C,R12*%
X203837500Y-108000000D03*
X205662500Y-108000000D03*
%TD*%
D24*
%TO.C,C18*%
X211000000Y-92225000D03*
X211000000Y-93775000D03*
%TD*%
D33*
%TO.C,JP27*%
X93750000Y-73950000D03*
D34*
X93750000Y-72650000D03*
%TD*%
D35*
%TO.C,R52*%
X144000000Y-82087500D03*
X144000000Y-83912500D03*
%TD*%
D27*
%TO.C,C16*%
X91575000Y-75800000D03*
X90025000Y-75800000D03*
%TD*%
D28*
%TO.C,R69*%
X118162500Y-79600000D03*
X116337500Y-79600000D03*
%TD*%
D36*
%TO.C,R97*%
X97025000Y-98037500D03*
X97025000Y-96212500D03*
%TD*%
D28*
%TO.C,R19*%
X190162500Y-101900000D03*
X188337500Y-101900000D03*
%TD*%
D37*
%TO.C,SW3*%
X218350000Y-100250000D03*
X227450000Y-100250000D03*
X218350000Y-95750000D03*
X227450000Y-95750000D03*
%TD*%
D38*
%TO.C,JP20*%
X132100000Y-81750000D03*
D39*
X133400000Y-81750000D03*
%TD*%
D40*
%TO.C,J1*%
X226640000Y-121500000D03*
D41*
X219140000Y-121500000D03*
D42*
X225670000Y-120740000D03*
X224880000Y-120740000D03*
X224090000Y-120740000D03*
X223300000Y-120740000D03*
X222510000Y-120740000D03*
X221720000Y-120740000D03*
X220930000Y-120740000D03*
X220140000Y-120740000D03*
X220140000Y-122260000D03*
X220930000Y-122260000D03*
X221720000Y-122260000D03*
X222510000Y-122260000D03*
X223300000Y-122260000D03*
X224090000Y-122260000D03*
X224880000Y-122260000D03*
X225670000Y-122260000D03*
D43*
X225290000Y-123650000D03*
X225290000Y-119350000D03*
X220490000Y-123650000D03*
X220490000Y-119350000D03*
%TD*%
D44*
%TO.C,JP32*%
X85900000Y-81800000D03*
D45*
X84600000Y-81800000D03*
%TD*%
D46*
%TO.C,R6*%
X191750000Y-74075000D03*
X191750000Y-72425000D03*
%TD*%
D33*
%TO.C,JP9*%
X196775000Y-97825000D03*
D34*
X196775000Y-96525000D03*
%TD*%
D47*
%TO.C,C2*%
X225400000Y-115500000D03*
X225400000Y-117400000D03*
%TD*%
D27*
%TO.C,C14*%
X123575000Y-75800000D03*
X122025000Y-75800000D03*
%TD*%
D48*
%TO.C,Q22*%
X118200000Y-86037500D03*
X116300000Y-86037500D03*
X117250000Y-84162500D03*
%TD*%
D35*
%TO.C,R16*%
X193900000Y-111837500D03*
X193900000Y-113662500D03*
%TD*%
D28*
%TO.C,R22*%
X190212500Y-79500000D03*
X188387500Y-79500000D03*
%TD*%
D49*
%TO.C,R17*%
X190025000Y-110200000D03*
X188375000Y-110200000D03*
%TD*%
D25*
%TO.C,JP14*%
X164250000Y-112100000D03*
D26*
X164250000Y-113400000D03*
%TD*%
D35*
%TO.C,R87*%
X88000000Y-111837500D03*
X88000000Y-113662500D03*
%TD*%
D24*
%TO.C,C9*%
X223900000Y-107525000D03*
X223900000Y-109075000D03*
%TD*%
D33*
%TO.C,JP3*%
X197750000Y-73900000D03*
D34*
X197750000Y-72600000D03*
%TD*%
D50*
%TO.C,U4*%
X167575000Y-78955000D03*
X167575000Y-80225000D03*
X167575000Y-81495000D03*
X167575000Y-82765000D03*
X167575000Y-84035000D03*
X167575000Y-85305000D03*
X167575000Y-86575000D03*
X167575000Y-87845000D03*
X162425000Y-87845000D03*
X162425000Y-86575000D03*
X162425000Y-85305000D03*
X162425000Y-84035000D03*
X162425000Y-82765000D03*
X162425000Y-81495000D03*
X162425000Y-80225000D03*
X162425000Y-78955000D03*
%TD*%
D51*
%TO.C,Q8*%
X185937500Y-69850000D03*
X185937500Y-71750000D03*
X184062500Y-70800000D03*
%TD*%
D52*
%TO.C,Q10*%
X171800000Y-77562500D03*
X173700000Y-77562500D03*
X172750000Y-79437500D03*
%TD*%
D31*
%TO.C,R56*%
X131925000Y-75500000D03*
X133575000Y-75500000D03*
%TD*%
D32*
%TO.C,R58*%
X131837500Y-84000000D03*
X133662500Y-84000000D03*
%TD*%
D52*
%TO.C,Q11*%
X171800000Y-101562500D03*
X173700000Y-101562500D03*
X172750000Y-103437500D03*
%TD*%
D35*
%TO.C,R64*%
X122000000Y-111837500D03*
X122000000Y-113662500D03*
%TD*%
D31*
%TO.C,R80*%
X99925000Y-75750000D03*
X101575000Y-75750000D03*
%TD*%
D28*
%TO.C,R27*%
X182312500Y-72300000D03*
X180487500Y-72300000D03*
%TD*%
D48*
%TO.C,Q21*%
X118200000Y-108437500D03*
X116300000Y-108437500D03*
X117250000Y-106562500D03*
%TD*%
D36*
%TO.C,R29*%
X170100000Y-74162500D03*
X170100000Y-72337500D03*
%TD*%
D49*
%TO.C,R89*%
X86075000Y-110450000D03*
X84425000Y-110450000D03*
%TD*%
D38*
%TO.C,JP26*%
X140100000Y-113750000D03*
D39*
X141400000Y-113750000D03*
%TD*%
D49*
%TO.C,R92*%
X86075000Y-87800000D03*
X84425000Y-87800000D03*
%TD*%
D53*
%TO.C,C7*%
X228504594Y-105267291D03*
X230054594Y-105267291D03*
%TD*%
D33*
%TO.C,JP33*%
X92725000Y-97775000D03*
D34*
X92725000Y-96475000D03*
%TD*%
D54*
%TO.C,R86*%
X98500000Y-111925000D03*
X98500000Y-113575000D03*
%TD*%
D51*
%TO.C,Q4*%
X200387500Y-111800000D03*
X200387500Y-113700000D03*
X198512500Y-112750000D03*
%TD*%
D35*
%TO.C,R51*%
X146000000Y-82087500D03*
X146000000Y-83912500D03*
%TD*%
D33*
%TO.C,JP17*%
X164800000Y-97675000D03*
D34*
X164800000Y-96375000D03*
%TD*%
D47*
%TO.C,C1*%
X223350000Y-115500000D03*
X223350000Y-117400000D03*
%TD*%
D44*
%TO.C,JP24*%
X117900000Y-81850000D03*
D45*
X116600000Y-81850000D03*
%TD*%
D32*
%TO.C,R33*%
X171837500Y-84000000D03*
X173662500Y-84000000D03*
%TD*%
D55*
%TO.C,U1*%
X230412500Y-113537500D03*
X229462500Y-113537500D03*
X228512500Y-113537500D03*
X228512500Y-111262500D03*
X230412500Y-111262500D03*
%TD*%
D32*
%TO.C,R13*%
X203837500Y-110000000D03*
X205662500Y-110000000D03*
%TD*%
%TO.C,R81*%
X99837500Y-84000000D03*
X101662500Y-84000000D03*
%TD*%
D33*
%TO.C,JP19*%
X125800000Y-73900000D03*
D34*
X125800000Y-72600000D03*
%TD*%
D27*
%TO.C,C13*%
X163575000Y-77400000D03*
X162025000Y-77400000D03*
%TD*%
D35*
%TO.C,R63*%
X120000000Y-111837500D03*
X120000000Y-113662500D03*
%TD*%
D25*
%TO.C,JP30*%
X92250000Y-112100000D03*
D26*
X92250000Y-113400000D03*
%TD*%
D32*
%TO.C,R76*%
X139837500Y-118000000D03*
X141662500Y-118000000D03*
%TD*%
D37*
%TO.C,SW1*%
X218350000Y-82050000D03*
X227450000Y-82050000D03*
X218350000Y-77550000D03*
X227450000Y-77550000D03*
%TD*%
D49*
%TO.C,R44*%
X158075000Y-88000000D03*
X156425000Y-88000000D03*
%TD*%
D51*
%TO.C,Q28*%
X96437500Y-111800000D03*
X96437500Y-113700000D03*
X94562500Y-112750000D03*
%TD*%
D52*
%TO.C,Q26*%
X99800000Y-77562500D03*
X101700000Y-77562500D03*
X100750000Y-79437500D03*
%TD*%
D46*
%TO.C,R71*%
X119800000Y-98025000D03*
X119800000Y-96375000D03*
%TD*%
D44*
%TO.C,JP31*%
X85900000Y-104200000D03*
D45*
X84600000Y-104200000D03*
%TD*%
D28*
%TO.C,R93*%
X86162500Y-77550000D03*
X84337500Y-77550000D03*
%TD*%
D32*
%TO.C,R34*%
X171837500Y-86000000D03*
X173662500Y-86000000D03*
%TD*%
D50*
%TO.C,U3*%
X199575000Y-78955000D03*
X199575000Y-80225000D03*
X199575000Y-81495000D03*
X199575000Y-82765000D03*
X199575000Y-84035000D03*
X199575000Y-85305000D03*
X199575000Y-86575000D03*
X199575000Y-87845000D03*
X194425000Y-87845000D03*
X194425000Y-86575000D03*
X194425000Y-85305000D03*
X194425000Y-84035000D03*
X194425000Y-82765000D03*
X194425000Y-81495000D03*
X194425000Y-80225000D03*
X194425000Y-78955000D03*
%TD*%
D36*
%TO.C,R24*%
X199025000Y-98087500D03*
X199025000Y-96262500D03*
%TD*%
%TO.C,R48*%
X167100000Y-97937500D03*
X167100000Y-96112500D03*
%TD*%
D56*
%TO.C,Q31*%
X88587500Y-98025000D03*
X88587500Y-96125000D03*
X90462500Y-97075000D03*
%TD*%
D54*
%TO.C,R38*%
X170500000Y-111925000D03*
X170500000Y-113575000D03*
%TD*%
D35*
%TO.C,R15*%
X191900000Y-111837500D03*
X191900000Y-113662500D03*
%TD*%
D32*
%TO.C,R61*%
X131787500Y-108000000D03*
X133612500Y-108000000D03*
%TD*%
D31*
%TO.C,R74*%
X140450000Y-107525000D03*
X142100000Y-107525000D03*
%TD*%
D46*
%TO.C,R30*%
X159550000Y-74075000D03*
X159550000Y-72425000D03*
%TD*%
D35*
%TO.C,R39*%
X162050000Y-111837500D03*
X162050000Y-113662500D03*
%TD*%
D31*
%TO.C,R59*%
X132175000Y-99700000D03*
X133825000Y-99700000D03*
%TD*%
D32*
%TO.C,R106*%
X158087500Y-123500000D03*
X159912500Y-123500000D03*
%TD*%
%TO.C,R105*%
X151087500Y-123500000D03*
X152912500Y-123500000D03*
%TD*%
%TO.C,R60*%
X131787500Y-110050000D03*
X133612500Y-110050000D03*
%TD*%
D50*
%TO.C,U6*%
X95575000Y-78955000D03*
X95575000Y-80225000D03*
X95575000Y-81495000D03*
X95575000Y-82765000D03*
X95575000Y-84035000D03*
X95575000Y-85305000D03*
X95575000Y-86575000D03*
X95575000Y-87845000D03*
X90425000Y-87845000D03*
X90425000Y-86575000D03*
X90425000Y-85305000D03*
X90425000Y-84035000D03*
X90425000Y-82765000D03*
X90425000Y-81495000D03*
X90425000Y-80225000D03*
X90425000Y-78955000D03*
%TD*%
D36*
%TO.C,R73*%
X130100000Y-98162500D03*
X130100000Y-96337500D03*
%TD*%
D44*
%TO.C,JP23*%
X117900000Y-104250000D03*
D45*
X116600000Y-104250000D03*
%TD*%
D32*
%TO.C,R103*%
X137087500Y-123500000D03*
X138912500Y-123500000D03*
%TD*%
D56*
%TO.C,Q1*%
X193562500Y-74200000D03*
X193562500Y-72300000D03*
X195437500Y-73250000D03*
%TD*%
D36*
%TO.C,R96*%
X95025000Y-98037500D03*
X95025000Y-96212500D03*
%TD*%
D57*
%TO.C,H2*%
X232000004Y-67999932D03*
%TD*%
D54*
%TO.C,R109*%
X180937500Y-121675000D03*
X180937500Y-123325000D03*
%TD*%
D46*
%TO.C,R111*%
X213700000Y-93875000D03*
X213700000Y-92225000D03*
%TD*%
D48*
%TO.C,Q5*%
X190200000Y-108387500D03*
X188300000Y-108387500D03*
X189250000Y-106512500D03*
%TD*%
D17*
%TO.C,J3*%
X219350000Y-66675000D03*
D18*
X216810000Y-66675000D03*
%TD*%
D56*
%TO.C,Q17*%
X121612500Y-74200000D03*
X121612500Y-72300000D03*
X123487500Y-73250000D03*
%TD*%
D44*
%TO.C,JP8*%
X189950000Y-81800000D03*
D45*
X188650000Y-81800000D03*
%TD*%
D49*
%TO.C,R20*%
X190125000Y-87800000D03*
X188475000Y-87800000D03*
%TD*%
D56*
%TO.C,Q25*%
X89562500Y-74250000D03*
X89562500Y-72350000D03*
X91437500Y-73300000D03*
%TD*%
D38*
%TO.C,JP18*%
X144350000Y-79950000D03*
D39*
X145650000Y-79950000D03*
%TD*%
D28*
%TO.C,R90*%
X86162500Y-99900000D03*
X84337500Y-99900000D03*
%TD*%
D35*
%TO.C,R88*%
X90000000Y-111837500D03*
X90000000Y-113662500D03*
%TD*%
D17*
%TO.C,J4*%
X225500000Y-66675000D03*
D18*
X222960000Y-66675000D03*
%TD*%
D47*
%TO.C,C8*%
X225750000Y-107350000D03*
X225750000Y-109250000D03*
%TD*%
D56*
%TO.C,Q23*%
X121612500Y-98200000D03*
X121612500Y-96300000D03*
X123487500Y-97250000D03*
%TD*%
D38*
%TO.C,JP29*%
X100100000Y-105800000D03*
D39*
X101400000Y-105800000D03*
%TD*%
D36*
%TO.C,R25*%
X201025000Y-98087500D03*
X201025000Y-96262500D03*
%TD*%
D31*
%TO.C,R8*%
X203925000Y-75500000D03*
X205575000Y-75500000D03*
%TD*%
D38*
%TO.C,JP5*%
X204100000Y-105750000D03*
D39*
X205400000Y-105750000D03*
%TD*%
D32*
%TO.C,R107*%
X172587500Y-123500000D03*
X174412500Y-123500000D03*
%TD*%
D27*
%TO.C,C12*%
X163575000Y-75800000D03*
X162025000Y-75800000D03*
%TD*%
D49*
%TO.C,R41*%
X158125000Y-110200000D03*
X156475000Y-110200000D03*
%TD*%
D35*
%TO.C,R40*%
X160000000Y-111837500D03*
X160000000Y-113662500D03*
%TD*%
D24*
%TO.C,C20*%
X139000000Y-92225000D03*
X139000000Y-93775000D03*
%TD*%
D46*
%TO.C,R95*%
X86775000Y-97900000D03*
X86775000Y-96250000D03*
%TD*%
D48*
%TO.C,Q13*%
X158250000Y-108387500D03*
X156350000Y-108387500D03*
X157300000Y-106512500D03*
%TD*%
D44*
%TO.C,JP16*%
X157900000Y-81750000D03*
D45*
X156600000Y-81750000D03*
%TD*%
D52*
%TO.C,Q19*%
X131750000Y-101512500D03*
X133650000Y-101512500D03*
X132700000Y-103387500D03*
%TD*%
D54*
%TO.C,R14*%
X202450000Y-111925000D03*
X202450000Y-113575000D03*
%TD*%
D46*
%TO.C,R1*%
X225425000Y-70950000D03*
X225425000Y-69300000D03*
%TD*%
D32*
%TO.C,R85*%
X99837500Y-108100000D03*
X101662500Y-108100000D03*
%TD*%
D46*
%TO.C,R78*%
X87750000Y-74125000D03*
X87750000Y-72475000D03*
%TD*%
D56*
%TO.C,Q9*%
X161612500Y-74200000D03*
X161612500Y-72300000D03*
X163487500Y-73250000D03*
%TD*%
D38*
%TO.C,JP13*%
X172100000Y-105750000D03*
D39*
X173400000Y-105750000D03*
%TD*%
D32*
%TO.C,R75*%
X139837500Y-116000000D03*
X141662500Y-116000000D03*
%TD*%
D27*
%TO.C,C17*%
X91575000Y-77400000D03*
X90025000Y-77400000D03*
%TD*%
D31*
%TO.C,R11*%
X203925000Y-99750000D03*
X205575000Y-99750000D03*
%TD*%
D52*
%TO.C,Q2*%
X203800000Y-77562500D03*
X205700000Y-77562500D03*
X204750000Y-79437500D03*
%TD*%
D36*
%TO.C,R55*%
X130100000Y-74162500D03*
X130100000Y-72337500D03*
%TD*%
D48*
%TO.C,Q29*%
X86200000Y-108387500D03*
X84300000Y-108387500D03*
X85250000Y-106512500D03*
%TD*%
D36*
%TO.C,R49*%
X169100000Y-97937500D03*
X169100000Y-96112500D03*
%TD*%
D38*
%TO.C,JP28*%
X100100000Y-81750000D03*
D39*
X101400000Y-81750000D03*
%TD*%
D28*
%TO.C,R43*%
X158212500Y-101900000D03*
X156387500Y-101900000D03*
%TD*%
D52*
%TO.C,Q24*%
X139800000Y-109562500D03*
X141700000Y-109562500D03*
X140750000Y-111437500D03*
%TD*%
D32*
%TO.C,R57*%
X131837500Y-86000000D03*
X133662500Y-86000000D03*
%TD*%
D38*
%TO.C,JP12*%
X172100000Y-81750000D03*
D39*
X173400000Y-81750000D03*
%TD*%
D50*
%TO.C,U5*%
X127575000Y-78955000D03*
X127575000Y-80225000D03*
X127575000Y-81495000D03*
X127575000Y-82765000D03*
X127575000Y-84035000D03*
X127575000Y-85305000D03*
X127575000Y-86575000D03*
X127575000Y-87845000D03*
X122425000Y-87845000D03*
X122425000Y-86575000D03*
X122425000Y-85305000D03*
X122425000Y-84035000D03*
X122425000Y-82765000D03*
X122425000Y-81495000D03*
X122425000Y-80225000D03*
X122425000Y-78955000D03*
%TD*%
D32*
%TO.C,R101*%
X130087500Y-123500000D03*
X131912500Y-123500000D03*
%TD*%
%TO.C,R108*%
X165087500Y-123500000D03*
X166912500Y-123500000D03*
%TD*%
D28*
%TO.C,R18*%
X190162500Y-99900000D03*
X188337500Y-99900000D03*
%TD*%
D57*
%TO.C,H2*%
X232000004Y-121999932D03*
%TD*%
D28*
%TO.C,R67*%
X118162500Y-100000000D03*
X116337500Y-100000000D03*
%TD*%
D33*
%TO.C,JP25*%
X125800000Y-97900000D03*
D34*
X125800000Y-96600000D03*
%TD*%
D36*
%TO.C,R5*%
X200000000Y-74162500D03*
X200000000Y-72337500D03*
%TD*%
D44*
%TO.C,JP7*%
X189900000Y-104200000D03*
D45*
X188600000Y-104200000D03*
%TD*%
D44*
%TO.C,JP10*%
X185650000Y-67800000D03*
D45*
X184350000Y-67800000D03*
%TD*%
D36*
%TO.C,R53*%
X128100000Y-74162500D03*
X128100000Y-72337500D03*
%TD*%
D49*
%TO.C,R4*%
X219675004Y-70999932D03*
X221325004Y-70999932D03*
%TD*%
D27*
%TO.C,C10*%
X195575000Y-75800000D03*
X194025000Y-75800000D03*
%TD*%
%TO.C,C11*%
X195575000Y-77400000D03*
X194025000Y-77400000D03*
%TD*%
D58*
%TO.C,C4*%
X230400000Y-109250000D03*
X228500000Y-109250000D03*
%TD*%
D46*
%TO.C,R54*%
X119550000Y-74075000D03*
X119550000Y-72425000D03*
%TD*%
D52*
%TO.C,Q27*%
X99800000Y-101612500D03*
X101700000Y-101612500D03*
X100750000Y-103487500D03*
%TD*%
D28*
%TO.C,R91*%
X86162500Y-101900000D03*
X84337500Y-101900000D03*
%TD*%
D32*
%TO.C,R104*%
X144087500Y-123500000D03*
X145912500Y-123500000D03*
%TD*%
D36*
%TO.C,R77*%
X98100000Y-74212500D03*
X98100000Y-72387500D03*
%TD*%
D37*
%TO.C,SW2*%
X218350000Y-91150000D03*
X227450000Y-91150000D03*
X218350000Y-86650000D03*
X227450000Y-86650000D03*
%TD*%
D31*
%TO.C,R50*%
X144175000Y-73900000D03*
X145825000Y-73900000D03*
%TD*%
D54*
%TO.C,R62*%
X130250000Y-111925000D03*
X130250000Y-113575000D03*
%TD*%
D52*
%TO.C,Q3*%
X203800000Y-101562500D03*
X205700000Y-101562500D03*
X204750000Y-103437500D03*
%TD*%
D32*
%TO.C,R37*%
X171837500Y-108000000D03*
X173662500Y-108000000D03*
%TD*%
D52*
%TO.C,Q16*%
X144050000Y-75712500D03*
X145950000Y-75712500D03*
X145000000Y-77587500D03*
%TD*%
D32*
%TO.C,R102*%
X123087500Y-123500000D03*
X124912500Y-123500000D03*
%TD*%
D36*
%TO.C,R79*%
X96050000Y-74212500D03*
X96050000Y-72387500D03*
%TD*%
D56*
%TO.C,Q7*%
X192587500Y-98125000D03*
X192587500Y-96225000D03*
X194462500Y-97175000D03*
%TD*%
D38*
%TO.C,JP4*%
X204100000Y-81750000D03*
D39*
X205400000Y-81750000D03*
%TD*%
D48*
%TO.C,Q6*%
X190250000Y-85987500D03*
X188350000Y-85987500D03*
X189300000Y-84112500D03*
%TD*%
D46*
%TO.C,R110*%
X182937500Y-123325000D03*
X182937500Y-121675000D03*
%TD*%
D36*
%TO.C,R31*%
X168100000Y-74162500D03*
X168100000Y-72337500D03*
%TD*%
D28*
%TO.C,R70*%
X118162500Y-77600000D03*
X116337500Y-77600000D03*
%TD*%
D51*
%TO.C,Q20*%
X128437500Y-111800000D03*
X128437500Y-113700000D03*
X126562500Y-112750000D03*
%TD*%
D46*
%TO.C,R2*%
X215250000Y-93875000D03*
X215250000Y-92225000D03*
%TD*%
D28*
%TO.C,R21*%
X190212500Y-77450000D03*
X188387500Y-77450000D03*
%TD*%
D33*
%TO.C,JP11*%
X165800000Y-73900000D03*
D34*
X165800000Y-72600000D03*
%TD*%
D25*
%TO.C,JP22*%
X124250000Y-112100000D03*
D26*
X124250000Y-113400000D03*
%TD*%
D51*
%TO.C,Q12*%
X168387500Y-111800000D03*
X168387500Y-113700000D03*
X166512500Y-112750000D03*
%TD*%
D28*
%TO.C,R46*%
X158162500Y-79500000D03*
X156337500Y-79500000D03*
%TD*%
D24*
%TO.C,C21*%
X107000000Y-92225000D03*
X107000000Y-93775000D03*
%TD*%
D32*
%TO.C,R9*%
X203837500Y-84000000D03*
X205662500Y-84000000D03*
%TD*%
D49*
%TO.C,R65*%
X118075000Y-110250000D03*
X116425000Y-110250000D03*
%TD*%
D31*
%TO.C,R32*%
X171925000Y-75750000D03*
X173575000Y-75750000D03*
%TD*%
D36*
%TO.C,R72*%
X128100000Y-98162500D03*
X128100000Y-96337500D03*
%TD*%
D56*
%TO.C,Q15*%
X160612500Y-97975000D03*
X160612500Y-96075000D03*
X162487500Y-97025000D03*
%TD*%
D46*
%TO.C,R47*%
X158800000Y-97800000D03*
X158800000Y-96150000D03*
%TD*%
D57*
%TO.C,H1*%
X78000004Y-67999932D03*
%TD*%
D28*
%TO.C,R42*%
X158212500Y-99850000D03*
X156387500Y-99850000D03*
%TD*%
D51*
%TO.C,Q33*%
X178875000Y-121550000D03*
X178875000Y-123450000D03*
X177000000Y-122500000D03*
%TD*%
D38*
%TO.C,JP21*%
X132050000Y-105700000D03*
D39*
X133350000Y-105700000D03*
%TD*%
D48*
%TO.C,Q14*%
X158200000Y-85937500D03*
X156300000Y-85937500D03*
X157250000Y-84062500D03*
%TD*%
D28*
%TO.C,R94*%
X86162500Y-79550000D03*
X84337500Y-79550000D03*
%TD*%
D57*
%TO.C,H2*%
X78000004Y-121999932D03*
%TD*%
D32*
%TO.C,R82*%
X99837500Y-86000000D03*
X101662500Y-86000000D03*
%TD*%
D52*
%TO.C,Q18*%
X131800000Y-77562500D03*
X133700000Y-77562500D03*
X132750000Y-79437500D03*
%TD*%
D46*
%TO.C,R23*%
X190525000Y-98000000D03*
X190525000Y-96350000D03*
%TD*%
D53*
%TO.C,C6*%
X228504594Y-103342291D03*
X230054594Y-103342291D03*
%TD*%
D31*
%TO.C,R83*%
X99975000Y-99800000D03*
X101625000Y-99800000D03*
%TD*%
D44*
%TO.C,JP15*%
X157950000Y-104200000D03*
D45*
X156650000Y-104200000D03*
%TD*%
D32*
%TO.C,R84*%
X99837500Y-110100000D03*
X101662500Y-110100000D03*
%TD*%
D36*
%TO.C,R7*%
X202000000Y-74162500D03*
X202000000Y-72337500D03*
%TD*%
D59*
%TO.C,U2*%
X221875000Y-104850000D03*
X221875000Y-105650000D03*
X221875000Y-106450000D03*
X221875000Y-107250000D03*
X221875000Y-108050000D03*
X221875000Y-108850000D03*
X221875000Y-109650000D03*
X221875000Y-110450000D03*
D60*
X220500000Y-111825000D03*
X219700000Y-111825000D03*
X218900000Y-111825000D03*
X218100000Y-111825000D03*
X217300000Y-111825000D03*
X216500000Y-111825000D03*
X215700000Y-111825000D03*
X214900000Y-111825000D03*
D59*
X213525000Y-110450000D03*
X213525000Y-109650000D03*
X213525000Y-108850000D03*
X213525000Y-108050000D03*
X213525000Y-107250000D03*
X213525000Y-106450000D03*
X213525000Y-105650000D03*
X213525000Y-104850000D03*
D60*
X214900000Y-103475000D03*
X215700000Y-103475000D03*
X216500000Y-103475000D03*
X217300000Y-103475000D03*
X218100000Y-103475000D03*
X218900000Y-103475000D03*
X219700000Y-103475000D03*
X220500000Y-103475000D03*
%TD*%
D49*
%TO.C,R3*%
X226575000Y-110800000D03*
X224925000Y-110800000D03*
%TD*%
D48*
%TO.C,Q30*%
X86200000Y-85987500D03*
X84300000Y-85987500D03*
X85250000Y-84112500D03*
%TD*%
D32*
%TO.C,R36*%
X171837500Y-110000000D03*
X173662500Y-110000000D03*
%TD*%
%TO.C,R10*%
X203837500Y-86000000D03*
X205662500Y-86000000D03*
%TD*%
D49*
%TO.C,R68*%
X118075000Y-88100000D03*
X116425000Y-88100000D03*
%TD*%
D28*
%TO.C,R45*%
X158162500Y-77500000D03*
X156337500Y-77500000D03*
%TD*%
D49*
%TO.C,R26*%
X185825000Y-73300000D03*
X184175000Y-73300000D03*
%TD*%
%LPD*%
M02*
