<?xml version="1.0" standalone="no"?>
 <!DOCTYPE svg PUBLIC "-//W3C//DTD SVG 1.1//EN" 
 "http://www.w3.org/Graphics/SVG/1.1/DTD/svg11.dtd"> 
<svg
  xmlns:svg="http://www.w3.org/2000/svg"
  xmlns="http://www.w3.org/2000/svg"
  xmlns:xlink="http://www.w3.org/1999/xlink"
  version="1.1"
  width="297.0022mm" height="419.9890mm" viewBox="0.0000 0.0000 297.0022 419.9890">
<title>SVG Image created as 7_seg_led_tht_3mm-User_2.svg date 2026/01/05 23:17:46 </title>
  <desc>Image generated by PCBNEW </desc>
<g style="fill:#000000; fill-opacity:1.0000;stroke:#000000; stroke-opacity:1.0000;
stroke-linecap:round; stroke-linejoin:round;"
 transform="translate(0 0) scale(1 1)">
</g>
<g style="fill:#000000; fill-opacity:1.0000; 
stroke:#000000; stroke-width:0.0212; stroke-opacity:1; 
stroke-linecap:round; stroke-linejoin:round;">
<rect x="-144.214306" y="9.949995" width="1145.264306" height="331.600105" rx="0.000000" />
</g>
<g style="fill:none; 
stroke:#FFFFFF; stroke-width:0.1000; stroke-opacity:1; 
stroke-linecap:round; stroke-linejoin:round;">
<path d="M239.0000 23.2000
L242.0000 23.2000
" />
<path d="M200.0000 23.0000
L200.0000 15.0000
" />
<path d="M153.0000 45.0000
L153.0000 61.0000
" />
<path d="M30.0232 132.0000
L199.9768 132.0000
" />
<path d="M200.0000 141.0000
L186.0000 141.0000
" />
<path d="M44.0000 161.0000
L47.0000 161.0000
" />
<path d="M242.0000 115.2000
L242.0000 111.2000
" />
<path d="M23.0000 34.0000
L19.0000 34.0000
" />
<path d="M155.0000 167.0000
L159.0000 167.0000
" />
<path d="M177.0000 85.0000 A2.0000 2.0000 0.0 0 0 181.0000 85.0000" />
<path d="M105.0000 61.0000 A2.0000 2.0000 0.0 0 0 109.0000 61.0000" />
<path d="M117.0000 155.0000
L113.0000 155.0000
" />
<path d="M127.0000 43.0000
L143.0000 43.0000
" />
<path d="M159.0000 39.0000 A2.0000 2.0000 0.0 0 0 159.0000 43.0000" />
<path d="M47.0000 42.0000
L47.0000 88.0000
" />
<path d="M207.0000 164.0000
L207.0000 167.0000
" />
<path d="M221.0000 115.2000
L221.0000 111.2000
" />
<path d="M52.0000 93.0000
L178.0000 93.0000
" />
<path d="M46.9768 128.0000
L43.9768 128.0000
" />
<path d="M109.0000 45.0000 A2.0000 2.0000 0.0 0 0 105.0000 45.0000" />
<path d="M47.0000 111.0000
L47.0000 107.0000
" />
<path d="M178.0000 37.0000
L52.0000 37.0000
" />
<path d="M200.0000 133.0000
L30.0000 133.0000
" />
<path d="M127.0000 63.0000 A2.0000 2.0000 0.0 0 0 127.0000 67.0000" />
<path d="M242.0000 23.2000
L221.0000 23.2000
" />
<path d="M183.0000 111.0000
L186.0000 111.0000
" />
<path d="M127.0000 63.0000
L143.0000 63.0000
" />
<path d="M127.0000 67.0000
L143.0000 67.0000
" />
<path d="M149.0000 45.0000
L149.0000 61.0000
" />
<path d="M183.0000 161.0000
L186.0000 161.0000
" />
<path d="M23.0000 167.0000
L19.0000 167.0000
" />
<path d="M49.0000 69.0000
L49.0000 85.0000
" />
<path d="M186.0000 19.0000
L183.0000 19.0000
" />
<path d="M215.0000 30.0000 A15.0000 15.0000 0.0 0 0 200.0000 15.0000" />
<path d="M181.0000 69.0000 A2.0000 2.0000 0.0 0 0 177.0000 69.0000" />
<path d="M211.0000 93.0000
L207.0000 93.0000
" />
<path d="M109.0000 69.0000 A2.0000 2.0000 0.0 0 0 105.0000 69.0000" />
<path d="M55.0000 43.0000
L71.0000 43.0000
" />
<path d="M53.0000 45.0000
L53.0000 61.0000
" />
<path d="M143.0000 43.0000 A2.0000 2.0000 0.0 1 0 143.0000 39.0000" />
<path d="M239.0000 111.2000
L239.0000 71.2000
" />
<path d="M105.0000 45.0000
L105.0000 61.0000
" />
<path d="M183.0000 164.0000
L183.0000 161.0000
" />
<path d="M242.0000 115.2000
L221.0000 115.2000
" />
<path d="M47.0000 88.0000 A5.0000 5.0000 0.0 0 0 52.0000 93.0000" />
<path d="M233.0000 100.2000
L233.0000 111.2000
" />
<path d="M23.0000 164.0000
L44.0000 164.0000
" />
<path d="M242.0000 67.2000
L239.0000 67.2000
" />
<path d="M52.0000 37.0000 A5.0000 5.0000 0.0 0 0 47.0000 42.0000" />
<path d="M46.9768 124.0000
L78.9768 124.0000
" />
<path d="M127.0000 39.0000
L143.0000 39.0000
" />
<path d="M150.9768 124.0000
L182.9768 124.0000
" />
<path d="M87.0000 67.0000
L103.0000 67.0000
" />
<path d="M207.0000 146.0000
L207.0000 158.0000
" />
<path d="M239.0000 111.2000
L242.0000 111.2000
" />
<path d="M125.0000 45.0000
L125.0000 61.0000
" />
<path d="M71.0000 43.0000 A2.0000 2.0000 0.0 0 0 71.0000 39.0000" />
<path d="M23.0000 37.0000
L23.0000 93.0000
" />
<path d="M200.0000 115.0000 A15.0000 15.0000 0.0 0 0 215.0000 100.0000" />
<path d="M175.0000 67.0000 A2.0000 2.0000 0.0 1 0 175.0000 63.0000" />
<path d="M30.0465 115.0000
L200.0000 115.0000
" />
<path d="M87.0000 87.0000
L103.0000 87.0000
" />
<path d="M200.0000 141.0000
L200.0000 133.0000
" />
<path d="M177.0000 69.0000
L177.0000 85.0000
" />
<path d="M127.0000 39.0000 A2.0000 2.0000 0.0 0 0 127.0000 43.0000" />
<path d="M49.0000 45.0000
L49.0000 61.0000
" />
<path d="M79.0000 110.0000
L151.0000 110.0000
" />
<path d="M236.0000 41.2000
L236.0000 38.2000
" />
<path d="M44.0000 23.0000
L30.0000 23.0000
" />
<path d="M207.0000 158.0000
L117.0000 158.0000
" />
<circle cx="115.0000" cy="59.0001" r="2.0000" /> 
<path d="M19.0000 167.0000
L19.0000 146.0000
" />
<path d="M211.0000 37.0000
L211.0000 34.0000
" />
<path d="M183.0000 88.0000
L183.0000 42.0000
" />
<path d="M155.0000 164.0000
L155.0000 167.0000
" />
<path d="M177.0000 61.0000 A2.0000 2.0000 0.0 0 0 181.0000 61.0000" />
<path d="M71.0000 67.0000 A2.0000 2.0000 0.0 0 0 71.0000 63.0000" />
<path d="M87.0000 43.0000
L103.0000 43.0000
" />
<path d="M87.0000 87.0000 A2.0000 2.0000 0.0 1 0 87.0000 91.0000" />
<path d="M30.0000 107.0000
L44.0000 107.0000
" />
<path d="M233.0000 97.2000
L233.0000 71.2000
" />
<path d="M105.0000 69.0000
L105.0000 85.0000
" />
<path d="M55.0000 63.0000 A2.0000 2.0000 0.0 1 0 55.0000 67.0000" />
<path d="M23.0000 164.0000
L23.0000 167.0000
" />
<path d="M236.0000 97.2000
L236.0000 100.2000
" />
<path d="M73.0000 69.0000
L73.0000 85.0000
" />
<path d="M85.0000 69.0000 A2.0000 2.0000 0.0 0 0 81.0000 69.0000" />
<path d="M153.0000 69.0000
L153.0000 85.0000
" />
<path d="M159.0000 43.0000
L175.0000 43.0000
" />
<path d="M183.0000 42.0000 A5.0000 5.0000 0.0 0 0 178.0000 37.0000" />
<path d="M77.0000 69.0000 A2.0000 2.0000 0.0 0 0 73.0000 69.0000" />
<path d="M15.0000 100.0000 A15.0000 15.0000 0.0 0 0 30.0000 115.0000" />
<path d="M55.0000 67.0000
L71.0000 67.0000
" />
<path d="M221.0000 111.2000
L233.0000 111.2000
" />
<path d="M145.0000 45.0000
L145.0000 61.0000
" />
<path d="M23.0000 100.0000 A7.0000 7.0000 0.0 0 0 30.0000 107.0000" />
<path d="M55.0000 39.0000 A2.0000 2.0000 0.0 1 0 55.0000 43.0000" />
<path d="M186.0000 107.0000
L186.0000 111.0000
" />
<path d="M233.0000 41.2000
L233.0000 67.2000
" />
<path d="M149.0000 69.0000 A2.0000 2.0000 0.0 0 0 145.0000 69.0000" />
<path d="M159.0000 67.0000
L175.0000 67.0000
" />
<path d="M145.0000 61.0000 A2.0000 2.0000 0.0 0 0 149.0000 61.0000" />
<path d="M121.0000 45.0000
L121.0000 61.0000
" />
<path d="M177.0000 45.0000
L177.0000 61.0000
" />
<path d="M44.0000 107.0000
L44.0000 111.0000
" />
<path d="M47.0000 137.0000
L44.0000 137.0000
" />
<path d="M236.0000 100.2000
L233.0000 100.2000
" />
<path d="M30.0000 141.0000
L30.0000 133.0000
" />
<path d="M55.0000 39.0000
L71.0000 39.0000
" />
<path d="M55.0000 91.0000
L71.0000 91.0000
" />
<path d="M157.0000 69.0000
L157.0000 85.0000
" />
<path d="M121.0000 85.0000 A2.0000 2.0000 0.0 0 0 125.0000 85.0000" />
<path d="M239.0000 71.2000
L242.0000 71.2000
" />
<circle cx="151.0000" cy="41.0001" r="2.0000" /> 
<path d="M103.0000 67.0000 A2.0000 2.0000 0.0 1 0 103.0000 63.0000" />
<path d="M143.0000 91.0000 A2.0000 2.0000 0.0 1 0 143.0000 87.0000" />
<path d="M55.0000 87.0000
L71.0000 87.0000
" />
<path d="M207.0000 93.0000
L207.0000 37.0000
" />
<path d="M49.0000 61.0000 A2.0000 2.0000 0.0 0 0 53.0000 61.0000" />
<path d="M200.0000 15.0000
L30.0000 15.0000
" />
<path d="M23.0000 96.0000
L23.0000 100.0000
" />
<path d="M239.0000 27.2000
L242.0000 27.2000
" />
<path d="M78.9768 124.0000
L78.9768 127.0000
" />
<path d="M73.0000 85.0000 A2.0000 2.0000 0.0 0 0 77.0000 85.0000" />
<path d="M236.0000 38.2000
L233.0000 38.2000
" />
<path d="M145.0000 69.0000
L145.0000 85.0000
" />
<path d="M207.0000 37.0000
L211.0000 37.0000
" />
<path d="M44.0000 19.0000
L44.0000 23.0000
" />
<path d="M87.0000 63.0000
L103.0000 63.0000
" />
<path d="M233.0000 38.2000
L233.0000 27.2000
" />
<path d="M182.9768 124.0000
L182.9768 128.0000
" />
<path d="M230.0000 67.2000
L230.0000 71.2000
" />
<path d="M175.0000 91.0000 A2.0000 2.0000 0.0 1 0 175.0000 87.0000" />
<path d="M113.0000 155.0000
L113.0000 158.0000
" />
<path d="M215.0000 100.0000
L215.0000 30.0000
" />
<path d="M47.0000 23.0000
L183.0000 23.0000
" />
<path d="M181.0000 45.0000 A2.0000 2.0000 0.0 0 0 177.0000 45.0000" />
<path d="M211.0000 146.0000
L207.0000 146.0000
" />
<path d="M73.0000 45.0000
L73.0000 61.0000
" />
<path d="M159.0000 39.0000
L175.0000 39.0000
" />
<path d="M185.9768 124.0000
L185.9768 128.0000
" />
<path d="M47.0000 111.0000
L44.0000 111.0000
" />
<path d="M211.0000 96.0000
L211.0000 93.0000
" />
<path d="M149.0000 45.0000 A2.0000 2.0000 0.0 0 0 145.0000 45.0000" />
<path d="M85.0000 69.0000
L85.0000 85.0000
" />
<path d="M44.0000 141.0000
L30.0000 141.0000
" />
<path d="M159.0000 87.0000 A2.0000 2.0000 0.0 0 0 159.0000 91.0000" />
<path d="M159.0000 63.0000 A2.0000 2.0000 0.0 0 0 159.0000 67.0000" />
<path d="M207.0000 164.0000
L186.0000 164.0000
" />
<path d="M157.0000 45.0000
L157.0000 61.0000
" />
<path d="M85.0000 45.0000
L85.0000 61.0000
" />
<path d="M127.0000 87.0000
L143.0000 87.0000
" />
<path d="M125.0000 69.0000 A2.0000 2.0000 0.0 0 0 121.0000 69.0000" />
<path d="M117.0000 158.0000
L117.0000 155.0000
" />
<path d="M233.0000 67.2000
L230.0000 67.2000
" />
<path d="M71.0000 164.0000
L71.0000 167.0000
" />
<path d="M73.0000 61.0000 A2.0000 2.0000 0.0 0 0 77.0000 61.0000" />
<path d="M44.0000 137.0000
L44.0000 141.0000
" />
<path d="M71.0000 164.0000
L47.0000 164.0000
" />
<path d="M182.9768 128.0000
L185.9768 128.0000
" />
<path d="M81.0000 69.0000
L81.0000 85.0000
" />
<path d="M103.0000 43.0000 A2.0000 2.0000 0.0 1 0 103.0000 39.0000" />
<path d="M47.0000 141.0000
L47.0000 137.0000
" />
<path d="M155.0000 164.0000
L75.0000 164.0000
" />
<path d="M143.0000 67.0000 A2.0000 2.0000 0.0 1 0 143.0000 63.0000" />
<path d="M233.0000 41.2000
L236.0000 41.2000
" />
<path d="M77.0000 45.0000
L77.0000 61.0000
" />
<path d="M29.9768 132.0000
L29.9767 124.0000
" />
<path d="M19.0000 96.0000
L23.0000 96.0000
" />
<path d="M109.0000 45.0000
L109.0000 61.0000
" />
<path d="M183.0000 19.0000
L183.0000 23.0000
" />
<path d="M19.0000 37.0000
L23.0000 37.0000
" />
<path d="M43.9768 124.0000
L43.9768 128.0000
" />
<path d="M78.9768 127.0000
L150.9768 127.0000
" />
<path d="M77.0000 45.0000 A2.0000 2.0000 0.0 0 0 73.0000 45.0000" />
<circle cx="115.0000" cy="89.0001" r="2.0000" /> 
<path d="M186.0000 164.0000
L186.0000 161.0000
" />
<path d="M221.0000 23.2000
L221.0000 27.2000
" />
<path d="M29.9768 124.0000
L43.9768 124.0000
" />
<path d="M127.0000 87.0000 A2.0000 2.0000 0.0 0 0 127.0000 91.0000" />
<path d="M145.0000 85.0000 A2.0000 2.0000 0.0 0 0 149.0000 85.0000" />
<path d="M233.0000 97.2000
L236.0000 97.2000
" />
<path d="M15.0000 30.0000
L15.0000 100.0000
" />
<path d="M181.0000 69.0000
L181.0000 85.0000
" />
<path d="M23.0000 146.0000
L23.0000 158.0000
" />
<path d="M125.0000 69.0000
L125.0000 85.0000
" />
<path d="M157.0000 45.0000 A2.0000 2.0000 0.0 0 0 153.0000 45.0000" />
<path d="M151.0000 107.0000
L183.0000 107.0000
" />
<path d="M19.0000 34.0000
L19.0000 37.0000
" />
<path d="M30.0000 23.0000 A7.0000 7.0000 0.0 0 0 23.0000 30.0000" />
<path d="M175.0000 43.0000 A2.0000 2.0000 0.0 1 0 175.0000 39.0000" />
<path d="M87.0000 91.0000
L103.0000 91.0000
" />
<path d="M77.0000 69.0000
L77.0000 85.0000
" />
<path d="M87.0000 39.0000
L103.0000 39.0000
" />
<path d="M186.0000 137.0000
L183.0000 137.0000
" />
<path d="M55.0000 87.0000 A2.0000 2.0000 0.0 1 0 55.0000 91.0000" />
<path d="M87.0000 39.0000 A2.0000 2.0000 0.0 1 0 87.0000 43.0000" />
<path d="M242.0000 27.2000
L242.0000 23.2000
" />
<path d="M207.0000 96.0000
L211.0000 96.0000
" />
<path d="M121.0000 69.0000
L121.0000 85.0000
" />
<path d="M121.0000 61.0000 A2.0000 2.0000 0.0 0 0 125.0000 61.0000" />
<path d="M151.0000 110.0000
L151.0000 107.0000
" />
<path d="M159.0000 87.0000
L175.0000 87.0000
" />
<path d="M211.0000 167.0000
L211.0000 146.0000
" />
<path d="M159.0000 63.0000
L175.0000 63.0000
" />
<path d="M186.0000 23.0000
L186.0000 19.0000
" />
<circle cx="115.0000" cy="71.0001" r="2.0000" /> 
<path d="M49.0000 85.0000 A2.0000 2.0000 0.0 0 0 53.0000 85.0000" />
<path d="M239.0000 67.2000
L239.0000 27.2000
" />
<path d="M53.0000 45.0000 A2.0000 2.0000 0.0 0 0 49.0000 45.0000" />
<path d="M47.0000 23.0000
L47.0000 19.0000
" />
<path d="M44.0000 164.0000
L44.0000 161.0000
" />
<path d="M150.9768 127.0000
L150.9768 124.0000
" />
<path d="M23.0000 93.0000
L19.0000 93.0000
" />
<path d="M207.0000 167.0000
L211.0000 167.0000
" />
<path d="M242.0000 27.2000
L242.0000 23.2000
" />
<path d="M47.0000 107.0000
L79.0000 107.0000
" />
<path d="M207.0000 30.0000 A7.0000 7.0000 0.0 0 0 200.0000 23.0000" />
<path d="M103.0000 91.0000 A2.0000 2.0000 0.0 1 0 103.0000 87.0000" />
<path d="M200.0000 107.0000 A7.0000 7.0000 0.0 0 0 207.0000 100.0000" />
<path d="M183.0000 137.0000
L183.0000 141.0000
" />
<path d="M181.0000 45.0000
L181.0000 61.0000
" />
<path d="M30.0000 115.0000
L30.0000 107.0000
" />
<path d="M47.0000 164.0000
L47.0000 161.0000
" />
<path d="M19.0000 93.0000
L19.0000 96.0000
" />
<path d="M186.0000 107.0000
L200.0000 107.0000
" />
<path d="M53.0000 69.0000 A2.0000 2.0000 0.0 0 0 49.0000 69.0000" />
<path d="M186.0000 141.0000
L186.0000 137.0000
" />
<path d="M207.0000 100.0000
L207.0000 96.0000
" />
<path d="M23.0000 158.0000
L113.0000 158.0000
" />
<path d="M46.9768 128.0000
L46.9768 124.0000
" />
<path d="M185.9768 124.0000
L199.9767 124.0000
" />
<path d="M23.0000 30.0000
L23.0000 34.0000
" />
<path d="M207.0000 34.0000
L207.0000 30.0000
" />
<path d="M30.0000 15.0000 A15.0000 15.0000 0.0 0 0 15.0000 30.0000" />
<path d="M183.0000 107.0000
L183.0000 111.0000
" />
<path d="M221.0000 27.2000
L233.0000 27.2000
" />
<path d="M230.0000 71.2000
L233.0000 71.2000
" />
<path d="M81.0000 45.0000
L81.0000 61.0000
" />
<path d="M200.0000 23.0000
L186.0000 23.0000
" />
<path d="M200.0000 115.0000
L200.0000 107.0000
" />
<path d="M149.0000 69.0000
L149.0000 85.0000
" />
<path d="M105.0000 85.0000 A2.0000 2.0000 0.0 0 0 109.0000 85.0000" />
<path d="M81.0000 61.0000 A2.0000 2.0000 0.0 0 0 85.0000 61.0000" />
<path d="M79.0000 107.0000
L79.0000 110.0000
" />
<path d="M75.0000 167.0000
L75.0000 164.0000
" />
<path d="M71.0000 167.0000
L75.0000 167.0000
" />
<path d="M53.0000 69.0000
L53.0000 85.0000
" />
<path d="M47.0000 19.0000
L44.0000 19.0000
" />
<path d="M159.0000 91.0000
L175.0000 91.0000
" />
<path d="M242.0000 71.2000
L242.0000 67.2000
" />
<path d="M127.0000 91.0000
L143.0000 91.0000
" />
<path d="M47.0000 141.0000
L183.0000 141.0000
" />
<path d="M85.0000 45.0000 A2.0000 2.0000 0.0 0 0 81.0000 45.0000" />
<path d="M87.0000 63.0000 A2.0000 2.0000 0.0 1 0 87.0000 67.0000" />
<path d="M81.0000 85.0000 A2.0000 2.0000 0.0 0 0 85.0000 85.0000" />
<path d="M157.0000 69.0000 A2.0000 2.0000 0.0 0 0 153.0000 69.0000" />
<path d="M211.0000 34.0000
L207.0000 34.0000
" />
<path d="M178.0000 93.0000 A5.0000 5.0000 0.0 0 0 183.0000 88.0000" />
<path d="M109.0000 69.0000
L109.0000 85.0000
" />
<path d="M30.0000 23.0000
L30.0000 15.0000
" />
<path d="M55.0000 63.0000
L71.0000 63.0000
" />
<path d="M183.0000 164.0000
L159.0000 164.0000
" />
<path d="M159.0000 167.0000
L159.0000 164.0000
" />
<path d="M19.0000 146.0000
L23.0000 146.0000
" />
<path d="M199.9768 132.0000
L199.9767 124.0000
" />
<path d="M71.0000 91.0000 A2.0000 2.0000 0.0 0 0 71.0000 87.0000" />
<path d="M153.0000 61.0000 A2.0000 2.0000 0.0 0 0 157.0000 61.0000" />
<path d="M153.0000 85.0000 A2.0000 2.0000 0.0 0 0 157.0000 85.0000" />
<path d="M125.0000 45.0000 A2.0000 2.0000 0.0 0 0 121.0000 45.0000" />
</g>
<g style="fill:none; 
stroke:#FFFFFF; stroke-width:0.3750; stroke-opacity:1; 
stroke-linecap:round; stroke-linejoin:round;">
<text x="115.0000" y="19.0000"
transform="scale(-1 1) translate(-230.000000 0)"
textLength="6.3821" font-size="4.0000" lengthAdjust="spacingAndGlyphs"
text-anchor="middle" opacity="0" stroke-opacity="0">G2</text>
<g class="stroked-text"><desc>G2</desc>
<path d="M115.6429 16.0112
L115.9286 15.8684
" />
<path d="M115.9286 15.8684
L116.3571 15.8684
" />
<path d="M116.3571 15.8684
L116.7857 16.0112
" />
<path d="M116.7857 16.0112
L117.0714 16.2969
" />
<path d="M117.0714 16.2969
L117.2143 16.5826
" />
<path d="M117.2143 16.5826
L117.3571 17.1541
" />
<path d="M117.3571 17.1541
L117.3571 17.5826
" />
<path d="M117.3571 17.5826
L117.2143 18.1541
" />
<path d="M117.2143 18.1541
L117.0714 18.4398
" />
<path d="M117.0714 18.4398
L116.7857 18.7255
" />
<path d="M116.7857 18.7255
L116.3571 18.8684
" />
<path d="M116.3571 18.8684
L116.0714 18.8684
" />
<path d="M116.0714 18.8684
L115.6429 18.7255
" />
<path d="M115.6429 18.7255
L115.5000 18.5826
" />
<path d="M115.5000 18.5826
L115.5000 17.5826
" />
<path d="M115.5000 17.5826
L116.0714 17.5826
" />
<path d="M114.3571 16.1541
L114.2143 16.0112
" />
<path d="M114.2143 16.0112
L113.9286 15.8684
" />
<path d="M113.9286 15.8684
L113.2143 15.8684
" />
<path d="M113.2143 15.8684
L112.9286 16.0112
" />
<path d="M112.9286 16.0112
L112.7857 16.1541
" />
<path d="M112.7857 16.1541
L112.6429 16.4398
" />
<path d="M112.6429 16.4398
L112.6429 16.7255
" />
<path d="M112.6429 16.7255
L112.7857 17.1541
" />
<path d="M112.7857 17.1541
L114.5000 18.8684
" />
<path d="M114.5000 18.8684
L112.6429 18.8684
" />
</g><text x="-136.0232" y="133.0000"
transform="scale(-1 1) translate(272.046470 0)"
textLength="6.3821" font-size="4.0000" lengthAdjust="spacingAndGlyphs"
text-anchor="middle" opacity="0" stroke-opacity="0">D2</text>
<g class="stroked-text"><desc>D2</desc>
<path d="M-133.8089 132.8684
L-133.8089 129.8684
" />
<path d="M-133.8089 129.8684
L-134.5232 129.8684
" />
<path d="M-134.5232 129.8684
L-134.9518 130.0112
" />
<path d="M-134.9518 130.0112
L-135.2375 130.2969
" />
<path d="M-135.2375 130.2969
L-135.3804 130.5826
" />
<path d="M-135.3804 130.5826
L-135.5232 131.1541
" />
<path d="M-135.5232 131.1541
L-135.5232 131.5826
" />
<path d="M-135.5232 131.5826
L-135.3804 132.1541
" />
<path d="M-135.3804 132.1541
L-135.2375 132.4398
" />
<path d="M-135.2375 132.4398
L-134.9518 132.7255
" />
<path d="M-134.9518 132.7255
L-134.5232 132.8684
" />
<path d="M-134.5232 132.8684
L-133.8089 132.8684
" />
<path d="M-136.6661 130.1541
L-136.8089 130.0112
" />
<path d="M-136.8089 130.0112
L-137.0947 129.8684
" />
<path d="M-137.0947 129.8684
L-137.8089 129.8684
" />
<path d="M-137.8089 129.8684
L-138.0947 130.0112
" />
<path d="M-138.0947 130.0112
L-138.2375 130.1541
" />
<path d="M-138.2375 130.1541
L-138.3804 130.4398
" />
<path d="M-138.3804 130.4398
L-138.3804 130.7255
" />
<path d="M-138.3804 130.7255
L-138.2375 131.1541
" />
<path d="M-138.2375 131.1541
L-136.5232 132.8684
" />
<path d="M-136.5232 132.8684
L-138.3804 132.8684
" />
</g><text x="115.0000" y="114.0000"
transform="scale(-1 1) translate(-230.000000 0)"
textLength="6.3821" font-size="4.0000" lengthAdjust="spacingAndGlyphs"
text-anchor="middle" opacity="0" stroke-opacity="0">D2</text>
<g class="stroked-text"><desc>D2</desc>
<path d="M117.2143 113.8684
L117.2143 110.8684
" />
<path d="M117.2143 110.8684
L116.5000 110.8684
" />
<path d="M116.5000 110.8684
L116.0714 111.0112
" />
<path d="M116.0714 111.0112
L115.7857 111.2969
" />
<path d="M115.7857 111.2969
L115.6429 111.5826
" />
<path d="M115.6429 111.5826
L115.5000 112.1541
" />
<path d="M115.5000 112.1541
L115.5000 112.5826
" />
<path d="M115.5000 112.5826
L115.6429 113.1541
" />
<path d="M115.6429 113.1541
L115.7857 113.4398
" />
<path d="M115.7857 113.4398
L116.0714 113.7255
" />
<path d="M116.0714 113.7255
L116.5000 113.8684
" />
<path d="M116.5000 113.8684
L117.2143 113.8684
" />
<path d="M114.3571 111.1541
L114.2143 111.0112
" />
<path d="M114.2143 111.0112
L113.9286 110.8684
" />
<path d="M113.9286 110.8684
L113.2143 110.8684
" />
<path d="M113.2143 110.8684
L112.9286 111.0112
" />
<path d="M112.9286 111.0112
L112.7857 111.1541
" />
<path d="M112.7857 111.1541
L112.6429 111.4398
" />
<path d="M112.6429 111.4398
L112.6429 111.7255
" />
<path d="M112.6429 111.7255
L112.7857 112.1541
" />
<path d="M112.7857 112.1541
L114.5000 113.8684
" />
<path d="M114.5000 113.8684
L112.6429 113.8684
" />
</g><text x="115.0000" y="137.0000"
transform="scale(-1 1) translate(-230.000022 0)"
textLength="6.3821" font-size="4.0000" lengthAdjust="spacingAndGlyphs"
text-anchor="middle" opacity="0" stroke-opacity="0">G2</text>
<g class="stroked-text"><desc>G2</desc>
<path d="M115.6429 134.0112
L115.9286 133.8684
" />
<path d="M115.9286 133.8684
L116.3572 133.8684
" />
<path d="M116.3572 133.8684
L116.7857 134.0112
" />
<path d="M116.7857 134.0112
L117.0714 134.2969
" />
<path d="M117.0714 134.2969
L117.2143 134.5826
" />
<path d="M117.2143 134.5826
L117.3572 135.1541
" />
<path d="M117.3572 135.1541
L117.3572 135.5826
" />
<path d="M117.3572 135.5826
L117.2143 136.1541
" />
<path d="M117.2143 136.1541
L117.0714 136.4398
" />
<path d="M117.0714 136.4398
L116.7857 136.7255
" />
<path d="M116.7857 136.7255
L116.3572 136.8684
" />
<path d="M116.3572 136.8684
L116.0714 136.8684
" />
<path d="M116.0714 136.8684
L115.6429 136.7255
" />
<path d="M115.6429 136.7255
L115.5000 136.5826
" />
<path d="M115.5000 136.5826
L115.5000 135.5826
" />
<path d="M115.5000 135.5826
L116.0714 135.5826
" />
<path d="M114.3572 134.1541
L114.2143 134.0112
" />
<path d="M114.2143 134.0112
L113.9286 133.8684
" />
<path d="M113.9286 133.8684
L113.2143 133.8684
" />
<path d="M113.2143 133.8684
L112.9286 134.0112
" />
<path d="M112.9286 134.0112
L112.7857 134.1541
" />
<path d="M112.7857 134.1541
L112.6429 134.4398
" />
<path d="M112.6429 134.4398
L112.6429 134.7255
" />
<path d="M112.6429 134.7255
L112.7857 135.1541
" />
<path d="M112.7857 135.1541
L114.5000 136.8684
" />
<path d="M114.5000 136.8684
L112.6429 136.8684
" />
</g><text x="-136.0000" y="139.0000"
transform="scale(-1 1) translate(271.999978 0)"
textLength="6.3821" font-size="4.0000" lengthAdjust="spacingAndGlyphs"
text-anchor="middle" opacity="0" stroke-opacity="0">G2</text>
<g class="stroked-text"><desc>G2</desc>
<path d="M-135.3571 136.0112
L-135.0714 135.8684
" />
<path d="M-135.0714 135.8684
L-134.6428 135.8684
" />
<path d="M-134.6428 135.8684
L-134.2143 136.0112
" />
<path d="M-134.2143 136.0112
L-133.9286 136.2969
" />
<path d="M-133.9286 136.2969
L-133.7857 136.5826
" />
<path d="M-133.7857 136.5826
L-133.6428 137.1541
" />
<path d="M-133.6428 137.1541
L-133.6428 137.5826
" />
<path d="M-133.6428 137.5826
L-133.7857 138.1541
" />
<path d="M-133.7857 138.1541
L-133.9286 138.4398
" />
<path d="M-133.9286 138.4398
L-134.2143 138.7255
" />
<path d="M-134.2143 138.7255
L-134.6428 138.8684
" />
<path d="M-134.6428 138.8684
L-134.9286 138.8684
" />
<path d="M-134.9286 138.8684
L-135.3571 138.7255
" />
<path d="M-135.3571 138.7255
L-135.5000 138.5826
" />
<path d="M-135.5000 138.5826
L-135.5000 137.5826
" />
<path d="M-135.5000 137.5826
L-134.9286 137.5826
" />
<path d="M-136.6428 136.1541
L-136.7857 136.0112
" />
<path d="M-136.7857 136.0112
L-137.0714 135.8684
" />
<path d="M-137.0714 135.8684
L-137.7857 135.8684
" />
<path d="M-137.7857 135.8684
L-138.0714 136.0112
" />
<path d="M-138.0714 136.0112
L-138.2143 136.1541
" />
<path d="M-138.2143 136.1541
L-138.3571 136.4398
" />
<path d="M-138.3571 136.4398
L-138.3571 136.7255
" />
<path d="M-138.3571 136.7255
L-138.2143 137.1541
" />
<path d="M-138.2143 137.1541
L-136.5000 138.8684
" />
<path d="M-136.5000 138.8684
L-138.3571 138.8684
" />
</g><text x="114.9768" y="131.0000"
transform="scale(-1 1) translate(-229.953530 0)"
textLength="6.3821" font-size="4.0000" lengthAdjust="spacingAndGlyphs"
text-anchor="middle" opacity="0" stroke-opacity="0">D2</text>
<g class="stroked-text"><desc>D2</desc>
<path d="M117.1910 130.8684
L117.1910 127.8684
" />
<path d="M117.1910 127.8684
L116.4768 127.8684
" />
<path d="M116.4768 127.8684
L116.0482 128.0112
" />
<path d="M116.0482 128.0112
L115.7625 128.2969
" />
<path d="M115.7625 128.2969
L115.6196 128.5826
" />
<path d="M115.6196 128.5826
L115.4768 129.1541
" />
<path d="M115.4768 129.1541
L115.4768 129.5826
" />
<path d="M115.4768 129.5826
L115.6196 130.1541
" />
<path d="M115.6196 130.1541
L115.7625 130.4398
" />
<path d="M115.7625 130.4398
L116.0482 130.7255
" />
<path d="M116.0482 130.7255
L116.4768 130.8684
" />
<path d="M116.4768 130.8684
L117.1910 130.8684
" />
<path d="M114.3339 128.1541
L114.1910 128.0112
" />
<path d="M114.1910 128.0112
L113.9053 127.8684
" />
<path d="M113.9053 127.8684
L113.1910 127.8684
" />
<path d="M113.1910 127.8684
L112.9053 128.0112
" />
<path d="M112.9053 128.0112
L112.7625 128.1541
" />
<path d="M112.7625 128.1541
L112.6196 128.4398
" />
<path d="M112.6196 128.4398
L112.6196 128.7255
" />
<path d="M112.6196 128.7255
L112.7625 129.1541
" />
<path d="M112.7625 129.1541
L114.4768 130.8684
" />
<path d="M114.4768 130.8684
L112.6196 130.8684
" />
</g></g> 
</svg>
