  0
SECTION
  2
HEADER
  9
$ANGBASE
  50
0.0
  9
$ANGDIR
  70
1
  9
$MEASUREMENT
  70
1
  0
ENDSEC
  0
SECTION
  2
TABLES
  0
TABLE
  2
LTYPE
  70
4
  0
LTYPE
  5
40F
  2
CONTINUOUS
  70
0
  3
Solid line
  72
65
  73
0
  40
0.0
  0
LTYPE
  5
410
  2
DASHDOT
 70
0
  3
Dash Dot ____ _ ____ _
 72
65
 73
4
 40
2.0
 49
1.25
 49
-0.25
 49
0.25
 49
-0.25
  0
LTYPE
  5
411
  2
DASHED
 70
0
  3
Dashed __ __ __ __ __
 72
65
 73
2
 40
0.75
 49
0.5
 49
-0.25
  0
LTYPE
  5
43B
  2
DOTTED
 70
0
  3
Dotted .  .  .  .
 72
65
 73
2
 40
0.2
 49
0.0
 49
-0.2
  0
ENDTAB
  0
TABLE
  2
STYLE
  70
4
  0
STYLE
  2
KICAD
  70
0
  40
0
  41
1
  42
1
  50
0
  71
0
  3
isocp.shx
  0
STYLE
  2
KICADB
  70
0
  40
0
  41
1
  42
1
  50
0
  71
0
  3
isocp.shx
  0
STYLE
  2
KICADI
  70
0
  40
0
  41
1
  42
1
  50
15
  71
0
  3
isocp.shx
  0
STYLE
  2
KICADBI
  70
0
  40
0
  41
1
  42
1
  50
15
  71
0
  3
isocp.shx
  0
ENDTAB
  0
TABLE
  2
LAYER
  70
1
  0
LAYER
  2
BLACK
  70
0
  62
7
  6
CONTINUOUS
  0
ENDTAB
  0
ENDSEC
  0
SECTION
  2
ENTITIES
0
LINE
8
BLACK
6
CONTINUOUS
10
77.0000029999999924
20
-45.0000009999999975
11
77.0000029999999924
21
-61.0000009999999975
0
ARC
8
BLACK
10
159.
20
-89.
40
2.0000010000022499
50
-270.00008594
51
-89.99991406
0
LINE
8
BLACK
6
CONTINUOUS
10
159.0000029999999924
20
-91.0000009999999975
11
175.0000029999999924
21
-91.0000009999999975
0
ARC
8
BLACK
10
54.9999699999999976
20
-89.
40
2.0000010002722499
50
-270.00094538
51
-89.99905462
0
LINE
8
BLACK
6
CONTINUOUS
10
159.0000029999999924
20
-43.0000009999999975
11
175.0000029999999924
21
-43.0000009999999975
0
ARC
8
BLACK
10
54.9999699999999976
20
-65.
40
2.0000010002722499
50
-270.00094538
51
-89.99905462
0
LINE
8
BLACK
6
CONTINUOUS
10
181.0000029999999924
20
-45.0000009999999975
11
181.0000029999999924
21
-61.0000009999999975
0
LINE
8
BLACK
6
CONTINUOUS
10
159.0000029999999924
20
-63.0000009999999975
11
175.0000029999999924
21
-63.0000009999999975
0
LINE
8
BLACK
6
CONTINUOUS
10
210.9999870000000044
20
-92.9999940000000009
11
206.9999870000000044
21
-92.9999940000000009
0
LINE
8
BLACK
6
CONTINUOUS
10
47.0000029999999995
20
-23.0000009999999975
11
47.0000029999999995
21
-19.0000009999999975
0
ARC
8
BLACK
10
70.9999699999999905
20
-65.
40
1.9999990002722499
50
-89.99905462
51
89.99905462
0
ARC
8
BLACK
10
83.0000029999999924
20
-69.0000009999999975
40
2.
50
0.00000000
51
180.00000000
0
LINE
8
BLACK
6
CONTINUOUS
10
66.
20
-112.
11
60.
21
-112.
0
ARC
8
BLACK
10
51.0000029999999995
20
-61.0000009999999975
40
2.
50
-180.00000000
51
-0.00000000
0
LINE
8
BLACK
6
CONTINUOUS
10
207.0000249999999937
20
-99.9999929999999893
11
206.9999870000000044
21
-95.9999940000000009
0
LINE
8
BLACK
6
CONTINUOUS
10
206.9999929999999893
20
-33.9999919999999989
11
207.0000239999999962
21
-30.0000029999999995
0
ARC
8
BLACK
10
159.
20
-65.
40
2.0000010000022499
50
-270.00008594
51
-89.99991406
0
ARC
8
BLACK
10
107.0000029999999924
20
-69.0000009999999975
40
2.
50
0.00000000
51
180.00000000
0
LINE
8
BLACK
6
CONTINUOUS
10
85.0000029999999924
20
-69.0000009999999975
11
85.0000029999999924
21
-85.0000009999999975
0
ARC
8
BLACK
10
143.
20
-89.
40
1.9999990000022501
50
-89.99991406
51
89.99991406
0
LINE
8
BLACK
6
CONTINUOUS
10
183.0000029999999924
20
-19.0000040000000006
11
183.0000029999999924
21
-23.0000040000000006
0
LINE
8
BLACK
6
CONTINUOUS
10
210.9999870000000044
20
-95.9999940000000009
11
210.9999870000000044
21
-92.9999940000000009
0
LINE
8
BLACK
6
CONTINUOUS
10
44.0000029999999995
20
-19.0000009999999975
11
44.0000029999999995
21
-23.0000009999999975
0
ARC
8
BLACK
10
175.
20
-65.
40
1.9999990000022501
50
-89.99991406
51
89.99991406
0
ARC
8
BLACK
10
143.
20
-65.
40
1.9999990000022501
50
-89.99991406
51
89.99991406
0
ARC
8
BLACK
10
155.0000029999999924
20
-85.0000009999999975
40
2.
50
-180.00000000
51
-0.00000000
0
ARC
8
BLACK
10
127.
20
-65.
40
2.0000010000022499
50
-270.00008594
51
-89.99991406
0
ARC
8
BLACK
10
54.9999699999999976
20
-41.
40
2.0000010002722499
50
-270.00094538
51
-89.99905462
0
LINE
8
BLACK
6
CONTINUOUS
10
125.0000029999999924
20
-45.0000009999999975
11
125.0000029999999924
21
-61.0000009999999975
0
LINE
8
BLACK
6
CONTINUOUS
10
127.0000029999999924
20
-67.0000009999999975
11
143.0000029999999924
21
-67.0000009999999975
0
LINE
8
BLACK
6
CONTINUOUS
10
149.0000029999999924
20
-45.0000009999999975
11
149.0000029999999924
21
-61.0000009999999975
0
LINE
8
BLACK
6
CONTINUOUS
10
105.0000029999999924
20
-69.0000009999999975
11
105.0000029999999924
21
-85.0000009999999975
0
LINE
8
BLACK
6
CONTINUOUS
10
153.0000029999999924
20
-45.0000009999999975
11
153.0000029999999924
21
-61.0000009999999975
0
ARC
8
BLACK
10
87.
20
-65.
40
2.0000010000022499
50
-270.00008594
51
-89.99991406
0
LINE
8
BLACK
6
CONTINUOUS
10
127.0000029999999924
20
-43.0000009999999975
11
143.0000029999999924
21
-43.0000009999999975
0
LINE
8
BLACK
6
CONTINUOUS
10
19.0000029999999995
20
-96.0000009999999975
11
23.0000029999999995
21
-96.0000009999999975
0
ARC
8
BLACK
10
200.
20
-100.
40
14.9999990000000327
50
-90.00001146
51
0.00000382
0
ARC
8
BLACK
10
70.9999699999999905
20
-89.
40
1.9999990002722499
50
-89.99905462
51
89.99905462
0
LINE
8
BLACK
6
CONTINUOUS
10
22.9999709999999986
20
-30.
11
23.0000089999999986
21
-33.9999989999999954
0
LINE
8
BLACK
6
CONTINUOUS
10
182.9881619999999884
20
-106.9999919999999918
11
182.9881619999999884
21
-110.9999919999999918
0
ARC
8
BLACK
10
175.
20
-89.
40
1.9999990000022501
50
-89.99991406
51
89.99991406
0
ARC
8
BLACK
10
30.
20
-100.
40
7.0000269999999993
50
-180.00008185
51
-90.00000000
0
LINE
8
BLACK
6
CONTINUOUS
10
186.
20
-110.9999919999999918
11
186.
21
-106.9999919999999918
0
LINE
8
BLACK
6
CONTINUOUS
10
55.0000029999999995
20
-43.0000009999999975
11
71.0000029999999924
21
-43.0000009999999975
0
ARC
8
BLACK
10
123.0000029999999924
20
-85.0000009999999975
40
2.
50
-180.00000000
51
-0.00000000
0
LINE
8
BLACK
6
CONTINUOUS
10
210.9999929999999893
20
-36.9999919999999989
11
210.9999929999999893
21
-33.9999919999999989
0
LINE
8
BLACK
6
CONTINUOUS
10
164.
20
-114.9998289999999912
11
66.
21
-115.
0
LINE
8
BLACK
6
CONTINUOUS
10
60.
20
-115.
11
29.999998999999999
21
-114.9999989999999883
0
LINE
8
BLACK
6
CONTINUOUS
10
55.0000029999999995
20
-39.0000009999999975
11
71.0000029999999924
21
-39.0000009999999975
0
ARC
8
BLACK
10
87.
20
-41.
40
2.0000010000022499
50
-270.00008594
51
-89.99991406
0
LINE
8
BLACK
6
CONTINUOUS
10
127.0000029999999924
20
-63.0000009999999975
11
143.0000029999999924
21
-63.0000009999999975
0
LINE
8
BLACK
6
CONTINUOUS
10
85.0000029999999924
20
-45.0000009999999975
11
85.0000029999999924
21
-61.0000009999999975
0
LINE
8
BLACK
6
CONTINUOUS
10
47.0000029999999995
20
-19.0000009999999975
11
44.0000029999999995
21
-19.0000009999999975
0
ARC
8
BLACK
10
107.0000029999999924
20
-45.0000009999999975
40
2.
50
0.00000000
51
180.00000000
0
LINE
8
BLACK
6
CONTINUOUS
10
127.0000029999999924
20
-39.0000009999999975
11
143.0000029999999924
21
-39.0000009999999975
0
LINE
8
BLACK
6
CONTINUOUS
10
200.
20
-114.9999989999999883
11
170.
21
-114.9999989999999883
0
LINE
8
BLACK
6
CONTINUOUS
10
19.0000029999999995
20
-93.0000009999999975
11
19.0000029999999995
21
-96.0000009999999975
0
ARC
8
BLACK
10
83.0000029999999924
20
-61.0000009999999975
40
2.
50
-180.00000000
51
-0.00000000
0
LINE
8
BLACK
6
CONTINUOUS
10
127.0000029999999924
20
-87.0000009999999975
11
143.0000029999999924
21
-87.0000009999999975
0
LINE
8
BLACK
6
CONTINUOUS
10
183.0000029999999924
20
-19.0000040000000006
11
186.0000029999999924
21
-19.0000040000000006
0
LINE
8
BLACK
6
CONTINUOUS
10
186.0000100000000032
20
-22.9999660000000006
11
186.0000029999999924
21
-19.0000040000000006
0
LINE
8
BLACK
6
CONTINUOUS
10
206.9999929999999893
20
-36.9999919999999989
11
210.9999929999999893
21
-36.9999919999999989
0
ARC
8
BLACK
10
107.0000029999999924
20
-61.0000009999999975
40
2.
50
-180.00000000
51
-0.00000000
0
LINE
8
BLACK
6
CONTINUOUS
10
159.0000029999999924
20
-39.0000009999999975
11
175.0000029999999924
21
-39.0000009999999975
0
LINE
8
BLACK
6
CONTINUOUS
10
19.0000089999999986
20
-36.9999989999999954
11
23.0000089999999986
21
-36.9999989999999954
0
ARC
8
BLACK
10
123.0000029999999924
20
-69.0000009999999975
40
2.
50
0.00000000
51
180.00000000
0
ARC
8
BLACK
10
200.
20
-100.
40
7.0000240000034992
50
-90.00010641
51
0.00005730
0
ARC
8
BLACK
10
179.0000029999999924
20
-61.0000009999999975
40
2.
50
-180.00000000
51
-0.00000000
0
LINE
8
BLACK
6
CONTINUOUS
10
200.0000049999999874
20
-15.0000009999999993
11
30.0000009999999975
21
-15.
0
LINE
8
BLACK
6
CONTINUOUS
10
55.0000029999999995
20
-91.0000009999999975
11
71.0000029999999924
21
-91.0000009999999975
0
ARC
8
BLACK
10
127.
20
-41.
40
2.0000010000022499
50
-270.00008594
51
-89.99991406
0
ARC
8
BLACK
10
83.0000029999999924
20
-45.0000009999999975
40
2.
50
0.00000000
51
180.00000000
0
LINE
8
BLACK
6
CONTINUOUS
10
55.0000029999999995
20
-87.0000009999999975
11
71.0000029999999924
21
-87.0000009999999975
0
CIRCLE
8
BLACK
10
151.000001999999995
20
-41.0000730000000004
40
2.
0
ARC
8
BLACK
10
52.
20
-88.
40
5.0000000000099991
50
-180.00000000
51
-89.99988541
0
LINE
8
BLACK
6
CONTINUOUS
10
164.
20
-112.
11
164.
21
-114.9998289999999912
0
LINE
8
BLACK
6
CONTINUOUS
10
182.9881619999999884
20
-110.9999919999999918
11
185.9881619999999884
21
-110.9999919999999918
0
CIRCLE
8
BLACK
10
115.000001999999995
20
-89.0000730000000004
40
2.
0
LINE
8
BLACK
6
CONTINUOUS
10
183.0000029999999924
20
-23.0000040000000006
11
47.0000029999999995
21
-23.0000009999999975
0
LINE
8
BLACK
6
CONTINUOUS
10
49.0000029999999995
20
-69.0000009999999975
11
49.0000029999999995
21
-85.0000009999999975
0
ARC
8
BLACK
10
179.0000029999999924
20
-69.0000009999999975
40
2.
50
0.00000000
51
180.00000000
0
LINE
8
BLACK
6
CONTINUOUS
10
200.0000100000000032
20
-22.9999669999999981
11
199.9999990000000025
21
-15.
0
ARC
8
BLACK
10
87.
20
-89.
40
2.0000010000022499
50
-270.00008594
51
-89.99991406
0
LINE
8
BLACK
6
CONTINUOUS
10
66.
20
-115.
11
66.
21
-112.
0
LINE
8
BLACK
6
CONTINUOUS
10
177.0000029999999924
20
-69.0000009999999975
11
177.0000029999999924
21
-85.0000009999999975
0
LINE
8
BLACK
6
CONTINUOUS
10
157.0000029999999924
20
-45.0000009999999975
11
157.0000029999999924
21
-61.0000009999999975
0
LINE
8
BLACK
6
CONTINUOUS
10
199.9999949999999842
20
-22.9999669999999981
11
186.0000100000000032
21
-22.9999660000000006
0
LINE
8
BLACK
6
CONTINUOUS
10
23.0000029999999995
20
-93.0000009999999975
11
19.0000029999999995
21
-93.0000009999999975
0
LINE
8
BLACK
6
CONTINUOUS
10
87.0000029999999924
20
-67.0000009999999975
11
103.0000029999999924
21
-67.0000009999999975
0
LINE
8
BLACK
6
CONTINUOUS
10
23.0000029999999995
20
-96.0000009999999975
11
22.9999719999999996
21
-99.9999899999999968
0
LINE
8
BLACK
6
CONTINUOUS
10
109.0000029999999924
20
-45.0000009999999975
11
109.0000029999999924
21
-61.0000009999999975
0
ARC
8
BLACK
10
51.0000029999999995
20
-85.0000009999999975
40
2.
50
-180.00000000
51
-0.00000000
0
LINE
8
BLACK
6
CONTINUOUS
10
149.0000029999999924
20
-69.0000009999999975
11
149.0000029999999924
21
-85.0000009999999975
0
ARC
8
BLACK
10
179.0000029999999924
20
-45.0000009999999975
40
2.
50
0.00000000
51
180.00000000
0
LINE
8
BLACK
6
CONTINUOUS
10
186.
20
-106.9999919999999918
11
199.9999870000000044
21
-107.0000220000000013
0
LINE
8
BLACK
6
CONTINUOUS
10
87.0000029999999924
20
-91.0000009999999975
11
103.0000029999999924
21
-91.0000009999999975
0
LINE
8
BLACK
6
CONTINUOUS
10
29.999998999999999
20
-114.9999989999999883
11
29.9999879999999983
21
-107.0000319999999903
0
ARC
8
BLACK
10
75.0000029999999924
20
-45.0000009999999975
40
2.
50
0.00000000
51
180.00000000
0
ARC
8
BLACK
10
51.0000029999999995
20
-45.0000009999999975
40
2.
50
0.00000000
51
180.00000000
0
LINE
8
BLACK
6
CONTINUOUS
10
157.0000029999999924
20
-69.0000009999999975
11
157.0000029999999924
21
-85.0000009999999975
0
ARC
8
BLACK
10
103.
20
-89.
40
1.9999990000022501
50
-89.99991406
51
89.99991406
0
LINE
8
BLACK
6
CONTINUOUS
10
73.0000029999999924
20
-45.0000009999999975
11
73.0000029999999924
21
-61.0000009999999975
0
ARC
8
BLACK
10
103.
20
-65.
40
1.9999990000022501
50
-89.99991406
51
89.99991406
0
LINE
8
BLACK
6
CONTINUOUS
10
60.
20
-112.
11
60.
21
-115.
0
LINE
8
BLACK
6
CONTINUOUS
10
47.0000099999999961
20
-42.
11
47.0000099999999961
21
-88.
0
LINE
8
BLACK
6
CONTINUOUS
10
125.0000029999999924
20
-69.0000009999999975
11
125.0000029999999924
21
-85.0000009999999975
0
LINE
8
BLACK
6
CONTINUOUS
10
77.0000029999999924
20
-69.0000009999999975
11
77.0000029999999924
21
-85.0000009999999975
0
ARC
8
BLACK
10
70.9999699999999905
20
-41.
40
1.9999990002722499
50
-89.99905462
51
89.99905462
0
LINE
8
BLACK
6
CONTINUOUS
10
87.0000029999999924
20
-87.0000009999999975
11
103.0000029999999924
21
-87.0000009999999975
0
LINE
8
BLACK
6
CONTINUOUS
10
30.
20
-22.9999709999999986
11
30.0000009999999975
21
-15.
0
ARC
8
BLACK
10
127.
20
-89.
40
2.0000010000022499
50
-270.00008594
51
-89.99991406
0
ARC
8
BLACK
10
75.0000029999999924
20
-85.0000009999999975
40
2.
50
-180.00000000
51
-0.00000000
0
ARC
8
BLACK
10
147.0000029999999924
20
-61.0000009999999975
40
2.
50
-180.00000000
51
-0.00000000
0
LINE
8
BLACK
6
CONTINUOUS
10
43.988154999999999
20
-107.0000269999999887
11
43.9881619999999955
21
-110.9999889999999994
0
LINE
8
BLACK
6
CONTINUOUS
10
81.0000029999999924
20
-45.0000009999999975
11
81.0000029999999924
21
-61.0000009999999975
0
LINE
8
BLACK
6
CONTINUOUS
10
55.0000029999999995
20
-67.0000009999999975
11
71.0000029999999924
21
-67.0000009999999975
0
CIRCLE
8
BLACK
10
115.000001999999995
20
-59.0000730000000004
40
2.
0
ARC
8
BLACK
10
155.0000029999999924
20
-61.0000009999999975
40
2.
50
-180.00000000
51
-0.00000000
0
ARC
8
BLACK
10
30.
20
-30.
40
15.000001000000033
50
89.99999618
51
179.99999618
0
ARC
8
BLACK
10
30.
20
-30.
40
7.0000289999999996
50
89.99993452
51
180.00000000
0
LINE
8
BLACK
6
CONTINUOUS
10
87.0000029999999924
20
-43.0000009999999975
11
103.0000029999999924
21
-43.0000009999999975
0
LINE
8
BLACK
6
CONTINUOUS
10
87.0000029999999924
20
-63.0000009999999975
11
103.0000029999999924
21
-63.0000009999999975
0
ARC
8
BLACK
10
52.
20
-42.
40
4.9999899999999995
50
89.99988541
51
180.00000000
0
ARC
8
BLACK
10
51.0000029999999995
20
-69.0000009999999975
40
2.
50
0.00000000
51
180.00000000
0
LINE
8
BLACK
6
CONTINUOUS
10
87.0000029999999924
20
-39.0000009999999975
11
103.0000029999999924
21
-39.0000009999999975
0
ARC
8
BLACK
10
155.0000029999999924
20
-45.0000009999999975
40
2.
50
0.00000000
51
180.00000000
0
LINE
8
BLACK
6
CONTINUOUS
10
159.0000029999999924
20
-87.0000009999999975
11
175.0000029999999924
21
-87.0000009999999975
0
ARC
8
BLACK
10
75.0000029999999924
20
-69.0000009999999975
40
2.
50
0.00000000
51
180.00000000
0
LINE
8
BLACK
6
CONTINUOUS
10
153.0000029999999924
20
-69.0000009999999975
11
153.0000029999999924
21
-85.0000009999999975
0
ARC
8
BLACK
10
179.0000029999999924
20
-85.0000009999999975
40
2.
50
-180.00000000
51
-0.00000000
0
ARC
8
BLACK
10
123.0000029999999924
20
-45.0000009999999975
40
2.
50
0.00000000
51
180.00000000
0
LINE
8
BLACK
6
CONTINUOUS
10
199.9999969999999792
20
-114.9999989999999883
11
199.9999859999999785
21
-107.0000319999999903
0
LINE
8
BLACK
6
CONTINUOUS
10
53.0000029999999995
20
-69.0000009999999975
11
53.0000029999999995
21
-85.0000009999999975
0
LINE
8
BLACK
6
CONTINUOUS
10
23.0000089999999986
20
-33.9999989999999954
11
19.0000089999999986
21
-33.9999989999999954
0
ARC
8
BLACK
10
123.0000029999999924
20
-61.0000009999999975
40
2.
50
-180.00000000
51
-0.00000000
0
ARC
8
BLACK
10
147.0000029999999924
20
-45.0000009999999975
40
2.
50
0.00000000
51
180.00000000
0
LINE
8
BLACK
6
CONTINUOUS
10
49.0000029999999995
20
-45.0000009999999975
11
49.0000029999999995
21
-61.0000009999999975
0
LINE
8
BLACK
6
CONTINUOUS
10
53.0000029999999995
20
-45.0000009999999975
11
53.0000029999999995
21
-61.0000009999999975
0
ARC
8
BLACK
10
75.0000029999999924
20
-61.0000009999999975
40
2.
50
-180.00000000
51
-0.00000000
0
ARC
8
BLACK
10
178.
20
-42.
40
5.0000000000099991
50
0.00000000
51
89.99988541
0
LINE
8
BLACK
6
CONTINUOUS
10
109.0000029999999924
20
-69.0000009999999975
11
109.0000029999999924
21
-85.0000009999999975
0
ARC
8
BLACK
10
159.
20
-41.
40
2.0000010000022499
50
-270.00008594
51
-89.99991406
0
LINE
8
BLACK
6
CONTINUOUS
10
105.0000029999999924
20
-45.0000009999999975
11
105.0000029999999924
21
-61.0000009999999975
0
LINE
8
BLACK
6
CONTINUOUS
10
170.
20
-112.
11
164.
21
-112.
0
ARC
8
BLACK
10
30.
20
-100.
40
14.9999990000000327
50
-180.00001146
51
-90.00000382
0
LINE
8
BLACK
6
CONTINUOUS
10
29.9881700000000002
20
-107.0000259999999912
11
43.988154999999999
21
-107.0000269999999887
0
LINE
8
BLACK
6
CONTINUOUS
10
121.0000029999999924
20
-45.0000009999999975
11
121.0000029999999924
21
-61.0000009999999975
0
LINE
8
BLACK
6
CONTINUOUS
10
178.0000100000000032
20
-37.
11
52.0000099999999961
21
-37.
0
ARC
8
BLACK
10
175.
20
-41.
40
1.9999990000022501
50
-89.99991406
51
89.99991406
0
LINE
8
BLACK
6
CONTINUOUS
10
121.0000029999999924
20
-69.0000009999999975
11
121.0000029999999924
21
-85.0000009999999975
0
LINE
8
BLACK
6
CONTINUOUS
10
145.0000029999999924
20
-69.0000009999999975
11
145.0000029999999924
21
-85.0000009999999975
0
LINE
8
BLACK
6
CONTINUOUS
10
159.0000029999999924
20
-67.0000009999999975
11
175.0000029999999924
21
-67.0000009999999975
0
ARC
8
BLACK
10
103.
20
-41.
40
1.9999990000022501
50
-89.99991406
51
89.99991406
0
ARC
8
BLACK
10
200.
20
-30.
40
15.000001000000033
50
-0.00000382
51
90.00000382
0
LINE
8
BLACK
6
CONTINUOUS
10
210.9999929999999893
20
-33.9999919999999989
11
206.9999929999999893
21
-33.9999919999999989
0
LINE
8
BLACK
6
CONTINUOUS
10
15.0000029999999995
20
-29.9999839999999978
11
14.999998999999999
21
-99.9999969999999934
0
LINE
8
BLACK
6
CONTINUOUS
10
206.9999870000000044
20
-95.9999940000000009
11
210.9999870000000044
21
-95.9999940000000009
0
LINE
8
BLACK
6
CONTINUOUS
10
52.0000099999999961
20
-93.
11
177.9899999999999807
21
-93.
0
LINE
8
BLACK
6
CONTINUOUS
10
170.
20
-114.9999989999999883
11
170.
21
-112.
0
LINE
8
BLACK
6
CONTINUOUS
10
127.0000029999999924
20
-91.0000009999999975
11
143.0000029999999924
21
-91.0000009999999975
0
LINE
8
BLACK
6
CONTINUOUS
10
177.0000029999999924
20
-45.0000009999999975
11
177.0000029999999924
21
-61.0000009999999975
0
LINE
8
BLACK
6
CONTINUOUS
10
181.0000029999999924
20
-69.0000009999999975
11
181.0000029999999924
21
-85.0000009999999975
0
ARC
8
BLACK
10
147.0000029999999924
20
-85.0000009999999975
40
2.
50
-180.00000000
51
-0.00000000
0
LINE
8
BLACK
6
CONTINUOUS
10
46.9881619999999955
20
-110.9999889999999994
11
46.9881619999999955
21
-106.9999889999999994
0
ARC
8
BLACK
10
178.
20
-88.
40
5.0000099999999996
50
-89.99988541
51
-0.00000000
0
LINE
8
BLACK
6
CONTINUOUS
10
183.0000100000000032
20
-88.
11
183.0000100000000032
21
-42.
0
ARC
8
BLACK
10
147.0000029999999924
20
-69.0000009999999975
40
2.
50
0.00000000
51
180.00000000
0
LINE
8
BLACK
6
CONTINUOUS
10
44.0000029999999995
20
-23.0000009999999975
11
30.0000149999999977
21
-22.9999709999999986
0
LINE
8
BLACK
6
CONTINUOUS
10
23.0000089999999986
20
-36.9999989999999954
11
23.0000029999999995
21
-93.0000009999999975
0
LINE
8
BLACK
6
CONTINUOUS
10
81.0000029999999924
20
-69.0000009999999975
11
81.0000029999999924
21
-85.0000009999999975
0
ARC
8
BLACK
10
107.0000029999999924
20
-85.0000009999999975
40
2.
50
-180.00000000
51
-0.00000000
0
LINE
8
BLACK
6
CONTINUOUS
10
145.0000029999999924
20
-45.0000009999999975
11
145.0000029999999924
21
-61.0000009999999975
0
LINE
8
BLACK
6
CONTINUOUS
10
55.0000029999999995
20
-63.0000009999999975
11
71.0000029999999924
21
-63.0000009999999975
0
LINE
8
BLACK
6
CONTINUOUS
10
206.9999870000000044
20
-92.9999940000000009
11
206.9999929999999893
21
-36.9999919999999989
0
LINE
8
BLACK
6
CONTINUOUS
10
214.9999990000000025
20
-99.999968999999993
11
214.9999979999999766
21
-30.0000009999999975
0
LINE
8
BLACK
6
CONTINUOUS
10
46.9881619999999955
20
-110.9999889999999994
11
43.9881619999999955
21
-110.9999889999999994
0
LINE
8
BLACK
6
CONTINUOUS
10
19.0000089999999986
20
-33.9999989999999954
11
19.0000089999999986
21
-36.9999989999999954
0
LINE
8
BLACK
6
CONTINUOUS
10
47.
20
-106.9999919999999918
11
182.9881619999999884
21
-106.9999919999999918
0
ARC
8
BLACK
10
200.
20
-30.
40
7.0000340000017847
50
-0.00002456
51
90.00004093
0
ARC
8
BLACK
10
83.0000029999999924
20
-85.0000009999999975
40
2.
50
-180.00000000
51
-0.00000000
0
ARC
8
BLACK
10
155.0000029999999924
20
-69.0000009999999975
40
2.
50
0.00000000
51
180.00000000
0
CIRCLE
8
BLACK
10
115.000001999999995
20
-71.0000730000000004
40
2.
0
LINE
8
BLACK
6
CONTINUOUS
10
73.0000029999999924
20
-69.0000009999999975
11
73.0000029999999924
21
-85.0000009999999975
0
ARC
8
BLACK
10
143.
20
-41.
40
1.9999990000022501
50
-89.99991406
51
89.99991406
0
LINE
8
BLACK
6
CONTINUOUS
10
115.6428559999999948
20
-17.5112139999999989
11
115.9285709999999909
21
-17.3683569999999996
0
LINE
8
BLACK
6
CONTINUOUS
10
115.9285709999999909
20
-17.3683569999999996
11
116.3571419999999961
21
-17.3683569999999996
0
LINE
8
BLACK
6
CONTINUOUS
10
116.3571419999999961
20
-17.3683569999999996
11
116.7857130000000012
21
-17.5112139999999989
0
LINE
8
BLACK
6
CONTINUOUS
10
116.7857130000000012
20
-17.5112139999999989
11
117.0714279999999974
21
-17.7969279999999976
0
LINE
8
BLACK
6
CONTINUOUS
10
117.0714279999999974
20
-17.7969279999999976
11
117.2142849999999896
21
-18.0826419999999999
0
LINE
8
BLACK
6
CONTINUOUS
10
117.2142849999999896
20
-18.0826419999999999
11
117.3571419999999961
21
-18.6540709999999983
0
LINE
8
BLACK
6
CONTINUOUS
10
117.3571419999999961
20
-18.6540709999999983
11
117.3571419999999961
21
-19.0826419999999999
0
LINE
8
BLACK
6
CONTINUOUS
10
117.3571419999999961
20
-19.0826419999999999
11
117.2142849999999896
21
-19.6540709999999983
0
LINE
8
BLACK
6
CONTINUOUS
10
117.2142849999999896
20
-19.6540709999999983
11
117.0714279999999974
21
-19.9397850000000005
0
LINE
8
BLACK
6
CONTINUOUS
10
117.0714279999999974
20
-19.9397850000000005
11
116.7857130000000012
21
-20.2255000000000003
0
LINE
8
BLACK
6
CONTINUOUS
10
116.7857130000000012
20
-20.2255000000000003
11
116.3571419999999961
21
-20.3683569999999996
0
LINE
8
BLACK
6
CONTINUOUS
10
116.3571419999999961
20
-20.3683569999999996
11
116.0714279999999974
21
-20.3683569999999996
0
LINE
8
BLACK
6
CONTINUOUS
10
116.0714279999999974
20
-20.3683569999999996
11
115.6428559999999948
21
-20.2255000000000003
0
LINE
8
BLACK
6
CONTINUOUS
10
115.6428559999999948
20
-20.2255000000000003
11
115.4999989999999883
21
-20.0826419999999999
0
LINE
8
BLACK
6
CONTINUOUS
10
115.4999989999999883
20
-20.0826419999999999
11
115.4999989999999883
21
-19.0826419999999999
0
LINE
8
BLACK
6
CONTINUOUS
10
115.4999989999999883
20
-19.0826419999999999
11
116.0714279999999974
21
-19.0826419999999999
0
LINE
8
BLACK
6
CONTINUOUS
10
114.4999989999999883
20
-17.3683569999999996
11
112.6428559999999948
21
-17.3683569999999996
0
LINE
8
BLACK
6
CONTINUOUS
10
112.6428559999999948
20
-17.3683569999999996
11
113.6428559999999948
21
-18.5112139999999989
0
LINE
8
BLACK
6
CONTINUOUS
10
113.6428559999999948
20
-18.5112139999999989
11
113.2142849999999896
21
-18.5112139999999989
0
LINE
8
BLACK
6
CONTINUOUS
10
113.2142849999999896
20
-18.5112139999999989
11
112.9285709999999909
21
-18.6540709999999983
0
LINE
8
BLACK
6
CONTINUOUS
10
112.9285709999999909
20
-18.6540709999999983
11
112.7857130000000012
21
-18.7969279999999976
0
LINE
8
BLACK
6
CONTINUOUS
10
112.7857130000000012
20
-18.7969279999999976
11
112.6428559999999948
21
-19.0826419999999999
0
LINE
8
BLACK
6
CONTINUOUS
10
112.6428559999999948
20
-19.0826419999999999
11
112.6428559999999948
21
-19.7969279999999976
0
LINE
8
BLACK
6
CONTINUOUS
10
112.6428559999999948
20
-19.7969279999999976
11
112.7857130000000012
21
-20.0826419999999999
0
LINE
8
BLACK
6
CONTINUOUS
10
112.7857130000000012
20
-20.0826419999999999
11
112.9285709999999909
21
-20.2255000000000003
0
LINE
8
BLACK
6
CONTINUOUS
10
112.9285709999999909
20
-20.2255000000000003
11
113.2142849999999896
21
-20.3683569999999996
0
LINE
8
BLACK
6
CONTINUOUS
10
113.2142849999999896
20
-20.3683569999999996
11
114.0714279999999974
21
-20.3683569999999996
0
LINE
8
BLACK
6
CONTINUOUS
10
114.0714279999999974
20
-20.3683569999999996
11
114.3571419999999961
21
-20.2255000000000003
0
LINE
8
BLACK
6
CONTINUOUS
10
114.3571419999999961
20
-20.2255000000000003
11
114.4999989999999883
21
-20.0826419999999999
0
LINE
8
BLACK
6
CONTINUOUS
10
117.2142849999999896
20
-112.3683569999999889
11
117.2142849999999896
21
-109.3683569999999889
0
LINE
8
BLACK
6
CONTINUOUS
10
117.2142849999999896
20
-109.3683569999999889
11
116.4999989999999883
21
-109.3683569999999889
0
LINE
8
BLACK
6
CONTINUOUS
10
116.4999989999999883
20
-109.3683569999999889
11
116.0714279999999974
21
-109.5112139999999954
0
LINE
8
BLACK
6
CONTINUOUS
10
116.0714279999999974
20
-109.5112139999999954
11
115.7857130000000012
21
-109.7969279999999941
0
LINE
8
BLACK
6
CONTINUOUS
10
115.7857130000000012
20
-109.7969279999999941
11
115.6428559999999948
21
-110.0826419999999928
0
LINE
8
BLACK
6
CONTINUOUS
10
115.6428559999999948
20
-110.0826419999999928
11
115.4999989999999883
21
-110.6540710000000018
0
LINE
8
BLACK
6
CONTINUOUS
10
115.4999989999999883
20
-110.6540710000000018
11
115.4999989999999883
21
-111.0826419999999928
0
LINE
8
BLACK
6
CONTINUOUS
10
115.4999989999999883
20
-111.0826419999999928
11
115.6428559999999948
21
-111.6540710000000018
0
LINE
8
BLACK
6
CONTINUOUS
10
115.6428559999999948
20
-111.6540710000000018
11
115.7857130000000012
21
-111.9397850000000005
0
LINE
8
BLACK
6
CONTINUOUS
10
115.7857130000000012
20
-111.9397850000000005
11
116.0714279999999974
21
-112.2254999999999967
0
LINE
8
BLACK
6
CONTINUOUS
10
116.0714279999999974
20
-112.2254999999999967
11
116.4999989999999883
21
-112.3683569999999889
0
LINE
8
BLACK
6
CONTINUOUS
10
116.4999989999999883
20
-112.3683569999999889
11
117.2142849999999896
21
-112.3683569999999889
0
LINE
8
BLACK
6
CONTINUOUS
10
114.4999989999999883
20
-109.3683569999999889
11
112.6428559999999948
21
-109.3683569999999889
0
LINE
8
BLACK
6
CONTINUOUS
10
112.6428559999999948
20
-109.3683569999999889
11
113.6428559999999948
21
-110.5112139999999954
0
LINE
8
BLACK
6
CONTINUOUS
10
113.6428559999999948
20
-110.5112139999999954
11
113.2142849999999896
21
-110.5112139999999954
0
LINE
8
BLACK
6
CONTINUOUS
10
113.2142849999999896
20
-110.5112139999999954
11
112.9285709999999909
21
-110.6540710000000018
0
LINE
8
BLACK
6
CONTINUOUS
10
112.9285709999999909
20
-110.6540710000000018
11
112.7857130000000012
21
-110.7969279999999941
0
LINE
8
BLACK
6
CONTINUOUS
10
112.7857130000000012
20
-110.7969279999999941
11
112.6428559999999948
21
-111.0826419999999928
0
LINE
8
BLACK
6
CONTINUOUS
10
112.6428559999999948
20
-111.0826419999999928
11
112.6428559999999948
21
-111.7969279999999941
0
LINE
8
BLACK
6
CONTINUOUS
10
112.6428559999999948
20
-111.7969279999999941
11
112.7857130000000012
21
-112.0826419999999928
0
LINE
8
BLACK
6
CONTINUOUS
10
112.7857130000000012
20
-112.0826419999999928
11
112.9285709999999909
21
-112.2254999999999967
0
LINE
8
BLACK
6
CONTINUOUS
10
112.9285709999999909
20
-112.2254999999999967
11
113.2142849999999896
21
-112.3683569999999889
0
LINE
8
BLACK
6
CONTINUOUS
10
113.2142849999999896
20
-112.3683569999999889
11
114.0714279999999974
21
-112.3683569999999889
0
LINE
8
BLACK
6
CONTINUOUS
10
114.0714279999999974
20
-112.3683569999999889
11
114.3571419999999961
21
-112.2254999999999967
0
LINE
8
BLACK
6
CONTINUOUS
10
114.3571419999999961
20
-112.2254999999999967
11
114.4999989999999883
21
-112.0826419999999928
  0
ENDSEC
  0
EOF
