  0
SECTION
  2
HEADER
  9
$ANGBASE
  50
0.0
  9
$ANGDIR
  70
1
  9
$MEASUREMENT
  70
1
  0
ENDSEC
  0
SECTION
  2
TABLES
  0
TABLE
  2
LTYPE
  70
4
  0
LTYPE
  5
40F
  2
CONTINUOUS
  70
0
  3
Solid line
  72
65
  73
0
  40
0.0
  0
LTYPE
  5
410
  2
DASHDOT
 70
0
  3
Dash Dot ____ _ ____ _
 72
65
 73
4
 40
2.0
 49
1.25
 49
-0.25
 49
0.25
 49
-0.25
  0
LTYPE
  5
411
  2
DASHED
 70
0
  3
Dashed __ __ __ __ __
 72
65
 73
2
 40
0.75
 49
0.5
 49
-0.25
  0
LTYPE
  5
43B
  2
DOTTED
 70
0
  3
Dotted .  .  .  .
 72
65
 73
2
 40
0.2
 49
0.0
 49
-0.2
  0
ENDTAB
  0
TABLE
  2
STYLE
  70
4
  0
STYLE
  2
KICAD
  70
0
  40
0
  41
1
  42
1
  50
0
  71
0
  3
isocp.shx
  0
STYLE
  2
KICADB
  70
0
  40
0
  41
1
  42
1
  50
0
  71
0
  3
isocp.shx
  0
STYLE
  2
KICADI
  70
0
  40
0
  41
1
  42
1
  50
15
  71
0
  3
isocp.shx
  0
STYLE
  2
KICADBI
  70
0
  40
0
  41
1
  42
1
  50
15
  71
0
  3
isocp.shx
  0
ENDTAB
  0
TABLE
  2
LAYER
  70
1
  0
LAYER
  2
BLACK
  70
0
  62
7
  6
CONTINUOUS
  0
ENDTAB
  0
ENDSEC
  0
SECTION
  2
ENTITIES
0
LINE
8
BLACK
6
CONTINUOUS
10
786.
20
-39.5000999999999962
11
996.
21
-39.5000999999999962
0
LINE
8
BLACK
6
CONTINUOUS
10
996.
20
-39.5000999999999962
11
996.
21
-336.5000999999999749
0
LINE
8
BLACK
6
CONTINUOUS
10
996.
20
-336.5000999999999749
11
786.
21
-336.5000999999999749
0
LINE
8
BLACK
6
CONTINUOUS
10
786.
20
-336.5000999999999749
11
786.
21
-39.5000999999999962
0
LINE
8
BLACK
6
CONTINUOUS
10
174.1939219999999864
20
-29.8698189999999997
11
174.7653499999999838
21
-29.8698189999999997
0
LINE
8
BLACK
6
CONTINUOUS
10
174.4796359999999993
20
-30.8698189999999997
11
174.4796359999999993
21
-29.8698189999999997
0
LINE
8
BLACK
6
CONTINUOUS
10
175.6224929999999915
20
-29.9174379999999971
11
175.5272549999999967
21
-29.8698189999999997
0
LINE
8
BLACK
6
CONTINUOUS
10
175.5272549999999967
20
-29.8698189999999997
11
175.3843980000000045
21
-29.8698189999999997
0
LINE
8
BLACK
6
CONTINUOUS
10
175.3843980000000045
20
-29.8698189999999997
11
175.2415409999999838
21
-29.9174379999999971
0
LINE
8
BLACK
6
CONTINUOUS
10
175.2415409999999838
20
-29.9174379999999971
11
175.146302999999989
21
-30.012675999999999
0
LINE
8
BLACK
6
CONTINUOUS
10
175.146302999999989
20
-30.012675999999999
11
175.0986839999999916
21
-30.1079139999999974
0
LINE
8
BLACK
6
CONTINUOUS
10
175.0986839999999916
20
-30.1079139999999974
11
175.0510649999999941
21
-30.2983899999999977
0
LINE
8
BLACK
6
CONTINUOUS
10
175.0510649999999941
20
-30.2983899999999977
11
175.0510649999999941
21
-30.4412469999999971
0
LINE
8
BLACK
6
CONTINUOUS
10
175.0510649999999941
20
-30.4412469999999971
11
175.0986839999999916
21
-30.6317229999999974
0
LINE
8
BLACK
6
CONTINUOUS
10
175.0986839999999916
20
-30.6317229999999974
11
175.146302999999989
21
-30.7269609999999993
0
LINE
8
BLACK
6
CONTINUOUS
10
175.146302999999989
20
-30.7269609999999993
11
175.2415409999999838
21
-30.8221999999999987
0
LINE
8
BLACK
6
CONTINUOUS
10
175.2415409999999838
20
-30.8221999999999987
11
175.3843980000000045
21
-30.8698189999999997
0
LINE
8
BLACK
6
CONTINUOUS
10
175.3843980000000045
20
-30.8698189999999997
11
175.4796359999999993
21
-30.8698189999999997
0
LINE
8
BLACK
6
CONTINUOUS
10
175.4796359999999993
20
-30.8698189999999997
11
175.6224929999999915
21
-30.8221999999999987
0
LINE
8
BLACK
6
CONTINUOUS
10
175.6224929999999915
20
-30.8221999999999987
11
175.6701119999999889
21
-30.7745800000000003
0
LINE
8
BLACK
6
CONTINUOUS
10
175.6701119999999889
20
-30.7745800000000003
11
175.6701119999999889
21
-30.4412469999999971
0
LINE
8
BLACK
6
CONTINUOUS
10
175.6701119999999889
20
-30.4412469999999971
11
175.4796359999999993
21
-30.4412469999999971
0
LINE
8
BLACK
6
CONTINUOUS
10
176.0034459999999967
20
-29.8698189999999997
11
176.2415409999999838
21
-30.8698189999999997
0
LINE
8
BLACK
6
CONTINUOUS
10
176.2415409999999838
20
-30.8698189999999997
11
176.4320170000000019
21
-30.1555329999999984
0
LINE
8
BLACK
6
CONTINUOUS
10
176.4320170000000019
20
-30.1555329999999984
11
176.6224929999999915
21
-30.8698189999999997
0
LINE
8
BLACK
6
CONTINUOUS
10
176.6224929999999915
20
-30.8698189999999997
11
176.8605890000000045
21
-29.8698189999999997
0
LINE
8
BLACK
6
CONTINUOUS
10
177.7177309999999864
20
-30.8698189999999997
11
177.2415409999999838
21
-30.8698189999999997
0
LINE
8
BLACK
6
CONTINUOUS
10
177.2415409999999838
20
-30.8698189999999997
11
177.2415409999999838
21
-29.8698189999999997
0
LINE
8
BLACK
6
CONTINUOUS
10
178.6224929999999915
20
-30.7745800000000003
11
178.5748739999999941
21
-30.8221999999999987
0
LINE
8
BLACK
6
CONTINUOUS
10
178.5748739999999941
20
-30.8221999999999987
11
178.4320170000000019
21
-30.8698189999999997
0
LINE
8
BLACK
6
CONTINUOUS
10
178.4320170000000019
20
-30.8698189999999997
11
178.3367789999999786
21
-30.8698189999999997
0
LINE
8
BLACK
6
CONTINUOUS
10
178.3367789999999786
20
-30.8698189999999997
11
178.1939219999999864
21
-30.8221999999999987
0
LINE
8
BLACK
6
CONTINUOUS
10
178.1939219999999864
20
-30.8221999999999987
11
178.0986839999999916
21
-30.7269609999999993
0
LINE
8
BLACK
6
CONTINUOUS
10
178.0986839999999916
20
-30.7269609999999993
11
178.0510649999999941
21
-30.6317229999999974
0
LINE
8
BLACK
6
CONTINUOUS
10
178.0510649999999941
20
-30.6317229999999974
11
178.0034459999999967
21
-30.4412469999999971
0
LINE
8
BLACK
6
CONTINUOUS
10
178.0034459999999967
20
-30.4412469999999971
11
178.0034459999999967
21
-30.2983899999999977
0
LINE
8
BLACK
6
CONTINUOUS
10
178.0034459999999967
20
-30.2983899999999977
11
178.0510649999999941
21
-30.1079139999999974
0
LINE
8
BLACK
6
CONTINUOUS
10
178.0510649999999941
20
-30.1079139999999974
11
178.0986839999999916
21
-30.012675999999999
0
LINE
8
BLACK
6
CONTINUOUS
10
178.0986839999999916
20
-30.012675999999999
11
178.1939219999999864
21
-29.9174379999999971
0
LINE
8
BLACK
6
CONTINUOUS
10
178.1939219999999864
20
-29.9174379999999971
11
178.3367789999999786
21
-29.8698189999999997
0
LINE
8
BLACK
6
CONTINUOUS
10
178.3367789999999786
20
-29.8698189999999997
11
178.4320170000000019
21
-29.8698189999999997
0
LINE
8
BLACK
6
CONTINUOUS
10
178.4320170000000019
20
-29.8698189999999997
11
178.5748739999999941
21
-29.9174379999999971
0
LINE
8
BLACK
6
CONTINUOUS
10
178.5748739999999941
20
-29.9174379999999971
11
178.6224929999999915
21
-29.9650569999999981
0
LINE
8
BLACK
6
CONTINUOUS
10
180.3367789999999786
20
-30.8698189999999997
11
179.7653509999999812
21
-30.8698189999999997
0
LINE
8
BLACK
6
CONTINUOUS
10
180.0510649999999941
20
-30.8698189999999997
11
180.0510649999999941
21
-29.8698189999999997
0
LINE
8
BLACK
6
CONTINUOUS
10
180.0510649999999941
20
-29.8698189999999997
11
179.9558269999999993
21
-30.012675999999999
0
LINE
8
BLACK
6
CONTINUOUS
10
179.9558269999999993
20
-30.012675999999999
11
179.8605890000000045
21
-30.1079139999999974
0
LINE
8
BLACK
6
CONTINUOUS
10
179.8605890000000045
20
-30.1079139999999974
11
179.7653509999999812
21
-30.1555329999999984
0
LINE
8
BLACK
6
CONTINUOUS
10
180.7653509999999812
20
-30.7745800000000003
11
180.8129699999999787
21
-30.8221999999999987
0
LINE
8
BLACK
6
CONTINUOUS
10
180.8129699999999787
20
-30.8221999999999987
11
180.7653509999999812
21
-30.8698189999999997
0
LINE
8
BLACK
6
CONTINUOUS
10
180.7653509999999812
20
-30.8698189999999997
11
180.7177319999999838
21
-30.8221999999999987
0
LINE
8
BLACK
6
CONTINUOUS
10
180.7177319999999838
20
-30.8221999999999987
11
180.7653509999999812
21
-30.7745800000000003
0
LINE
8
BLACK
6
CONTINUOUS
10
180.7653509999999812
20
-30.7745800000000003
11
180.7653509999999812
21
-30.8698189999999997
0
LINE
8
BLACK
6
CONTINUOUS
10
181.4320170000000019
20
-29.8698189999999997
11
181.5272549999999967
21
-29.8698189999999997
0
LINE
8
BLACK
6
CONTINUOUS
10
181.5272549999999967
20
-29.8698189999999997
11
181.6224929999999915
21
-29.9174379999999971
0
LINE
8
BLACK
6
CONTINUOUS
10
181.6224929999999915
20
-29.9174379999999971
11
181.6701119999999889
21
-29.9650569999999981
0
LINE
8
BLACK
6
CONTINUOUS
10
181.6701119999999889
20
-29.9650569999999981
11
181.7177309999999864
21
-30.060295
0
LINE
8
BLACK
6
CONTINUOUS
10
181.7177309999999864
20
-30.060295
11
181.7653499999999838
21
-30.2507710000000003
0
LINE
8
BLACK
6
CONTINUOUS
10
181.7653499999999838
20
-30.2507710000000003
11
181.7653499999999838
21
-30.488865999999998
0
LINE
8
BLACK
6
CONTINUOUS
10
181.7653499999999838
20
-30.488865999999998
11
181.7177309999999864
21
-30.6793419999999983
0
LINE
8
BLACK
6
CONTINUOUS
10
181.7177309999999864
20
-30.6793419999999983
11
181.6701119999999889
21
-30.7745800000000003
0
LINE
8
BLACK
6
CONTINUOUS
10
181.6701119999999889
20
-30.7745800000000003
11
181.6224929999999915
21
-30.8221999999999987
0
LINE
8
BLACK
6
CONTINUOUS
10
181.6224929999999915
20
-30.8221999999999987
11
181.5272549999999967
21
-30.8698189999999997
0
LINE
8
BLACK
6
CONTINUOUS
10
181.5272549999999967
20
-30.8698189999999997
11
181.4320170000000019
21
-30.8698189999999997
0
LINE
8
BLACK
6
CONTINUOUS
10
181.4320170000000019
20
-30.8698189999999997
11
181.3367789999999786
21
-30.8221999999999987
0
LINE
8
BLACK
6
CONTINUOUS
10
181.3367789999999786
20
-30.8221999999999987
11
181.2891599999999812
21
-30.7745800000000003
0
LINE
8
BLACK
6
CONTINUOUS
10
181.2891599999999812
20
-30.7745800000000003
11
181.2415409999999838
21
-30.6793419999999983
0
LINE
8
BLACK
6
CONTINUOUS
10
181.2415409999999838
20
-30.6793419999999983
11
181.1939219999999864
21
-30.488865999999998
0
LINE
8
BLACK
6
CONTINUOUS
10
181.1939219999999864
20
-30.488865999999998
11
181.1939219999999864
21
-30.2507710000000003
0
LINE
8
BLACK
6
CONTINUOUS
10
181.1939219999999864
20
-30.2507710000000003
11
181.2415409999999838
21
-30.060295
0
LINE
8
BLACK
6
CONTINUOUS
10
181.2415409999999838
20
-30.060295
11
181.2891599999999812
21
-29.9650569999999981
0
LINE
8
BLACK
6
CONTINUOUS
10
181.2891599999999812
20
-29.9650569999999981
11
181.3367789999999786
21
-29.9174379999999971
0
LINE
8
BLACK
6
CONTINUOUS
10
181.3367789999999786
20
-29.9174379999999971
11
181.4320170000000019
21
-29.8698189999999997
0
LINE
8
BLACK
6
CONTINUOUS
10
174.8129689999999812
20
-31.8698189999999997
11
174.3367789999999786
21
-31.8698189999999997
0
LINE
8
BLACK
6
CONTINUOUS
10
174.3367789999999786
20
-31.8698189999999997
11
174.2891599999999812
21
-32.3460089999999951
0
LINE
8
BLACK
6
CONTINUOUS
10
174.2891599999999812
20
-32.3460089999999951
11
174.3367789999999786
21
-32.2983899999999977
0
LINE
8
BLACK
6
CONTINUOUS
10
174.3367789999999786
20
-32.2983899999999977
11
174.4320170000000019
21
-32.2507710000000003
0
LINE
8
BLACK
6
CONTINUOUS
10
174.4320170000000019
20
-32.2507710000000003
11
174.6701119999999889
21
-32.2507710000000003
0
LINE
8
BLACK
6
CONTINUOUS
10
174.6701119999999889
20
-32.2507710000000003
11
174.7653499999999838
21
-32.2983899999999977
0
LINE
8
BLACK
6
CONTINUOUS
10
174.7653499999999838
20
-32.2983899999999977
11
174.8129689999999812
21
-32.3460089999999951
0
LINE
8
BLACK
6
CONTINUOUS
10
174.8129689999999812
20
-32.3460089999999951
11
174.8605879999999786
21
-32.4412469999999971
0
LINE
8
BLACK
6
CONTINUOUS
10
174.8605879999999786
20
-32.4412469999999971
11
174.8605879999999786
21
-32.6793419999999983
0
LINE
8
BLACK
6
CONTINUOUS
10
174.8605879999999786
20
-32.6793419999999983
11
174.8129689999999812
21
-32.7745800000000003
0
LINE
8
BLACK
6
CONTINUOUS
10
174.8129689999999812
20
-32.7745800000000003
11
174.7653499999999838
21
-32.8221999999999952
0
LINE
8
BLACK
6
CONTINUOUS
10
174.7653499999999838
20
-32.8221999999999952
11
174.6701119999999889
21
-32.8698189999999997
0
LINE
8
BLACK
6
CONTINUOUS
10
174.6701119999999889
20
-32.8698189999999997
11
174.4320170000000019
21
-32.8698189999999997
0
LINE
8
BLACK
6
CONTINUOUS
10
174.4320170000000019
20
-32.8698189999999997
11
174.3367789999999786
21
-32.8221999999999952
0
LINE
8
BLACK
6
CONTINUOUS
10
174.3367789999999786
20
-32.8221999999999952
11
174.2891599999999812
21
-32.7745800000000003
0
LINE
8
BLACK
6
CONTINUOUS
10
175.146302999999989
20
-31.8698189999999997
11
175.4796359999999993
21
-32.8698189999999997
0
LINE
8
BLACK
6
CONTINUOUS
10
175.4796359999999993
20
-32.8698189999999997
11
175.8129689999999812
21
-31.8698189999999997
0
LINE
8
BLACK
6
CONTINUOUS
10
177.4320170000000019
20
-32.8698189999999997
11
176.8605890000000045
21
-32.8698189999999997
0
LINE
8
BLACK
6
CONTINUOUS
10
177.146302999999989
20
-32.8698189999999997
11
177.146302999999989
21
-31.8698189999999997
0
LINE
8
BLACK
6
CONTINUOUS
10
177.146302999999989
20
-31.8698189999999997
11
177.0510649999999941
21
-32.012675999999999
0
LINE
8
BLACK
6
CONTINUOUS
10
177.0510649999999941
20
-32.012675999999999
11
176.9558269999999993
21
-32.107914000000001
0
LINE
8
BLACK
6
CONTINUOUS
10
176.9558269999999993
20
-32.107914000000001
11
176.8605890000000045
21
-32.1555329999999984
0
LINE
8
BLACK
6
CONTINUOUS
10
177.8129699999999787
20
-32.5841039999999964
11
178.2891599999999812
21
-32.5841039999999964
0
LINE
8
BLACK
6
CONTINUOUS
10
177.7177319999999838
20
-32.8698189999999997
11
178.0510649999999941
21
-31.8698189999999997
0
LINE
8
BLACK
6
CONTINUOUS
10
178.0510649999999941
20
-31.8698189999999997
11
178.3843980000000045
21
-32.8698189999999997
  0
ENDSEC
  0
EOF
