%TF.GenerationSoftware,KiCad,Pcbnew,9.0.6-9.0.6~ubuntu24.04.1*%
%TF.CreationDate,2025-12-13T15:08:56+01:00*%
%TF.ProjectId,7_seg_led_tht_3mm,375f7365-675f-46c6-9564-5f7468745f33,1.0*%
%TF.SameCoordinates,Original*%
%TF.FileFunction,OtherDrawing,Comment*%
%FSLAX46Y46*%
G04 Gerber Fmt 4.6, Leading zero omitted, Abs format (unit mm)*
G04 Created by KiCad (PCBNEW 9.0.6-9.0.6~ubuntu24.04.1) date 2025-12-13 15:08:56*
%MOMM*%
%LPD*%
G01*
G04 APERTURE LIST*
%ADD10C,0.100000*%
%ADD11C,0.050000*%
G04 APERTURE END LIST*
D10*
X115000001Y-72999928D02*
X115000001Y-88999928D01*
X189000001Y-118999928D02*
G75*
G02*
X189000001Y-114999872I-1J2000028D01*
G01*
X157000001Y-66999928D02*
X173000001Y-66999928D01*
X85000001Y-66999928D02*
X101000001Y-66999928D01*
X155000001Y-112999928D02*
G75*
G02*
X151000001Y-112999928I-2000000J0D01*
G01*
X101000001Y-66999928D02*
G75*
G02*
X101000001Y-70999872I-1J-1999972D01*
G01*
X211000001Y-96999928D02*
X211000001Y-112999928D01*
X135000001Y-72999928D02*
G75*
G02*
X139000001Y-72999928I2000000J0D01*
G01*
D11*
X245000001Y-127953438D02*
G75*
G02*
X230000000Y-143000003I-15000001J-46492D01*
G01*
D10*
X183000000Y-69000000D02*
G75*
G02*
X179000000Y-69000000I-2000000J0D01*
G01*
X179000000Y-69000000D02*
G75*
G02*
X183000000Y-69000000I2000000J0D01*
G01*
X139000001Y-112999928D02*
G75*
G02*
X135000001Y-112999928I-2000000J0D01*
G01*
X85000001Y-118999928D02*
G75*
G02*
X85000001Y-114999872I-1J2000028D01*
G01*
X151000001Y-96999928D02*
G75*
G02*
X155000001Y-96999928I2000000J0D01*
G01*
X103000001Y-72999928D02*
X103000001Y-88999928D01*
X117000001Y-70999928D02*
X133000001Y-70999928D01*
X189000001Y-90999928D02*
X205000001Y-90999928D01*
X173000001Y-114999928D02*
G75*
G02*
X173000001Y-118999872I-1J-1999972D01*
G01*
X133000001Y-66999928D02*
G75*
G02*
X133000001Y-70999872I-1J-1999972D01*
G01*
X175000001Y-96999928D02*
X175000001Y-112999928D01*
X157000001Y-118999928D02*
G75*
G02*
X157000001Y-114999872I-1J2000028D01*
G01*
X85000001Y-114999928D02*
X101000001Y-114999928D01*
X189000001Y-94999928D02*
G75*
G02*
X189000001Y-90999872I-1J2000028D01*
G01*
X85000001Y-90999928D02*
X101000001Y-90999928D01*
X117000001Y-118999928D02*
X133000001Y-118999928D01*
X189000001Y-70999928D02*
G75*
G02*
X189000001Y-66999872I-1J2000028D01*
G01*
X187000001Y-88999928D02*
G75*
G02*
X183000001Y-88999928I-2000000J0D01*
G01*
X107000001Y-96999928D02*
X107000001Y-112999928D01*
X207000001Y-72999928D02*
G75*
G02*
X211000001Y-72999928I2000000J0D01*
G01*
X189000001Y-118999928D02*
X205000001Y-118999928D01*
X179000001Y-88999928D02*
G75*
G02*
X175000001Y-88999928I-2000000J0D01*
G01*
D11*
X45000001Y-58046418D02*
G75*
G02*
X60000002Y-42999859I14999999J46488D01*
G01*
D10*
X151000001Y-72999928D02*
X151000001Y-88999928D01*
X101000001Y-90999928D02*
G75*
G02*
X101000001Y-94999872I-1J-1999972D01*
G01*
X135000001Y-72999928D02*
X135000001Y-88999928D01*
D11*
X245000001Y-127953475D02*
X245000102Y-57999929D01*
X60046491Y-142999928D02*
X230000000Y-143000032D01*
D10*
X157000001Y-114999928D02*
X173000001Y-114999928D01*
X179000001Y-96999928D02*
X179000001Y-112999928D01*
X139000001Y-96999928D02*
X139000001Y-112999928D01*
D11*
X229953511Y-42999928D02*
X60000002Y-42999857D01*
D10*
X83000001Y-88999928D02*
G75*
G02*
X79000001Y-88999928I-2000000J0D01*
G01*
X85000001Y-94999928D02*
G75*
G02*
X85000001Y-90999872I-1J2000028D01*
G01*
X147000000Y-117000000D02*
G75*
G02*
X143000000Y-117000000I-2000000J0D01*
G01*
X143000000Y-117000000D02*
G75*
G02*
X147000000Y-117000000I2000000J0D01*
G01*
X211000001Y-72999928D02*
X211000001Y-88999928D01*
X107000001Y-112999928D02*
G75*
G02*
X103000001Y-112999928I-2000000J0D01*
G01*
X157000001Y-70999928D02*
G75*
G02*
X157000001Y-66999872I-1J2000028D01*
G01*
X115000001Y-112999928D02*
G75*
G02*
X111000001Y-112999928I-2000000J0D01*
G01*
X117000001Y-90999928D02*
X133000001Y-90999928D01*
X157000001Y-90999928D02*
X173000001Y-90999928D01*
X155000001Y-72999928D02*
X155000001Y-88999928D01*
X115000001Y-88999928D02*
G75*
G02*
X111000001Y-88999928I-2000000J0D01*
G01*
X133000001Y-90999928D02*
G75*
G02*
X133000001Y-94999872I-1J-1999972D01*
G01*
X187000001Y-72999928D02*
X187000001Y-88999928D01*
X175000001Y-72999928D02*
X175000001Y-88999928D01*
X139000001Y-72999928D02*
X139000001Y-88999928D01*
X183000001Y-96999928D02*
X183000001Y-112999928D01*
X207000001Y-96999928D02*
X207000001Y-112999928D01*
X117000001Y-94999928D02*
G75*
G02*
X117000001Y-90999872I-1J2000028D01*
G01*
X175000001Y-72999928D02*
G75*
G02*
X179000001Y-72999928I2000000J0D01*
G01*
X207000001Y-72999928D02*
X207000001Y-88999928D01*
X79000001Y-72999928D02*
G75*
G02*
X83000001Y-72999928I2000000J0D01*
G01*
X133000001Y-114999928D02*
G75*
G02*
X133000001Y-118999872I-1J-1999972D01*
G01*
X83000001Y-112999928D02*
G75*
G02*
X79000001Y-112999928I-2000000J0D01*
G01*
X157000001Y-94999928D02*
G75*
G02*
X157000001Y-90999872I-1J2000028D01*
G01*
X173000001Y-90999928D02*
G75*
G02*
X173000001Y-94999872I-1J-1999972D01*
G01*
X115000001Y-96999928D02*
X115000001Y-112999928D01*
X111000001Y-96999928D02*
G75*
G02*
X115000001Y-96999928I2000000J0D01*
G01*
X157000001Y-118999928D02*
X173000001Y-118999928D01*
X155000001Y-88999928D02*
G75*
G02*
X151000001Y-88999928I-2000000J0D01*
G01*
X85000001Y-70999928D02*
X101000001Y-70999928D01*
X111000001Y-96999928D02*
X111000001Y-112999928D01*
X101000001Y-114999928D02*
G75*
G02*
X101000001Y-118999872I-1J-1999972D01*
G01*
X79000001Y-96999928D02*
X79000001Y-112999928D01*
X85000001Y-70999928D02*
G75*
G02*
X85000001Y-66999872I-1J2000028D01*
G01*
X107000001Y-72999928D02*
X107000001Y-88999928D01*
X155000001Y-96999928D02*
X155000001Y-112999928D01*
X189000001Y-114999928D02*
X205000001Y-114999928D01*
X157000001Y-94999928D02*
X173000001Y-94999928D01*
X189000001Y-66999928D02*
X205000001Y-66999928D01*
X139000001Y-88999928D02*
G75*
G02*
X135000001Y-88999928I-2000000J0D01*
G01*
X79000001Y-96999928D02*
G75*
G02*
X83000001Y-96999928I2000000J0D01*
G01*
D11*
X45000001Y-58046418D02*
X44999929Y-127999928D01*
D10*
X147000000Y-87000000D02*
G75*
G02*
X143000000Y-87000000I-2000000J0D01*
G01*
X143000000Y-87000000D02*
G75*
G02*
X147000000Y-87000000I2000000J0D01*
G01*
X183000001Y-96999928D02*
G75*
G02*
X187000001Y-96999928I2000000J0D01*
G01*
X151000001Y-96999928D02*
X151000001Y-112999928D01*
X85000001Y-118999928D02*
X101000001Y-118999928D01*
X151000001Y-72999928D02*
G75*
G02*
X155000001Y-72999928I2000000J0D01*
G01*
X157000001Y-70999928D02*
X173000001Y-70999928D01*
X117000001Y-70999928D02*
G75*
G02*
X117000001Y-66999872I-1J2000028D01*
G01*
X187000001Y-96999928D02*
X187000001Y-112999928D01*
X205000001Y-90999928D02*
G75*
G02*
X205000001Y-94999872I-1J-1999972D01*
G01*
X187000001Y-112999928D02*
G75*
G02*
X183000001Y-112999928I-2000000J0D01*
G01*
X175000001Y-96999928D02*
G75*
G02*
X179000001Y-96999928I2000000J0D01*
G01*
X117000001Y-94999928D02*
X133000001Y-94999928D01*
X83000001Y-96999928D02*
X83000001Y-112999928D01*
D11*
X60046491Y-142999928D02*
G75*
G02*
X44999930Y-127999927I-46511J14999978D01*
G01*
D10*
X83000001Y-72999928D02*
X83000001Y-88999928D01*
D11*
X229953511Y-42999928D02*
G75*
G02*
X245000044Y-57999929I46489J-14999972D01*
G01*
D10*
X135000001Y-96999928D02*
X135000001Y-112999928D01*
X179000001Y-72999928D02*
X179000001Y-88999928D01*
X205000001Y-66999928D02*
G75*
G02*
X205000001Y-70999872I-1J-1999972D01*
G01*
X117000001Y-118999928D02*
G75*
G02*
X117000001Y-114999872I-1J2000028D01*
G01*
X207000001Y-96999928D02*
G75*
G02*
X211000001Y-96999928I2000000J0D01*
G01*
X147000000Y-99000000D02*
G75*
G02*
X143000000Y-99000000I-2000000J0D01*
G01*
X143000000Y-99000000D02*
G75*
G02*
X147000000Y-99000000I2000000J0D01*
G01*
X85000001Y-94999928D02*
X101000001Y-94999928D01*
X183000001Y-72999928D02*
G75*
G02*
X187000001Y-72999928I2000000J0D01*
G01*
X111000001Y-72999928D02*
G75*
G02*
X115000001Y-72999928I2000000J0D01*
G01*
X173000001Y-66999928D02*
G75*
G02*
X173000001Y-70999872I-1J-1999972D01*
G01*
X111000001Y-72999928D02*
X111000001Y-88999928D01*
X211000001Y-88999928D02*
G75*
G02*
X207000001Y-88999928I-2000000J0D01*
G01*
X117000001Y-66999928D02*
X133000001Y-66999928D01*
X189000001Y-70999928D02*
X205000001Y-70999928D01*
X786000000Y-39500100D02*
X996000000Y-39500100D01*
X996000000Y-336500100D01*
X786000000Y-336500100D01*
X786000000Y-39500100D01*
X103000001Y-72999928D02*
G75*
G02*
X107000001Y-72999928I2000000J0D01*
G01*
X211000001Y-112999928D02*
G75*
G02*
X207000001Y-112999928I-2000000J0D01*
G01*
X205000001Y-114999928D02*
G75*
G02*
X205000001Y-118999872I-1J-1999972D01*
G01*
X103000001Y-96999928D02*
X103000001Y-112999928D01*
X103000001Y-96999928D02*
G75*
G02*
X107000001Y-96999928I2000000J0D01*
G01*
X135000001Y-96999928D02*
G75*
G02*
X139000001Y-96999928I2000000J0D01*
G01*
X189000001Y-94999928D02*
X205000001Y-94999928D01*
X183000001Y-72999928D02*
X183000001Y-88999928D01*
X79000001Y-72999928D02*
X79000001Y-88999928D01*
X107000001Y-88999928D02*
G75*
G02*
X103000001Y-88999928I-2000000J0D01*
G01*
X117000001Y-114999928D02*
X133000001Y-114999928D01*
X179000001Y-112999928D02*
G75*
G02*
X175000001Y-112999928I-2000000J0D01*
G01*
M02*
