  0
SECTION
  2
HEADER
  9
$ANGBASE
  50
0.0
  9
$ANGDIR
  70
1
  9
$MEASUREMENT
  70
1
  0
ENDSEC
  0
SECTION
  2
TABLES
  0
TABLE
  2
LTYPE
  70
4
  0
LTYPE
  5
40F
  2
CONTINUOUS
  70
0
  3
Solid line
  72
65
  73
0
  40
0.0
  0
LTYPE
  5
410
  2
DASHDOT
 70
0
  3
Dash Dot ____ _ ____ _
 72
65
 73
4
 40
2.0
 49
1.25
 49
-0.25
 49
0.25
 49
-0.25
  0
LTYPE
  5
411
  2
DASHED
 70
0
  3
Dashed __ __ __ __ __
 72
65
 73
2
 40
0.75
 49
0.5
 49
-0.25
  0
LTYPE
  5
43B
  2
DOTTED
 70
0
  3
Dotted .  .  .  .
 72
65
 73
2
 40
0.2
 49
0.0
 49
-0.2
  0
ENDTAB
  0
TABLE
  2
STYLE
  70
4
  0
STYLE
  2
KICAD
  70
0
  40
0
  41
1
  42
1
  50
0
  71
0
  3
isocp.shx
  0
STYLE
  2
KICADB
  70
0
  40
0
  41
1
  42
1
  50
0
  71
0
  3
isocp.shx
  0
STYLE
  2
KICADI
  70
0
  40
0
  41
1
  42
1
  50
15
  71
0
  3
isocp.shx
  0
STYLE
  2
KICADBI
  70
0
  40
0
  41
1
  42
1
  50
15
  71
0
  3
isocp.shx
  0
ENDTAB
  0
TABLE
  2
LAYER
  70
1
  0
LAYER
  2
BLACK
  70
0
  62
7
  6
CONTINUOUS
  0
ENDTAB
  0
ENDSEC
  0
SECTION
  2
ENTITIES
0
ARC
8
BLACK
10
136.5
20
-89.
40
0.4999980000360001
50
-90.00068755
51
90.00068755
0
ARC
8
BLACK
10
108.5
20
-83.200099999999992
40
0.500030000099994
50
-90.00114598
51
90.00114585
0
LINE
8
BLACK
6
CONTINUOUS
10
155.4999939999999867
20
-54.500001999999995
11
155.4999939999999867
21
-51.500001999999995
0
LINE
8
BLACK
6
CONTINUOUS
10
156.4999899999999968
20
-46.3000699999999981
11
153.4999899999999968
21
-46.3000699999999981
0
ARC
8
BLACK
10
121.5
20
-70.8001000000000005
40
0.499970000100006
50
-269.99885415
51
-90.00114598
0
ARC
8
BLACK
10
106.9999940000000009
20
-78.500001999999995
40
0.5
50
-180.00000000
51
-0.00000000
0
LINE
8
BLACK
6
CONTINUOUS
10
93.4999940000000009
20
-89.500001999999995
11
96.4999940000000009
21
-89.500001999999995
0
ARC
8
BLACK
10
84.5
20
-46.8001000000000005
40
0.500030000099994
50
-90.00114598
51
90.00114585
0
LINE
8
BLACK
6
CONTINUOUS
10
76.4999899999999968
20
-46.3000699999999981
11
73.4999899999999968
21
-46.3000699999999981
0
LINE
8
BLACK
6
CONTINUOUS
10
100.6999899999999997
20
-63.5000699999999938
11
100.6999899999999997
21
-66.5000699999999938
0
ARC
8
BLACK
10
49.5
20
-46.8001000000000005
40
0.499970000100006
50
-269.99885415
51
-90.00114598
0
ARC
8
BLACK
10
73.5
20
-46.8001000000000005
40
0.499970000100006
50
-269.99885415
51
-90.00114598
0
ARC
8
BLACK
10
173.1999899999999855
20
-39.5000700000000009
40
0.5
50
0.00000000
51
180.00000000
0
ARC
8
BLACK
10
146.9999939999999867
20
-78.500001999999995
40
0.5
50
-180.00000000
51
-0.00000000
0
LINE
8
BLACK
6
CONTINUOUS
10
88.299989999999994
20
-39.5000700000000009
11
88.299989999999994
21
-42.5000700000000009
0
LINE
8
BLACK
6
CONTINUOUS
10
123.4999940000000009
20
-78.500001999999995
11
123.4999940000000009
21
-75.500001999999995
0
ARC
8
BLACK
10
88.799989999999994
20
-87.5000699999999938
40
0.5
50
0.00000000
51
180.00000000
0
LINE
8
BLACK
6
CONTINUOUS
10
84.4999899999999968
20
-71.300069999999991
11
81.4999899999999968
21
-71.300069999999991
0
LINE
8
BLACK
6
CONTINUOUS
10
74.4999940000000009
20
-78.500001999999995
11
74.4999940000000009
21
-75.500001999999995
0
LINE
8
BLACK
6
CONTINUOUS
10
156.4999899999999968
20
-70.300069999999991
11
153.4999899999999968
21
-70.300069999999991
0
LINE
8
BLACK
6
CONTINUOUS
10
124.4999899999999968
20
-71.300069999999991
11
121.4999899999999968
21
-71.300069999999991
0
LINE
8
BLACK
6
CONTINUOUS
10
147.4999939999999867
20
-78.500001999999995
11
147.4999939999999867
21
-75.500001999999995
0
LINE
8
BLACK
6
CONTINUOUS
10
177.4999899999999968
20
-59.7000699999999966
11
180.4999899999999968
21
-59.7000699999999966
0
LINE
8
BLACK
6
CONTINUOUS
10
73.4999899999999968
20
-58.7000699999999966
11
76.4999899999999968
21
-58.7000699999999966
0
ARC
8
BLACK
10
93.5
20
-65.
40
0.5000020000359998
50
-269.99931245
51
-90.00068755
0
LINE
8
BLACK
6
CONTINUOUS
10
93.4999940000000009
20
-64.500001999999995
11
96.4999940000000009
21
-64.500001999999995
0
ARC
8
BLACK
10
178.9999939999999867
20
-78.500001999999995
40
0.5
50
-180.00000000
51
-0.00000000
0
ARC
8
BLACK
10
88.799989999999994
20
-90.5000699999999938
40
0.5
50
-180.00000000
51
-0.00000000
0
LINE
8
BLACK
6
CONTINUOUS
10
145.4999899999999968
20
-58.7000699999999966
11
148.4999899999999968
21
-58.7000699999999966
0
LINE
8
BLACK
6
CONTINUOUS
10
165.4999939999999867
20
-41.500001999999995
11
168.4999939999999867
21
-41.500001999999995
0
LINE
8
BLACK
6
CONTINUOUS
10
56.299989999999994
20
-87.5000699999999938
11
56.299989999999994
21
-90.5000699999999938
0
ARC
8
BLACK
10
122.9999940000000009
20
-54.500001999999995
40
0.5
50
-180.00000000
51
-0.00000000
0
ARC
8
BLACK
10
141.1999899999999855
20
-63.5000699999999938
40
0.5
50
0.00000000
51
180.00000000
0
LINE
8
BLACK
6
CONTINUOUS
10
107.4999940000000009
20
-54.500001999999995
11
107.4999940000000009
21
-51.500001999999995
0
ARC
8
BLACK
10
52.5
20
-46.8001000000000005
40
0.500030000099994
50
-90.00114598
51
90.00114585
0
LINE
8
BLACK
6
CONTINUOUS
10
74.4999940000000009
20
-54.500001999999995
11
74.4999940000000009
21
-51.500001999999995
0
ARC
8
BLACK
10
154.9999939999999867
20
-75.500001999999995
40
0.5
50
0.00000000
51
180.00000000
0
ARC
8
BLACK
10
81.5
20
-46.8001000000000005
40
0.499970000100006
50
-269.99885415
51
-90.00114598
0
LINE
8
BLACK
6
CONTINUOUS
10
128.2999900000000082
20
-87.5000699999999938
11
128.2999900000000082
21
-90.5000699999999938
0
ARC
8
BLACK
10
124.5
20
-70.8001000000000005
40
0.500030000099994
50
-90.00114598
51
90.00114585
0
LINE
8
BLACK
6
CONTINUOUS
10
84.4999899999999968
20
-47.3000699999999981
11
81.4999899999999968
21
-47.3000699999999981
0
LINE
8
BLACK
6
CONTINUOUS
10
93.4999940000000009
20
-65.500001999999995
11
96.4999940000000009
21
-65.500001999999995
0
LINE
8
BLACK
6
CONTINUOUS
10
52.4999899999999968
20
-47.3000699999999981
11
49.4999899999999968
21
-47.3000699999999981
0
ARC
8
BLACK
10
50.9999940000000009
20
-78.500001999999995
40
0.5
50
-180.00000000
51
-0.00000000
0
ARC
8
BLACK
10
122.9999940000000009
20
-51.500001999999995
40
0.5
50
0.00000000
51
180.00000000
0
ARC
8
BLACK
10
106.9999940000000009
20
-54.500001999999995
40
0.5
50
-180.00000000
51
-0.00000000
0
LINE
8
BLACK
6
CONTINUOUS
10
100.6999899999999997
20
-90.5000699999999938
11
100.6999899999999997
21
-87.5000699999999938
0
LINE
8
BLACK
6
CONTINUOUS
10
161.2999899999999798
20
-66.5000699999999938
11
161.2999899999999798
21
-63.5000699999999938
0
LINE
8
BLACK
6
CONTINUOUS
10
105.4999899999999968
20
-82.7000699999999966
11
108.4999899999999968
21
-82.7000699999999966
0
ARC
8
BLACK
10
165.5
20
-41.
40
0.5000020000359998
50
-269.99931245
51
-90.00068755
0
LINE
8
BLACK
6
CONTINUOUS
10
106.4999940000000009
20
-54.500001999999995
11
106.4999940000000009
21
-51.500001999999995
0
ARC
8
BLACK
10
121.5
20
-59.2000999999999991
40
0.499970000100006
50
-269.99885415
51
-90.00114598
0
LINE
8
BLACK
6
CONTINUOUS
10
180.4999899999999968
20
-46.3000699999999981
11
177.4999899999999968
21
-46.3000699999999981
0
ARC
8
BLACK
10
96.5
20
-65.
40
0.4999980000360001
50
-90.00068755
51
90.00068755
0
ARC
8
BLACK
10
84.5
20
-59.2000999999999991
40
0.500030000099994
50
-90.00114598
51
90.00114585
0
ARC
8
BLACK
10
76.5
20
-70.8001000000000005
40
0.500030000099994
50
-90.00114598
51
90.00114585
0
LINE
8
BLACK
6
CONTINUOUS
10
122.4999940000000009
20
-54.500001999999995
11
122.4999940000000009
21
-51.500001999999995
0
LINE
8
BLACK
6
CONTINUOUS
10
81.4999899999999968
20
-82.7000699999999966
11
84.4999899999999968
21
-82.7000699999999966
0
ARC
8
BLACK
10
178.9999939999999867
20
-51.500001999999995
40
0.5
50
0.00000000
51
180.00000000
0
LINE
8
BLACK
6
CONTINUOUS
10
51.4999940000000009
20
-78.500001999999995
11
51.4999940000000009
21
-75.500001999999995
0
ARC
8
BLACK
10
146.9999939999999867
20
-75.500001999999995
40
0.5
50
0.00000000
51
180.00000000
0
ARC
8
BLACK
10
173.1999899999999855
20
-90.5000699999999938
40
0.5
50
-180.00000000
51
-0.00000000
0
ARC
8
BLACK
10
154.9999939999999867
20
-51.500001999999995
40
0.5
50
0.00000000
51
180.00000000
0
ARC
8
BLACK
10
69.1999899999999997
20
-66.5000699999999938
40
0.5
50
-180.00000000
51
-0.00000000
0
ARC
8
BLACK
10
56.799989999999994
20
-39.5000700000000009
40
0.5
50
0.00000000
51
180.00000000
0
LINE
8
BLACK
6
CONTINUOUS
10
57.299989999999994
20
-87.5000699999999938
11
57.299989999999994
21
-90.5000699999999938
0
LINE
8
BLACK
6
CONTINUOUS
10
121.4999899999999968
20
-58.7000699999999966
11
124.4999899999999968
21
-58.7000699999999966
0
ARC
8
BLACK
10
73.5
20
-70.8001000000000005
40
0.499970000100006
50
-269.99885415
51
-90.00114598
0
ARC
8
BLACK
10
105.5
20
-70.8001000000000005
40
0.499970000100006
50
-269.99885415
51
-90.00114598
0
LINE
8
BLACK
6
CONTINUOUS
10
81.4999899999999968
20
-59.7000699999999966
11
84.4999899999999968
21
-59.7000699999999966
0
LINE
8
BLACK
6
CONTINUOUS
10
82.4999940000000009
20
-54.500001999999995
11
82.4999940000000009
21
-51.500001999999995
0
LINE
8
BLACK
6
CONTINUOUS
10
156.4999899999999968
20
-47.3000699999999981
11
153.4999899999999968
21
-47.3000699999999981
0
ARC
8
BLACK
10
133.5
20
-89.
40
0.5000020000359998
50
-269.99931245
51
-90.00068755
0
LINE
8
BLACK
6
CONTINUOUS
10
69.6999899999999997
20
-42.5000700000000009
11
69.6999899999999997
21
-39.5000700000000009
0
LINE
8
BLACK
6
CONTINUOUS
10
141.6999899999999855
20
-63.5000699999999938
11
141.6999899999999855
21
-66.5000699999999938
0
ARC
8
BLACK
10
160.7999899999999798
20
-42.5000700000000009
40
0.5
50
-180.00000000
51
-0.00000000
0
ARC
8
BLACK
10
160.7999899999999798
20
-90.5000699999999938
40
0.5
50
-180.00000000
51
-0.00000000
0
ARC
8
BLACK
10
141.1999899999999855
20
-39.5000700000000009
40
0.5
50
0.00000000
51
180.00000000
0
LINE
8
BLACK
6
CONTINUOUS
10
52.4999899999999968
20
-71.300069999999991
11
49.4999899999999968
21
-71.300069999999991
0
ARC
8
BLACK
10
168.5
20
-65.
40
0.4999980000360001
50
-90.00068755
51
90.00068755
0
ARC
8
BLACK
10
160.7999899999999798
20
-87.5000699999999938
40
0.5
50
0.00000000
51
180.00000000
0
ARC
8
BLACK
10
69.1999899999999997
20
-63.5000699999999938
40
0.5
50
0.00000000
51
180.00000000
0
ARC
8
BLACK
10
105.5
20
-46.8001000000000005
40
0.499970000100006
50
-269.99885415
51
-90.00114598
0
ARC
8
BLACK
10
96.5
20
-41.
40
0.4999980000360001
50
-90.00068755
51
90.00068755
0
LINE
8
BLACK
6
CONTINUOUS
10
145.4999899999999968
20
-59.7000699999999966
11
148.4999899999999968
21
-59.7000699999999966
0
LINE
8
BLACK
6
CONTINUOUS
10
154.4999939999999867
20
-54.500001999999995
11
154.4999939999999867
21
-51.500001999999995
0
ARC
8
BLACK
10
156.5
20
-83.200099999999992
40
0.500030000099994
50
-90.00114598
51
90.00114585
0
ARC
8
BLACK
10
153.5
20
-70.8001000000000005
40
0.499970000100006
50
-269.99885415
51
-90.00114598
0
ARC
8
BLACK
10
82.9999940000000009
20
-51.500001999999995
40
0.5
50
0.00000000
51
180.00000000
0
ARC
8
BLACK
10
84.5
20
-83.200099999999992
40
0.500030000099994
50
-90.00114598
51
90.00114585
0
ARC
8
BLACK
10
156.5
20
-46.8001000000000005
40
0.500030000099994
50
-90.00114598
51
90.00114585
0
LINE
8
BLACK
6
CONTINUOUS
10
177.4999899999999968
20
-82.7000699999999966
11
180.4999899999999968
21
-82.7000699999999966
0
ARC
8
BLACK
10
160.7999899999999798
20
-66.5000699999999938
40
0.5
50
-180.00000000
51
-0.00000000
0
LINE
8
BLACK
6
CONTINUOUS
10
44.9999899999999968
20
-37.0000700000000009
11
204.9999899999999968
21
-37.0000700000000009
0
LINE
8
BLACK
6
CONTINUOUS
10
204.9999899999999968
20
-37.0000700000000009
11
204.9999899999999968
21
-97.0000699999999938
0
LINE
8
BLACK
6
CONTINUOUS
10
204.9999899999999968
20
-97.0000699999999938
11
44.9999899999999968
21
-97.0000699999999938
0
LINE
8
BLACK
6
CONTINUOUS
10
44.9999899999999968
20
-97.0000699999999938
11
44.9999899999999968
21
-37.0000700000000009
0
ARC
8
BLACK
10
52.5
20
-70.8001000000000005
40
0.500030000099994
50
-90.00114598
51
90.00114585
0
LINE
8
BLACK
6
CONTINUOUS
10
51.4999940000000009
20
-54.500001999999995
11
51.4999940000000009
21
-51.500001999999995
0
LINE
8
BLACK
6
CONTINUOUS
10
93.4999940000000009
20
-88.500001999999995
11
96.4999940000000009
21
-88.500001999999995
0
LINE
8
BLACK
6
CONTINUOUS
10
133.4999939999999867
20
-88.500001999999995
11
136.4999939999999867
21
-88.500001999999995
0
ARC
8
BLACK
10
74.9999940000000009
20
-51.500001999999995
40
0.5
50
0.00000000
51
180.00000000
0
LINE
8
BLACK
6
CONTINUOUS
10
153.4999899999999968
20
-83.7000699999999966
11
156.4999899999999968
21
-83.7000699999999966
0
ARC
8
BLACK
10
101.1999899999999997
20
-42.5000700000000009
40
0.5
50
-180.00000000
51
-0.00000000
0
ARC
8
BLACK
10
64.5
20
-41.
40
0.4999980000360001
50
-90.00068755
51
90.00068755
0
LINE
8
BLACK
6
CONTINUOUS
10
56.299989999999994
20
-39.5000700000000009
11
56.299989999999994
21
-42.5000700000000009
0
LINE
8
BLACK
6
CONTINUOUS
10
165.4999939999999867
20
-88.500001999999995
11
168.4999939999999867
21
-88.500001999999995
0
ARC
8
BLACK
10
108.5
20
-70.8001000000000005
40
0.500030000099994
50
-90.00114598
51
90.00114585
0
LINE
8
BLACK
6
CONTINUOUS
10
89.299989999999994
20
-66.5000699999999938
11
89.299989999999994
21
-63.5000699999999938
0
LINE
8
BLACK
6
CONTINUOUS
10
50.4999940000000009
20
-78.500001999999995
11
50.4999940000000009
21
-75.500001999999995
0
LINE
8
BLACK
6
CONTINUOUS
10
160.2999899999999798
20
-39.5000700000000009
11
160.2999899999999798
21
-42.5000700000000009
0
ARC
8
BLACK
10
156.5
20
-70.8001000000000005
40
0.500030000099994
50
-90.00114598
51
90.00114585
0
LINE
8
BLACK
6
CONTINUOUS
10
133.4999939999999867
20
-64.500001999999995
11
136.4999939999999867
21
-64.500001999999995
0
ARC
8
BLACK
10
156.5
20
-59.2000999999999991
40
0.500030000099994
50
-90.00114598
51
90.00114585
0
ARC
8
BLACK
10
148.5
20
-70.8001000000000005
40
0.500030000099994
50
-90.00114598
51
90.00114585
0
ARC
8
BLACK
10
165.5
20
-65.
40
0.5000020000359998
50
-269.99931245
51
-90.00068755
0
LINE
8
BLACK
6
CONTINUOUS
10
161.2999899999999798
20
-87.5000699999999938
11
161.2999899999999798
21
-90.5000699999999938
0
LINE
8
BLACK
6
CONTINUOUS
10
153.4999899999999968
20
-59.7000699999999966
11
156.4999899999999968
21
-59.7000699999999966
0
ARC
8
BLACK
10
133.5
20
-41.
40
0.5000020000359998
50
-269.99931245
51
-90.00068755
0
LINE
8
BLACK
6
CONTINUOUS
10
105.4999899999999968
20
-59.7000699999999966
11
108.4999899999999968
21
-59.7000699999999966
0
LINE
8
BLACK
6
CONTINUOUS
10
173.6999899999999855
20
-42.5000700000000009
11
173.6999899999999855
21
-39.5000700000000009
0
LINE
8
BLACK
6
CONTINUOUS
10
122.4999940000000009
20
-78.500001999999995
11
122.4999940000000009
21
-75.500001999999995
0
ARC
8
BLACK
10
148.5
20
-83.200099999999992
40
0.500030000099994
50
-90.00114598
51
90.00114585
0
LINE
8
BLACK
6
CONTINUOUS
10
100.6999899999999997
20
-42.5000700000000009
11
100.6999899999999997
21
-39.5000700000000009
0
ARC
8
BLACK
10
128.7999900000000082
20
-63.5000699999999938
40
0.5
50
0.00000000
51
180.00000000
0
LINE
8
BLACK
6
CONTINUOUS
10
61.4999939999999938
20
-41.500001999999995
11
64.4999940000000009
21
-41.500001999999995
0
ARC
8
BLACK
10
82.9999940000000009
20
-78.500001999999995
40
0.5
50
-180.00000000
51
-0.00000000
0
LINE
8
BLACK
6
CONTINUOUS
10
121.4999899999999968
20
-59.7000699999999966
11
124.4999899999999968
21
-59.7000699999999966
0
LINE
8
BLACK
6
CONTINUOUS
10
76.4999899999999968
20
-70.300069999999991
11
73.4999899999999968
21
-70.300069999999991
0
LINE
8
BLACK
6
CONTINUOUS
10
133.4999939999999867
20
-40.500001999999995
11
136.4999939999999867
21
-40.500001999999995
0
LINE
8
BLACK
6
CONTINUOUS
10
57.299989999999994
20
-66.5000699999999938
11
57.299989999999994
21
-63.5000699999999938
0
LINE
8
BLACK
6
CONTINUOUS
10
177.4999899999999968
20
-83.7000699999999966
11
180.4999899999999968
21
-83.7000699999999966
0
LINE
8
BLACK
6
CONTINUOUS
10
89.299989999999994
20
-39.5000700000000009
11
89.299989999999994
21
-42.5000700000000009
0
LINE
8
BLACK
6
CONTINUOUS
10
76.4999899999999968
20
-71.300069999999991
11
73.4999899999999968
21
-71.300069999999991
0
ARC
8
BLACK
10
136.5
20
-41.
40
0.4999980000360001
50
-90.00068755
51
90.00068755
0
LINE
8
BLACK
6
CONTINUOUS
10
145.4999899999999968
20
-83.7000699999999966
11
148.4999899999999968
21
-83.7000699999999966
0
LINE
8
BLACK
6
CONTINUOUS
10
88.299989999999994
20
-87.5000699999999938
11
88.299989999999994
21
-90.5000699999999938
0
LINE
8
BLACK
6
CONTINUOUS
10
69.6999899999999997
20
-90.5000699999999938
11
69.6999899999999997
21
-87.5000699999999938
0
LINE
8
BLACK
6
CONTINUOUS
10
140.6999899999999855
20
-63.5000699999999938
11
140.6999899999999855
21
-66.5000699999999938
0
ARC
8
BLACK
10
180.5
20
-70.8001000000000005
40
0.500030000099994
50
-90.00114598
51
90.00114585
0
LINE
8
BLACK
6
CONTINUOUS
10
108.4999899999999968
20
-71.300069999999991
11
105.4999899999999968
21
-71.300069999999991
0
LINE
8
BLACK
6
CONTINUOUS
10
129.2999900000000082
20
-39.5000700000000009
11
129.2999900000000082
21
-42.5000700000000009
0
LINE
8
BLACK
6
CONTINUOUS
10
146.4999939999999867
20
-78.500001999999995
11
146.4999939999999867
21
-75.500001999999995
0
ARC
8
BLACK
10
121.5
20
-83.200099999999992
40
0.499970000100006
50
-269.99885415
51
-90.00114598
0
ARC
8
BLACK
10
105.5
20
-59.2000999999999991
40
0.499970000100006
50
-269.99885415
51
-90.00114598
0
ARC
8
BLACK
10
82.9999940000000009
20
-54.500001999999995
40
0.5
50
-180.00000000
51
-0.00000000
0
LINE
8
BLACK
6
CONTINUOUS
10
155.4999939999999867
20
-78.500001999999995
11
155.4999939999999867
21
-75.500001999999995
0
LINE
8
BLACK
6
CONTINUOUS
10
145.4999899999999968
20
-82.7000699999999966
11
148.4999899999999968
21
-82.7000699999999966
0
LINE
8
BLACK
6
CONTINUOUS
10
108.4999899999999968
20
-70.300069999999991
11
105.4999899999999968
21
-70.300069999999991
0
ARC
8
BLACK
10
128.7999900000000082
20
-39.5000700000000009
40
0.5
50
0.00000000
51
180.00000000
0
ARC
8
BLACK
10
168.5
20
-89.
40
0.4999980000360001
50
-90.00068755
51
90.00068755
0
LINE
8
BLACK
6
CONTINUOUS
10
105.4999899999999968
20
-58.7000699999999966
11
108.4999899999999968
21
-58.7000699999999966
0
LINE
8
BLACK
6
CONTINUOUS
10
84.4999899999999968
20
-46.3000699999999981
11
81.4999899999999968
21
-46.3000699999999981
0
ARC
8
BLACK
10
173.1999899999999855
20
-66.5000699999999938
40
0.5
50
-180.00000000
51
-0.00000000
0
LINE
8
BLACK
6
CONTINUOUS
10
148.4999899999999968
20
-46.3000699999999981
11
145.4999899999999968
21
-46.3000699999999981
0
LINE
8
BLACK
6
CONTINUOUS
10
179.4999939999999867
20
-78.500001999999995
11
179.4999939999999867
21
-75.500001999999995
0
LINE
8
BLACK
6
CONTINUOUS
10
61.4999939999999938
20
-40.500001999999995
11
64.4999940000000009
21
-40.500001999999995
0
LINE
8
BLACK
6
CONTINUOUS
10
50.4999940000000009
20
-54.500001999999995
11
50.4999940000000009
21
-51.500001999999995
0
LINE
8
BLACK
6
CONTINUOUS
10
128.2999900000000082
20
-39.5000700000000009
11
128.2999900000000082
21
-42.5000700000000009
0
ARC
8
BLACK
10
101.1999899999999997
20
-66.5000699999999938
40
0.5
50
-180.00000000
51
-0.00000000
0
ARC
8
BLACK
10
108.5
20
-59.2000999999999991
40
0.500030000099994
50
-90.00114598
51
90.00114585
0
LINE
8
BLACK
6
CONTINUOUS
10
101.6999899999999997
20
-42.5000700000000009
11
101.6999899999999997
21
-39.5000700000000009
0
ARC
8
BLACK
10
177.5
20
-59.2000999999999991
40
0.499970000100006
50
-269.99885415
51
-90.00114598
0
ARC
8
BLACK
10
178.9999939999999867
20
-75.500001999999995
40
0.5
50
0.00000000
51
180.00000000
0
ARC
8
BLACK
10
173.1999899999999855
20
-63.5000699999999938
40
0.5
50
0.00000000
51
180.00000000
0
LINE
8
BLACK
6
CONTINUOUS
10
178.4999939999999867
20
-54.500001999999995
11
178.4999939999999867
21
-51.500001999999995
0
LINE
8
BLACK
6
CONTINUOUS
10
129.2999900000000082
20
-66.5000699999999938
11
129.2999900000000082
21
-63.5000699999999938
0
LINE
8
BLACK
6
CONTINUOUS
10
179.4999939999999867
20
-54.500001999999995
11
179.4999939999999867
21
-51.500001999999995
0
LINE
8
BLACK
6
CONTINUOUS
10
133.4999939999999867
20
-65.500001999999995
11
136.4999939999999867
21
-65.500001999999995
0
LINE
8
BLACK
6
CONTINUOUS
10
123.4999940000000009
20
-54.500001999999995
11
123.4999940000000009
21
-51.500001999999995
0
LINE
8
BLACK
6
CONTINUOUS
10
52.4999899999999968
20
-70.300069999999991
11
49.4999899999999968
21
-70.300069999999991
0
LINE
8
BLACK
6
CONTINUOUS
10
61.4999939999999938
20
-88.500001999999995
11
64.4999940000000009
21
-88.500001999999995
0
LINE
8
BLACK
6
CONTINUOUS
10
146.4999939999999867
20
-54.500001999999995
11
146.4999939999999867
21
-51.500001999999995
0
ARC
8
BLACK
10
136.5
20
-65.
40
0.4999980000360001
50
-90.00068755
51
90.00068755
0
LINE
8
BLACK
6
CONTINUOUS
10
49.4999899999999968
20
-59.7000699999999966
11
52.4999899999999968
21
-59.7000699999999966
0
ARC
8
BLACK
10
165.5
20
-89.
40
0.5000020000359998
50
-269.99931245
51
-90.00068755
0
ARC
8
BLACK
10
141.1999899999999855
20
-66.5000699999999938
40
0.5
50
-180.00000000
51
-0.00000000
0
LINE
8
BLACK
6
CONTINUOUS
10
172.6999899999999855
20
-90.5000699999999938
11
172.6999899999999855
21
-87.5000699999999938
0
LINE
8
BLACK
6
CONTINUOUS
10
73.4999899999999968
20
-83.7000699999999966
11
76.4999899999999968
21
-83.7000699999999966
0
LINE
8
BLACK
6
CONTINUOUS
10
156.4999899999999968
20
-71.300069999999991
11
153.4999899999999968
21
-71.300069999999991
0
LINE
8
BLACK
6
CONTINUOUS
10
180.4999899999999968
20
-71.300069999999991
11
177.4999899999999968
21
-71.300069999999991
0
LINE
8
BLACK
6
CONTINUOUS
10
160.2999899999999798
20
-87.5000699999999938
11
160.2999899999999798
21
-90.5000699999999938
0
ARC
8
BLACK
10
145.5
20
-46.8001000000000005
40
0.499970000100006
50
-269.99885415
51
-90.00114598
0
LINE
8
BLACK
6
CONTINUOUS
10
140.6999899999999855
20
-90.5000699999999938
11
140.6999899999999855
21
-87.5000699999999938
0
LINE
8
BLACK
6
CONTINUOUS
10
61.4999939999999938
20
-89.500001999999995
11
64.4999940000000009
21
-89.500001999999995
0
ARC
8
BLACK
10
101.1999899999999997
20
-63.5000699999999938
40
0.5
50
0.00000000
51
180.00000000
0
ARC
8
BLACK
10
101.1999899999999997
20
-39.5000700000000009
40
0.5
50
0.00000000
51
180.00000000
0
ARC
8
BLACK
10
108.5
20
-46.8001000000000005
40
0.500030000099994
50
-90.00114598
51
90.00114585
0
ARC
8
BLACK
10
128.7999900000000082
20
-87.5000699999999938
40
0.5
50
0.00000000
51
180.00000000
0
ARC
8
BLACK
10
56.799989999999994
20
-87.5000699999999938
40
0.5
50
0.00000000
51
180.00000000
0
LINE
8
BLACK
6
CONTINUOUS
10
133.4999939999999867
20
-89.500001999999995
11
136.4999939999999867
21
-89.500001999999995
0
ARC
8
BLACK
10
49.5
20
-59.2000999999999991
40
0.499970000100006
50
-269.99885415
51
-90.00114598
0
LINE
8
BLACK
6
CONTINUOUS
10
161.2999899999999798
20
-39.5000700000000009
11
161.2999899999999798
21
-42.5000700000000009
0
ARC
8
BLACK
10
154.9999939999999867
20
-78.500001999999995
40
0.5
50
-180.00000000
51
-0.00000000
0
ARC
8
BLACK
10
52.5
20
-83.200099999999992
40
0.500030000099994
50
-90.00114598
51
90.00114585
0
ARC
8
BLACK
10
76.5
20
-83.200099999999992
40
0.500030000099994
50
-90.00114598
51
90.00114585
0
LINE
8
BLACK
6
CONTINUOUS
10
108.4999899999999968
20
-46.3000699999999981
11
105.4999899999999968
21
-46.3000699999999981
0
LINE
8
BLACK
6
CONTINUOUS
10
57.299989999999994
20
-39.5000700000000009
11
57.299989999999994
21
-42.5000700000000009
0
ARC
8
BLACK
10
69.1999899999999997
20
-39.5000700000000009
40
0.5
50
0.00000000
51
180.00000000
0
ARC
8
BLACK
10
178.9999939999999867
20
-54.500001999999995
40
0.5
50
-180.00000000
51
-0.00000000
0
ARC
8
BLACK
10
106.9999940000000009
20
-51.500001999999995
40
0.5
50
0.00000000
51
180.00000000
0
ARC
8
BLACK
10
153.5
20
-59.2000999999999991
40
0.499970000100006
50
-269.99885415
51
-90.00114598
0
LINE
8
BLACK
6
CONTINUOUS
10
61.4999939999999938
20
-64.500001999999995
11
64.4999940000000009
21
-64.500001999999995
0
ARC
8
BLACK
10
61.5
20
-65.
40
0.5000020000359998
50
-269.99931245
51
-90.00068755
0
ARC
8
BLACK
10
122.9999940000000009
20
-78.500001999999995
40
0.5
50
-180.00000000
51
-0.00000000
0
LINE
8
BLACK
6
CONTINUOUS
10
49.4999899999999968
20
-58.7000699999999966
11
52.4999899999999968
21
-58.7000699999999966
0
LINE
8
BLACK
6
CONTINUOUS
10
76.4999899999999968
20
-47.3000699999999981
11
73.4999899999999968
21
-47.3000699999999981
0
ARC
8
BLACK
10
177.5
20
-70.8001000000000005
40
0.499970000100006
50
-269.99885415
51
-90.00114598
0
ARC
8
BLACK
10
154.9999939999999867
20
-54.500001999999995
40
0.5
50
-180.00000000
51
-0.00000000
0
ARC
8
BLACK
10
128.7999900000000082
20
-90.5000699999999938
40
0.5
50
-180.00000000
51
-0.00000000
0
ARC
8
BLACK
10
148.5
20
-46.8001000000000005
40
0.500030000099994
50
-90.00114598
51
90.00114585
0
LINE
8
BLACK
6
CONTINUOUS
10
124.4999899999999968
20
-46.3000699999999981
11
121.4999899999999968
21
-46.3000699999999981
0
LINE
8
BLACK
6
CONTINUOUS
10
68.6999899999999997
20
-90.5000699999999938
11
68.6999899999999997
21
-87.5000699999999938
0
LINE
8
BLACK
6
CONTINUOUS
10
105.4999899999999968
20
-83.7000699999999966
11
108.4999899999999968
21
-83.7000699999999966
0
ARC
8
BLACK
10
96.5
20
-89.
40
0.4999980000360001
50
-90.00068755
51
90.00068755
0
LINE
8
BLACK
6
CONTINUOUS
10
177.4999899999999968
20
-58.7000699999999966
11
180.4999899999999968
21
-58.7000699999999966
0
ARC
8
BLACK
10
153.5
20
-46.8001000000000005
40
0.499970000100006
50
-269.99885415
51
-90.00114598
0
ARC
8
BLACK
10
177.5
20
-46.8001000000000005
40
0.499970000100006
50
-269.99885415
51
-90.00114598
0
LINE
8
BLACK
6
CONTINUOUS
10
178.4999939999999867
20
-78.500001999999995
11
178.4999939999999867
21
-75.500001999999995
0
LINE
8
BLACK
6
CONTINUOUS
10
83.4999940000000009
20
-78.500001999999995
11
83.4999940000000009
21
-75.500001999999995
0
ARC
8
BLACK
10
146.9999939999999867
20
-54.500001999999995
40
0.5
50
-180.00000000
51
-0.00000000
0
ARC
8
BLACK
10
50.9999940000000009
20
-75.500001999999995
40
0.5
50
0.00000000
51
180.00000000
0
ARC
8
BLACK
10
84.5
20
-70.8001000000000005
40
0.500030000099994
50
-90.00114598
51
90.00114585
0
LINE
8
BLACK
6
CONTINUOUS
10
133.4999939999999867
20
-41.500001999999995
11
136.4999939999999867
21
-41.500001999999995
0
ARC
8
BLACK
10
124.5
20
-59.2000999999999991
40
0.500030000099994
50
-90.00114598
51
90.00114585
0
ARC
8
BLACK
10
69.1999899999999997
20
-87.5000699999999938
40
0.5
50
0.00000000
51
180.00000000
0
ARC
8
BLACK
10
93.5
20
-41.
40
0.5000020000359998
50
-269.99931245
51
-90.00068755
0
LINE
8
BLACK
6
CONTINUOUS
10
129.2999900000000082
20
-87.5000699999999938
11
129.2999900000000082
21
-90.5000699999999938
0
ARC
8
BLACK
10
61.5
20
-41.
40
0.5000020000359998
50
-269.99931245
51
-90.00068755
0
LINE
8
BLACK
6
CONTINUOUS
10
124.4999899999999968
20
-47.3000699999999981
11
121.4999899999999968
21
-47.3000699999999981
0
ARC
8
BLACK
10
122.9999940000000009
20
-75.500001999999995
40
0.5
50
0.00000000
51
180.00000000
0
LINE
8
BLACK
6
CONTINUOUS
10
121.4999899999999968
20
-83.7000699999999966
11
124.4999899999999968
21
-83.7000699999999966
0
ARC
8
BLACK
10
148.5
20
-59.2000999999999991
40
0.500030000099994
50
-90.00114598
51
90.00114585
0
LINE
8
BLACK
6
CONTINUOUS
10
81.4999899999999968
20
-58.7000699999999966
11
84.4999899999999968
21
-58.7000699999999966
0
ARC
8
BLACK
10
49.5
20
-70.8001000000000005
40
0.499970000100006
50
-269.99885415
51
-90.00114598
0
LINE
8
BLACK
6
CONTINUOUS
10
93.4999940000000009
20
-40.500001999999995
11
96.4999940000000009
21
-40.500001999999995
0
LINE
8
BLACK
6
CONTINUOUS
10
160.2999899999999798
20
-66.5000699999999938
11
160.2999899999999798
21
-63.5000699999999938
0
LINE
8
BLACK
6
CONTINUOUS
10
124.4999899999999968
20
-70.300069999999991
11
121.4999899999999968
21
-70.300069999999991
0
ARC
8
BLACK
10
141.1999899999999855
20
-87.5000699999999938
40
0.5
50
0.00000000
51
180.00000000
0
ARC
8
BLACK
10
160.7999899999999798
20
-39.5000700000000009
40
0.5
50
0.00000000
51
180.00000000
0
LINE
8
BLACK
6
CONTINUOUS
10
172.6999899999999855
20
-42.5000700000000009
11
172.6999899999999855
21
-39.5000700000000009
0
ARC
8
BLACK
10
73.5
20
-59.2000999999999991
40
0.499970000100006
50
-269.99885415
51
-90.00114598
0
ARC
8
BLACK
10
141.1999899999999855
20
-90.5000699999999938
40
0.5
50
-180.00000000
51
-0.00000000
0
ARC
8
BLACK
10
173.1999899999999855
20
-87.5000699999999938
40
0.5
50
0.00000000
51
180.00000000
0
LINE
8
BLACK
6
CONTINUOUS
10
69.6999899999999997
20
-63.5000699999999938
11
69.6999899999999997
21
-66.5000699999999938
0
LINE
8
BLACK
6
CONTINUOUS
10
154.4999939999999867
20
-78.500001999999995
11
154.4999939999999867
21
-75.500001999999995
0
ARC
8
BLACK
10
153.5
20
-83.200099999999992
40
0.499970000100006
50
-269.99885415
51
-90.00114598
0
ARC
8
BLACK
10
88.799989999999994
20
-39.5000700000000009
40
0.5
50
0.00000000
51
180.00000000
0
ARC
8
BLACK
10
81.5
20
-70.8001000000000005
40
0.499970000100006
50
-269.99885415
51
-90.00114598
0
ARC
8
BLACK
10
124.5
20
-83.200099999999992
40
0.500030000099994
50
-90.00114598
51
90.00114585
0
LINE
8
BLACK
6
CONTINUOUS
10
165.4999939999999867
20
-65.500001999999995
11
168.4999939999999867
21
-65.500001999999995
0
ARC
8
BLACK
10
180.5
20
-59.2000999999999991
40
0.500030000099994
50
-90.00114598
51
90.00114585
0
ARC
8
BLACK
10
101.1999899999999997
20
-87.5000699999999938
40
0.5
50
0.00000000
51
180.00000000
0
LINE
8
BLACK
6
CONTINUOUS
10
121.4999899999999968
20
-82.7000699999999966
11
124.4999899999999968
21
-82.7000699999999966
0
ARC
8
BLACK
10
168.5
20
-41.
40
0.4999980000360001
50
-90.00068755
51
90.00068755
0
ARC
8
BLACK
10
64.5
20
-65.
40
0.4999980000360001
50
-90.00068755
51
90.00068755
0
ARC
8
BLACK
10
93.5
20
-89.
40
0.5000020000359998
50
-269.99931245
51
-90.00068755
0
ARC
8
BLACK
10
101.1999899999999997
20
-90.5000699999999938
40
0.5
50
-180.00000000
51
-0.00000000
0
LINE
8
BLACK
6
CONTINUOUS
10
83.4999940000000009
20
-54.500001999999995
11
83.4999940000000009
21
-51.500001999999995
0
ARC
8
BLACK
10
74.9999940000000009
20
-78.500001999999995
40
0.5
50
-180.00000000
51
-0.00000000
0
LINE
8
BLACK
6
CONTINUOUS
10
180.4999899999999968
20
-47.3000699999999981
11
177.4999899999999968
21
-47.3000699999999981
0
LINE
8
BLACK
6
CONTINUOUS
10
68.6999899999999997
20
-42.5000700000000009
11
68.6999899999999997
21
-39.5000700000000009
0
LINE
8
BLACK
6
CONTINUOUS
10
106.4999940000000009
20
-78.500001999999995
11
106.4999940000000009
21
-75.500001999999995
0
LINE
8
BLACK
6
CONTINUOUS
10
73.4999899999999968
20
-59.7000699999999966
11
76.4999899999999968
21
-59.7000699999999966
0
ARC
8
BLACK
10
56.799989999999994
20
-63.5000699999999938
40
0.5
50
0.00000000
51
180.00000000
0
LINE
8
BLACK
6
CONTINUOUS
10
107.4999940000000009
20
-78.500001999999995
11
107.4999940000000009
21
-75.500001999999995
0
ARC
8
BLACK
10
56.799989999999994
20
-90.5000699999999938
40
0.5
50
-180.00000000
51
-0.00000000
0
ARC
8
BLACK
10
74.9999940000000009
20
-75.500001999999995
40
0.5
50
0.00000000
51
180.00000000
0
LINE
8
BLACK
6
CONTINUOUS
10
165.4999939999999867
20
-64.500001999999995
11
168.4999939999999867
21
-64.500001999999995
0
ARC
8
BLACK
10
88.799989999999994
20
-63.5000699999999938
40
0.5
50
0.00000000
51
180.00000000
0
LINE
8
BLACK
6
CONTINUOUS
10
148.4999899999999968
20
-71.300069999999991
11
145.4999899999999968
21
-71.300069999999991
0
ARC
8
BLACK
10
81.5
20
-59.2000999999999991
40
0.499970000100006
50
-269.99885415
51
-90.00114598
0
LINE
8
BLACK
6
CONTINUOUS
10
153.4999899999999968
20
-58.7000699999999966
11
156.4999899999999968
21
-58.7000699999999966
0
LINE
8
BLACK
6
CONTINUOUS
10
140.6999899999999855
20
-42.5000700000000009
11
140.6999899999999855
21
-39.5000700000000009
0
ARC
8
BLACK
10
128.7999900000000082
20
-66.5000699999999938
40
0.5
50
-180.00000000
51
-0.00000000
0
LINE
8
BLACK
6
CONTINUOUS
10
49.4999899999999968
20
-82.7000699999999966
11
52.4999899999999968
21
-82.7000699999999966
0
LINE
8
BLACK
6
CONTINUOUS
10
153.4999899999999968
20
-82.7000699999999966
11
156.4999899999999968
21
-82.7000699999999966
0
LINE
8
BLACK
6
CONTINUOUS
10
89.299989999999994
20
-87.5000699999999938
11
89.299989999999994
21
-90.5000699999999938
0
ARC
8
BLACK
10
105.5
20
-83.200099999999992
40
0.499970000100006
50
-269.99885415
51
-90.00114598
0
ARC
8
BLACK
10
52.5
20
-59.2000999999999991
40
0.500030000099994
50
-90.00114598
51
90.00114585
0
LINE
8
BLACK
6
CONTINUOUS
10
88.299989999999994
20
-66.5000699999999938
11
88.299989999999994
21
-63.5000699999999938
0
LINE
8
BLACK
6
CONTINUOUS
10
148.4999899999999968
20
-70.300069999999991
11
145.4999899999999968
21
-70.300069999999991
0
ARC
8
BLACK
10
81.5
20
-83.200099999999992
40
0.499970000100006
50
-269.99885415
51
-90.00114598
0
ARC
8
BLACK
10
141.1999899999999855
20
-42.5000700000000009
40
0.5
50
-180.00000000
51
-0.00000000
0
ARC
8
BLACK
10
180.5
20
-83.200099999999992
40
0.500030000099994
50
-90.00114598
51
90.00114585
0
ARC
8
BLACK
10
49.5
20
-83.200099999999992
40
0.499970000100006
50
-269.99885415
51
-90.00114598
0
ARC
8
BLACK
10
74.9999940000000009
20
-54.500001999999995
40
0.5
50
-180.00000000
51
-0.00000000
0
LINE
8
BLACK
6
CONTINUOUS
10
61.4999939999999938
20
-65.500001999999995
11
64.4999940000000009
21
-65.500001999999995
0
LINE
8
BLACK
6
CONTINUOUS
10
141.6999899999999855
20
-90.5000699999999938
11
141.6999899999999855
21
-87.5000699999999938
0
ARC
8
BLACK
10
56.799989999999994
20
-66.5000699999999938
40
0.5
50
-180.00000000
51
-0.00000000
0
ARC
8
BLACK
10
88.799989999999994
20
-42.5000700000000009
40
0.5
50
-180.00000000
51
-0.00000000
0
ARC
8
BLACK
10
61.5
20
-89.
40
0.5000020000359998
50
-269.99931245
51
-90.00068755
0
LINE
8
BLACK
6
CONTINUOUS
10
173.6999899999999855
20
-90.5000699999999938
11
173.6999899999999855
21
-87.5000699999999938
0
LINE
8
BLACK
6
CONTINUOUS
10
81.4999899999999968
20
-83.7000699999999966
11
84.4999899999999968
21
-83.7000699999999966
0
ARC
8
BLACK
10
69.1999899999999997
20
-42.5000700000000009
40
0.5
50
-180.00000000
51
-0.00000000
0
LINE
8
BLACK
6
CONTINUOUS
10
147.4999939999999867
20
-54.500001999999995
11
147.4999939999999867
21
-51.500001999999995
0
LINE
8
BLACK
6
CONTINUOUS
10
128.2999900000000082
20
-66.5000699999999938
11
128.2999900000000082
21
-63.5000699999999938
0
ARC
8
BLACK
10
50.9999940000000009
20
-51.500001999999995
40
0.5
50
0.00000000
51
180.00000000
0
LINE
8
BLACK
6
CONTINUOUS
10
180.4999899999999968
20
-70.300069999999991
11
177.4999899999999968
21
-70.300069999999991
0
ARC
8
BLACK
10
180.5
20
-46.8001000000000005
40
0.500030000099994
50
-90.00114598
51
90.00114585
0
LINE
8
BLACK
6
CONTINUOUS
10
52.4999899999999968
20
-46.3000699999999981
11
49.4999899999999968
21
-46.3000699999999981
0
LINE
8
BLACK
6
CONTINUOUS
10
75.4999940000000009
20
-78.500001999999995
11
75.4999940000000009
21
-75.500001999999995
0
LINE
8
BLACK
6
CONTINUOUS
10
101.6999899999999997
20
-90.5000699999999938
11
101.6999899999999997
21
-87.5000699999999938
0
LINE
8
BLACK
6
CONTINUOUS
10
56.299989999999994
20
-66.5000699999999938
11
56.299989999999994
21
-63.5000699999999938
0
LINE
8
BLACK
6
CONTINUOUS
10
172.6999899999999855
20
-63.5000699999999938
11
172.6999899999999855
21
-66.5000699999999938
0
ARC
8
BLACK
10
145.5
20
-83.200099999999992
40
0.499970000100006
50
-269.99885415
51
-90.00114598
0
LINE
8
BLACK
6
CONTINUOUS
10
93.4999940000000009
20
-41.500001999999995
11
96.4999940000000009
21
-41.500001999999995
0
ARC
8
BLACK
10
128.7999900000000082
20
-42.5000700000000009
40
0.5
50
-180.00000000
51
-0.00000000
0
ARC
8
BLACK
10
82.9999940000000009
20
-75.500001999999995
40
0.5
50
0.00000000
51
180.00000000
0
ARC
8
BLACK
10
56.799989999999994
20
-42.5000700000000009
40
0.5
50
-180.00000000
51
-0.00000000
0
ARC
8
BLACK
10
50.9999940000000009
20
-54.500001999999995
40
0.5
50
-180.00000000
51
-0.00000000
0
ARC
8
BLACK
10
173.1999899999999855
20
-42.5000700000000009
40
0.5
50
-180.00000000
51
-0.00000000
0
ARC
8
BLACK
10
69.1999899999999997
20
-90.5000699999999938
40
0.5
50
-180.00000000
51
-0.00000000
0
ARC
8
BLACK
10
64.5
20
-89.
40
0.4999980000360001
50
-90.00068755
51
90.00068755
0
LINE
8
BLACK
6
CONTINUOUS
10
108.4999899999999968
20
-47.3000699999999981
11
105.4999899999999968
21
-47.3000699999999981
0
LINE
8
BLACK
6
CONTINUOUS
10
68.6999899999999997
20
-63.5000699999999938
11
68.6999899999999997
21
-66.5000699999999938
0
ARC
8
BLACK
10
160.7999899999999798
20
-63.5000699999999938
40
0.5
50
0.00000000
51
180.00000000
0
LINE
8
BLACK
6
CONTINUOUS
10
84.4999899999999968
20
-70.300069999999991
11
81.4999899999999968
21
-70.300069999999991
0
ARC
8
BLACK
10
121.5
20
-46.8001000000000005
40
0.499970000100006
50
-269.99885415
51
-90.00114598
0
ARC
8
BLACK
10
76.5
20
-59.2000999999999991
40
0.500030000099994
50
-90.00114598
51
90.00114585
0
ARC
8
BLACK
10
76.5
20
-46.8001000000000005
40
0.500030000099994
50
-90.00114598
51
90.00114585
0
LINE
8
BLACK
6
CONTINUOUS
10
82.4999940000000009
20
-78.500001999999995
11
82.4999940000000009
21
-75.500001999999995
0
LINE
8
BLACK
6
CONTINUOUS
10
141.6999899999999855
20
-42.5000700000000009
11
141.6999899999999855
21
-39.5000700000000009
0
LINE
8
BLACK
6
CONTINUOUS
10
148.4999899999999968
20
-47.3000699999999981
11
145.4999899999999968
21
-47.3000699999999981
0
ARC
8
BLACK
10
145.5
20
-59.2000999999999991
40
0.499970000100006
50
-269.99885415
51
-90.00114598
0
ARC
8
BLACK
10
73.5
20
-83.200099999999992
40
0.499970000100006
50
-269.99885415
51
-90.00114598
0
LINE
8
BLACK
6
CONTINUOUS
10
165.4999939999999867
20
-40.500001999999995
11
168.4999939999999867
21
-40.500001999999995
0
LINE
8
BLACK
6
CONTINUOUS
10
49.4999899999999968
20
-83.7000699999999966
11
52.4999899999999968
21
-83.7000699999999966
0
ARC
8
BLACK
10
133.5
20
-65.
40
0.5000020000359998
50
-269.99931245
51
-90.00068755
0
LINE
8
BLACK
6
CONTINUOUS
10
75.4999940000000009
20
-54.500001999999995
11
75.4999940000000009
21
-51.500001999999995
0
LINE
8
BLACK
6
CONTINUOUS
10
173.6999899999999855
20
-63.5000699999999938
11
173.6999899999999855
21
-66.5000699999999938
0
ARC
8
BLACK
10
106.9999940000000009
20
-75.500001999999995
40
0.5
50
0.00000000
51
180.00000000
0
ARC
8
BLACK
10
177.5
20
-83.200099999999992
40
0.499970000100006
50
-269.99885415
51
-90.00114598
0
ARC
8
BLACK
10
146.9999939999999867
20
-51.500001999999995
40
0.5
50
0.00000000
51
180.00000000
0
LINE
8
BLACK
6
CONTINUOUS
10
165.4999939999999867
20
-89.500001999999995
11
168.4999939999999867
21
-89.500001999999995
0
LINE
8
BLACK
6
CONTINUOUS
10
73.4999899999999968
20
-82.7000699999999966
11
76.4999899999999968
21
-82.7000699999999966
0
ARC
8
BLACK
10
88.799989999999994
20
-66.5000699999999938
40
0.5
50
-180.00000000
51
-0.00000000
0
ARC
8
BLACK
10
145.5
20
-70.8001000000000005
40
0.499970000100006
50
-269.99885415
51
-90.00114598
0
ARC
8
BLACK
10
124.5
20
-46.8001000000000005
40
0.500030000099994
50
-90.00114598
51
90.00114585
0
LINE
8
BLACK
6
CONTINUOUS
10
101.6999899999999997
20
-63.5000699999999938
11
101.6999899999999997
21
-66.5000699999999938
  0
ENDSEC
  0
EOF
