  0
SECTION
  2
HEADER
  9
$ANGBASE
  50
0.0
  9
$ANGDIR
  70
1
  9
$MEASUREMENT
  70
1
  0
ENDSEC
  0
SECTION
  2
TABLES
  0
TABLE
  2
LTYPE
  70
4
  0
LTYPE
  5
40F
  2
CONTINUOUS
  70
0
  3
Solid line
  72
65
  73
0
  40
0.0
  0
LTYPE
  5
410
  2
DASHDOT
 70
0
  3
Dash Dot ____ _ ____ _
 72
65
 73
4
 40
2.0
 49
1.25
 49
-0.25
 49
0.25
 49
-0.25
  0
LTYPE
  5
411
  2
DASHED
 70
0
  3
Dashed __ __ __ __ __
 72
65
 73
2
 40
0.75
 49
0.5
 49
-0.25
  0
LTYPE
  5
43B
  2
DOTTED
 70
0
  3
Dotted .  .  .  .
 72
65
 73
2
 40
0.2
 49
0.0
 49
-0.2
  0
ENDTAB
  0
TABLE
  2
STYLE
  70
4
  0
STYLE
  2
KICAD
  70
0
  40
0
  41
1
  42
1
  50
0
  71
0
  3
isocp.shx
  0
STYLE
  2
KICADB
  70
0
  40
0
  41
1
  42
1
  50
0
  71
0
  3
isocp.shx
  0
STYLE
  2
KICADI
  70
0
  40
0
  41
1
  42
1
  50
15
  71
0
  3
isocp.shx
  0
STYLE
  2
KICADBI
  70
0
  40
0
  41
1
  42
1
  50
15
  71
0
  3
isocp.shx
  0
ENDTAB
  0
TABLE
  2
LAYER
  70
1
  0
LAYER
  2
BLACK
  70
0
  62
7
  6
CONTINUOUS
  0
ENDTAB
  0
ENDSEC
  0
SECTION
  2
ENTITIES
0
LINE
8
BLACK
6
CONTINUOUS
10
-228.3999999999999773
20
36.1000000000000014
11
-228.3999999999999773
21
39.1000000000000014
0
LINE
8
BLACK
6
CONTINUOUS
10
-222.6499999999999773
20
29.0999999999999979
11
-227.8999999999999773
21
36.0999979999999994
0
ARC
8
BLACK
10
-238.4000020000000006
20
31.1000049999999995
40
2.4999952000003915
50
89.99993124
51
143.13013444
0
LINE
8
BLACK
6
CONTINUOUS
10
-238.4000020000000006
20
33.6000000000000014
11
-230.4000010000000032
21
33.6000000000000014
0
LINE
8
BLACK
6
CONTINUOUS
10
-228.3999999999999773
20
32.6000000000000014
11
-226.8999999999999773
21
30.5999989999999968
0
LINE
8
BLACK
6
CONTINUOUS
10
-228.3999999999999773
20
36.1000000000000014
11
-227.8999999999999773
21
36.0999979999999994
0
LINE
8
BLACK
6
CONTINUOUS
10
-223.6499999999999773
20
27.0999999999999979
11
-245.1499999999999773
21
27.1000019999999999
0
LINE
8
BLACK
6
CONTINUOUS
10
-228.3999999999999773
20
39.1000000000000014
11
-240.3999999999999773
21
39.1000000000000014
0
LINE
8
BLACK
6
CONTINUOUS
10
-241.8999999999999773
20
30.5999999999999979
11
-240.3999989999999798
21
32.6000009999999989
0
ARC
8
BLACK
10
-245.1499999999999773
20
28.3500019999999999
40
1.25
50
-216.86989765
51
-90.00000000
0
ARC
8
BLACK
10
-227.3999999999999773
20
30.2249999999999979
40
0.624999400000512
50
-90.00000000
51
36.86982431
0
LINE
8
BLACK
6
CONTINUOUS
10
-240.8999999999999773
20
36.1000019999999964
11
-240.3999999999999773
21
36.1000000000000014
0
ARC
8
BLACK
10
-223.6499999999999773
20
28.3499999999999979
40
1.25
50
-90.00000000
51
36.86989765
0
ARC
8
BLACK
10
-241.3999999999999773
20
30.2249999999999979
40
0.625
50
-216.86989765
51
-90.00000000
0
LINE
8
BLACK
6
CONTINUOUS
10
-227.3999999999999773
20
29.5999990000000004
11
-241.3999999999999773
21
29.5999999999999979
0
LINE
8
BLACK
6
CONTINUOUS
10
-240.3999999999999773
20
39.1000000000000014
11
-240.3999999999999773
21
36.1000000000000014
0
LINE
8
BLACK
6
CONTINUOUS
10
-240.8999999999999773
20
36.1000019999999964
11
-246.1499999999999773
21
29.1000039999999984
0
ARC
8
BLACK
10
-230.3999999999999773
20
31.0999999999999979
40
2.5000000000001998
50
36.86989765
51
90.00002292
0
LINE
8
BLACK
6
CONTINUOUS
10
-228.3999999999999773
20
23.5
11
-228.3999999999999773
21
26.5
0
LINE
8
BLACK
6
CONTINUOUS
10
-222.6499999999999773
20
16.5
11
-227.8999999999999773
21
23.4999979999999979
0
ARC
8
BLACK
10
-238.4000020000000006
20
18.500004999999998
40
2.4999952000003915
50
89.99993124
51
143.13013444
0
LINE
8
BLACK
6
CONTINUOUS
10
-238.4000020000000006
20
21.
11
-230.4000010000000032
21
21.
0
LINE
8
BLACK
6
CONTINUOUS
10
-228.3999999999999773
20
20.
11
-226.8999999999999773
21
17.999998999999999
0
LINE
8
BLACK
6
CONTINUOUS
10
-228.3999999999999773
20
23.5
11
-227.8999999999999773
21
23.4999979999999979
0
LINE
8
BLACK
6
CONTINUOUS
10
-223.6499999999999773
20
14.5
11
-245.1499999999999773
21
14.5000019999999985
0
LINE
8
BLACK
6
CONTINUOUS
10
-228.3999999999999773
20
26.5
11
-240.3999999999999773
21
26.5
0
LINE
8
BLACK
6
CONTINUOUS
10
-241.8999999999999773
20
18.
11
-240.3999989999999798
21
20.0000009999999975
0
ARC
8
BLACK
10
-245.1499999999999773
20
15.7500019999999985
40
1.25
50
-216.86989765
51
-90.00000000
0
ARC
8
BLACK
10
-227.3999999999999773
20
17.625
40
0.624999400000512
50
-90.00000000
51
36.86982431
0
LINE
8
BLACK
6
CONTINUOUS
10
-240.8999999999999773
20
23.5000019999999985
11
-240.3999999999999773
21
23.5
0
ARC
8
BLACK
10
-223.6499999999999773
20
15.75
40
1.25
50
-90.00000000
51
36.86989765
0
ARC
8
BLACK
10
-241.3999999999999773
20
17.625
40
0.625
50
-216.86989765
51
-90.00000000
0
LINE
8
BLACK
6
CONTINUOUS
10
-227.3999999999999773
20
16.999998999999999
11
-241.3999999999999773
21
17.
0
LINE
8
BLACK
6
CONTINUOUS
10
-240.3999999999999773
20
26.5
11
-240.3999999999999773
21
23.5
0
LINE
8
BLACK
6
CONTINUOUS
10
-240.8999999999999773
20
23.5000019999999985
11
-246.1499999999999773
21
16.5000040000000006
0
ARC
8
BLACK
10
-230.3999999999999773
20
18.5
40
2.5000000000001998
50
36.86989765
51
90.00002292
0
LINE
8
BLACK
6
CONTINUOUS
10
-228.3999999999999773
20
11.0999999999999996
11
-228.3999999999999773
21
14.0999999999999996
0
LINE
8
BLACK
6
CONTINUOUS
10
-222.6499999999999773
20
4.0999999999999996
11
-227.8999999999999773
21
11.0999979999999994
0
ARC
8
BLACK
10
-238.4000020000000006
20
6.1000049999999995
40
2.4999952000003915
50
89.99993124
51
143.13013444
0
LINE
8
BLACK
6
CONTINUOUS
10
-238.4000020000000006
20
8.5999999999999996
11
-230.4000010000000032
21
8.5999999999999996
0
LINE
8
BLACK
6
CONTINUOUS
10
-228.3999999999999773
20
7.5999999999999996
11
-226.8999999999999773
21
5.5999989999999995
0
LINE
8
BLACK
6
CONTINUOUS
10
-228.3999999999999773
20
11.0999999999999996
11
-227.8999999999999773
21
11.0999979999999994
0
LINE
8
BLACK
6
CONTINUOUS
10
-223.6499999999999773
20
2.1000000000000001
11
-245.1499999999999773
21
2.1000019999999999
0
LINE
8
BLACK
6
CONTINUOUS
10
-228.3999999999999773
20
14.0999999999999996
11
-240.3999999999999773
21
14.0999999999999996
0
LINE
8
BLACK
6
CONTINUOUS
10
-241.8999999999999773
20
5.5999999999999996
11
-240.3999989999999798
21
7.6000009999999998
0
ARC
8
BLACK
10
-245.1499999999999773
20
3.3500019999999999
40
1.25
50
-216.86989765
51
-90.00000000
0
ARC
8
BLACK
10
-227.3999999999999773
20
5.2249999999999996
40
0.624999400000512
50
-90.00000000
51
36.86982431
0
LINE
8
BLACK
6
CONTINUOUS
10
-240.8999999999999773
20
11.1000019999999999
11
-240.3999999999999773
21
11.0999999999999996
0
ARC
8
BLACK
10
-223.6499999999999773
20
3.3499999999999996
40
1.25
50
-90.00000000
51
36.86989765
0
ARC
8
BLACK
10
-241.3999999999999773
20
5.2249999999999996
40
0.625
50
-216.86989765
51
-90.00000000
0
LINE
8
BLACK
6
CONTINUOUS
10
-227.3999999999999773
20
4.5999989999999995
11
-241.3999999999999773
21
4.5999999999999996
0
LINE
8
BLACK
6
CONTINUOUS
10
-240.3999999999999773
20
14.0999999999999996
11
-240.3999999999999773
21
11.0999999999999996
0
LINE
8
BLACK
6
CONTINUOUS
10
-240.8999999999999773
20
11.1000019999999999
11
-246.1499999999999773
21
4.1000040000000002
0
ARC
8
BLACK
10
-230.3999999999999773
20
6.0999999999999996
40
2.5000000000001998
50
36.86989765
51
90.00002292
0
LINE
8
BLACK
6
CONTINUOUS
10
-240.8999979999999823
20
48.500001999999995
11
-240.3999979999999823
21
48.5
0
LINE
8
BLACK
6
CONTINUOUS
10
-228.3999979999999823
20
48.5
11
-227.8999979999999823
21
48.4999979999999979
0
LINE
8
BLACK
6
CONTINUOUS
10
-228.3999979999999823
20
45.
11
-226.8999979999999823
21
42.9999989999999954
0
LINE
8
BLACK
6
CONTINUOUS
10
-238.3999999999999773
20
46.
11
-230.3999989999999798
21
46.
0
LINE
8
BLACK
6
CONTINUOUS
10
-241.8999979999999823
20
43.
11
-240.3999969999999848
21
45.0000009999999975
0
LINE
8
BLACK
6
CONTINUOUS
10
-227.3999979999999823
20
41.9999989999999954
11
-241.3999979999999823
21
42.
0
ARC
8
BLACK
10
-241.3999979999999823
20
42.625
40
0.625
50
-216.86989765
51
-90.00000000
0
ARC
8
BLACK
10
-238.3999969999999848
20
43.5
40
2.5000006000001282
50
90.00000000
51
143.13008402
0
ARC
8
BLACK
10
-230.3999979999999823
20
43.5
40
2.5000000000001998
50
36.86989765
51
90.00002292
0
ARC
8
BLACK
10
-227.3999979999999823
20
42.6249989999999954
40
0.625
50
-90.00000000
51
36.86989765
0
LINE
8
BLACK
6
CONTINUOUS
10
-223.6499979999999823
20
39.5
11
-245.1499979999999823
21
39.500001999999995
0
LINE
8
BLACK
6
CONTINUOUS
10
-222.6499979999999823
20
41.5
11
-227.8999979999999823
21
48.4999979999999979
0
LINE
8
BLACK
6
CONTINUOUS
10
-240.8999979999999823
20
48.500001999999995
11
-246.1499979999999823
21
41.500003999999997
0
ARC
8
BLACK
10
-245.1499979999999823
20
40.750001999999995
40
1.25
50
-216.86989765
51
-90.00000000
0
ARC
8
BLACK
10
-223.6499979999999823
20
40.75
40
1.25
50
-90.00000000
51
36.86989765
0
LINE
8
BLACK
6
CONTINUOUS
10
-240.3999979999999823
20
51.5
11
-240.3999979999999823
21
48.5
0
LINE
8
BLACK
6
CONTINUOUS
10
-228.3999979999999823
20
51.5
11
-240.3999979999999823
21
51.5
0
LINE
8
BLACK
6
CONTINUOUS
10
-228.3999979999999823
20
48.5
11
-228.3999979999999823
21
51.5
0
LINE
8
BLACK
6
CONTINUOUS
10
-235.
20
-3.
11
-230.
21
-3.
0
LINE
8
BLACK
6
CONTINUOUS
10
-230.
20
-3.
11
-230.
21
-4.
0
LINE
8
BLACK
6
CONTINUOUS
10
-230.
20
-4.
11
-235.
21
-4.
0
LINE
8
BLACK
6
CONTINUOUS
10
-235.
20
-4.
11
-235.
21
-3.
0
LINE
8
BLACK
6
CONTINUOUS
10
-237.
20
1.
11
-228.
21
1.
0
LINE
8
BLACK
6
CONTINUOUS
10
-228.
20
1.
11
-228.
21
-8.
0
LINE
8
BLACK
6
CONTINUOUS
10
-228.
20
-8.
11
-237.
21
-8.
0
LINE
8
BLACK
6
CONTINUOUS
10
-237.
20
-8.
11
-237.
21
1.
0
ARC
8
BLACK
10
-263.
20
-131.
40
15.0000040000005317
50
-89.99999236
51
0.00001528
0
ARC
8
BLACK
10
-262.9999970000000076
20
39.0000029999999995
40
15.000001000000033
50
-0.00000382
51
89.99999618
0
ARC
8
BLACK
10
-333.
20
-131.
40
9.9999950000084503
50
-180.00002292
51
-89.99992552
0
ARC
8
BLACK
10
-256.
20
-46.
40
5.
50
-270.00000000
51
-90.00000000
0
LINE
8
BLACK
6
CONTINUOUS
10
-347.999998000000005
20
39.000003999999997
11
-347.999984999999981
21
-130.9999939999999867
0
LINE
8
BLACK
6
CONTINUOUS
10
-332.9999950000000126
20
49.0000029999999995
11
-263.0000009999999975
21
48.9999979999999979
0
LINE
8
BLACK
6
CONTINUOUS
10
-324.5000009999999975
20
-126.8999659999999921
11
-324.5
21
-120.9113249999999908
0
LINE
8
BLACK
6
CONTINUOUS
10
-256.
20
-51.
11
-253.0000009999999975
21
-51.
0
CIRCLE
8
BLACK
10
-302.8000710000000026
20
-123.9000020000000006
40
2.5
0
LINE
8
BLACK
6
CONTINUOUS
10
-328.500033999999971
20
-120.9000119999999896
11
-328.5000609999999597
21
-126.8999589999999955
0
ARC
8
BLACK
10
-263.
20
38.9999989999999954
40
9.9999990000040491
50
0.00000000
51
90.00005157
0
LINE
8
BLACK
6
CONTINUOUS
10
-256.
20
-41.
11
-253.0000009999999975
21
-41.
0
LINE
8
BLACK
6
CONTINUOUS
10
-342.9999950000000126
20
-130.9999959999999817
11
-342.9999950000000126
21
38.9999949999999984
0
ARC
8
BLACK
10
-332.9999960000000101
20
39.000003999999997
40
9.9999990000040491
50
-270.00000000
51
-179.99994843
0
ARC
8
BLACK
10
-326.5
20
-120.90003999999999
40
2.0000340000809986
50
-360.00071619
51
-179.99948435
0
CIRCLE
8
BLACK
10
-284.8000710000000026
20
-123.9000020000000006
40
2.5
0
ARC
8
BLACK
10
-333.
20
-131.
40
14.9999960000005323
50
-180.00002292
51
-89.99998472
0
LINE
8
BLACK
6
CONTINUOUS
10
-253.0000009999999975
20
38.9999979999999979
11
-253.0000009999999975
21
-130.9999919999999918
0
ARC
8
BLACK
10
-263.
20
-131.
40
9.9999990000032
50
-90.00000000
51
0.00004584
0
ARC
8
BLACK
10
-332.9999950000000126
20
39.0000029999999995
40
15.000001000000033
50
89.99999618
51
179.99999618
0
LINE
8
BLACK
6
CONTINUOUS
10
-247.9999979999999766
20
-131.000001999999995
11
-247.9999969999999792
21
39.000001999999995
0
CIRCLE
8
BLACK
10
-293.8000710000000026
20
-123.9000020000000006
40
2.5
0
LINE
8
BLACK
6
CONTINUOUS
10
-262.9999809999999911
20
54.
11
-332.9999939999999583
21
54.000003999999997
0
LINE
8
BLACK
6
CONTINUOUS
10
-332.9999659999999722
20
-145.9999959999999817
11
-262.999998000000005
21
-145.9999949999999842
0
ARC
8
BLACK
10
-326.5000299999999811
20
-126.8999799999999993
40
2.0000290000489991
50
-180.00060160
51
0.00040106
0
LINE
8
BLACK
6
CONTINUOUS
10
-263.
20
-141.
11
-332.999986999999976
21
-140.9999939999999867
0
LINE
8
BLACK
6
CONTINUOUS
10
-204.0118369999999857
20
6.0000099999999996
11
-207.0118369999999857
21
6.0000099999999996
0
LINE
8
BLACK
6
CONTINUOUS
10
-133.7857079999999996
20
-5.3683540000000001
11
-133.7857079999999996
21
-2.3683540000000001
0
LINE
8
BLACK
6
CONTINUOUS
10
-133.7857079999999996
20
-2.3683540000000001
11
-134.4999939999999867
21
-2.3683540000000001
0
LINE
8
BLACK
6
CONTINUOUS
10
-134.4999939999999867
20
-2.3683540000000001
11
-134.9285649999999919
21
-2.5112109999999999
0
LINE
8
BLACK
6
CONTINUOUS
10
-134.9285649999999919
20
-2.5112109999999999
11
-135.2142800000000022
21
-2.7969249999999999
0
LINE
8
BLACK
6
CONTINUOUS
10
-135.2142800000000022
20
-2.7969249999999999
11
-135.3571369999999945
21
-3.0826389999999999
0
LINE
8
BLACK
6
CONTINUOUS
10
-135.3571369999999945
20
-3.0826389999999999
11
-135.4999939999999867
21
-3.6540679999999996
0
LINE
8
BLACK
6
CONTINUOUS
10
-135.4999939999999867
20
-3.6540679999999996
11
-135.4999939999999867
21
-4.0826389999999995
0
LINE
8
BLACK
6
CONTINUOUS
10
-135.4999939999999867
20
-4.0826389999999995
11
-135.3571369999999945
21
-4.6540679999999996
0
LINE
8
BLACK
6
CONTINUOUS
10
-135.3571369999999945
20
-4.6540679999999996
11
-135.2142800000000022
21
-4.9397820000000001
0
LINE
8
BLACK
6
CONTINUOUS
10
-135.2142800000000022
20
-4.9397820000000001
11
-134.9285649999999919
21
-5.2254969999999998
0
LINE
8
BLACK
6
CONTINUOUS
10
-134.9285649999999919
20
-5.2254969999999998
11
-134.4999939999999867
21
-5.3683540000000001
0
LINE
8
BLACK
6
CONTINUOUS
10
-134.4999939999999867
20
-5.3683540000000001
11
-133.7857079999999996
21
-5.3683540000000001
0
LINE
8
BLACK
6
CONTINUOUS
10
-136.4999939999999867
20
-2.3683540000000001
11
-138.4999939999999867
21
-2.3683540000000001
0
LINE
8
BLACK
6
CONTINUOUS
10
-138.4999939999999867
20
-2.3683540000000001
11
-137.2142800000000022
21
-5.3683540000000001
0
LINE
8
BLACK
6
CONTINUOUS
10
-135.3689779999999985
20
7.4887999999999995
11
-135.0832639999999856
21
7.6316569999999997
0
LINE
8
BLACK
6
CONTINUOUS
10
-135.0832639999999856
20
7.6316569999999997
11
-134.654691999999983
21
7.6316569999999997
0
LINE
8
BLACK
6
CONTINUOUS
10
-134.654691999999983
20
7.6316569999999997
11
-134.2261210000000062
21
7.4887999999999995
0
LINE
8
BLACK
6
CONTINUOUS
10
-134.2261210000000062
20
7.4887999999999995
11
-133.9404059999999959
21
7.2030859999999999
0
LINE
8
BLACK
6
CONTINUOUS
10
-133.9404059999999959
20
7.2030859999999999
11
-133.7975490000000036
21
6.9173719999999994
0
LINE
8
BLACK
6
CONTINUOUS
10
-133.7975490000000036
20
6.9173719999999994
11
-133.654691999999983
21
6.3459430000000001
0
LINE
8
BLACK
6
CONTINUOUS
10
-133.654691999999983
20
6.3459430000000001
11
-133.654691999999983
21
5.9173719999999994
0
LINE
8
BLACK
6
CONTINUOUS
10
-133.654691999999983
20
5.9173719999999994
11
-133.7975490000000036
21
5.3459430000000001
0
LINE
8
BLACK
6
CONTINUOUS
10
-133.7975490000000036
20
5.3459430000000001
11
-133.9404059999999959
21
5.0602289999999996
0
LINE
8
BLACK
6
CONTINUOUS
10
-133.9404059999999959
20
5.0602289999999996
11
-134.2261210000000062
21
4.7745150000000001
0
LINE
8
BLACK
6
CONTINUOUS
10
-134.2261210000000062
20
4.7745150000000001
11
-134.654691999999983
21
4.6316569999999997
0
LINE
8
BLACK
6
CONTINUOUS
10
-134.654691999999983
20
4.6316569999999997
11
-134.9404059999999959
21
4.6316569999999997
0
LINE
8
BLACK
6
CONTINUOUS
10
-134.9404059999999959
20
4.6316569999999997
11
-135.3689779999999985
21
4.7745150000000001
0
LINE
8
BLACK
6
CONTINUOUS
10
-135.3689779999999985
20
4.7745150000000001
11
-135.5118349999999907
21
4.9173719999999994
0
LINE
8
BLACK
6
CONTINUOUS
10
-135.5118349999999907
20
4.9173719999999994
11
-135.5118349999999907
21
5.9173719999999994
0
LINE
8
BLACK
6
CONTINUOUS
10
-135.5118349999999907
20
5.9173719999999994
11
-134.9404059999999959
21
5.9173719999999994
0
LINE
8
BLACK
6
CONTINUOUS
10
-136.5118349999999907
20
7.6316569999999997
11
-138.5118349999999907
21
7.6316569999999997
0
LINE
8
BLACK
6
CONTINUOUS
10
-138.5118349999999907
20
7.6316569999999997
11
-137.2261210000000062
21
4.6316569999999997
0
LINE
8
BLACK
6
CONTINUOUS
10
-51.0118349999999978
20
10.0000099999999996
11
-221.0118389999999806
21
10.0000109999999989
0
LINE
8
BLACK
6
CONTINUOUS
10
-207.0118369999999857
20
2.0000100000000001
11
-221.0236620000000016
21
2.0000399999999998
0
LINE
8
BLACK
6
CONTINUOUS
10
-68.0118369999999999
20
0.000007
11
-68.0118369999999999
21
-3.9999929999999999
0
LINE
8
BLACK
6
CONTINUOUS
10
-204.0118369999999857
20
-3.9999899999999999
11
-204.0118369999999857
21
0.00001
0
LINE
8
BLACK
6
CONTINUOUS
10
-51.011845000000001
20
2.0000439999999999
11
-65.0118300000000033
21
2.0000450000000001
0
LINE
8
BLACK
6
CONTINUOUS
10
-221.
20
-8.0000020000000003
11
-51.000001999999995
21
-7.9999889999999994
0
LINE
8
BLACK
6
CONTINUOUS
10
-221.
20
-8.
11
-221.0000110000000006
21
-0.000033
0
LINE
8
BLACK
6
CONTINUOUS
10
-51.0118299999999962
20
2.0000439999999999
11
-51.0118409999999969
21
10.0000109999999989
0
LINE
8
BLACK
6
CONTINUOUS
10
-68.0118369999999999
20
6.0000070000000001
11
-68.0118369999999999
21
2.0000070000000001
0
LINE
8
BLACK
6
CONTINUOUS
10
-204.0118369999999857
20
0.00001
11
-68.0118369999999999
21
0.000007
0
LINE
8
BLACK
6
CONTINUOUS
10
-204.0118369999999857
20
-3.9999899999999999
11
-207.0118369999999857
21
-3.9999899999999999
0
LINE
8
BLACK
6
CONTINUOUS
10
-207.0118369999999857
20
6.0000099999999996
11
-207.0118369999999857
21
2.0000100000000001
0
LINE
8
BLACK
6
CONTINUOUS
10
-68.0118369999999999
20
6.0000070000000001
11
-65.0118369999999999
21
6.0000070000000001
0
LINE
8
BLACK
6
CONTINUOUS
10
-204.0118369999999857
20
2.0000100000000001
11
-204.0118369999999857
21
6.0000099999999996
0
LINE
8
BLACK
6
CONTINUOUS
10
-221.0118289999999774
20
-0.000027
11
-207.0118439999999964
21
-0.000028
0
LINE
8
BLACK
6
CONTINUOUS
10
-65.0118369999999999
20
0.000007
11
-51.0000119999999981
21
-0.000023
0
LINE
8
BLACK
6
CONTINUOUS
10
-65.0118300000000033
20
2.0000450000000001
11
-65.0118369999999999
21
6.0000070000000001
0
LINE
8
BLACK
6
CONTINUOUS
10
-68.0118369999999999
20
-3.9999929999999999
11
-65.0118369999999999
21
-3.9999929999999999
0
LINE
8
BLACK
6
CONTINUOUS
10
-221.0236620000000016
20
2.0000399999999998
11
-221.0118389999999806
21
10.0000109999999989
0
LINE
8
BLACK
6
CONTINUOUS
10
-65.0118369999999999
20
-3.9999929999999999
11
-65.0118369999999999
21
0.000007
0
LINE
8
BLACK
6
CONTINUOUS
10
-207.0118439999999964
20
-0.000028
11
-207.0118369999999857
21
-3.9999899999999999
0
LINE
8
BLACK
6
CONTINUOUS
10
-68.0118369999999999
20
2.0000070000000001
11
-204.0118369999999857
21
2.0000100000000001
0
LINE
8
BLACK
6
CONTINUOUS
10
-51.000001999999995
20
-7.9999889999999994
11
-51.0000129999999956
21
-0.000022
0
LINE
8
BLACK
6
CONTINUOUS
10
-207.0118389999999806
20
20.9999299999999991
11
-221.0236639999999966
21
20.999959999999998
0
LINE
8
BLACK
6
CONTINUOUS
10
-68.0118389999999948
20
20.9999269999999996
11
-204.0118389999999806
21
20.9999299999999991
0
LINE
8
BLACK
6
CONTINUOUS
10
-135.3689819999999884
20
26.4887119999999996
11
-135.0832680000000039
21
26.6315689999999989
0
LINE
8
BLACK
6
CONTINUOUS
10
-135.0832680000000039
20
26.6315689999999989
11
-134.6546960000000013
21
26.6315689999999989
0
LINE
8
BLACK
6
CONTINUOUS
10
-134.6546960000000013
20
26.6315689999999989
11
-134.2261249999999961
21
26.4887119999999996
0
LINE
8
BLACK
6
CONTINUOUS
10
-134.2261249999999961
20
26.4887119999999996
11
-133.9404099999999858
21
26.2029979999999973
0
LINE
8
BLACK
6
CONTINUOUS
10
-133.9404099999999858
20
26.2029979999999973
11
-133.7975529999999935
21
25.9172839999999987
0
LINE
8
BLACK
6
CONTINUOUS
10
-133.7975529999999935
20
25.9172839999999987
11
-133.6546960000000013
21
25.3458550000000002
0
LINE
8
BLACK
6
CONTINUOUS
10
-133.6546960000000013
20
25.3458550000000002
11
-133.6546960000000013
21
24.9172839999999987
0
LINE
8
BLACK
6
CONTINUOUS
10
-133.6546960000000013
20
24.9172839999999987
11
-133.7975529999999935
21
24.3458550000000002
0
LINE
8
BLACK
6
CONTINUOUS
10
-133.7975529999999935
20
24.3458550000000002
11
-133.9404099999999858
21
24.060140999999998
0
LINE
8
BLACK
6
CONTINUOUS
10
-133.9404099999999858
20
24.060140999999998
11
-134.2261249999999961
21
23.7744269999999993
0
LINE
8
BLACK
6
CONTINUOUS
10
-134.2261249999999961
20
23.7744269999999993
11
-134.6546960000000013
21
23.6315689999999989
0
LINE
8
BLACK
6
CONTINUOUS
10
-134.6546960000000013
20
23.6315689999999989
11
-134.9404099999999858
21
23.6315689999999989
0
LINE
8
BLACK
6
CONTINUOUS
10
-134.9404099999999858
20
23.6315689999999989
11
-135.3689819999999884
21
23.7744269999999993
0
LINE
8
BLACK
6
CONTINUOUS
10
-135.3689819999999884
20
23.7744269999999993
11
-135.5118389999999806
21
23.9172839999999987
0
LINE
8
BLACK
6
CONTINUOUS
10
-135.5118389999999806
20
23.9172839999999987
11
-135.5118389999999806
21
24.9172839999999987
0
LINE
8
BLACK
6
CONTINUOUS
10
-135.5118389999999806
20
24.9172839999999987
11
-134.9404099999999858
21
24.9172839999999987
0
LINE
8
BLACK
6
CONTINUOUS
10
-138.0832680000000039
20
26.6315689999999989
11
-137.5118389999999806
21
26.6315689999999989
0
LINE
8
BLACK
6
CONTINUOUS
10
-137.5118389999999806
20
26.6315689999999989
11
-137.2261249999999961
21
26.4887119999999996
0
LINE
8
BLACK
6
CONTINUOUS
10
-137.2261249999999961
20
26.4887119999999996
11
-137.0832680000000039
21
26.3458550000000002
0
LINE
8
BLACK
6
CONTINUOUS
10
-137.0832680000000039
20
26.3458550000000002
11
-136.7975529999999935
21
25.9172839999999987
0
LINE
8
BLACK
6
CONTINUOUS
10
-136.7975529999999935
20
25.9172839999999987
11
-136.6546960000000013
21
25.3458550000000002
0
LINE
8
BLACK
6
CONTINUOUS
10
-136.6546960000000013
20
25.3458550000000002
11
-136.6546960000000013
21
24.2029979999999973
0
LINE
8
BLACK
6
CONTINUOUS
10
-136.6546960000000013
20
24.2029979999999973
11
-136.7975529999999935
21
23.9172839999999987
0
LINE
8
BLACK
6
CONTINUOUS
10
-136.7975529999999935
20
23.9172839999999987
11
-136.9404099999999858
21
23.7744269999999993
0
LINE
8
BLACK
6
CONTINUOUS
10
-136.9404099999999858
20
23.7744269999999993
11
-137.2261249999999961
21
23.6315689999999989
0
LINE
8
BLACK
6
CONTINUOUS
10
-137.2261249999999961
20
23.6315689999999989
11
-137.7975529999999935
21
23.6315689999999989
0
LINE
8
BLACK
6
CONTINUOUS
10
-137.7975529999999935
20
23.6315689999999989
11
-138.0832680000000039
21
23.7744269999999993
0
LINE
8
BLACK
6
CONTINUOUS
10
-138.0832680000000039
20
23.7744269999999993
11
-138.2261249999999961
21
23.9172839999999987
0
LINE
8
BLACK
6
CONTINUOUS
10
-138.2261249999999961
20
23.9172839999999987
11
-138.3689819999999884
21
24.2029979999999973
0
LINE
8
BLACK
6
CONTINUOUS
10
-138.3689819999999884
20
24.2029979999999973
11
-138.3689819999999884
21
24.9172839999999987
0
LINE
8
BLACK
6
CONTINUOUS
10
-138.3689819999999884
20
24.9172839999999987
11
-138.2261249999999961
21
25.2029979999999973
0
LINE
8
BLACK
6
CONTINUOUS
10
-138.2261249999999961
20
25.2029979999999973
11
-138.0832680000000039
21
25.3458550000000002
0
LINE
8
BLACK
6
CONTINUOUS
10
-138.0832680000000039
20
25.3458550000000002
11
-137.7975529999999935
21
25.4887119999999996
0
LINE
8
BLACK
6
CONTINUOUS
10
-137.7975529999999935
20
25.4887119999999996
11
-137.2261249999999961
21
25.4887119999999996
0
LINE
8
BLACK
6
CONTINUOUS
10
-137.2261249999999961
20
25.4887119999999996
11
-136.9404099999999858
21
25.3458550000000002
0
LINE
8
BLACK
6
CONTINUOUS
10
-136.9404099999999858
20
25.3458550000000002
11
-136.7975529999999935
21
25.2029979999999973
0
LINE
8
BLACK
6
CONTINUOUS
10
-136.7975529999999935
20
25.2029979999999973
11
-136.6546960000000013
21
24.9172839999999987
0
LINE
8
BLACK
6
CONTINUOUS
10
-133.7857119999999895
20
13.631556999999999
11
-133.7857119999999895
21
16.6315570000000008
0
LINE
8
BLACK
6
CONTINUOUS
10
-133.7857119999999895
20
16.6315570000000008
11
-134.499998000000005
21
16.6315570000000008
0
LINE
8
BLACK
6
CONTINUOUS
10
-134.499998000000005
20
16.6315570000000008
11
-134.9285689999999818
21
16.4886999999999979
0
LINE
8
BLACK
6
CONTINUOUS
10
-134.9285689999999818
20
16.4886999999999979
11
-135.2142839999999921
21
16.2029859999999992
0
LINE
8
BLACK
6
CONTINUOUS
10
-135.2142839999999921
20
16.2029859999999992
11
-135.3571409999999844
21
15.9172719999999988
0
LINE
8
BLACK
6
CONTINUOUS
10
-135.3571409999999844
20
15.9172719999999988
11
-135.499998000000005
21
15.3458429999999986
0
LINE
8
BLACK
6
CONTINUOUS
10
-135.499998000000005
20
15.3458429999999986
11
-135.499998000000005
21
14.9172719999999988
0
LINE
8
BLACK
6
CONTINUOUS
10
-135.499998000000005
20
14.9172719999999988
11
-135.3571409999999844
21
14.3458429999999986
0
LINE
8
BLACK
6
CONTINUOUS
10
-135.3571409999999844
20
14.3458429999999986
11
-135.2142839999999921
21
14.0601289999999999
0
LINE
8
BLACK
6
CONTINUOUS
10
-135.2142839999999921
20
14.0601289999999999
11
-134.9285689999999818
21
13.7744149999999994
0
LINE
8
BLACK
6
CONTINUOUS
10
-134.9285689999999818
20
13.7744149999999994
11
-134.499998000000005
21
13.631556999999999
0
LINE
8
BLACK
6
CONTINUOUS
10
-134.499998000000005
20
13.631556999999999
11
-133.7857119999999895
21
13.631556999999999
0
LINE
8
BLACK
6
CONTINUOUS
10
-138.0714269999999999
20
16.6315570000000008
11
-137.499998000000005
21
16.6315570000000008
0
LINE
8
BLACK
6
CONTINUOUS
10
-137.499998000000005
20
16.6315570000000008
11
-137.2142839999999921
21
16.4886999999999979
0
LINE
8
BLACK
6
CONTINUOUS
10
-137.2142839999999921
20
16.4886999999999979
11
-137.0714269999999999
21
16.3458429999999986
0
LINE
8
BLACK
6
CONTINUOUS
10
-137.0714269999999999
20
16.3458429999999986
11
-136.7857119999999895
21
15.9172719999999988
0
LINE
8
BLACK
6
CONTINUOUS
10
-136.7857119999999895
20
15.9172719999999988
11
-136.6428549999999973
21
15.3458429999999986
0
LINE
8
BLACK
6
CONTINUOUS
10
-136.6428549999999973
20
15.3458429999999986
11
-136.6428549999999973
21
14.2029859999999992
0
LINE
8
BLACK
6
CONTINUOUS
10
-136.6428549999999973
20
14.2029859999999992
11
-136.7857119999999895
21
13.9172719999999988
0
LINE
8
BLACK
6
CONTINUOUS
10
-136.7857119999999895
20
13.9172719999999988
11
-136.9285689999999818
21
13.7744149999999994
0
LINE
8
BLACK
6
CONTINUOUS
10
-136.9285689999999818
20
13.7744149999999994
11
-137.2142839999999921
21
13.631556999999999
0
LINE
8
BLACK
6
CONTINUOUS
10
-137.2142839999999921
20
13.631556999999999
11
-137.7857119999999895
21
13.631556999999999
0
LINE
8
BLACK
6
CONTINUOUS
10
-137.7857119999999895
20
13.631556999999999
11
-138.0714269999999999
21
13.7744149999999994
0
LINE
8
BLACK
6
CONTINUOUS
10
-138.0714269999999999
20
13.7744149999999994
11
-138.2142839999999921
21
13.9172719999999988
0
LINE
8
BLACK
6
CONTINUOUS
10
-138.2142839999999921
20
13.9172719999999988
11
-138.3571409999999844
21
14.2029859999999992
0
LINE
8
BLACK
6
CONTINUOUS
10
-138.3571409999999844
20
14.2029859999999992
11
-138.3571409999999844
21
14.9172719999999988
0
LINE
8
BLACK
6
CONTINUOUS
10
-138.3571409999999844
20
14.9172719999999988
11
-138.2142839999999921
21
15.2029859999999992
0
LINE
8
BLACK
6
CONTINUOUS
10
-138.2142839999999921
20
15.2029859999999992
11
-138.0714269999999999
21
15.3458429999999986
0
LINE
8
BLACK
6
CONTINUOUS
10
-138.0714269999999999
20
15.3458429999999986
11
-137.7857119999999895
21
15.4886999999999997
0
LINE
8
BLACK
6
CONTINUOUS
10
-137.7857119999999895
20
15.4886999999999997
11
-137.2142839999999921
21
15.4886999999999997
0
LINE
8
BLACK
6
CONTINUOUS
10
-137.2142839999999921
20
15.4886999999999997
11
-136.9285689999999818
21
15.3458429999999986
0
LINE
8
BLACK
6
CONTINUOUS
10
-136.9285689999999818
20
15.3458429999999986
11
-136.7857119999999895
21
15.2029859999999992
0
LINE
8
BLACK
6
CONTINUOUS
10
-136.7857119999999895
20
15.2029859999999992
11
-136.6428549999999973
21
14.9172719999999988
0
LINE
8
BLACK
6
CONTINUOUS
10
-60.0118389999999948
20
24.9999269999999996
11
-51.0118369999999999
21
24.9999469999999988
0
LINE
8
BLACK
6
CONTINUOUS
10
-204.0118389999999806
20
20.9999299999999991
11
-204.0118389999999806
21
24.9999299999999991
0
LINE
8
BLACK
6
CONTINUOUS
10
-65.0118389999999948
20
18.9999269999999996
11
-51.0000140000000002
21
18.9998970000000007
0
LINE
8
BLACK
6
CONTINUOUS
10
-68.0118389999999948
20
24.9999269999999996
11
-65.0118389999999948
21
24.9999269999999996
0
LINE
8
BLACK
6
CONTINUOUS
10
-207.0118459999999914
20
18.9998919999999991
11
-207.0118389999999806
21
14.9999299999999991
0
LINE
8
BLACK
6
CONTINUOUS
10
-51.0118319999999983
20
20.9999639999999985
11
-51.0118429999999989
21
24.9999280000000006
0
LINE
8
BLACK
6
CONTINUOUS
10
-65.0118389999999948
20
14.9999269999999996
11
-65.0118389999999948
21
18.9999269999999996
0
LINE
8
BLACK
6
CONTINUOUS
10
-68.0118389999999948
20
14.9999269999999996
11
-65.0118389999999948
21
14.9999269999999996
0
LINE
8
BLACK
6
CONTINUOUS
10
-60.0118389999999948
20
28.9999299999999991
11
-60.0118389999999948
21
24.9999269999999996
0
LINE
8
BLACK
6
CONTINUOUS
10
-51.0000009999999975
20
10.9999199999999995
11
-81.0000009999999975
21
10.9999199999999995
0
LINE
8
BLACK
6
CONTINUOUS
10
-207.0118389999999806
20
24.9999299999999991
11
-207.0118389999999806
21
20.9999299999999991
0
LINE
8
BLACK
6
CONTINUOUS
10
-65.0118319999999983
20
20.9999649999999995
11
-65.0118389999999948
21
24.9999269999999996
0
LINE
8
BLACK
6
CONTINUOUS
10
-204.0118389999999806
20
18.9999299999999991
11
-68.0118389999999948
21
18.9999269999999996
0
LINE
8
BLACK
6
CONTINUOUS
10
-185.0000009999999975
20
13.9999190000000002
11
-191.0000009999999975
21
13.9999190000000002
0
LINE
8
BLACK
6
CONTINUOUS
10
-51.000003999999997
20
10.9999199999999995
11
-51.0000149999999977
21
18.9998869999999975
0
LINE
8
BLACK
6
CONTINUOUS
10
-221.0000009999999975
20
18.9998919999999991
11
-207.0118459999999914
21
18.9998919999999991
0
LINE
8
BLACK
6
CONTINUOUS
10
-81.0000009999999975
20
10.9999199999999995
11
-81.0000009999999975
21
13.9999190000000002
0
LINE
8
BLACK
6
CONTINUOUS
10
-51.0118469999999959
20
20.9999639999999985
11
-65.0118319999999983
21
20.9999649999999995
0
LINE
8
BLACK
6
CONTINUOUS
10
-204.0118389999999806
20
24.9999299999999991
11
-207.0118389999999806
21
24.9999299999999991
0
LINE
8
BLACK
6
CONTINUOUS
10
-81.0000009999999975
20
13.9999190000000002
11
-87.0000009999999975
21
13.9999190000000002
0
LINE
8
BLACK
6
CONTINUOUS
10
-221.000001999999995
20
10.9999199999999995
11
-221.0000129999999956
21
18.9998869999999975
0
LINE
8
BLACK
6
CONTINUOUS
10
-221.0236639999999966
20
20.999959999999998
11
-221.011841000000004
21
28.9999310000000001
0
LINE
8
BLACK
6
CONTINUOUS
10
-191.0000009999999975
20
10.9999190000000002
11
-221.000001999999995
21
10.9999199999999995
0
LINE
8
BLACK
6
CONTINUOUS
10
-68.0118389999999948
20
24.9999269999999996
11
-68.0118389999999948
21
20.9999269999999996
0
LINE
8
BLACK
6
CONTINUOUS
10
-87.0000009999999975
20
13.9999190000000002
11
-87.0000009999999975
21
11.0000900000000001
0
LINE
8
BLACK
6
CONTINUOUS
10
-221.011841000000004
20
28.9999310000000001
11
-60.0118389999999948
21
28.9999299999999991
0
LINE
8
BLACK
6
CONTINUOUS
10
-68.0118389999999948
20
18.9999269999999996
11
-68.0118389999999948
21
14.9999269999999996
0
LINE
8
BLACK
6
CONTINUOUS
10
-204.0118389999999806
20
14.9999299999999991
11
-207.0118389999999806
21
14.9999299999999991
0
LINE
8
BLACK
6
CONTINUOUS
10
-204.0118389999999806
20
14.9999299999999991
11
-204.0118389999999806
21
18.9999299999999991
0
LINE
8
BLACK
6
CONTINUOUS
10
-87.0000009999999975
20
11.0000900000000001
11
-185.0000009999999975
21
10.9999190000000002
0
LINE
8
BLACK
6
CONTINUOUS
10
-191.0000009999999975
20
13.9999190000000002
11
-191.0000009999999975
21
10.9999190000000002
0
LINE
8
BLACK
6
CONTINUOUS
10
-185.0000009999999975
20
10.9999190000000002
11
-185.0000009999999975
21
13.9999190000000002
0
LINE
8
BLACK
6
CONTINUOUS
10
-84.9881630000000001
20
34.0001660000000001
11
-182.9881629999999859
21
33.9999949999999984
0
LINE
8
BLACK
6
CONTINUOUS
10
-78.9881630000000001
20
33.9999959999999959
11
-78.9881630000000001
21
36.9999949999999984
0
LINE
8
BLACK
6
CONTINUOUS
10
-202.0000009999999975
20
38.0000059999999991
11
-202.0000009999999975
21
42.0000059999999991
0
LINE
8
BLACK
6
CONTINUOUS
10
-188.9881629999999859
20
33.9999949999999984
11
-218.9881639999999834
21
33.9999959999999959
0
LINE
8
BLACK
6
CONTINUOUS
10
-218.9999929999999893
20
41.9999690000000001
11
-205.0000079999999798
21
41.9999679999999955
0
LINE
8
BLACK
6
CONTINUOUS
10
-63.0000009999999975
20
38.0000029999999995
11
-63.0000009999999975
21
42.0000029999999995
0
LINE
8
BLACK
6
CONTINUOUS
10
-65.9763289999999927
20
47.9999849999999952
11
-65.9763289999999927
21
43.9999849999999952
0
LINE
8
BLACK
6
CONTINUOUS
10
-57.9763279999999952
20
44.0000209999999967
11
-62.9763219999999961
21
44.0000229999999988
0
LINE
8
BLACK
6
CONTINUOUS
10
-57.9763279999999952
20
44.0000209999999967
11
-57.9763389999999958
21
51.9999879999999948
0
LINE
8
BLACK
6
CONTINUOUS
10
-218.9881639999999834
20
33.9999959999999959
11
-218.988174999999984
21
41.999963000000001
0
LINE
8
BLACK
6
CONTINUOUS
10
-133.3334820000000036
20
49.4887769999999989
11
-133.0477679999999907
21
49.6316339999999983
0
LINE
8
BLACK
6
CONTINUOUS
10
-133.0477679999999907
20
49.6316339999999983
11
-132.6191959999999881
21
49.6316339999999983
0
LINE
8
BLACK
6
CONTINUOUS
10
-132.6191959999999881
20
49.6316339999999983
11
-132.1906249999999829
21
49.4887769999999989
0
LINE
8
BLACK
6
CONTINUOUS
10
-132.1906249999999829
20
49.4887769999999989
11
-131.904910000000001
21
49.2030630000000002
0
LINE
8
BLACK
6
CONTINUOUS
10
-131.904910000000001
20
49.2030630000000002
11
-131.7620529999999803
21
48.9173489999999944
0
LINE
8
BLACK
6
CONTINUOUS
10
-131.7620529999999803
20
48.9173489999999944
11
-131.6191959999999881
21
48.3459199999999996
0
LINE
8
BLACK
6
CONTINUOUS
10
-131.6191959999999881
20
48.3459199999999996
11
-131.6191959999999881
21
47.9173489999999944
0
LINE
8
BLACK
6
CONTINUOUS
10
-131.6191959999999881
20
47.9173489999999944
11
-131.7620529999999803
21
47.3459199999999996
0
LINE
8
BLACK
6
CONTINUOUS
10
-131.7620529999999803
20
47.3459199999999996
11
-131.904910000000001
21
47.0602060000000009
0
LINE
8
BLACK
6
CONTINUOUS
10
-131.904910000000001
20
47.0602060000000009
11
-132.1906249999999829
21
46.7744919999999951
0
LINE
8
BLACK
6
CONTINUOUS
10
-132.1906249999999829
20
46.7744919999999951
11
-132.6191959999999881
21
46.6316339999999983
0
LINE
8
BLACK
6
CONTINUOUS
10
-132.6191959999999881
20
46.6316339999999983
11
-132.904910000000001
21
46.6316339999999983
0
LINE
8
BLACK
6
CONTINUOUS
10
-132.904910000000001
20
46.6316339999999983
11
-133.3334820000000036
21
46.7744919999999951
0
LINE
8
BLACK
6
CONTINUOUS
10
-133.3334820000000036
20
46.7744919999999951
11
-133.4763389999999958
21
46.9173489999999944
0
LINE
8
BLACK
6
CONTINUOUS
10
-133.4763389999999958
20
46.9173489999999944
11
-133.4763389999999958
21
47.9173489999999944
0
LINE
8
BLACK
6
CONTINUOUS
10
-133.4763389999999958
20
47.9173489999999944
11
-132.904910000000001
21
47.9173489999999944
0
LINE
8
BLACK
6
CONTINUOUS
10
-136.1906249999999829
20
49.6316339999999983
11
-134.7620529999999803
21
49.6316339999999983
0
LINE
8
BLACK
6
CONTINUOUS
10
-134.7620529999999803
20
49.6316339999999983
11
-134.6191959999999881
21
48.2030630000000002
0
LINE
8
BLACK
6
CONTINUOUS
10
-134.6191959999999881
20
48.2030630000000002
11
-134.7620529999999803
21
48.3459199999999996
0
LINE
8
BLACK
6
CONTINUOUS
10
-134.7620529999999803
20
48.3459199999999996
11
-135.0477679999999907
21
48.4887769999999989
0
LINE
8
BLACK
6
CONTINUOUS
10
-135.0477679999999907
20
48.4887769999999989
11
-135.7620529999999803
21
48.4887769999999989
0
LINE
8
BLACK
6
CONTINUOUS
10
-135.7620529999999803
20
48.4887769999999989
11
-136.0477679999999907
21
48.3459199999999996
0
LINE
8
BLACK
6
CONTINUOUS
10
-136.0477679999999907
20
48.3459199999999996
11
-136.1906249999999829
21
48.2030630000000002
0
LINE
8
BLACK
6
CONTINUOUS
10
-136.1906249999999829
20
48.2030630000000002
11
-136.3334820000000036
21
47.9173489999999944
0
LINE
8
BLACK
6
CONTINUOUS
10
-136.3334820000000036
20
47.9173489999999944
11
-136.3334820000000036
21
47.2030630000000002
0
LINE
8
BLACK
6
CONTINUOUS
10
-136.3334820000000036
20
47.2030630000000002
11
-136.1906249999999829
21
46.9173489999999944
0
LINE
8
BLACK
6
CONTINUOUS
10
-136.1906249999999829
20
46.9173489999999944
11
-136.0477679999999907
21
46.7744919999999951
0
LINE
8
BLACK
6
CONTINUOUS
10
-136.0477679999999907
20
46.7744919999999951
11
-135.7620529999999803
21
46.6316339999999983
0
LINE
8
BLACK
6
CONTINUOUS
10
-135.7620529999999803
20
46.6316339999999983
11
-135.0477679999999907
21
46.6316339999999983
0
LINE
8
BLACK
6
CONTINUOUS
10
-135.0477679999999907
20
46.6316339999999983
11
-134.7620529999999803
21
46.7744919999999951
0
LINE
8
BLACK
6
CONTINUOUS
10
-134.7620529999999803
20
46.7744919999999951
11
-134.6191959999999881
21
46.9173489999999944
0
LINE
8
BLACK
6
CONTINUOUS
10
-131.7738839999999811
20
36.6316399999999973
11
-131.7738839999999811
21
39.6316399999999973
0
LINE
8
BLACK
6
CONTINUOUS
10
-131.7738839999999811
20
39.6316399999999973
11
-132.4881699999999967
21
39.6316399999999973
0
LINE
8
BLACK
6
CONTINUOUS
10
-132.4881699999999967
20
39.6316399999999973
11
-132.9167410000000018
21
39.488782999999998
0
LINE
8
BLACK
6
CONTINUOUS
10
-132.9167410000000018
20
39.488782999999998
11
-133.2024559999999838
21
39.2030689999999993
0
LINE
8
BLACK
6
CONTINUOUS
10
-133.2024559999999838
20
39.2030689999999993
11
-133.3453130000000044
21
38.9173550000000006
0
LINE
8
BLACK
6
CONTINUOUS
10
-133.3453130000000044
20
38.9173550000000006
11
-133.4881699999999967
21
38.3459259999999986
0
LINE
8
BLACK
6
CONTINUOUS
10
-133.4881699999999967
20
38.3459259999999986
11
-133.4881699999999967
21
37.9173550000000006
0
LINE
8
BLACK
6
CONTINUOUS
10
-133.4881699999999967
20
37.9173550000000006
11
-133.3453130000000044
21
37.3459259999999986
0
LINE
8
BLACK
6
CONTINUOUS
10
-133.3453130000000044
20
37.3459259999999986
11
-133.2024559999999838
21
37.0602119999999999
0
LINE
8
BLACK
6
CONTINUOUS
10
-133.2024559999999838
20
37.0602119999999999
11
-132.9167410000000018
21
36.7744980000000012
0
LINE
8
BLACK
6
CONTINUOUS
10
-132.9167410000000018
20
36.7744980000000012
11
-132.4881699999999967
21
36.6316399999999973
0
LINE
8
BLACK
6
CONTINUOUS
10
-132.4881699999999967
20
36.6316399999999973
11
-131.7738839999999811
21
36.6316399999999973
0
LINE
8
BLACK
6
CONTINUOUS
10
-136.2024559999999838
20
39.6316399999999973
11
-134.7738839999999811
21
39.6316399999999973
0
LINE
8
BLACK
6
CONTINUOUS
10
-134.7738839999999811
20
39.6316399999999973
11
-134.6310269999999889
21
38.2030689999999993
0
LINE
8
BLACK
6
CONTINUOUS
10
-134.6310269999999889
20
38.2030689999999993
11
-134.7738839999999811
21
38.3459259999999986
0
LINE
8
BLACK
6
CONTINUOUS
10
-134.7738839999999811
20
38.3459259999999986
11
-135.0595989999999915
21
38.488782999999998
0
LINE
8
BLACK
6
CONTINUOUS
10
-135.0595989999999915
20
38.488782999999998
11
-135.7738839999999811
21
38.488782999999998
0
LINE
8
BLACK
6
CONTINUOUS
10
-135.7738839999999811
20
38.488782999999998
11
-136.0595989999999915
21
38.3459259999999986
0
LINE
8
BLACK
6
CONTINUOUS
10
-136.0595989999999915
20
38.3459259999999986
11
-136.2024559999999838
21
38.2030689999999993
0
LINE
8
BLACK
6
CONTINUOUS
10
-136.2024559999999838
20
38.2030689999999993
11
-136.3453130000000044
21
37.9173550000000006
0
LINE
8
BLACK
6
CONTINUOUS
10
-136.3453130000000044
20
37.9173550000000006
11
-136.3453130000000044
21
37.2030689999999993
0
LINE
8
BLACK
6
CONTINUOUS
10
-136.3453130000000044
20
37.2030689999999993
11
-136.2024559999999838
21
36.9173550000000006
0
LINE
8
BLACK
6
CONTINUOUS
10
-136.2024559999999838
20
36.9173550000000006
11
-136.0595989999999915
21
36.7744980000000012
0
LINE
8
BLACK
6
CONTINUOUS
10
-136.0595989999999915
20
36.7744980000000012
11
-135.7738839999999811
21
36.6316399999999973
0
LINE
8
BLACK
6
CONTINUOUS
10
-135.7738839999999811
20
36.6316399999999973
11
-135.0595989999999915
21
36.6316399999999973
0
LINE
8
BLACK
6
CONTINUOUS
10
-135.0595989999999915
20
36.6316399999999973
11
-134.7738839999999811
21
36.7744980000000012
0
LINE
8
BLACK
6
CONTINUOUS
10
-134.7738839999999811
20
36.7744980000000012
11
-134.6310269999999889
21
36.9173550000000006
0
LINE
8
BLACK
6
CONTINUOUS
10
-201.9763289999999927
20
47.9999879999999948
11
-204.9763289999999927
21
47.9999879999999948
0
LINE
8
BLACK
6
CONTINUOUS
10
-62.9763219999999961
20
44.0000229999999988
11
-62.9763289999999998
21
47.9999849999999952
0
LINE
8
BLACK
6
CONTINUOUS
10
-205.0000079999999798
20
41.9999679999999955
11
-205.0000009999999975
21
38.0000059999999991
0
LINE
8
BLACK
6
CONTINUOUS
10
-204.9763289999999927
20
43.9999879999999948
11
-218.9881539999999802
21
44.0000179999999972
0
LINE
8
BLACK
6
CONTINUOUS
10
-182.9881629999999859
20
36.9999949999999984
11
-188.9881629999999859
21
36.9999949999999984
0
LINE
8
BLACK
6
CONTINUOUS
10
-48.9881659999999997
20
33.9999959999999959
11
-48.9881770000000003
21
41.999963000000001
0
LINE
8
BLACK
6
CONTINUOUS
10
-202.0000009999999975
20
38.0000059999999991
11
-205.0000009999999975
21
38.0000059999999991
0
LINE
8
BLACK
6
CONTINUOUS
10
-48.9881630000000001
20
33.9999959999999959
11
-78.9881630000000001
21
33.9999959999999959
0
LINE
8
BLACK
6
CONTINUOUS
10
-202.0000009999999975
20
42.0000059999999991
11
-66.0000009999999975
21
42.0000029999999995
0
LINE
8
BLACK
6
CONTINUOUS
10
-66.0000009999999975
20
42.0000029999999995
11
-66.0000009999999975
21
38.0000029999999995
0
LINE
8
BLACK
6
CONTINUOUS
10
-201.9763289999999927
20
43.9999879999999948
11
-201.9763289999999927
21
47.9999879999999948
0
LINE
8
BLACK
6
CONTINUOUS
10
-188.9881629999999859
20
36.9999949999999984
11
-188.9881629999999859
21
33.9999949999999984
0
LINE
8
BLACK
6
CONTINUOUS
10
-84.9881630000000001
20
36.9999949999999984
11
-84.9881630000000001
21
34.0001660000000001
0
LINE
8
BLACK
6
CONTINUOUS
10
-65.9763289999999927
20
47.9999849999999952
11
-62.9763289999999998
21
47.9999849999999952
0
LINE
8
BLACK
6
CONTINUOUS
10
-63.0000009999999975
20
42.0000029999999995
11
-48.9881759999999957
21
41.9999729999999971
0
LINE
8
BLACK
6
CONTINUOUS
10
-182.9881629999999859
20
33.9999949999999984
11
-182.9881629999999859
21
36.9999949999999984
0
LINE
8
BLACK
6
CONTINUOUS
10
-66.0000009999999975
20
38.0000029999999995
11
-63.0000009999999975
21
38.0000029999999995
0
LINE
8
BLACK
6
CONTINUOUS
10
-78.9881630000000001
20
36.9999949999999984
11
-84.9881630000000001
21
36.9999949999999984
0
LINE
8
BLACK
6
CONTINUOUS
10
-218.9881539999999802
20
44.0000179999999972
11
-218.9763309999999876
21
51.9999889999999994
0
LINE
8
BLACK
6
CONTINUOUS
10
-204.9763289999999927
20
47.9999879999999948
11
-204.9763289999999927
21
43.9999879999999948
0
LINE
8
BLACK
6
CONTINUOUS
10
-65.9763289999999927
20
43.9999849999999952
11
-201.9763289999999927
21
43.9999879999999948
0
LINE
8
BLACK
6
CONTINUOUS
10
-57.9763389999999958
20
51.9999879999999948
11
-218.9763309999999876
21
51.9999889999999994
0
LINE
8
BLACK
6
CONTINUOUS
10
-328.9999909999999659
20
-168.9999919999999918
11
-328.9999909999999659
21
-172.9999919999999918
0
LINE
8
BLACK
6
CONTINUOUS
10
-332.9999889999999709
20
-154.0000299999999811
11
-328.9999899999999684
21
-153.9999919999999918
0
LINE
8
BLACK
6
CONTINUOUS
10
-328.9999899999999684
20
-157.9999919999999918
11
-325.9999899999999684
21
-157.9999919999999918
0
ARC
8
BLACK
10
-332.9999899999999684
20
-162.0000009999999975
40
7.0000289999999996
50
-180.00006548
51
-90.00000000
0
LINE
8
BLACK
6
CONTINUOUS
10
-266.9999879999999735
20
-157.999998000000005
11
-266.9999879999999735
21
-153.999998000000005
0
ARC
8
BLACK
10
-262.9999899999999684
20
-147.
40
15.0000000000001332
50
-90.00000764
51
-0.00000764
0
LINE
8
BLACK
6
CONTINUOUS
10
-269.9999879999999735
20
-153.999998000000005
11
-269.9999879999999735
21
-157.999998000000005
0
LINE
8
BLACK
6
CONTINUOUS
10
-340.0000180000000114
20
-147.0000009999999975
11
-347.9999889999999709
21
-147.
0
LINE
8
BLACK
6
CONTINUOUS
10
-340.0000190000000089
20
-162.0000009999999975
11
-347.9999899999999684
21
-162.
0
ARC
8
BLACK
10
-332.9999899999999684
20
-162.0000009999999975
40
15.000001000000033
50
-180.00000382
51
-90.00000382
0
LINE
8
BLACK
6
CONTINUOUS
10
-328.9999899999999684
20
-153.9999919999999918
11
-328.9999899999999684
21
-157.9999919999999918
0
LINE
8
BLACK
6
CONTINUOUS
10
-328.9999909999999659
20
-172.9999919999999918
11
-325.9999909999999659
21
-172.9999919999999918
0
LINE
8
BLACK
6
CONTINUOUS
10
-266.9999879999999735
20
-153.999998000000005
11
-262.9999990000000025
21
-154.0000289999999836
0
LINE
8
BLACK
6
CONTINUOUS
10
-332.9999899999999684
20
-169.0000299999999811
11
-328.9999909999999659
21
-168.9999919999999918
0
LINE
8
BLACK
6
CONTINUOUS
10
-266.9999889999999709
20
-172.999998000000005
11
-266.9999889999999709
21
-168.999998000000005
0
LINE
8
BLACK
6
CONTINUOUS
10
-269.9999889999999709
20
-172.999998000000005
11
-266.9999889999999709
21
-172.999998000000005
0
LINE
8
BLACK
6
CONTINUOUS
10
-325.9999909999999659
20
-172.9999919999999918
11
-325.9999909999999659
21
-168.9999919999999918
0
ARC
8
BLACK
10
-262.9999899999999684
20
-162.
40
14.999999000000134
50
-90.00001146
51
-0.00000764
0
LINE
8
BLACK
6
CONTINUOUS
10
-325.9999899999999684
20
-157.9999919999999918
11
-325.9999899999999684
21
-153.9999919999999918
0
LINE
8
BLACK
6
CONTINUOUS
10
-325.9999909999999659
20
-168.9999919999999918
11
-269.9999889999999709
21
-168.999998000000005
0
LINE
8
BLACK
6
CONTINUOUS
10
-325.9999899999999684
20
-153.9999919999999918
11
-269.9999879999999735
21
-153.999998000000005
0
LINE
8
BLACK
6
CONTINUOUS
10
-247.9999909999999943
20
-162.000001999999995
11
-255.9999579999999924
21
-162.0000129999999956
0
LINE
8
BLACK
6
CONTINUOUS
10
-266.9999889999999709
20
-168.999998000000005
11
-263.
21
-169.0000289999999836
0
ARC
8
BLACK
10
-332.9999889999999709
20
-147.0000009999999975
40
7.0000289999999996
50
-180.00006548
51
-90.00000000
0
LINE
8
BLACK
6
CONTINUOUS
10
-333.0000049999999874
20
-161.999998000000005
11
-262.9999919999999634
21
-162.000001999999995
0
LINE
8
BLACK
6
CONTINUOUS
10
-247.9999899999999968
20
-147.000001999999995
11
-255.9999569999999949
21
-147.0000129999999956
0
LINE
8
BLACK
6
CONTINUOUS
10
-269.9999889999999709
20
-168.999998000000005
11
-269.9999889999999709
21
-172.999998000000005
0
LINE
8
BLACK
6
CONTINUOUS
10
-333.0000059999999849
20
-176.999998000000005
11
-262.9999929999999608
21
-177.000001999999995
0
LINE
8
BLACK
6
CONTINUOUS
10
-269.9999879999999735
20
-157.999998000000005
11
-266.9999879999999735
21
-157.999998000000005
0
ARC
8
BLACK
10
-332.9999889999999709
20
-147.0000009999999975
40
15.000001000000033
50
-180.00000382
51
-90.00000382
0
ARC
8
BLACK
10
-263.
20
-162.
40
7.0000370000000718
50
-90.00000000
51
-0.00000819
0
ARC
8
BLACK
10
-263.
20
-147.
40
7.000038000000071
50
-89.99999181
51
-0.00000819
0
LINE
8
BLACK
6
CONTINUOUS
10
-328.9999909999999659
20
-198.9999919999999918
11
-328.9999909999999659
21
-202.9999919999999918
0
LINE
8
BLACK
6
CONTINUOUS
10
-332.9999889999999709
20
-184.0000299999999811
11
-328.9999899999999684
21
-183.9999919999999918
0
LINE
8
BLACK
6
CONTINUOUS
10
-328.9999899999999684
20
-187.9999919999999918
11
-325.9999899999999684
21
-187.9999919999999918
0
ARC
8
BLACK
10
-332.9999899999999684
20
-192.0000009999999975
40
7.0000289999999996
50
-180.00006548
51
-90.00000000
0
LINE
8
BLACK
6
CONTINUOUS
10
-266.9999879999999735
20
-187.999998000000005
11
-266.9999879999999735
21
-183.999998000000005
0
ARC
8
BLACK
10
-262.9999899999999684
20
-177.
40
15.0000000000001332
50
-90.00000764
51
-0.00000764
0
LINE
8
BLACK
6
CONTINUOUS
10
-269.9999879999999735
20
-183.999998000000005
11
-269.9999879999999735
21
-187.999998000000005
0
LINE
8
BLACK
6
CONTINUOUS
10
-340.0000180000000114
20
-177.0000009999999975
11
-347.9999889999999709
21
-177.
0
LINE
8
BLACK
6
CONTINUOUS
10
-340.0000190000000089
20
-192.0000009999999975
11
-347.9999899999999684
21
-192.
0
ARC
8
BLACK
10
-332.9999899999999684
20
-192.0000009999999975
40
15.000001000000033
50
-180.00000382
51
-90.00000382
0
LINE
8
BLACK
6
CONTINUOUS
10
-328.9999899999999684
20
-183.9999919999999918
11
-328.9999899999999684
21
-187.9999919999999918
0
LINE
8
BLACK
6
CONTINUOUS
10
-328.9999909999999659
20
-202.9999919999999918
11
-325.9999909999999659
21
-202.9999919999999918
0
LINE
8
BLACK
6
CONTINUOUS
10
-266.9999879999999735
20
-183.999998000000005
11
-262.9999990000000025
21
-184.0000289999999836
0
LINE
8
BLACK
6
CONTINUOUS
10
-332.9999899999999684
20
-199.0000299999999811
11
-328.9999909999999659
21
-198.9999919999999918
0
LINE
8
BLACK
6
CONTINUOUS
10
-266.9999889999999709
20
-202.9999979999999766
11
-266.9999889999999709
21
-198.999998000000005
0
LINE
8
BLACK
6
CONTINUOUS
10
-269.9999889999999709
20
-202.9999979999999766
11
-266.9999889999999709
21
-202.9999979999999766
0
LINE
8
BLACK
6
CONTINUOUS
10
-325.9999909999999659
20
-202.9999919999999918
11
-325.9999909999999659
21
-198.9999919999999918
0
ARC
8
BLACK
10
-262.9999899999999684
20
-192.
40
14.999999000000134
50
-90.00001146
51
-0.00000764
0
LINE
8
BLACK
6
CONTINUOUS
10
-325.9999899999999684
20
-187.9999919999999918
11
-325.9999899999999684
21
-183.9999919999999918
0
LINE
8
BLACK
6
CONTINUOUS
10
-325.9999909999999659
20
-198.9999919999999918
11
-269.9999889999999709
21
-198.999998000000005
0
LINE
8
BLACK
6
CONTINUOUS
10
-325.9999899999999684
20
-183.9999919999999918
11
-269.9999879999999735
21
-183.999998000000005
0
LINE
8
BLACK
6
CONTINUOUS
10
-247.9999909999999943
20
-192.000001999999995
11
-255.9999579999999924
21
-192.0000129999999956
0
LINE
8
BLACK
6
CONTINUOUS
10
-266.9999889999999709
20
-198.999998000000005
11
-263.
21
-199.0000289999999836
0
ARC
8
BLACK
10
-332.9999889999999709
20
-177.0000009999999975
40
7.0000289999999996
50
-180.00006548
51
-90.00000000
0
LINE
8
BLACK
6
CONTINUOUS
10
-333.0000049999999874
20
-191.999998000000005
11
-262.9999919999999634
21
-192.000001999999995
0
LINE
8
BLACK
6
CONTINUOUS
10
-247.9999899999999968
20
-177.000001999999995
11
-255.9999569999999949
21
-177.0000129999999956
0
LINE
8
BLACK
6
CONTINUOUS
10
-269.9999889999999709
20
-198.999998000000005
11
-269.9999889999999709
21
-202.9999979999999766
0
LINE
8
BLACK
6
CONTINUOUS
10
-333.0000059999999849
20
-206.9999979999999766
11
-262.9999929999999608
21
-207.000001999999995
0
LINE
8
BLACK
6
CONTINUOUS
10
-269.9999879999999735
20
-187.999998000000005
11
-266.9999879999999735
21
-187.999998000000005
0
ARC
8
BLACK
10
-332.9999889999999709
20
-177.0000009999999975
40
15.000001000000033
50
-180.00000382
51
-90.00000382
0
ARC
8
BLACK
10
-263.
20
-192.
40
7.0000370000000718
50
-90.00000000
51
-0.00000819
0
ARC
8
BLACK
10
-263.
20
-177.
40
7.000038000000071
50
-89.99999181
51
-0.00000819
0
LINE
8
BLACK
6
CONTINUOUS
10
-328.9999909999999659
20
-228.9999919999999918
11
-328.9999909999999659
21
-232.9999919999999918
0
LINE
8
BLACK
6
CONTINUOUS
10
-332.9999889999999709
20
-214.0000299999999811
11
-328.9999899999999684
21
-213.9999919999999918
0
LINE
8
BLACK
6
CONTINUOUS
10
-328.9999899999999684
20
-217.9999919999999918
11
-325.9999899999999684
21
-217.9999919999999918
0
ARC
8
BLACK
10
-332.9999899999999684
20
-222.0000009999999975
40
7.0000289999999996
50
-180.00006548
51
-90.00000000
0
LINE
8
BLACK
6
CONTINUOUS
10
-266.9999879999999735
20
-217.9999979999999766
11
-266.9999879999999735
21
-213.9999979999999766
0
ARC
8
BLACK
10
-262.9999899999999684
20
-207.
40
15.0000000000001332
50
-90.00000764
51
-0.00000764
0
LINE
8
BLACK
6
CONTINUOUS
10
-269.9999879999999735
20
-213.9999979999999766
11
-269.9999879999999735
21
-217.9999979999999766
0
LINE
8
BLACK
6
CONTINUOUS
10
-340.0000180000000114
20
-207.0000009999999975
11
-347.9999889999999709
21
-207.
0
LINE
8
BLACK
6
CONTINUOUS
10
-340.0000190000000089
20
-222.0000009999999975
11
-347.9999899999999684
21
-222.
0
ARC
8
BLACK
10
-332.9999899999999684
20
-222.0000009999999975
40
15.000001000000033
50
-180.00000382
51
-90.00000382
0
LINE
8
BLACK
6
CONTINUOUS
10
-328.9999899999999684
20
-213.9999919999999918
11
-328.9999899999999684
21
-217.9999919999999918
0
LINE
8
BLACK
6
CONTINUOUS
10
-328.9999909999999659
20
-232.9999919999999918
11
-325.9999909999999659
21
-232.9999919999999918
0
LINE
8
BLACK
6
CONTINUOUS
10
-266.9999879999999735
20
-213.9999979999999766
11
-262.9999990000000025
21
-214.0000289999999836
0
LINE
8
BLACK
6
CONTINUOUS
10
-332.9999899999999684
20
-229.0000299999999811
11
-328.9999909999999659
21
-228.9999919999999918
0
LINE
8
BLACK
6
CONTINUOUS
10
-266.9999889999999709
20
-232.9999979999999766
11
-266.9999889999999709
21
-228.9999979999999766
0
LINE
8
BLACK
6
CONTINUOUS
10
-269.9999889999999709
20
-232.9999979999999766
11
-266.9999889999999709
21
-232.9999979999999766
0
LINE
8
BLACK
6
CONTINUOUS
10
-325.9999909999999659
20
-232.9999919999999918
11
-325.9999909999999659
21
-228.9999919999999918
0
ARC
8
BLACK
10
-262.9999899999999684
20
-222.
40
14.999999000000134
50
-90.00001146
51
-0.00000764
0
LINE
8
BLACK
6
CONTINUOUS
10
-325.9999899999999684
20
-217.9999919999999918
11
-325.9999899999999684
21
-213.9999919999999918
0
LINE
8
BLACK
6
CONTINUOUS
10
-325.9999909999999659
20
-228.9999919999999918
11
-269.9999889999999709
21
-228.9999979999999766
0
LINE
8
BLACK
6
CONTINUOUS
10
-325.9999899999999684
20
-213.9999919999999918
11
-269.9999879999999735
21
-213.9999979999999766
0
LINE
8
BLACK
6
CONTINUOUS
10
-247.9999909999999943
20
-222.000001999999995
11
-255.9999579999999924
21
-222.0000129999999956
0
LINE
8
BLACK
6
CONTINUOUS
10
-266.9999889999999709
20
-228.9999979999999766
11
-263.
21
-229.0000289999999836
0
ARC
8
BLACK
10
-332.9999889999999709
20
-207.0000009999999975
40
7.0000289999999996
50
-180.00006548
51
-90.00000000
0
LINE
8
BLACK
6
CONTINUOUS
10
-333.0000049999999874
20
-221.9999979999999766
11
-262.9999919999999634
21
-222.000001999999995
0
LINE
8
BLACK
6
CONTINUOUS
10
-247.9999899999999968
20
-207.000001999999995
11
-255.9999569999999949
21
-207.0000129999999956
0
LINE
8
BLACK
6
CONTINUOUS
10
-269.9999889999999709
20
-228.9999979999999766
11
-269.9999889999999709
21
-232.9999979999999766
0
LINE
8
BLACK
6
CONTINUOUS
10
-333.0000059999999849
20
-236.9999979999999766
11
-262.9999929999999608
21
-237.000001999999995
0
LINE
8
BLACK
6
CONTINUOUS
10
-269.9999879999999735
20
-217.9999979999999766
11
-266.9999879999999735
21
-217.9999979999999766
0
ARC
8
BLACK
10
-332.9999889999999709
20
-207.0000009999999975
40
15.000001000000033
50
-180.00000382
51
-90.00000382
0
ARC
8
BLACK
10
-263.
20
-222.
40
7.0000370000000718
50
-90.00000000
51
-0.00000819
0
ARC
8
BLACK
10
-263.
20
-207.
40
7.000038000000071
50
-89.99999181
51
-0.00000819
0
ARC
8
BLACK
10
-262.9999899999999684
20
-252.
40
14.999999000000134
50
-90.00001146
51
-0.00000764
0
LINE
8
BLACK
6
CONTINUOUS
10
-328.9999909999999659
20
-258.9999919999999634
11
-328.9999909999999659
21
-262.9999919999999634
0
ARC
8
BLACK
10
-263.
20
-237.
40
7.000038000000071
50
-89.99999181
51
-0.00000819
0
LINE
8
BLACK
6
CONTINUOUS
10
-332.9999889999999709
20
-244.0000299999999811
11
-328.9999899999999684
21
-243.9999919999999918
0
LINE
8
BLACK
6
CONTINUOUS
10
-328.9999899999999684
20
-247.9999919999999918
11
-325.9999899999999684
21
-247.9999919999999918
0
LINE
8
BLACK
6
CONTINUOUS
10
-333.0000049999999874
20
-251.9999979999999766
11
-262.9999919999999634
21
-252.000001999999995
0
LINE
8
BLACK
6
CONTINUOUS
10
-325.9999909999999659
20
-258.9999919999999634
11
-269.9999889999999709
21
-258.999998000000005
0
LINE
8
BLACK
6
CONTINUOUS
10
-247.9999899999999968
20
-237.000001999999995
11
-255.9999569999999949
21
-237.0000129999999956
0
ARC
8
BLACK
10
-332.9999899999999684
20
-252.0000009999999975
40
7.0000289999999996
50
-180.00006548
51
-90.00000000
0
LINE
8
BLACK
6
CONTINUOUS
10
-269.9999889999999709
20
-258.999998000000005
11
-269.9999889999999709
21
-262.999998000000005
0
LINE
8
BLACK
6
CONTINUOUS
10
-266.9999879999999735
20
-243.9999979999999766
11
-262.9999990000000025
21
-244.0000289999999836
0
LINE
8
BLACK
6
CONTINUOUS
10
-247.9999909999999943
20
-252.000001999999995
11
-255.9999579999999924
21
-252.0000129999999956
0
LINE
8
BLACK
6
CONTINUOUS
10
-266.9999879999999735
20
-247.9999979999999766
11
-266.9999879999999735
21
-243.9999979999999766
0
LINE
8
BLACK
6
CONTINUOUS
10
-325.9999899999999684
20
-243.9999919999999918
11
-269.9999879999999735
21
-243.9999979999999766
0
LINE
8
BLACK
6
CONTINUOUS
10
-266.9999889999999709
20
-262.999998000000005
11
-266.9999889999999709
21
-258.999998000000005
0
LINE
8
BLACK
6
CONTINUOUS
10
-340.0000180000000114
20
-237.0000009999999975
11
-347.9999889999999709
21
-237.
0
ARC
8
BLACK
10
-332.9999889999999709
20
-237.0000009999999975
40
7.0000289999999996
50
-180.00006548
51
-90.00000000
0
LINE
8
BLACK
6
CONTINUOUS
10
-328.9999899999999684
20
-243.9999919999999918
11
-328.9999899999999684
21
-247.9999919999999918
0
ARC
8
BLACK
10
-263.
20
-252.
40
7.0000370000000718
50
-90.00000000
51
-0.00000819
0
LINE
8
BLACK
6
CONTINUOUS
10
-332.9999899999999684
20
-259.0000299999999811
11
-328.9999909999999659
21
-258.9999919999999634
0
ARC
8
BLACK
10
-262.9999899999999684
20
-237.
40
15.0000000000001332
50
-90.00000764
51
-0.00000764
0
LINE
8
BLACK
6
CONTINUOUS
10
-269.9999889999999709
20
-262.999998000000005
11
-266.9999889999999709
21
-262.999998000000005
0
LINE
8
BLACK
6
CONTINUOUS
10
-325.9999909999999659
20
-262.9999919999999634
11
-325.9999909999999659
21
-258.9999919999999634
0
LINE
8
BLACK
6
CONTINUOUS
10
-328.9999909999999659
20
-262.9999919999999634
11
-325.9999909999999659
21
-262.9999919999999634
0
ARC
8
BLACK
10
-332.9999899999999684
20
-252.0000009999999975
40
15.000001000000033
50
-180.00000382
51
-90.00000382
0
LINE
8
BLACK
6
CONTINUOUS
10
-325.9999899999999684
20
-247.9999919999999918
11
-325.9999899999999684
21
-243.9999919999999918
0
LINE
8
BLACK
6
CONTINUOUS
10
-340.0000190000000089
20
-252.0000009999999975
11
-347.9999899999999684
21
-252.
0
LINE
8
BLACK
6
CONTINUOUS
10
-266.9999889999999709
20
-258.999998000000005
11
-263.
21
-259.0000289999999836
0
LINE
8
BLACK
6
CONTINUOUS
10
-269.9999879999999735
20
-247.9999979999999766
11
-266.9999879999999735
21
-247.9999979999999766
0
ARC
8
BLACK
10
-332.9999889999999709
20
-237.0000009999999975
40
15.000001000000033
50
-180.00000382
51
-90.00000382
0
LINE
8
BLACK
6
CONTINUOUS
10
-269.9999879999999735
20
-243.9999979999999766
11
-269.9999879999999735
21
-247.9999979999999766
0
LINE
8
BLACK
6
CONTINUOUS
10
-333.0000059999999849
20
-266.999998000000005
11
-262.9999929999999608
21
-267.000001999999995
0
ARC
8
BLACK
10
-262.9999899999999684
20
-267.
40
14.999999000000134
50
-90.00001146
51
-0.00000764
0
LINE
8
BLACK
6
CONTINUOUS
10
-328.9999909999999659
20
-273.9999919999999634
11
-328.9999909999999659
21
-277.9999919999999634
0
LINE
8
BLACK
6
CONTINUOUS
10
-325.9999909999999659
20
-273.9999919999999634
11
-269.9999889999999709
21
-273.999998000000005
0
ARC
8
BLACK
10
-332.9999899999999684
20
-267.0000009999999975
40
7.0000289999999996
50
-180.00006548
51
-90.00000000
0
LINE
8
BLACK
6
CONTINUOUS
10
-269.9999889999999709
20
-273.999998000000005
11
-269.9999889999999709
21
-277.999998000000005
0
LINE
8
BLACK
6
CONTINUOUS
10
-247.9999909999999943
20
-267.000001999999995
11
-255.9999579999999924
21
-267.0000129999999672
0
LINE
8
BLACK
6
CONTINUOUS
10
-266.9999889999999709
20
-277.999998000000005
11
-266.9999889999999709
21
-273.999998000000005
0
ARC
8
BLACK
10
-263.
20
-267.
40
7.0000370000000718
50
-90.00000000
51
-0.00000819
0
LINE
8
BLACK
6
CONTINUOUS
10
-332.9999899999999684
20
-274.0000299999999811
11
-328.9999909999999659
21
-273.9999919999999634
0
LINE
8
BLACK
6
CONTINUOUS
10
-269.9999889999999709
20
-277.999998000000005
11
-266.9999889999999709
21
-277.999998000000005
0
LINE
8
BLACK
6
CONTINUOUS
10
-325.9999909999999659
20
-277.9999919999999634
11
-325.9999909999999659
21
-273.9999919999999634
0
LINE
8
BLACK
6
CONTINUOUS
10
-328.9999909999999659
20
-277.9999919999999634
11
-325.9999909999999659
21
-277.9999919999999634
0
ARC
8
BLACK
10
-332.9999899999999684
20
-267.0000009999999975
40
15.000001000000033
50
-180.00000382
51
-90.00000382
0
LINE
8
BLACK
6
CONTINUOUS
10
-340.0000190000000089
20
-267.0000009999999975
11
-347.9999899999999684
21
-267.
0
LINE
8
BLACK
6
CONTINUOUS
10
-266.9999889999999709
20
-273.999998000000005
11
-263.
21
-274.0000289999999836
0
LINE
8
BLACK
6
CONTINUOUS
10
-333.0000059999999849
20
-281.999998000000005
11
-262.9999929999999608
21
-282.000001999999995
0
ARC
8
BLACK
10
-263.
20
-282.
40
7.0000360000000716
50
-90.00000819
51
-0.00000819
0
LINE
8
BLACK
6
CONTINUOUS
10
-332.9999909999999659
20
-289.0000299999999811
11
-328.9999919999999634
21
-288.9999919999999634
0
LINE
8
BLACK
6
CONTINUOUS
10
-266.9999899999999684
20
-292.999998000000005
11
-266.9999899999999684
21
-288.999998000000005
0
LINE
8
BLACK
6
CONTINUOUS
10
-269.9999899999999684
20
-292.999998000000005
11
-266.9999899999999684
21
-292.999998000000005
0
ARC
8
BLACK
10
-332.9999899999999684
20
-282.
40
7.0000300000000717
50
-180.00005730
51
-90.00000819
0
ARC
8
BLACK
10
-332.9999899999999684
20
-282.
40
15.0000020000001335
50
-180.00000000
51
-90.00000764
0
LINE
8
BLACK
6
CONTINUOUS
10
-340.0000200000000063
20
-282.0000009999999975
11
-347.9999909999999659
21
-282.
0
LINE
8
BLACK
6
CONTINUOUS
10
-328.9999919999999634
20
-288.9999919999999634
11
-328.9999919999999634
21
-292.9999919999999634
0
LINE
8
BLACK
6
CONTINUOUS
10
-325.9999919999999634
20
-292.9999919999999634
11
-325.9999919999999634
21
-288.9999919999999634
0
LINE
8
BLACK
6
CONTINUOUS
10
-247.9999919999999918
20
-282.000001999999995
11
-255.9999589999999898
21
-282.0000129999999672
0
LINE
8
BLACK
6
CONTINUOUS
10
-266.9999899999999684
20
-288.999998000000005
11
-263.0000009999999975
21
-289.0000289999999836
0
LINE
8
BLACK
6
CONTINUOUS
10
-269.9999899999999684
20
-288.999998000000005
11
-269.9999899999999684
21
-292.999998000000005
0
LINE
8
BLACK
6
CONTINUOUS
10
-325.9999919999999634
20
-288.9999919999999634
11
-269.9999899999999684
21
-288.999998000000005
0
LINE
8
BLACK
6
CONTINUOUS
10
-333.0000069999999823
20
-296.999998000000005
11
-262.9999940000000151
21
-297.000001999999995
0
ARC
8
BLACK
10
-262.9999899999999684
20
-282.
40
14.9999980000001329
50
-90.00001528
51
-0.00000764
0
LINE
8
BLACK
6
CONTINUOUS
10
-328.9999919999999634
20
-292.9999919999999634
11
-325.9999919999999634
21
-292.9999919999999634
0
LINE
8
BLACK
6
CONTINUOUS
10
-147.9999990000000025
20
-215.9999279999999828
11
-143.9999990000000025
21
-215.9999279999999828
0
LINE
8
BLACK
6
CONTINUOUS
10
-143.9999990000000025
20
-215.9999279999999828
11
-143.9999990000000025
21
-218.9999279999999828
0
LINE
8
BLACK
6
CONTINUOUS
10
-143.9999990000000025
20
-218.9999279999999828
11
-147.9999990000000025
21
-218.9999279999999828
0
LINE
8
BLACK
6
CONTINUOUS
10
-147.9999990000000025
20
-218.9999279999999828
11
-147.9999990000000025
21
-215.9999279999999828
0
LINE
8
BLACK
6
CONTINUOUS
10
-147.9999990000000025
20
-274.9999280000000113
11
-143.9999990000000025
21
-274.9999280000000113
0
LINE
8
BLACK
6
CONTINUOUS
10
-181.9999990000000025
20
-291.9999280000000113
11
-181.9999990000000025
21
-277.9999280000000113
0
LINE
8
BLACK
6
CONTINUOUS
10
-143.9999990000000025
20
-274.9999280000000113
11
-143.9999990000000025
21
-277.9999280000000113
0
ARC
8
BLACK
10
-118.0000050000000016
20
-270.9999300000000062
40
2.0000020000090002
50
-89.99982811
51
89.99982811
0
ARC
8
BLACK
10
-206.0000289999999836
20
-246.9999279999999828
40
2.000000000225
50
-270.00085944
51
-89.99914056
0
ARC
8
BLACK
10
-105.9999989999999883
20
-242.9999279999999828
40
2.
50
-180.00000000
51
-0.00000000
0
LINE
8
BLACK
6
CONTINUOUS
10
-135.9999990000000025
20
-250.9999279999999828
11
-135.9999990000000025
21
-266.9999280000000113
0
ARC
8
BLACK
10
-209.9999990000000025
20
-242.9999279999999828
40
2.
50
-180.00000000
51
-0.00000000
0
LINE
8
BLACK
6
CONTINUOUS
10
-101.9999989999999883
20
-272.9999280000000113
11
-85.9999990000000025
21
-272.9999280000000113
0
LINE
8
BLACK
6
CONTINUOUS
10
-195.000001999999995
20
-293.9999270000000138
11
-201.000001999999995
21
-293.9999270000000138
0
LINE
8
BLACK
6
CONTINUOUS
10
-242.0000049999999874
20
-274.9999300000000062
11
-238.0000049999999874
21
-274.9999300000000062
0
LINE
8
BLACK
6
CONTINUOUS
10
-238.0000049999999874
20
-274.9999300000000062
11
-238.0000049999999874
21
-277.9999300000000062
0
LINE
8
BLACK
6
CONTINUOUS
10
-238.0000049999999874
20
-277.9999300000000062
11
-242.0000049999999874
21
-277.9999300000000062
0
LINE
8
BLACK
6
CONTINUOUS
10
-242.0000049999999874
20
-277.9999300000000062
11
-242.0000049999999874
21
-274.9999300000000062
0
LINE
8
BLACK
6
CONTINUOUS
10
-109.9999989999999883
20
-291.9999280000000113
11
-181.9999990000000025
21
-291.9999280000000113
0
LINE
8
BLACK
6
CONTINUOUS
10
-173.9999990000000025
20
-272.9999280000000113
11
-157.9999990000000025
21
-272.9999280000000113
0
ARC
8
BLACK
10
-209.9999990000000025
20
-226.9999279999999828
40
2.
50
0.00000000
51
180.00000000
0
LINE
8
BLACK
6
CONTINUOUS
10
-101.9999989999999883
20
-268.9999280000000113
11
-85.9999990000000025
21
-268.9999280000000113
0
ARC
8
BLACK
10
-153.9999990000000025
20
-250.9999279999999828
40
2.
50
0.00000000
51
180.00000000
0
LINE
8
BLACK
6
CONTINUOUS
10
-79.9999990000000025
20
-226.9999279999999828
11
-79.9999990000000025
21
-242.9999279999999828
0
LINE
8
BLACK
6
CONTINUOUS
10
-135.9999990000000025
20
-226.9999279999999828
11
-135.9999990000000025
21
-242.9999279999999828
0
ARC
8
BLACK
10
-190.0000249999999937
20
-246.9999299999999778
40
2.0000020001689998
50
-89.99925515
51
89.99925516
0
ARC
8
BLACK
10
-177.9999990000000025
20
-226.9999279999999828
40
2.
50
0.00000000
51
180.00000000
0
ARC
8
BLACK
10
-209.9999990000000025
20
-250.9999279999999828
40
2.
50
0.00000000
51
180.00000000
0
LINE
8
BLACK
6
CONTINUOUS
10
-107.9999989999999883
20
-250.9999279999999828
11
-107.9999989999999883
21
-266.9999280000000113
0
LINE
8
BLACK
6
CONTINUOUS
10
-183.9999990000000025
20
-226.9999279999999828
11
-183.9999990000000025
21
-242.9999279999999828
0
ARC
8
BLACK
10
-177.9999990000000025
20
-250.9999279999999828
40
2.
50
0.00000000
51
180.00000000
0
CIRCLE
8
BLACK
10
-146.
20
-241.
40
2.
0
ARC
8
BLACK
10
-158.0000049999999874
20
-246.9999299999999778
40
2.0000020000090002
50
-89.99982811
51
89.99982811
0
LINE
8
BLACK
6
CONTINUOUS
10
-245.9999990000000025
20
-211.9999109999999973
11
-246.0000029999999924
21
-281.9999239999999645
0
ARC
8
BLACK
10
-134.0000049999999874
20
-270.9999300000000062
40
1.9999980000090001
50
-270.00017189
51
-89.99982811
0
ARC
8
BLACK
10
-61.0000049999999945
20
-211.9999299999999778
40
15.0000040000001338
50
0.00000764
51
89.99999236
0
LINE
8
BLACK
6
CONTINUOUS
10
-217.0000049999999874
20
-288.9999300000000062
11
-214.0000049999999874
21
-288.9999300000000062
0
LINE
8
BLACK
6
CONTINUOUS
10
-214.0000049999999874
20
-288.9999300000000062
11
-214.0000049999999874
21
-292.9999300000000062
0
LINE
8
BLACK
6
CONTINUOUS
10
-214.0000049999999874
20
-292.9999300000000062
11
-217.0000049999999874
21
-292.9999300000000062
0
LINE
8
BLACK
6
CONTINUOUS
10
-217.0000049999999874
20
-292.9999300000000062
11
-217.0000049999999874
21
-288.9999300000000062
0
LINE
8
BLACK
6
CONTINUOUS
10
-200.5714279999999974
20
-209.368284999999986
11
-200.5714279999999974
21
-211.368284999999986
0
LINE
8
BLACK
6
CONTINUOUS
10
-199.8571419999999819
20
-208.2254279999999937
11
-199.1428559999999948
21
-210.368284999999986
0
LINE
8
BLACK
6
CONTINUOUS
10
-199.1428559999999948
20
-210.368284999999986
11
-200.9999990000000025
21
-210.368284999999986
0
LINE
8
BLACK
6
CONTINUOUS
10
-54.0000049999999945
20
-215.9999299999999778
11
-50.0000049999999945
21
-215.9999299999999778
0
LINE
8
BLACK
6
CONTINUOUS
10
-50.0000049999999945
20
-215.9999299999999778
11
-50.0000049999999945
21
-218.9999299999999778
0
LINE
8
BLACK
6
CONTINUOUS
10
-50.0000049999999945
20
-218.9999299999999778
11
-54.0000049999999945
21
-218.9999299999999778
0
LINE
8
BLACK
6
CONTINUOUS
10
-54.0000049999999945
20
-218.9999299999999778
11
-54.0000049999999945
21
-215.9999299999999778
0
LINE
8
BLACK
6
CONTINUOUS
10
-205.9999990000000025
20
-272.9999280000000113
11
-189.9999990000000025
21
-272.9999280000000113
0
CIRCLE
8
BLACK
10
-59.0000049999999945
20
-275.9999300000000062
40
1.250006
0
LINE
8
BLACK
6
CONTINUOUS
10
-207.9999990000000025
20
-250.9999279999999828
11
-207.9999990000000025
21
-266.9999280000000113
0
LINE
8
BLACK
6
CONTINUOUS
10
-205.9999990000000025
20
-268.9999280000000113
11
-189.9999990000000025
21
-268.9999280000000113
0
CIRCLE
8
BLACK
10
-110.
20
-223.
40
2.
0
LINE
8
BLACK
6
CONTINUOUS
10
-187.9999990000000025
20
-250.9999279999999828
11
-187.9999990000000025
21
-266.9999280000000113
0
LINE
8
BLACK
6
CONTINUOUS
10
-201.000001999999995
20
-293.9999270000000138
11
-201.000001999999995
21
-296.9999270000000138
0
ARC
8
BLACK
10
-81.9999990000000025
20
-242.9999279999999828
40
2.
50
-180.00000000
51
-0.00000000
0
LINE
8
BLACK
6
CONTINUOUS
10
-115.9999989999999883
20
-226.9999279999999828
11
-115.9999989999999883
21
-242.9999279999999828
0
LINE
8
BLACK
6
CONTINUOUS
10
-101.9999989999999883
20
-220.9999279999999828
11
-85.9999990000000025
21
-220.9999279999999828
0
ARC
8
BLACK
10
-86.0000050000000016
20
-222.9999299999999778
40
2.0000020000090002
50
-89.99982811
51
89.99982811
0
ARC
8
BLACK
10
-137.9999990000000025
20
-242.9999279999999828
40
2.
50
-180.00000000
51
-0.00000000
0
LINE
8
BLACK
6
CONTINUOUS
10
-201.000001999999995
20
-296.9999270000000138
11
-231.0000029999999924
21
-296.9999259999999595
0
LINE
8
BLACK
6
CONTINUOUS
10
-133.9999990000000025
20
-272.9999280000000113
11
-117.9999989999999883
21
-272.9999280000000113
0
LINE
8
BLACK
6
CONTINUOUS
10
-183.9999990000000025
20
-250.9999279999999828
11
-183.9999990000000025
21
-266.9999280000000113
0
ARC
8
BLACK
10
-158.0000049999999874
20
-222.9999299999999778
40
2.0000020000090002
50
-89.99982811
51
89.99982811
0
ARC
8
BLACK
10
-174.0000049999999874
20
-270.9999300000000062
40
1.9999980000090001
50
-270.00017189
51
-89.99982811
0
LINE
8
BLACK
6
CONTINUOUS
10
-78.0000050000000016
20
-200.9999329999999986
11
-75.0000050000000016
21
-200.9999329999999986
0
LINE
8
BLACK
6
CONTINUOUS
10
-75.0000050000000016
20
-200.9999329999999986
11
-75.0000050000000016
21
-204.9999329999999986
0
LINE
8
BLACK
6
CONTINUOUS
10
-75.0000050000000016
20
-204.9999329999999986
11
-78.0000050000000016
21
-204.9999329999999986
0
LINE
8
BLACK
6
CONTINUOUS
10
-78.0000050000000016
20
-204.9999329999999986
11
-78.0000050000000016
21
-200.9999329999999986
0
LINE
8
BLACK
6
CONTINUOUS
10
-78.0000050000000016
20
-288.9999300000000062
11
-75.0000050000000016
21
-288.9999300000000062
0
LINE
8
BLACK
6
CONTINUOUS
10
-75.0000050000000016
20
-288.9999300000000062
11
-75.0000050000000016
21
-292.9999300000000062
0
LINE
8
BLACK
6
CONTINUOUS
10
-75.0000050000000016
20
-292.9999300000000062
11
-78.0000050000000016
21
-292.9999300000000062
0
LINE
8
BLACK
6
CONTINUOUS
10
-78.0000050000000016
20
-292.9999300000000062
11
-78.0000050000000016
21
-288.9999300000000062
0
LINE
8
BLACK
6
CONTINUOUS
10
-101.9999989999999883
20
-248.9999279999999828
11
-85.9999990000000025
21
-248.9999279999999828
0
LINE
8
BLACK
6
CONTINUOUS
10
-133.9999990000000025
20
-220.9999279999999828
11
-117.9999989999999883
21
-220.9999279999999828
0
ARC
8
BLACK
10
-61.0000049999999945
20
-281.9999300000000062
40
15.0000020000005314
50
-90.00000000
51
0.00001528
0
ARC
8
BLACK
10
-113.9999989999999883
20
-226.9999279999999828
40
2.
50
0.00000000
51
180.00000000
0
LINE
8
BLACK
6
CONTINUOUS
10
-97.000001999999995
20
-296.9997559999999908
11
-195.000001999999995
21
-296.9999270000000138
0
ARC
8
BLACK
10
-105.9999989999999883
20
-226.9999279999999828
40
2.
50
0.00000000
51
180.00000000
0
LINE
8
BLACK
6
CONTINUOUS
10
-54.000001999999995
20
-274.9999300000000062
11
-50.000001999999995
21
-274.9999300000000062
0
LINE
8
BLACK
6
CONTINUOUS
10
-50.000001999999995
20
-274.9999300000000062
11
-50.000001999999995
21
-277.9999300000000062
0
LINE
8
BLACK
6
CONTINUOUS
10
-50.000001999999995
20
-277.9999300000000062
11
-54.000001999999995
21
-277.9999300000000062
0
LINE
8
BLACK
6
CONTINUOUS
10
-54.000001999999995
20
-277.9999300000000062
11
-54.000001999999995
21
-274.9999300000000062
0
LINE
8
BLACK
6
CONTINUOUS
10
-133.9999990000000025
20
-244.9999279999999828
11
-117.9999989999999883
21
-244.9999279999999828
0
ARC
8
BLACK
10
-209.9999990000000025
20
-266.9999280000000113
40
2.
50
-180.00000000
51
-0.00000000
0
ARC
8
BLACK
10
-153.9999990000000025
20
-242.9999279999999828
40
2.
50
-180.00000000
51
-0.00000000
0
LINE
8
BLACK
6
CONTINUOUS
10
-101.9999989999999883
20
-244.9999279999999828
11
-85.9999990000000025
21
-244.9999279999999828
0
ARC
8
BLACK
10
-105.9999989999999883
20
-266.9999280000000113
40
2.
50
-180.00000000
51
-0.00000000
0
LINE
8
BLACK
6
CONTINUOUS
10
-155.9999990000000025
20
-250.9999279999999828
11
-155.9999990000000025
21
-266.9999280000000113
0
LINE
8
BLACK
6
CONTINUOUS
10
-78.0000050000000016
20
-244.9999299999999778
11
-75.0000050000000016
21
-244.9999299999999778
0
LINE
8
BLACK
6
CONTINUOUS
10
-75.0000050000000016
20
-244.9999299999999778
11
-75.0000050000000016
21
-248.9999299999999778
0
LINE
8
BLACK
6
CONTINUOUS
10
-75.0000050000000016
20
-248.9999299999999778
11
-78.0000050000000016
21
-248.9999299999999778
0
LINE
8
BLACK
6
CONTINUOUS
10
-78.0000050000000016
20
-248.9999299999999778
11
-78.0000050000000016
21
-244.9999299999999778
0
ARC
8
BLACK
10
-185.9999990000000025
20
-266.9999280000000113
40
2.
50
-180.00000000
51
-0.00000000
0
LINE
8
BLACK
6
CONTINUOUS
10
-61.000001999999995
20
-296.9999259999999595
11
-91.000001999999995
21
-296.9999259999999595
0
LINE
8
BLACK
6
CONTINUOUS
10
-241.9999990000000025
20
-215.9999279999999828
11
-237.9999990000000025
21
-215.9999279999999828
0
LINE
8
BLACK
6
CONTINUOUS
10
-237.9999990000000025
20
-215.9999279999999828
11
-237.9999990000000025
21
-218.9999279999999828
0
LINE
8
BLACK
6
CONTINUOUS
10
-237.9999990000000025
20
-218.9999279999999828
11
-241.9999990000000025
21
-218.9999279999999828
0
LINE
8
BLACK
6
CONTINUOUS
10
-241.9999990000000025
20
-218.9999279999999828
11
-241.9999990000000025
21
-215.9999279999999828
0
CIRCLE
8
BLACK
10
-146.
20
-271.
40
2.
0
ARC
8
BLACK
10
-174.0000049999999874
20
-222.9999299999999778
40
1.9999980000090001
50
-270.00017189
51
-89.99982811
0
LINE
8
BLACK
6
CONTINUOUS
10
-173.9999990000000025
20
-220.9999279999999828
11
-157.9999990000000025
21
-220.9999279999999828
0
ARC
8
BLACK
10
-118.0000050000000016
20
-246.9999299999999778
40
2.0000020000090002
50
-89.99982811
51
89.99982811
0
LINE
8
BLACK
6
CONTINUOUS
10
-79.9999990000000025
20
-250.9999279999999828
11
-79.9999990000000025
21
-266.9999280000000113
0
LINE
8
BLACK
6
CONTINUOUS
10
-211.9999990000000025
20
-250.9999279999999828
11
-211.9999990000000025
21
-266.9999280000000113
0
ARC
8
BLACK
10
-137.9999990000000025
20
-226.9999279999999828
40
2.
50
0.00000000
51
180.00000000
0
LINE
8
BLACK
6
CONTINUOUS
10
-103.9999989999999883
20
-250.9999279999999828
11
-103.9999989999999883
21
-266.9999280000000113
0
LINE
8
BLACK
6
CONTINUOUS
10
-179.9999990000000025
20
-226.9999279999999828
11
-179.9999990000000025
21
-242.9999279999999828
0
LINE
8
BLACK
6
CONTINUOUS
10
-91.000001999999995
20
-293.9999270000000138
11
-97.000001999999995
21
-293.9999270000000138
0
ARC
8
BLACK
10
-177.9999990000000025
20
-266.9999280000000113
40
2.
50
-180.00000000
51
-0.00000000
0
ARC
8
BLACK
10
-113.9999989999999883
20
-242.9999279999999828
40
2.
50
-180.00000000
51
-0.00000000
0
ARC
8
BLACK
10
-81.9999990000000025
20
-226.9999279999999828
40
2.
50
0.00000000
51
180.00000000
0
ARC
8
BLACK
10
-153.9999990000000025
20
-266.9999280000000113
40
2.
50
-180.00000000
51
-0.00000000
0
LINE
8
BLACK
6
CONTINUOUS
10
-173.9999990000000025
20
-244.9999279999999828
11
-157.9999990000000025
21
-244.9999279999999828
0
ARC
8
BLACK
10
-190.0000249999999937
20
-222.9999299999999778
40
2.0000020001689998
50
-89.99925515
51
89.99925516
0
LINE
8
BLACK
6
CONTINUOUS
10
-175.9999990000000025
20
-250.9999279999999828
11
-175.9999990000000025
21
-266.9999280000000113
0
ARC
8
BLACK
10
-153.9999990000000025
20
-226.9999279999999828
40
2.
50
0.00000000
51
180.00000000
0
ARC
8
BLACK
10
-102.0000050000000016
20
-270.9999300000000062
40
1.9999980000090001
50
-270.00017189
51
-89.99982811
0
ARC
8
BLACK
10
-105.9999989999999883
20
-250.9999279999999828
40
2.
50
0.00000000
51
180.00000000
0
LINE
8
BLACK
6
CONTINUOUS
10
-97.000001999999995
20
-293.9999270000000138
11
-97.000001999999995
21
-296.9997559999999908
0
ARC
8
BLACK
10
-102.0000050000000016
20
-222.9999299999999778
40
1.9999980000090001
50
-270.00017189
51
-89.99982811
0
ARC
8
BLACK
10
-113.9999989999999883
20
-266.9999280000000113
40
2.
50
-180.00000000
51
-0.00000000
0
LINE
8
BLACK
6
CONTINUOUS
10
-101.9999989999999883
20
-224.9999279999999828
11
-85.9999990000000025
21
-224.9999279999999828
0
CIRCLE
8
BLACK
10
-213.0000049999999874
20
-275.9999300000000062
40
1.250006
0
LINE
8
BLACK
6
CONTINUOUS
10
-175.9999990000000025
20
-226.9999279999999828
11
-175.9999990000000025
21
-242.9999279999999828
0
ARC
8
BLACK
10
-174.0000049999999874
20
-246.9999299999999778
40
1.9999980000090001
50
-270.00017189
51
-89.99982811
0
LINE
8
BLACK
6
CONTINUOUS
10
-133.9999990000000025
20
-224.9999279999999828
11
-117.9999989999999883
21
-224.9999279999999828
0
ARC
8
BLACK
10
-137.9999990000000025
20
-266.9999280000000113
40
2.
50
-180.00000000
51
-0.00000000
0
LINE
8
BLACK
6
CONTINUOUS
10
-205.9999990000000025
20
-244.9999279999999828
11
-189.9999990000000025
21
-244.9999279999999828
0
LINE
8
BLACK
6
CONTINUOUS
10
-195.000001999999995
20
-296.9999270000000138
11
-195.000001999999995
21
-293.9999270000000138
0
LINE
8
BLACK
6
CONTINUOUS
10
-187.9999990000000025
20
-226.9999279999999828
11
-187.9999990000000025
21
-242.9999279999999828
0
LINE
8
BLACK
6
CONTINUOUS
10
-103.9999989999999883
20
-226.9999279999999828
11
-103.9999989999999883
21
-242.9999279999999828
0
LINE
8
BLACK
6
CONTINUOUS
10
-151.9999990000000025
20
-250.9999279999999828
11
-151.9999990000000025
21
-266.9999280000000113
0
LINE
8
BLACK
6
CONTINUOUS
10
-111.9999989999999883
20
-250.9999279999999828
11
-111.9999989999999883
21
-266.9999280000000113
0
LINE
8
BLACK
6
CONTINUOUS
10
-69.9999990000000025
20
-196.9999279999999828
11
-231.0000009999999975
21
-196.9999269999999854
0
ARC
8
BLACK
10
-86.0000050000000016
20
-270.9999300000000062
40
2.0000020000090002
50
-89.99982811
51
89.99982811
0
LINE
8
BLACK
6
CONTINUOUS
10
-173.9999990000000025
20
-268.9999280000000113
11
-157.9999990000000025
21
-268.9999280000000113
0
LINE
8
BLACK
6
CONTINUOUS
10
-217.0000049999999874
20
-200.9999299999999778
11
-214.0000049999999874
21
-200.9999299999999778
0
LINE
8
BLACK
6
CONTINUOUS
10
-214.0000049999999874
20
-200.9999299999999778
11
-214.0000049999999874
21
-204.9999299999999778
0
LINE
8
BLACK
6
CONTINUOUS
10
-214.0000049999999874
20
-204.9999299999999778
11
-217.0000049999999874
21
-204.9999299999999778
0
LINE
8
BLACK
6
CONTINUOUS
10
-217.0000049999999874
20
-204.9999299999999778
11
-217.0000049999999874
21
-200.9999299999999778
0
ARC
8
BLACK
10
-86.0000050000000016
20
-246.9999299999999778
40
2.0000020000090002
50
-89.99982811
51
89.99982811
0
LINE
8
BLACK
6
CONTINUOUS
10
-173.9999990000000025
20
-224.9999279999999828
11
-157.9999990000000025
21
-224.9999279999999828
0
ARC
8
BLACK
10
-137.9999990000000025
20
-250.9999279999999828
40
2.
50
0.00000000
51
180.00000000
0
ARC
8
BLACK
10
-113.9999989999999883
20
-250.9999279999999828
40
2.
50
0.00000000
51
180.00000000
0
LINE
8
BLACK
6
CONTINUOUS
10
-217.0000049999999874
20
-244.9999299999999778
11
-214.0000049999999874
21
-244.9999299999999778
0
LINE
8
BLACK
6
CONTINUOUS
10
-214.0000049999999874
20
-244.9999299999999778
11
-214.0000049999999874
21
-248.9999299999999778
0
LINE
8
BLACK
6
CONTINUOUS
10
-214.0000049999999874
20
-248.9999299999999778
11
-217.0000049999999874
21
-248.9999299999999778
0
LINE
8
BLACK
6
CONTINUOUS
10
-217.0000049999999874
20
-248.9999299999999778
11
-217.0000049999999874
21
-244.9999299999999778
0
CIRCLE
8
BLACK
10
-213.0000049999999874
20
-221.9999299999999778
40
1.250006
0
ARC
8
BLACK
10
-158.0000049999999874
20
-270.9999300000000062
40
2.0000020000090002
50
-89.99982811
51
89.99982811
0
LINE
8
BLACK
6
CONTINUOUS
10
-83.9999990000000025
20
-226.9999279999999828
11
-83.9999990000000025
21
-242.9999279999999828
0
LINE
8
BLACK
6
CONTINUOUS
10
-181.9999990000000025
20
-277.9999280000000113
11
-147.9999990000000025
21
-277.9999280000000113
0
LINE
8
BLACK
6
CONTINUOUS
10
-147.9999990000000025
20
-277.9999280000000113
11
-147.9999990000000025
21
-274.9999280000000113
0
ARC
8
BLACK
10
-231.0000039999999899
20
-211.9999249999999904
40
14.9999990000000327
50
-270.00001146
51
-179.99999618
0
ARC
8
BLACK
10
-81.9999990000000025
20
-266.9999280000000113
40
2.
50
-180.00000000
51
-0.00000000
0
LINE
8
BLACK
6
CONTINUOUS
10
-133.9999990000000025
20
-268.9999280000000113
11
-117.9999989999999883
21
-268.9999280000000113
0
ARC
8
BLACK
10
-177.9999990000000025
20
-242.9999279999999828
40
2.
50
-180.00000000
51
-0.00000000
0
ARC
8
BLACK
10
-185.9999990000000025
20
-226.9999279999999828
40
2.
50
0.00000000
51
180.00000000
0
LINE
8
BLACK
6
CONTINUOUS
10
-139.9999990000000025
20
-226.9999279999999828
11
-139.9999990000000025
21
-242.9999279999999828
0
ARC
8
BLACK
10
-206.0000289999999836
20
-222.9999279999999828
40
2.000000000225
50
-270.00085944
51
-89.99914056
0
LINE
8
BLACK
6
CONTINUOUS
10
-69.9999990000000025
20
-200.9999279999999828
11
-69.9999990000000025
21
-196.9999279999999828
0
ARC
8
BLACK
10
-206.0000289999999836
20
-270.9999280000000113
40
2.000000000225
50
-270.00085944
51
-89.99914056
0
ARC
8
BLACK
10
-134.0000049999999874
20
-246.9999299999999778
40
1.9999980000090001
50
-270.00017189
51
-89.99982811
0
ARC
8
BLACK
10
-185.9999990000000025
20
-242.9999279999999828
40
2.
50
-180.00000000
51
-0.00000000
0
LINE
8
BLACK
6
CONTINUOUS
10
-207.9999990000000025
20
-226.9999279999999828
11
-207.9999990000000025
21
-242.9999279999999828
0
CIRCLE
8
BLACK
10
-146.
20
-253.
40
2.
0
ARC
8
BLACK
10
-118.0000050000000016
20
-222.9999299999999778
40
2.0000020000090002
50
-89.99982811
51
89.99982811
0
CIRCLE
8
BLACK
10
-59.0000049999999945
20
-221.9999299999999778
40
1.250006
0
LINE
8
BLACK
6
CONTINUOUS
10
-111.9999989999999883
20
-226.9999279999999828
11
-111.9999989999999883
21
-242.9999279999999828
0
LINE
8
BLACK
6
CONTINUOUS
10
-107.9999989999999883
20
-226.9999279999999828
11
-107.9999989999999883
21
-242.9999279999999828
0
LINE
8
BLACK
6
CONTINUOUS
10
-151.9999990000000025
20
-226.9999279999999828
11
-151.9999990000000025
21
-242.9999279999999828
0
LINE
8
BLACK
6
CONTINUOUS
10
-109.9999989999999883
20
-277.9999280000000113
11
-109.9999989999999883
21
-291.9999280000000113
0
LINE
8
BLACK
6
CONTINUOUS
10
-205.9999990000000025
20
-248.9999279999999828
11
-189.9999990000000025
21
-248.9999279999999828
0
ARC
8
BLACK
10
-81.9999990000000025
20
-250.9999279999999828
40
2.
50
0.00000000
51
180.00000000
0
LINE
8
BLACK
6
CONTINUOUS
10
-211.9999990000000025
20
-226.9999279999999828
11
-211.9999990000000025
21
-242.9999279999999828
0
LINE
8
BLACK
6
CONTINUOUS
10
-91.000001999999995
20
-296.9999259999999595
11
-91.000001999999995
21
-293.9999270000000138
0
ARC
8
BLACK
10
-102.0000050000000016
20
-246.9999299999999778
40
1.9999980000090001
50
-270.00017189
51
-89.99982811
0
LINE
8
BLACK
6
CONTINUOUS
10
-61.0000029999999995
20
-196.9999259999999879
11
-61.0000029999999995
21
-200.9999279999999828
0
LINE
8
BLACK
6
CONTINUOUS
10
-173.9999990000000025
20
-248.9999279999999828
11
-157.9999990000000025
21
-248.9999279999999828
0
LINE
8
BLACK
6
CONTINUOUS
10
-133.9999990000000025
20
-248.9999279999999828
11
-117.9999989999999883
21
-248.9999279999999828
0
ARC
8
BLACK
10
-134.0000049999999874
20
-222.9999299999999778
40
1.9999980000090001
50
-270.00017189
51
-89.99982811
0
LINE
8
BLACK
6
CONTINUOUS
10
-139.9999990000000025
20
-250.9999279999999828
11
-139.9999990000000025
21
-266.9999280000000113
0
LINE
8
BLACK
6
CONTINUOUS
10
-205.9999990000000025
20
-220.9999279999999828
11
-189.9999990000000025
21
-220.9999279999999828
0
LINE
8
BLACK
6
CONTINUOUS
10
-61.0000029999999995
20
-200.9999279999999828
11
-69.9999990000000025
21
-200.9999279999999828
0
LINE
8
BLACK
6
CONTINUOUS
10
-143.9999990000000025
20
-277.9999280000000113
11
-109.9999989999999883
21
-277.9999280000000113
0
ARC
8
BLACK
10
-230.9999939999999867
20
-281.9999169999999822
40
15.0000090000027004
50
-179.99997326
51
-90.00003438
0
ARC
8
BLACK
10
-185.9999990000000025
20
-250.9999279999999828
40
2.
50
0.00000000
51
180.00000000
0
LINE
8
BLACK
6
CONTINUOUS
10
-46.0000029999999995
20
-281.9998959999999784
11
-46.000003999999997
21
-211.9999279999999828
0
ARC
8
BLACK
10
-190.0000249999999937
20
-270.9999300000000062
40
2.0000020001689998
50
-89.99925515
51
89.99925516
0
LINE
8
BLACK
6
CONTINUOUS
10
-83.9999990000000025
20
-250.9999279999999828
11
-83.9999990000000025
21
-266.9999280000000113
0
LINE
8
BLACK
6
CONTINUOUS
10
-205.9999990000000025
20
-224.9999279999999828
11
-189.9999990000000025
21
-224.9999279999999828
0
LINE
8
BLACK
6
CONTINUOUS
10
-179.9999990000000025
20
-250.9999279999999828
11
-179.9999990000000025
21
-266.9999280000000113
0
LINE
8
BLACK
6
CONTINUOUS
10
-115.9999989999999883
20
-250.9999279999999828
11
-115.9999989999999883
21
-266.9999280000000113
0
LINE
8
BLACK
6
CONTINUOUS
10
-155.9999990000000025
20
-226.9999279999999828
11
-155.9999990000000025
21
-242.9999279999999828
0
LINE
8
BLACK
6
CONTINUOUS
10
-78.0118409999999898
20
-186.9999889999999994
11
-78.0118409999999898
21
-190.9999889999999994
0
LINE
8
BLACK
6
CONTINUOUS
10
-61.0000029999999995
20
-194.9999959999999817
11
-91.0000029999999924
21
-194.9999959999999817
0
LINE
8
BLACK
6
CONTINUOUS
10
-143.7857170000000053
20
-192.3683539999999823
11
-143.7857170000000053
21
-189.3683539999999823
0
LINE
8
BLACK
6
CONTINUOUS
10
-143.7857170000000053
20
-189.3683539999999823
11
-144.5000029999999924
21
-189.3683539999999823
0
LINE
8
BLACK
6
CONTINUOUS
10
-144.5000029999999924
20
-189.3683539999999823
11
-144.9285739999999976
21
-189.511211000000003
0
LINE
8
BLACK
6
CONTINUOUS
10
-144.9285739999999976
20
-189.511211000000003
11
-145.2142889999999795
21
-189.7969249999999874
0
LINE
8
BLACK
6
CONTINUOUS
10
-145.2142889999999795
20
-189.7969249999999874
11
-145.3571460000000002
21
-190.0826390000000004
0
LINE
8
BLACK
6
CONTINUOUS
10
-145.3571460000000002
20
-190.0826390000000004
11
-145.5000029999999924
21
-190.6540679999999952
0
LINE
8
BLACK
6
CONTINUOUS
10
-145.5000029999999924
20
-190.6540679999999952
11
-145.5000029999999924
21
-191.0826390000000004
0
LINE
8
BLACK
6
CONTINUOUS
10
-145.5000029999999924
20
-191.0826390000000004
11
-145.3571460000000002
21
-191.6540679999999952
0
LINE
8
BLACK
6
CONTINUOUS
10
-145.3571460000000002
20
-191.6540679999999952
11
-145.2142889999999795
21
-191.9397819999999797
0
LINE
8
BLACK
6
CONTINUOUS
10
-145.2142889999999795
20
-191.9397819999999797
11
-144.9285739999999976
21
-192.2254969999999901
0
LINE
8
BLACK
6
CONTINUOUS
10
-144.9285739999999976
20
-192.2254969999999901
11
-144.5000029999999924
21
-192.3683539999999823
0
LINE
8
BLACK
6
CONTINUOUS
10
-144.5000029999999924
20
-192.3683539999999823
11
-143.7857170000000053
21
-192.3683539999999823
0
LINE
8
BLACK
6
CONTINUOUS
10
-146.5000029999999924
20
-189.3683539999999823
11
-148.3571460000000002
21
-189.3683539999999823
0
LINE
8
BLACK
6
CONTINUOUS
10
-148.3571460000000002
20
-189.3683539999999823
11
-147.3571460000000002
21
-190.511211000000003
0
LINE
8
BLACK
6
CONTINUOUS
10
-147.3571460000000002
20
-190.511211000000003
11
-147.7857170000000053
21
-190.511211000000003
0
LINE
8
BLACK
6
CONTINUOUS
10
-147.7857170000000053
20
-190.511211000000003
11
-148.0714319999999873
21
-190.6540679999999952
0
LINE
8
BLACK
6
CONTINUOUS
10
-148.0714319999999873
20
-190.6540679999999952
11
-148.2142889999999795
21
-190.7969249999999874
0
LINE
8
BLACK
6
CONTINUOUS
10
-148.2142889999999795
20
-190.7969249999999874
11
-148.3571460000000002
21
-191.0826390000000004
0
LINE
8
BLACK
6
CONTINUOUS
10
-148.3571460000000002
20
-191.0826390000000004
11
-148.3571460000000002
21
-191.7969249999999874
0
LINE
8
BLACK
6
CONTINUOUS
10
-148.3571460000000002
20
-191.7969249999999874
11
-148.2142889999999795
21
-192.0826390000000004
0
LINE
8
BLACK
6
CONTINUOUS
10
-148.2142889999999795
20
-192.0826390000000004
11
-148.0714319999999873
21
-192.2254969999999901
0
LINE
8
BLACK
6
CONTINUOUS
10
-148.0714319999999873
20
-192.2254969999999901
11
-147.7857170000000053
21
-192.3683539999999823
0
LINE
8
BLACK
6
CONTINUOUS
10
-147.7857170000000053
20
-192.3683539999999823
11
-146.9285739999999976
21
-192.3683539999999823
0
LINE
8
BLACK
6
CONTINUOUS
10
-146.9285739999999976
20
-192.3683539999999823
11
-146.6428599999999847
21
-192.2254969999999901
0
LINE
8
BLACK
6
CONTINUOUS
10
-146.6428599999999847
20
-192.2254969999999901
11
-146.5000029999999924
21
-192.0826390000000004
0
LINE
8
BLACK
6
CONTINUOUS
10
-217.0118479999999863
20
-187.0000239999999962
11
-217.011841000000004
21
-190.9999859999999785
0
LINE
8
BLACK
6
CONTINUOUS
10
-78.0118409999999898
20
-190.9999889999999994
11
-75.0118409999999898
21
-190.9999889999999994
0
LINE
8
BLACK
6
CONTINUOUS
10
-97.0000029999999924
20
-191.9999969999999792
11
-97.0000029999999924
21
-194.9998259999999846
0
LINE
8
BLACK
6
CONTINUOUS
10
-201.0000029999999924
20
-191.9999969999999792
11
-201.0000029999999924
21
-194.9999969999999792
0
LINE
8
BLACK
6
CONTINUOUS
10
-201.0000029999999924
20
-194.9999969999999792
11
-231.0000039999999899
21
-194.9999959999999817
0
LINE
8
BLACK
6
CONTINUOUS
10
-97.0000029999999924
20
-194.9998259999999846
11
-195.0000029999999924
21
-194.9999969999999792
0
LINE
8
BLACK
6
CONTINUOUS
10
-75.0000029999999924
20
-190.9999889999999994
11
-75.0000029999999924
21
-186.9999889999999994
0
LINE
8
BLACK
6
CONTINUOUS
10
-195.0000029999999924
20
-191.9999969999999792
11
-201.0000029999999924
21
-191.9999969999999792
0
LINE
8
BLACK
6
CONTINUOUS
10
-61.0000059999999991
20
-194.9999959999999817
11
-61.0000169999999997
21
-187.0000289999999836
0
LINE
8
BLACK
6
CONTINUOUS
10
-195.0000029999999924
20
-194.9999969999999792
11
-195.0000029999999924
21
-191.9999969999999792
0
LINE
8
BLACK
6
CONTINUOUS
10
-231.0000039999999899
20
-194.9999959999999817
11
-231.0000149999999906
21
-187.0000289999999836
0
LINE
8
BLACK
6
CONTINUOUS
10
-75.0000029999999924
20
-186.9999889999999994
11
-61.0000159999999951
21
-187.0000189999999805
0
LINE
8
BLACK
6
CONTINUOUS
10
-214.011841000000004
20
-190.9999859999999785
11
-214.011841000000004
21
-186.9999859999999785
0
LINE
8
BLACK
6
CONTINUOUS
10
-91.0000029999999924
20
-194.9999959999999817
11
-91.0000029999999924
21
-191.9999969999999792
0
LINE
8
BLACK
6
CONTINUOUS
10
-231.0118329999999958
20
-187.0000229999999988
11
-217.0118479999999863
21
-187.0000239999999962
0
LINE
8
BLACK
6
CONTINUOUS
10
-91.0000029999999924
20
-191.9999969999999792
11
-97.0000029999999924
21
-191.9999969999999792
0
LINE
8
BLACK
6
CONTINUOUS
10
-214.0000029999999924
20
-186.9999889999999994
11
-78.0118409999999898
21
-186.9999889999999994
0
LINE
8
BLACK
6
CONTINUOUS
10
-214.011841000000004
20
-190.9999859999999785
11
-217.011841000000004
21
-190.9999859999999785
0
LINE
8
BLACK
6
CONTINUOUS
10
-214.
20
-181.999998000000005
11
-217.
21
-181.999998000000005
0
LINE
8
BLACK
6
CONTINUOUS
10
-145.3571460000000002
20
-180.511211000000003
11
-145.0714319999999873
21
-180.3683539999999823
0
LINE
8
BLACK
6
CONTINUOUS
10
-145.0714319999999873
20
-180.3683539999999823
11
-144.6428599999999847
21
-180.3683539999999823
0
LINE
8
BLACK
6
CONTINUOUS
10
-144.6428599999999847
20
-180.3683539999999823
11
-144.2142889999999795
21
-180.511211000000003
0
LINE
8
BLACK
6
CONTINUOUS
10
-144.2142889999999795
20
-180.511211000000003
11
-143.9285739999999976
21
-180.7969249999999874
0
LINE
8
BLACK
6
CONTINUOUS
10
-143.9285739999999976
20
-180.7969249999999874
11
-143.7857170000000053
21
-181.0826390000000004
0
LINE
8
BLACK
6
CONTINUOUS
10
-143.7857170000000053
20
-181.0826390000000004
11
-143.6428599999999847
21
-181.6540679999999952
0
LINE
8
BLACK
6
CONTINUOUS
10
-143.6428599999999847
20
-181.6540679999999952
11
-143.6428599999999847
21
-182.0826390000000004
0
LINE
8
BLACK
6
CONTINUOUS
10
-143.6428599999999847
20
-182.0826390000000004
11
-143.7857170000000053
21
-182.6540679999999952
0
LINE
8
BLACK
6
CONTINUOUS
10
-143.7857170000000053
20
-182.6540679999999952
11
-143.9285739999999976
21
-182.9397819999999797
0
LINE
8
BLACK
6
CONTINUOUS
10
-143.9285739999999976
20
-182.9397819999999797
11
-144.2142889999999795
21
-183.2254969999999901
0
LINE
8
BLACK
6
CONTINUOUS
10
-144.2142889999999795
20
-183.2254969999999901
11
-144.6428599999999847
21
-183.3683539999999823
0
LINE
8
BLACK
6
CONTINUOUS
10
-144.6428599999999847
20
-183.3683539999999823
11
-144.9285739999999976
21
-183.3683539999999823
0
LINE
8
BLACK
6
CONTINUOUS
10
-144.9285739999999976
20
-183.3683539999999823
11
-145.3571460000000002
21
-183.2254969999999901
0
LINE
8
BLACK
6
CONTINUOUS
10
-145.3571460000000002
20
-183.2254969999999901
11
-145.5000029999999924
21
-183.0826390000000004
0
LINE
8
BLACK
6
CONTINUOUS
10
-145.5000029999999924
20
-183.0826390000000004
11
-145.5000029999999924
21
-182.0826390000000004
0
LINE
8
BLACK
6
CONTINUOUS
10
-145.5000029999999924
20
-182.0826390000000004
11
-144.9285739999999976
21
-182.0826390000000004
0
LINE
8
BLACK
6
CONTINUOUS
10
-146.5000029999999924
20
-180.3683539999999823
11
-148.3571460000000002
21
-180.3683539999999823
0
LINE
8
BLACK
6
CONTINUOUS
10
-148.3571460000000002
20
-180.3683539999999823
11
-147.3571460000000002
21
-181.511211000000003
0
LINE
8
BLACK
6
CONTINUOUS
10
-147.3571460000000002
20
-181.511211000000003
11
-147.7857170000000053
21
-181.511211000000003
0
LINE
8
BLACK
6
CONTINUOUS
10
-147.7857170000000053
20
-181.511211000000003
11
-148.0714319999999873
21
-181.6540679999999952
0
LINE
8
BLACK
6
CONTINUOUS
10
-148.0714319999999873
20
-181.6540679999999952
11
-148.2142889999999795
21
-181.7969249999999874
0
LINE
8
BLACK
6
CONTINUOUS
10
-148.2142889999999795
20
-181.7969249999999874
11
-148.3571460000000002
21
-182.0826390000000004
0
LINE
8
BLACK
6
CONTINUOUS
10
-148.3571460000000002
20
-182.0826390000000004
11
-148.3571460000000002
21
-182.7969249999999874
0
LINE
8
BLACK
6
CONTINUOUS
10
-148.3571460000000002
20
-182.7969249999999874
11
-148.2142889999999795
21
-183.0826390000000004
0
LINE
8
BLACK
6
CONTINUOUS
10
-148.2142889999999795
20
-183.0826390000000004
11
-148.0714319999999873
21
-183.2254969999999901
0
LINE
8
BLACK
6
CONTINUOUS
10
-148.0714319999999873
20
-183.2254969999999901
11
-147.7857170000000053
21
-183.3683539999999823
0
LINE
8
BLACK
6
CONTINUOUS
10
-147.7857170000000053
20
-183.3683539999999823
11
-146.9285739999999976
21
-183.3683539999999823
0
LINE
8
BLACK
6
CONTINUOUS
10
-146.9285739999999976
20
-183.3683539999999823
11
-146.6428599999999847
21
-183.2254969999999901
0
LINE
8
BLACK
6
CONTINUOUS
10
-146.6428599999999847
20
-183.2254969999999901
11
-146.5000029999999924
21
-183.0826390000000004
0
LINE
8
BLACK
6
CONTINUOUS
10
-60.9999979999999979
20
-177.999998000000005
11
-231.000001999999995
21
-177.9999969999999792
0
LINE
8
BLACK
6
CONTINUOUS
10
-217.
20
-181.999998000000005
11
-217.
21
-185.999998000000005
0
LINE
8
BLACK
6
CONTINUOUS
10
-78.
20
-182.0000009999999975
11
-78.
21
-186.0000009999999975
0
LINE
8
BLACK
6
CONTINUOUS
10
-231.0000029999999924
20
-185.9999679999999955
11
-231.000001999999995
21
-177.9999969999999792
0
LINE
8
BLACK
6
CONTINUOUS
10
-214.
20
-185.999998000000005
11
-214.
21
-181.999998000000005
0
LINE
8
BLACK
6
CONTINUOUS
10
-74.9999930000000035
20
-185.9999629999999797
11
-75.
21
-182.0000009999999975
0
LINE
8
BLACK
6
CONTINUOUS
10
-78.
20
-182.0000009999999975
11
-75.
21
-182.0000009999999975
0
LINE
8
BLACK
6
CONTINUOUS
10
-60.9999929999999964
20
-185.9999640000000056
11
-61.000003999999997
21
-177.9999969999999792
0
LINE
8
BLACK
6
CONTINUOUS
10
-78.
20
-186.0000009999999975
11
-214.
21
-185.999998000000005
0
LINE
8
BLACK
6
CONTINUOUS
10
-61.000007999999994
20
-185.9999640000000056
11
-74.9999930000000035
21
-185.9999629999999797
0
LINE
8
BLACK
6
CONTINUOUS
10
-217.
20
-185.999998000000005
11
-230.9999880000000019
21
-185.9999679999999955
0
LINE
8
BLACK
6
CONTINUOUS
10
-217.0232349999999997
20
-147.0000049999999874
11
-217.0232279999999889
21
-150.9999669999999981
0
LINE
8
BLACK
6
CONTINUOUS
10
-97.5
20
-121.
11
-101.5
21
-121.
0
LINE
8
BLACK
6
CONTINUOUS
10
-182.0232349999999997
20
-150.0000049999999874
11
-110.0232349999999997
21
-150.0000049999999874
0
LINE
8
BLACK
6
CONTINUOUS
10
-216.9999959999999817
20
-164.0000009999999975
11
-230.9999909999999943
21
-163.999970999999988
0
LINE
8
BLACK
6
CONTINUOUS
10
-54.
20
-174.
11
-75.
21
-174.
0
LINE
8
BLACK
6
CONTINUOUS
10
-238.
20
-143.
11
-148.
21
-143.
0
LINE
8
BLACK
6
CONTINUOUS
10
-78.
20
-137.
11
-78.
21
-140.
0
LINE
8
BLACK
6
CONTINUOUS
10
-127.4999959999999959
20
-124.
11
-127.4999959999999959
21
-127.
0
LINE
8
BLACK
6
CONTINUOUS
10
-214.0232279999999889
20
-150.9999669999999981
11
-214.0232279999999889
21
-146.9999669999999981
0
LINE
8
BLACK
6
CONTINUOUS
10
-102.
20
-134.
11
-106.
21
-134.
0
LINE
8
BLACK
6
CONTINUOUS
10
-217.
20
-137.
11
-217.
21
-140.
0
LINE
8
BLACK
6
CONTINUOUS
10
-213.9999959999999817
20
-164.0000009999999975
11
-77.9999959999999959
21
-164.0000039999999899
0
LINE
8
BLACK
6
CONTINUOUS
10
-238.
20
-174.
11
-217.
21
-174.
0
LINE
8
BLACK
6
CONTINUOUS
10
-238.
20
-174.
11
-238.
21
-177.
0
LINE
8
BLACK
6
CONTINUOUS
10
-75.
20
-137.
11
-75.
21
-140.
0
LINE
8
BLACK
6
CONTINUOUS
10
-214.0232279999999889
20
-150.9999669999999981
11
-217.0232279999999889
21
-150.9999669999999981
0
LINE
8
BLACK
6
CONTINUOUS
10
-238.
20
-134.
11
-242.
21
-134.
0
LINE
8
BLACK
6
CONTINUOUS
10
-242.
20
-155.
11
-238.
21
-155.
0
LINE
8
BLACK
6
CONTINUOUS
10
-223.4999979999999766
20
-124.
11
-234.500001999999995
21
-124.
0
LINE
8
BLACK
6
CONTINUOUS
10
-74.9999889999999994
20
-160.
11
-77.9999959999999959
21
-160.0000039999999899
0
LINE
8
BLACK
6
CONTINUOUS
10
-194.500001999999995
20
-130.
11
-194.500001999999995
21
-133.
0
LINE
8
BLACK
6
CONTINUOUS
10
-97.5
20
-133.
11
-97.5
21
-130.
0
LINE
8
BLACK
6
CONTINUOUS
10
-144.
20
-168.
11
-144.
21
-165.
0
LINE
8
BLACK
6
CONTINUOUS
10
-230.9999889999999994
20
-163.999970999999988
11
-230.9999979999999766
21
-155.9999990000000025
0
LINE
8
BLACK
6
CONTINUOUS
10
-54.
20
-168.
11
-144.
21
-168.
0
LINE
8
BLACK
6
CONTINUOUS
10
-213.9999959999999817
20
-164.0000009999999975
11
-213.9999959999999817
21
-160.0000009999999975
0
LINE
8
BLACK
6
CONTINUOUS
10
-102.
20
-137.
11
-78.
21
-137.
0
LINE
8
BLACK
6
CONTINUOUS
10
-75.0232419999999962
20
-147.0000090000000057
11
-75.0232419999999962
21
-151.0000090000000057
0
LINE
8
BLACK
6
CONTINUOUS
10
-102.
20
-177.
11
-102.
21
-174.
0
LINE
8
BLACK
6
CONTINUOUS
10
-101.5
20
-133.
11
-97.5
21
-133.
0
LINE
8
BLACK
6
CONTINUOUS
10
-238.
20
-168.
11
-148.
21
-168.
0
LINE
8
BLACK
6
CONTINUOUS
10
-57.5
20
-112.
11
-57.5
21
-124.
0
LINE
8
BLACK
6
CONTINUOUS
10
-50.
20
-134.
11
-50.
21
-155.
0
LINE
8
BLACK
6
CONTINUOUS
10
-53.5
20
-130.
11
-53.5
21
-133.
0
LINE
8
BLACK
6
CONTINUOUS
10
-148.
20
-165.
11
-148.
21
-168.
0
LINE
8
BLACK
6
CONTINUOUS
10
-217.
20
-171.
11
-214.
21
-171.
0
LINE
8
BLACK
6
CONTINUOUS
10
-110.0232349999999997
20
-150.0000049999999874
11
-110.0232349999999997
21
-147.0000049999999874
0
LINE
8
BLACK
6
CONTINUOUS
10
-106.
20
-174.
11
-106.
21
-177.
0
LINE
8
BLACK
6
CONTINUOUS
10
-238.
20
-137.
11
-217.
21
-137.
0
LINE
8
BLACK
6
CONTINUOUS
10
-57.5
20
-130.
11
-57.5
21
-133.
0
LINE
8
BLACK
6
CONTINUOUS
10
-127.4999959999999959
20
-124.
11
-101.5
21
-124.
0
LINE
8
BLACK
6
CONTINUOUS
10
-106.
20
-177.
11
-102.
21
-177.
0
LINE
8
BLACK
6
CONTINUOUS
10
-182.0232349999999997
20
-147.0000049999999874
11
-182.0232349999999997
21
-150.0000049999999874
0
LINE
8
BLACK
6
CONTINUOUS
10
-231.0232199999999807
20
-147.0000039999999899
11
-217.0232349999999997
21
-147.0000049999999874
0
LINE
8
BLACK
6
CONTINUOUS
10
-97.5
20
-124.
11
-97.5
21
-121.
0
LINE
8
BLACK
6
CONTINUOUS
10
-145.5
20
-133.
11
-141.5
21
-133.
0
LINE
8
BLACK
6
CONTINUOUS
10
-57.5
20
-133.
11
-53.5
21
-133.
0
LINE
8
BLACK
6
CONTINUOUS
10
-214.
20
-140.
11
-217.
21
-140.
0
LINE
8
BLACK
6
CONTINUOUS
10
-190.500001999999995
20
-133.
11
-190.500001999999995
21
-130.
0
LINE
8
BLACK
6
CONTINUOUS
10
-150.4999640000000056
20
-133.0000069999999823
11
-146.500001999999995
21
-133.
0
LINE
8
BLACK
6
CONTINUOUS
10
-186.
20
-137.
11
-106.
21
-137.
0
LINE
8
BLACK
6
CONTINUOUS
10
-61.000003999999997
20
-163.9999669999999981
11
-74.9999889999999994
21
-163.9999660000000006
0
LINE
8
BLACK
6
CONTINUOUS
10
-164.499998000000005
20
-127.
11
-161.499998000000005
21
-127.
0
LINE
8
BLACK
6
CONTINUOUS
10
-53.5
20
-112.
11
-57.5
21
-112.
0
LINE
8
BLACK
6
CONTINUOUS
10
-148.
20
-146.
11
-144.
21
-146.
0
LINE
8
BLACK
6
CONTINUOUS
10
-190.
20
-174.
11
-190.
21
-177.
0
LINE
8
BLACK
6
CONTINUOUS
10
-50.
20
-155.
11
-54.
21
-155.
0
LINE
8
BLACK
6
CONTINUOUS
10
-216.9999959999999817
20
-160.0000009999999975
11
-216.9999959999999817
21
-164.0000009999999975
0
LINE
8
BLACK
6
CONTINUOUS
10
-230.9767519999999763
20
-155.0000059999999849
11
-61.0232479999999953
21
-154.9999929999999893
0
LINE
8
BLACK
6
CONTINUOUS
10
-242.
20
-134.
11
-242.
21
-155.
0
LINE
8
BLACK
6
CONTINUOUS
10
-220.4999979999999766
20
-127.
11
-223.4999979999999766
21
-127.
0
LINE
8
BLACK
6
CONTINUOUS
10
-238.
20
-155.
11
-238.
21
-143.
0
LINE
8
BLACK
6
CONTINUOUS
10
-54.
20
-134.
11
-50.
21
-134.
0
LINE
8
BLACK
6
CONTINUOUS
10
-194.500001999999995
20
-121.
11
-194.500001999999995
21
-124.
0
LINE
8
BLACK
6
CONTINUOUS
10
-223.4999979999999766
20
-127.
11
-223.4999979999999766
21
-124.
0
LINE
8
BLACK
6
CONTINUOUS
10
-130.4999959999999817
20
-124.
11
-141.5
21
-124.
0
LINE
8
BLACK
6
CONTINUOUS
10
-213.9999959999999817
20
-160.0000009999999975
11
-216.9999959999999817
21
-160.0000009999999975
0
LINE
8
BLACK
6
CONTINUOUS
10
-190.500001999999995
20
-130.
11
-150.500001999999995
21
-130.
0
LINE
8
BLACK
6
CONTINUOUS
10
-53.5
20
-133.
11
-53.5
21
-112.
0
LINE
8
BLACK
6
CONTINUOUS
10
-145.5
20
-112.
11
-141.5
21
-112.
0
LINE
8
BLACK
6
CONTINUOUS
10
-110.0232349999999997
20
-147.0000049999999874
11
-78.0232280000000031
21
-146.9999699999999905
0
LINE
8
BLACK
6
CONTINUOUS
10
-234.500001999999995
20
-130.
11
-194.500001999999995
21
-130.
0
LINE
8
BLACK
6
CONTINUOUS
10
-75.
20
-140.
11
-78.
21
-140.
0
LINE
8
BLACK
6
CONTINUOUS
10
-214.
20
-137.
11
-190.
21
-137.
0
LINE
8
BLACK
6
CONTINUOUS
10
-214.0232279999999889
20
-146.9999669999999981
11
-182.0232349999999997
21
-146.9999669999999981
0
LINE
8
BLACK
6
CONTINUOUS
10
-71.4999959999999959
20
-124.
11
-71.4999959999999959
21
-127.
0
LINE
8
BLACK
6
CONTINUOUS
10
-234.500001999999995
20
-130.
11
-234.500001999999995
21
-133.
0
LINE
8
BLACK
6
CONTINUOUS
10
-242.
20
-156.
11
-238.
21
-156.
0
LINE
8
BLACK
6
CONTINUOUS
10
-186.
20
-137.
11
-186.
21
-134.
0
LINE
8
BLACK
6
CONTINUOUS
10
-238.
20
-156.
11
-238.
21
-168.
0
LINE
8
BLACK
6
CONTINUOUS
10
-146.500001999999995
20
-112.
11
-150.500001999999995
21
-112.
0
LINE
8
BLACK
6
CONTINUOUS
10
-190.
20
-174.
11
-214.
21
-174.
0
LINE
8
BLACK
6
CONTINUOUS
10
-141.5
20
-130.
11
-141.5
21
-133.
0
LINE
8
BLACK
6
CONTINUOUS
10
-214.
20
-174.
11
-214.
21
-171.
0
LINE
8
BLACK
6
CONTINUOUS
10
-150.500001999999995
20
-112.
11
-150.500001999999995
21
-124.
0
LINE
8
BLACK
6
CONTINUOUS
10
-78.
20
-174.
11
-102.
21
-174.
0
LINE
8
BLACK
6
CONTINUOUS
10
-54.
20
-143.
11
-144.
21
-143.
0
LINE
8
BLACK
6
CONTINUOUS
10
-186.
20
-177.
11
-186.
21
-174.
0
LINE
8
BLACK
6
CONTINUOUS
10
-71.4999959999999959
20
-124.
11
-97.5
21
-124.
0
LINE
8
BLACK
6
CONTINUOUS
10
-127.4999959999999959
20
-127.
11
-130.4999959999999817
21
-127.
0
LINE
8
BLACK
6
CONTINUOUS
10
-97.5
20
-130.
11
-57.5
21
-130.
0
LINE
8
BLACK
6
CONTINUOUS
10
-148.
20
-143.
11
-148.
21
-146.
0
LINE
8
BLACK
6
CONTINUOUS
10
-68.4999959999999959
20
-127.
11
-68.4999959999999959
21
-124.
0
LINE
8
BLACK
6
CONTINUOUS
10
-75.0232419999999962
20
-146.9999969999999792
11
-61.0232579999999984
21
-147.0000269999999887
0
LINE
8
BLACK
6
CONTINUOUS
10
-190.500001999999995
20
-121.
11
-194.500001999999995
21
-121.
0
LINE
8
BLACK
6
CONTINUOUS
10
-141.5
20
-112.
11
-141.5
21
-124.
0
LINE
8
BLACK
6
CONTINUOUS
10
-102.
20
-137.
11
-102.
21
-134.
0
LINE
8
BLACK
6
CONTINUOUS
10
-220.4999979999999766
20
-124.
11
-220.4999979999999766
21
-127.
0
LINE
8
BLACK
6
CONTINUOUS
10
-238.
20
-137.
11
-238.
21
-134.
0
LINE
8
BLACK
6
CONTINUOUS
10
-234.500001999999995
20
-112.
11
-234.500001999999995
21
-124.
0
LINE
8
BLACK
6
CONTINUOUS
10
-220.4999979999999766
20
-124.
11
-194.500001999999995
21
-124.
0
LINE
8
BLACK
6
CONTINUOUS
10
-61.0232479999999953
20
-154.9999929999999893
11
-61.0232589999999959
21
-147.0000259999999912
0
LINE
8
BLACK
6
CONTINUOUS
10
-190.
20
-177.
11
-186.
21
-177.
0
LINE
8
BLACK
6
CONTINUOUS
10
-242.
20
-177.
11
-242.
21
-156.
0
LINE
8
BLACK
6
CONTINUOUS
10
-54.
20
-174.
11
-54.
21
-177.
0
LINE
8
BLACK
6
CONTINUOUS
10
-238.500001999999995
20
-133.
11
-238.500001999999995
21
-112.
0
LINE
8
BLACK
6
CONTINUOUS
10
-150.500001999999995
20
-133.
11
-146.500001999999995
21
-133.
0
LINE
8
BLACK
6
CONTINUOUS
10
-101.5
20
-130.
11
-101.5
21
-133.
0
LINE
8
BLACK
6
CONTINUOUS
10
-164.499998000000005
20
-124.
11
-164.499998000000005
21
-127.
0
LINE
8
BLACK
6
CONTINUOUS
10
-231.0232460000000003
20
-155.0000039999999899
11
-231.023257000000001
21
-147.0000369999999918
0
LINE
8
BLACK
6
CONTINUOUS
10
-217.
20
-174.
11
-217.
21
-171.
0
LINE
8
BLACK
6
CONTINUOUS
10
-146.500001999999995
20
-130.
11
-146.500001999999995
21
-133.
0
LINE
8
BLACK
6
CONTINUOUS
10
-78.
20
-171.
11
-75.
21
-171.
0
LINE
8
BLACK
6
CONTINUOUS
10
-54.
20
-156.
11
-54.
21
-168.
0
LINE
8
BLACK
6
CONTINUOUS
10
-161.499998000000005
20
-127.
11
-161.499998000000005
21
-124.
0
LINE
8
BLACK
6
CONTINUOUS
10
-164.499998000000005
20
-124.
11
-190.500001999999995
21
-124.
0
LINE
8
BLACK
6
CONTINUOUS
10
-150.500001999999995
20
-130.
11
-150.500001999999995
21
-133.
0
LINE
8
BLACK
6
CONTINUOUS
10
-238.500001999999995
20
-112.
11
-234.500001999999995
21
-112.
0
LINE
8
BLACK
6
CONTINUOUS
10
-145.5
20
-133.
11
-145.5
21
-112.
0
LINE
8
BLACK
6
CONTINUOUS
10
-144.
20
-165.
11
-148.
21
-165.
0
LINE
8
BLACK
6
CONTINUOUS
10
-106.
20
-134.
11
-106.
21
-137.
0
LINE
8
BLACK
6
CONTINUOUS
10
-190.
20
-134.
11
-190.
21
-137.
0
LINE
8
BLACK
6
CONTINUOUS
10
-238.
20
-177.
11
-242.
21
-177.
0
LINE
8
BLACK
6
CONTINUOUS
10
-68.4999959999999959
20
-124.
11
-57.5
21
-124.
0
LINE
8
BLACK
6
CONTINUOUS
10
-214.
20
-137.
11
-214.
21
-140.
0
LINE
8
BLACK
6
CONTINUOUS
10
-60.9999879999999948
20
-163.9999669999999981
11
-61.
21
-156.
0
LINE
8
BLACK
6
CONTINUOUS
10
-78.0232280000000031
20
-146.9999699999999905
11
-78.0232280000000031
21
-150.9999699999999905
0
LINE
8
BLACK
6
CONTINUOUS
10
-238.500001999999995
20
-133.
11
-234.500001999999995
21
-133.
0
LINE
8
BLACK
6
CONTINUOUS
10
-144.
20
-146.
11
-144.
21
-143.
0
LINE
8
BLACK
6
CONTINUOUS
10
-50.
20
-156.
11
-54.
21
-156.
0
LINE
8
BLACK
6
CONTINUOUS
10
-190.500001999999995
20
-124.
11
-190.500001999999995
21
-121.
0
LINE
8
BLACK
6
CONTINUOUS
10
-60.9999939999999938
20
-156.
11
-230.9999979999999766
21
-155.9999990000000025
0
LINE
8
BLACK
6
CONTINUOUS
10
-141.5
20
-130.
11
-101.5
21
-130.
0
LINE
8
BLACK
6
CONTINUOUS
10
-130.4999959999999817
20
-127.
11
-130.4999959999999817
21
-124.
0
LINE
8
BLACK
6
CONTINUOUS
10
-77.9999959999999959
20
-160.0000039999999899
11
-77.9999959999999959
21
-164.0000039999999899
0
LINE
8
BLACK
6
CONTINUOUS
10
-57.4999619999999965
20
-133.0000069999999823
11
-53.5
21
-133.
0
LINE
8
BLACK
6
CONTINUOUS
10
-146.500001999999995
20
-133.
11
-146.500001999999995
21
-112.
0
LINE
8
BLACK
6
CONTINUOUS
10
-106.
20
-174.
11
-186.
21
-174.
0
LINE
8
BLACK
6
CONTINUOUS
10
-54.
20
-155.
11
-54.
21
-143.
0
LINE
8
BLACK
6
CONTINUOUS
10
-75.
20
-174.
11
-75.
21
-171.
0
LINE
8
BLACK
6
CONTINUOUS
10
-101.5
20
-121.
11
-101.5
21
-124.
0
LINE
8
BLACK
6
CONTINUOUS
10
-186.
20
-134.
11
-190.
21
-134.
0
LINE
8
BLACK
6
CONTINUOUS
10
-54.
20
-177.
11
-50.
21
-177.
0
LINE
8
BLACK
6
CONTINUOUS
10
-50.
20
-177.
11
-50.
21
-156.
0
LINE
8
BLACK
6
CONTINUOUS
10
-74.9999889999999994
20
-163.9999660000000006
11
-74.9999889999999994
21
-160.
0
LINE
8
BLACK
6
CONTINUOUS
10
-54.
20
-137.
11
-75.
21
-137.
0
LINE
8
BLACK
6
CONTINUOUS
10
-54.
20
-137.
11
-54.
21
-134.
0
LINE
8
BLACK
6
CONTINUOUS
10
-161.499998000000005
20
-124.
11
-150.500001999999995
21
-124.
0
LINE
8
BLACK
6
CONTINUOUS
10
-78.0232280000000031
20
-150.9999699999999905
11
-75.0232280000000031
21
-150.9999699999999905
0
LINE
8
BLACK
6
CONTINUOUS
10
-71.4999959999999959
20
-127.
11
-68.4999959999999959
21
-127.
0
LINE
8
BLACK
6
CONTINUOUS
10
-78.
20
-174.
11
-78.
21
-171.
0
LINE
8
BLACK
6
CONTINUOUS
10
-194.500001999999995
20
-133.
11
-190.500001999999995
21
-133.
0
LINE
8
BLACK
6
CONTINUOUS
10
-189.9999929999999893
20
-28.9999259999999985
11
-185.9999929999999893
21
-28.9999259999999985
0
LINE
8
BLACK
6
CONTINUOUS
10
-185.9999929999999893
20
-28.9999259999999985
11
-185.9999929999999893
21
-31.9999259999999985
0
LINE
8
BLACK
6
CONTINUOUS
10
-185.9999929999999893
20
-31.9999259999999985
11
-189.9999929999999893
21
-31.9999259999999985
0
LINE
8
BLACK
6
CONTINUOUS
10
-189.9999929999999893
20
-31.9999259999999985
11
-189.9999929999999893
21
-28.9999259999999985
0
LINE
8
BLACK
6
CONTINUOUS
10
-241.9999990000000025
20
-87.999927999999997
11
-237.9999990000000025
21
-87.999927999999997
0
LINE
8
BLACK
6
CONTINUOUS
10
-237.9999990000000025
20
-87.999927999999997
11
-237.9999990000000025
21
-90.999927999999997
0
LINE
8
BLACK
6
CONTINUOUS
10
-237.9999990000000025
20
-90.999927999999997
11
-241.9999990000000025
21
-90.999927999999997
0
LINE
8
BLACK
6
CONTINUOUS
10
-241.9999990000000025
20
-90.999927999999997
11
-241.9999990000000025
21
-87.999927999999997
0
LINE
8
BLACK
6
CONTINUOUS
10
-173.9999990000000025
20
-85.999927999999997
11
-157.9999990000000025
21
-85.999927999999997
0
LINE
8
BLACK
6
CONTINUOUS
10
-101.9999989999999883
20
-57.999927999999997
11
-85.9999990000000025
21
-57.999927999999997
0
ARC
8
BLACK
10
-105.9999989999999883
20
-55.999927999999997
40
2.
50
-180.00000000
51
-0.00000000
0
ARC
8
BLACK
10
-133.9999949999999842
20
-35.999927999999997
40
2.0000000000039999
50
-269.99988541
51
-90.00011459
0
LINE
8
BLACK
6
CONTINUOUS
10
-107.9999989999999883
20
-63.999927999999997
11
-107.9999989999999883
21
-79.999927999999997
0
ARC
8
BLACK
10
-190.0000349999999969
20
-83.999927999999997
40
2.0000000003239999
50
-89.99896868
51
89.99896868
0
LINE
8
BLACK
6
CONTINUOUS
10
-175.9999990000000025
20
-39.999927999999997
11
-175.9999990000000025
21
-55.999927999999997
0
ARC
8
BLACK
10
-81.9999990000000025
20
-63.999927999999997
40
2.
50
0.00000000
51
180.00000000
0
LINE
8
BLACK
6
CONTINUOUS
10
-183.9999990000000025
20
-63.999927999999997
11
-183.9999990000000025
21
-79.999927999999997
0
LINE
8
BLACK
6
CONTINUOUS
10
-133.9999990000000025
20
-81.999927999999997
11
-117.9999989999999883
21
-81.999927999999997
0
ARC
8
BLACK
10
-81.9999990000000025
20
-39.999927999999997
40
2.
50
0.00000000
51
180.00000000
0
LINE
8
BLACK
6
CONTINUOUS
10
-187.9999990000000025
20
-63.999927999999997
11
-187.9999990000000025
21
-79.999927999999997
0
LINE
8
BLACK
6
CONTINUOUS
10
-173.9999990000000025
20
-81.999927999999997
11
-157.9999990000000025
21
-81.999927999999997
0
LINE
8
BLACK
6
CONTINUOUS
10
-173.9999990000000025
20
-61.999927999999997
11
-157.9999990000000025
21
-61.999927999999997
0
CIRCLE
8
BLACK
10
-146.
20
-54.
40
2.
0
LINE
8
BLACK
6
CONTINUOUS
10
-101.9999989999999883
20
-85.999927999999997
11
-85.9999990000000025
21
-85.999927999999997
0
ARC
8
BLACK
10
-153.9999990000000025
20
-63.999927999999997
40
2.
50
0.00000000
51
180.00000000
0
ARC
8
BLACK
10
-190.0000349999999969
20
-35.999927999999997
40
2.0000000003239999
50
-89.99896868
51
89.99896868
0
LINE
8
BLACK
6
CONTINUOUS
10
-105.9999929999999893
20
-28.9999259999999985
11
-101.9999929999999893
21
-28.9999259999999985
0
LINE
8
BLACK
6
CONTINUOUS
10
-101.9999929999999893
20
-28.9999259999999985
11
-101.9999929999999893
21
-31.9999259999999985
0
LINE
8
BLACK
6
CONTINUOUS
10
-101.9999929999999893
20
-31.9999259999999985
11
-105.9999929999999893
21
-31.9999259999999985
0
LINE
8
BLACK
6
CONTINUOUS
10
-105.9999929999999893
20
-31.9999259999999985
11
-105.9999929999999893
21
-28.9999259999999985
0
ARC
8
BLACK
10
-177.9999990000000025
20
-39.999927999999997
40
2.
50
0.00000000
51
180.00000000
0
LINE
8
BLACK
6
CONTINUOUS
10
-183.9999990000000025
20
-39.999927999999997
11
-183.9999990000000025
21
-55.999927999999997
0
ARC
8
BLACK
10
-185.9999990000000025
20
-55.999927999999997
40
2.
50
-180.00000000
51
-0.00000000
0
LINE
8
BLACK
6
CONTINUOUS
10
-216.9999990000000025
20
-57.999927999999997
11
-213.9999990000000025
21
-57.999927999999997
0
LINE
8
BLACK
6
CONTINUOUS
10
-213.9999990000000025
20
-57.999927999999997
11
-213.9999990000000025
21
-61.999927999999997
0
LINE
8
BLACK
6
CONTINUOUS
10
-213.9999990000000025
20
-61.999927999999997
11
-216.9999990000000025
21
-61.999927999999997
0
LINE
8
BLACK
6
CONTINUOUS
10
-216.9999990000000025
20
-61.999927999999997
11
-216.9999990000000025
21
-57.999927999999997
0
CIRCLE
8
BLACK
10
-146.
20
-84.
40
2.
0
ARC
8
BLACK
10
-81.9999990000000025
20
-79.999927999999997
40
2.
50
-180.00000000
51
-0.00000000
0
ARC
8
BLACK
10
-101.9999899999999968
20
-59.9999299999999991
40
1.99999800002025
50
-269.99974217
51
-90.00025783
0
LINE
8
BLACK
6
CONTINUOUS
10
-181.9999929999999893
20
-87.9999260000000021
11
-109.9999929999999893
21
-87.9999260000000021
0
LINE
8
BLACK
6
CONTINUOUS
10
-109.9999929999999893
20
-87.9999260000000021
11
-109.9999929999999893
21
-104.9999260000000021
0
LINE
8
BLACK
6
CONTINUOUS
10
-109.9999929999999893
20
-104.9999260000000021
11
-181.9999929999999893
21
-104.9999260000000021
0
LINE
8
BLACK
6
CONTINUOUS
10
-181.9999929999999893
20
-104.9999260000000021
11
-181.9999929999999893
21
-87.9999260000000021
0
ARC
8
BLACK
10
-113.9999989999999883
20
-79.999927999999997
40
2.
50
-180.00000000
51
-0.00000000
0
LINE
8
BLACK
6
CONTINUOUS
10
-101.9999989999999883
20
-37.999927999999997
11
-85.9999990000000025
21
-37.999927999999997
0
LINE
8
BLACK
6
CONTINUOUS
10
-103.9999989999999883
20
-63.999927999999997
11
-103.9999989999999883
21
-79.999927999999997
0
LINE
8
BLACK
6
CONTINUOUS
10
-200.857135999999997
20
-24.3682829999999981
11
-199.1428499999999815
21
-24.3682829999999981
0
LINE
8
BLACK
6
CONTINUOUS
10
-199.9999929999999893
20
-24.3682829999999981
11
-199.9999929999999893
21
-21.3682829999999981
0
LINE
8
BLACK
6
CONTINUOUS
10
-199.9999929999999893
20
-21.3682829999999981
11
-199.7142790000000048
21
-21.7968539999999997
0
LINE
8
BLACK
6
CONTINUOUS
10
-199.7142790000000048
20
-21.7968539999999997
11
-199.4285639999999944
21
-22.0825679999999984
0
LINE
8
BLACK
6
CONTINUOUS
10
-199.4285639999999944
20
-22.0825679999999984
11
-199.1428499999999815
21
-22.2254259999999988
0
LINE
8
BLACK
6
CONTINUOUS
10
-133.9999990000000025
20
-33.999927999999997
11
-117.9999989999999883
21
-33.999927999999997
0
ARC
8
BLACK
10
-174.0000249999999937
20
-35.999927999999997
40
2.0000000001689999
50
-270.00074485
51
-89.99925515
0
LINE
8
BLACK
6
CONTINUOUS
10
-46.0000029999999995
20
-94.9998959999999926
11
-46.000003999999997
21
-24.9999280000000006
0
LINE
8
BLACK
6
CONTINUOUS
10
-179.9999990000000025
20
-63.999927999999997
11
-179.9999990000000025
21
-79.999927999999997
0
ARC
8
BLACK
10
-190.0000349999999969
20
-59.999927999999997
40
2.0000000003239999
50
-89.99896868
51
89.99896868
0
ARC
8
BLACK
10
-209.9999990000000025
20
-63.999927999999997
40
2.
50
0.00000000
51
180.00000000
0
ARC
8
BLACK
10
-113.9999989999999883
20
-55.999927999999997
40
2.
50
-180.00000000
51
-0.00000000
0
ARC
8
BLACK
10
-113.9999989999999883
20
-39.999927999999997
40
2.
50
0.00000000
51
180.00000000
0
LINE
8
BLACK
6
CONTINUOUS
10
-77.9999990000000025
20
-57.999927999999997
11
-74.9999990000000025
21
-57.999927999999997
0
LINE
8
BLACK
6
CONTINUOUS
10
-74.9999990000000025
20
-57.999927999999997
11
-74.9999990000000025
21
-61.999927999999997
0
LINE
8
BLACK
6
CONTINUOUS
10
-74.9999990000000025
20
-61.999927999999997
11
-77.9999990000000025
21
-61.999927999999997
0
LINE
8
BLACK
6
CONTINUOUS
10
-77.9999990000000025
20
-61.999927999999997
11
-77.9999990000000025
21
-57.999927999999997
0
LINE
8
BLACK
6
CONTINUOUS
10
-135.9999990000000025
20
-39.999927999999997
11
-135.9999990000000025
21
-55.999927999999997
0
LINE
8
BLACK
6
CONTINUOUS
10
-83.9999990000000025
20
-63.999927999999997
11
-83.9999990000000025
21
-79.999927999999997
0
ARC
8
BLACK
10
-153.9999990000000025
20
-79.999927999999997
40
2.
50
-180.00000000
51
-0.00000000
0
LINE
8
BLACK
6
CONTINUOUS
10
-207.9999990000000025
20
-39.999927999999997
11
-207.9999990000000025
21
-55.999927999999997
0
ARC
8
BLACK
10
-185.9999990000000025
20
-79.999927999999997
40
2.
50
-180.00000000
51
-0.00000000
0
ARC
8
BLACK
10
-118.
20
-35.9999299999999991
40
2.0000020000002499
50
-89.99997135
51
89.99997135
0
ARC
8
BLACK
10
-81.9999990000000025
20
-55.999927999999997
40
2.
50
-180.00000000
51
-0.00000000
0
LINE
8
BLACK
6
CONTINUOUS
10
-133.9999990000000025
20
-61.999927999999997
11
-117.9999989999999883
21
-61.999927999999997
0
LINE
8
BLACK
6
CONTINUOUS
10
-101.9999989999999883
20
-33.999927999999997
11
-85.9999990000000025
21
-33.999927999999997
0
LINE
8
BLACK
6
CONTINUOUS
10
-205.9999990000000025
20
-33.999927999999997
11
-189.9999990000000025
21
-33.999927999999997
0
ARC
8
BLACK
10
-231.000001999999995
20
-94.9999249999999904
40
15.000001000000033
50
-180.00000382
51
-90.00000382
0
LINE
8
BLACK
6
CONTINUOUS
10
-151.9999990000000025
20
-63.999927999999997
11
-151.9999990000000025
21
-79.999927999999997
0
ARC
8
BLACK
10
-185.9999990000000025
20
-63.999927999999997
40
2.
50
0.00000000
51
180.00000000
0
ARC
8
BLACK
10
-137.9999990000000025
20
-55.999927999999997
40
2.
50
-180.00000000
51
-0.00000000
0
LINE
8
BLACK
6
CONTINUOUS
10
-205.9999990000000025
20
-61.999927999999997
11
-189.9999990000000025
21
-61.999927999999997
0
ARC
8
BLACK
10
-206.0000249999999937
20
-35.999927999999997
40
2.0000000001689999
50
-270.00074485
51
-89.99925515
0
LINE
8
BLACK
6
CONTINUOUS
10
-111.9999989999999883
20
-63.999927999999997
11
-111.9999989999999883
21
-79.999927999999997
0
ARC
8
BLACK
10
-206.0000249999999937
20
-59.999927999999997
40
2.0000000001689999
50
-270.00074485
51
-89.99925515
0
ARC
8
BLACK
10
-133.9999949999999842
20
-83.999927999999997
40
2.0000000000039999
50
-269.99988541
51
-90.00011459
0
LINE
8
BLACK
6
CONTINUOUS
10
-241.9999929999999893
20
-28.9999259999999985
11
-237.9999929999999893
21
-28.9999259999999985
0
LINE
8
BLACK
6
CONTINUOUS
10
-237.9999929999999893
20
-28.9999259999999985
11
-237.9999929999999893
21
-31.9999259999999985
0
LINE
8
BLACK
6
CONTINUOUS
10
-237.9999929999999893
20
-31.9999259999999985
11
-241.9999929999999893
21
-31.9999259999999985
0
LINE
8
BLACK
6
CONTINUOUS
10
-241.9999929999999893
20
-31.9999259999999985
11
-241.9999929999999893
21
-28.9999259999999985
0
ARC
8
BLACK
10
-177.9999990000000025
20
-79.999927999999997
40
2.
50
-180.00000000
51
-0.00000000
0
LINE
8
BLACK
6
CONTINUOUS
10
-115.9999989999999883
20
-39.999927999999997
11
-115.9999989999999883
21
-55.999927999999997
0
LINE
8
BLACK
6
CONTINUOUS
10
-115.9999989999999883
20
-63.999927999999997
11
-115.9999989999999883
21
-79.999927999999997
0
LINE
8
BLACK
6
CONTINUOUS
10
-151.9999990000000025
20
-39.999927999999997
11
-151.9999990000000025
21
-55.999927999999997
0
ARC
8
BLACK
10
-177.9999990000000025
20
-55.999927999999997
40
2.
50
-180.00000000
51
-0.00000000
0
LINE
8
BLACK
6
CONTINUOUS
10
-155.9999990000000025
20
-63.999927999999997
11
-155.9999990000000025
21
-79.999927999999997
0
LINE
8
BLACK
6
CONTINUOUS
10
-107.9999989999999883
20
-39.999927999999997
11
-107.9999989999999883
21
-55.999927999999997
0
ARC
8
BLACK
10
-137.9999990000000025
20
-79.999927999999997
40
2.
50
-180.00000000
51
-0.00000000
0
LINE
8
BLACK
6
CONTINUOUS
10
-207.9999990000000025
20
-63.999927999999997
11
-207.9999990000000025
21
-79.999927999999997
0
LINE
8
BLACK
6
CONTINUOUS
10
-187.9999990000000025
20
-39.999927999999997
11
-187.9999990000000025
21
-55.999927999999997
0
LINE
8
BLACK
6
CONTINUOUS
10
-205.9999990000000025
20
-85.999927999999997
11
-189.9999990000000025
21
-85.999927999999997
0
ARC
8
BLACK
10
-133.9999949999999842
20
-59.999927999999997
40
2.0000000000039999
50
-269.99988541
51
-90.00011459
0
LINE
8
BLACK
6
CONTINUOUS
10
-79.9999990000000025
20
-39.999927999999997
11
-79.9999990000000025
21
-55.999927999999997
0
LINE
8
BLACK
6
CONTINUOUS
10
-205.9999990000000025
20
-37.999927999999997
11
-189.9999990000000025
21
-37.999927999999997
0
ARC
8
BLACK
10
-209.9999990000000025
20
-55.999927999999997
40
2.
50
-180.00000000
51
-0.00000000
0
LINE
8
BLACK
6
CONTINUOUS
10
-189.9999929999999893
20
-87.9999260000000021
11
-185.9999929999999893
21
-87.9999260000000021
0
LINE
8
BLACK
6
CONTINUOUS
10
-185.9999929999999893
20
-87.9999260000000021
11
-185.9999929999999893
21
-90.9999260000000021
0
LINE
8
BLACK
6
CONTINUOUS
10
-185.9999929999999893
20
-90.9999260000000021
11
-189.9999929999999893
21
-90.9999260000000021
0
LINE
8
BLACK
6
CONTINUOUS
10
-189.9999929999999893
20
-90.9999260000000021
11
-189.9999929999999893
21
-87.9999260000000021
0
LINE
8
BLACK
6
CONTINUOUS
10
-173.9999990000000025
20
-33.999927999999997
11
-157.9999990000000025
21
-33.999927999999997
0
LINE
8
BLACK
6
CONTINUOUS
10
-103.9999989999999883
20
-39.999927999999997
11
-103.9999989999999883
21
-55.999927999999997
0
ARC
8
BLACK
10
-137.9999990000000025
20
-39.999927999999997
40
2.
50
0.00000000
51
180.00000000
0
LINE
8
BLACK
6
CONTINUOUS
10
-135.9999990000000025
20
-63.999927999999997
11
-135.9999990000000025
21
-79.999927999999997
0
LINE
8
BLACK
6
CONTINUOUS
10
-205.9999990000000025
20
-81.999927999999997
11
-189.9999990000000025
21
-81.999927999999997
0
LINE
8
BLACK
6
CONTINUOUS
10
-175.9999990000000025
20
-63.999927999999997
11
-175.9999990000000025
21
-79.999927999999997
0
LINE
8
BLACK
6
CONTINUOUS
10
-60.9999970000000005
20
-9.9999279999999988
11
-231.0000009999999975
21
-9.9999269999999996
0
CIRCLE
8
BLACK
10
-146.
20
-66.
40
2.
0
LINE
8
BLACK
6
CONTINUOUS
10
-53.9999989999999954
20
-28.999927999999997
11
-49.9999989999999954
21
-28.999927999999997
0
LINE
8
BLACK
6
CONTINUOUS
10
-49.9999989999999954
20
-28.999927999999997
11
-49.9999989999999954
21
-31.999927999999997
0
LINE
8
BLACK
6
CONTINUOUS
10
-49.9999989999999954
20
-31.999927999999997
11
-53.9999989999999954
21
-31.999927999999997
0
LINE
8
BLACK
6
CONTINUOUS
10
-53.9999989999999954
20
-31.999927999999997
11
-53.9999989999999954
21
-28.999927999999997
0
ARC
8
BLACK
10
-86.
20
-35.9999299999999991
40
2.0000020000002499
50
-89.99997135
51
89.99997135
0
ARC
8
BLACK
10
-206.0000249999999937
20
-83.999927999999997
40
2.0000000001689999
50
-270.00074485
51
-89.99925515
0
ARC
8
BLACK
10
-105.9999989999999883
20
-63.999927999999997
40
2.
50
0.00000000
51
180.00000000
0
ARC
8
BLACK
10
-209.9999990000000025
20
-39.999927999999997
40
2.
50
0.00000000
51
180.00000000
0
LINE
8
BLACK
6
CONTINUOUS
10
-155.9999990000000025
20
-39.999927999999997
11
-155.9999990000000025
21
-55.999927999999997
0
ARC
8
BLACK
10
-118.
20
-83.999929999999992
40
2.0000020000002499
50
-89.99997135
51
89.99997135
0
LINE
8
BLACK
6
CONTINUOUS
10
-133.9999990000000025
20
-37.999927999999997
11
-117.9999989999999883
21
-37.999927999999997
0
ARC
8
BLACK
10
-185.9999990000000025
20
-39.999927999999997
40
2.
50
0.00000000
51
180.00000000
0
LINE
8
BLACK
6
CONTINUOUS
10
-216.9999990000000025
20
-13.9999279999999988
11
-213.9999990000000025
21
-13.9999279999999988
0
LINE
8
BLACK
6
CONTINUOUS
10
-213.9999990000000025
20
-13.9999279999999988
11
-213.9999990000000025
21
-17.9999280000000006
0
LINE
8
BLACK
6
CONTINUOUS
10
-213.9999990000000025
20
-17.9999280000000006
11
-216.9999990000000025
21
-17.9999280000000006
0
LINE
8
BLACK
6
CONTINUOUS
10
-216.9999990000000025
20
-17.9999280000000006
11
-216.9999990000000025
21
-13.9999279999999988
0
LINE
8
BLACK
6
CONTINUOUS
10
-173.9999990000000025
20
-57.999927999999997
11
-157.9999990000000025
21
-57.999927999999997
0
ARC
8
BLACK
10
-153.9999990000000025
20
-55.999927999999997
40
2.
50
-180.00000000
51
-0.00000000
0
LINE
8
BLACK
6
CONTINUOUS
10
-77.9999990000000025
20
-13.9999310000000001
11
-74.9999990000000025
21
-13.9999310000000001
0
LINE
8
BLACK
6
CONTINUOUS
10
-74.9999990000000025
20
-13.9999310000000001
11
-74.9999990000000025
21
-17.9999310000000001
0
LINE
8
BLACK
6
CONTINUOUS
10
-74.9999990000000025
20
-17.9999310000000001
11
-77.9999990000000025
21
-17.9999310000000001
0
LINE
8
BLACK
6
CONTINUOUS
10
-77.9999990000000025
20
-17.9999310000000001
11
-77.9999990000000025
21
-13.9999310000000001
0
LINE
8
BLACK
6
CONTINUOUS
10
-139.9999990000000025
20
-63.999927999999997
11
-139.9999990000000025
21
-79.999927999999997
0
ARC
8
BLACK
10
-118.
20
-59.9999299999999991
40
2.0000020000002499
50
-89.99997135
51
89.99997135
0
LINE
8
BLACK
6
CONTINUOUS
10
-53.9999959999999959
20
-87.999927999999997
11
-49.9999959999999959
21
-87.999927999999997
0
LINE
8
BLACK
6
CONTINUOUS
10
-49.9999959999999959
20
-87.999927999999997
11
-49.9999959999999959
21
-90.999927999999997
0
LINE
8
BLACK
6
CONTINUOUS
10
-49.9999959999999959
20
-90.999927999999997
11
-53.9999959999999959
21
-90.999927999999997
0
LINE
8
BLACK
6
CONTINUOUS
10
-53.9999959999999959
20
-90.999927999999997
11
-53.9999959999999959
21
-87.999927999999997
0
LINE
8
BLACK
6
CONTINUOUS
10
-133.9999990000000025
20
-85.999927999999997
11
-117.9999989999999883
21
-85.999927999999997
0
LINE
8
BLACK
6
CONTINUOUS
10
-79.9999990000000025
20
-63.999927999999997
11
-79.9999990000000025
21
-79.999927999999997
0
ARC
8
BLACK
10
-105.9999989999999883
20
-39.999927999999997
40
2.
50
0.00000000
51
180.00000000
0
ARC
8
BLACK
10
-113.9999989999999883
20
-63.999927999999997
40
2.
50
0.00000000
51
180.00000000
0
ARC
8
BLACK
10
-153.9999990000000025
20
-39.999927999999997
40
2.
50
0.00000000
51
180.00000000
0
LINE
8
BLACK
6
CONTINUOUS
10
-173.9999990000000025
20
-37.999927999999997
11
-157.9999990000000025
21
-37.999927999999997
0
LINE
8
BLACK
6
CONTINUOUS
10
-230.9535089999999968
20
-109.999927999999997
11
-61.0000049999999945
21
-109.9999150000000014
0
ARC
8
BLACK
10
-61.0000099999999961
20
-94.9999199999999888
40
15.0000070000011991
50
-89.99998090
51
-0.00002292
0
ARC
8
BLACK
10
-157.9999949999999842
20
-35.999927999999997
40
2.0000000000039999
50
-90.00011459
51
90.00011459
0
ARC
8
BLACK
10
-86.
20
-83.999929999999992
40
2.0000020000002499
50
-89.99997135
51
89.99997135
0
ARC
8
BLACK
10
-101.9999899999999968
20
-83.999929999999992
40
1.99999800002025
50
-269.99974217
51
-90.00025783
0
ARC
8
BLACK
10
-105.9999989999999883
20
-79.999927999999997
40
2.
50
-180.00000000
51
-0.00000000
0
LINE
8
BLACK
6
CONTINUOUS
10
-133.9999990000000025
20
-57.999927999999997
11
-117.9999989999999883
21
-57.999927999999997
0
ARC
8
BLACK
10
-101.9999899999999968
20
-35.9999299999999991
40
1.99999800002025
50
-269.99974217
51
-90.00025783
0
ARC
8
BLACK
10
-157.9999949999999842
20
-59.999927999999997
40
2.0000000000039999
50
-90.00011459
51
90.00011459
0
LINE
8
BLACK
6
CONTINUOUS
10
-211.9999990000000025
20
-39.999927999999997
11
-211.9999990000000025
21
-55.999927999999997
0
LINE
8
BLACK
6
CONTINUOUS
10
-83.9999990000000025
20
-39.999927999999997
11
-83.9999990000000025
21
-55.999927999999997
0
ARC
8
BLACK
10
-174.0000249999999937
20
-83.999927999999997
40
2.0000000001689999
50
-270.00074485
51
-89.99925515
0
LINE
8
BLACK
6
CONTINUOUS
10
-245.9999990000000025
20
-24.9999109999999973
11
-246.0000029999999924
21
-94.9999239999999929
0
LINE
8
BLACK
6
CONTINUOUS
10
-216.9999990000000025
20
-101.999927999999997
11
-213.9999990000000025
21
-101.999927999999997
0
LINE
8
BLACK
6
CONTINUOUS
10
-213.9999990000000025
20
-101.999927999999997
11
-213.9999990000000025
21
-105.999927999999997
0
LINE
8
BLACK
6
CONTINUOUS
10
-213.9999990000000025
20
-105.999927999999997
11
-216.9999990000000025
21
-105.999927999999997
0
LINE
8
BLACK
6
CONTINUOUS
10
-216.9999990000000025
20
-105.999927999999997
11
-216.9999990000000025
21
-101.999927999999997
0
LINE
8
BLACK
6
CONTINUOUS
10
-101.9999989999999883
20
-61.999927999999997
11
-85.9999990000000025
21
-61.999927999999997
0
ARC
8
BLACK
10
-177.9999990000000025
20
-63.999927999999997
40
2.
50
0.00000000
51
180.00000000
0
ARC
8
BLACK
10
-137.9999990000000025
20
-63.999927999999997
40
2.
50
0.00000000
51
180.00000000
0
LINE
8
BLACK
6
CONTINUOUS
10
-205.9999990000000025
20
-57.999927999999997
11
-189.9999990000000025
21
-57.999927999999997
0
LINE
8
BLACK
6
CONTINUOUS
10
-77.9999990000000025
20
-101.999927999999997
11
-74.9999990000000025
21
-101.999927999999997
0
LINE
8
BLACK
6
CONTINUOUS
10
-74.9999990000000025
20
-101.999927999999997
11
-74.9999990000000025
21
-105.999927999999997
0
LINE
8
BLACK
6
CONTINUOUS
10
-74.9999990000000025
20
-105.999927999999997
11
-77.9999990000000025
21
-105.999927999999997
0
LINE
8
BLACK
6
CONTINUOUS
10
-77.9999990000000025
20
-105.999927999999997
11
-77.9999990000000025
21
-101.999927999999997
0
LINE
8
BLACK
6
CONTINUOUS
10
-101.9999989999999883
20
-81.999927999999997
11
-85.9999990000000025
21
-81.999927999999997
0
LINE
8
BLACK
6
CONTINUOUS
10
-111.9999989999999883
20
-39.999927999999997
11
-111.9999989999999883
21
-55.999927999999997
0
CIRCLE
8
BLACK
10
-110.
20
-36.
40
2.
0
ARC
8
BLACK
10
-86.
20
-59.9999299999999991
40
2.0000020000002499
50
-89.99997135
51
89.99997135
0
ARC
8
BLACK
10
-157.9999949999999842
20
-83.999927999999997
40
2.0000000000039999
50
-90.00011459
51
90.00011459
0
ARC
8
BLACK
10
-231.000001999999995
20
-24.9999269999999996
40
15.000001000000033
50
89.99999618
51
179.99999618
0
ARC
8
BLACK
10
-61.
20
-24.9999000000000002
40
14.9999740000002983
50
-0.00010695
51
90.00001146
0
ARC
8
BLACK
10
-209.9999990000000025
20
-79.999927999999997
40
2.
50
-180.00000000
51
-0.00000000
0
LINE
8
BLACK
6
CONTINUOUS
10
-179.9999990000000025
20
-39.999927999999997
11
-179.9999990000000025
21
-55.999927999999997
0
ARC
8
BLACK
10
-174.0000249999999937
20
-59.999927999999997
40
2.0000000001689999
50
-270.00074485
51
-89.99925515
0
LINE
8
BLACK
6
CONTINUOUS
10
-139.9999990000000025
20
-39.999927999999997
11
-139.9999990000000025
21
-55.999927999999997
0
LINE
8
BLACK
6
CONTINUOUS
10
-211.9999990000000025
20
-63.999927999999997
11
-211.9999990000000025
21
-79.999927999999997
0
LINE
8
BLACK
6
CONTINUOUS
10
-105.9999929999999893
20
-87.9999260000000021
11
-101.9999929999999893
21
-87.9999260000000021
0
LINE
8
BLACK
6
CONTINUOUS
10
-101.9999929999999893
20
-87.9999260000000021
11
-101.9999929999999893
21
-90.9999260000000021
0
LINE
8
BLACK
6
CONTINUOUS
10
-101.9999929999999893
20
-90.9999260000000021
11
-105.9999929999999893
21
-90.9999260000000021
0
LINE
8
BLACK
6
CONTINUOUS
10
-105.9999929999999893
20
-90.9999260000000021
11
-105.9999929999999893
21
-87.9999260000000021
  0
ENDSEC
  0
EOF
