%TF.GenerationSoftware,KiCad,Pcbnew,9.0.6-9.0.6~ubuntu24.04.1*%
%TF.CreationDate,2025-12-13T15:08:55+01:00*%
%TF.ProjectId,7_seg_led_tht_3mm,375f7365-675f-46c6-9564-5f7468745f33,1.0*%
%TF.SameCoordinates,Original*%
%TF.FileFunction,Legend,Top*%
%TF.FilePolarity,Positive*%
%FSLAX46Y46*%
G04 Gerber Fmt 4.6, Leading zero omitted, Abs format (unit mm)*
G04 Created by KiCad (PCBNEW 9.0.6-9.0.6~ubuntu24.04.1) date 2025-12-13 15:08:55*
%MOMM*%
%LPD*%
G01*
G04 APERTURE LIST*
%ADD10C,0.150000*%
%ADD11C,0.120000*%
%ADD12R,1.700000X1.700000*%
%ADD13C,1.700000*%
%ADD14C,1.000000*%
%ADD15R,1.800000X1.800000*%
%ADD16C,1.800000*%
%ADD17R,1.350000X1.350000*%
%ADD18C,1.350000*%
%ADD19C,0.660000*%
%ADD20O,1.000000X0.580000*%
%ADD21C,1.100000*%
%ADD22C,3.200000*%
G04 APERTURE END LIST*
D10*
X232566670Y-115814751D02*
X232566670Y-116529036D01*
X232566670Y-116529036D02*
X232519051Y-116671893D01*
X232519051Y-116671893D02*
X232423813Y-116767132D01*
X232423813Y-116767132D02*
X232280956Y-116814751D01*
X232280956Y-116814751D02*
X232185718Y-116814751D01*
X233519051Y-115814751D02*
X233042861Y-115814751D01*
X233042861Y-115814751D02*
X232995242Y-116290941D01*
X232995242Y-116290941D02*
X233042861Y-116243322D01*
X233042861Y-116243322D02*
X233138099Y-116195703D01*
X233138099Y-116195703D02*
X233376194Y-116195703D01*
X233376194Y-116195703D02*
X233471432Y-116243322D01*
X233471432Y-116243322D02*
X233519051Y-116290941D01*
X233519051Y-116290941D02*
X233566670Y-116386179D01*
X233566670Y-116386179D02*
X233566670Y-116624274D01*
X233566670Y-116624274D02*
X233519051Y-116719512D01*
X233519051Y-116719512D02*
X233471432Y-116767132D01*
X233471432Y-116767132D02*
X233376194Y-116814751D01*
X233376194Y-116814751D02*
X233138099Y-116814751D01*
X233138099Y-116814751D02*
X233042861Y-116767132D01*
X233042861Y-116767132D02*
X232995242Y-116719512D01*
D11*
%TO.C,J5*%
X234280004Y-115359932D02*
X232900004Y-115359932D01*
X234280004Y-113979932D02*
X234280004Y-115359932D01*
X234280004Y-112709932D02*
X234280004Y-102439932D01*
X234280004Y-112709932D02*
X231520004Y-112709932D01*
X234280004Y-102439932D02*
X231520004Y-102439932D01*
X231520004Y-112709932D02*
X231520004Y-102439932D01*
%TO.C,D5*%
X207440000Y-75764000D02*
X207440000Y-75920000D01*
X207440000Y-78080000D02*
X207440000Y-78236000D01*
X207440000Y-75764484D02*
G75*
G02*
X210671437Y-75920000I1560000J-1235516D01*
G01*
X207959039Y-75920000D02*
G75*
G02*
X210040961Y-75920000I1040961J-1080000D01*
G01*
X210040961Y-78080000D02*
G75*
G02*
X207959039Y-78080000I-1040961J1080000D01*
G01*
X210671437Y-78080000D02*
G75*
G02*
X207440000Y-78235516I-1671437J1080000D01*
G01*
%TO.C,D47*%
X119764000Y-94560000D02*
X119920000Y-94560000D01*
X122080000Y-94560000D02*
X122236000Y-94560000D01*
X119764484Y-94560000D02*
G75*
G02*
X119920000Y-91328563I1235516J1560000D01*
G01*
X119920000Y-94040961D02*
G75*
G02*
X119920000Y-91959039I1080000J1040961D01*
G01*
X122080000Y-91328563D02*
G75*
G02*
X122235516Y-94560000I-1080000J-1671437D01*
G01*
X122080000Y-91959039D02*
G75*
G02*
X122080000Y-94040961I-1080000J-1040961D01*
G01*
%TO.C,D44*%
X114560000Y-99920000D02*
X114560000Y-99764000D01*
X114560000Y-102236000D02*
X114560000Y-102080000D01*
X111328563Y-99920000D02*
G75*
G02*
X114560000Y-99764484I1671437J-1080000D01*
G01*
X111959039Y-99920000D02*
G75*
G02*
X114040961Y-99920000I1040961J-1080000D01*
G01*
X114040961Y-102080000D02*
G75*
G02*
X111959039Y-102080000I-1040961J1080000D01*
G01*
X114560000Y-102235516D02*
G75*
G02*
X111328563Y-102080000I-1560000J1235516D01*
G01*
%TO.C,D28*%
X154560000Y-107920000D02*
X154560000Y-107764000D01*
X154560000Y-110236000D02*
X154560000Y-110080000D01*
X151328563Y-107920000D02*
G75*
G02*
X154560000Y-107764484I1671437J-1080000D01*
G01*
X151959039Y-107920000D02*
G75*
G02*
X154040961Y-107920000I1040961J-1080000D01*
G01*
X154040961Y-110080000D02*
G75*
G02*
X151959039Y-110080000I-1040961J1080000D01*
G01*
X154560000Y-110235516D02*
G75*
G02*
X151328563Y-110080000I-1560000J1235516D01*
G01*
%TO.C,D23*%
X175440000Y-107764000D02*
X175440000Y-107920000D01*
X175440000Y-110080000D02*
X175440000Y-110236000D01*
X175440000Y-107764484D02*
G75*
G02*
X178671437Y-107920000I1560000J-1235516D01*
G01*
X175959039Y-107920000D02*
G75*
G02*
X178040961Y-107920000I1040961J-1080000D01*
G01*
X178040961Y-110080000D02*
G75*
G02*
X175959039Y-110080000I-1040961J1080000D01*
G01*
X178671437Y-110080000D02*
G75*
G02*
X175440000Y-110235516I-1671437J1080000D01*
G01*
%TO.C,D30*%
X154560000Y-83920000D02*
X154560000Y-83764000D01*
X154560000Y-86236000D02*
X154560000Y-86080000D01*
X151328563Y-83920000D02*
G75*
G02*
X154560000Y-83764484I1671437J-1080000D01*
G01*
X151959039Y-83920000D02*
G75*
G02*
X154040961Y-83920000I1040961J-1080000D01*
G01*
X154040961Y-86080000D02*
G75*
G02*
X151959039Y-86080000I-1040961J1080000D01*
G01*
X154560000Y-86235516D02*
G75*
G02*
X151328563Y-86080000I-1560000J1235516D01*
G01*
%TO.C,D17*%
X182560000Y-67920000D02*
X182560000Y-67764000D01*
X182560000Y-70236000D02*
X182560000Y-70080000D01*
X179328563Y-67920000D02*
G75*
G02*
X182560000Y-67764484I1671437J-1080000D01*
G01*
X179959039Y-67920000D02*
G75*
G02*
X182040961Y-67920000I1040961J-1080000D01*
G01*
X182040961Y-70080000D02*
G75*
G02*
X179959039Y-70080000I-1040961J1080000D01*
G01*
X182560000Y-70235516D02*
G75*
G02*
X179328563Y-70080000I-1560000J1235516D01*
G01*
%TO.C,D42*%
X127920000Y-115440000D02*
X127764000Y-115440000D01*
X130236000Y-115440000D02*
X130080000Y-115440000D01*
X127920000Y-118040961D02*
G75*
G02*
X127920000Y-115959039I1080000J1040961D01*
G01*
X127920000Y-118671437D02*
G75*
G02*
X127764484Y-115440000I1080000J1671437D01*
G01*
X130080000Y-115959039D02*
G75*
G02*
X130080000Y-118040961I-1080000J-1040961D01*
G01*
X130235516Y-115440000D02*
G75*
G02*
X130080000Y-118671437I-1235516J-1560000D01*
G01*
%TO.C,D68*%
X132390000Y-122390000D02*
X132390000Y-124610000D01*
X134500000Y-122390000D02*
X132390000Y-122390000D01*
X134500000Y-122390000D02*
X134500000Y-124610000D01*
X134500000Y-124610000D02*
X132390000Y-124610000D01*
X135500000Y-122390000D02*
X136610000Y-122390000D01*
X136610000Y-122390000D02*
X136610000Y-123500000D01*
%TO.C,D20*%
X159764000Y-70560000D02*
X159920000Y-70560000D01*
X162080000Y-70560000D02*
X162236000Y-70560000D01*
X159764484Y-70560000D02*
G75*
G02*
X159920000Y-67328563I1235516J1560000D01*
G01*
X159920000Y-70040961D02*
G75*
G02*
X159920000Y-67959039I1080000J1040961D01*
G01*
X162080000Y-67328563D02*
G75*
G02*
X162235516Y-70560000I-1080000J-1671437D01*
G01*
X162080000Y-67959039D02*
G75*
G02*
X162080000Y-70040961I-1080000J-1040961D01*
G01*
%TO.C,D49*%
X143440000Y-107764000D02*
X143440000Y-107920000D01*
X143440000Y-110080000D02*
X143440000Y-110236000D01*
X143440000Y-107764484D02*
G75*
G02*
X146671437Y-107920000I1560000J-1235516D01*
G01*
X143959039Y-107920000D02*
G75*
G02*
X146040961Y-107920000I1040961J-1080000D01*
G01*
X146040961Y-110080000D02*
G75*
G02*
X143959039Y-110080000I-1040961J1080000D01*
G01*
X146671437Y-110080000D02*
G75*
G02*
X143440000Y-110235516I-1671437J1080000D01*
G01*
%TO.C,D67*%
X125390000Y-122390000D02*
X125390000Y-124610000D01*
X127500000Y-122390000D02*
X125390000Y-122390000D01*
X127500000Y-122390000D02*
X127500000Y-124610000D01*
X127500000Y-124610000D02*
X125390000Y-124610000D01*
X128500000Y-122390000D02*
X129610000Y-122390000D01*
X129610000Y-122390000D02*
X129610000Y-123500000D01*
%TO.C,D54*%
X103440000Y-83764000D02*
X103440000Y-83920000D01*
X103440000Y-86080000D02*
X103440000Y-86236000D01*
X103440000Y-83764484D02*
G75*
G02*
X106671437Y-83920000I1560000J-1235516D01*
G01*
X103959039Y-83920000D02*
G75*
G02*
X106040961Y-83920000I1040961J-1080000D01*
G01*
X106040961Y-86080000D02*
G75*
G02*
X103959039Y-86080000I-1040961J1080000D01*
G01*
X106671437Y-86080000D02*
G75*
G02*
X103440000Y-86235516I-1671437J1080000D01*
G01*
%TO.C,D11*%
X186560000Y-99920000D02*
X186560000Y-99764000D01*
X186560000Y-102236000D02*
X186560000Y-102080000D01*
X183328563Y-99920000D02*
G75*
G02*
X186560000Y-99764484I1671437J-1080000D01*
G01*
X183959039Y-99920000D02*
G75*
G02*
X186040961Y-99920000I1040961J-1080000D01*
G01*
X186040961Y-102080000D02*
G75*
G02*
X183959039Y-102080000I-1040961J1080000D01*
G01*
X186560000Y-102235516D02*
G75*
G02*
X183328563Y-102080000I-1560000J1235516D01*
G01*
%TO.C,D16*%
X199764000Y-94560000D02*
X199920000Y-94560000D01*
X202080000Y-94560000D02*
X202236000Y-94560000D01*
X199764484Y-94560000D02*
G75*
G02*
X199920000Y-91328563I1235516J1560000D01*
G01*
X199920000Y-94040961D02*
G75*
G02*
X199920000Y-91959039I1080000J1040961D01*
G01*
X202080000Y-91328563D02*
G75*
G02*
X202235516Y-94560000I-1080000J-1671437D01*
G01*
X202080000Y-91959039D02*
G75*
G02*
X202080000Y-94040961I-1080000J-1040961D01*
G01*
%TO.C,D63*%
X87764000Y-94560000D02*
X87920000Y-94560000D01*
X90080000Y-94560000D02*
X90236000Y-94560000D01*
X87764484Y-94560000D02*
G75*
G02*
X87920000Y-91328563I1235516J1560000D01*
G01*
X87920000Y-94040961D02*
G75*
G02*
X87920000Y-91959039I1080000J1040961D01*
G01*
X90080000Y-91328563D02*
G75*
G02*
X90235516Y-94560000I-1080000J-1671437D01*
G01*
X90080000Y-91959039D02*
G75*
G02*
X90080000Y-94040961I-1080000J-1040961D01*
G01*
%TO.C,D27*%
X154560000Y-99920000D02*
X154560000Y-99764000D01*
X154560000Y-102236000D02*
X154560000Y-102080000D01*
X151328563Y-99920000D02*
G75*
G02*
X154560000Y-99764484I1671437J-1080000D01*
G01*
X151959039Y-99920000D02*
G75*
G02*
X154040961Y-99920000I1040961J-1080000D01*
G01*
X154040961Y-102080000D02*
G75*
G02*
X151959039Y-102080000I-1040961J1080000D01*
G01*
X154560000Y-102235516D02*
G75*
G02*
X151328563Y-102080000I-1560000J1235516D01*
G01*
%TO.C,D46*%
X114560000Y-75920000D02*
X114560000Y-75764000D01*
X114560000Y-78236000D02*
X114560000Y-78080000D01*
X111328563Y-75920000D02*
G75*
G02*
X114560000Y-75764484I1671437J-1080000D01*
G01*
X111959039Y-75920000D02*
G75*
G02*
X114040961Y-75920000I1040961J-1080000D01*
G01*
X114040961Y-78080000D02*
G75*
G02*
X111959039Y-78080000I-1040961J1080000D01*
G01*
X114560000Y-78235516D02*
G75*
G02*
X111328563Y-78080000I-1560000J1235516D01*
G01*
%TO.C,D12*%
X186560000Y-107920000D02*
X186560000Y-107764000D01*
X186560000Y-110236000D02*
X186560000Y-110080000D01*
X183328563Y-107920000D02*
G75*
G02*
X186560000Y-107764484I1671437J-1080000D01*
G01*
X183959039Y-107920000D02*
G75*
G02*
X186040961Y-107920000I1040961J-1080000D01*
G01*
X186040961Y-110080000D02*
G75*
G02*
X183959039Y-110080000I-1040961J1080000D01*
G01*
X186560000Y-110235516D02*
G75*
G02*
X183328563Y-110080000I-1560000J1235516D01*
G01*
%TO.C,D33*%
X146560000Y-97920000D02*
X146560000Y-97764000D01*
X146560000Y-100236000D02*
X146560000Y-100080000D01*
X143328563Y-97920000D02*
G75*
G02*
X146560000Y-97764484I1671437J-1080000D01*
G01*
X143959039Y-97920000D02*
G75*
G02*
X146040961Y-97920000I1040961J-1080000D01*
G01*
X146040961Y-100080000D02*
G75*
G02*
X143959039Y-100080000I-1040961J1080000D01*
G01*
X146560000Y-100235516D02*
G75*
G02*
X143328563Y-100080000I-1560000J1235516D01*
G01*
%TO.C,D8*%
X207440000Y-107764000D02*
X207440000Y-107920000D01*
X207440000Y-110080000D02*
X207440000Y-110236000D01*
X207440000Y-107764484D02*
G75*
G02*
X210671437Y-107920000I1560000J-1235516D01*
G01*
X207959039Y-107920000D02*
G75*
G02*
X210040961Y-107920000I1040961J-1080000D01*
G01*
X210040961Y-110080000D02*
G75*
G02*
X207959039Y-110080000I-1040961J1080000D01*
G01*
X210671437Y-110080000D02*
G75*
G02*
X207440000Y-110235516I-1671437J1080000D01*
G01*
%TO.C,D39*%
X135440000Y-107764000D02*
X135440000Y-107920000D01*
X135440000Y-110080000D02*
X135440000Y-110236000D01*
X135440000Y-107764484D02*
G75*
G02*
X138671437Y-107920000I1560000J-1235516D01*
G01*
X135959039Y-107920000D02*
G75*
G02*
X138040961Y-107920000I1040961J-1080000D01*
G01*
X138040961Y-110080000D02*
G75*
G02*
X135959039Y-110080000I-1040961J1080000D01*
G01*
X138671437Y-110080000D02*
G75*
G02*
X135440000Y-110235516I-1671437J1080000D01*
G01*
%TO.C,D45*%
X114560000Y-83920000D02*
X114560000Y-83764000D01*
X114560000Y-86236000D02*
X114560000Y-86080000D01*
X111328563Y-83920000D02*
G75*
G02*
X114560000Y-83764484I1671437J-1080000D01*
G01*
X111959039Y-83920000D02*
G75*
G02*
X114040961Y-83920000I1040961J-1080000D01*
G01*
X114040961Y-86080000D02*
G75*
G02*
X111959039Y-86080000I-1040961J1080000D01*
G01*
X114560000Y-86235516D02*
G75*
G02*
X111328563Y-86080000I-1560000J1235516D01*
G01*
%TO.C,D55*%
X103440000Y-107764000D02*
X103440000Y-107920000D01*
X103440000Y-110080000D02*
X103440000Y-110236000D01*
X103440000Y-107764484D02*
G75*
G02*
X106671437Y-107920000I1560000J-1235516D01*
G01*
X103959039Y-107920000D02*
G75*
G02*
X106040961Y-107920000I1040961J-1080000D01*
G01*
X106040961Y-110080000D02*
G75*
G02*
X103959039Y-110080000I-1040961J1080000D01*
G01*
X106671437Y-110080000D02*
G75*
G02*
X103440000Y-110235516I-1671437J1080000D01*
G01*
%TO.C,D25*%
X167920000Y-115440000D02*
X167764000Y-115440000D01*
X170236000Y-115440000D02*
X170080000Y-115440000D01*
X167920000Y-118040961D02*
G75*
G02*
X167920000Y-115959039I1080000J1040961D01*
G01*
X167920000Y-118671437D02*
G75*
G02*
X167764484Y-115440000I1080000J1671437D01*
G01*
X170080000Y-115959039D02*
G75*
G02*
X170080000Y-118040961I-1080000J-1040961D01*
G01*
X170235516Y-115440000D02*
G75*
G02*
X170080000Y-118671437I-1235516J-1560000D01*
G01*
%TO.C,D52*%
X87764000Y-70560000D02*
X87920000Y-70560000D01*
X90080000Y-70560000D02*
X90236000Y-70560000D01*
X87764484Y-70560000D02*
G75*
G02*
X87920000Y-67328563I1235516J1560000D01*
G01*
X87920000Y-70040961D02*
G75*
G02*
X87920000Y-67959039I1080000J1040961D01*
G01*
X90080000Y-67328563D02*
G75*
G02*
X90235516Y-70560000I-1080000J-1671437D01*
G01*
X90080000Y-67959039D02*
G75*
G02*
X90080000Y-70040961I-1080000J-1040961D01*
G01*
%TO.C,D59*%
X82560000Y-99920000D02*
X82560000Y-99764000D01*
X82560000Y-102236000D02*
X82560000Y-102080000D01*
X79328563Y-99920000D02*
G75*
G02*
X82560000Y-99764484I1671437J-1080000D01*
G01*
X79959039Y-99920000D02*
G75*
G02*
X82040961Y-99920000I1040961J-1080000D01*
G01*
X82040961Y-102080000D02*
G75*
G02*
X79959039Y-102080000I-1040961J1080000D01*
G01*
X82560000Y-102235516D02*
G75*
G02*
X79328563Y-102080000I-1560000J1235516D01*
G01*
%TO.C,D72*%
X167390000Y-122390000D02*
X167390000Y-124610000D01*
X169500000Y-122390000D02*
X167390000Y-122390000D01*
X169500000Y-122390000D02*
X169500000Y-124610000D01*
X169500000Y-124610000D02*
X167390000Y-124610000D01*
X170500000Y-122390000D02*
X171610000Y-122390000D01*
X171610000Y-122390000D02*
X171610000Y-123500000D01*
%TO.C,D34*%
X146560000Y-85920000D02*
X146560000Y-85764000D01*
X146560000Y-88236000D02*
X146560000Y-88080000D01*
X143328563Y-85920000D02*
G75*
G02*
X146560000Y-85764484I1671437J-1080000D01*
G01*
X143959039Y-85920000D02*
G75*
G02*
X146040961Y-85920000I1040961J-1080000D01*
G01*
X146040961Y-88080000D02*
G75*
G02*
X143959039Y-88080000I-1040961J1080000D01*
G01*
X146560000Y-88235516D02*
G75*
G02*
X143328563Y-88080000I-1560000J1235516D01*
G01*
%TO.C,D22*%
X175440000Y-83764000D02*
X175440000Y-83920000D01*
X175440000Y-86080000D02*
X175440000Y-86236000D01*
X175440000Y-83764484D02*
G75*
G02*
X178671437Y-83920000I1560000J-1235516D01*
G01*
X175959039Y-83920000D02*
G75*
G02*
X178040961Y-83920000I1040961J-1080000D01*
G01*
X178040961Y-86080000D02*
G75*
G02*
X175959039Y-86080000I-1040961J1080000D01*
G01*
X178671437Y-86080000D02*
G75*
G02*
X175440000Y-86235516I-1671437J1080000D01*
G01*
%TO.C,D38*%
X135440000Y-75764000D02*
X135440000Y-75920000D01*
X135440000Y-78080000D02*
X135440000Y-78236000D01*
X135440000Y-75764484D02*
G75*
G02*
X138671437Y-75920000I1560000J-1235516D01*
G01*
X135959039Y-75920000D02*
G75*
G02*
X138040961Y-75920000I1040961J-1080000D01*
G01*
X138040961Y-78080000D02*
G75*
G02*
X135959039Y-78080000I-1040961J1080000D01*
G01*
X138671437Y-78080000D02*
G75*
G02*
X135440000Y-78235516I-1671437J1080000D01*
G01*
%TO.C,D15*%
X191764000Y-94560000D02*
X191920000Y-94560000D01*
X194080000Y-94560000D02*
X194236000Y-94560000D01*
X191764484Y-94560000D02*
G75*
G02*
X191920000Y-91328563I1235516J1560000D01*
G01*
X191920000Y-94040961D02*
G75*
G02*
X191920000Y-91959039I1080000J1040961D01*
G01*
X194080000Y-91328563D02*
G75*
G02*
X194235516Y-94560000I-1080000J-1671437D01*
G01*
X194080000Y-91959039D02*
G75*
G02*
X194080000Y-94040961I-1080000J-1040961D01*
G01*
%TO.C,D43*%
X114560000Y-107920000D02*
X114560000Y-107764000D01*
X114560000Y-110236000D02*
X114560000Y-110080000D01*
X111328563Y-107920000D02*
G75*
G02*
X114560000Y-107764484I1671437J-1080000D01*
G01*
X111959039Y-107920000D02*
G75*
G02*
X114040961Y-107920000I1040961J-1080000D01*
G01*
X114040961Y-110080000D02*
G75*
G02*
X111959039Y-110080000I-1040961J1080000D01*
G01*
X114560000Y-110235516D02*
G75*
G02*
X111328563Y-110080000I-1560000J1235516D01*
G01*
%TO.C,D4*%
X199764000Y-70560000D02*
X199920000Y-70560000D01*
X202080000Y-70560000D02*
X202236000Y-70560000D01*
X199764484Y-70560000D02*
G75*
G02*
X199920000Y-67328563I1235516J1560000D01*
G01*
X199920000Y-70040961D02*
G75*
G02*
X199920000Y-67959039I1080000J1040961D01*
G01*
X202080000Y-67328563D02*
G75*
G02*
X202235516Y-70560000I-1080000J-1671437D01*
G01*
X202080000Y-67959039D02*
G75*
G02*
X202080000Y-70040961I-1080000J-1040961D01*
G01*
%TO.C,D36*%
X127764000Y-70560000D02*
X127920000Y-70560000D01*
X130080000Y-70560000D02*
X130236000Y-70560000D01*
X127764484Y-70560000D02*
G75*
G02*
X127920000Y-67328563I1235516J1560000D01*
G01*
X127920000Y-70040961D02*
G75*
G02*
X127920000Y-67959039I1080000J1040961D01*
G01*
X130080000Y-67328563D02*
G75*
G02*
X130235516Y-70560000I-1080000J-1671437D01*
G01*
X130080000Y-67959039D02*
G75*
G02*
X130080000Y-70040961I-1080000J-1040961D01*
G01*
%TO.C,D21*%
X175440000Y-75764000D02*
X175440000Y-75920000D01*
X175440000Y-78080000D02*
X175440000Y-78236000D01*
X175440000Y-75764484D02*
G75*
G02*
X178671437Y-75920000I1560000J-1235516D01*
G01*
X175959039Y-75920000D02*
G75*
G02*
X178040961Y-75920000I1040961J-1080000D01*
G01*
X178040961Y-78080000D02*
G75*
G02*
X175959039Y-78080000I-1040961J1080000D01*
G01*
X178671437Y-78080000D02*
G75*
G02*
X175440000Y-78235516I-1671437J1080000D01*
G01*
%TO.C,D53*%
X103440000Y-75764000D02*
X103440000Y-75920000D01*
X103440000Y-78080000D02*
X103440000Y-78236000D01*
X103440000Y-75764484D02*
G75*
G02*
X106671437Y-75920000I1560000J-1235516D01*
G01*
X103959039Y-75920000D02*
G75*
G02*
X106040961Y-75920000I1040961J-1080000D01*
G01*
X106040961Y-78080000D02*
G75*
G02*
X103959039Y-78080000I-1040961J1080000D01*
G01*
X106671437Y-78080000D02*
G75*
G02*
X103440000Y-78235516I-1671437J1080000D01*
G01*
%TO.C,D31*%
X159764000Y-94560000D02*
X159920000Y-94560000D01*
X162080000Y-94560000D02*
X162236000Y-94560000D01*
X159764484Y-94560000D02*
G75*
G02*
X159920000Y-91328563I1235516J1560000D01*
G01*
X159920000Y-94040961D02*
G75*
G02*
X159920000Y-91959039I1080000J1040961D01*
G01*
X162080000Y-91328563D02*
G75*
G02*
X162235516Y-94560000I-1080000J-1671437D01*
G01*
X162080000Y-91959039D02*
G75*
G02*
X162080000Y-94040961I-1080000J-1040961D01*
G01*
%TO.C,D40*%
X135440000Y-99764000D02*
X135440000Y-99920000D01*
X135440000Y-102080000D02*
X135440000Y-102236000D01*
X135440000Y-99764484D02*
G75*
G02*
X138671437Y-99920000I1560000J-1235516D01*
G01*
X135959039Y-99920000D02*
G75*
G02*
X138040961Y-99920000I1040961J-1080000D01*
G01*
X138040961Y-102080000D02*
G75*
G02*
X135959039Y-102080000I-1040961J1080000D01*
G01*
X138671437Y-102080000D02*
G75*
G02*
X135440000Y-102235516I-1671437J1080000D01*
G01*
%TO.C,D13*%
X186560000Y-75920000D02*
X186560000Y-75764000D01*
X186560000Y-78236000D02*
X186560000Y-78080000D01*
X183328563Y-75920000D02*
G75*
G02*
X186560000Y-75764484I1671437J-1080000D01*
G01*
X183959039Y-75920000D02*
G75*
G02*
X186040961Y-75920000I1040961J-1080000D01*
G01*
X186040961Y-78080000D02*
G75*
G02*
X183959039Y-78080000I-1040961J1080000D01*
G01*
X186560000Y-78235516D02*
G75*
G02*
X183328563Y-78080000I-1560000J1235516D01*
G01*
%TO.C,D71*%
X153390000Y-122390000D02*
X153390000Y-124610000D01*
X155500000Y-122390000D02*
X153390000Y-122390000D01*
X155500000Y-122390000D02*
X155500000Y-124610000D01*
X155500000Y-124610000D02*
X153390000Y-124610000D01*
X156500000Y-122390000D02*
X157610000Y-122390000D01*
X157610000Y-122390000D02*
X157610000Y-123500000D01*
%TO.C,D41*%
X119920000Y-115440000D02*
X119764000Y-115440000D01*
X122236000Y-115440000D02*
X122080000Y-115440000D01*
X119920000Y-118040961D02*
G75*
G02*
X119920000Y-115959039I1080000J1040961D01*
G01*
X119920000Y-118671437D02*
G75*
G02*
X119764484Y-115440000I1080000J1671437D01*
G01*
X122080000Y-115959039D02*
G75*
G02*
X122080000Y-118040961I-1080000J-1040961D01*
G01*
X122235516Y-115440000D02*
G75*
G02*
X122080000Y-118671437I-1235516J-1560000D01*
G01*
%TO.C,D6*%
X207440000Y-83764000D02*
X207440000Y-83920000D01*
X207440000Y-86080000D02*
X207440000Y-86236000D01*
X207440000Y-83764484D02*
G75*
G02*
X210671437Y-83920000I1560000J-1235516D01*
G01*
X207959039Y-83920000D02*
G75*
G02*
X210040961Y-83920000I1040961J-1080000D01*
G01*
X210040961Y-86080000D02*
G75*
G02*
X207959039Y-86080000I-1040961J1080000D01*
G01*
X210671437Y-86080000D02*
G75*
G02*
X207440000Y-86235516I-1671437J1080000D01*
G01*
%TO.C,D61*%
X82560000Y-75920000D02*
X82560000Y-75764000D01*
X82560000Y-78236000D02*
X82560000Y-78080000D01*
X79328563Y-75920000D02*
G75*
G02*
X82560000Y-75764484I1671437J-1080000D01*
G01*
X79959039Y-75920000D02*
G75*
G02*
X82040961Y-75920000I1040961J-1080000D01*
G01*
X82040961Y-78080000D02*
G75*
G02*
X79959039Y-78080000I-1040961J1080000D01*
G01*
X82560000Y-78235516D02*
G75*
G02*
X79328563Y-78080000I-1560000J1235516D01*
G01*
%TO.C,D2*%
X118390000Y-122390000D02*
X118390000Y-124610000D01*
X120500000Y-122390000D02*
X118390000Y-122390000D01*
X120500000Y-122390000D02*
X120500000Y-124610000D01*
X120500000Y-124610000D02*
X118390000Y-124610000D01*
X121500000Y-122390000D02*
X122610000Y-122390000D01*
X122610000Y-122390000D02*
X122610000Y-123500000D01*
%TO.C,D56*%
X103440000Y-99764000D02*
X103440000Y-99920000D01*
X103440000Y-102080000D02*
X103440000Y-102236000D01*
X103440000Y-99764484D02*
G75*
G02*
X106671437Y-99920000I1560000J-1235516D01*
G01*
X103959039Y-99920000D02*
G75*
G02*
X106040961Y-99920000I1040961J-1080000D01*
G01*
X106040961Y-102080000D02*
G75*
G02*
X103959039Y-102080000I-1040961J1080000D01*
G01*
X106671437Y-102080000D02*
G75*
G02*
X103440000Y-102235516I-1671437J1080000D01*
G01*
%TO.C,D35*%
X119764000Y-70560000D02*
X119920000Y-70560000D01*
X122080000Y-70560000D02*
X122236000Y-70560000D01*
X119764484Y-70560000D02*
G75*
G02*
X119920000Y-67328563I1235516J1560000D01*
G01*
X119920000Y-70040961D02*
G75*
G02*
X119920000Y-67959039I1080000J1040961D01*
G01*
X122080000Y-67328563D02*
G75*
G02*
X122235516Y-70560000I-1080000J-1671437D01*
G01*
X122080000Y-67959039D02*
G75*
G02*
X122080000Y-70040961I-1080000J-1040961D01*
G01*
%TO.C,D3*%
X191764000Y-70560000D02*
X191920000Y-70560000D01*
X194080000Y-70560000D02*
X194236000Y-70560000D01*
X191764484Y-70560000D02*
G75*
G02*
X191920000Y-67328563I1235516J1560000D01*
G01*
X191920000Y-70040961D02*
G75*
G02*
X191920000Y-67959039I1080000J1040961D01*
G01*
X194080000Y-67328563D02*
G75*
G02*
X194235516Y-70560000I-1080000J-1671437D01*
G01*
X194080000Y-67959039D02*
G75*
G02*
X194080000Y-70040961I-1080000J-1040961D01*
G01*
%TO.C,D37*%
X135440000Y-83764000D02*
X135440000Y-83920000D01*
X135440000Y-86080000D02*
X135440000Y-86236000D01*
X135440000Y-83764484D02*
G75*
G02*
X138671437Y-83920000I1560000J-1235516D01*
G01*
X135959039Y-83920000D02*
G75*
G02*
X138040961Y-83920000I1040961J-1080000D01*
G01*
X138040961Y-86080000D02*
G75*
G02*
X135959039Y-86080000I-1040961J1080000D01*
G01*
X138671437Y-86080000D02*
G75*
G02*
X135440000Y-86235516I-1671437J1080000D01*
G01*
%TO.C,D48*%
X127764000Y-94560000D02*
X127920000Y-94560000D01*
X130080000Y-94560000D02*
X130236000Y-94560000D01*
X127764484Y-94560000D02*
G75*
G02*
X127920000Y-91328563I1235516J1560000D01*
G01*
X127920000Y-94040961D02*
G75*
G02*
X127920000Y-91959039I1080000J1040961D01*
G01*
X130080000Y-91328563D02*
G75*
G02*
X130235516Y-94560000I-1080000J-1671437D01*
G01*
X130080000Y-91959039D02*
G75*
G02*
X130080000Y-94040961I-1080000J-1040961D01*
G01*
%TO.C,D10*%
X199920000Y-115440000D02*
X199764000Y-115440000D01*
X202236000Y-115440000D02*
X202080000Y-115440000D01*
X199920000Y-118040961D02*
G75*
G02*
X199920000Y-115959039I1080000J1040961D01*
G01*
X199920000Y-118671437D02*
G75*
G02*
X199764484Y-115440000I1080000J1671437D01*
G01*
X202080000Y-115959039D02*
G75*
G02*
X202080000Y-118040961I-1080000J-1040961D01*
G01*
X202235516Y-115440000D02*
G75*
G02*
X202080000Y-118671437I-1235516J-1560000D01*
G01*
%TO.C,D69*%
X139390000Y-122390000D02*
X139390000Y-124610000D01*
X141500000Y-122390000D02*
X139390000Y-122390000D01*
X141500000Y-122390000D02*
X141500000Y-124610000D01*
X141500000Y-124610000D02*
X139390000Y-124610000D01*
X142500000Y-122390000D02*
X143610000Y-122390000D01*
X143610000Y-122390000D02*
X143610000Y-123500000D01*
%TO.C,D29*%
X154560000Y-75920000D02*
X154560000Y-75764000D01*
X154560000Y-78236000D02*
X154560000Y-78080000D01*
X151328563Y-75920000D02*
G75*
G02*
X154560000Y-75764484I1671437J-1080000D01*
G01*
X151959039Y-75920000D02*
G75*
G02*
X154040961Y-75920000I1040961J-1080000D01*
G01*
X154040961Y-78080000D02*
G75*
G02*
X151959039Y-78080000I-1040961J1080000D01*
G01*
X154560000Y-78235516D02*
G75*
G02*
X151328563Y-78080000I-1560000J1235516D01*
G01*
%TO.C,D58*%
X95920000Y-115440000D02*
X95764000Y-115440000D01*
X98236000Y-115440000D02*
X98080000Y-115440000D01*
X95920000Y-118040961D02*
G75*
G02*
X95920000Y-115959039I1080000J1040961D01*
G01*
X95920000Y-118671437D02*
G75*
G02*
X95764484Y-115440000I1080000J1671437D01*
G01*
X98080000Y-115959039D02*
G75*
G02*
X98080000Y-118040961I-1080000J-1040961D01*
G01*
X98235516Y-115440000D02*
G75*
G02*
X98080000Y-118671437I-1235516J-1560000D01*
G01*
%TO.C,D60*%
X82560000Y-107920000D02*
X82560000Y-107764000D01*
X82560000Y-110236000D02*
X82560000Y-110080000D01*
X79328563Y-107920000D02*
G75*
G02*
X82560000Y-107764484I1671437J-1080000D01*
G01*
X79959039Y-107920000D02*
G75*
G02*
X82040961Y-107920000I1040961J-1080000D01*
G01*
X82040961Y-110080000D02*
G75*
G02*
X79959039Y-110080000I-1040961J1080000D01*
G01*
X82560000Y-110235516D02*
G75*
G02*
X79328563Y-110080000I-1560000J1235516D01*
G01*
%TO.C,D19*%
X167764000Y-70560000D02*
X167920000Y-70560000D01*
X170080000Y-70560000D02*
X170236000Y-70560000D01*
X167764484Y-70560000D02*
G75*
G02*
X167920000Y-67328563I1235516J1560000D01*
G01*
X167920000Y-70040961D02*
G75*
G02*
X167920000Y-67959039I1080000J1040961D01*
G01*
X170080000Y-67328563D02*
G75*
G02*
X170235516Y-70560000I-1080000J-1671437D01*
G01*
X170080000Y-67959039D02*
G75*
G02*
X170080000Y-70040961I-1080000J-1040961D01*
G01*
%TO.C,D14*%
X186560000Y-83920000D02*
X186560000Y-83764000D01*
X186560000Y-86236000D02*
X186560000Y-86080000D01*
X183328563Y-83920000D02*
G75*
G02*
X186560000Y-83764484I1671437J-1080000D01*
G01*
X183959039Y-83920000D02*
G75*
G02*
X186040961Y-83920000I1040961J-1080000D01*
G01*
X186040961Y-86080000D02*
G75*
G02*
X183959039Y-86080000I-1040961J1080000D01*
G01*
X186560000Y-86235516D02*
G75*
G02*
X183328563Y-86080000I-1560000J1235516D01*
G01*
%TO.C,D7*%
X207440000Y-99764000D02*
X207440000Y-99920000D01*
X207440000Y-102080000D02*
X207440000Y-102236000D01*
X207440000Y-99764484D02*
G75*
G02*
X210671437Y-99920000I1560000J-1235516D01*
G01*
X207959039Y-99920000D02*
G75*
G02*
X210040961Y-99920000I1040961J-1080000D01*
G01*
X210040961Y-102080000D02*
G75*
G02*
X207959039Y-102080000I-1040961J1080000D01*
G01*
X210671437Y-102080000D02*
G75*
G02*
X207440000Y-102235516I-1671437J1080000D01*
G01*
%TO.C,D24*%
X175440000Y-99764000D02*
X175440000Y-99920000D01*
X175440000Y-102080000D02*
X175440000Y-102236000D01*
X175440000Y-99764484D02*
G75*
G02*
X178671437Y-99920000I1560000J-1235516D01*
G01*
X175959039Y-99920000D02*
G75*
G02*
X178040961Y-99920000I1040961J-1080000D01*
G01*
X178040961Y-102080000D02*
G75*
G02*
X175959039Y-102080000I-1040961J1080000D01*
G01*
X178671437Y-102080000D02*
G75*
G02*
X175440000Y-102235516I-1671437J1080000D01*
G01*
%TO.C,D51*%
X95764000Y-70560000D02*
X95920000Y-70560000D01*
X98080000Y-70560000D02*
X98236000Y-70560000D01*
X95764484Y-70560000D02*
G75*
G02*
X95920000Y-67328563I1235516J1560000D01*
G01*
X95920000Y-70040961D02*
G75*
G02*
X95920000Y-67959039I1080000J1040961D01*
G01*
X98080000Y-67328563D02*
G75*
G02*
X98235516Y-70560000I-1080000J-1671437D01*
G01*
X98080000Y-67959039D02*
G75*
G02*
X98080000Y-70040961I-1080000J-1040961D01*
G01*
%TO.C,D9*%
X191920000Y-115440000D02*
X191764000Y-115440000D01*
X194236000Y-115440000D02*
X194080000Y-115440000D01*
X191920000Y-118040961D02*
G75*
G02*
X191920000Y-115959039I1080000J1040961D01*
G01*
X191920000Y-118671437D02*
G75*
G02*
X191764484Y-115440000I1080000J1671437D01*
G01*
X194080000Y-115959039D02*
G75*
G02*
X194080000Y-118040961I-1080000J-1040961D01*
G01*
X194235516Y-115440000D02*
G75*
G02*
X194080000Y-118671437I-1235516J-1560000D01*
G01*
%TO.C,D57*%
X87920000Y-115440000D02*
X87764000Y-115440000D01*
X90236000Y-115440000D02*
X90080000Y-115440000D01*
X87920000Y-118040961D02*
G75*
G02*
X87920000Y-115959039I1080000J1040961D01*
G01*
X87920000Y-118671437D02*
G75*
G02*
X87764484Y-115440000I1080000J1671437D01*
G01*
X90080000Y-115959039D02*
G75*
G02*
X90080000Y-118040961I-1080000J-1040961D01*
G01*
X90235516Y-115440000D02*
G75*
G02*
X90080000Y-118671437I-1235516J-1560000D01*
G01*
%TO.C,D70*%
X146390000Y-122390000D02*
X146390000Y-124610000D01*
X148500000Y-122390000D02*
X146390000Y-122390000D01*
X148500000Y-122390000D02*
X148500000Y-124610000D01*
X148500000Y-124610000D02*
X146390000Y-124610000D01*
X149500000Y-122390000D02*
X150610000Y-122390000D01*
X150610000Y-122390000D02*
X150610000Y-123500000D01*
%TO.C,D50*%
X143440000Y-115764000D02*
X143440000Y-115920000D01*
X143440000Y-118080000D02*
X143440000Y-118236000D01*
X143440000Y-115764484D02*
G75*
G02*
X146671437Y-115920000I1560000J-1235516D01*
G01*
X143959039Y-115920000D02*
G75*
G02*
X146040961Y-115920000I1040961J-1080000D01*
G01*
X146040961Y-118080000D02*
G75*
G02*
X143959039Y-118080000I-1040961J1080000D01*
G01*
X146671437Y-118080000D02*
G75*
G02*
X143440000Y-118235516I-1671437J1080000D01*
G01*
%TO.C,D26*%
X159920000Y-115440000D02*
X159764000Y-115440000D01*
X162236000Y-115440000D02*
X162080000Y-115440000D01*
X159920000Y-118040961D02*
G75*
G02*
X159920000Y-115959039I1080000J1040961D01*
G01*
X159920000Y-118671437D02*
G75*
G02*
X159764484Y-115440000I1080000J1671437D01*
G01*
X162080000Y-115959039D02*
G75*
G02*
X162080000Y-118040961I-1080000J-1040961D01*
G01*
X162235516Y-115440000D02*
G75*
G02*
X162080000Y-118671437I-1235516J-1560000D01*
G01*
%TO.C,D73*%
X160390000Y-122390000D02*
X160390000Y-124610000D01*
X162500000Y-122390000D02*
X160390000Y-122390000D01*
X162500000Y-122390000D02*
X162500000Y-124610000D01*
X162500000Y-124610000D02*
X160390000Y-124610000D01*
X163500000Y-122390000D02*
X164610000Y-122390000D01*
X164610000Y-122390000D02*
X164610000Y-123500000D01*
%TO.C,D64*%
X95764000Y-94560000D02*
X95920000Y-94560000D01*
X98080000Y-94560000D02*
X98236000Y-94560000D01*
X95764484Y-94560000D02*
G75*
G02*
X95920000Y-91328563I1235516J1560000D01*
G01*
X95920000Y-94040961D02*
G75*
G02*
X95920000Y-91959039I1080000J1040961D01*
G01*
X98080000Y-91328563D02*
G75*
G02*
X98235516Y-94560000I-1080000J-1671437D01*
G01*
X98080000Y-91959039D02*
G75*
G02*
X98080000Y-94040961I-1080000J-1040961D01*
G01*
%TO.C,D32*%
X167764000Y-94560000D02*
X167920000Y-94560000D01*
X170080000Y-94560000D02*
X170236000Y-94560000D01*
X167764484Y-94560000D02*
G75*
G02*
X167920000Y-91328563I1235516J1560000D01*
G01*
X167920000Y-94040961D02*
G75*
G02*
X167920000Y-91959039I1080000J1040961D01*
G01*
X170080000Y-91328563D02*
G75*
G02*
X170235516Y-94560000I-1080000J-1671437D01*
G01*
X170080000Y-91959039D02*
G75*
G02*
X170080000Y-94040961I-1080000J-1040961D01*
G01*
%TO.C,D62*%
X82560000Y-83920000D02*
X82560000Y-83764000D01*
X82560000Y-86236000D02*
X82560000Y-86080000D01*
X79328563Y-83920000D02*
G75*
G02*
X82560000Y-83764484I1671437J-1080000D01*
G01*
X79959039Y-83920000D02*
G75*
G02*
X82040961Y-83920000I1040961J-1080000D01*
G01*
X82040961Y-86080000D02*
G75*
G02*
X79959039Y-86080000I-1040961J1080000D01*
G01*
X82560000Y-86235516D02*
G75*
G02*
X79328563Y-86080000I-1560000J1235516D01*
G01*
%TD*%
%LPC*%
D12*
%TO.C,J5*%
X232900004Y-113979932D03*
D13*
X232900004Y-111439932D03*
X232900004Y-108899932D03*
X232900004Y-106359932D03*
X232900004Y-103819932D03*
%TD*%
D14*
%TO.C,Y1*%
X225929590Y-103367291D03*
X225929590Y-105267291D03*
%TD*%
D15*
%TO.C,D5*%
X207730000Y-77000000D03*
D16*
X210270000Y-77000000D03*
%TD*%
D15*
%TO.C,D47*%
X121000000Y-94270000D03*
D16*
X121000000Y-91730000D03*
%TD*%
D15*
%TO.C,D44*%
X114270000Y-101000000D03*
D16*
X111730000Y-101000000D03*
%TD*%
D15*
%TO.C,D28*%
X154270000Y-109000000D03*
D16*
X151730000Y-109000000D03*
%TD*%
D15*
%TO.C,D23*%
X175730000Y-109000000D03*
D16*
X178270000Y-109000000D03*
%TD*%
D15*
%TO.C,D30*%
X154270000Y-85000000D03*
D16*
X151730000Y-85000000D03*
%TD*%
D15*
%TO.C,D17*%
X182270000Y-69000000D03*
D16*
X179730000Y-69000000D03*
%TD*%
D15*
%TO.C,D42*%
X129000000Y-115730000D03*
D16*
X129000000Y-118270000D03*
%TD*%
D17*
%TO.C,D68*%
X135500000Y-123500000D03*
D18*
X133500000Y-123500000D03*
%TD*%
D15*
%TO.C,D20*%
X161000000Y-70270000D03*
D16*
X161000000Y-67730000D03*
%TD*%
D15*
%TO.C,D49*%
X143730000Y-109000000D03*
D16*
X146270000Y-109000000D03*
%TD*%
D17*
%TO.C,D67*%
X128500000Y-123500000D03*
D18*
X126500000Y-123500000D03*
%TD*%
D15*
%TO.C,D54*%
X103730000Y-85000000D03*
D16*
X106270000Y-85000000D03*
%TD*%
D15*
%TO.C,D11*%
X186270000Y-101000000D03*
D16*
X183730000Y-101000000D03*
%TD*%
D15*
%TO.C,D16*%
X201000000Y-94270000D03*
D16*
X201000000Y-91730000D03*
%TD*%
D15*
%TO.C,D63*%
X89000000Y-94270000D03*
D16*
X89000000Y-91730000D03*
%TD*%
D15*
%TO.C,D27*%
X154270000Y-101000000D03*
D16*
X151730000Y-101000000D03*
%TD*%
D15*
%TO.C,D46*%
X114270000Y-77000000D03*
D16*
X111730000Y-77000000D03*
%TD*%
D15*
%TO.C,D12*%
X186270000Y-109000000D03*
D16*
X183730000Y-109000000D03*
%TD*%
D15*
%TO.C,D33*%
X146270000Y-99000000D03*
D16*
X143730000Y-99000000D03*
%TD*%
D15*
%TO.C,D8*%
X207730000Y-109000000D03*
D16*
X210270000Y-109000000D03*
%TD*%
D15*
%TO.C,D39*%
X135730000Y-109000000D03*
D16*
X138270000Y-109000000D03*
%TD*%
D15*
%TO.C,D45*%
X114270000Y-85000000D03*
D16*
X111730000Y-85000000D03*
%TD*%
D15*
%TO.C,D55*%
X103730000Y-109000000D03*
D16*
X106270000Y-109000000D03*
%TD*%
D15*
%TO.C,D25*%
X169000000Y-115730000D03*
D16*
X169000000Y-118270000D03*
%TD*%
D15*
%TO.C,D52*%
X89000000Y-70270000D03*
D16*
X89000000Y-67730000D03*
%TD*%
D15*
%TO.C,D59*%
X82270000Y-101000000D03*
D16*
X79730000Y-101000000D03*
%TD*%
D17*
%TO.C,D72*%
X170500000Y-123500000D03*
D18*
X168500000Y-123500000D03*
%TD*%
D15*
%TO.C,D34*%
X146270000Y-87000000D03*
D16*
X143730000Y-87000000D03*
%TD*%
D15*
%TO.C,D22*%
X175730000Y-85000000D03*
D16*
X178270000Y-85000000D03*
%TD*%
D15*
%TO.C,D38*%
X135730000Y-77000000D03*
D16*
X138270000Y-77000000D03*
%TD*%
D15*
%TO.C,D15*%
X193000000Y-94270000D03*
D16*
X193000000Y-91730000D03*
%TD*%
D15*
%TO.C,D43*%
X114270000Y-109000000D03*
D16*
X111730000Y-109000000D03*
%TD*%
D15*
%TO.C,D4*%
X201000000Y-70270000D03*
D16*
X201000000Y-67730000D03*
%TD*%
D15*
%TO.C,D36*%
X129000000Y-70270000D03*
D16*
X129000000Y-67730000D03*
%TD*%
D15*
%TO.C,D21*%
X175730000Y-77000000D03*
D16*
X178270000Y-77000000D03*
%TD*%
D15*
%TO.C,D53*%
X103730000Y-77000000D03*
D16*
X106270000Y-77000000D03*
%TD*%
D15*
%TO.C,D31*%
X161000000Y-94270000D03*
D16*
X161000000Y-91730000D03*
%TD*%
D15*
%TO.C,D40*%
X135730000Y-101000000D03*
D16*
X138270000Y-101000000D03*
%TD*%
D15*
%TO.C,D13*%
X186270000Y-77000000D03*
D16*
X183730000Y-77000000D03*
%TD*%
D17*
%TO.C,D71*%
X156500000Y-123500000D03*
D18*
X154500000Y-123500000D03*
%TD*%
D15*
%TO.C,D41*%
X121000000Y-115730000D03*
D16*
X121000000Y-118270000D03*
%TD*%
D15*
%TO.C,D6*%
X207730000Y-85000000D03*
D16*
X210270000Y-85000000D03*
%TD*%
D15*
%TO.C,D61*%
X82270000Y-77000000D03*
D16*
X79730000Y-77000000D03*
%TD*%
D17*
%TO.C,D2*%
X121500000Y-123500000D03*
D18*
X119500000Y-123500000D03*
%TD*%
D15*
%TO.C,D56*%
X103730000Y-101000000D03*
D16*
X106270000Y-101000000D03*
%TD*%
D15*
%TO.C,D35*%
X121000000Y-70270000D03*
D16*
X121000000Y-67730000D03*
%TD*%
D15*
%TO.C,D3*%
X193000000Y-70270000D03*
D16*
X193000000Y-67730000D03*
%TD*%
D15*
%TO.C,D37*%
X135730000Y-85000000D03*
D16*
X138270000Y-85000000D03*
%TD*%
D15*
%TO.C,D48*%
X129000000Y-94270000D03*
D16*
X129000000Y-91730000D03*
%TD*%
D15*
%TO.C,D10*%
X201000000Y-115730000D03*
D16*
X201000000Y-118270000D03*
%TD*%
D17*
%TO.C,D69*%
X142500000Y-123500000D03*
D18*
X140500000Y-123500000D03*
%TD*%
D15*
%TO.C,D29*%
X154270000Y-77000000D03*
D16*
X151730000Y-77000000D03*
%TD*%
D15*
%TO.C,D58*%
X97000000Y-115730000D03*
D16*
X97000000Y-118270000D03*
%TD*%
D15*
%TO.C,D60*%
X82270000Y-109000000D03*
D16*
X79730000Y-109000000D03*
%TD*%
D15*
%TO.C,D19*%
X169000000Y-70270000D03*
D16*
X169000000Y-67730000D03*
%TD*%
D15*
%TO.C,D14*%
X186270000Y-85000000D03*
D16*
X183730000Y-85000000D03*
%TD*%
D15*
%TO.C,D7*%
X207730000Y-101000000D03*
D16*
X210270000Y-101000000D03*
%TD*%
D15*
%TO.C,D24*%
X175730000Y-101000000D03*
D16*
X178270000Y-101000000D03*
%TD*%
D15*
%TO.C,D51*%
X97000000Y-70270000D03*
D16*
X97000000Y-67730000D03*
%TD*%
D15*
%TO.C,D9*%
X193000000Y-115730000D03*
D16*
X193000000Y-118270000D03*
%TD*%
D15*
%TO.C,D57*%
X89000000Y-115730000D03*
D16*
X89000000Y-118270000D03*
%TD*%
D17*
%TO.C,D70*%
X149500000Y-123500000D03*
D18*
X147500000Y-123500000D03*
%TD*%
D15*
%TO.C,D50*%
X143730000Y-117000000D03*
D16*
X146270000Y-117000000D03*
%TD*%
D15*
%TO.C,D26*%
X161000000Y-115730000D03*
D16*
X161000000Y-118270000D03*
%TD*%
D17*
%TO.C,D73*%
X163500000Y-123500000D03*
D18*
X161500000Y-123500000D03*
%TD*%
D15*
%TO.C,D64*%
X97000000Y-94270000D03*
D16*
X97000000Y-91730000D03*
%TD*%
D15*
%TO.C,D32*%
X169000000Y-94270000D03*
D16*
X169000000Y-91730000D03*
%TD*%
D15*
%TO.C,D62*%
X82270000Y-85000000D03*
D16*
X79730000Y-85000000D03*
%TD*%
D19*
%TO.C,J1*%
X226640000Y-121500000D03*
D20*
X219140000Y-121500000D03*
D21*
X225290000Y-123650000D03*
X225290000Y-119350000D03*
X220490000Y-123650000D03*
X220490000Y-119350000D03*
%TD*%
D22*
%TO.C,H2*%
X232000004Y-67999932D03*
%TD*%
D12*
%TO.C,J3*%
X219350000Y-66675000D03*
D13*
X216810000Y-66675000D03*
%TD*%
D12*
%TO.C,J4*%
X225500000Y-66675000D03*
D13*
X222960000Y-66675000D03*
%TD*%
D22*
%TO.C,H2*%
X232000004Y-121999932D03*
%TD*%
%TO.C,H1*%
X78000004Y-67999932D03*
%TD*%
%TO.C,H2*%
X78000004Y-121999932D03*
%TD*%
%LPD*%
M02*
