  0
SECTION
  2
HEADER
  9
$ANGBASE
  50
0.0
  9
$ANGDIR
  70
1
  9
$MEASUREMENT
  70
1
  0
ENDSEC
  0
SECTION
  2
TABLES
  0
TABLE
  2
LTYPE
  70
4
  0
LTYPE
  5
40F
  2
CONTINUOUS
  70
0
  3
Solid line
  72
65
  73
0
  40
0.0
  0
LTYPE
  5
410
  2
DASHDOT
 70
0
  3
Dash Dot ____ _ ____ _
 72
65
 73
4
 40
2.0
 49
1.25
 49
-0.25
 49
0.25
 49
-0.25
  0
LTYPE
  5
411
  2
DASHED
 70
0
  3
Dashed __ __ __ __ __
 72
65
 73
2
 40
0.75
 49
0.5
 49
-0.25
  0
LTYPE
  5
43B
  2
DOTTED
 70
0
  3
Dotted .  .  .  .
 72
65
 73
2
 40
0.2
 49
0.0
 49
-0.2
  0
ENDTAB
  0
TABLE
  2
STYLE
  70
4
  0
STYLE
  2
KICAD
  70
0
  40
0
  41
1
  42
1
  50
0
  71
0
  3
isocp.shx
  0
STYLE
  2
KICADB
  70
0
  40
0
  41
1
  42
1
  50
0
  71
0
  3
isocp.shx
  0
STYLE
  2
KICADI
  70
0
  40
0
  41
1
  42
1
  50
15
  71
0
  3
isocp.shx
  0
STYLE
  2
KICADBI
  70
0
  40
0
  41
1
  42
1
  50
15
  71
0
  3
isocp.shx
  0
ENDTAB
  0
TABLE
  2
LAYER
  70
1
  0
LAYER
  2
BLACK
  70
0
  62
7
  6
CONTINUOUS
  0
ENDTAB
  0
ENDSEC
  0
SECTION
  2
ENTITIES
0
ARC
8
BLACK
10
-7.9999929999999999
20
-30.0000029999999995
40
7.0000289999999996
50
89.99993452
51
180.00000000
0
LINE
8
BLACK
6
CONTINUOUS
10
-18.9999900000000004
20
-93.0000039999999899
11
-18.9999900000000004
21
-96.0000039999999899
0
LINE
8
BLACK
6
CONTINUOUS
10
-7.999994
20
-115.000001999999995
11
-8.0000049999999998
21
-107.0000349999999969
0
LINE
8
BLACK
6
CONTINUOUS
10
5.999994
20
-93.000001999999995
11
-18.9999900000000004
21
-93.0000039999999899
0
LINE
8
BLACK
6
CONTINUOUS
10
-17.
20
-40.
11
3.
21
-40.
0
LINE
8
BLACK
6
CONTINUOUS
10
3.
20
-40.
11
3.
21
-90.
0
LINE
8
BLACK
6
CONTINUOUS
10
3.
20
-90.
11
-17.
21
-90.
0
LINE
8
BLACK
6
CONTINUOUS
10
-17.
20
-90.
11
-17.
21
-40.
0
ARC
8
BLACK
10
-7.9999929999999999
20
-30.0000029999999995
40
15.000001000000033
50
89.99999618
51
179.99999618
0
LINE
8
BLACK
6
CONTINUOUS
10
-22.9999900000000004
20
-29.9999869999999973
11
-22.9999939999999974
21
-100.
0
LINE
8
BLACK
6
CONTINUOUS
10
-14.9999839999999995
20
-34.000001999999995
11
-18.9999839999999978
21
-34.000001999999995
0
ARC
8
BLACK
10
-7.9999929999999999
20
-100.0000009999999975
40
15.000001000000033
50
-180.00000382
51
-90.00000382
0
LINE
8
BLACK
6
CONTINUOUS
10
-8.0118150000000004
20
-22.9999739999999981
11
-7.9999919999999998
21
-15.0000029999999995
0
LINE
8
BLACK
6
CONTINUOUS
10
-15.0000219999999995
20
-30.0000029999999995
11
-14.9999839999999995
21
-34.000001999999995
0
LINE
8
BLACK
6
CONTINUOUS
10
-18.9999900000000004
20
-96.0000039999999899
11
-14.9999899999999986
21
-96.0000039999999899
0
ARC
8
BLACK
10
-7.9999899999999995
20
-100.
40
7.0000300000006419
50
-180.00005730
51
-90.00002456
0
LINE
8
BLACK
6
CONTINUOUS
10
-14.9999899999999986
20
-96.0000039999999899
11
-15.0000209999999985
21
-99.9999929999999893
0
LINE
8
BLACK
6
CONTINUOUS
10
6.
20
-37.
11
5.999994
21
-93.000001999999995
0
LINE
8
BLACK
6
CONTINUOUS
10
-18.9999839999999978
20
-37.000001999999995
11
6.
21
-37.
0
LINE
8
BLACK
6
CONTINUOUS
10
-18.9999839999999978
20
-34.000001999999995
11
-18.9999839999999978
21
-37.000001999999995
0
LINE
8
BLACK
6
CONTINUOUS
10
20.9999830000000003
20
-39.9999970000000005
11
40.9999830000000003
21
-39.9999970000000005
0
LINE
8
BLACK
6
CONTINUOUS
10
40.9999830000000003
20
-39.9999970000000005
11
40.9999830000000003
21
-89.9999969999999934
0
LINE
8
BLACK
6
CONTINUOUS
10
40.9999830000000003
20
-89.9999969999999934
11
20.9999830000000003
21
-89.9999969999999934
0
LINE
8
BLACK
6
CONTINUOUS
10
20.9999830000000003
20
-89.9999969999999934
11
20.9999830000000003
21
-39.9999970000000005
0
LINE
8
BLACK
6
CONTINUOUS
10
43.9999830000000003
20
-36.9999970000000005
11
43.9999770000000012
21
-92.9999990000000025
0
LINE
8
BLACK
6
CONTINUOUS
10
18.999998999999999
20
-36.9999989999999954
11
43.9999830000000003
21
-36.9999970000000005
0
LINE
8
BLACK
6
CONTINUOUS
10
43.9999770000000012
20
-92.9999990000000025
11
18.9999929999999999
21
-93.0000009999999975
0
LINE
8
BLACK
6
CONTINUOUS
10
200.000001999999995
20
-116.9999969999999934
11
29.9999979999999979
21
-116.9999959999999959
0
LINE
8
BLACK
6
CONTINUOUS
10
206.9999770000000012
20
-95.9999940000000009
11
210.9999770000000012
21
-95.9999940000000009
0
LINE
8
BLACK
6
CONTINUOUS
10
29.9999889999999994
20
-114.9999989999999883
11
29.9999779999999987
21
-107.0000319999999903
0
LINE
8
BLACK
6
CONTINUOUS
10
214.9999889999999994
20
-99.999968999999993
11
214.9999880000000019
21
-30.0000009999999975
0
LINE
8
BLACK
6
CONTINUOUS
10
199.9999870000000044
20
-114.9999880000000019
11
199.9999760000000038
21
-107.0000209999999896
0
LINE
8
BLACK
6
CONTINUOUS
10
200.0000069999999823
20
-124.9999629999999939
11
199.9999959999999817
21
-116.9999959999999959
0
ARC
8
BLACK
10
30.
20
-100.
40
7.000027000007143
50
-180.00008185
51
-90.00008185
0
LINE
8
BLACK
6
CONTINUOUS
10
18.9999929999999999
20
-96.0000009999999975
11
22.9999929999999999
21
-96.0000009999999975
0
LINE
8
BLACK
6
CONTINUOUS
10
43.9999929999999964
20
-19.0000009999999975
11
43.9999929999999964
21
-23.0000009999999975
0
LINE
8
BLACK
6
CONTINUOUS
10
186.
20
-22.9999660000000006
11
185.9999929999999893
21
-19.0000040000000006
0
LINE
8
BLACK
6
CONTINUOUS
10
29.988159999999997
20
-107.0000259999999912
11
43.9881449999999958
21
-107.0000269999999887
0
LINE
8
BLACK
6
CONTINUOUS
10
182.9999929999999893
20
-23.0000040000000006
11
46.9999929999999964
21
-23.0000009999999975
0
LINE
8
BLACK
6
CONTINUOUS
10
30.0118369999999999
20
-135.0000069999999823
11
30.0118259999999992
21
-127.0000399999999985
0
LINE
8
BLACK
6
CONTINUOUS
10
22.999960999999999
20
-30.
11
22.999998999999999
21
-33.9999989999999954
0
LINE
8
BLACK
6
CONTINUOUS
10
30.0118369999999999
20
-135.0000090000000057
11
200.0118349999999907
21
-134.9999959999999817
0
LINE
8
BLACK
6
CONTINUOUS
10
182.9881519999999853
20
-106.9999919999999918
11
182.9881519999999853
21
-110.9999919999999918
0
LINE
8
BLACK
6
CONTINUOUS
10
199.9999919999999918
20
-124.9999629999999939
11
186.0000069999999823
21
-124.9999619999999965
0
LINE
8
BLACK
6
CONTINUOUS
10
185.9881519999999853
20
-106.9999919999999918
11
199.9999770000000012
21
-107.0000220000000013
0
LINE
8
BLACK
6
CONTINUOUS
10
47.
20
-130.9999970000000076
11
47.
21
-126.9999969999999934
0
LINE
8
BLACK
6
CONTINUOUS
10
29.9881679999999982
20
-22.9999709999999986
11
29.9999909999999979
21
-15.
0
LINE
8
BLACK
6
CONTINUOUS
10
199.9999949999999842
20
-15.0000009999999993
11
29.9999909999999979
21
-15.
0
LINE
8
BLACK
6
CONTINUOUS
10
207.0000149999999906
20
-99.9999929999999893
11
206.9999770000000012
21
-95.9999940000000009
0
LINE
8
BLACK
6
CONTINUOUS
10
29.9999889999999994
20
-115.0000009999999975
11
199.9999870000000044
21
-114.9999880000000019
0
LINE
8
BLACK
6
CONTINUOUS
10
199.999984999999981
20
-22.9999669999999981
11
186.
21
-22.9999660000000006
0
LINE
8
BLACK
6
CONTINUOUS
10
185.9881519999999853
20
-110.9999919999999918
11
185.9881519999999853
21
-106.9999919999999918
0
LINE
8
BLACK
6
CONTINUOUS
10
46.9881519999999995
20
-110.9999889999999994
11
43.9881519999999995
21
-110.9999889999999994
0
ARC
8
BLACK
10
29.9999900000000004
20
-100.
40
14.9999990000000327
50
-180.00001146
51
-90.00000382
0
LINE
8
BLACK
6
CONTINUOUS
10
183.
20
-127.
11
183.
21
-131.
0
LINE
8
BLACK
6
CONTINUOUS
10
22.999998999999999
20
-33.9999989999999954
11
18.999998999999999
21
-33.9999989999999954
0
LINE
8
BLACK
6
CONTINUOUS
10
14.9999929999999999
20
-29.9999839999999978
11
14.9999889999999994
21
-99.9999969999999934
0
ARC
8
BLACK
10
29.9999900000000004
20
-30.
40
15.000001000000033
50
89.99999618
51
179.99999618
0
LINE
8
BLACK
6
CONTINUOUS
10
44.
20
-124.9999969999999934
11
29.9881749999999982
21
-124.9999669999999981
0
LINE
8
BLACK
6
CONTINUOUS
10
200.
20
-22.9999669999999981
11
199.9999889999999994
21
-15.
0
LINE
8
BLACK
6
CONTINUOUS
10
210.9999829999999861
20
-33.9999919999999989
11
206.9999829999999861
21
-33.9999919999999989
0
LINE
8
BLACK
6
CONTINUOUS
10
47.
20
-124.9999969999999934
11
47.
21
-120.9999969999999934
0
LINE
8
BLACK
6
CONTINUOUS
10
183.
20
-121.
11
186.
21
-121.
0
LINE
8
BLACK
6
CONTINUOUS
10
44.
20
-120.9999969999999934
11
44.
21
-124.9999969999999934
0
LINE
8
BLACK
6
CONTINUOUS
10
46.9881519999999995
20
-110.9999889999999994
11
46.9881519999999995
21
-106.9999889999999994
0
LINE
8
BLACK
6
CONTINUOUS
10
47.
20
-130.9999970000000076
11
44.
21
-130.9999970000000076
0
LINE
8
BLACK
6
CONTINUOUS
10
210.9999770000000012
20
-92.9999940000000009
11
206.9999770000000012
21
-92.9999940000000009
0
LINE
8
BLACK
6
CONTINUOUS
10
47.
20
-126.9999969999999934
11
183.
21
-127.
0
LINE
8
BLACK
6
CONTINUOUS
10
22.9999929999999999
20
-96.0000009999999975
11
22.999962
21
-99.9999899999999968
0
LINE
8
BLACK
6
CONTINUOUS
10
183.
20
-121.
11
183.
21
-125.
0
LINE
8
BLACK
6
CONTINUOUS
10
182.9999929999999893
20
-19.0000040000000006
11
185.9999929999999893
21
-19.0000040000000006
0
ARC
8
BLACK
10
200.
20
-100.
40
14.9999890000000331
50
-90.00004966
51
0.00000382
0
LINE
8
BLACK
6
CONTINUOUS
10
47.
20
-120.9999969999999934
11
44.
21
-120.9999969999999934
0
LINE
8
BLACK
6
CONTINUOUS
10
18.9999929999999999
20
-93.0000009999999975
11
18.9999929999999999
21
-96.0000009999999975
0
LINE
8
BLACK
6
CONTINUOUS
10
46.9999929999999964
20
-23.0000009999999975
11
46.9999929999999964
21
-19.0000009999999975
0
LINE
8
BLACK
6
CONTINUOUS
10
210.9999770000000012
20
-95.9999940000000009
11
210.9999770000000012
21
-92.9999940000000009
0
ARC
8
BLACK
10
30.
20
-30.
40
7.0000390000000001
50
90.00001637
51
180.00000000
0
LINE
8
BLACK
6
CONTINUOUS
10
210.9999829999999861
20
-36.9999919999999989
11
210.9999829999999861
21
-33.9999919999999989
0
ARC
8
BLACK
10
200.
20
-100.
40
7.0000140000034996
50
-90.00018826
51
0.00005730
0
LINE
8
BLACK
6
CONTINUOUS
10
186.0000069999999823
20
-124.9999619999999965
11
186.
21
-121.
0
LINE
8
BLACK
6
CONTINUOUS
10
18.999998999999999
20
-33.9999989999999954
11
18.999998999999999
21
-36.9999989999999954
0
LINE
8
BLACK
6
CONTINUOUS
10
206.9999770000000012
20
-92.9999940000000009
11
206.9999829999999861
21
-36.9999919999999989
0
ARC
8
BLACK
10
200.
20
-30.
40
15.0000010000040316
50
-0.00000382
51
90.00004202
0
LINE
8
BLACK
6
CONTINUOUS
10
46.9881519999999995
20
-106.9999889999999994
11
182.9881519999999853
21
-106.9999919999999918
0
LINE
8
BLACK
6
CONTINUOUS
10
186.
20
-127.
11
200.0118249999999875
21
-127.0000299999999953
0
LINE
8
BLACK
6
CONTINUOUS
10
206.9999829999999861
20
-36.9999919999999989
11
210.9999829999999861
21
-36.9999919999999989
0
ARC
8
BLACK
10
200.
20
-30.
40
7.000034000016071
50
-0.00002456
51
90.00012278
0
LINE
8
BLACK
6
CONTINUOUS
10
30.0000079999999976
20
-127.0000339999999994
11
43.9999929999999964
21
-127.0000349999999969
0
LINE
8
BLACK
6
CONTINUOUS
10
182.9999929999999893
20
-19.0000040000000006
11
182.9999929999999893
21
-23.0000040000000006
0
LINE
8
BLACK
6
CONTINUOUS
10
200.0118349999999907
20
-134.9999959999999817
11
200.0118239999999901
21
-127.0000289999999978
0
LINE
8
BLACK
6
CONTINUOUS
10
206.9999829999999861
20
-33.9999919999999989
11
207.0000139999999931
21
-30.0000029999999995
0
LINE
8
BLACK
6
CONTINUOUS
10
183.
20
-125.
11
47.
21
-124.9999969999999934
0
LINE
8
BLACK
6
CONTINUOUS
10
182.9881519999999853
20
-110.9999919999999918
11
185.9881519999999853
21
-110.9999919999999918
0
LINE
8
BLACK
6
CONTINUOUS
10
43.9881449999999958
20
-107.0000269999999887
11
43.9881519999999995
21
-110.9999889999999994
0
LINE
8
BLACK
6
CONTINUOUS
10
43.9999929999999964
20
-127.0000349999999969
11
44.
21
-130.9999970000000076
0
LINE
8
BLACK
6
CONTINUOUS
10
186.
20
-131.
11
186.
21
-127.
0
LINE
8
BLACK
6
CONTINUOUS
10
29.9881749999999982
20
-124.9999669999999981
11
29.9999979999999979
21
-116.9999959999999959
0
LINE
8
BLACK
6
CONTINUOUS
10
46.9999929999999964
20
-19.0000009999999975
11
43.9999929999999964
21
-19.0000009999999975
0
LINE
8
BLACK
6
CONTINUOUS
10
183.
20
-131.
11
186.
21
-131.
0
LINE
8
BLACK
6
CONTINUOUS
10
43.9999929999999964
20
-23.0000009999999975
11
29.9881679999999982
21
-22.9999709999999986
0
LINE
8
BLACK
6
CONTINUOUS
10
115.6428509999999932
20
-17.5112099999999984
11
115.9285659999999893
21
-17.368352999999999
0
LINE
8
BLACK
6
CONTINUOUS
10
115.9285659999999893
20
-17.368352999999999
11
116.3571369999999945
21
-17.368352999999999
0
LINE
8
BLACK
6
CONTINUOUS
10
116.3571369999999945
20
-17.368352999999999
11
116.7857079999999996
21
-17.5112099999999984
0
LINE
8
BLACK
6
CONTINUOUS
10
116.7857079999999996
20
-17.5112099999999984
11
117.0714229999999958
21
-17.7969240000000006
0
LINE
8
BLACK
6
CONTINUOUS
10
117.0714229999999958
20
-17.7969240000000006
11
117.214279999999988
21
-18.0826379999999993
0
LINE
8
BLACK
6
CONTINUOUS
10
117.214279999999988
20
-18.0826379999999993
11
117.3571369999999945
21
-18.6540669999999977
0
LINE
8
BLACK
6
CONTINUOUS
10
117.3571369999999945
20
-18.6540669999999977
11
117.3571369999999945
21
-19.0826379999999993
0
LINE
8
BLACK
6
CONTINUOUS
10
117.3571369999999945
20
-19.0826379999999993
11
117.214279999999988
21
-19.6540669999999977
0
LINE
8
BLACK
6
CONTINUOUS
10
117.214279999999988
20
-19.6540669999999977
11
117.0714229999999958
21
-19.939781
0
LINE
8
BLACK
6
CONTINUOUS
10
117.0714229999999958
20
-19.939781
11
116.7857079999999996
21
-20.2254959999999997
0
LINE
8
BLACK
6
CONTINUOUS
10
116.7857079999999996
20
-20.2254959999999997
11
116.3571369999999945
21
-20.368352999999999
0
LINE
8
BLACK
6
CONTINUOUS
10
116.3571369999999945
20
-20.368352999999999
11
116.0714229999999958
21
-20.368352999999999
0
LINE
8
BLACK
6
CONTINUOUS
10
116.0714229999999958
20
-20.368352999999999
11
115.6428509999999932
21
-20.2254959999999997
0
LINE
8
BLACK
6
CONTINUOUS
10
115.6428509999999932
20
-20.2254959999999997
11
115.4999940000000009
21
-20.0826379999999993
0
LINE
8
BLACK
6
CONTINUOUS
10
115.4999940000000009
20
-20.0826379999999993
11
115.4999940000000009
21
-19.0826379999999993
0
LINE
8
BLACK
6
CONTINUOUS
10
115.4999940000000009
20
-19.0826379999999993
11
116.0714229999999958
21
-19.0826379999999993
0
LINE
8
BLACK
6
CONTINUOUS
10
114.4999940000000009
20
-17.368352999999999
11
112.4999940000000009
21
-17.368352999999999
0
LINE
8
BLACK
6
CONTINUOUS
10
112.4999940000000009
20
-17.368352999999999
11
113.7857079999999996
21
-20.368352999999999
0
LINE
8
BLACK
6
CONTINUOUS
10
115.6428579999999897
20
-119.5112060000000014
11
115.9285730000000001
21
-119.3683489999999949
0
LINE
8
BLACK
6
CONTINUOUS
10
115.9285730000000001
20
-119.3683489999999949
11
116.357143999999991
21
-119.3683489999999949
0
LINE
8
BLACK
6
CONTINUOUS
10
116.357143999999991
20
-119.3683489999999949
11
116.7857149999999962
21
-119.5112060000000014
0
LINE
8
BLACK
6
CONTINUOUS
10
116.7857149999999962
20
-119.5112060000000014
11
117.0714299999999923
21
-119.7969200000000001
0
LINE
8
BLACK
6
CONTINUOUS
10
117.0714299999999923
20
-119.7969200000000001
11
117.2142869999999988
21
-120.0826339999999988
0
LINE
8
BLACK
6
CONTINUOUS
10
117.2142869999999988
20
-120.0826339999999988
11
117.357143999999991
21
-120.6540629999999936
0
LINE
8
BLACK
6
CONTINUOUS
10
117.357143999999991
20
-120.6540629999999936
11
117.357143999999991
21
-121.0826339999999988
0
LINE
8
BLACK
6
CONTINUOUS
10
117.357143999999991
20
-121.0826339999999988
11
117.2142869999999988
21
-121.6540629999999936
0
LINE
8
BLACK
6
CONTINUOUS
10
117.2142869999999988
20
-121.6540629999999936
11
117.0714299999999923
21
-121.9397769999999923
0
LINE
8
BLACK
6
CONTINUOUS
10
117.0714299999999923
20
-121.9397769999999923
11
116.7857149999999962
21
-122.2254919999999885
0
LINE
8
BLACK
6
CONTINUOUS
10
116.7857149999999962
20
-122.2254919999999885
11
116.357143999999991
21
-122.3683489999999949
0
LINE
8
BLACK
6
CONTINUOUS
10
116.357143999999991
20
-122.3683489999999949
11
116.0714299999999923
21
-122.3683489999999949
0
LINE
8
BLACK
6
CONTINUOUS
10
116.0714299999999923
20
-122.3683489999999949
11
115.6428579999999897
21
-122.2254919999999885
0
LINE
8
BLACK
6
CONTINUOUS
10
115.6428579999999897
20
-122.2254919999999885
11
115.5000009999999975
21
-122.0826339999999988
0
LINE
8
BLACK
6
CONTINUOUS
10
115.5000009999999975
20
-122.0826339999999988
11
115.5000009999999975
21
-121.0826339999999988
0
LINE
8
BLACK
6
CONTINUOUS
10
115.5000009999999975
20
-121.0826339999999988
11
116.0714299999999923
21
-121.0826339999999988
0
LINE
8
BLACK
6
CONTINUOUS
10
114.5000009999999975
20
-119.3683489999999949
11
112.5000009999999975
21
-119.3683489999999949
0
LINE
8
BLACK
6
CONTINUOUS
10
112.5000009999999975
20
-119.3683489999999949
11
113.7857149999999962
21
-122.3683489999999949
0
LINE
8
BLACK
6
CONTINUOUS
10
117.2261279999999886
20
-132.3683609999999931
11
117.2261279999999886
21
-129.3683609999999931
0
LINE
8
BLACK
6
CONTINUOUS
10
117.2261279999999886
20
-129.3683609999999931
11
116.5118420000000015
21
-129.3683609999999931
0
LINE
8
BLACK
6
CONTINUOUS
10
116.5118420000000015
20
-129.3683609999999931
11
116.0832709999999963
21
-129.5112179999999853
0
LINE
8
BLACK
6
CONTINUOUS
10
116.0832709999999963
20
-129.5112179999999853
11
115.7975560000000002
21
-129.7969319999999982
0
LINE
8
BLACK
6
CONTINUOUS
10
115.7975560000000002
20
-129.7969319999999982
11
115.6546989999999937
21
-130.0826459999999827
0
LINE
8
BLACK
6
CONTINUOUS
10
115.6546989999999937
20
-130.0826459999999827
11
115.5118420000000015
21
-130.654075000000006
0
LINE
8
BLACK
6
CONTINUOUS
10
115.5118420000000015
20
-130.654075000000006
11
115.5118420000000015
21
-131.0826459999999827
0
LINE
8
BLACK
6
CONTINUOUS
10
115.5118420000000015
20
-131.0826459999999827
11
115.6546989999999937
21
-131.654075000000006
0
LINE
8
BLACK
6
CONTINUOUS
10
115.6546989999999937
20
-131.654075000000006
11
115.7975560000000002
21
-131.9397889999999904
0
LINE
8
BLACK
6
CONTINUOUS
10
115.7975560000000002
20
-131.9397889999999904
11
116.0832709999999963
21
-132.2255040000000008
0
LINE
8
BLACK
6
CONTINUOUS
10
116.0832709999999963
20
-132.2255040000000008
11
116.5118420000000015
21
-132.3683609999999931
0
LINE
8
BLACK
6
CONTINUOUS
10
116.5118420000000015
20
-132.3683609999999931
11
117.2261279999999886
21
-132.3683609999999931
0
LINE
8
BLACK
6
CONTINUOUS
10
114.5118420000000015
20
-129.3683609999999931
11
112.5118420000000015
21
-129.3683609999999931
0
LINE
8
BLACK
6
CONTINUOUS
10
112.5118420000000015
20
-129.3683609999999931
11
113.7975560000000002
21
-132.3683609999999931
0
LINE
8
BLACK
6
CONTINUOUS
10
117.214279999999988
20
-112.368352999999999
11
117.214279999999988
21
-109.368352999999999
0
LINE
8
BLACK
6
CONTINUOUS
10
117.214279999999988
20
-109.368352999999999
11
116.4999940000000009
21
-109.368352999999999
0
LINE
8
BLACK
6
CONTINUOUS
10
116.4999940000000009
20
-109.368352999999999
11
116.0714229999999958
21
-109.5112099999999913
0
LINE
8
BLACK
6
CONTINUOUS
10
116.0714229999999958
20
-109.5112099999999913
11
115.7857079999999996
21
-109.79692399999999
0
LINE
8
BLACK
6
CONTINUOUS
10
115.7857079999999996
20
-109.79692399999999
11
115.6428509999999932
21
-110.0826379999999887
0
LINE
8
BLACK
6
CONTINUOUS
10
115.6428509999999932
20
-110.0826379999999887
11
115.4999940000000009
21
-110.6540669999999977
0
LINE
8
BLACK
6
CONTINUOUS
10
115.4999940000000009
20
-110.6540669999999977
11
115.4999940000000009
21
-111.0826379999999887
0
LINE
8
BLACK
6
CONTINUOUS
10
115.4999940000000009
20
-111.0826379999999887
11
115.6428509999999932
21
-111.6540669999999977
0
LINE
8
BLACK
6
CONTINUOUS
10
115.6428509999999932
20
-111.6540669999999977
11
115.7857079999999996
21
-111.9397809999999964
0
LINE
8
BLACK
6
CONTINUOUS
10
115.7857079999999996
20
-111.9397809999999964
11
116.0714229999999958
21
-112.2254959999999926
0
LINE
8
BLACK
6
CONTINUOUS
10
116.0714229999999958
20
-112.2254959999999926
11
116.4999940000000009
21
-112.368352999999999
0
LINE
8
BLACK
6
CONTINUOUS
10
116.4999940000000009
20
-112.368352999999999
11
117.214279999999988
21
-112.368352999999999
0
LINE
8
BLACK
6
CONTINUOUS
10
114.4999940000000009
20
-109.368352999999999
11
112.4999940000000009
21
-109.368352999999999
0
LINE
8
BLACK
6
CONTINUOUS
10
112.4999940000000009
20
-109.368352999999999
11
113.7857079999999996
21
-112.368352999999999
  0
ENDSEC
  0
EOF
