M48
; DRILL file {KiCad 9.0.6-9.0.6~ubuntu24.04.1} date 2025-12-13T15:08:58+0100
; FORMAT={-:-/ absolute / metric / decimal}
; #@! TF.CreationDate,2025-12-13T15:08:58+01:00
; #@! TF.GenerationSoftware,Kicad,Pcbnew,9.0.6-9.0.6~ubuntu24.04.1
; #@! TF.FileFunction,Plated,1,2,PTH
FMAT,2
METRIC
; #@! TA.AperFunction,Plated,PTH,ViaDrill
T1C0.300
; #@! TA.AperFunction,Plated,PTH,ComponentDrill
T2C0.500
; #@! TA.AperFunction,Plated,PTH,ComponentDrill
T3C0.700
; #@! TA.AperFunction,Plated,PTH,ComponentDrill
T4C0.800
; #@! TA.AperFunction,Plated,PTH,ComponentDrill
T5C0.900
; #@! TA.AperFunction,Plated,PTH,ComponentDrill
T6C1.000
%
G90
G05
T1
X84.3Y-111.4
X84.5Y-88.9
X85.425Y-96.225
X86.7Y-72.4
X92.0Y-82.75
X92.7Y-75.8
X92.7Y-77.4
X92.75Y-83.4
X93.6Y-85.3
X93.6Y-86.55
X93.65Y-84.05
X94.6Y-102.15
X95.2Y-88.6
X96.1Y-88.6
X98.87Y-97.745
X99.5Y-113.5
X101.4Y-74.4
X101.7Y-98.5
X107.0Y-94.7
X115.527Y-90.8
X116.3Y-111.4
X118.097Y-71.594
X118.4Y-96.4
X119.9Y-85.5
X119.9Y-86.75
X119.95Y-88.15
X120.0Y-84.35
X123.65Y-82.75
X123.85Y-84.05
X123.85Y-85.3
X124.2Y-86.6
X124.7Y-75.8
X124.7Y-77.4
X124.95Y-104.2
X125.175Y-87.325
X126.5Y-121.05
X127.2Y-88.6
X128.1Y-88.6
X129.85Y-89.25
X131.5Y-113.5
X131.65Y-97.5
X133.4Y-74.4
X133.5Y-121.05
X133.7Y-98.5
X139.0Y-94.7
X140.5Y-121.05
X140.65Y-105.3
X142.1Y-106.45
X146.85Y-73.9
X147.5Y-121.05
X154.5Y-121.05
X155.975Y-84.075
X156.3Y-111.4
X157.4Y-96.175
X158.093Y-71.591
X159.35Y-84.85
X159.4Y-86.0
X159.4Y-88.1
X159.45Y-75.75
X159.5Y-86.95
X161.5Y-121.05
X163.9Y-85.3
X164.0Y-86.6
X164.05Y-82.75
X164.7Y-75.8
X164.7Y-77.4
X164.945Y-83.357
X165.075Y-104.2
X165.25Y-84.15
X165.7Y-80.7
X167.2Y-88.6
X168.1Y-88.6
X168.5Y-121.05
X171.4Y-97.875
X171.5Y-113.5
X173.4Y-74.4
X174.55Y-97.4
X175.443Y-88.499
X178.175Y-91.0
X179.0Y-94.7
X180.05Y-123.325
X181.85Y-123.3
X182.15Y-74.1
X188.05Y-84.35
X188.3Y-111.4
X189.425Y-96.325
X190.086Y-71.587
X191.8Y-84.0
X191.8Y-85.3
X191.8Y-86.6
X191.8Y-87.85
X192.7Y-77.0
X195.3Y-104.2
X195.6Y-82.75
X195.85Y-84.05
X195.9Y-85.3
X196.7Y-75.8
X196.7Y-77.4
X196.7Y-87.15
X196.9Y-83.4
X197.7Y-80.7
X199.2Y-88.6
X200.1Y-88.6
X202.4Y-98.2
X203.5Y-113.5
X205.4Y-74.4
X205.7Y-98.5
X209.6Y-121.3
X211.0Y-94.7
X212.825Y-91.5
X213.65Y-91.4
X214.45Y-91.4
X214.475Y-75.5
X214.5Y-87.5
X215.15Y-74.925
X215.15Y-88.0
X215.25Y-91.4
X215.375Y-108.8
X215.575Y-73.125
X215.7Y-74.15
X215.85Y-88.55
X215.975Y-109.35
X216.45Y-88.0
X216.45Y-117.5
X216.73Y-108.93
X217.482Y-109.325
X218.35Y-75.95
X218.35Y-85.2
X218.35Y-94.35
X218.7Y-104.9
X218.775Y-71.0
X219.5Y-105.1
X220.3Y-110.1
X220.5Y-105.05
X220.55Y-109.2
X222.775Y-100.75
X223.525Y-101.35
X225.425Y-68.375
X225.75Y-110.025
X225.75Y-111.65
X228.5Y-108.125
X229.7Y-107.35
X230.055Y-104.3
X230.4Y-116.65
X231.3Y-110.45
T2
X225.93Y-103.367
X225.93Y-105.267
T3
X220.49Y-119.35
X220.49Y-123.65
X225.29Y-119.35
X225.29Y-123.65
T4
X119.5Y-123.5
X121.5Y-123.5
X126.5Y-123.5
X128.5Y-123.5
X133.5Y-123.5
X135.5Y-123.5
X140.5Y-123.5
X142.5Y-123.5
X147.5Y-123.5
X149.5Y-123.5
X154.5Y-123.5
X156.5Y-123.5
X161.5Y-123.5
X163.5Y-123.5
X168.5Y-123.5
X170.5Y-123.5
T5
X79.73Y-77.0
X79.73Y-85.0
X79.73Y-101.0
X79.73Y-109.0
X82.27Y-77.0
X82.27Y-85.0
X82.27Y-101.0
X82.27Y-109.0
X89.0Y-67.73
X89.0Y-70.27
X89.0Y-91.73
X89.0Y-94.27
X89.0Y-115.73
X89.0Y-118.27
X97.0Y-67.73
X97.0Y-70.27
X97.0Y-91.73
X97.0Y-94.27
X97.0Y-115.73
X97.0Y-118.27
X103.73Y-77.0
X103.73Y-85.0
X103.73Y-101.0
X103.73Y-109.0
X106.27Y-77.0
X106.27Y-85.0
X106.27Y-101.0
X106.27Y-109.0
X111.73Y-77.0
X111.73Y-85.0
X111.73Y-101.0
X111.73Y-109.0
X114.27Y-77.0
X114.27Y-85.0
X114.27Y-101.0
X114.27Y-109.0
X121.0Y-67.73
X121.0Y-70.27
X121.0Y-91.73
X121.0Y-94.27
X121.0Y-115.73
X121.0Y-118.27
X129.0Y-67.73
X129.0Y-70.27
X129.0Y-91.73
X129.0Y-94.27
X129.0Y-115.73
X129.0Y-118.27
X135.73Y-77.0
X135.73Y-85.0
X135.73Y-101.0
X135.73Y-109.0
X138.27Y-77.0
X138.27Y-85.0
X138.27Y-101.0
X138.27Y-109.0
X143.73Y-87.0
X143.73Y-99.0
X143.73Y-109.0
X143.73Y-117.0
X146.27Y-87.0
X146.27Y-99.0
X146.27Y-109.0
X146.27Y-117.0
X151.73Y-77.0
X151.73Y-85.0
X151.73Y-101.0
X151.73Y-109.0
X154.27Y-77.0
X154.27Y-85.0
X154.27Y-101.0
X154.27Y-109.0
X161.0Y-67.73
X161.0Y-70.27
X161.0Y-91.73
X161.0Y-94.27
X161.0Y-115.73
X161.0Y-118.27
X169.0Y-67.73
X169.0Y-70.27
X169.0Y-91.73
X169.0Y-94.27
X169.0Y-115.73
X169.0Y-118.27
X175.73Y-77.0
X175.73Y-85.0
X175.73Y-101.0
X175.73Y-109.0
X178.27Y-77.0
X178.27Y-85.0
X178.27Y-101.0
X178.27Y-109.0
X179.73Y-69.0
X182.27Y-69.0
X183.73Y-77.0
X183.73Y-85.0
X183.73Y-101.0
X183.73Y-109.0
X186.27Y-77.0
X186.27Y-85.0
X186.27Y-101.0
X186.27Y-109.0
X193.0Y-67.73
X193.0Y-70.27
X193.0Y-91.73
X193.0Y-94.27
X193.0Y-115.73
X193.0Y-118.27
X201.0Y-67.73
X201.0Y-70.27
X201.0Y-91.73
X201.0Y-94.27
X201.0Y-115.73
X201.0Y-118.27
X207.73Y-77.0
X207.73Y-85.0
X207.73Y-101.0
X207.73Y-109.0
X210.27Y-77.0
X210.27Y-85.0
X210.27Y-101.0
X210.27Y-109.0
T6
X216.81Y-66.675
X219.35Y-66.675
X222.96Y-66.675
X225.5Y-66.675
X232.9Y-103.82
X232.9Y-106.36
X232.9Y-108.9
X232.9Y-111.44
X232.9Y-113.98
M30
