  0
SECTION
  2
HEADER
  9
$ANGBASE
  50
0.0
  9
$ANGDIR
  70
1
  9
$MEASUREMENT
  70
1
  0
ENDSEC
  0
SECTION
  2
TABLES
  0
TABLE
  2
LTYPE
  70
4
  0
LTYPE
  5
40F
  2
CONTINUOUS
  70
0
  3
Solid line
  72
65
  73
0
  40
0.0
  0
LTYPE
  5
410
  2
DASHDOT
 70
0
  3
Dash Dot ____ _ ____ _
 72
65
 73
4
 40
2.0
 49
1.25
 49
-0.25
 49
0.25
 49
-0.25
  0
LTYPE
  5
411
  2
DASHED
 70
0
  3
Dashed __ __ __ __ __
 72
65
 73
2
 40
0.75
 49
0.5
 49
-0.25
  0
LTYPE
  5
43B
  2
DOTTED
 70
0
  3
Dotted .  .  .  .
 72
65
 73
2
 40
0.2
 49
0.0
 49
-0.2
  0
ENDTAB
  0
TABLE
  2
STYLE
  70
4
  0
STYLE
  2
KICAD
  70
0
  40
0
  41
1
  42
1
  50
0
  71
0
  3
isocp.shx
  0
STYLE
  2
KICADB
  70
0
  40
0
  41
1
  42
1
  50
0
  71
0
  3
isocp.shx
  0
STYLE
  2
KICADI
  70
0
  40
0
  41
1
  42
1
  50
15
  71
0
  3
isocp.shx
  0
STYLE
  2
KICADBI
  70
0
  40
0
  41
1
  42
1
  50
15
  71
0
  3
isocp.shx
  0
ENDTAB
  0
TABLE
  2
LAYER
  70
1
  0
LAYER
  2
BLACK
  70
0
  62
7
  6
CONTINUOUS
  0
ENDTAB
  0
ENDSEC
  0
SECTION
  2
ENTITIES
0
ARC
8
BLACK
10
113.000001999999995
20
-136.4999990000000025
40
74.9999990000000025
50
0.00000000
51
90.00000000
0
LINE
8
BLACK
6
CONTINUOUS
10
113.000001999999995
20
-51.5
11
113.000001999999995
21
-55.5000009999999975
0
LINE
8
BLACK
6
CONTINUOUS
10
185.
20
-144.0000009999999975
11
179.
21
-144.0000009999999975
0
LINE
8
BLACK
6
CONTINUOUS
10
183.
20
-147.5
11
187.0000009999999975
21
-147.5
0
ARC
8
BLACK
10
102.
20
-147.500001999999995
40
85.0000010000000259
50
0.00000135
51
89.99999865
0
LINE
8
BLACK
6
CONTINUOUS
10
111.500001999999995
20
-59.5000009999999975
11
111.500001999999995
21
-57.5000009999999975
0
ARC
8
BLACK
10
102.000001999999995
20
-147.5
40
74.9999990000000025
50
0.00000000
51
90.00000000
0
LINE
8
BLACK
6
CONTINUOUS
10
102.000001999999995
20
-66.500001999999995
11
100.500001999999995
21
-66.500001999999995
0
LINE
8
BLACK
6
CONTINUOUS
10
102.000001999999995
20
-62.5000009999999975
11
102.000001999999995
21
-66.500001999999995
0
LINE
8
BLACK
6
CONTINUOUS
10
177.0000009999999975
20
-147.5
11
181.
21
-147.5
0
LINE
8
BLACK
6
CONTINUOUS
10
100.500001999999995
20
-68.500001999999995
11
102.0000009999999975
21
-68.500001999999995
0
CIRCLE
8
BLACK
10
169.5685440000000028
20
-79.9314569999999947
40
2.
0
LINE
8
BLACK
6
CONTINUOUS
10
98.500001999999995
20
-70.500001999999995
11
100.500001999999995
21
-70.500001999999995
0
LINE
8
BLACK
6
CONTINUOUS
10
181.
20
-146.0000009999999975
11
181.
21
-147.5
0
LINE
8
BLACK
6
CONTINUOUS
10
111.500001999999995
20
-57.5000009999999975
11
113.0000009999999975
21
-57.5000009999999975
0
LINE
8
BLACK
6
CONTINUOUS
10
98.500001999999995
20
-64.500001999999995
11
98.500001999999995
21
-70.500001999999995
0
LINE
8
BLACK
6
CONTINUOUS
10
194.
20
-136.4999990000000025
11
198.0000009999999975
21
-136.4999990000000025
0
LINE
8
BLACK
6
CONTINUOUS
10
113.000001999999995
20
-55.5000009999999975
11
111.500001999999995
21
-55.5000009999999975
0
LINE
8
BLACK
6
CONTINUOUS
10
196.
20
-135.
11
196.
21
-133.
0
LINE
8
BLACK
6
CONTINUOUS
10
188.0000009999999975
20
-136.4999990000000025
11
192.
21
-136.4999990000000025
0
LINE
8
BLACK
6
CONTINUOUS
10
100.500001999999995
20
-64.500001999999995
11
98.500001999999995
21
-64.500001999999995
0
LINE
8
BLACK
6
CONTINUOUS
10
102.0000009999999975
20
-68.500001999999995
11
102.000001999999995
21
-72.5000009999999975
0
LINE
8
BLACK
6
CONTINUOUS
10
190.
20
-135.
11
192.
21
-135.
0
LINE
8
BLACK
6
CONTINUOUS
10
192.
20
-135.
11
192.
21
-136.4999990000000025
0
LINE
8
BLACK
6
CONTINUOUS
10
194.
20
-136.5
11
194.
21
-135.
0
LINE
8
BLACK
6
CONTINUOUS
10
194.
20
-135.
11
196.
21
-135.
0
LINE
8
BLACK
6
CONTINUOUS
10
196.
20
-133.
11
190.
21
-133.
0
CIRCLE
8
BLACK
10
158.5685440000000028
20
-90.9314579999999921
40
2.
0
LINE
8
BLACK
6
CONTINUOUS
10
111.500001999999995
20
-55.5000009999999975
11
111.500001999999995
21
-53.5000009999999975
0
LINE
8
BLACK
6
CONTINUOUS
10
109.500001999999995
20
-53.5000009999999975
11
109.500001999999995
21
-59.5000009999999975
0
LINE
8
BLACK
6
CONTINUOUS
10
109.500001999999995
20
-59.5000009999999975
11
111.500001999999995
21
-59.5000009999999975
0
LINE
8
BLACK
6
CONTINUOUS
10
111.500001999999995
20
-53.5000009999999975
11
109.500001999999995
21
-53.5000009999999975
0
LINE
8
BLACK
6
CONTINUOUS
10
190.
20
-133.
11
190.
21
-135.
0
LINE
8
BLACK
6
CONTINUOUS
10
183.
20
-147.5000009999999975
11
183.
21
-146.0000009999999975
0
LINE
8
BLACK
6
CONTINUOUS
10
183.
20
-146.0000009999999975
11
185.
21
-146.0000009999999975
0
LINE
8
BLACK
6
CONTINUOUS
10
185.
20
-146.0000009999999975
11
185.
21
-144.0000009999999975
0
LINE
8
BLACK
6
CONTINUOUS
10
100.500001999999995
20
-70.500001999999995
11
100.500001999999995
21
-68.500001999999995
0
LINE
8
BLACK
6
CONTINUOUS
10
179.
20
-144.0000009999999975
11
179.
21
-146.0000009999999975
0
ARC
8
BLACK
10
113.
20
-136.5000009999999975
40
85.0000010000000259
50
0.00000135
51
89.99999865
0
LINE
8
BLACK
6
CONTINUOUS
10
113.0000009999999975
20
-57.5000009999999975
11
113.000001999999995
21
-61.5
0
LINE
8
BLACK
6
CONTINUOUS
10
179.
20
-146.0000009999999975
11
181.
21
-146.0000009999999975
0
LINE
8
BLACK
6
CONTINUOUS
10
100.500001999999995
20
-66.500001999999995
11
100.500001999999995
21
-64.500001999999995
0
ARC
8
BLACK
10
124.0000009999999975
20
-126.0000009999999975
40
75.
50
0.00000076
51
90.00000000
0
LINE
8
BLACK
6
CONTINUOUS
10
124.0000009999999975
20
-41.0000009999999975
11
124.0000009999999975
21
-45.000001999999995
0
LINE
8
BLACK
6
CONTINUOUS
10
122.5000009999999975
20
-49.000001999999995
11
122.5000009999999975
21
-47.000001999999995
0
CIRCLE
8
BLACK
10
180.5685430000000053
20
-69.4314579999999921
40
2.
0
LINE
8
BLACK
6
CONTINUOUS
10
122.5000009999999975
20
-47.000001999999995
11
124.
21
-47.000001999999995
0
LINE
8
BLACK
6
CONTINUOUS
10
204.9999990000000025
20
-126.
11
209.
21
-126.
0
LINE
8
BLACK
6
CONTINUOUS
10
124.0000009999999975
20
-45.000001999999995
11
122.5000009999999975
21
-45.000001999999995
0
LINE
8
BLACK
6
CONTINUOUS
10
206.9999990000000025
20
-124.5000009999999975
11
206.9999990000000025
21
-122.5000009999999975
0
LINE
8
BLACK
6
CONTINUOUS
10
199.
20
-126.
11
202.9999990000000025
21
-126.
0
LINE
8
BLACK
6
CONTINUOUS
10
200.9999990000000025
20
-124.5000009999999975
11
202.9999990000000025
21
-124.5000009999999975
0
LINE
8
BLACK
6
CONTINUOUS
10
202.9999990000000025
20
-124.5000009999999975
11
202.9999990000000025
21
-126.
0
LINE
8
BLACK
6
CONTINUOUS
10
204.9999990000000025
20
-126.0000009999999975
11
204.9999990000000025
21
-124.5000009999999975
0
LINE
8
BLACK
6
CONTINUOUS
10
204.9999990000000025
20
-124.5000009999999975
11
206.9999990000000025
21
-124.5000009999999975
0
LINE
8
BLACK
6
CONTINUOUS
10
206.9999990000000025
20
-122.5000009999999975
11
200.9999990000000025
21
-122.5000009999999975
0
LINE
8
BLACK
6
CONTINUOUS
10
122.5000009999999975
20
-45.000001999999995
11
122.5000009999999975
21
-43.000001999999995
0
LINE
8
BLACK
6
CONTINUOUS
10
120.5000009999999975
20
-43.000001999999995
11
120.5000009999999975
21
-49.000001999999995
0
LINE
8
BLACK
6
CONTINUOUS
10
120.5000009999999975
20
-49.000001999999995
11
122.5000009999999975
21
-49.000001999999995
0
LINE
8
BLACK
6
CONTINUOUS
10
122.5000009999999975
20
-43.000001999999995
11
120.5000009999999975
21
-43.000001999999995
0
LINE
8
BLACK
6
CONTINUOUS
10
200.9999990000000025
20
-122.5000009999999975
11
200.9999990000000025
21
-124.5000009999999975
0
ARC
8
BLACK
10
123.9999989999999883
20
-126.000001999999995
40
85.0000010000000259
50
0.00000135
51
89.99999865
0
LINE
8
BLACK
6
CONTINUOUS
10
124.
20
-47.000001999999995
11
124.0000009999999975
21
-51.0000009999999975
0
CIRCLE
8
BLACK
10
191.5685430000000053
20
-58.4314569999999947
40
2.
0
LINE
8
BLACK
6
CONTINUOUS
10
215.9999990000000025
20
-114.9999989999999883
11
220.
21
-114.9999989999999883
0
LINE
8
BLACK
6
CONTINUOUS
10
210.
20
-114.9999989999999883
11
213.9999990000000025
21
-114.9999989999999883
0
LINE
8
BLACK
6
CONTINUOUS
10
211.9999990000000025
20
-113.5
11
213.9999990000000025
21
-113.5
0
LINE
8
BLACK
6
CONTINUOUS
10
213.9999990000000025
20
-113.5
11
213.9999990000000025
21
-114.9999989999999883
0
LINE
8
BLACK
6
CONTINUOUS
10
215.9999990000000025
20
-115.
11
215.9999990000000025
21
-113.5
0
LINE
8
BLACK
6
CONTINUOUS
10
215.9999990000000025
20
-113.5
11
217.9999990000000025
21
-113.5
0
LINE
8
BLACK
6
CONTINUOUS
10
217.9999990000000025
20
-111.5
11
211.9999990000000025
21
-111.5
0
LINE
8
BLACK
6
CONTINUOUS
10
211.9999990000000025
20
-111.5
11
211.9999990000000025
21
-113.5
0
LINE
8
BLACK
6
CONTINUOUS
10
217.9999990000000025
20
-113.5
11
217.9999990000000025
21
-111.5
0
LINE
8
BLACK
6
CONTINUOUS
10
135.
20
-36.0000009999999975
11
135.0000009999999975
21
-40.
0
LINE
8
BLACK
6
CONTINUOUS
10
133.5000009999999975
20
-36.0000009999999975
11
135.
21
-36.0000009999999975
0
LINE
8
BLACK
6
CONTINUOUS
10
133.5000009999999975
20
-38.0000009999999975
11
133.5000009999999975
21
-36.0000009999999975
0
LINE
8
BLACK
6
CONTINUOUS
10
131.5000009999999975
20
-38.0000009999999975
11
133.5000009999999975
21
-38.0000009999999975
0
LINE
8
BLACK
6
CONTINUOUS
10
131.5000009999999975
20
-32.0000009999999975
11
131.5000009999999975
21
-38.0000009999999975
0
LINE
8
BLACK
6
CONTINUOUS
10
133.5000009999999975
20
-32.0000009999999975
11
131.5000009999999975
21
-32.0000009999999975
0
LINE
8
BLACK
6
CONTINUOUS
10
133.5000009999999975
20
-34.0000009999999975
11
133.5000009999999975
21
-32.0000009999999975
0
LINE
8
BLACK
6
CONTINUOUS
10
135.0000009999999975
20
-34.0000009999999975
11
133.5000009999999975
21
-34.0000009999999975
0
LINE
8
BLACK
6
CONTINUOUS
10
135.0000009999999975
20
-30.
11
135.0000009999999975
21
-34.0000009999999975
0
ARC
8
BLACK
10
135.
20
-115.
40
85.
50
0.00000067
51
89.99999933
0
ARC
8
BLACK
10
135.0000009999999975
20
-114.9999989999999883
40
74.9999990000000025
50
0.00000000
51
90.00000000
  0
ENDSEC
  0
EOF
